<?xml version="1.0" encoding="utf-8" standalone="no"?>
<!DOCTYPE svg PUBLIC "-//W3C//DTD SVG 1.1//EN"
  "http://www.w3.org/Graphics/SVG/1.1/DTD/svg11.dtd">
<!-- Created with matplotlib (http://matplotlib.org/) -->
<svg height="288pt" version="1.1" viewBox="0 0 1728 288" width="1728pt" xmlns="http://www.w3.org/2000/svg" xmlns:xlink="http://www.w3.org/1999/xlink">
 <defs>
  <style type="text/css">
*{stroke-linecap:butt;stroke-linejoin:round;}
  </style>
 </defs>
 <g id="figure_1">
  <g id="patch_1">
   <path d="M 0 288 
L 1728 288 
L 1728 0 
L 0 0 
z
" style="fill:#f0f0f0;"/>
  </g>
  <g id="axes_1">
   <g id="patch_2">
    <path d="M 172.8 239.04 
L 1624.32 239.04 
L 1624.32 57.6 
L 172.8 57.6 
z
" style="fill:#f0f0f0;"/>
   </g>
   <g id="matplotlib.axis_1">
    <g id="xtick_1">
     <g id="line2d_1">
      <path clip-path="url(#p741f44f116)" d="M 187.654737 239.04 
L 187.654737 57.6 
" style="fill:none;stroke:#cbcbcb;"/>
     </g>
     <g id="line2d_2"/>
     <g id="text_1">
      <!-- 0 -->
      <defs>
       <path d="M 48.203125 52.59375 
L 48.203125 17.40625 
Q 48.203125 9.703125 42.953125 4.34375 
Q 37.703125 -1 29.890625 -1 
Q 22.09375 -1 16.9375 4.390625 
Q 11.796875 9.796875 11.796875 17.5 
L 11.796875 52.59375 
Q 11.796875 60.296875 16.9375 65.640625 
Q 22.09375 71 29.890625 71 
Q 37.703125 71 42.953125 65.640625 
Q 48.203125 60.296875 48.203125 52.59375 
z
M 39.90625 17.296875 
L 39.90625 52.5 
Q 39.90625 56.90625 37 60 
Q 34.09375 63.09375 29.90625 63.09375 
Q 25.796875 63.09375 22.890625 60 
Q 20 56.90625 20 52.5 
L 20 17.40625 
Q 20 13 22.890625 9.953125 
Q 25.796875 6.90625 30 6.90625 
Q 34.09375 6.90625 37 9.90625 
Q 39.90625 12.90625 39.90625 17.296875 
z
" id="DecimaMonoPro-30"/>
      </defs>
      <g style="fill:#303030;" transform="translate(189.478018 246.74)rotate(-90)scale(0.07 -0.07)">
       <use xlink:href="#DecimaMonoPro-30"/>
      </g>
     </g>
    </g>
    <g id="xtick_2">
     <g id="line2d_3">
      <path clip-path="url(#p741f44f116)" d="M 208.875789 239.04 
L 208.875789 57.6 
" style="fill:none;stroke:#cbcbcb;"/>
     </g>
     <g id="line2d_4"/>
    </g>
    <g id="xtick_3">
     <g id="line2d_5">
      <path clip-path="url(#p741f44f116)" d="M 230.096842 239.04 
L 230.096842 57.6 
" style="fill:none;stroke:#cbcbcb;"/>
     </g>
     <g id="line2d_6"/>
    </g>
    <g id="xtick_4">
     <g id="line2d_7">
      <path clip-path="url(#p741f44f116)" d="M 251.317895 239.04 
L 251.317895 57.6 
" style="fill:none;stroke:#cbcbcb;"/>
     </g>
     <g id="line2d_8"/>
    </g>
    <g id="xtick_5">
     <g id="line2d_9">
      <path clip-path="url(#p741f44f116)" d="M 272.538947 239.04 
L 272.538947 57.6 
" style="fill:none;stroke:#cbcbcb;"/>
     </g>
     <g id="line2d_10"/>
    </g>
    <g id="xtick_6">
     <g id="line2d_11">
      <path clip-path="url(#p741f44f116)" d="M 293.76 239.04 
L 293.76 57.6 
" style="fill:none;stroke:#cbcbcb;"/>
     </g>
     <g id="line2d_12"/>
     <g id="text_2">
      <!-- 5 -->
      <defs>
       <path d="M 21.90625 35.59375 
Q 21.09375 34.40625 19.796875 34.40625 
Q 19.40625 34.40625 18.203125 34.796875 
L 14.796875 35.796875 
Q 13.203125 36.296875 13.40625 38.5 
L 15.90625 67.703125 
Q 16.09375 70 18.09375 70 
L 44.40625 70 
Q 46.59375 70 46.59375 67.703125 
L 46.59375 64.40625 
Q 46.59375 62.09375 44.40625 62.09375 
L 24.09375 62.09375 
L 22.40625 44.796875 
Q 25.203125 47.203125 30.703125 47.203125 
Q 38.40625 47.203125 43.703125 42 
Q 49 36.796875 49 28.90625 
L 49 17.5 
Q 49 9.796875 43.5 4.390625 
Q 38 -1 30.09375 -1 
Q 21.90625 -1 16.453125 4.34375 
Q 11 9.703125 11 17.40625 
Q 11 18.203125 11.59375 18.796875 
Q 12.203125 19.40625 13.296875 19.40625 
L 17.09375 19.40625 
Q 18.203125 19.40625 18.796875 18.796875 
Q 19.40625 18.203125 19.40625 17.40625 
Q 19.40625 13 22.5 9.953125 
Q 25.59375 6.90625 30.09375 6.90625 
Q 34.5 6.90625 37.546875 9.953125 
Q 40.59375 13 40.59375 17.40625 
L 40.59375 28.796875 
Q 40.59375 33.203125 37.5 36.25 
Q 34.40625 39.296875 29.796875 39.296875 
Q 27.703125 39.296875 25.796875 38.4375 
Q 23.90625 37.59375 23.09375 36.890625 
Q 22.296875 36.203125 21.90625 35.59375 
z
" id="DecimaMonoPro-35"/>
      </defs>
      <g style="fill:#303030;" transform="translate(295.583281 246.74)rotate(-90)scale(0.07 -0.07)">
       <use xlink:href="#DecimaMonoPro-35"/>
      </g>
     </g>
    </g>
    <g id="xtick_7">
     <g id="line2d_13">
      <path clip-path="url(#p741f44f116)" d="M 314.981053 239.04 
L 314.981053 57.6 
" style="fill:none;stroke:#cbcbcb;"/>
     </g>
     <g id="line2d_14"/>
    </g>
    <g id="xtick_8">
     <g id="line2d_15">
      <path clip-path="url(#p741f44f116)" d="M 336.202105 239.04 
L 336.202105 57.6 
" style="fill:none;stroke:#cbcbcb;"/>
     </g>
     <g id="line2d_16"/>
    </g>
    <g id="xtick_9">
     <g id="line2d_17">
      <path clip-path="url(#p741f44f116)" d="M 357.423158 239.04 
L 357.423158 57.6 
" style="fill:none;stroke:#cbcbcb;"/>
     </g>
     <g id="line2d_18"/>
    </g>
    <g id="xtick_10">
     <g id="line2d_19">
      <path clip-path="url(#p741f44f116)" d="M 378.644211 239.04 
L 378.644211 57.6 
" style="fill:none;stroke:#cbcbcb;"/>
     </g>
     <g id="line2d_20"/>
    </g>
    <g id="xtick_11">
     <g id="line2d_21">
      <path clip-path="url(#p741f44f116)" d="M 399.865263 239.04 
L 399.865263 57.6 
" style="fill:none;stroke:#cbcbcb;"/>
     </g>
     <g id="line2d_22"/>
     <g id="text_3">
      <!-- 10 -->
      <defs>
       <path d="M 13.90625 68.203125 
L 25.203125 70 
L 32.296875 70 
Q 33 70 33.546875 69.5 
Q 34.09375 69 34.09375 68.203125 
L 34.09375 7.703125 
L 47.296875 7.703125 
Q 48 7.703125 48.546875 7.140625 
Q 49.09375 6.59375 49.09375 5.90625 
L 49.09375 1.796875 
Q 49.09375 1 48.546875 0.5 
Q 48 0 47.296875 0 
L 12.59375 0 
Q 11.796875 0 11.296875 0.5 
Q 10.796875 1 10.796875 1.796875 
L 10.796875 5.90625 
Q 10.796875 6.59375 11.296875 7.140625 
Q 11.796875 7.703125 12.59375 7.703125 
L 25.703125 7.703125 
L 25.703125 62.09375 
L 14.703125 60.40625 
L 14.40625 60.40625 
Q 14 60.296875 13.5 60.296875 
Q 12.09375 60.296875 12.09375 62.09375 
L 12.09375 66.296875 
Q 12.09375 67.796875 13.90625 68.203125 
z
" id="DecimaMonoPro-31"/>
      </defs>
      <g style="fill:#303030;" transform="translate(401.688544 250.94)rotate(-90)scale(0.07 -0.07)">
       <use xlink:href="#DecimaMonoPro-31"/>
       <use x="59.999985" xlink:href="#DecimaMonoPro-30"/>
      </g>
     </g>
    </g>
    <g id="xtick_12">
     <g id="line2d_23">
      <path clip-path="url(#p741f44f116)" d="M 421.086316 239.04 
L 421.086316 57.6 
" style="fill:none;stroke:#cbcbcb;"/>
     </g>
     <g id="line2d_24"/>
    </g>
    <g id="xtick_13">
     <g id="line2d_25">
      <path clip-path="url(#p741f44f116)" d="M 442.307368 239.04 
L 442.307368 57.6 
" style="fill:none;stroke:#cbcbcb;"/>
     </g>
     <g id="line2d_26"/>
    </g>
    <g id="xtick_14">
     <g id="line2d_27">
      <path clip-path="url(#p741f44f116)" d="M 463.528421 239.04 
L 463.528421 57.6 
" style="fill:none;stroke:#cbcbcb;"/>
     </g>
     <g id="line2d_28"/>
    </g>
    <g id="xtick_15">
     <g id="line2d_29">
      <path clip-path="url(#p741f44f116)" d="M 484.749474 239.04 
L 484.749474 57.6 
" style="fill:none;stroke:#cbcbcb;"/>
     </g>
     <g id="line2d_30"/>
    </g>
    <g id="xtick_16">
     <g id="line2d_31">
      <path clip-path="url(#p741f44f116)" d="M 505.970526 239.04 
L 505.970526 57.6 
" style="fill:none;stroke:#cbcbcb;"/>
     </g>
     <g id="line2d_32"/>
     <g id="text_4">
      <!-- 15 -->
      <g style="fill:#303030;" transform="translate(507.793808 250.94)rotate(-90)scale(0.07 -0.07)">
       <use xlink:href="#DecimaMonoPro-31"/>
       <use x="59.999985" xlink:href="#DecimaMonoPro-35"/>
      </g>
     </g>
    </g>
    <g id="xtick_17">
     <g id="line2d_33">
      <path clip-path="url(#p741f44f116)" d="M 527.191579 239.04 
L 527.191579 57.6 
" style="fill:none;stroke:#cbcbcb;"/>
     </g>
     <g id="line2d_34"/>
    </g>
    <g id="xtick_18">
     <g id="line2d_35">
      <path clip-path="url(#p741f44f116)" d="M 548.412632 239.04 
L 548.412632 57.6 
" style="fill:none;stroke:#cbcbcb;"/>
     </g>
     <g id="line2d_36"/>
    </g>
    <g id="xtick_19">
     <g id="line2d_37">
      <path clip-path="url(#p741f44f116)" d="M 569.633684 239.04 
L 569.633684 57.6 
" style="fill:none;stroke:#cbcbcb;"/>
     </g>
     <g id="line2d_38"/>
    </g>
    <g id="xtick_20">
     <g id="line2d_39">
      <path clip-path="url(#p741f44f116)" d="M 590.854737 239.04 
L 590.854737 57.6 
" style="fill:none;stroke:#cbcbcb;"/>
     </g>
     <g id="line2d_40"/>
    </g>
    <g id="xtick_21">
     <g id="line2d_41">
      <path clip-path="url(#p741f44f116)" d="M 612.075789 239.04 
L 612.075789 57.6 
" style="fill:none;stroke:#cbcbcb;"/>
     </g>
     <g id="line2d_42"/>
     <g id="text_5">
      <!-- 20 -->
      <defs>
       <path d="M 11.703125 53 
Q 11.703125 59.703125 17.203125 65.34375 
Q 22.703125 71 30.59375 71 
Q 38.40625 71 43.796875 65.75 
Q 49.203125 60.5 49.203125 52.703125 
Q 49.203125 46.90625 46.09375 41.75 
Q 43 36.59375 38.59375 32.84375 
Q 34.203125 29.09375 29.796875 25.4375 
Q 25.40625 21.796875 22.296875 17.296875 
Q 19.203125 12.796875 19.203125 7.796875 
L 47.40625 7.796875 
Q 48.203125 7.796875 48.703125 7.296875 
Q 49.203125 6.796875 49.203125 6 
L 49.203125 1.796875 
Q 49.203125 1 48.703125 0.5 
Q 48.203125 0 47.40625 0 
L 12.59375 0 
Q 11.796875 0 11.296875 0.5 
Q 10.796875 1 10.796875 1.796875 
L 10.796875 7.296875 
Q 10.796875 13.90625 13.890625 19.453125 
Q 17 25 21.390625 28.890625 
Q 25.796875 32.796875 30.1875 36.390625 
Q 34.59375 40 37.6875 44.296875 
Q 40.796875 48.59375 40.796875 53.296875 
Q 40.796875 57.40625 37.75 60.25 
Q 34.703125 63.09375 30.5 63.09375 
Q 26.09375 63.09375 23.1875 59.6875 
Q 20.296875 56.296875 20.09375 53 
Q 19.90625 51 17.796875 51 
L 14 51 
Q 12.90625 51 12.296875 51.59375 
Q 11.703125 52.203125 11.703125 53 
z
" id="DecimaMonoPro-32"/>
      </defs>
      <g style="fill:#303030;" transform="translate(613.899071 250.94)rotate(-90)scale(0.07 -0.07)">
       <use xlink:href="#DecimaMonoPro-32"/>
       <use x="59.999985" xlink:href="#DecimaMonoPro-30"/>
      </g>
     </g>
    </g>
    <g id="xtick_22">
     <g id="line2d_43">
      <path clip-path="url(#p741f44f116)" d="M 633.296842 239.04 
L 633.296842 57.6 
" style="fill:none;stroke:#cbcbcb;"/>
     </g>
     <g id="line2d_44"/>
    </g>
    <g id="xtick_23">
     <g id="line2d_45">
      <path clip-path="url(#p741f44f116)" d="M 654.517895 239.04 
L 654.517895 57.6 
" style="fill:none;stroke:#cbcbcb;"/>
     </g>
     <g id="line2d_46"/>
    </g>
    <g id="xtick_24">
     <g id="line2d_47">
      <path clip-path="url(#p741f44f116)" d="M 675.738947 239.04 
L 675.738947 57.6 
" style="fill:none;stroke:#cbcbcb;"/>
     </g>
     <g id="line2d_48"/>
    </g>
    <g id="xtick_25">
     <g id="line2d_49">
      <path clip-path="url(#p741f44f116)" d="M 696.96 239.04 
L 696.96 57.6 
" style="fill:none;stroke:#cbcbcb;"/>
     </g>
     <g id="line2d_50"/>
    </g>
    <g id="xtick_26">
     <g id="line2d_51">
      <path clip-path="url(#p741f44f116)" d="M 718.181053 239.04 
L 718.181053 57.6 
" style="fill:none;stroke:#cbcbcb;"/>
     </g>
     <g id="line2d_52"/>
     <g id="text_6">
      <!-- 25 -->
      <g style="fill:#303030;" transform="translate(720.004334 250.94)rotate(-90)scale(0.07 -0.07)">
       <use xlink:href="#DecimaMonoPro-32"/>
       <use x="59.999985" xlink:href="#DecimaMonoPro-35"/>
      </g>
     </g>
    </g>
    <g id="xtick_27">
     <g id="line2d_53">
      <path clip-path="url(#p741f44f116)" d="M 739.402105 239.04 
L 739.402105 57.6 
" style="fill:none;stroke:#cbcbcb;"/>
     </g>
     <g id="line2d_54"/>
    </g>
    <g id="xtick_28">
     <g id="line2d_55">
      <path clip-path="url(#p741f44f116)" d="M 760.623158 239.04 
L 760.623158 57.6 
" style="fill:none;stroke:#cbcbcb;"/>
     </g>
     <g id="line2d_56"/>
    </g>
    <g id="xtick_29">
     <g id="line2d_57">
      <path clip-path="url(#p741f44f116)" d="M 781.844211 239.04 
L 781.844211 57.6 
" style="fill:none;stroke:#cbcbcb;"/>
     </g>
     <g id="line2d_58"/>
    </g>
    <g id="xtick_30">
     <g id="line2d_59">
      <path clip-path="url(#p741f44f116)" d="M 803.065263 239.04 
L 803.065263 57.6 
" style="fill:none;stroke:#cbcbcb;"/>
     </g>
     <g id="line2d_60"/>
    </g>
    <g id="xtick_31">
     <g id="line2d_61">
      <path clip-path="url(#p741f44f116)" d="M 824.286316 239.04 
L 824.286316 57.6 
" style="fill:none;stroke:#cbcbcb;"/>
     </g>
     <g id="line2d_62"/>
     <g id="text_7">
      <!-- 30 -->
      <defs>
       <path d="M 46.203125 61.09375 
L 35.40625 47.09375 
Q 40.796875 46.40625 44.890625 41.953125 
Q 49 37.5 49 31.5 
L 49 17.5 
Q 49 9.796875 43.5 4.390625 
Q 38 -1 30 -1 
Q 21.796875 -1 16.34375 4.34375 
Q 10.90625 9.703125 10.90625 17.40625 
Q 10.90625 18.203125 11.5 18.796875 
Q 12.09375 19.40625 13.203125 19.40625 
L 17 19.40625 
Q 19.09375 19.40625 19.296875 17.40625 
Q 19.296875 13 22.390625 9.953125 
Q 25.5 6.90625 30 6.90625 
Q 34.40625 6.90625 37.5 9.953125 
Q 40.59375 13 40.59375 17.40625 
L 40.59375 31.40625 
Q 40.59375 34.59375 38.296875 36.9375 
Q 36 39.296875 32.703125 39.296875 
L 27.40625 39.296875 
Q 25.203125 39.296875 25.203125 41.59375 
L 25.203125 45 
Q 25.203125 46.703125 26.296875 48.203125 
L 36.59375 62.09375 
L 16.90625 62.09375 
Q 14.703125 62.09375 14.703125 64.40625 
L 14.703125 67.703125 
Q 14.703125 70 16.90625 70 
L 45.09375 70 
Q 47.296875 70 47.296875 67.703125 
L 47.296875 64.296875 
Q 47.296875 62.59375 46.203125 61.09375 
z
" id="DecimaMonoPro-33"/>
      </defs>
      <g style="fill:#303030;" transform="translate(826.109597 250.94)rotate(-90)scale(0.07 -0.07)">
       <use xlink:href="#DecimaMonoPro-33"/>
       <use x="59.999985" xlink:href="#DecimaMonoPro-30"/>
      </g>
     </g>
    </g>
    <g id="xtick_32">
     <g id="line2d_63">
      <path clip-path="url(#p741f44f116)" d="M 845.507368 239.04 
L 845.507368 57.6 
" style="fill:none;stroke:#cbcbcb;"/>
     </g>
     <g id="line2d_64"/>
    </g>
    <g id="xtick_33">
     <g id="line2d_65">
      <path clip-path="url(#p741f44f116)" d="M 866.728421 239.04 
L 866.728421 57.6 
" style="fill:none;stroke:#cbcbcb;"/>
     </g>
     <g id="line2d_66"/>
    </g>
    <g id="xtick_34">
     <g id="line2d_67">
      <path clip-path="url(#p741f44f116)" d="M 887.949474 239.04 
L 887.949474 57.6 
" style="fill:none;stroke:#cbcbcb;"/>
     </g>
     <g id="line2d_68"/>
    </g>
    <g id="xtick_35">
     <g id="line2d_69">
      <path clip-path="url(#p741f44f116)" d="M 909.170526 239.04 
L 909.170526 57.6 
" style="fill:none;stroke:#cbcbcb;"/>
     </g>
     <g id="line2d_70"/>
    </g>
    <g id="xtick_36">
     <g id="line2d_71">
      <path clip-path="url(#p741f44f116)" d="M 930.391579 239.04 
L 930.391579 57.6 
" style="fill:none;stroke:#cbcbcb;"/>
     </g>
     <g id="line2d_72"/>
     <g id="text_8">
      <!-- 35 -->
      <g style="fill:#303030;" transform="translate(932.21486 250.94)rotate(-90)scale(0.07 -0.07)">
       <use xlink:href="#DecimaMonoPro-33"/>
       <use x="59.999985" xlink:href="#DecimaMonoPro-35"/>
      </g>
     </g>
    </g>
    <g id="xtick_37">
     <g id="line2d_73">
      <path clip-path="url(#p741f44f116)" d="M 951.612632 239.04 
L 951.612632 57.6 
" style="fill:none;stroke:#cbcbcb;"/>
     </g>
     <g id="line2d_74"/>
    </g>
    <g id="xtick_38">
     <g id="line2d_75">
      <path clip-path="url(#p741f44f116)" d="M 972.833684 239.04 
L 972.833684 57.6 
" style="fill:none;stroke:#cbcbcb;"/>
     </g>
     <g id="line2d_76"/>
    </g>
    <g id="xtick_39">
     <g id="line2d_77">
      <path clip-path="url(#p741f44f116)" d="M 994.054737 239.04 
L 994.054737 57.6 
" style="fill:none;stroke:#cbcbcb;"/>
     </g>
     <g id="line2d_78"/>
    </g>
    <g id="xtick_40">
     <g id="line2d_79">
      <path clip-path="url(#p741f44f116)" d="M 1015.275789 239.04 
L 1015.275789 57.6 
" style="fill:none;stroke:#cbcbcb;"/>
     </g>
     <g id="line2d_80"/>
    </g>
    <g id="xtick_41">
     <g id="line2d_81">
      <path clip-path="url(#p741f44f116)" d="M 1036.496842 239.04 
L 1036.496842 57.6 
" style="fill:none;stroke:#cbcbcb;"/>
     </g>
     <g id="line2d_82"/>
     <g id="text_9">
      <!-- 40 -->
      <defs>
       <path d="M 40.09375 67.5 
L 19.5 22.90625 
L 35.796875 22.90625 
L 35.796875 38.90625 
Q 35.796875 39.703125 36.390625 40.296875 
Q 37 40.90625 38.09375 40.90625 
L 42.203125 40.90625 
Q 43 40.90625 43.59375 40.25 
Q 44.203125 39.59375 44.203125 38.90625 
L 44.203125 22.90625 
L 48 22.90625 
Q 48.796875 22.90625 49.390625 22.296875 
Q 50 21.703125 50 20.59375 
L 50 17.40625 
Q 50 16.296875 49.390625 15.6875 
Q 48.796875 15.09375 48 15.09375 
L 44.203125 15.09375 
L 44.203125 2 
Q 44.203125 1.203125 43.59375 0.59375 
Q 43 0 42.203125 0 
L 38.09375 0 
Q 37 0 36.390625 0.59375 
Q 35.796875 1.203125 35.796875 2 
L 35.796875 15.09375 
L 12.09375 15.09375 
Q 9.90625 15.09375 9.90625 17.40625 
L 9.90625 21.296875 
Q 9.90625 22.5 11 24.703125 
L 31.296875 68 
Q 32.296875 70 34 70 
L 38.796875 70 
Q 40.5 70 40.5 68.796875 
Q 40.5 68.5 40.09375 67.5 
z
" id="DecimaMonoPro-34"/>
      </defs>
      <g style="fill:#303030;" transform="translate(1038.320123 250.94)rotate(-90)scale(0.07 -0.07)">
       <use xlink:href="#DecimaMonoPro-34"/>
       <use x="59.999985" xlink:href="#DecimaMonoPro-30"/>
      </g>
     </g>
    </g>
    <g id="xtick_42">
     <g id="line2d_83">
      <path clip-path="url(#p741f44f116)" d="M 1057.717895 239.04 
L 1057.717895 57.6 
" style="fill:none;stroke:#cbcbcb;"/>
     </g>
     <g id="line2d_84"/>
    </g>
    <g id="xtick_43">
     <g id="line2d_85">
      <path clip-path="url(#p741f44f116)" d="M 1078.938947 239.04 
L 1078.938947 57.6 
" style="fill:none;stroke:#cbcbcb;"/>
     </g>
     <g id="line2d_86"/>
    </g>
    <g id="xtick_44">
     <g id="line2d_87">
      <path clip-path="url(#p741f44f116)" d="M 1100.16 239.04 
L 1100.16 57.6 
" style="fill:none;stroke:#cbcbcb;"/>
     </g>
     <g id="line2d_88"/>
    </g>
    <g id="xtick_45">
     <g id="line2d_89">
      <path clip-path="url(#p741f44f116)" d="M 1121.381053 239.04 
L 1121.381053 57.6 
" style="fill:none;stroke:#cbcbcb;"/>
     </g>
     <g id="line2d_90"/>
    </g>
    <g id="xtick_46">
     <g id="line2d_91">
      <path clip-path="url(#p741f44f116)" d="M 1142.602105 239.04 
L 1142.602105 57.6 
" style="fill:none;stroke:#cbcbcb;"/>
     </g>
     <g id="line2d_92"/>
     <g id="text_10">
      <!-- 45 -->
      <g style="fill:#303030;" transform="translate(1144.425387 250.94)rotate(-90)scale(0.07 -0.07)">
       <use xlink:href="#DecimaMonoPro-34"/>
       <use x="59.999985" xlink:href="#DecimaMonoPro-35"/>
      </g>
     </g>
    </g>
    <g id="xtick_47">
     <g id="line2d_93">
      <path clip-path="url(#p741f44f116)" d="M 1163.823158 239.04 
L 1163.823158 57.6 
" style="fill:none;stroke:#cbcbcb;"/>
     </g>
     <g id="line2d_94"/>
    </g>
    <g id="xtick_48">
     <g id="line2d_95">
      <path clip-path="url(#p741f44f116)" d="M 1185.044211 239.04 
L 1185.044211 57.6 
" style="fill:none;stroke:#cbcbcb;"/>
     </g>
     <g id="line2d_96"/>
    </g>
    <g id="xtick_49">
     <g id="line2d_97">
      <path clip-path="url(#p741f44f116)" d="M 1206.265263 239.04 
L 1206.265263 57.6 
" style="fill:none;stroke:#cbcbcb;"/>
     </g>
     <g id="line2d_98"/>
    </g>
    <g id="xtick_50">
     <g id="line2d_99">
      <path clip-path="url(#p741f44f116)" d="M 1227.486316 239.04 
L 1227.486316 57.6 
" style="fill:none;stroke:#cbcbcb;"/>
     </g>
     <g id="line2d_100"/>
    </g>
    <g id="xtick_51">
     <g id="line2d_101">
      <path clip-path="url(#p741f44f116)" d="M 1248.707368 239.04 
L 1248.707368 57.6 
" style="fill:none;stroke:#cbcbcb;"/>
     </g>
     <g id="line2d_102"/>
     <g id="text_11">
      <!-- 50 -->
      <g style="fill:#303030;" transform="translate(1250.53065 250.94)rotate(-90)scale(0.07 -0.07)">
       <use xlink:href="#DecimaMonoPro-35"/>
       <use x="59.999985" xlink:href="#DecimaMonoPro-30"/>
      </g>
     </g>
    </g>
    <g id="xtick_52">
     <g id="line2d_103">
      <path clip-path="url(#p741f44f116)" d="M 1269.928421 239.04 
L 1269.928421 57.6 
" style="fill:none;stroke:#cbcbcb;"/>
     </g>
     <g id="line2d_104"/>
    </g>
    <g id="xtick_53">
     <g id="line2d_105">
      <path clip-path="url(#p741f44f116)" d="M 1291.149474 239.04 
L 1291.149474 57.6 
" style="fill:none;stroke:#cbcbcb;"/>
     </g>
     <g id="line2d_106"/>
    </g>
    <g id="xtick_54">
     <g id="line2d_107">
      <path clip-path="url(#p741f44f116)" d="M 1312.370526 239.04 
L 1312.370526 57.6 
" style="fill:none;stroke:#cbcbcb;"/>
     </g>
     <g id="line2d_108"/>
    </g>
    <g id="xtick_55">
     <g id="line2d_109">
      <path clip-path="url(#p741f44f116)" d="M 1333.591579 239.04 
L 1333.591579 57.6 
" style="fill:none;stroke:#cbcbcb;"/>
     </g>
     <g id="line2d_110"/>
    </g>
    <g id="xtick_56">
     <g id="line2d_111">
      <path clip-path="url(#p741f44f116)" d="M 1354.812632 239.04 
L 1354.812632 57.6 
" style="fill:none;stroke:#cbcbcb;"/>
     </g>
     <g id="line2d_112"/>
     <g id="text_12">
      <!-- 55 -->
      <g style="fill:#303030;" transform="translate(1356.635913 250.94)rotate(-90)scale(0.07 -0.07)">
       <use xlink:href="#DecimaMonoPro-35"/>
       <use x="59.999985" xlink:href="#DecimaMonoPro-35"/>
      </g>
     </g>
    </g>
    <g id="xtick_57">
     <g id="line2d_113">
      <path clip-path="url(#p741f44f116)" d="M 1376.033684 239.04 
L 1376.033684 57.6 
" style="fill:none;stroke:#cbcbcb;"/>
     </g>
     <g id="line2d_114"/>
    </g>
    <g id="xtick_58">
     <g id="line2d_115">
      <path clip-path="url(#p741f44f116)" d="M 1397.254737 239.04 
L 1397.254737 57.6 
" style="fill:none;stroke:#cbcbcb;"/>
     </g>
     <g id="line2d_116"/>
    </g>
    <g id="xtick_59">
     <g id="line2d_117">
      <path clip-path="url(#p741f44f116)" d="M 1418.475789 239.04 
L 1418.475789 57.6 
" style="fill:none;stroke:#cbcbcb;"/>
     </g>
     <g id="line2d_118"/>
    </g>
    <g id="xtick_60">
     <g id="line2d_119">
      <path clip-path="url(#p741f44f116)" d="M 1439.696842 239.04 
L 1439.696842 57.6 
" style="fill:none;stroke:#cbcbcb;"/>
     </g>
     <g id="line2d_120"/>
    </g>
    <g id="xtick_61">
     <g id="line2d_121">
      <path clip-path="url(#p741f44f116)" d="M 1460.917895 239.04 
L 1460.917895 57.6 
" style="fill:none;stroke:#cbcbcb;"/>
     </g>
     <g id="line2d_122"/>
     <g id="text_13">
      <!-- 60 -->
      <defs>
       <path d="M 11 60.203125 
Q 21.59375 71 29.5 71 
Q 37.40625 71 42.65625 65.953125 
Q 47.90625 60.90625 47.90625 54.40625 
Q 47.90625 53.59375 47.296875 53 
Q 46.703125 52.40625 45.59375 52.40625 
L 41.796875 52.40625 
Q 39.703125 52.40625 39.5 54.40625 
Q 39.296875 57.59375 36.640625 60.296875 
Q 34 63 29.5 63 
Q 25.203125 63 22.25 59.890625 
Q 19.296875 56.796875 19.296875 52.40625 
L 19.296875 42.796875 
Q 19.703125 43.296875 20.59375 44.046875 
Q 21.5 44.796875 24.546875 46 
Q 27.59375 47.203125 31 47.203125 
Q 38.40625 47.203125 43.703125 42 
Q 49 36.796875 49 28.90625 
L 49 17.5 
Q 49 9.796875 43.546875 4.390625 
Q 38.09375 -1 30 -1 
Q 21.90625 -1 16.453125 4.34375 
Q 11 9.703125 11 17.40625 
L 11 52.5 
Q 11 60.203125 21.59375 71 
z
M 30 39.296875 
Q 25.40625 39.296875 22.34375 36.390625 
Q 19.296875 33.5 19.296875 28.796875 
L 19.296875 17.296875 
Q 19.296875 12.90625 22.390625 9.90625 
Q 25.5 6.90625 30 6.90625 
Q 34.40625 6.90625 37.5 9.953125 
Q 40.59375 13 40.59375 17.40625 
L 40.59375 28.796875 
Q 40.59375 33.40625 37.546875 36.34375 
Q 34.5 39.296875 30 39.296875 
z
" id="DecimaMonoPro-36"/>
      </defs>
      <g style="fill:#303030;" transform="translate(1462.741176 250.94)rotate(-90)scale(0.07 -0.07)">
       <use xlink:href="#DecimaMonoPro-36"/>
       <use x="59.999985" xlink:href="#DecimaMonoPro-30"/>
      </g>
     </g>
    </g>
    <g id="xtick_62">
     <g id="line2d_123">
      <path clip-path="url(#p741f44f116)" d="M 1482.138947 239.04 
L 1482.138947 57.6 
" style="fill:none;stroke:#cbcbcb;"/>
     </g>
     <g id="line2d_124"/>
    </g>
    <g id="xtick_63">
     <g id="line2d_125">
      <path clip-path="url(#p741f44f116)" d="M 1503.36 239.04 
L 1503.36 57.6 
" style="fill:none;stroke:#cbcbcb;"/>
     </g>
     <g id="line2d_126"/>
    </g>
    <g id="xtick_64">
     <g id="line2d_127">
      <path clip-path="url(#p741f44f116)" d="M 1524.581053 239.04 
L 1524.581053 57.6 
" style="fill:none;stroke:#cbcbcb;"/>
     </g>
     <g id="line2d_128"/>
    </g>
    <g id="xtick_65">
     <g id="line2d_129">
      <path clip-path="url(#p741f44f116)" d="M 1545.802105 239.04 
L 1545.802105 57.6 
" style="fill:none;stroke:#cbcbcb;"/>
     </g>
     <g id="line2d_130"/>
    </g>
    <g id="xtick_66">
     <g id="line2d_131">
      <path clip-path="url(#p741f44f116)" d="M 1567.023158 239.04 
L 1567.023158 57.6 
" style="fill:none;stroke:#cbcbcb;"/>
     </g>
     <g id="line2d_132"/>
     <g id="text_14">
      <!-- 65 -->
      <g style="fill:#303030;" transform="translate(1568.846439 250.94)rotate(-90)scale(0.07 -0.07)">
       <use xlink:href="#DecimaMonoPro-36"/>
       <use x="59.999985" xlink:href="#DecimaMonoPro-35"/>
      </g>
     </g>
    </g>
    <g id="xtick_67">
     <g id="line2d_133">
      <path clip-path="url(#p741f44f116)" d="M 1588.244211 239.04 
L 1588.244211 57.6 
" style="fill:none;stroke:#cbcbcb;"/>
     </g>
     <g id="line2d_134"/>
    </g>
    <g id="xtick_68">
     <g id="line2d_135">
      <path clip-path="url(#p741f44f116)" d="M 1609.465263 239.04 
L 1609.465263 57.6 
" style="fill:none;stroke:#cbcbcb;"/>
     </g>
     <g id="line2d_136"/>
    </g>
    <g id="text_15">
     <!-- Directory index -->
     <defs>
      <path d="M 9.703125 70 
L 28.90625 70 
Q 42.5 70 51.796875 60.640625 
Q 61.09375 51.296875 61.09375 35 
Q 61.09375 18.703125 51.796875 9.34375 
Q 42.5 0 28.90625 0 
L 9.703125 0 
z
M 27.40625 61.59375 
L 18.5 61.59375 
L 18.5 8.40625 
L 27.40625 8.40625 
Q 32.40625 8.40625 36.65625 9.84375 
Q 40.90625 11.296875 44.34375 14.296875 
Q 47.796875 17.296875 49.75 22.59375 
Q 51.703125 27.90625 51.703125 35 
Q 51.703125 42.09375 49.75 47.390625 
Q 47.796875 52.703125 44.34375 55.703125 
Q 40.90625 58.703125 36.65625 60.140625 
Q 32.40625 61.59375 27.40625 61.59375 
z
" id="Apercu-44"/>
      <path d="M 9.296875 50.40625 
L 17.703125 50.40625 
L 17.703125 0 
L 9.296875 0 
z
M 7.203125 64.40625 
Q 7.203125 67.09375 9 68.9375 
Q 10.796875 70.796875 13.5 70.796875 
Q 16.203125 70.796875 18 68.9375 
Q 19.796875 67.09375 19.796875 64.40625 
Q 19.796875 61.796875 18 60 
Q 16.203125 58.203125 13.5 58.203125 
Q 10.796875 58.203125 9 60 
Q 7.203125 61.796875 7.203125 64.40625 
z
" id="Apercu-69"/>
      <path d="M 39.296875 49.703125 
L 37.59375 42.203125 
Q 34.796875 43.59375 31.703125 43.59375 
Q 26 43.59375 21.796875 37.140625 
Q 17.59375 30.703125 17.59375 19.09375 
L 17.59375 0 
L 9.203125 0 
L 9.203125 50.40625 
L 17.59375 50.40625 
L 17.59375 41.796875 
Q 19.796875 46 24 48.59375 
Q 28.203125 51.203125 32.40625 51.203125 
Q 36.5 51.203125 39.296875 49.703125 
z
" id="Apercu-72"/>
      <path d="M 51 27.296875 
L 51 23.40625 
L 14 23.40625 
Q 14.40625 16 18.046875 11.390625 
Q 21.703125 6.796875 28.203125 6.796875 
Q 33.5 6.796875 36.75 9.140625 
Q 40 11.5 42.203125 16.40625 
L 49.59375 13.203125 
Q 46.09375 5.796875 41.046875 2.5 
Q 36 -0.796875 28.203125 -0.796875 
Q 17.296875 -0.796875 11.34375 6.75 
Q 5.40625 14.296875 5.40625 25.1875 
Q 5.40625 36.09375 11.34375 43.640625 
Q 17.296875 51.203125 28.203125 51.203125 
Q 38.90625 51.203125 44.953125 44.25 
Q 51 37.296875 51 27.296875 
z
M 28.203125 43.59375 
Q 22.59375 43.59375 19.140625 40.1875 
Q 15.703125 36.796875 14.5 31 
L 42.203125 31 
Q 41 36.703125 37.5 40.140625 
Q 34 43.59375 28.203125 43.59375 
z
" id="Apercu-65"/>
      <path d="M 42.09375 16.09375 
L 49.40625 13.09375 
Q 43.296875 -0.796875 28.296875 -0.796875 
Q 17.296875 -0.796875 11.34375 6.75 
Q 5.40625 14.296875 5.40625 25.1875 
Q 5.40625 36.09375 11.34375 43.640625 
Q 17.296875 51.203125 28.296875 51.203125 
Q 43.296875 51.203125 49.40625 37.296875 
L 42.09375 34.296875 
Q 38.09375 43.59375 28.296875 43.59375 
Q 21.296875 43.59375 17.640625 38.4375 
Q 14 33.296875 14 25.1875 
Q 14 17.09375 17.640625 11.9375 
Q 21.296875 6.796875 28.296875 6.796875 
Q 38.09375 6.796875 42.09375 16.09375 
z
" id="Apercu-63"/>
      <path d="M 2.5 42.796875 
L 2.5 50.40625 
L 11.203125 50.40625 
L 11.203125 65.5 
L 19.59375 70.796875 
L 19.59375 50.40625 
L 32.796875 50.40625 
L 32.796875 42.796875 
L 19.59375 42.796875 
L 19.59375 15.09375 
Q 19.59375 11.09375 21.34375 8.9375 
Q 23.09375 6.796875 26.296875 6.796875 
Q 29.59375 6.796875 32 8.40625 
L 34 1.09375 
Q 30.703125 -0.796875 25.796875 -0.796875 
Q 19.09375 -0.796875 15.140625 3.390625 
Q 11.203125 7.59375 11.203125 15.796875 
L 11.203125 42.796875 
z
" id="Apercu-74"/>
      <path d="M 12 6.796875 
Q 5.40625 14.5 5.40625 25.203125 
Q 5.40625 35.90625 12.046875 43.546875 
Q 18.703125 51.203125 29.59375 51.203125 
Q 40.5 51.203125 47.140625 43.546875 
Q 53.796875 35.90625 53.796875 25.203125 
Q 53.796875 14.5 47.140625 6.84375 
Q 40.5 -0.796875 29.59375 -0.796875 
Q 18.703125 -0.796875 12 6.796875 
z
M 18.09375 38.09375 
Q 14 32.703125 14 25.203125 
Q 14 17.703125 18.140625 12.25 
Q 22.296875 6.796875 29.59375 6.796875 
Q 36.90625 6.796875 41.046875 12.25 
Q 45.203125 17.703125 45.203125 25.203125 
Q 45.203125 32.703125 41.046875 38.140625 
Q 36.90625 43.59375 29.59375 43.59375 
Q 22.296875 43.59375 18.09375 38.09375 
z
" id="Apercu-6f"/>
      <path d="M 36 50.40625 
L 44.796875 50.40625 
L 19.796875 -20.40625 
L 11.203125 -20.40625 
L 19.203125 2.09375 
L 1.5 50.40625 
L 10.703125 50.40625 
L 23.5 14 
z
" id="Apercu-79"/>
      <path id="Apercu-20"/>
      <path d="M 49.09375 35.5 
L 49.09375 0 
L 40.703125 0 
L 40.703125 33.296875 
Q 40.703125 43.59375 32 43.59375 
Q 26.09375 43.59375 21.84375 37.390625 
Q 17.59375 31.203125 17.59375 21.09375 
L 17.59375 0 
L 9.203125 0 
L 9.203125 50.40625 
L 17.59375 50.40625 
L 17.59375 41.09375 
Q 23.296875 51.203125 34.296875 51.203125 
Q 41.203125 51.203125 45.140625 47.09375 
Q 49.09375 43 49.09375 35.5 
z
" id="Apercu-6e"/>
      <path d="M 27.796875 51.203125 
Q 32.296875 51.203125 36.6875 49 
Q 41.09375 46.796875 42.5 44.40625 
L 42.5 70.796875 
L 50.90625 70.796875 
L 50.90625 0 
L 42.5 0 
L 42.5 6.203125 
Q 40.59375 3.296875 36.4375 1.25 
Q 32.296875 -0.796875 27.796875 -0.796875 
Q 17 -0.796875 11.203125 6.34375 
Q 5.40625 13.5 5.40625 25.203125 
Q 5.40625 36.90625 11.203125 44.046875 
Q 17 51.203125 27.796875 51.203125 
z
M 28.59375 6.796875 
Q 35.40625 6.796875 39.296875 11.890625 
Q 43.203125 17 43.203125 25.203125 
Q 43.203125 33.40625 39.296875 38.5 
Q 35.40625 43.59375 28.59375 43.59375 
Q 22 43.59375 18 38.5 
Q 14 33.40625 14 25.203125 
Q 14 17 18 11.890625 
Q 22 6.796875 28.59375 6.796875 
z
" id="Apercu-64"/>
      <path d="M 3.59375 50.40625 
L 13.09375 50.40625 
L 22.90625 34.40625 
L 32.703125 50.40625 
L 42.203125 50.40625 
L 27.59375 26.59375 
L 44 0 
L 34.5 0 
L 22.90625 18.90625 
L 11.296875 0 
L 1.796875 0 
L 18.203125 26.59375 
z
" id="Apercu-78"/>
     </defs>
     <g style="opacity:0.75;" transform="translate(863.442812 262.019687)scale(0.1 -0.1)">
      <use xlink:href="#Apercu-44"/>
      <use x="66.568741" xlink:href="#Apercu-69"/>
      <use x="93.537476" xlink:href="#Apercu-72"/>
      <use x="134.837463" xlink:href="#Apercu-65"/>
      <use x="190.853073" xlink:href="#Apercu-63"/>
      <use x="244.668686" xlink:href="#Apercu-74"/>
      <use x="282.468674" xlink:href="#Apercu-6f"/>
      <use x="341.668671" xlink:href="#Apercu-72"/>
      <use x="383.015533" xlink:href="#Apercu-79"/>
      <use x="429.015518" xlink:href="#Apercu-20"/>
      <use x="455.815506" xlink:href="#Apercu-69"/>
      <use x="482.768616" xlink:href="#Apercu-6e"/>
      <use x="540.468613" xlink:href="#Apercu-64"/>
      <use x="600.568604" xlink:href="#Apercu-65"/>
      <use x="656.568588" xlink:href="#Apercu-78"/>
     </g>
    </g>
   </g>
   <g id="matplotlib.axis_2">
    <g id="ytick_1">
     <g id="line2d_137">
      <path clip-path="url(#p741f44f116)" d="M 172.8 239.04 
L 1624.32 239.04 
" style="fill:none;stroke:#cbcbcb;"/>
     </g>
     <g id="line2d_138"/>
     <g id="text_16">
      <!-- 0.0 -->
      <defs>
       <path d="M 35.09375 7.5 
L 35.09375 2.59375 
Q 35.09375 0 32.5 0 
L 27.5 0 
Q 24.90625 0 24.90625 2.59375 
L 24.90625 7.5 
Q 24.90625 10.09375 27.5 10.09375 
L 32.5 10.09375 
Q 35.09375 10.09375 35.09375 7.5 
z
" id="DecimaMonoPro-2e"/>
      </defs>
      <g style="fill:#303030;" transform="translate(156.7 241.493281)scale(0.07 -0.07)">
       <use xlink:href="#DecimaMonoPro-30"/>
       <use x="59.999985" xlink:href="#DecimaMonoPro-2e"/>
       <use x="119.999969" xlink:href="#DecimaMonoPro-30"/>
      </g>
     </g>
    </g>
    <g id="ytick_2">
     <g id="line2d_139">
      <path clip-path="url(#p741f44f116)" d="M 172.8 217.44 
L 1624.32 217.44 
" style="fill:none;stroke:#cbcbcb;"/>
     </g>
     <g id="line2d_140"/>
     <g id="text_17">
      <!-- 2.5 -->
      <g style="fill:#303030;" transform="translate(156.7 219.893281)scale(0.07 -0.07)">
       <use xlink:href="#DecimaMonoPro-32"/>
       <use x="59.999985" xlink:href="#DecimaMonoPro-2e"/>
       <use x="119.999969" xlink:href="#DecimaMonoPro-35"/>
      </g>
     </g>
    </g>
    <g id="ytick_3">
     <g id="line2d_141">
      <path clip-path="url(#p741f44f116)" d="M 172.8 195.84 
L 1624.32 195.84 
" style="fill:none;stroke:#cbcbcb;"/>
     </g>
     <g id="line2d_142"/>
     <g id="text_18">
      <!-- 5.0 -->
      <g style="fill:#303030;" transform="translate(156.7 198.293281)scale(0.07 -0.07)">
       <use xlink:href="#DecimaMonoPro-35"/>
       <use x="59.999985" xlink:href="#DecimaMonoPro-2e"/>
       <use x="119.999969" xlink:href="#DecimaMonoPro-30"/>
      </g>
     </g>
    </g>
    <g id="ytick_4">
     <g id="line2d_143">
      <path clip-path="url(#p741f44f116)" d="M 172.8 174.24 
L 1624.32 174.24 
" style="fill:none;stroke:#cbcbcb;"/>
     </g>
     <g id="line2d_144"/>
     <g id="text_19">
      <!-- 7.5 -->
      <defs>
       <path d="M 39.09375 62.09375 
L 14.703125 62.09375 
Q 12.5 62.09375 12.5 64.40625 
L 12.5 67.703125 
Q 12.5 70 14.703125 70 
L 44.796875 70 
Q 47.5 70 47.5 67.59375 
L 47.5 62.703125 
Q 47.5 58.203125 43.59375 46.953125 
Q 39.703125 35.703125 35.796875 22.953125 
Q 31.90625 10.203125 31.90625 2 
Q 31.90625 1.203125 31.25 0.59375 
Q 30.59375 0 29.90625 0 
L 25.703125 0 
Q 24.59375 0 24 0.59375 
Q 23.40625 1.203125 23.40625 2 
Q 23.40625 9.40625 25.796875 19.15625 
Q 28.203125 28.90625 31.046875 36.5 
Q 33.90625 44.09375 36.40625 51.546875 
Q 38.90625 59 39.09375 62.09375 
z
" id="DecimaMonoPro-37"/>
      </defs>
      <g style="fill:#303030;" transform="translate(156.7 176.693281)scale(0.07 -0.07)">
       <use xlink:href="#DecimaMonoPro-37"/>
       <use x="59.999985" xlink:href="#DecimaMonoPro-2e"/>
       <use x="119.999969" xlink:href="#DecimaMonoPro-35"/>
      </g>
     </g>
    </g>
    <g id="ytick_5">
     <g id="line2d_145">
      <path clip-path="url(#p741f44f116)" d="M 172.8 152.64 
L 1624.32 152.64 
" style="fill:none;stroke:#cbcbcb;"/>
     </g>
     <g id="line2d_146"/>
     <g id="text_20">
      <!-- 10.0 -->
      <g style="fill:#303030;" transform="translate(152.5 155.093281)scale(0.07 -0.07)">
       <use xlink:href="#DecimaMonoPro-31"/>
       <use x="59.999985" xlink:href="#DecimaMonoPro-30"/>
       <use x="119.999969" xlink:href="#DecimaMonoPro-2e"/>
       <use x="179.999954" xlink:href="#DecimaMonoPro-30"/>
      </g>
     </g>
    </g>
    <g id="ytick_6">
     <g id="line2d_147">
      <path clip-path="url(#p741f44f116)" d="M 172.8 131.04 
L 1624.32 131.04 
" style="fill:none;stroke:#cbcbcb;"/>
     </g>
     <g id="line2d_148"/>
     <g id="text_21">
      <!-- 12.5 -->
      <g style="fill:#303030;" transform="translate(152.5 133.493281)scale(0.07 -0.07)">
       <use xlink:href="#DecimaMonoPro-31"/>
       <use x="59.999985" xlink:href="#DecimaMonoPro-32"/>
       <use x="119.999969" xlink:href="#DecimaMonoPro-2e"/>
       <use x="179.999954" xlink:href="#DecimaMonoPro-35"/>
      </g>
     </g>
    </g>
    <g id="ytick_7">
     <g id="line2d_149">
      <path clip-path="url(#p741f44f116)" d="M 172.8 109.44 
L 1624.32 109.44 
" style="fill:none;stroke:#cbcbcb;"/>
     </g>
     <g id="line2d_150"/>
     <g id="text_22">
      <!-- 15.0 -->
      <g style="fill:#303030;" transform="translate(152.5 111.893281)scale(0.07 -0.07)">
       <use xlink:href="#DecimaMonoPro-31"/>
       <use x="59.999985" xlink:href="#DecimaMonoPro-35"/>
       <use x="119.999969" xlink:href="#DecimaMonoPro-2e"/>
       <use x="179.999954" xlink:href="#DecimaMonoPro-30"/>
      </g>
     </g>
    </g>
    <g id="ytick_8">
     <g id="line2d_151">
      <path clip-path="url(#p741f44f116)" d="M 172.8 87.84 
L 1624.32 87.84 
" style="fill:none;stroke:#cbcbcb;"/>
     </g>
     <g id="line2d_152"/>
     <g id="text_23">
      <!-- 17.5 -->
      <g style="fill:#303030;" transform="translate(152.5 90.293281)scale(0.07 -0.07)">
       <use xlink:href="#DecimaMonoPro-31"/>
       <use x="59.999985" xlink:href="#DecimaMonoPro-37"/>
       <use x="119.999969" xlink:href="#DecimaMonoPro-2e"/>
       <use x="179.999954" xlink:href="#DecimaMonoPro-35"/>
      </g>
     </g>
    </g>
    <g id="ytick_9">
     <g id="line2d_153">
      <path clip-path="url(#p741f44f116)" d="M 172.8 66.24 
L 1624.32 66.24 
" style="fill:none;stroke:#cbcbcb;"/>
     </g>
     <g id="line2d_154"/>
     <g id="text_24">
      <!-- 20.0 -->
      <g style="fill:#303030;" transform="translate(152.5 68.693281)scale(0.07 -0.07)">
       <use xlink:href="#DecimaMonoPro-32"/>
       <use x="59.999985" xlink:href="#DecimaMonoPro-30"/>
       <use x="119.999969" xlink:href="#DecimaMonoPro-2e"/>
       <use x="179.999954" xlink:href="#DecimaMonoPro-30"/>
      </g>
     </g>
    </g>
    <g id="text_25">
     <!-- Frequency -->
     <defs>
      <path d="M 9.703125 70 
L 50.40625 70 
L 50.40625 61.59375 
L 18.5 61.59375 
L 18.5 40.703125 
L 44.40625 40.703125 
L 44.40625 32.296875 
L 18.5 32.296875 
L 18.5 0 
L 9.703125 0 
z
" id="Apercu-46"/>
      <path d="M 27.796875 51.203125 
Q 32.296875 51.203125 36.4375 49.140625 
Q 40.59375 47.09375 42.5 44.203125 
L 42.5 50.40625 
L 50.90625 50.40625 
L 50.90625 -20.40625 
L 42.5 -20.40625 
L 42.5 6 
Q 41.09375 3.59375 36.6875 1.390625 
Q 32.296875 -0.796875 27.796875 -0.796875 
Q 17 -0.796875 11.203125 6.34375 
Q 5.40625 13.5 5.40625 25.203125 
Q 5.40625 36.90625 11.203125 44.046875 
Q 17 51.203125 27.796875 51.203125 
z
M 28.59375 6.796875 
Q 35.40625 6.796875 39.296875 11.890625 
Q 43.203125 17 43.203125 25.203125 
Q 43.203125 33.40625 39.296875 38.5 
Q 35.40625 43.59375 28.59375 43.59375 
Q 22 43.59375 18 38.5 
Q 14 33.40625 14 25.203125 
Q 14 17 18 11.890625 
Q 22 6.796875 28.59375 6.796875 
z
" id="Apercu-71"/>
      <path d="M 8.59375 14.90625 
L 8.59375 50.40625 
L 17 50.40625 
L 17 17.09375 
Q 17 6.796875 25.703125 6.796875 
Q 31.59375 6.796875 35.84375 13 
Q 40.09375 19.203125 40.09375 29.296875 
L 40.09375 50.40625 
L 48.5 50.40625 
L 48.5 0 
L 40.09375 0 
L 40.09375 9.296875 
Q 34.40625 -0.796875 23.40625 -0.796875 
Q 16.5 -0.796875 12.546875 3.296875 
Q 8.59375 7.40625 8.59375 14.90625 
z
" id="Apercu-75"/>
     </defs>
     <g style="opacity:0.75;" transform="translate(146.459375 172.434844)rotate(-90)scale(0.1 -0.1)">
      <use xlink:href="#Apercu-46"/>
      <use x="53.753113" xlink:href="#Apercu-72"/>
      <use x="95.053101" xlink:href="#Apercu-65"/>
      <use x="151.053085" xlink:href="#Apercu-71"/>
      <use x="211.121826" xlink:href="#Apercu-75"/>
      <use x="268.821823" xlink:href="#Apercu-65"/>
      <use x="324.821808" xlink:href="#Apercu-6e"/>
      <use x="382.50618" xlink:href="#Apercu-63"/>
      <use x="436.306168" xlink:href="#Apercu-79"/>
     </g>
    </g>
   </g>
   <g id="patch_3">
    <path clip-path="url(#p741f44f116)" d="M 178.105263 239.04 
L 197.204211 239.04 
L 197.204211 66.24 
L 178.105263 66.24 
z
" style="fill:#008fd5;"/>
   </g>
   <g id="patch_4">
    <path clip-path="url(#p741f44f116)" d="M 199.326316 239.04 
L 218.425263 239.04 
L 218.425263 100.8 
L 199.326316 100.8 
z
" style="fill:#008fd5;"/>
   </g>
   <g id="patch_5">
    <path clip-path="url(#p741f44f116)" d="M 220.547368 239.04 
L 239.646316 239.04 
L 239.646316 144 
L 220.547368 144 
z
" style="fill:#008fd5;"/>
   </g>
   <g id="patch_6">
    <path clip-path="url(#p741f44f116)" d="M 241.768421 239.04 
L 260.867368 239.04 
L 260.867368 144 
L 241.768421 144 
z
" style="fill:#008fd5;"/>
   </g>
   <g id="patch_7">
    <path clip-path="url(#p741f44f116)" d="M 262.989474 239.04 
L 282.088421 239.04 
L 282.088421 144 
L 262.989474 144 
z
" style="fill:#008fd5;"/>
   </g>
   <g id="patch_8">
    <path clip-path="url(#p741f44f116)" d="M 284.210526 239.04 
L 303.309474 239.04 
L 303.309474 152.64 
L 284.210526 152.64 
z
" style="fill:#008fd5;"/>
   </g>
   <g id="patch_9">
    <path clip-path="url(#p741f44f116)" d="M 305.431579 239.04 
L 324.530526 239.04 
L 324.530526 161.28 
L 305.431579 161.28 
z
" style="fill:#008fd5;"/>
   </g>
   <g id="patch_10">
    <path clip-path="url(#p741f44f116)" d="M 326.652632 239.04 
L 345.751579 239.04 
L 345.751579 169.92 
L 326.652632 169.92 
z
" style="fill:#008fd5;"/>
   </g>
   <g id="patch_11">
    <path clip-path="url(#p741f44f116)" d="M 347.873684 239.04 
L 366.972632 239.04 
L 366.972632 169.92 
L 347.873684 169.92 
z
" style="fill:#008fd5;"/>
   </g>
   <g id="patch_12">
    <path clip-path="url(#p741f44f116)" d="M 369.094737 239.04 
L 388.193684 239.04 
L 388.193684 178.56 
L 369.094737 178.56 
z
" style="fill:#008fd5;"/>
   </g>
   <g id="patch_13">
    <path clip-path="url(#p741f44f116)" d="M 390.315789 239.04 
L 409.414737 239.04 
L 409.414737 178.56 
L 390.315789 178.56 
z
" style="fill:#008fd5;"/>
   </g>
   <g id="patch_14">
    <path clip-path="url(#p741f44f116)" d="M 411.536842 239.04 
L 430.635789 239.04 
L 430.635789 178.56 
L 411.536842 178.56 
z
" style="fill:#008fd5;"/>
   </g>
   <g id="patch_15">
    <path clip-path="url(#p741f44f116)" d="M 432.757895 239.04 
L 451.856842 239.04 
L 451.856842 178.56 
L 432.757895 178.56 
z
" style="fill:#008fd5;"/>
   </g>
   <g id="patch_16">
    <path clip-path="url(#p741f44f116)" d="M 453.978947 239.04 
L 473.077895 239.04 
L 473.077895 178.56 
L 453.978947 178.56 
z
" style="fill:#008fd5;"/>
   </g>
   <g id="patch_17">
    <path clip-path="url(#p741f44f116)" d="M 475.2 239.04 
L 494.298947 239.04 
L 494.298947 187.2 
L 475.2 187.2 
z
" style="fill:#008fd5;"/>
   </g>
   <g id="patch_18">
    <path clip-path="url(#p741f44f116)" d="M 496.421053 239.04 
L 515.52 239.04 
L 515.52 187.2 
L 496.421053 187.2 
z
" style="fill:#008fd5;"/>
   </g>
   <g id="patch_19">
    <path clip-path="url(#p741f44f116)" d="M 517.642105 239.04 
L 536.741053 239.04 
L 536.741053 187.2 
L 517.642105 187.2 
z
" style="fill:#008fd5;"/>
   </g>
   <g id="patch_20">
    <path clip-path="url(#p741f44f116)" d="M 538.863158 239.04 
L 557.962105 239.04 
L 557.962105 187.2 
L 538.863158 187.2 
z
" style="fill:#008fd5;"/>
   </g>
   <g id="patch_21">
    <path clip-path="url(#p741f44f116)" d="M 560.084211 239.04 
L 579.183158 239.04 
L 579.183158 187.2 
L 560.084211 187.2 
z
" style="fill:#008fd5;"/>
   </g>
   <g id="patch_22">
    <path clip-path="url(#p741f44f116)" d="M 581.305263 239.04 
L 600.404211 239.04 
L 600.404211 187.2 
L 581.305263 187.2 
z
" style="fill:#008fd5;"/>
   </g>
   <g id="patch_23">
    <path clip-path="url(#p741f44f116)" d="M 602.526316 239.04 
L 621.625263 239.04 
L 621.625263 187.2 
L 602.526316 187.2 
z
" style="fill:#008fd5;"/>
   </g>
   <g id="patch_24">
    <path clip-path="url(#p741f44f116)" d="M 623.747368 239.04 
L 642.846316 239.04 
L 642.846316 195.84 
L 623.747368 195.84 
z
" style="fill:#008fd5;"/>
   </g>
   <g id="patch_25">
    <path clip-path="url(#p741f44f116)" d="M 644.968421 239.04 
L 664.067368 239.04 
L 664.067368 195.84 
L 644.968421 195.84 
z
" style="fill:#008fd5;"/>
   </g>
   <g id="patch_26">
    <path clip-path="url(#p741f44f116)" d="M 666.189474 239.04 
L 685.288421 239.04 
L 685.288421 195.84 
L 666.189474 195.84 
z
" style="fill:#008fd5;"/>
   </g>
   <g id="patch_27">
    <path clip-path="url(#p741f44f116)" d="M 687.410526 239.04 
L 706.509474 239.04 
L 706.509474 195.84 
L 687.410526 195.84 
z
" style="fill:#008fd5;"/>
   </g>
   <g id="patch_28">
    <path clip-path="url(#p741f44f116)" d="M 708.631579 239.04 
L 727.730526 239.04 
L 727.730526 195.84 
L 708.631579 195.84 
z
" style="fill:#008fd5;"/>
   </g>
   <g id="patch_29">
    <path clip-path="url(#p741f44f116)" d="M 729.852632 239.04 
L 748.951579 239.04 
L 748.951579 204.48 
L 729.852632 204.48 
z
" style="fill:#008fd5;"/>
   </g>
   <g id="patch_30">
    <path clip-path="url(#p741f44f116)" d="M 751.073684 239.04 
L 770.172632 239.04 
L 770.172632 204.48 
L 751.073684 204.48 
z
" style="fill:#008fd5;"/>
   </g>
   <g id="patch_31">
    <path clip-path="url(#p741f44f116)" d="M 772.294737 239.04 
L 791.393684 239.04 
L 791.393684 204.48 
L 772.294737 204.48 
z
" style="fill:#008fd5;"/>
   </g>
   <g id="patch_32">
    <path clip-path="url(#p741f44f116)" d="M 793.515789 239.04 
L 812.614737 239.04 
L 812.614737 204.48 
L 793.515789 204.48 
z
" style="fill:#008fd5;"/>
   </g>
   <g id="patch_33">
    <path clip-path="url(#p741f44f116)" d="M 814.736842 239.04 
L 833.835789 239.04 
L 833.835789 204.48 
L 814.736842 204.48 
z
" style="fill:#008fd5;"/>
   </g>
   <g id="patch_34">
    <path clip-path="url(#p741f44f116)" d="M 835.957895 239.04 
L 855.056842 239.04 
L 855.056842 204.48 
L 835.957895 204.48 
z
" style="fill:#008fd5;"/>
   </g>
   <g id="patch_35">
    <path clip-path="url(#p741f44f116)" d="M 857.178947 239.04 
L 876.277895 239.04 
L 876.277895 204.48 
L 857.178947 204.48 
z
" style="fill:#008fd5;"/>
   </g>
   <g id="patch_36">
    <path clip-path="url(#p741f44f116)" d="M 878.4 239.04 
L 897.498947 239.04 
L 897.498947 204.48 
L 878.4 204.48 
z
" style="fill:#008fd5;"/>
   </g>
   <g id="patch_37">
    <path clip-path="url(#p741f44f116)" d="M 899.621053 239.04 
L 918.72 239.04 
L 918.72 204.48 
L 899.621053 204.48 
z
" style="fill:#008fd5;"/>
   </g>
   <g id="patch_38">
    <path clip-path="url(#p741f44f116)" d="M 920.842105 239.04 
L 939.941053 239.04 
L 939.941053 204.48 
L 920.842105 204.48 
z
" style="fill:#008fd5;"/>
   </g>
   <g id="patch_39">
    <path clip-path="url(#p741f44f116)" d="M 942.063158 239.04 
L 961.162105 239.04 
L 961.162105 213.12 
L 942.063158 213.12 
z
" style="fill:#008fd5;"/>
   </g>
   <g id="patch_40">
    <path clip-path="url(#p741f44f116)" d="M 963.284211 239.04 
L 982.383158 239.04 
L 982.383158 213.12 
L 963.284211 213.12 
z
" style="fill:#008fd5;"/>
   </g>
   <g id="patch_41">
    <path clip-path="url(#p741f44f116)" d="M 984.505263 239.04 
L 1003.604211 239.04 
L 1003.604211 213.12 
L 984.505263 213.12 
z
" style="fill:#008fd5;"/>
   </g>
   <g id="patch_42">
    <path clip-path="url(#p741f44f116)" d="M 1005.726316 239.04 
L 1024.825263 239.04 
L 1024.825263 213.12 
L 1005.726316 213.12 
z
" style="fill:#008fd5;"/>
   </g>
   <g id="patch_43">
    <path clip-path="url(#p741f44f116)" d="M 1026.947368 239.04 
L 1046.046316 239.04 
L 1046.046316 213.12 
L 1026.947368 213.12 
z
" style="fill:#008fd5;"/>
   </g>
   <g id="patch_44">
    <path clip-path="url(#p741f44f116)" d="M 1048.168421 239.04 
L 1067.267368 239.04 
L 1067.267368 213.12 
L 1048.168421 213.12 
z
" style="fill:#008fd5;"/>
   </g>
   <g id="patch_45">
    <path clip-path="url(#p741f44f116)" d="M 1069.389474 239.04 
L 1088.488421 239.04 
L 1088.488421 213.12 
L 1069.389474 213.12 
z
" style="fill:#008fd5;"/>
   </g>
   <g id="patch_46">
    <path clip-path="url(#p741f44f116)" d="M 1090.610526 239.04 
L 1109.709474 239.04 
L 1109.709474 221.76 
L 1090.610526 221.76 
z
" style="fill:#008fd5;"/>
   </g>
   <g id="patch_47">
    <path clip-path="url(#p741f44f116)" d="M 1111.831579 239.04 
L 1130.930526 239.04 
L 1130.930526 221.76 
L 1111.831579 221.76 
z
" style="fill:#008fd5;"/>
   </g>
   <g id="patch_48">
    <path clip-path="url(#p741f44f116)" d="M 1133.052632 239.04 
L 1152.151579 239.04 
L 1152.151579 221.76 
L 1133.052632 221.76 
z
" style="fill:#008fd5;"/>
   </g>
   <g id="patch_49">
    <path clip-path="url(#p741f44f116)" d="M 1154.273684 239.04 
L 1173.372632 239.04 
L 1173.372632 221.76 
L 1154.273684 221.76 
z
" style="fill:#008fd5;"/>
   </g>
   <g id="patch_50">
    <path clip-path="url(#p741f44f116)" d="M 1175.494737 239.04 
L 1194.593684 239.04 
L 1194.593684 221.76 
L 1175.494737 221.76 
z
" style="fill:#008fd5;"/>
   </g>
   <g id="patch_51">
    <path clip-path="url(#p741f44f116)" d="M 1196.715789 239.04 
L 1215.814737 239.04 
L 1215.814737 221.76 
L 1196.715789 221.76 
z
" style="fill:#008fd5;"/>
   </g>
   <g id="patch_52">
    <path clip-path="url(#p741f44f116)" d="M 1217.936842 239.04 
L 1237.035789 239.04 
L 1237.035789 221.76 
L 1217.936842 221.76 
z
" style="fill:#008fd5;"/>
   </g>
   <g id="patch_53">
    <path clip-path="url(#p741f44f116)" d="M 1239.157895 239.04 
L 1258.256842 239.04 
L 1258.256842 230.4 
L 1239.157895 230.4 
z
" style="fill:#008fd5;"/>
   </g>
   <g id="patch_54">
    <path clip-path="url(#p741f44f116)" d="M 1260.378947 239.04 
L 1279.477895 239.04 
L 1279.477895 230.4 
L 1260.378947 230.4 
z
" style="fill:#008fd5;"/>
   </g>
   <g id="patch_55">
    <path clip-path="url(#p741f44f116)" d="M 1281.6 239.04 
L 1300.698947 239.04 
L 1300.698947 230.4 
L 1281.6 230.4 
z
" style="fill:#008fd5;"/>
   </g>
   <g id="patch_56">
    <path clip-path="url(#p741f44f116)" d="M 1302.821053 239.04 
L 1321.92 239.04 
L 1321.92 230.4 
L 1302.821053 230.4 
z
" style="fill:#008fd5;"/>
   </g>
   <g id="patch_57">
    <path clip-path="url(#p741f44f116)" d="M 1324.042105 239.04 
L 1343.141053 239.04 
L 1343.141053 230.4 
L 1324.042105 230.4 
z
" style="fill:#008fd5;"/>
   </g>
   <g id="patch_58">
    <path clip-path="url(#p741f44f116)" d="M 1345.263158 239.04 
L 1364.362105 239.04 
L 1364.362105 230.4 
L 1345.263158 230.4 
z
" style="fill:#008fd5;"/>
   </g>
   <g id="patch_59">
    <path clip-path="url(#p741f44f116)" d="M 1366.484211 239.04 
L 1385.583158 239.04 
L 1385.583158 230.4 
L 1366.484211 230.4 
z
" style="fill:#008fd5;"/>
   </g>
   <g id="patch_60">
    <path clip-path="url(#p741f44f116)" d="M 1387.705263 239.04 
L 1406.804211 239.04 
L 1406.804211 230.4 
L 1387.705263 230.4 
z
" style="fill:#008fd5;"/>
   </g>
   <g id="patch_61">
    <path clip-path="url(#p741f44f116)" d="M 1408.926316 239.04 
L 1428.025263 239.04 
L 1428.025263 230.4 
L 1408.926316 230.4 
z
" style="fill:#008fd5;"/>
   </g>
   <g id="patch_62">
    <path clip-path="url(#p741f44f116)" d="M 1430.147368 239.04 
L 1449.246316 239.04 
L 1449.246316 230.4 
L 1430.147368 230.4 
z
" style="fill:#008fd5;"/>
   </g>
   <g id="patch_63">
    <path clip-path="url(#p741f44f116)" d="M 1451.368421 239.04 
L 1470.467368 239.04 
L 1470.467368 230.4 
L 1451.368421 230.4 
z
" style="fill:#008fd5;"/>
   </g>
   <g id="patch_64">
    <path clip-path="url(#p741f44f116)" d="M 1472.589474 239.04 
L 1491.688421 239.04 
L 1491.688421 230.4 
L 1472.589474 230.4 
z
" style="fill:#008fd5;"/>
   </g>
   <g id="patch_65">
    <path clip-path="url(#p741f44f116)" d="M 1493.810526 239.04 
L 1512.909474 239.04 
L 1512.909474 230.4 
L 1493.810526 230.4 
z
" style="fill:#008fd5;"/>
   </g>
   <g id="patch_66">
    <path clip-path="url(#p741f44f116)" d="M 1515.031579 239.04 
L 1534.130526 239.04 
L 1534.130526 230.4 
L 1515.031579 230.4 
z
" style="fill:#008fd5;"/>
   </g>
   <g id="patch_67">
    <path clip-path="url(#p741f44f116)" d="M 1536.252632 239.04 
L 1555.351579 239.04 
L 1555.351579 230.4 
L 1536.252632 230.4 
z
" style="fill:#008fd5;"/>
   </g>
   <g id="patch_68">
    <path clip-path="url(#p741f44f116)" d="M 1557.473684 239.04 
L 1576.572632 239.04 
L 1576.572632 230.4 
L 1557.473684 230.4 
z
" style="fill:#008fd5;"/>
   </g>
   <g id="patch_69">
    <path clip-path="url(#p741f44f116)" d="M 1578.694737 239.04 
L 1597.793684 239.04 
L 1597.793684 230.4 
L 1578.694737 230.4 
z
" style="fill:#008fd5;"/>
   </g>
   <g id="patch_70">
    <path clip-path="url(#p741f44f116)" d="M 1599.915789 239.04 
L 1619.014737 239.04 
L 1619.014737 230.4 
L 1599.915789 230.4 
z
" style="fill:#008fd5;"/>
   </g>
   <g id="line2d_155">
    <path clip-path="url(#p741f44f116)" d="M 172.8 239.04 
L 1624.32 239.04 
" style="fill:none;opacity:0.7;stroke:#000000;stroke-width:5;"/>
   </g>
   <g id="patch_71">
    <path d="M 172.8 239.04 
L 172.8 57.6 
" style="fill:none;stroke:#f0f0f0;stroke-linecap:square;stroke-linejoin:miter;stroke-width:3;"/>
   </g>
   <g id="patch_72">
    <path d="M 1624.32 239.04 
L 1624.32 57.6 
" style="fill:none;stroke:#f0f0f0;stroke-linecap:square;stroke-linejoin:miter;stroke-width:3;"/>
   </g>
   <g id="patch_73">
    <path d="M 172.8 239.04 
L 1624.32 239.04 
" style="fill:none;stroke:#f0f0f0;stroke-linecap:square;stroke-linejoin:miter;stroke-width:3;"/>
   </g>
   <g id="patch_74">
    <path d="M 172.8 57.6 
L 1624.32 57.6 
" style="fill:none;stroke:#f0f0f0;stroke-linecap:square;stroke-linejoin:miter;stroke-width:3;"/>
   </g>
   <g id="patch_75">
    <path d="M 0 288 
L 1728 288 
L 1728 270.716049 
L 0 270.716049 
z
" style="fill:#808080;"/>
   </g>
   <g id="text_26">
    <!-- Computation Institute -->
    <defs>
     <path d="M 50.90625 25.90625 
L 50.90625 44 
Q 50.90625 52.40625 44.75 58.40625 
Q 38.59375 64.40625 30 64.40625 
Q 21.296875 64.40625 15.09375 58.40625 
Q 8.90625 52.40625 8.90625 44 
L 8.90625 25.90625 
Q 8.90625 17.5 15.09375 11.453125 
Q 21.296875 5.40625 30 5.40625 
Q 38.59375 5.40625 44.75 11.453125 
Q 50.90625 17.5 50.90625 25.90625 
z
M 57.703125 43.203125 
L 57.703125 26.59375 
Q 57.703125 15.203125 49.59375 7.09375 
Q 41.5 -1 30 -1 
Q 18.40625 -1 10.296875 7.09375 
Q 2.203125 15.203125 2.203125 26.59375 
L 2.203125 43.203125 
Q 2.203125 54.59375 10.296875 62.6875 
Q 18.40625 70.796875 30 70.796875 
Q 41.5 70.796875 49.59375 62.6875 
Q 57.703125 54.59375 57.703125 43.203125 
z
M 38.59375 29.40625 
L 41.40625 29.40625 
Q 42.40625 29.40625 42.90625 28.84375 
Q 43.40625 28.296875 43.40625 27.59375 
Q 43.40625 21.59375 39.796875 17.9375 
Q 36.203125 14.296875 30.40625 14.296875 
Q 24.40625 14.296875 20.75 17.9375 
Q 17.09375 21.59375 17.09375 27.09375 
L 17.09375 43.40625 
Q 17.09375 48.703125 20.75 52.390625 
Q 24.40625 56.09375 30.40625 56.09375 
Q 35.90625 56.09375 39.40625 52.25 
Q 42.90625 48.40625 42.90625 42.296875 
Q 42.90625 41.59375 42.40625 41.046875 
Q 41.90625 40.5 40.90625 40.5 
L 38.09375 40.5 
Q 37.09375 40.5 36.546875 41.046875 
Q 36 41.59375 36 42.296875 
Q 36 45.203125 34.390625 47.046875 
Q 32.796875 48.90625 30.40625 48.90625 
Q 27.703125 48.90625 25.796875 46.90625 
Q 23.90625 44.90625 23.90625 42.203125 
L 23.90625 28.203125 
Q 23.90625 25.59375 25.796875 23.59375 
Q 27.703125 21.59375 30.40625 21.59375 
Q 32.90625 21.59375 34.703125 23.1875 
Q 36.5 24.796875 36.5 27.59375 
Q 36.5 28.296875 37.046875 28.84375 
Q 37.59375 29.40625 38.59375 29.40625 
z
" id="DecimaMonoPro-a9"/>
     <path d="M 50.09375 17.40625 
Q 50.09375 9.703125 44.59375 4.34375 
Q 39.09375 -1 31 -1 
Q 22.796875 -1 17.25 4.390625 
Q 11.703125 9.796875 11.703125 17.5 
L 11.703125 52.59375 
Q 11.703125 60.296875 17.25 65.640625 
Q 22.796875 71 31 71 
Q 39.5 71 44.703125 65.546875 
Q 49.90625 60.09375 49.90625 54.5 
Q 49.90625 53.703125 49.296875 53.09375 
Q 48.703125 52.5 47.59375 52.5 
L 43.796875 52.5 
Q 41.703125 52.5 41.5 54.5 
Q 41.203125 57.5 38.203125 60.296875 
Q 35.203125 63.09375 31 63.09375 
Q 26.40625 63.09375 23.296875 60.09375 
Q 20.203125 57.09375 20.203125 52.703125 
L 20.203125 17.40625 
Q 20.203125 13 23.296875 9.953125 
Q 26.40625 6.90625 31 6.90625 
Q 35.40625 6.90625 38.546875 9.953125 
Q 41.703125 13 41.703125 17.40625 
Q 41.703125 18.203125 42.296875 18.796875 
Q 42.90625 19.40625 44 19.40625 
L 47.796875 19.40625 
Q 48.90625 19.40625 49.5 18.796875 
Q 50.09375 18.203125 50.09375 17.40625 
z
" id="DecimaMonoPro-43"/>
     <path d="M 49.796875 32.59375 
L 49.796875 17.40625 
Q 49.796875 9.703125 44.25 4.34375 
Q 38.703125 -1 30 -1 
Q 21.09375 -1 15.59375 4.34375 
Q 10.09375 9.703125 10.09375 17.5 
L 10.09375 32.59375 
Q 10.09375 40.296875 15.640625 45.640625 
Q 21.203125 51 30 51 
Q 38.703125 51 44.25 45.59375 
Q 49.796875 40.203125 49.796875 32.59375 
z
M 41.59375 16.90625 
L 41.59375 33.09375 
Q 41.59375 37.59375 38.4375 40.75 
Q 35.296875 43.90625 30 43.90625 
Q 24.703125 43.90625 21.453125 40.75 
Q 18.203125 37.59375 18.203125 33.09375 
L 18.203125 17 
Q 18.203125 12.5 21.453125 9.296875 
Q 24.703125 6.09375 30 6.09375 
Q 35.296875 6.09375 38.4375 9.25 
Q 41.59375 12.40625 41.59375 16.90625 
z
" id="DecimaMonoPro-6f"/>
     <path d="M 45.40625 1.796875 
L 45.40625 38.40625 
Q 45.40625 40.5 43.84375 42.140625 
Q 42.296875 43.796875 40.5 43.796875 
Q 37.40625 43.796875 35.75 41.4375 
Q 34.09375 39.09375 34.09375 35.5 
L 34.09375 1.796875 
Q 34.09375 0 31.796875 0 
L 28.59375 0 
Q 26.296875 0 26.296875 1.796875 
L 26.296875 38.40625 
Q 26.296875 40.59375 24.84375 42.1875 
Q 23.40625 43.796875 21.09375 43.796875 
Q 18.09375 43.796875 16.34375 41.390625 
Q 14.59375 39 14.59375 35.5 
L 14.59375 1.796875 
Q 14.59375 0 12.296875 0 
L 8.90625 0 
Q 6.59375 0 6.59375 1.796875 
L 6.59375 48.203125 
Q 6.59375 50 8.90625 50 
L 12.203125 50 
Q 14.40625 50 14.40625 48.203125 
L 14.40625 46.296875 
Q 17.5 50.796875 22.796875 50.796875 
Q 25.40625 50.796875 27.25 49.84375 
Q 29.09375 48.90625 29.796875 47.953125 
Q 30.5 47 31.40625 45.203125 
Q 35.40625 50.796875 41.59375 50.796875 
Q 47.203125 50.796875 50.296875 47.046875 
Q 53.40625 43.296875 53.40625 37.5 
L 53.40625 1.796875 
Q 53.40625 0 51.09375 0 
L 47.703125 0 
Q 45.40625 0 45.40625 1.796875 
z
" id="DecimaMonoPro-6d"/>
     <path d="M 42.09375 17.09375 
L 42.09375 33.09375 
Q 42.09375 37.703125 38.84375 40.796875 
Q 35.59375 43.90625 30.5 43.90625 
Q 25.40625 43.90625 22.046875 40.75 
Q 18.703125 37.59375 18.703125 33 
L 18.703125 17.09375 
Q 18.703125 12.5 22.046875 9.390625 
Q 25.40625 6.296875 30.5 6.296875 
Q 35.59375 6.296875 38.84375 9.390625 
Q 42.09375 12.5 42.09375 17.09375 
z
M 18.703125 3.703125 
L 18.796875 -16.203125 
Q 18.796875 -18 16.5 -18 
L 13 -18 
Q 10.703125 -18 10.703125 -16.203125 
L 10.703125 48.203125 
Q 10.703125 50 13 50 
L 15.90625 50 
Q 18.203125 50 18.203125 48.203125 
L 18.203125 45.90625 
Q 18.59375 46.5 19.5 47.34375 
Q 20.40625 48.203125 23.75 49.59375 
Q 27.09375 51 31.296875 51 
Q 39.296875 51 44.796875 45.640625 
Q 50.296875 40.296875 50.296875 32.59375 
L 50.296875 17.40625 
Q 50.296875 9.796875 44.75 4.390625 
Q 39.203125 -1 31.296875 -1 
Q 27.40625 -1 24.25 0.203125 
Q 21.09375 1.40625 19.90625 2.59375 
z
" id="DecimaMonoPro-70"/>
     <path d="M 10.203125 16.296875 
L 10.203125 48.203125 
Q 10.203125 50 12.5 50 
L 15.90625 50 
Q 18.203125 50 18.203125 48.203125 
L 18.203125 16.5 
Q 18.203125 6.203125 28.796875 6.203125 
Q 33.59375 6.203125 37.59375 9.5 
Q 41.59375 12.796875 41.59375 16.5 
L 41.59375 48.203125 
Q 41.59375 50 43.90625 50 
L 47.296875 50 
Q 49.59375 50 49.59375 48.203125 
L 49.59375 1.796875 
Q 49.59375 0 47.296875 0 
L 44.09375 0 
Q 41.796875 0 41.796875 1.796875 
L 41.796875 4.90625 
Q 41.09375 4.203125 39.9375 3.25 
Q 38.796875 2.296875 35.09375 0.640625 
Q 31.40625 -1 27.703125 -1 
Q 20 -1 15.09375 3.640625 
Q 10.203125 8.296875 10.203125 16.296875 
z
" id="DecimaMonoPro-75"/>
     <path d="M 24.796875 61.296875 
L 24.796875 50 
L 48.40625 50 
Q 49.203125 50 49.703125 49.5 
Q 50.203125 49 50.203125 48.203125 
L 50.203125 44.59375 
Q 50.203125 43.796875 49.703125 43.296875 
Q 49.203125 42.796875 48.40625 42.796875 
L 24.796875 42.796875 
L 24.796875 15.90625 
Q 24.796875 11.796875 27.390625 9 
Q 30 6.203125 34.796875 6.203125 
Q 39 6.203125 41.390625 8.640625 
Q 43.796875 11.09375 44.203125 14 
Q 44.40625 15.703125 45.90625 15.703125 
L 50.40625 15.703125 
Q 51.203125 15.703125 51.703125 15.140625 
Q 52.203125 14.59375 52.203125 13.90625 
Q 52.203125 11.59375 51.296875 9.25 
Q 50.40625 6.90625 48.546875 4.5 
Q 46.703125 2.09375 43.046875 0.546875 
Q 39.40625 -1 34.59375 -1 
Q 25.703125 -1 21.203125 3.59375 
Q 16.703125 8.203125 16.703125 15.09375 
L 16.703125 42.796875 
L 9.296875 42.796875 
Q 8.59375 42.796875 8.046875 43.296875 
Q 7.5 43.796875 7.5 44.59375 
L 7.5 48.203125 
Q 7.5 49 8.046875 49.5 
Q 8.59375 50 9.296875 50 
L 16.703125 50 
L 16.703125 61.296875 
Q 16.703125 63.09375 19 63.09375 
L 22.59375 63.09375 
Q 24.796875 63.09375 24.796875 61.296875 
z
" id="DecimaMonoPro-74"/>
     <path d="M 40.5 24.40625 
L 27.40625 23.5 
Q 23.5 23.203125 20.890625 20.75 
Q 18.296875 18.296875 18.296875 14.703125 
Q 18.296875 11.203125 21.140625 8.703125 
Q 24 6.203125 28.09375 6.203125 
Q 33.40625 6.203125 36.953125 9.25 
Q 40.5 12.296875 40.5 15.703125 
z
M 48.59375 34.796875 
L 48.59375 1.796875 
Q 48.59375 0 46.296875 0 
L 43.09375 0 
Q 40.796875 0 40.796875 1.796875 
L 40.796875 4.40625 
Q 40.296875 3.796875 39.34375 2.890625 
Q 38.40625 2 35.046875 0.5 
Q 31.703125 -1 27.703125 -1 
Q 20.5 -1 15.390625 3.453125 
Q 10.296875 7.90625 10.296875 14.59375 
Q 10.296875 21.09375 15.09375 25.640625 
Q 19.90625 30.203125 26.796875 30.703125 
L 40.5 31.59375 
L 40.5 34.203125 
Q 40.5 38.09375 37.796875 40.890625 
Q 35.09375 43.703125 30.703125 43.703125 
Q 26.90625 43.703125 24.40625 42.09375 
Q 21.90625 40.5 21 38.09375 
Q 20.203125 36.40625 19.203125 36.40625 
L 15 36.40625 
Q 14.203125 36.40625 13.703125 36.90625 
Q 13.203125 37.40625 13.203125 38.203125 
Q 13.203125 42.09375 18.203125 46.546875 
Q 23.203125 51 30.703125 51 
Q 39.296875 51 43.9375 46.390625 
Q 48.59375 41.796875 48.59375 34.796875 
z
" id="DecimaMonoPro-61"/>
     <path d="M 13 50 
L 34.40625 50 
Q 35.203125 50 35.703125 49.5 
Q 36.203125 49 36.203125 48.203125 
L 36.203125 7.203125 
L 49.703125 7.203125 
Q 50.40625 7.203125 50.953125 6.703125 
Q 51.5 6.203125 51.5 5.40625 
L 51.5 1.796875 
Q 51.5 1 50.953125 0.5 
Q 50.40625 0 49.703125 0 
L 12.5 0 
Q 11.796875 0 11.25 0.5 
Q 10.703125 1 10.703125 1.796875 
L 10.703125 5.40625 
Q 10.703125 6.203125 11.25 6.703125 
Q 11.796875 7.203125 12.5 7.203125 
L 28.203125 7.203125 
L 28.203125 42.796875 
L 13 42.796875 
Q 12.203125 42.796875 11.703125 43.296875 
Q 11.203125 43.796875 11.203125 44.59375 
L 11.203125 48.203125 
Q 11.203125 49 11.703125 49.5 
Q 12.203125 50 13 50 
z
M 36.40625 66.296875 
L 36.40625 62 
Q 36.40625 61 35.75 60.34375 
Q 35.09375 59.703125 34.09375 59.703125 
L 29.5 59.703125 
Q 28.5 59.703125 27.84375 60.34375 
Q 27.203125 61 27.203125 62 
L 27.203125 66.296875 
Q 27.203125 67.296875 27.84375 67.9375 
Q 28.5 68.59375 29.5 68.59375 
L 34.09375 68.59375 
Q 35.09375 68.59375 35.75 67.9375 
Q 36.40625 67.296875 36.40625 66.296875 
z
" id="DecimaMonoPro-69"/>
     <path d="M 50 32.40625 
L 50 1.796875 
Q 50 0 47.703125 0 
L 44.296875 0 
Q 42 0 42 1.796875 
L 42 32.703125 
Q 42 37.5 39.09375 40.640625 
Q 36.203125 43.796875 30.90625 43.796875 
Q 26.09375 43.796875 22.34375 40.546875 
Q 18.59375 37.296875 18.59375 33.5 
L 18.59375 1.796875 
Q 18.59375 0 16.296875 0 
L 12.90625 0 
Q 10.59375 0 10.59375 1.796875 
L 10.59375 48.203125 
Q 10.59375 50 12.90625 50 
L 16.09375 50 
Q 18.40625 50 18.40625 48.203125 
L 18.40625 45.5 
Q 24.09375 51 31.796875 51 
Q 40.296875 51 45.140625 45.75 
Q 50 40.5 50 32.40625 
z
" id="DecimaMonoPro-6e"/>
     <path id="DecimaMonoPro-20"/>
     <path d="M 47.296875 0 
L 12.703125 0 
Q 11.90625 0 11.296875 0.59375 
Q 10.703125 1.203125 10.703125 2.296875 
L 10.703125 5.59375 
Q 10.703125 6.703125 11.296875 7.296875 
Q 11.90625 7.90625 12.703125 7.90625 
L 25.796875 7.90625 
L 25.796875 62.09375 
L 12.703125 62.09375 
Q 11.90625 62.09375 11.296875 62.6875 
Q 10.703125 63.296875 10.703125 64.40625 
L 10.703125 67.703125 
Q 10.703125 68.796875 11.296875 69.390625 
Q 11.90625 70 12.703125 70 
L 47.296875 70 
Q 48.09375 70 48.6875 69.390625 
Q 49.296875 68.796875 49.296875 67.703125 
L 49.296875 64.40625 
Q 49.296875 63.296875 48.6875 62.6875 
Q 48.09375 62.09375 47.296875 62.09375 
L 34.203125 62.09375 
L 34.203125 7.90625 
L 47.296875 7.90625 
Q 48.09375 7.90625 48.6875 7.296875 
Q 49.296875 6.703125 49.296875 5.59375 
L 49.296875 2.296875 
Q 49.296875 1.203125 48.6875 0.59375 
Q 48.09375 0 47.296875 0 
z
" id="DecimaMonoPro-49"/>
     <path d="M 30.09375 -1 
Q 25.296875 -1 21.546875 0.59375 
Q 17.796875 2.203125 15.84375 4.59375 
Q 13.90625 7 12.953125 9.390625 
Q 12 11.796875 12 14 
Q 12 14.796875 12.5 15.296875 
Q 13 15.796875 13.796875 15.796875 
L 18.296875 15.796875 
Q 19.90625 15.796875 20.09375 14.09375 
Q 20.40625 11.203125 22.796875 8.703125 
Q 25.203125 6.203125 30.09375 6.203125 
Q 34.296875 6.203125 36.890625 8.296875 
Q 39.5 10.40625 39.5 13.59375 
Q 39.5 16.5 36.84375 18.5 
Q 34.203125 20.5 30.390625 21.84375 
Q 26.59375 23.203125 22.84375 24.796875 
Q 19.09375 26.40625 16.4375 29.5 
Q 13.796875 32.59375 13.796875 37.09375 
Q 13.796875 43.296875 18.4375 47.140625 
Q 23.09375 51 30.703125 51 
Q 38.90625 51 43.25 46.5 
Q 47.59375 42 47.59375 37.5 
Q 47.59375 36.796875 47.09375 36.25 
Q 46.59375 35.703125 45.796875 35.703125 
L 41.203125 35.703125 
Q 39.703125 35.703125 39.40625 37.40625 
Q 38.90625 40 36.75 41.890625 
Q 34.59375 43.796875 30.703125 43.796875 
Q 26.90625 43.796875 24.546875 42.09375 
Q 22.203125 40.40625 22.203125 37.703125 
Q 22.203125 35 24.84375 33.09375 
Q 27.5 31.203125 31.25 29.890625 
Q 35 28.59375 38.703125 26.9375 
Q 42.40625 25.296875 45.046875 21.84375 
Q 47.703125 18.40625 47.703125 13.40625 
Q 47.703125 7.40625 42.59375 3.203125 
Q 37.5 -1 30.09375 -1 
z
" id="DecimaMonoPro-73"/>
     <path d="M 48.796875 13.5 
Q 48.796875 9.09375 43.75 4.046875 
Q 38.703125 -1 30.203125 -1 
Q 21.203125 -1 15.75 4.453125 
Q 10.296875 9.90625 10.296875 17.5 
L 10.296875 32.703125 
Q 10.296875 40.203125 15.75 45.59375 
Q 21.203125 51 30.203125 51 
Q 39.203125 51 44.453125 45.59375 
Q 49.703125 40.203125 49.703125 32.703125 
L 49.703125 24.796875 
Q 49.703125 23.796875 49.046875 23.140625 
Q 48.40625 22.5 47.40625 22.5 
L 18.40625 22.5 
L 18.40625 17 
Q 18.40625 12.5 21.65625 9.296875 
Q 24.90625 6.09375 30.203125 6.09375 
Q 38.5 6.09375 40.59375 13.59375 
Q 41.09375 15.296875 42.40625 15.296875 
L 47 15.296875 
Q 47.796875 15.296875 48.296875 14.75 
Q 48.796875 14.203125 48.796875 13.5 
z
M 18.40625 33 
L 18.40625 29.703125 
L 41.796875 29.703125 
L 41.796875 33 
Q 41.796875 37.5 38.640625 40.640625 
Q 35.5 43.796875 30.203125 43.796875 
Q 24.90625 43.796875 21.65625 40.640625 
Q 18.40625 37.5 18.40625 33 
z
" id="DecimaMonoPro-65"/>
    </defs>
    <g style="fill:#ffffff;" transform="translate(34.56 282)scale(0.1 -0.1)">
     <use xlink:href="#DecimaMonoPro-a9"/>
     <use x="59.999985" xlink:href="#DecimaMonoPro-43"/>
     <use x="119.999969" xlink:href="#DecimaMonoPro-6f"/>
     <use x="179.999954" xlink:href="#DecimaMonoPro-6d"/>
     <use x="239.999939" xlink:href="#DecimaMonoPro-70"/>
     <use x="299.999924" xlink:href="#DecimaMonoPro-75"/>
     <use x="359.999908" xlink:href="#DecimaMonoPro-74"/>
     <use x="419.999893" xlink:href="#DecimaMonoPro-61"/>
     <use x="479.999878" xlink:href="#DecimaMonoPro-74"/>
     <use x="539.999863" xlink:href="#DecimaMonoPro-69"/>
     <use x="599.999847" xlink:href="#DecimaMonoPro-6f"/>
     <use x="659.999832" xlink:href="#DecimaMonoPro-6e"/>
     <use x="719.999817" xlink:href="#DecimaMonoPro-20"/>
     <use x="779.999802" xlink:href="#DecimaMonoPro-49"/>
     <use x="839.999786" xlink:href="#DecimaMonoPro-6e"/>
     <use x="899.999771" xlink:href="#DecimaMonoPro-73"/>
     <use x="959.999756" xlink:href="#DecimaMonoPro-74"/>
     <use x="1019.999741" xlink:href="#DecimaMonoPro-69"/>
     <use x="1079.999725" xlink:href="#DecimaMonoPro-74"/>
     <use x="1139.99971" xlink:href="#DecimaMonoPro-75"/>
     <use x="1199.999695" xlink:href="#DecimaMonoPro-74"/>
     <use x="1259.99968" xlink:href="#DecimaMonoPro-65"/>
    </g>
   </g>
   <g id="text_27">
    <!-- Cluster frequency -->
    <defs>
     <path d="M 65.796875 49.59375 
C 62.203125 62.796875 52.40625 70.796875 37.5 70.796875 
C 20.59375 70.796875 5.09375 58.703125 5.09375 35 
C 5.09375 11.296875 20.59375 -0.796875 37.5 -0.796875 
C 52.40625 -0.796875 62.203125 7.203125 65.796875 20.40625 
L 55.40625 23 
C 51.90625 14.09375 47 9.59375 37.5 9.59375 
C 25.703125 9.59375 16.296875 17.90625 16.296875 35 
C 16.296875 52.09375 25.703125 60.40625 37.5 60.40625 
C 47 60.40625 51.90625 55.90625 55.40625 47 
z
" id="ApercuPro-Medium-43"/>
     <path d="M 8.40625 70.796875 
L 8.40625 0 
L 18.796875 0 
L 18.796875 70.796875 
z
" id="ApercuPro-Medium-6c"/>
     <path d="M 49.40625 0 
L 49.40625 50.40625 
L 39 50.40625 
L 39 30 
C 39 16.09375 32.59375 8.40625 26.09375 8.40625 
C 21.40625 8.40625 18.296875 10.796875 18.296875 17.59375 
L 18.296875 50.40625 
L 7.90625 50.40625 
L 7.90625 14.296875 
C 7.90625 4.5 13.90625 -0.796875 22.703125 -0.796875 
C 29.40625 -0.796875 35.40625 2.59375 39 8.59375 
L 39 0 
z
" id="ApercuPro-Medium-75"/>
     <path d="M 23.40625 51.203125 
C 14.296875 51.203125 7.90625 44.703125 7.90625 36.90625 
C 7.90625 29.203125 12.90625 25.5 18.703125 23.09375 
C 24.59375 20.59375 30.703125 19.40625 30.703125 15 
C 30.703125 10.40625 27.90625 8.40625 23.90625 8.40625 
C 18.296875 8.40625 14.796875 13 12.796875 17.5 
L 4 12.703125 
C 6.59375 6.40625 13.09375 -0.796875 23.5 -0.796875 
C 34.296875 -0.796875 41 6.5 41 15.203125 
C 41 24.203125 33.703125 27.203125 26.90625 29.796875 
C 21.703125 31.796875 17.90625 33.40625 17.90625 37 
C 17.90625 40.296875 20.296875 42 22.90625 42 
C 26.09375 42 29.203125 40.59375 31.703125 37.40625 
L 38.296875 43.203125 
C 35.09375 48.203125 29.5 51.203125 23.40625 51.203125 
z
" id="ApercuPro-Medium-73"/>
     <path d="M 2.09375 41.203125 
L 10.5 41.203125 
L 10.5 17.203125 
C 10.5 4.796875 17.5 -0.796875 27 -0.796875 
C 29.796875 -0.796875 32.40625 -0.296875 35.09375 1 
L 32.40625 9.796875 
C 30.59375 8.703125 29.40625 8.40625 27.59375 8.40625 
C 23 8.40625 20.90625 10.90625 20.90625 16.59375 
L 20.90625 41.203125 
L 34 41.203125 
L 34 50.40625 
L 20.90625 50.40625 
L 20.90625 70.796875 
L 10.5 64.296875 
L 10.5 50.40625 
L 2.09375 50.40625 
z
" id="ApercuPro-Medium-74"/>
     <path d="M 28.40625 42 
C 35.90625 42 39.703125 36.59375 40.59375 31 
L 16.09375 31 
C 17.203125 37.296875 21.5 42 28.40625 42 
z
M 51.59375 26.796875 
C 51.59375 38.09375 44.5 51.203125 28.40625 51.203125 
C 11.796875 51.203125 4.90625 37.203125 4.90625 25.203125 
C 4.90625 13.203125 11.796875 -0.796875 28.40625 -0.796875 
C 39.90625 -0.796875 45.59375 3.90625 50.5 13.40625 
L 41.59375 16.90625 
C 39 11.40625 33.796875 8.40625 28.40625 8.40625 
C 20.203125 8.40625 15.90625 14.90625 15.90625 22.296875 
L 51.59375 22.296875 
z
" id="ApercuPro-Medium-65"/>
     <path d="M 19 0 
L 19 18.703125 
C 19 34.59375 25.90625 42 32.59375 42 
C 34.703125 42 36.90625 41.5 38.5 40.5 
L 40.296875 50 
C 38.796875 50.59375 36.59375 51.203125 33.90625 51.203125 
C 28.5 51.203125 22.5 48 19 42 
L 19 50.40625 
L 8.59375 50.40625 
L 8.59375 0 
z
" id="ApercuPro-Medium-72"/>
     <path id="ApercuPro-Medium-20"/>
     <path d="M 3.796875 41.203125 
L 10.296875 41.203125 
L 10.296875 0 
L 20.703125 0 
L 20.703125 41.203125 
L 31.796875 41.203125 
L 31.796875 50.40625 
L 20.703125 50.40625 
L 20.703125 53.703125 
C 20.703125 58.90625 22.90625 61.59375 27.5 61.59375 
C 29.40625 61.59375 31.296875 61.296875 33.40625 60.203125 
L 35.5 69 
C 33.59375 70 30.59375 70.796875 27.203125 70.796875 
C 17 70.796875 10.296875 65.296875 10.296875 53 
L 10.296875 50.40625 
L 3.796875 50.40625 
z
" id="ApercuPro-Medium-66"/>
     <path d="M 4.90625 25.203125 
C 4.90625 9.59375 12.5 -0.796875 27.59375 -0.796875 
C 32.59375 -0.796875 38.796875 2.296875 41.09375 5.59375 
L 41.09375 -20.40625 
L 51.5 -20.40625 
L 51.5 50.40625 
L 41.09375 50.40625 
L 41.09375 44.59375 
C 39.40625 47.5 34 51.203125 27.40625 51.203125 
C 12.5 51.203125 4.90625 41.296875 4.90625 25.203125 
z
M 15.90625 25.203125 
C 15.90625 35.59375 21.296875 42 28.796875 42 
C 36.296875 42 41.703125 35.59375 41.703125 25.203125 
C 41.703125 14.796875 36.296875 8.40625 28.796875 8.40625 
C 21.296875 8.40625 15.90625 14.796875 15.90625 25.203125 
z
" id="ApercuPro-Medium-71"/>
     <path d="M 8.59375 50.40625 
L 8.59375 0 
L 19 0 
L 19 20.40625 
C 19 34.296875 25.40625 42 31.90625 42 
C 36.59375 42 39.703125 39.59375 39.703125 32.796875 
L 39.703125 0 
L 50.09375 0 
L 50.09375 36.09375 
C 50.09375 45.90625 44.09375 51.203125 35.296875 51.203125 
C 28.59375 51.203125 22.59375 47.796875 19 41.796875 
L 19 50.40625 
z
" id="ApercuPro-Medium-6e"/>
     <path d="M 41.09375 17.09375 
C 38.703125 11.703125 34.59375 8.40625 28.59375 8.40625 
C 19.703125 8.40625 15.90625 15.703125 15.90625 25.203125 
C 15.90625 34.703125 19.703125 42 28.59375 42 
C 34.59375 42 38.703125 38.703125 41.09375 33.296875 
L 50.40625 37.296875 
C 46.40625 46.40625 39.296875 51.203125 28.59375 51.203125 
C 12.59375 51.203125 4.90625 39 4.90625 25.203125 
C 4.90625 11.40625 12.59375 -0.796875 28.59375 -0.796875 
C 39.296875 -0.796875 46.40625 4 50.40625 13.09375 
z
" id="ApercuPro-Medium-63"/>
     <path d="M 0.796875 50.40625 
L 18.5 2.5 
L 10.296875 -20.40625 
L 20.703125 -20.40625 
L 46.203125 50.40625 
L 35.203125 50.40625 
L 23.703125 16.5 
L 11.796875 50.40625 
z
" id="ApercuPro-Medium-79"/>
    </defs>
    <g style="opacity:0.75;" transform="translate(154.8 28.8)scale(0.28 -0.28)">
     <use xlink:href="#ApercuPro-Medium-43"/>
     <use x="69.48436" xlink:href="#ApercuPro-Medium-6c"/>
     <use x="96.553101" xlink:href="#ApercuPro-Medium-75"/>
     <use x="154.490585" xlink:href="#ApercuPro-Medium-73"/>
     <use x="199.49057" xlink:href="#ApercuPro-Medium-74"/>
     <use x="237.990555" xlink:href="#ApercuPro-Medium-65"/>
     <use x="293.859299" xlink:href="#ApercuPro-Medium-72"/>
     <use x="335.559296" xlink:href="#ApercuPro-Medium-20"/>
     <use x="361.359283" xlink:href="#ApercuPro-Medium-66"/>
     <use x="397.512405" xlink:href="#ApercuPro-Medium-72"/>
     <use x="439.212402" xlink:href="#ApercuPro-Medium-65"/>
     <use x="495.112396" xlink:href="#ApercuPro-Medium-71"/>
     <use x="555.181137" xlink:href="#ApercuPro-Medium-75"/>
     <use x="613.181122" xlink:href="#ApercuPro-Medium-65"/>
     <use x="669.065491" xlink:href="#ApercuPro-Medium-6e"/>
     <use x="727.034225" xlink:href="#ApercuPro-Medium-63"/>
     <use x="781.234222" xlink:href="#ApercuPro-Medium-79"/>
    </g>
   </g>
   <g id="text_28">
    <!-- Distribution of files in a single cluster.  -->
    <defs>
     <path d="M 23.59375 51.203125 
Q 32.796875 51.203125 38.203125 43.5 
L 32.5 38.59375 
Q 27.90625 43.59375 23.296875 43.59375 
Q 20.703125 43.59375 18.953125 41.890625 
Q 17.203125 40.203125 17.203125 37.203125 
Q 17.203125 34.703125 19.59375 32.890625 
Q 22 31.09375 25.453125 29.75 
Q 28.90625 28.40625 32.34375 26.796875 
Q 35.796875 25.203125 38.1875 22.25 
Q 40.59375 19.296875 40.59375 15.203125 
Q 40.59375 7.703125 36.09375 3.453125 
Q 31.59375 -0.796875 23.90625 -0.796875 
Q 16.796875 -0.796875 12.046875 3.09375 
Q 7.296875 7 5.09375 12.796875 
L 12.203125 16.703125 
Q 16.203125 6.796875 23.90625 6.796875 
Q 32 6.796875 32 14.703125 
Q 32 17.203125 29.59375 19 
Q 27.203125 20.796875 23.796875 22.046875 
Q 20.40625 23.296875 17 24.890625 
Q 13.59375 26.5 11.1875 29.640625 
Q 8.796875 32.796875 8.796875 37.296875 
Q 8.796875 43.296875 12.84375 47.25 
Q 16.90625 51.203125 23.59375 51.203125 
z
" id="Apercu-73"/>
     <path d="M 32.296875 -0.796875 
Q 27.796875 -0.796875 23.640625 1.25 
Q 19.5 3.296875 17.59375 6.203125 
L 17.59375 0 
L 9.203125 0 
L 9.203125 70.796875 
L 17.59375 70.796875 
L 17.59375 44.40625 
Q 19 46.796875 23.390625 49 
Q 27.796875 51.203125 32.296875 51.203125 
Q 43.09375 51.203125 48.890625 44.046875 
Q 54.703125 36.90625 54.703125 25.203125 
Q 54.703125 13.5 48.890625 6.34375 
Q 43.09375 -0.796875 32.296875 -0.796875 
z
M 31.5 43.59375 
Q 24.703125 43.59375 20.796875 38.5 
Q 16.90625 33.40625 16.90625 25.203125 
Q 16.90625 17 20.796875 11.890625 
Q 24.703125 6.796875 31.5 6.796875 
Q 38.09375 6.796875 42.09375 11.890625 
Q 46.09375 17 46.09375 25.203125 
Q 46.09375 33.40625 42.09375 38.5 
Q 38.09375 43.59375 31.5 43.59375 
z
" id="Apercu-62"/>
     <path d="M 4.703125 42.796875 
L 4.703125 50.40625 
L 11.90625 50.40625 
L 11.90625 53.703125 
Q 11.90625 62.203125 16.15625 66.5 
Q 20.40625 70.796875 28.203125 70.796875 
Q 32.59375 70.796875 35.40625 69.203125 
L 33.703125 61.796875 
Q 30.90625 63.203125 28.09375 63.203125 
Q 24 63.203125 22.140625 60.890625 
Q 20.296875 58.59375 20.296875 53.703125 
L 20.296875 50.40625 
L 31.90625 50.40625 
L 31.90625 42.796875 
L 20.296875 42.796875 
L 20.296875 0 
L 11.90625 0 
L 11.90625 42.796875 
z
" id="Apercu-66"/>
     <path d="M 9 70.796875 
L 17.40625 70.796875 
L 17.40625 0 
L 9 0 
z
" id="Apercu-6c"/>
     <path d="M 14.203125 14.5 
Q 14.203125 10.90625 16.34375 8.84375 
Q 18.5 6.796875 22.5 6.796875 
Q 28.203125 6.796875 32.390625 10.546875 
Q 36.59375 14.296875 36.59375 22.203125 
L 36.59375 23.40625 
L 27.59375 23.40625 
Q 21.203125 23.40625 17.703125 21.09375 
Q 14.203125 18.796875 14.203125 14.5 
z
M 45 32.203125 
L 45 0 
L 38.40625 0 
L 37 7.09375 
Q 31.5 -0.796875 21.203125 -0.796875 
Q 14.40625 -0.796875 10 3 
Q 5.59375 6.796875 5.59375 14.5 
Q 5.59375 22.5 11.6875 26.75 
Q 17.796875 31 28.40625 31 
L 36.59375 31 
L 36.59375 33.203125 
Q 36.59375 43.59375 25.59375 43.59375 
Q 21.59375 43.59375 18.75 41.5 
Q 15.90625 39.40625 15.09375 35.703125 
L 7.703125 37.40625 
Q 8.703125 43.796875 13.59375 47.5 
Q 18.5 51.203125 25.59375 51.203125 
Q 34.40625 51.203125 39.703125 46.5 
Q 45 41.796875 45 32.203125 
z
" id="Apercu-61"/>
     <path d="M 9 34.203125 
Q 9 41.796875 14 46.4375 
Q 19 51.09375 26.59375 51.09375 
Q 31.5 51.09375 35.703125 48.90625 
L 44.703125 54 
L 48.5 47.09375 
L 41.703125 43.296875 
Q 44.203125 39.40625 44.203125 34.203125 
Q 44.203125 26.5 39.203125 21.953125 
Q 34.203125 17.40625 26.59375 17.40625 
Q 21.59375 17.40625 17.90625 19.203125 
Q 14.59375 17.59375 14.59375 14.296875 
Q 14.59375 10.09375 20.296875 10.09375 
L 32.203125 10.09375 
Q 39.40625 10.09375 43.703125 6.5 
Q 48 2.90625 48 -3.796875 
Q 48 -12.59375 42 -16.890625 
Q 36 -21.203125 26.703125 -21.203125 
Q 17 -21.203125 11.140625 -16.796875 
Q 5.296875 -12.40625 5.296875 -4.59375 
Q 5.296875 1.90625 10 5.90625 
Q 6.59375 8.796875 6.59375 13.90625 
Q 6.59375 20.09375 12.703125 23.203125 
Q 9 27.703125 9 34.203125 
z
M 30.90625 2.90625 
L 20.703125 2.90625 
Q 19.203125 2.90625 17 3.09375 
Q 13.703125 0.5 13.703125 -4.296875 
Q 13.703125 -8.59375 17.046875 -11.1875 
Q 20.40625 -13.796875 26.703125 -13.796875 
Q 33 -13.796875 36.203125 -11.25 
Q 39.40625 -8.703125 39.40625 -4.59375 
Q 39.40625 2.90625 30.90625 2.90625 
z
M 19.90625 41.296875 
Q 17.203125 38.703125 17.203125 34.203125 
Q 17.203125 29.703125 19.890625 27.140625 
Q 22.59375 24.59375 26.59375 24.59375 
Q 30.59375 24.59375 33.296875 27.140625 
Q 36 29.703125 36 34.203125 
Q 36 38.703125 33.296875 41.296875 
Q 30.59375 43.90625 26.59375 43.90625 
Q 22.59375 43.90625 19.90625 41.296875 
z
" id="Apercu-67"/>
     <path d="M 9 5.90625 
Q 9 8.5 10.796875 10.34375 
Q 12.59375 12.203125 15.296875 12.203125 
Q 17.90625 12.203125 19.75 10.34375 
Q 21.59375 8.5 21.59375 5.90625 
Q 21.59375 3.203125 19.75 1.390625 
Q 17.90625 -0.40625 15.296875 -0.40625 
Q 12.59375 -0.40625 10.796875 1.390625 
Q 9 3.203125 9 5.90625 
z
" id="Apercu-2e"/>
    </defs>
    <g style="opacity:0.75;" transform="translate(155.8 46.08)scale(0.15 -0.15)">
     <use xlink:href="#Apercu-44"/>
     <use x="66.568741" xlink:href="#Apercu-69"/>
     <use x="93.537476" xlink:href="#Apercu-73"/>
     <use x="139.637466" xlink:href="#Apercu-74"/>
     <use x="177.437454" xlink:href="#Apercu-72"/>
     <use x="218.721817" xlink:href="#Apercu-69"/>
     <use x="245.690552" xlink:href="#Apercu-62"/>
     <use x="305.790543" xlink:href="#Apercu-75"/>
     <use x="363.49054" xlink:href="#Apercu-74"/>
     <use x="401.290527" xlink:href="#Apercu-69"/>
     <use x="428.290512" xlink:href="#Apercu-6f"/>
     <use x="487.490509" xlink:href="#Apercu-6e"/>
     <use x="545.190506" xlink:href="#Apercu-20"/>
     <use x="571.990494" xlink:href="#Apercu-6f"/>
     <use x="631.190491" xlink:href="#Apercu-66"/>
     <use x="667.590485" xlink:href="#Apercu-20"/>
     <use x="694.390472" xlink:href="#Apercu-66"/>
     <use x="730.790466" xlink:href="#Apercu-69"/>
     <use x="757.774826" xlink:href="#Apercu-6c"/>
     <use x="783.574814" xlink:href="#Apercu-65"/>
     <use x="839.574799" xlink:href="#Apercu-73"/>
     <use x="885.674789" xlink:href="#Apercu-20"/>
     <use x="912.474777" xlink:href="#Apercu-69"/>
     <use x="939.427887" xlink:href="#Apercu-6e"/>
     <use x="997.127884" xlink:href="#Apercu-20"/>
     <use x="1023.927872" xlink:href="#Apercu-61"/>
     <use x="1075.727859" xlink:href="#Apercu-20"/>
     <use x="1102.527847" xlink:href="#Apercu-73"/>
     <use x="1148.596588" xlink:href="#Apercu-69"/>
     <use x="1175.549698" xlink:href="#Apercu-6e"/>
     <use x="1233.23407" xlink:href="#Apercu-67"/>
     <use x="1283.949692" xlink:href="#Apercu-6c"/>
     <use x="1309.74968" xlink:href="#Apercu-65"/>
     <use x="1365.749664" xlink:href="#Apercu-20"/>
     <use x="1392.549652" xlink:href="#Apercu-63"/>
     <use x="1446.34964" xlink:href="#Apercu-6c"/>
     <use x="1472.134003" xlink:href="#Apercu-75"/>
     <use x="1529.818375" xlink:href="#Apercu-73"/>
     <use x="1575.918365" xlink:href="#Apercu-74"/>
     <use x="1613.718353" xlink:href="#Apercu-65"/>
     <use x="1669.702713" xlink:href="#Apercu-72"/>
     <use x="1711.002701" xlink:href="#Apercu-2e"/>
     <use x="1741.602692" xlink:href="#Apercu-20"/>
    </g>
   </g>
   <g id="legend_1">
    <g id="patch_76">
     <path d="M 1520.4025 75.29625 
L 1618.72 75.29625 
Q 1620.32 75.29625 1620.32 73.69625 
L 1620.32 63.2 
Q 1620.32 61.6 1618.72 61.6 
L 1520.4025 61.6 
Q 1518.8025 61.6 1518.8025 63.2 
L 1518.8025 73.69625 
Q 1518.8025 75.29625 1520.4025 75.29625 
z
" style="fill:#f0f0f0;opacity:0.8;stroke:#cccccc;stroke-linejoin:miter;stroke-width:0.5;"/>
    </g>
    <g id="patch_77">
     <path d="M 1522.0025 70.46375 
L 1538.0025 70.46375 
L 1538.0025 64.86375 
L 1522.0025 64.86375 
z
" style="fill:#008fd5;"/>
    </g>
    <g id="text_29">
     <!-- Cluster 2 frequency -->
     <defs>
      <path d="M 56 22.90625 
L 64.5 20.40625 
Q 62.09375 10.90625 54.890625 5.046875 
Q 47.703125 -0.796875 37.09375 -0.796875 
Q 24 -0.796875 14.75 8.59375 
Q 5.5 18 5.5 35 
Q 5.5 52 14.75 61.390625 
Q 24 70.796875 37.09375 70.796875 
Q 47.703125 70.796875 54.890625 64.9375 
Q 62.09375 59.09375 64.5 49.59375 
L 56 47.09375 
Q 51 62.40625 37.09375 62.40625 
Q 27.09375 62.40625 20.84375 55.296875 
Q 14.59375 48.203125 14.59375 35 
Q 14.59375 21.796875 20.84375 14.6875 
Q 27.09375 7.59375 37.09375 7.59375 
Q 51 7.59375 56 22.90625 
z
" id="Apercu-43"/>
      <path d="M 7.203125 0 
L 7.203125 3.90625 
L 33.90625 38.09375 
Q 37.203125 42.296875 38.390625 45.1875 
Q 39.59375 48.09375 39.59375 51.40625 
Q 39.59375 56.296875 37 59.40625 
Q 34.09375 62.796875 28.59375 62.796875 
Q 23.703125 62.796875 20.640625 59.5 
Q 17.59375 56.203125 17.09375 50.796875 
L 8.703125 52.40625 
Q 9.203125 60.203125 14.84375 65.5 
Q 20.5 70.796875 28.59375 70.796875 
Q 38.40625 70.796875 43.796875 64.703125 
Q 48.203125 59.703125 48.203125 51.40625 
Q 48.203125 43.5 42.59375 36.203125 
L 20.796875 8 
L 49.5 8 
L 49.5 0 
z
" id="Apercu-32"/>
     </defs>
     <g style="opacity:0.75;" transform="translate(1544.4025 70.46375)scale(0.08 -0.08)">
      <use xlink:href="#Apercu-43"/>
      <use x="68.799988" xlink:href="#Apercu-6c"/>
      <use x="94.584351" xlink:href="#Apercu-75"/>
      <use x="152.268723" xlink:href="#Apercu-73"/>
      <use x="198.368713" xlink:href="#Apercu-74"/>
      <use x="236.168701" xlink:href="#Apercu-65"/>
      <use x="292.153061" xlink:href="#Apercu-72"/>
      <use x="333.453049" xlink:href="#Apercu-20"/>
      <use x="360.253036" xlink:href="#Apercu-32"/>
      <use x="417.253021" xlink:href="#Apercu-20"/>
      <use x="444.053009" xlink:href="#Apercu-66"/>
      <use x="480.437378" xlink:href="#Apercu-72"/>
      <use x="521.737366" xlink:href="#Apercu-65"/>
      <use x="577.73735" xlink:href="#Apercu-71"/>
      <use x="637.806091" xlink:href="#Apercu-75"/>
      <use x="695.506088" xlink:href="#Apercu-65"/>
      <use x="751.506073" xlink:href="#Apercu-6e"/>
      <use x="809.190445" xlink:href="#Apercu-63"/>
      <use x="862.990433" xlink:href="#Apercu-79"/>
     </g>
    </g>
   </g>
  </g>
 </g>
 <defs>
  <clipPath id="p741f44f116">
   <rect height="181.44" width="1451.52" x="172.8" y="57.6"/>
  </clipPath>
 </defs>
</svg>
