<?xml version="1.0" encoding="utf-8" standalone="no"?>
<!DOCTYPE svg PUBLIC "-//W3C//DTD SVG 1.1//EN"
  "http://www.w3.org/Graphics/SVG/1.1/DTD/svg11.dtd">
<!-- Created with matplotlib (https://matplotlib.org/) -->
<svg height="792pt" version="1.1" viewBox="0 0 468 792" width="468pt" xmlns="http://www.w3.org/2000/svg" xmlns:xlink="http://www.w3.org/1999/xlink">
 <defs>
  <style type="text/css">
*{stroke-linecap:butt;stroke-linejoin:round;}
  </style>
 </defs>
 <g id="figure_1">
  <g id="patch_1">
   <path d="M 0 792 
L 468 792 
L 468 0 
L 0 0 
z
" style="fill:#f0f0f0;"/>
  </g>
  <g id="axes_1">
   <g id="patch_2">
    <path d="M 56.16 601.92 
L 444.6 601.92 
L 444.6 158.4 
L 56.16 158.4 
z
" style="fill:#f0f0f0;"/>
   </g>
   <g id="matplotlib.axis_1">
    <g id="xtick_1">
     <g id="line2d_1">
      <path clip-path="url(#pe3b25edd8f)" d="M 59.824528 601.92 
L 59.824528 158.4 
" style="fill:none;stroke:#cbcbcb;"/>
     </g>
     <g id="line2d_2"/>
     <g id="text_1">
      <!-- original -->
      <defs>
       <path d="M 49.796875 32.59375 
L 49.796875 17.40625 
Q 49.796875 9.703125 44.25 4.34375 
Q 38.703125 -1 30 -1 
Q 21.09375 -1 15.59375 4.34375 
Q 10.09375 9.703125 10.09375 17.5 
L 10.09375 32.59375 
Q 10.09375 40.296875 15.640625 45.640625 
Q 21.203125 51 30 51 
Q 38.703125 51 44.25 45.59375 
Q 49.796875 40.203125 49.796875 32.59375 
z
M 41.59375 16.90625 
L 41.59375 33.09375 
Q 41.59375 37.59375 38.4375 40.75 
Q 35.296875 43.90625 30 43.90625 
Q 24.703125 43.90625 21.453125 40.75 
Q 18.203125 37.59375 18.203125 33.09375 
L 18.203125 17 
Q 18.203125 12.5 21.453125 9.296875 
Q 24.703125 6.09375 30 6.09375 
Q 35.296875 6.09375 38.4375 9.25 
Q 41.59375 12.40625 41.59375 16.90625 
z
" id="DecimaMonoPro-111"/>
       <path d="M 37.203125 51 
Q 44.09375 51 48.140625 46.453125 
Q 52.203125 41.90625 52.203125 37.5 
Q 52.203125 35.703125 50.5 35.703125 
L 45.90625 35.703125 
Q 44.296875 35.703125 44.09375 37.40625 
Q 43.796875 39.796875 41.75 41.796875 
Q 39.703125 43.796875 36.59375 43.796875 
Q 32.40625 43.796875 29.203125 40.796875 
Q 26 37.796875 26 34 
L 26 7.203125 
L 45.09375 7.203125 
Q 45.796875 7.203125 46.34375 6.703125 
Q 46.90625 6.203125 46.90625 5.40625 
L 46.90625 1.796875 
Q 46.90625 1 46.34375 0.5 
Q 45.796875 0 45.09375 0 
L 9.296875 0 
Q 8.59375 0 8.046875 0.5 
Q 7.5 1 7.5 1.796875 
L 7.5 5.40625 
Q 7.5 6.203125 8.046875 6.703125 
Q 8.59375 7.203125 9.296875 7.203125 
L 18 7.203125 
L 18 48.203125 
Q 18 50 20.296875 50 
L 23.5 50 
Q 25.796875 50 25.796875 48.203125 
L 25.796875 45.703125 
Q 29.796875 51 37.203125 51 
z
" id="DecimaMonoPro-114"/>
       <path d="M 13 50 
L 34.40625 50 
Q 35.203125 50 35.703125 49.5 
Q 36.203125 49 36.203125 48.203125 
L 36.203125 7.203125 
L 49.703125 7.203125 
Q 50.40625 7.203125 50.953125 6.703125 
Q 51.5 6.203125 51.5 5.40625 
L 51.5 1.796875 
Q 51.5 1 50.953125 0.5 
Q 50.40625 0 49.703125 0 
L 12.5 0 
Q 11.796875 0 11.25 0.5 
Q 10.703125 1 10.703125 1.796875 
L 10.703125 5.40625 
Q 10.703125 6.203125 11.25 6.703125 
Q 11.796875 7.203125 12.5 7.203125 
L 28.203125 7.203125 
L 28.203125 42.796875 
L 13 42.796875 
Q 12.203125 42.796875 11.703125 43.296875 
Q 11.203125 43.796875 11.203125 44.59375 
L 11.203125 48.203125 
Q 11.203125 49 11.703125 49.5 
Q 12.203125 50 13 50 
z
M 36.40625 66.296875 
L 36.40625 62 
Q 36.40625 61 35.75 60.34375 
Q 35.09375 59.703125 34.09375 59.703125 
L 29.5 59.703125 
Q 28.5 59.703125 27.84375 60.34375 
Q 27.203125 61 27.203125 62 
L 27.203125 66.296875 
Q 27.203125 67.296875 27.84375 67.9375 
Q 28.5 68.59375 29.5 68.59375 
L 34.09375 68.59375 
Q 35.09375 68.59375 35.75 67.9375 
Q 36.40625 67.296875 36.40625 66.296875 
z
" id="DecimaMonoPro-105"/>
       <path d="M 39.90625 -0.5 
L 19.203125 -0.5 
Q 16.703125 -0.5 14.953125 -2.140625 
Q 13.203125 -3.796875 13.203125 -6.09375 
Q 13.203125 -8.40625 14.953125 -10 
Q 16.703125 -11.59375 19.203125 -11.59375 
L 39.796875 -11.59375 
Q 42.296875 -11.59375 44.046875 -9.9375 
Q 45.796875 -8.296875 45.796875 -6 
Q 45.796875 -3.703125 44.09375 -2.09375 
Q 42.40625 -0.5 39.90625 -0.5 
z
M 36.796875 29.203125 
L 36.796875 35.90625 
Q 36.796875 39.40625 34.296875 41.703125 
Q 31.796875 44 28.296875 44 
Q 24.59375 44 22.046875 41.703125 
Q 19.5 39.40625 19.5 35.90625 
L 19.5 29.203125 
Q 19.5 25.796875 22.046875 23.4375 
Q 24.59375 21.09375 28.296875 21.09375 
Q 31.703125 21.09375 34.25 23.4375 
Q 36.796875 25.796875 36.796875 29.203125 
z
M 47.5 48.59375 
Q 44.40625 48.59375 43.5 47.296875 
L 41.40625 44.40625 
Q 44.5 41 44.5 35.90625 
L 44.5 29.296875 
Q 44.5 23.296875 39.546875 18.640625 
Q 34.59375 14 28.296875 14 
L 28.296875 6 
L 41 6 
Q 46.09375 6 49.640625 2.546875 
Q 53.203125 -0.90625 53.203125 -6.09375 
Q 53.203125 -11.296875 49.640625 -14.640625 
Q 46.09375 -18 40.90625 -18 
L 18 -18 
Q 12.796875 -18 9.296875 -14.640625 
Q 5.796875 -11.296875 5.796875 -6.09375 
Q 5.796875 -0.796875 9.296875 2.59375 
Q 12.796875 6 18 6 
L 20.59375 6 
L 20.59375 16 
Q 17.703125 17.09375 14.796875 20.546875 
Q 11.90625 24 11.90625 29.296875 
L 11.90625 35.90625 
Q 11.90625 42.09375 16.75 46.546875 
Q 21.59375 51 28.296875 51 
Q 32.703125 51 36.09375 49 
L 38.796875 52.40625 
Q 40.40625 54.40625 42.09375 55.09375 
Q 43.796875 55.796875 47.5 55.796875 
Q 48.203125 55.796875 48.75 55.296875 
Q 49.296875 54.796875 49.296875 54 
L 49.296875 50.40625 
Q 49.296875 49.59375 48.75 49.09375 
Q 48.203125 48.59375 47.5 48.59375 
z
" id="DecimaMonoPro-103"/>
       <path d="M 50 32.40625 
L 50 1.796875 
Q 50 0 47.703125 0 
L 44.296875 0 
Q 42 0 42 1.796875 
L 42 32.703125 
Q 42 37.5 39.09375 40.640625 
Q 36.203125 43.796875 30.90625 43.796875 
Q 26.09375 43.796875 22.34375 40.546875 
Q 18.59375 37.296875 18.59375 33.5 
L 18.59375 1.796875 
Q 18.59375 0 16.296875 0 
L 12.90625 0 
Q 10.59375 0 10.59375 1.796875 
L 10.59375 48.203125 
Q 10.59375 50 12.90625 50 
L 16.09375 50 
Q 18.40625 50 18.40625 48.203125 
L 18.40625 45.5 
Q 24.09375 51 31.796875 51 
Q 40.296875 51 45.140625 45.75 
Q 50 40.5 50 32.40625 
z
" id="DecimaMonoPro-110"/>
       <path d="M 40.5 24.40625 
L 27.40625 23.5 
Q 23.5 23.203125 20.890625 20.75 
Q 18.296875 18.296875 18.296875 14.703125 
Q 18.296875 11.203125 21.140625 8.703125 
Q 24 6.203125 28.09375 6.203125 
Q 33.40625 6.203125 36.953125 9.25 
Q 40.5 12.296875 40.5 15.703125 
z
M 48.59375 34.796875 
L 48.59375 1.796875 
Q 48.59375 0 46.296875 0 
L 43.09375 0 
Q 40.796875 0 40.796875 1.796875 
L 40.796875 4.40625 
Q 40.296875 3.796875 39.34375 2.890625 
Q 38.40625 2 35.046875 0.5 
Q 31.703125 -1 27.703125 -1 
Q 20.5 -1 15.390625 3.453125 
Q 10.296875 7.90625 10.296875 14.59375 
Q 10.296875 21.09375 15.09375 25.640625 
Q 19.90625 30.203125 26.796875 30.703125 
L 40.5 31.59375 
L 40.5 34.203125 
Q 40.5 38.09375 37.796875 40.890625 
Q 35.09375 43.703125 30.703125 43.703125 
Q 26.90625 43.703125 24.40625 42.09375 
Q 21.90625 40.5 21 38.09375 
Q 20.203125 36.40625 19.203125 36.40625 
L 15 36.40625 
Q 14.203125 36.40625 13.703125 36.90625 
Q 13.203125 37.40625 13.203125 38.203125 
Q 13.203125 42.09375 18.203125 46.546875 
Q 23.203125 51 30.703125 51 
Q 39.296875 51 43.9375 46.390625 
Q 48.59375 41.796875 48.59375 34.796875 
z
" id="DecimaMonoPro-97"/>
       <path d="M 15.90625 70.09375 
L 32.90625 70.09375 
Q 33.59375 70.09375 34.140625 69.546875 
Q 34.703125 69 34.703125 68.296875 
L 34.703125 7.203125 
L 48.90625 7.203125 
Q 49.59375 7.203125 50.140625 6.703125 
Q 50.703125 6.203125 50.703125 5.40625 
L 50.703125 1.796875 
Q 50.703125 1 50.140625 0.5 
Q 49.59375 0 48.90625 0 
L 13.09375 0 
Q 12.40625 0 11.84375 0.5 
Q 11.296875 1 11.296875 1.796875 
L 11.296875 5.40625 
Q 11.296875 6.203125 11.84375 6.703125 
Q 12.40625 7.203125 13.09375 7.203125 
L 26.703125 7.203125 
L 26.703125 62.90625 
L 15.90625 62.90625 
Q 15.203125 62.90625 14.640625 63.453125 
Q 14.09375 64 14.09375 64.703125 
L 14.09375 68.296875 
Q 14.09375 69 14.640625 69.546875 
Q 15.203125 70.09375 15.90625 70.09375 
z
" id="DecimaMonoPro-108"/>
      </defs>
      <g style="fill:#303030;" transform="translate(46.182544 668.52347)rotate(-60)scale(0.14 -0.14)">
       <use xlink:href="#DecimaMonoPro-111"/>
       <use x="59.999985" xlink:href="#DecimaMonoPro-114"/>
       <use x="119.999969" xlink:href="#DecimaMonoPro-105"/>
       <use x="179.999954" xlink:href="#DecimaMonoPro-103"/>
       <use x="239.999939" xlink:href="#DecimaMonoPro-105"/>
       <use x="299.999924" xlink:href="#DecimaMonoPro-110"/>
       <use x="359.999908" xlink:href="#DecimaMonoPro-97"/>
       <use x="419.999893" xlink:href="#DecimaMonoPro-108"/>
      </g>
     </g>
    </g>
    <g id="xtick_2">
     <g id="line2d_3">
      <path clip-path="url(#pe3b25edd8f)" d="M 96.469811 601.92 
L 96.469811 158.4 
" style="fill:none;stroke:#cbcbcb;"/>
     </g>
     <g id="line2d_4"/>
     <g id="text_2">
      <!-- Trans -->
      <defs>
       <path d="M 34.203125 62.09375 
L 34.203125 2 
Q 34.203125 1.203125 33.59375 0.59375 
Q 33 0 31.90625 0 
L 28.09375 0 
Q 27 0 26.390625 0.59375 
Q 25.796875 1.203125 25.796875 2 
L 25.796875 62.09375 
L 12.703125 62.09375 
Q 11.90625 62.09375 11.296875 62.6875 
Q 10.703125 63.296875 10.703125 64.40625 
L 10.703125 67.703125 
Q 10.703125 68.796875 11.296875 69.390625 
Q 11.90625 70 12.703125 70 
L 47.296875 70 
Q 48.09375 70 48.6875 69.390625 
Q 49.296875 68.796875 49.296875 67.703125 
L 49.296875 64.40625 
Q 49.296875 63.296875 48.6875 62.6875 
Q 48.09375 62.09375 47.296875 62.09375 
z
" id="DecimaMonoPro-84"/>
       <path d="M 30.09375 -1 
Q 25.296875 -1 21.546875 0.59375 
Q 17.796875 2.203125 15.84375 4.59375 
Q 13.90625 7 12.953125 9.390625 
Q 12 11.796875 12 14 
Q 12 14.796875 12.5 15.296875 
Q 13 15.796875 13.796875 15.796875 
L 18.296875 15.796875 
Q 19.90625 15.796875 20.09375 14.09375 
Q 20.40625 11.203125 22.796875 8.703125 
Q 25.203125 6.203125 30.09375 6.203125 
Q 34.296875 6.203125 36.890625 8.296875 
Q 39.5 10.40625 39.5 13.59375 
Q 39.5 16.5 36.84375 18.5 
Q 34.203125 20.5 30.390625 21.84375 
Q 26.59375 23.203125 22.84375 24.796875 
Q 19.09375 26.40625 16.4375 29.5 
Q 13.796875 32.59375 13.796875 37.09375 
Q 13.796875 43.296875 18.4375 47.140625 
Q 23.09375 51 30.703125 51 
Q 38.90625 51 43.25 46.5 
Q 47.59375 42 47.59375 37.5 
Q 47.59375 36.796875 47.09375 36.25 
Q 46.59375 35.703125 45.796875 35.703125 
L 41.203125 35.703125 
Q 39.703125 35.703125 39.40625 37.40625 
Q 38.90625 40 36.75 41.890625 
Q 34.59375 43.796875 30.703125 43.796875 
Q 26.90625 43.796875 24.546875 42.09375 
Q 22.203125 40.40625 22.203125 37.703125 
Q 22.203125 35 24.84375 33.09375 
Q 27.5 31.203125 31.25 29.890625 
Q 35 28.59375 38.703125 26.9375 
Q 42.40625 25.296875 45.046875 21.84375 
Q 47.703125 18.40625 47.703125 13.40625 
Q 47.703125 7.40625 42.59375 3.203125 
Q 37.5 -1 30.09375 -1 
z
" id="DecimaMonoPro-115"/>
      </defs>
      <g style="fill:#303030;" transform="translate(89.127827 646.699629)rotate(-60)scale(0.14 -0.14)">
       <use xlink:href="#DecimaMonoPro-84"/>
       <use x="59.999985" xlink:href="#DecimaMonoPro-114"/>
       <use x="119.999969" xlink:href="#DecimaMonoPro-97"/>
       <use x="179.999954" xlink:href="#DecimaMonoPro-110"/>
       <use x="239.999939" xlink:href="#DecimaMonoPro-115"/>
      </g>
     </g>
    </g>
    <g id="xtick_3">
     <g id="line2d_5">
      <path clip-path="url(#pe3b25edd8f)" d="M 133.115094 601.92 
L 133.115094 158.4 
" style="fill:none;stroke:#cbcbcb;"/>
     </g>
     <g id="line2d_6"/>
     <g id="text_3">
      <!-- Dilat -->
      <defs>
       <path d="M 29.796875 0 
L 13.703125 0 
Q 12.59375 0 12 0.59375 
Q 11.40625 1.203125 11.40625 2 
L 11.40625 68 
Q 11.40625 68.796875 12 69.390625 
Q 12.59375 70 13.703125 70 
L 29.796875 70 
Q 37.703125 70 43.203125 64.640625 
Q 48.703125 59.296875 48.703125 51.59375 
L 48.703125 18.40625 
Q 48.703125 10.703125 43.203125 5.34375 
Q 37.703125 0 29.796875 0 
z
M 40.203125 18.296875 
L 40.203125 51.703125 
Q 40.203125 56.09375 37.09375 59.09375 
Q 34 62.09375 29.5 62.09375 
L 19.703125 62.09375 
L 19.703125 7.90625 
L 29.5 7.90625 
Q 34 7.90625 37.09375 10.90625 
Q 40.203125 13.90625 40.203125 18.296875 
z
" id="DecimaMonoPro-68"/>
       <path d="M 24.796875 61.296875 
L 24.796875 50 
L 48.40625 50 
Q 49.203125 50 49.703125 49.5 
Q 50.203125 49 50.203125 48.203125 
L 50.203125 44.59375 
Q 50.203125 43.796875 49.703125 43.296875 
Q 49.203125 42.796875 48.40625 42.796875 
L 24.796875 42.796875 
L 24.796875 15.90625 
Q 24.796875 11.796875 27.390625 9 
Q 30 6.203125 34.796875 6.203125 
Q 39 6.203125 41.390625 8.640625 
Q 43.796875 11.09375 44.203125 14 
Q 44.40625 15.703125 45.90625 15.703125 
L 50.40625 15.703125 
Q 51.203125 15.703125 51.703125 15.140625 
Q 52.203125 14.59375 52.203125 13.90625 
Q 52.203125 11.59375 51.296875 9.25 
Q 50.40625 6.90625 48.546875 4.5 
Q 46.703125 2.09375 43.046875 0.546875 
Q 39.40625 -1 34.59375 -1 
Q 25.703125 -1 21.203125 3.59375 
Q 16.703125 8.203125 16.703125 15.09375 
L 16.703125 42.796875 
L 9.296875 42.796875 
Q 8.59375 42.796875 8.046875 43.296875 
Q 7.5 43.796875 7.5 44.59375 
L 7.5 48.203125 
Q 7.5 49 8.046875 49.5 
Q 8.59375 50 9.296875 50 
L 16.703125 50 
L 16.703125 61.296875 
Q 16.703125 63.09375 19 63.09375 
L 22.59375 63.09375 
Q 24.796875 63.09375 24.796875 61.296875 
z
" id="DecimaMonoPro-116"/>
      </defs>
      <g style="fill:#303030;" transform="translate(125.77311 646.699629)rotate(-60)scale(0.14 -0.14)">
       <use xlink:href="#DecimaMonoPro-68"/>
       <use x="59.999985" xlink:href="#DecimaMonoPro-105"/>
       <use x="119.999969" xlink:href="#DecimaMonoPro-108"/>
       <use x="179.999954" xlink:href="#DecimaMonoPro-97"/>
       <use x="239.999939" xlink:href="#DecimaMonoPro-116"/>
      </g>
     </g>
    </g>
    <g id="xtick_4">
     <g id="line2d_7">
      <path clip-path="url(#pe3b25edd8f)" d="M 169.760377 601.92 
L 169.760377 158.4 
" style="fill:none;stroke:#cbcbcb;"/>
     </g>
     <g id="line2d_8"/>
     <g id="text_4">
      <!-- Homot -->
      <defs>
       <path d="M 49.203125 68 
L 49.203125 2 
Q 49.203125 1.203125 48.59375 0.59375 
Q 48 0 46.90625 0 
L 43.09375 0 
Q 42 0 41.390625 0.59375 
Q 40.796875 1.203125 40.796875 2 
L 40.796875 33 
L 19.09375 33 
L 19.09375 2 
Q 19.09375 1.203125 18.5 0.59375 
Q 17.90625 0 16.796875 0 
L 13 0 
Q 11.90625 0 11.296875 0.59375 
Q 10.703125 1.203125 10.703125 2 
L 10.703125 68 
Q 10.703125 68.796875 11.296875 69.390625 
Q 11.90625 70 13 70 
L 16.796875 70 
Q 17.90625 70 18.5 69.390625 
Q 19.09375 68.796875 19.09375 68 
L 19.09375 40.796875 
L 40.796875 40.796875 
L 40.796875 68 
Q 40.796875 68.796875 41.390625 69.390625 
Q 42 70 43.09375 70 
L 46.90625 70 
Q 48 70 48.59375 69.390625 
Q 49.203125 68.796875 49.203125 68 
z
" id="DecimaMonoPro-72"/>
       <path d="M 45.40625 1.796875 
L 45.40625 38.40625 
Q 45.40625 40.5 43.84375 42.140625 
Q 42.296875 43.796875 40.5 43.796875 
Q 37.40625 43.796875 35.75 41.4375 
Q 34.09375 39.09375 34.09375 35.5 
L 34.09375 1.796875 
Q 34.09375 0 31.796875 0 
L 28.59375 0 
Q 26.296875 0 26.296875 1.796875 
L 26.296875 38.40625 
Q 26.296875 40.59375 24.84375 42.1875 
Q 23.40625 43.796875 21.09375 43.796875 
Q 18.09375 43.796875 16.34375 41.390625 
Q 14.59375 39 14.59375 35.5 
L 14.59375 1.796875 
Q 14.59375 0 12.296875 0 
L 8.90625 0 
Q 6.59375 0 6.59375 1.796875 
L 6.59375 48.203125 
Q 6.59375 50 8.90625 50 
L 12.203125 50 
Q 14.40625 50 14.40625 48.203125 
L 14.40625 46.296875 
Q 17.5 50.796875 22.796875 50.796875 
Q 25.40625 50.796875 27.25 49.84375 
Q 29.09375 48.90625 29.796875 47.953125 
Q 30.5 47 31.40625 45.203125 
Q 35.40625 50.796875 41.59375 50.796875 
Q 47.203125 50.796875 50.296875 47.046875 
Q 53.40625 43.296875 53.40625 37.5 
L 53.40625 1.796875 
Q 53.40625 0 51.09375 0 
L 47.703125 0 
Q 45.40625 0 45.40625 1.796875 
z
" id="DecimaMonoPro-109"/>
      </defs>
      <g style="fill:#303030;" transform="translate(162.418393 646.699629)rotate(-60)scale(0.14 -0.14)">
       <use xlink:href="#DecimaMonoPro-72"/>
       <use x="59.999985" xlink:href="#DecimaMonoPro-111"/>
       <use x="119.999969" xlink:href="#DecimaMonoPro-109"/>
       <use x="179.999954" xlink:href="#DecimaMonoPro-111"/>
       <use x="239.999939" xlink:href="#DecimaMonoPro-116"/>
      </g>
     </g>
    </g>
    <g id="xtick_5">
     <g id="line2d_9">
      <path clip-path="url(#pe3b25edd8f)" d="M 206.40566 601.92 
L 206.40566 158.4 
" style="fill:none;stroke:#cbcbcb;"/>
     </g>
     <g id="line2d_10"/>
     <g id="text_5">
      <!-- Relfec -->
      <defs>
       <path d="M 37.796875 26.90625 
L 48.203125 2.5 
Q 48.59375 1.5 48.59375 1.203125 
Q 48.59375 0 46.90625 0 
L 42 0 
Q 40.09375 0 39.296875 1.90625 
L 29.5 25.5 
L 20.203125 25.5 
L 20.203125 2 
Q 20.203125 1.203125 19.59375 0.59375 
Q 19 0 17.90625 0 
L 14.09375 0 
Q 13 0 12.390625 0.59375 
Q 11.796875 1.203125 11.796875 2 
L 11.796875 68 
Q 11.796875 68.796875 12.390625 69.390625 
Q 13 70 14.09375 70 
L 30.90625 70 
Q 37.59375 70 42.25 65.453125 
Q 46.90625 60.90625 46.90625 54.40625 
L 46.90625 41.09375 
Q 46.90625 36.296875 44.5 32.546875 
Q 42.09375 28.796875 37.796875 26.90625 
z
M 38.40625 40.796875 
L 38.40625 54.5 
Q 38.40625 57.59375 36.09375 59.84375 
Q 33.796875 62.09375 30.59375 62.09375 
L 20.203125 62.09375 
L 20.203125 33.296875 
L 30.59375 33.296875 
Q 33.796875 33.296875 36.09375 35.5 
Q 38.40625 37.703125 38.40625 40.796875 
z
" id="DecimaMonoPro-82"/>
       <path d="M 48.796875 13.5 
Q 48.796875 9.09375 43.75 4.046875 
Q 38.703125 -1 30.203125 -1 
Q 21.203125 -1 15.75 4.453125 
Q 10.296875 9.90625 10.296875 17.5 
L 10.296875 32.703125 
Q 10.296875 40.203125 15.75 45.59375 
Q 21.203125 51 30.203125 51 
Q 39.203125 51 44.453125 45.59375 
Q 49.703125 40.203125 49.703125 32.703125 
L 49.703125 24.796875 
Q 49.703125 23.796875 49.046875 23.140625 
Q 48.40625 22.5 47.40625 22.5 
L 18.40625 22.5 
L 18.40625 17 
Q 18.40625 12.5 21.65625 9.296875 
Q 24.90625 6.09375 30.203125 6.09375 
Q 38.5 6.09375 40.59375 13.59375 
Q 41.09375 15.296875 42.40625 15.296875 
L 47 15.296875 
Q 47.796875 15.296875 48.296875 14.75 
Q 48.796875 14.203125 48.796875 13.5 
z
M 18.40625 33 
L 18.40625 29.703125 
L 41.796875 29.703125 
L 41.796875 33 
Q 41.796875 37.5 38.640625 40.640625 
Q 35.5 43.796875 30.203125 43.796875 
Q 24.90625 43.796875 21.65625 40.640625 
Q 18.40625 37.5 18.40625 33 
z
" id="DecimaMonoPro-101"/>
       <path d="M 22.703125 50 
L 22.703125 54.09375 
Q 22.703125 61.296875 27.59375 66.140625 
Q 32.5 71 40.296875 71 
Q 43.703125 71 46.453125 70.390625 
Q 49.203125 69.796875 50.296875 69.203125 
L 51.40625 68.59375 
Q 52.09375 68.203125 52.09375 67.203125 
Q 52.09375 66.59375 51.796875 66.09375 
L 49.5 63 
Q 49 62.203125 48.203125 62.203125 
Q 48 62.203125 46.5 62.703125 
Q 44.40625 63.703125 40.40625 63.703125 
Q 36.09375 63.703125 33.5 61.046875 
Q 30.90625 58.40625 30.90625 54.40625 
L 30.90625 50 
L 47.796875 50 
Q 48.59375 50 49.09375 49.5 
Q 49.59375 49 49.59375 48.203125 
L 49.59375 44.59375 
Q 49.59375 43.796875 49.09375 43.296875 
Q 48.59375 42.796875 47.796875 42.796875 
L 30.90625 42.796875 
L 30.90625 1.796875 
Q 30.90625 0 28.59375 0 
L 25 0 
Q 22.703125 0 22.703125 1.796875 
L 22.703125 42.796875 
L 12.40625 42.796875 
Q 11.59375 42.796875 11.09375 43.296875 
Q 10.59375 43.796875 10.59375 44.59375 
L 10.59375 48.203125 
Q 10.59375 49 11.09375 49.5 
Q 11.59375 50 12.40625 50 
z
" id="DecimaMonoPro-102"/>
       <path d="M 30.703125 43.703125 
Q 25.5 43.703125 22.25 40.5 
Q 19 37.296875 19 32.90625 
L 19 17 
Q 19 12.40625 22.25 9.25 
Q 25.5 6.09375 30.796875 6.09375 
Q 35.59375 6.09375 38.4375 8.890625 
Q 41.296875 11.703125 41.703125 14.90625 
Q 41.90625 16.59375 43.5 16.59375 
L 48.09375 16.59375 
Q 48.796875 16.59375 49.34375 16.09375 
Q 49.90625 15.59375 49.90625 14.796875 
Q 49.90625 9.59375 44.75 4.296875 
Q 39.59375 -1 30.6875 -1 
Q 21.796875 -1 16.34375 4.5 
Q 10.90625 10 10.90625 17.5 
L 10.90625 32.59375 
Q 10.90625 40.203125 16.40625 45.59375 
Q 21.90625 51 30.703125 51 
Q 35.703125 51 39.546875 49.296875 
Q 43.40625 47.59375 45.453125 44.9375 
Q 47.5 42.296875 48.5 39.75 
Q 49.5 37.203125 49.5 35 
Q 49.5 34.203125 48.953125 33.703125 
Q 48.40625 33.203125 47.703125 33.203125 
L 43.09375 33.203125 
Q 41.5 33.203125 41.296875 34.90625 
Q 41.09375 36.203125 40.59375 37.453125 
Q 40.09375 38.703125 39 40.25 
Q 37.90625 41.796875 35.75 42.75 
Q 33.59375 43.703125 30.703125 43.703125 
z
" id="DecimaMonoPro-99"/>
      </defs>
      <g style="fill:#303030;" transform="translate(196.963676 653.974243)rotate(-60)scale(0.14 -0.14)">
       <use xlink:href="#DecimaMonoPro-82"/>
       <use x="59.999985" xlink:href="#DecimaMonoPro-101"/>
       <use x="119.999969" xlink:href="#DecimaMonoPro-108"/>
       <use x="179.999954" xlink:href="#DecimaMonoPro-102"/>
       <use x="239.999939" xlink:href="#DecimaMonoPro-101"/>
       <use x="299.999924" xlink:href="#DecimaMonoPro-99"/>
      </g>
     </g>
    </g>
    <g id="xtick_6">
     <g id="line2d_11">
      <path clip-path="url(#pe3b25edd8f)" d="M 243.050943 601.92 
L 243.050943 158.4 
" style="fill:none;stroke:#cbcbcb;"/>
     </g>
     <g id="line2d_12"/>
     <g id="text_6">
      <!-- Rotat -->
      <g style="fill:#303030;" transform="translate(235.708959 646.699629)rotate(-60)scale(0.14 -0.14)">
       <use xlink:href="#DecimaMonoPro-82"/>
       <use x="59.999985" xlink:href="#DecimaMonoPro-111"/>
       <use x="119.999969" xlink:href="#DecimaMonoPro-116"/>
       <use x="179.999954" xlink:href="#DecimaMonoPro-97"/>
       <use x="239.999939" xlink:href="#DecimaMonoPro-116"/>
      </g>
     </g>
    </g>
    <g id="xtick_7">
     <g id="line2d_13">
      <path clip-path="url(#pe3b25edd8f)" d="M 279.696226 601.92 
L 279.696226 158.4 
" style="fill:none;stroke:#cbcbcb;"/>
     </g>
     <g id="line2d_14"/>
     <g id="text_7">
      <!-- distAE -->
      <defs>
       <path d="M 17.90625 32.90625 
L 17.90625 16.90625 
Q 17.90625 12.296875 21.15625 9.1875 
Q 24.40625 6.09375 29.5 6.09375 
Q 34.59375 6.09375 37.9375 9.25 
Q 41.296875 12.40625 41.296875 17 
L 41.296875 32.90625 
Q 41.296875 37.5 37.9375 40.59375 
Q 34.59375 43.703125 29.5 43.703125 
Q 24.40625 43.703125 21.15625 40.59375 
Q 17.90625 37.5 17.90625 32.90625 
z
M 41.296875 46.296875 
L 41.203125 68.203125 
Q 41.203125 70 43.5 70 
L 47 70 
Q 49.296875 70 49.296875 68.203125 
L 49.296875 1.796875 
Q 49.296875 0 47 0 
L 44.09375 0 
Q 41.796875 0 41.796875 1.796875 
L 41.796875 4.09375 
Q 41.40625 3.5 40.5 2.640625 
Q 39.59375 1.796875 36.25 0.390625 
Q 32.90625 -1 28.703125 -1 
Q 20.703125 -1 15.203125 4.34375 
Q 9.703125 9.703125 9.703125 17.40625 
L 9.703125 32.59375 
Q 9.703125 40.203125 15.25 45.59375 
Q 20.796875 51 28.703125 51 
Q 32.59375 51 35.75 49.796875 
Q 38.90625 48.59375 40.09375 47.40625 
z
" id="DecimaMonoPro-100"/>
       <path d="M 40.5 30.09375 
L 30.90625 62.09375 
L 29 62.09375 
L 19.5 30.09375 
z
M 37.703125 68 
L 48.59375 31.796875 
Q 49.203125 30 49.203125 28.203125 
L 49.203125 2 
Q 49.203125 1.203125 48.59375 0.59375 
Q 48 0 46.90625 0 
L 43.09375 0 
Q 42 0 41.390625 0.59375 
Q 40.796875 1.203125 40.796875 2 
L 40.796875 22.296875 
L 19.09375 22.296875 
L 19.09375 2 
Q 19.09375 1.203125 18.5 0.59375 
Q 17.90625 0 16.796875 0 
L 13 0 
Q 11.90625 0 11.296875 0.59375 
Q 10.703125 1.203125 10.703125 2 
L 10.703125 28.203125 
Q 10.703125 30 11.296875 31.90625 
L 22.203125 68 
Q 22.796875 70 24.59375 70 
L 35.296875 70 
Q 37.09375 70 37.703125 68 
z
" id="DecimaMonoPro-65"/>
       <path d="M 45.5 0 
L 14.796875 0 
Q 13.703125 0 13.09375 0.59375 
Q 12.5 1.203125 12.5 2 
L 12.5 68 
Q 12.5 68.796875 13.09375 69.390625 
Q 13.703125 70 14.796875 70 
L 44.703125 70 
Q 45.5 70 46.09375 69.390625 
Q 46.703125 68.796875 46.703125 67.703125 
L 46.703125 64.40625 
Q 46.703125 63.296875 46.09375 62.6875 
Q 45.5 62.09375 44.703125 62.09375 
L 20.90625 62.09375 
L 20.90625 40.796875 
L 42.296875 40.796875 
Q 43.09375 40.796875 43.6875 40.1875 
Q 44.296875 39.59375 44.296875 38.5 
L 44.296875 35.296875 
Q 44.296875 34.203125 43.6875 33.59375 
Q 43.09375 33 42.296875 33 
L 20.90625 33 
L 20.90625 7.90625 
L 45.5 7.90625 
Q 46.296875 7.90625 46.890625 7.296875 
Q 47.5 6.703125 47.5 5.59375 
L 47.5 2.296875 
Q 47.5 1.203125 46.890625 0.59375 
Q 46.296875 0 45.5 0 
z
" id="DecimaMonoPro-69"/>
      </defs>
      <g style="fill:#303030;" transform="translate(270.254242 653.974243)rotate(-60)scale(0.14 -0.14)">
       <use xlink:href="#DecimaMonoPro-100"/>
       <use x="59.999985" xlink:href="#DecimaMonoPro-105"/>
       <use x="119.999969" xlink:href="#DecimaMonoPro-115"/>
       <use x="179.999954" xlink:href="#DecimaMonoPro-116"/>
       <use x="239.999939" xlink:href="#DecimaMonoPro-65"/>
       <use x="299.999924" xlink:href="#DecimaMonoPro-69"/>
      </g>
     </g>
    </g>
    <g id="xtick_8">
     <g id="line2d_15">
      <path clip-path="url(#pe3b25edd8f)" d="M 316.341509 601.92 
L 316.341509 158.4 
" style="fill:none;stroke:#cbcbcb;"/>
     </g>
     <g id="line2d_16"/>
     <g id="text_8">
      <!-- 5nn thresh -->
      <defs>
       <path d="M 21.90625 35.59375 
Q 21.09375 34.40625 19.796875 34.40625 
Q 19.40625 34.40625 18.203125 34.796875 
L 14.796875 35.796875 
Q 13.203125 36.296875 13.40625 38.5 
L 15.90625 67.703125 
Q 16.09375 70 18.09375 70 
L 44.40625 70 
Q 46.59375 70 46.59375 67.703125 
L 46.59375 64.40625 
Q 46.59375 62.09375 44.40625 62.09375 
L 24.09375 62.09375 
L 22.40625 44.796875 
Q 25.203125 47.203125 30.703125 47.203125 
Q 38.40625 47.203125 43.703125 42 
Q 49 36.796875 49 28.90625 
L 49 17.5 
Q 49 9.796875 43.5 4.390625 
Q 38 -1 30.09375 -1 
Q 21.90625 -1 16.453125 4.34375 
Q 11 9.703125 11 17.40625 
Q 11 18.203125 11.59375 18.796875 
Q 12.203125 19.40625 13.296875 19.40625 
L 17.09375 19.40625 
Q 18.203125 19.40625 18.796875 18.796875 
Q 19.40625 18.203125 19.40625 17.40625 
Q 19.40625 13 22.5 9.953125 
Q 25.59375 6.90625 30.09375 6.90625 
Q 34.5 6.90625 37.546875 9.953125 
Q 40.59375 13 40.59375 17.40625 
L 40.59375 28.796875 
Q 40.59375 33.203125 37.5 36.25 
Q 34.40625 39.296875 29.796875 39.296875 
Q 27.703125 39.296875 25.796875 38.4375 
Q 23.90625 37.59375 23.09375 36.890625 
Q 22.296875 36.203125 21.90625 35.59375 
z
" id="DecimaMonoPro-53"/>
       <path id="DecimaMonoPro-32"/>
       <path d="M 50.09375 32.703125 
L 50.09375 1.796875 
Q 50.09375 0 47.796875 0 
L 44.40625 0 
Q 42.09375 0 42.09375 1.796875 
L 42.09375 33 
Q 42.09375 37.59375 39.046875 40.6875 
Q 36 43.796875 31 43.796875 
Q 26.203125 43.796875 22.453125 40.546875 
Q 18.703125 37.296875 18.703125 33.5 
L 18.703125 1.796875 
Q 18.703125 0 16.40625 0 
L 13 0 
Q 10.703125 0 10.703125 1.796875 
L 10.703125 68.203125 
Q 10.703125 70 13 70 
L 16.5 70 
Q 18.703125 70 18.703125 68.203125 
L 18.703125 45.59375 
Q 19.203125 46.203125 20.25 47.09375 
Q 21.296875 48 24.6875 49.5 
Q 28.09375 51 31.90625 51 
Q 40.09375 51 45.09375 45.75 
Q 50.09375 40.5 50.09375 32.703125 
z
" id="DecimaMonoPro-104"/>
      </defs>
      <g style="fill:#303030;" transform="translate(298.499525 683.072696)rotate(-60)scale(0.14 -0.14)">
       <use xlink:href="#DecimaMonoPro-53"/>
       <use x="59.999985" xlink:href="#DecimaMonoPro-110"/>
       <use x="119.999969" xlink:href="#DecimaMonoPro-110"/>
       <use x="179.999954" xlink:href="#DecimaMonoPro-32"/>
       <use x="239.999939" xlink:href="#DecimaMonoPro-116"/>
       <use x="299.999924" xlink:href="#DecimaMonoPro-104"/>
       <use x="359.999908" xlink:href="#DecimaMonoPro-114"/>
       <use x="419.999893" xlink:href="#DecimaMonoPro-101"/>
       <use x="479.999878" xlink:href="#DecimaMonoPro-115"/>
       <use x="539.999863" xlink:href="#DecimaMonoPro-104"/>
      </g>
     </g>
    </g>
    <g id="xtick_9">
     <g id="line2d_17">
      <path clip-path="url(#pe3b25edd8f)" d="M 352.986792 601.92 
L 352.986792 158.4 
" style="fill:none;stroke:#cbcbcb;"/>
     </g>
     <g id="line2d_18"/>
     <g id="text_9">
      <!-- 5nn weighted -->
      <defs>
       <path d="M 51.40625 30.59375 
L 47.203125 1.796875 
Q 47 0 44.90625 0 
L 36.09375 0 
Q 34.203125 0 33.796875 1.796875 
L 30.203125 24.703125 
L 29.703125 24.703125 
L 26.203125 1.796875 
Q 25.796875 0 23.90625 0 
L 15.09375 0 
Q 13 0 12.796875 1.796875 
L 8.59375 30.59375 
L 8.59375 48.203125 
Q 8.59375 50 10.90625 50 
L 14.09375 50 
Q 16.40625 50 16.40625 48.203125 
L 16.40625 31.40625 
L 19 7.296875 
L 20.5 7.296875 
L 24.59375 30.296875 
Q 25 32.09375 26.90625 32.09375 
L 32.90625 32.09375 
Q 34.796875 32.09375 35.203125 30.296875 
L 39.5 7.296875 
L 41 7.296875 
L 43.59375 31.40625 
L 43.59375 48.203125 
Q 43.59375 50 45.90625 50 
L 49.09375 50 
Q 51.40625 50 51.40625 48.203125 
z
" id="DecimaMonoPro-119"/>
      </defs>
      <g style="fill:#303030;" transform="translate(330.944808 697.621923)rotate(-60)scale(0.14 -0.14)">
       <use xlink:href="#DecimaMonoPro-53"/>
       <use x="59.999985" xlink:href="#DecimaMonoPro-110"/>
       <use x="119.999969" xlink:href="#DecimaMonoPro-110"/>
       <use x="179.999954" xlink:href="#DecimaMonoPro-32"/>
       <use x="239.999939" xlink:href="#DecimaMonoPro-119"/>
       <use x="299.999924" xlink:href="#DecimaMonoPro-101"/>
       <use x="359.999908" xlink:href="#DecimaMonoPro-105"/>
       <use x="419.999893" xlink:href="#DecimaMonoPro-103"/>
       <use x="479.999878" xlink:href="#DecimaMonoPro-104"/>
       <use x="539.999863" xlink:href="#DecimaMonoPro-116"/>
       <use x="599.999847" xlink:href="#DecimaMonoPro-101"/>
       <use x="659.999832" xlink:href="#DecimaMonoPro-100"/>
      </g>
     </g>
    </g>
    <g id="xtick_10">
     <g id="line2d_19">
      <path clip-path="url(#pe3b25edd8f)" d="M 389.632075 601.92 
L 389.632075 158.4 
" style="fill:none;stroke:#cbcbcb;"/>
     </g>
     <g id="line2d_20"/>
     <g id="text_10">
      <!-- 5nn -->
      <g style="fill:#303030;" transform="translate(386.490091 632.150403)rotate(-60)scale(0.14 -0.14)">
       <use xlink:href="#DecimaMonoPro-53"/>
       <use x="59.999985" xlink:href="#DecimaMonoPro-110"/>
       <use x="119.999969" xlink:href="#DecimaMonoPro-110"/>
      </g>
     </g>
    </g>
    <g id="xtick_11">
     <g id="line2d_21">
      <path clip-path="url(#pe3b25edd8f)" d="M 426.277358 601.92 
L 426.277358 158.4 
" style="fill:none;stroke:#cbcbcb;"/>
     </g>
     <g id="line2d_22"/>
     <g id="text_11">
      <!-- rand -->
      <g style="fill:#303030;" transform="translate(421.035374 639.425016)rotate(-60)scale(0.14 -0.14)">
       <use xlink:href="#DecimaMonoPro-114"/>
       <use x="59.999985" xlink:href="#DecimaMonoPro-97"/>
       <use x="119.999969" xlink:href="#DecimaMonoPro-110"/>
       <use x="179.999954" xlink:href="#DecimaMonoPro-100"/>
      </g>
     </g>
    </g>
   </g>
   <g id="matplotlib.axis_2">
    <g id="ytick_1">
     <g id="line2d_23">
      <path clip-path="url(#pe3b25edd8f)" d="M 56.16 601.92 
L 444.6 601.92 
" style="fill:none;stroke:#cbcbcb;"/>
     </g>
     <g id="line2d_24"/>
     <g id="text_12">
      <!-- 0.4 -->
      <defs>
       <path d="M 48.203125 52.59375 
L 48.203125 17.40625 
Q 48.203125 9.703125 42.953125 4.34375 
Q 37.703125 -1 29.890625 -1 
Q 22.09375 -1 16.9375 4.390625 
Q 11.796875 9.796875 11.796875 17.5 
L 11.796875 52.59375 
Q 11.796875 60.296875 16.9375 65.640625 
Q 22.09375 71 29.890625 71 
Q 37.703125 71 42.953125 65.640625 
Q 48.203125 60.296875 48.203125 52.59375 
z
M 39.90625 17.296875 
L 39.90625 52.5 
Q 39.90625 56.90625 37 60 
Q 34.09375 63.09375 29.90625 63.09375 
Q 25.796875 63.09375 22.890625 60 
Q 20 56.90625 20 52.5 
L 20 17.40625 
Q 20 13 22.890625 9.953125 
Q 25.796875 6.90625 30 6.90625 
Q 34.09375 6.90625 37 9.90625 
Q 39.90625 12.90625 39.90625 17.296875 
z
" id="DecimaMonoPro-48"/>
       <path d="M 35.09375 7.5 
L 35.09375 2.59375 
Q 35.09375 0 32.5 0 
L 27.5 0 
Q 24.90625 0 24.90625 2.59375 
L 24.90625 7.5 
Q 24.90625 10.09375 27.5 10.09375 
L 32.5 10.09375 
Q 35.09375 10.09375 35.09375 7.5 
z
" id="DecimaMonoPro-46"/>
       <path d="M 40.09375 67.5 
L 19.5 22.90625 
L 35.796875 22.90625 
L 35.796875 38.90625 
Q 35.796875 39.703125 36.390625 40.296875 
Q 37 40.90625 38.09375 40.90625 
L 42.203125 40.90625 
Q 43 40.90625 43.59375 40.25 
Q 44.203125 39.59375 44.203125 38.90625 
L 44.203125 22.90625 
L 48 22.90625 
Q 48.796875 22.90625 49.390625 22.296875 
Q 50 21.703125 50 20.59375 
L 50 17.40625 
Q 50 16.296875 49.390625 15.6875 
Q 48.796875 15.09375 48 15.09375 
L 44.203125 15.09375 
L 44.203125 2 
Q 44.203125 1.203125 43.59375 0.59375 
Q 43 0 42.203125 0 
L 38.09375 0 
Q 37 0 36.390625 0.59375 
Q 35.796875 1.203125 35.796875 2 
L 35.796875 15.09375 
L 12.09375 15.09375 
Q 9.90625 15.09375 9.90625 17.40625 
L 9.90625 21.296875 
Q 9.90625 22.5 11 24.703125 
L 31.296875 68 
Q 32.296875 70 34 70 
L 38.796875 70 
Q 40.5 70 40.5 68.796875 
Q 40.5 68.5 40.09375 67.5 
z
" id="DecimaMonoPro-52"/>
      </defs>
      <g style="fill:#303030;" transform="translate(27.46 606.826563)scale(0.14 -0.14)">
       <use xlink:href="#DecimaMonoPro-48"/>
       <use x="59.999985" xlink:href="#DecimaMonoPro-46"/>
       <use x="119.999969" xlink:href="#DecimaMonoPro-52"/>
      </g>
     </g>
    </g>
    <g id="ytick_2">
     <g id="line2d_25">
      <path clip-path="url(#pe3b25edd8f)" d="M 56.16 518.236981 
L 444.6 518.236981 
" style="fill:none;stroke:#cbcbcb;"/>
     </g>
     <g id="line2d_26"/>
     <g id="text_13">
      <!-- 0.5 -->
      <g style="fill:#303030;" transform="translate(27.46 523.143544)scale(0.14 -0.14)">
       <use xlink:href="#DecimaMonoPro-48"/>
       <use x="59.999985" xlink:href="#DecimaMonoPro-46"/>
       <use x="119.999969" xlink:href="#DecimaMonoPro-53"/>
      </g>
     </g>
    </g>
    <g id="ytick_3">
     <g id="line2d_27">
      <path clip-path="url(#pe3b25edd8f)" d="M 56.16 434.553962 
L 444.6 434.553962 
" style="fill:none;stroke:#cbcbcb;"/>
     </g>
     <g id="line2d_28"/>
     <g id="text_14">
      <!-- 0.6 -->
      <defs>
       <path d="M 11 60.203125 
Q 21.59375 71 29.5 71 
Q 37.40625 71 42.65625 65.953125 
Q 47.90625 60.90625 47.90625 54.40625 
Q 47.90625 53.59375 47.296875 53 
Q 46.703125 52.40625 45.59375 52.40625 
L 41.796875 52.40625 
Q 39.703125 52.40625 39.5 54.40625 
Q 39.296875 57.59375 36.640625 60.296875 
Q 34 63 29.5 63 
Q 25.203125 63 22.25 59.890625 
Q 19.296875 56.796875 19.296875 52.40625 
L 19.296875 42.796875 
Q 19.703125 43.296875 20.59375 44.046875 
Q 21.5 44.796875 24.546875 46 
Q 27.59375 47.203125 31 47.203125 
Q 38.40625 47.203125 43.703125 42 
Q 49 36.796875 49 28.90625 
L 49 17.5 
Q 49 9.796875 43.546875 4.390625 
Q 38.09375 -1 30 -1 
Q 21.90625 -1 16.453125 4.34375 
Q 11 9.703125 11 17.40625 
L 11 52.5 
Q 11 60.203125 21.59375 71 
z
M 30 39.296875 
Q 25.40625 39.296875 22.34375 36.390625 
Q 19.296875 33.5 19.296875 28.796875 
L 19.296875 17.296875 
Q 19.296875 12.90625 22.390625 9.90625 
Q 25.5 6.90625 30 6.90625 
Q 34.40625 6.90625 37.5 9.953125 
Q 40.59375 13 40.59375 17.40625 
L 40.59375 28.796875 
Q 40.59375 33.40625 37.546875 36.34375 
Q 34.5 39.296875 30 39.296875 
z
" id="DecimaMonoPro-54"/>
      </defs>
      <g style="fill:#303030;" transform="translate(27.46 439.460525)scale(0.14 -0.14)">
       <use xlink:href="#DecimaMonoPro-48"/>
       <use x="59.999985" xlink:href="#DecimaMonoPro-46"/>
       <use x="119.999969" xlink:href="#DecimaMonoPro-54"/>
      </g>
     </g>
    </g>
    <g id="ytick_4">
     <g id="line2d_29">
      <path clip-path="url(#pe3b25edd8f)" d="M 56.16 350.870943 
L 444.6 350.870943 
" style="fill:none;stroke:#cbcbcb;"/>
     </g>
     <g id="line2d_30"/>
     <g id="text_15">
      <!-- 0.7 -->
      <defs>
       <path d="M 39.09375 62.09375 
L 14.703125 62.09375 
Q 12.5 62.09375 12.5 64.40625 
L 12.5 67.703125 
Q 12.5 70 14.703125 70 
L 44.796875 70 
Q 47.5 70 47.5 67.59375 
L 47.5 62.703125 
Q 47.5 58.203125 43.59375 46.953125 
Q 39.703125 35.703125 35.796875 22.953125 
Q 31.90625 10.203125 31.90625 2 
Q 31.90625 1.203125 31.25 0.59375 
Q 30.59375 0 29.90625 0 
L 25.703125 0 
Q 24.59375 0 24 0.59375 
Q 23.40625 1.203125 23.40625 2 
Q 23.40625 9.40625 25.796875 19.15625 
Q 28.203125 28.90625 31.046875 36.5 
Q 33.90625 44.09375 36.40625 51.546875 
Q 38.90625 59 39.09375 62.09375 
z
" id="DecimaMonoPro-55"/>
      </defs>
      <g style="fill:#303030;" transform="translate(27.46 355.777506)scale(0.14 -0.14)">
       <use xlink:href="#DecimaMonoPro-48"/>
       <use x="59.999985" xlink:href="#DecimaMonoPro-46"/>
       <use x="119.999969" xlink:href="#DecimaMonoPro-55"/>
      </g>
     </g>
    </g>
    <g id="ytick_5">
     <g id="line2d_31">
      <path clip-path="url(#pe3b25edd8f)" d="M 56.16 267.187925 
L 444.6 267.187925 
" style="fill:none;stroke:#cbcbcb;"/>
     </g>
     <g id="line2d_32"/>
     <g id="text_16">
      <!-- 0.8 -->
      <defs>
       <path d="M 48.09375 53.5 
L 48.09375 49.796875 
Q 48.09375 41.5 41.796875 36.40625 
Q 49 30.796875 49 21.703125 
L 49 17.40625 
Q 49 9.703125 43.640625 4.34375 
Q 38.296875 -1 30.5 -1 
L 29.59375 -1 
Q 21.796875 -1 16.390625 4.390625 
Q 11 9.796875 11 17.5 
L 11 21.703125 
Q 11 30.703125 18.296875 36.40625 
Q 11.796875 41.296875 11.796875 49.90625 
L 11.796875 53.5 
Q 11.796875 60.796875 16.9375 65.890625 
Q 22.09375 71 29.5 71 
L 30.40625 71 
Q 37.796875 71 42.9375 65.890625 
Q 48.09375 60.796875 48.09375 53.5 
z
M 40.59375 17.296875 
L 40.59375 21.59375 
Q 40.59375 26 37.5 29.09375 
Q 34.40625 32.203125 30 32.203125 
Q 25.59375 32.203125 22.5 29.09375 
Q 19.40625 26 19.40625 21.59375 
L 19.40625 17.40625 
Q 19.40625 13 22.546875 9.953125 
Q 25.703125 6.90625 30.203125 6.90625 
Q 34.5 6.90625 37.546875 9.90625 
Q 40.59375 12.90625 40.59375 17.296875 
z
M 39.703125 49.703125 
L 39.703125 53.09375 
Q 39.703125 57.296875 36.84375 60.1875 
Q 34 63.09375 29.796875 63.09375 
Q 25.796875 63.09375 23 60.1875 
Q 20.203125 57.296875 20.203125 53.09375 
L 20.203125 49.796875 
Q 20.203125 45.90625 22.84375 43 
Q 25.5 40.09375 29.59375 40.09375 
L 30.5 40.09375 
Q 34.296875 40.09375 37 42.84375 
Q 39.703125 45.59375 39.703125 49.703125 
z
" id="DecimaMonoPro-56"/>
      </defs>
      <g style="fill:#303030;" transform="translate(27.46 272.094487)scale(0.14 -0.14)">
       <use xlink:href="#DecimaMonoPro-48"/>
       <use x="59.999985" xlink:href="#DecimaMonoPro-46"/>
       <use x="119.999969" xlink:href="#DecimaMonoPro-56"/>
      </g>
     </g>
    </g>
    <g id="ytick_6">
     <g id="line2d_33">
      <path clip-path="url(#pe3b25edd8f)" d="M 56.16 183.504906 
L 444.6 183.504906 
" style="fill:none;stroke:#cbcbcb;"/>
     </g>
     <g id="line2d_34"/>
     <g id="text_17">
      <!-- 0.9 -->
      <defs>
       <path d="M 49 9.796875 
Q 38.40625 -1 30.5 -1 
Q 22.59375 -1 17.34375 4.046875 
Q 12.09375 9.09375 12.09375 15.59375 
Q 12.09375 16.40625 12.6875 17 
Q 13.296875 17.59375 14.40625 17.59375 
L 18.203125 17.59375 
Q 20.296875 17.59375 20.5 15.59375 
Q 20.703125 12.40625 23.34375 9.703125 
Q 26 7 30.5 7 
Q 34.796875 7 37.75 10.09375 
Q 40.703125 13.203125 40.703125 17.59375 
L 40.703125 27.203125 
Q 40.296875 26.703125 39.390625 25.953125 
Q 38.5 25.203125 35.453125 24 
Q 32.40625 22.796875 29 22.796875 
Q 21.59375 22.796875 16.296875 28 
Q 11 33.203125 11 41.09375 
L 11 52.5 
Q 11 60.203125 16.453125 65.59375 
Q 21.90625 71 30 71 
Q 38.09375 71 43.546875 65.640625 
Q 49 60.296875 49 52.59375 
L 49 17.5 
Q 49 9.796875 38.40625 -1 
z
M 30 30.703125 
Q 34.59375 30.703125 37.640625 33.59375 
Q 40.703125 36.5 40.703125 41.203125 
L 40.703125 52.703125 
Q 40.703125 57.09375 37.59375 60.09375 
Q 34.5 63.09375 30 63.09375 
Q 25.59375 63.09375 22.5 60.046875 
Q 19.40625 57 19.40625 52.59375 
L 19.40625 41.203125 
Q 19.40625 36.59375 22.453125 33.640625 
Q 25.5 30.703125 30 30.703125 
z
" id="DecimaMonoPro-57"/>
      </defs>
      <g style="fill:#303030;" transform="translate(27.46 188.411468)scale(0.14 -0.14)">
       <use xlink:href="#DecimaMonoPro-48"/>
       <use x="59.999985" xlink:href="#DecimaMonoPro-46"/>
       <use x="119.999969" xlink:href="#DecimaMonoPro-57"/>
      </g>
     </g>
    </g>
    <g id="text_18">
     <!-- Normalized Task Score -->
     <defs>
      <path d="M 51.59375 70 
L 60.40625 70 
L 60.40625 0 
L 50.09375 0 
L 18.5 54.5 
L 18.5 0 
L 9.703125 0 
L 9.703125 70 
L 20 70 
L 51.59375 15.296875 
z
" id="Apercu-78"/>
      <path d="M 12 6.796875 
Q 5.40625 14.5 5.40625 25.203125 
Q 5.40625 35.90625 12.046875 43.546875 
Q 18.703125 51.203125 29.59375 51.203125 
Q 40.5 51.203125 47.140625 43.546875 
Q 53.796875 35.90625 53.796875 25.203125 
Q 53.796875 14.5 47.140625 6.84375 
Q 40.5 -0.796875 29.59375 -0.796875 
Q 18.703125 -0.796875 12 6.796875 
z
M 18.09375 38.09375 
Q 14 32.703125 14 25.203125 
Q 14 17.703125 18.140625 12.25 
Q 22.296875 6.796875 29.59375 6.796875 
Q 36.90625 6.796875 41.046875 12.25 
Q 45.203125 17.703125 45.203125 25.203125 
Q 45.203125 32.703125 41.046875 38.140625 
Q 36.90625 43.59375 29.59375 43.59375 
Q 22.296875 43.59375 18.09375 38.09375 
z
" id="Apercu-111"/>
      <path d="M 39.296875 49.703125 
L 37.59375 42.203125 
Q 34.796875 43.59375 31.703125 43.59375 
Q 26 43.59375 21.796875 37.140625 
Q 17.59375 30.703125 17.59375 19.09375 
L 17.59375 0 
L 9.203125 0 
L 9.203125 50.40625 
L 17.59375 50.40625 
L 17.59375 41.796875 
Q 19.796875 46 24 48.59375 
Q 28.203125 51.203125 32.40625 51.203125 
Q 36.5 51.203125 39.296875 49.703125 
z
" id="Apercu-114"/>
      <path d="M 77.40625 35.5 
L 77.40625 0 
L 69 0 
L 69 33.703125 
Q 69 43.59375 60.90625 43.59375 
Q 55.203125 43.59375 51.34375 37.4375 
Q 47.5 31.296875 47.5 20.703125 
L 47.5 0 
L 39.09375 0 
L 39.09375 33.703125 
Q 39.09375 43.59375 31 43.59375 
Q 25.296875 43.59375 21.4375 37.4375 
Q 17.59375 31.296875 17.59375 20.703125 
L 17.59375 0 
L 9.203125 0 
L 9.203125 50.40625 
L 17.59375 50.40625 
L 17.59375 41.09375 
Q 22.703125 51.203125 33.296875 51.203125 
Q 38.5 51.203125 42.046875 48.453125 
Q 45.59375 45.703125 46.796875 40.703125 
Q 52.40625 51.203125 63.203125 51.203125 
Q 70 51.203125 73.703125 47.046875 
Q 77.40625 42.90625 77.40625 35.5 
z
" id="Apercu-109"/>
      <path d="M 14.203125 14.5 
Q 14.203125 10.90625 16.34375 8.84375 
Q 18.5 6.796875 22.5 6.796875 
Q 28.203125 6.796875 32.390625 10.546875 
Q 36.59375 14.296875 36.59375 22.203125 
L 36.59375 23.40625 
L 27.59375 23.40625 
Q 21.203125 23.40625 17.703125 21.09375 
Q 14.203125 18.796875 14.203125 14.5 
z
M 45 32.203125 
L 45 0 
L 38.40625 0 
L 37 7.09375 
Q 31.5 -0.796875 21.203125 -0.796875 
Q 14.40625 -0.796875 10 3 
Q 5.59375 6.796875 5.59375 14.5 
Q 5.59375 22.5 11.6875 26.75 
Q 17.796875 31 28.40625 31 
L 36.59375 31 
L 36.59375 33.203125 
Q 36.59375 43.59375 25.59375 43.59375 
Q 21.59375 43.59375 18.75 41.5 
Q 15.90625 39.40625 15.09375 35.703125 
L 7.703125 37.40625 
Q 8.703125 43.796875 13.59375 47.5 
Q 18.5 51.203125 25.59375 51.203125 
Q 34.40625 51.203125 39.703125 46.5 
Q 45 41.796875 45 32.203125 
z
" id="Apercu-97"/>
      <path d="M 9 70.796875 
L 17.40625 70.796875 
L 17.40625 0 
L 9 0 
z
" id="Apercu-108"/>
      <path d="M 9.296875 50.40625 
L 17.703125 50.40625 
L 17.703125 0 
L 9.296875 0 
z
M 7.203125 64.40625 
Q 7.203125 67.09375 9 68.9375 
Q 10.796875 70.796875 13.5 70.796875 
Q 16.203125 70.796875 18 68.9375 
Q 19.796875 67.09375 19.796875 64.40625 
Q 19.796875 61.796875 18 60 
Q 16.203125 58.203125 13.5 58.203125 
Q 10.796875 58.203125 9 60 
Q 7.203125 61.796875 7.203125 64.40625 
z
" id="Apercu-105"/>
      <path d="M 6.296875 42.796875 
L 6.296875 50.40625 
L 40.09375 50.40625 
L 40.09375 46.796875 
L 16.203125 7.59375 
L 41 7.59375 
L 41 0 
L 5 0 
L 5 3.59375 
L 28.796875 42.796875 
z
" id="Apercu-122"/>
      <path d="M 51 27.296875 
L 51 23.40625 
L 14 23.40625 
Q 14.40625 16 18.046875 11.390625 
Q 21.703125 6.796875 28.203125 6.796875 
Q 33.5 6.796875 36.75 9.140625 
Q 40 11.5 42.203125 16.40625 
L 49.59375 13.203125 
Q 46.09375 5.796875 41.046875 2.5 
Q 36 -0.796875 28.203125 -0.796875 
Q 17.296875 -0.796875 11.34375 6.75 
Q 5.40625 14.296875 5.40625 25.1875 
Q 5.40625 36.09375 11.34375 43.640625 
Q 17.296875 51.203125 28.203125 51.203125 
Q 38.90625 51.203125 44.953125 44.25 
Q 51 37.296875 51 27.296875 
z
M 28.203125 43.59375 
Q 22.59375 43.59375 19.140625 40.1875 
Q 15.703125 36.796875 14.5 31 
L 42.203125 31 
Q 41 36.703125 37.5 40.140625 
Q 34 43.59375 28.203125 43.59375 
z
" id="Apercu-101"/>
      <path d="M 27.796875 51.203125 
Q 32.296875 51.203125 36.6875 49 
Q 41.09375 46.796875 42.5 44.40625 
L 42.5 70.796875 
L 50.90625 70.796875 
L 50.90625 0 
L 42.5 0 
L 42.5 6.203125 
Q 40.59375 3.296875 36.4375 1.25 
Q 32.296875 -0.796875 27.796875 -0.796875 
Q 17 -0.796875 11.203125 6.34375 
Q 5.40625 13.5 5.40625 25.203125 
Q 5.40625 36.90625 11.203125 44.046875 
Q 17 51.203125 27.796875 51.203125 
z
M 28.59375 6.796875 
Q 35.40625 6.796875 39.296875 11.890625 
Q 43.203125 17 43.203125 25.203125 
Q 43.203125 33.40625 39.296875 38.5 
Q 35.40625 43.59375 28.59375 43.59375 
Q 22 43.59375 18 38.5 
Q 14 33.40625 14 25.203125 
Q 14 17 18 11.890625 
Q 22 6.796875 28.59375 6.796875 
z
" id="Apercu-100"/>
      <path id="Apercu-32"/>
      <path d="M 1.5 61.59375 
L 1.5 70 
L 50.703125 70 
L 50.703125 61.59375 
L 30.5 61.59375 
L 30.5 0 
L 21.703125 0 
L 21.703125 61.59375 
z
" id="Apercu-84"/>
      <path d="M 23.59375 51.203125 
Q 32.796875 51.203125 38.203125 43.5 
L 32.5 38.59375 
Q 27.90625 43.59375 23.296875 43.59375 
Q 20.703125 43.59375 18.953125 41.890625 
Q 17.203125 40.203125 17.203125 37.203125 
Q 17.203125 34.703125 19.59375 32.890625 
Q 22 31.09375 25.453125 29.75 
Q 28.90625 28.40625 32.34375 26.796875 
Q 35.796875 25.203125 38.1875 22.25 
Q 40.59375 19.296875 40.59375 15.203125 
Q 40.59375 7.703125 36.09375 3.453125 
Q 31.59375 -0.796875 23.90625 -0.796875 
Q 16.796875 -0.796875 12.046875 3.09375 
Q 7.296875 7 5.09375 12.796875 
L 12.203125 16.703125 
Q 16.203125 6.796875 23.90625 6.796875 
Q 32 6.796875 32 14.703125 
Q 32 17.203125 29.59375 19 
Q 27.203125 20.796875 23.796875 22.046875 
Q 20.40625 23.296875 17 24.890625 
Q 13.59375 26.5 11.1875 29.640625 
Q 8.796875 32.796875 8.796875 37.296875 
Q 8.796875 43.296875 12.84375 47.25 
Q 16.90625 51.203125 23.59375 51.203125 
z
" id="Apercu-115"/>
      <path d="M 9.203125 70.796875 
L 17.59375 70.796875 
L 17.59375 29.296875 
L 37.203125 50.40625 
L 48 50.40625 
L 26.59375 27.296875 
L 49.59375 0 
L 38.90625 0 
L 17.59375 25.296875 
L 17.59375 0 
L 9.203125 0 
z
" id="Apercu-107"/>
      <path d="M 44 59.59375 
L 36.90625 55 
Q 34.5 59.296875 31.890625 60.84375 
Q 29.296875 62.40625 25.796875 62.40625 
Q 22.203125 62.40625 19.796875 59.796875 
Q 17.40625 57.203125 17.40625 53.703125 
Q 17.40625 51.203125 18.296875 49.296875 
Q 19.203125 47.40625 21.546875 45.65625 
Q 23.90625 43.90625 25.5 43 
Q 27.09375 42.09375 30.90625 40.203125 
Q 33.90625 38.703125 35.75 37.640625 
Q 37.59375 36.59375 40.09375 34.6875 
Q 42.59375 32.796875 44.046875 30.890625 
Q 45.5 29 46.546875 26.203125 
Q 47.59375 23.40625 47.59375 20.09375 
Q 47.59375 11.703125 42.203125 5.796875 
Q 36.203125 -0.796875 26.59375 -0.796875 
Q 18.09375 -0.796875 11.9375 4.5 
Q 5.796875 9.796875 4 18.09375 
L 11.59375 22.703125 
Q 13.59375 15.59375 17 11.59375 
Q 20.40625 7.59375 26.59375 7.59375 
Q 32.703125 7.59375 36.09375 11.59375 
Q 38.796875 14.90625 38.796875 19.90625 
Q 38.796875 24.5 35.34375 27.5 
Q 31.90625 30.5 25.59375 33.5 
Q 21.5 35.40625 19 36.90625 
Q 16.5 38.40625 13.796875 40.75 
Q 11.09375 43.09375 9.84375 46.09375 
Q 8.59375 49.09375 8.59375 53 
Q 8.59375 60.59375 13.6875 65.6875 
Q 18.796875 70.796875 25.796875 70.796875 
Q 32.796875 70.796875 37 67.890625 
Q 41.203125 65 44 59.59375 
z
" id="Apercu-83"/>
      <path d="M 42.09375 16.09375 
L 49.40625 13.09375 
Q 43.296875 -0.796875 28.296875 -0.796875 
Q 17.296875 -0.796875 11.34375 6.75 
Q 5.40625 14.296875 5.40625 25.1875 
Q 5.40625 36.09375 11.34375 43.640625 
Q 17.296875 51.203125 28.296875 51.203125 
Q 43.296875 51.203125 49.40625 37.296875 
L 42.09375 34.296875 
Q 38.09375 43.59375 28.296875 43.59375 
Q 21.296875 43.59375 17.640625 38.4375 
Q 14 33.296875 14 25.1875 
Q 14 17.09375 17.640625 11.9375 
Q 21.296875 6.796875 28.296875 6.796875 
Q 38.09375 6.796875 42.09375 16.09375 
z
" id="Apercu-99"/>
     </defs>
     <g style="opacity:0.75;" transform="translate(20.603125 452.987344)rotate(-90)scale(0.14 -0.14)">
      <use xlink:href="#Apercu-78"/>
      <use x="70.099991" xlink:href="#Apercu-111"/>
      <use x="129.299988" xlink:href="#Apercu-114"/>
      <use x="170.599976" xlink:href="#Apercu-109"/>
      <use x="256.799957" xlink:href="#Apercu-97"/>
      <use x="308.599945" xlink:href="#Apercu-108"/>
      <use x="334.368683" xlink:href="#Apercu-105"/>
      <use x="361.353043" xlink:href="#Apercu-122"/>
      <use x="406.953033" xlink:href="#Apercu-101"/>
      <use x="462.953018" xlink:href="#Apercu-100"/>
      <use x="523.053009" xlink:href="#Apercu-32"/>
      <use x="549.852997" xlink:href="#Apercu-84"/>
      <use x="602.052994" xlink:href="#Apercu-97"/>
      <use x="653.852982" xlink:href="#Apercu-115"/>
      <use x="699.937347" xlink:href="#Apercu-107"/>
      <use x="751.037338" xlink:href="#Apercu-32"/>
      <use x="777.837326" xlink:href="#Apercu-83"/>
      <use x="830.137314" xlink:href="#Apercu-99"/>
      <use x="883.937302" xlink:href="#Apercu-111"/>
      <use x="943.137299" xlink:href="#Apercu-114"/>
      <use x="984.437286" xlink:href="#Apercu-101"/>
     </g>
    </g>
   </g>
   <g id="line2d_35">
    <path clip-path="url(#pe3b25edd8f)" d="M 59.824528 330.201238 
L 96.469811 340.2432 
L 133.115094 332.879094 
L 169.760377 382.084709 
L 206.40566 318.736664 
L 243.050943 326.268136 
L 279.696226 401.750219 
L 316.341509 507.358189 
L 352.986792 380.411049 
L 389.632075 382.168392 
L 426.277358 461.834626 
" style="fill:none;stroke:#000004;"/>
    <defs>
     <path d="M 0 1.75 
C 0.464105 1.75 0.909265 1.565609 1.237437 1.237437 
C 1.565609 0.909265 1.75 0.464105 1.75 0 
C 1.75 -0.464105 1.565609 -0.909265 1.237437 -1.237437 
C 0.909265 -1.565609 0.464105 -1.75 0 -1.75 
C -0.464105 -1.75 -0.909265 -1.565609 -1.237437 -1.237437 
C -1.565609 -0.909265 -1.75 -0.464105 -1.75 0 
C -1.75 0.464105 -1.565609 0.909265 -1.237437 1.237437 
C -0.909265 1.565609 -0.464105 1.75 0 1.75 
z
" id="m0508c8dfc6" style="stroke:#000004;"/>
    </defs>
    <g clip-path="url(#pe3b25edd8f)">
     <use style="fill:#000004;stroke:#000004;" x="59.824528" xlink:href="#m0508c8dfc6" y="330.201238"/>
     <use style="fill:#000004;stroke:#000004;" x="96.469811" xlink:href="#m0508c8dfc6" y="340.2432"/>
     <use style="fill:#000004;stroke:#000004;" x="133.115094" xlink:href="#m0508c8dfc6" y="332.879094"/>
     <use style="fill:#000004;stroke:#000004;" x="169.760377" xlink:href="#m0508c8dfc6" y="382.084709"/>
     <use style="fill:#000004;stroke:#000004;" x="206.40566" xlink:href="#m0508c8dfc6" y="318.736664"/>
     <use style="fill:#000004;stroke:#000004;" x="243.050943" xlink:href="#m0508c8dfc6" y="326.268136"/>
     <use style="fill:#000004;stroke:#000004;" x="279.696226" xlink:href="#m0508c8dfc6" y="401.750219"/>
     <use style="fill:#000004;stroke:#000004;" x="316.341509" xlink:href="#m0508c8dfc6" y="507.358189"/>
     <use style="fill:#000004;stroke:#000004;" x="352.986792" xlink:href="#m0508c8dfc6" y="380.411049"/>
     <use style="fill:#000004;stroke:#000004;" x="389.632075" xlink:href="#m0508c8dfc6" y="382.168392"/>
     <use style="fill:#000004;stroke:#000004;" x="426.277358" xlink:href="#m0508c8dfc6" y="461.834626"/>
    </g>
   </g>
   <g id="line2d_36">
    <path clip-path="url(#pe3b25edd8f)" d="M 59.824528 174.801872 
L 96.469811 188.525887 
L 133.115094 176.475532 
L 169.760377 281.246672 
L 206.40566 177.144996 
L 243.050943 174.801872 
L 279.696226 241.078823 
L 316.341509 328.778626 
L 352.986792 240.409358 
L 389.632075 230.032664 
L 426.277358 338.820589 
" style="fill:none;stroke:#3b0f70;"/>
    <defs>
     <path d="M -0.49999 0.49999 
L 0.50001 0.49999 
L 0.50001 -0.50001 
L -0.49999 -0.50001 
z
" id="meb3a9076a3"/>
    </defs>
    <g clip-path="url(#pe3b25edd8f)">
     <use style="fill:#3b0f70;" x="59.824528" xlink:href="#meb3a9076a3" y="174.801872"/>
     <use style="fill:#3b0f70;" x="96.469811" xlink:href="#meb3a9076a3" y="188.525887"/>
     <use style="fill:#3b0f70;" x="133.115094" xlink:href="#meb3a9076a3" y="176.475532"/>
     <use style="fill:#3b0f70;" x="169.760377" xlink:href="#meb3a9076a3" y="281.246672"/>
     <use style="fill:#3b0f70;" x="206.40566" xlink:href="#meb3a9076a3" y="177.144996"/>
     <use style="fill:#3b0f70;" x="243.050943" xlink:href="#meb3a9076a3" y="174.801872"/>
     <use style="fill:#3b0f70;" x="279.696226" xlink:href="#meb3a9076a3" y="241.078823"/>
     <use style="fill:#3b0f70;" x="316.341509" xlink:href="#meb3a9076a3" y="328.778626"/>
     <use style="fill:#3b0f70;" x="352.986792" xlink:href="#meb3a9076a3" y="240.409358"/>
     <use style="fill:#3b0f70;" x="389.632075" xlink:href="#meb3a9076a3" y="230.032664"/>
     <use style="fill:#3b0f70;" x="426.277358" xlink:href="#meb3a9076a3" y="338.820589"/>
    </g>
   </g>
   <g id="line2d_37">
    <path clip-path="url(#pe3b25edd8f)" d="M 59.824528 318.736664 
L 96.469811 334.218023 
L 133.115094 281.246672 
L 169.760377 454.052106 
L 206.40566 319.991909 
L 243.050943 320.242958 
L 279.696226 435.725525 
L 316.341509 301.581645 
L 352.986792 302.334792 
L 389.632075 312.79517 
L 426.277358 391.038792 
" style="fill:none;stroke:#8c2981;"/>
    <defs>
     <path d="M 0 3.5 
C 0.928211 3.5 1.81853 3.131218 2.474874 2.474874 
C 3.131218 1.81853 3.5 0.928211 3.5 0 
C 3.5 -0.928211 3.131218 -1.81853 2.474874 -2.474874 
C 1.81853 -3.131218 0.928211 -3.5 0 -3.5 
C -0.928211 -3.5 -1.81853 -3.131218 -2.474874 -2.474874 
C -3.131218 -1.81853 -3.5 -0.928211 -3.5 0 
C -3.5 0.928211 -3.131218 1.81853 -2.474874 2.474874 
C -1.81853 3.131218 -0.928211 3.5 0 3.5 
z
" id="m0d0d7d0a97" style="stroke:#8c2981;"/>
    </defs>
    <g clip-path="url(#pe3b25edd8f)">
     <use style="fill:#8c2981;stroke:#8c2981;" x="59.824528" xlink:href="#m0d0d7d0a97" y="318.736664"/>
     <use style="fill:#8c2981;stroke:#8c2981;" x="96.469811" xlink:href="#m0d0d7d0a97" y="334.218023"/>
     <use style="fill:#8c2981;stroke:#8c2981;" x="133.115094" xlink:href="#m0d0d7d0a97" y="281.246672"/>
     <use style="fill:#8c2981;stroke:#8c2981;" x="169.760377" xlink:href="#m0d0d7d0a97" y="454.052106"/>
     <use style="fill:#8c2981;stroke:#8c2981;" x="206.40566" xlink:href="#m0d0d7d0a97" y="319.991909"/>
     <use style="fill:#8c2981;stroke:#8c2981;" x="243.050943" xlink:href="#m0d0d7d0a97" y="320.242958"/>
     <use style="fill:#8c2981;stroke:#8c2981;" x="279.696226" xlink:href="#m0d0d7d0a97" y="435.725525"/>
     <use style="fill:#8c2981;stroke:#8c2981;" x="316.341509" xlink:href="#m0d0d7d0a97" y="301.581645"/>
     <use style="fill:#8c2981;stroke:#8c2981;" x="352.986792" xlink:href="#m0d0d7d0a97" y="302.334792"/>
     <use style="fill:#8c2981;stroke:#8c2981;" x="389.632075" xlink:href="#m0d0d7d0a97" y="312.79517"/>
     <use style="fill:#8c2981;stroke:#8c2981;" x="426.277358" xlink:href="#m0d0d7d0a97" y="391.038792"/>
    </g>
   </g>
   <g id="line2d_38">
    <path clip-path="url(#pe3b25edd8f)" d="M 59.824528 285.514506 
L 96.469811 288.945509 
L 133.115094 282.083502 
L 169.760377 322.167668 
L 206.40566 280.158792 
L 243.050943 284.25926 
L 279.696226 330.703336 
L 316.341509 405.599638 
L 352.986792 351.373042 
L 389.632075 351.373042 
L 426.277358 387.440423 
" style="fill:none;stroke:#de4968;"/>
    <defs>
     <path d="M -0 3.5 
L 3.5 -3.5 
L -3.5 -3.5 
z
" id="m8dc1b1eec6" style="stroke:#de4968;stroke-linejoin:miter;"/>
    </defs>
    <g clip-path="url(#pe3b25edd8f)">
     <use style="fill:#de4968;stroke:#de4968;stroke-linejoin:miter;" x="59.824528" xlink:href="#m8dc1b1eec6" y="285.514506"/>
     <use style="fill:#de4968;stroke:#de4968;stroke-linejoin:miter;" x="96.469811" xlink:href="#m8dc1b1eec6" y="288.945509"/>
     <use style="fill:#de4968;stroke:#de4968;stroke-linejoin:miter;" x="133.115094" xlink:href="#m8dc1b1eec6" y="282.083502"/>
     <use style="fill:#de4968;stroke:#de4968;stroke-linejoin:miter;" x="169.760377" xlink:href="#m8dc1b1eec6" y="322.167668"/>
     <use style="fill:#de4968;stroke:#de4968;stroke-linejoin:miter;" x="206.40566" xlink:href="#m8dc1b1eec6" y="280.158792"/>
     <use style="fill:#de4968;stroke:#de4968;stroke-linejoin:miter;" x="243.050943" xlink:href="#m8dc1b1eec6" y="284.25926"/>
     <use style="fill:#de4968;stroke:#de4968;stroke-linejoin:miter;" x="279.696226" xlink:href="#m8dc1b1eec6" y="330.703336"/>
     <use style="fill:#de4968;stroke:#de4968;stroke-linejoin:miter;" x="316.341509" xlink:href="#m8dc1b1eec6" y="405.599638"/>
     <use style="fill:#de4968;stroke:#de4968;stroke-linejoin:miter;" x="352.986792" xlink:href="#m8dc1b1eec6" y="351.373042"/>
     <use style="fill:#de4968;stroke:#de4968;stroke-linejoin:miter;" x="389.632075" xlink:href="#m8dc1b1eec6" y="351.373042"/>
     <use style="fill:#de4968;stroke:#de4968;stroke-linejoin:miter;" x="426.277358" xlink:href="#m8dc1b1eec6" y="387.440423"/>
    </g>
   </g>
   <g id="line2d_39">
    <path clip-path="url(#pe3b25edd8f)" d="M 59.824528 381.498928 
L 96.469811 397.9008 
L 133.115094 373.046943 
L 169.760377 440.997555 
L 206.40566 381.164196 
L 243.050943 381.666294 
L 279.696226 434.637645 
L 316.341509 419.742068 
L 352.986792 393.381917 
L 389.632075 393.884015 
L 426.277358 452.294762 
" style="fill:none;stroke:#fe9f6d;"/>
    <defs>
     <path d="M -3.5 3.5 
L 3.5 3.5 
L 3.5 -3.5 
L -3.5 -3.5 
z
" id="m4896a62f5a" style="stroke:#fe9f6d;stroke-linejoin:miter;"/>
    </defs>
    <g clip-path="url(#pe3b25edd8f)">
     <use style="fill:#fe9f6d;stroke:#fe9f6d;stroke-linejoin:miter;" x="59.824528" xlink:href="#m4896a62f5a" y="381.498928"/>
     <use style="fill:#fe9f6d;stroke:#fe9f6d;stroke-linejoin:miter;" x="96.469811" xlink:href="#m4896a62f5a" y="397.9008"/>
     <use style="fill:#fe9f6d;stroke:#fe9f6d;stroke-linejoin:miter;" x="133.115094" xlink:href="#m4896a62f5a" y="373.046943"/>
     <use style="fill:#fe9f6d;stroke:#fe9f6d;stroke-linejoin:miter;" x="169.760377" xlink:href="#m4896a62f5a" y="440.997555"/>
     <use style="fill:#fe9f6d;stroke:#fe9f6d;stroke-linejoin:miter;" x="206.40566" xlink:href="#m4896a62f5a" y="381.164196"/>
     <use style="fill:#fe9f6d;stroke:#fe9f6d;stroke-linejoin:miter;" x="243.050943" xlink:href="#m4896a62f5a" y="381.666294"/>
     <use style="fill:#fe9f6d;stroke:#fe9f6d;stroke-linejoin:miter;" x="279.696226" xlink:href="#m4896a62f5a" y="434.637645"/>
     <use style="fill:#fe9f6d;stroke:#fe9f6d;stroke-linejoin:miter;" x="316.341509" xlink:href="#m4896a62f5a" y="419.742068"/>
     <use style="fill:#fe9f6d;stroke:#fe9f6d;stroke-linejoin:miter;" x="352.986792" xlink:href="#m4896a62f5a" y="393.381917"/>
     <use style="fill:#fe9f6d;stroke:#fe9f6d;stroke-linejoin:miter;" x="389.632075" xlink:href="#m4896a62f5a" y="393.884015"/>
     <use style="fill:#fe9f6d;stroke:#fe9f6d;stroke-linejoin:miter;" x="426.277358" xlink:href="#m4896a62f5a" y="452.294762"/>
    </g>
   </g>
   <g id="line2d_40">
    <path clip-path="url(#pe3b25edd8f)" d="M 56.16 560.078491 
L 444.6 560.078491 
" style="fill:none;stroke:#000000;stroke-opacity:0.7;stroke-width:1.3;"/>
   </g>
   <g id="patch_3">
    <path d="M 56.16 601.92 
L 56.16 158.4 
" style="fill:none;stroke:#f0f0f0;stroke-linecap:square;stroke-linejoin:miter;stroke-width:3;"/>
   </g>
   <g id="patch_4">
    <path d="M 444.6 601.92 
L 444.6 158.4 
" style="fill:none;stroke:#f0f0f0;stroke-linecap:square;stroke-linejoin:miter;stroke-width:3;"/>
   </g>
   <g id="patch_5">
    <path d="M 56.16 601.92 
L 444.6 601.92 
" style="fill:none;stroke:#f0f0f0;stroke-linecap:square;stroke-linejoin:miter;stroke-width:3;"/>
   </g>
   <g id="patch_6">
    <path d="M 56.16 158.4 
L 444.6 158.4 
" style="fill:none;stroke:#f0f0f0;stroke-linecap:square;stroke-linejoin:miter;stroke-width:3;"/>
   </g>
   <g id="patch_7">
    <path d="M 0 792 
L 468 792 
L 468 769.777778 
L 0 769.777778 
z
" style="fill:#808080;"/>
   </g>
   <g id="text_19">
    <!-- OSU-SlaTe -->
    <defs>
     <path d="M 50.90625 25.90625 
L 50.90625 44 
Q 50.90625 52.40625 44.75 58.40625 
Q 38.59375 64.40625 30 64.40625 
Q 21.296875 64.40625 15.09375 58.40625 
Q 8.90625 52.40625 8.90625 44 
L 8.90625 25.90625 
Q 8.90625 17.5 15.09375 11.453125 
Q 21.296875 5.40625 30 5.40625 
Q 38.59375 5.40625 44.75 11.453125 
Q 50.90625 17.5 50.90625 25.90625 
z
M 57.703125 43.203125 
L 57.703125 26.59375 
Q 57.703125 15.203125 49.59375 7.09375 
Q 41.5 -1 30 -1 
Q 18.40625 -1 10.296875 7.09375 
Q 2.203125 15.203125 2.203125 26.59375 
L 2.203125 43.203125 
Q 2.203125 54.59375 10.296875 62.6875 
Q 18.40625 70.796875 30 70.796875 
Q 41.5 70.796875 49.59375 62.6875 
Q 57.703125 54.59375 57.703125 43.203125 
z
M 38.59375 29.40625 
L 41.40625 29.40625 
Q 42.40625 29.40625 42.90625 28.84375 
Q 43.40625 28.296875 43.40625 27.59375 
Q 43.40625 21.59375 39.796875 17.9375 
Q 36.203125 14.296875 30.40625 14.296875 
Q 24.40625 14.296875 20.75 17.9375 
Q 17.09375 21.59375 17.09375 27.09375 
L 17.09375 43.40625 
Q 17.09375 48.703125 20.75 52.390625 
Q 24.40625 56.09375 30.40625 56.09375 
Q 35.90625 56.09375 39.40625 52.25 
Q 42.90625 48.40625 42.90625 42.296875 
Q 42.90625 41.59375 42.40625 41.046875 
Q 41.90625 40.5 40.90625 40.5 
L 38.09375 40.5 
Q 37.09375 40.5 36.546875 41.046875 
Q 36 41.59375 36 42.296875 
Q 36 45.203125 34.390625 47.046875 
Q 32.796875 48.90625 30.40625 48.90625 
Q 27.703125 48.90625 25.796875 46.90625 
Q 23.90625 44.90625 23.90625 42.203125 
L 23.90625 28.203125 
Q 23.90625 25.59375 25.796875 23.59375 
Q 27.703125 21.59375 30.40625 21.59375 
Q 32.90625 21.59375 34.703125 23.1875 
Q 36.5 24.796875 36.5 27.59375 
Q 36.5 28.296875 37.046875 28.84375 
Q 37.59375 29.40625 38.59375 29.40625 
z
" id="DecimaMonoPro-169"/>
     <path d="M 49.90625 52.59375 
L 49.90625 17.40625 
Q 49.90625 10.09375 44.453125 4.546875 
Q 39 -1 30.09375 -1 
Q 21 -1 15.59375 4.546875 
Q 10.203125 10.09375 10.203125 17.5 
L 10.203125 52.59375 
Q 10.203125 60 15.59375 65.5 
Q 21 71 30.09375 71 
Q 39 71 44.453125 65.453125 
Q 49.90625 59.90625 49.90625 52.59375 
z
M 41.40625 17.296875 
L 41.40625 52.703125 
Q 41.40625 56.90625 38.34375 60 
Q 35.296875 63.09375 30.09375 63.09375 
Q 24.796875 63.09375 21.75 60 
Q 18.703125 56.90625 18.703125 52.703125 
L 18.703125 17.40625 
Q 18.703125 13.09375 21.75 10 
Q 24.796875 6.90625 30.09375 6.90625 
Q 35.296875 6.90625 38.34375 10 
Q 41.40625 13.09375 41.40625 17.296875 
z
" id="DecimaMonoPro-79"/>
     <path d="M 30 -1 
Q 20.703125 -1 15.390625 4.5 
Q 10.09375 10 10.09375 18.09375 
Q 10.09375 18.90625 10.6875 19.5 
Q 11.296875 20.09375 12.40625 20.09375 
L 16.203125 20.09375 
Q 17.296875 20.09375 17.890625 19.5 
Q 18.5 18.90625 18.5 18.09375 
Q 18.5 13.296875 21.546875 10.09375 
Q 24.59375 6.90625 30 6.90625 
Q 35 6.90625 38.09375 9.75 
Q 41.203125 12.59375 41.203125 16.59375 
Q 41.203125 21.703125 38.09375 25.25 
Q 35 28.796875 30.59375 31.046875 
Q 26.203125 33.296875 21.75 35.75 
Q 17.296875 38.203125 14.1875 42.453125 
Q 11.09375 46.703125 11.09375 52.703125 
Q 11.09375 60.5 16.640625 65.75 
Q 22.203125 71 30.09375 71 
Q 38.5 71 43.703125 65.5 
Q 48.90625 60 48.90625 54.40625 
Q 48.90625 53.59375 48.296875 53 
Q 47.703125 52.40625 46.59375 52.40625 
L 42.796875 52.40625 
Q 40.703125 52.40625 40.5 54.40625 
Q 40.203125 57.40625 37.25 60.15625 
Q 34.296875 62.90625 30.09375 62.90625 
Q 25.703125 62.90625 22.640625 60.09375 
Q 19.59375 57.296875 19.59375 53.203125 
Q 19.59375 49.203125 22.6875 46.25 
Q 25.796875 43.296875 30.25 41.046875 
Q 34.703125 38.796875 39.140625 36.140625 
Q 43.59375 33.5 46.6875 28.75 
Q 49.796875 24 49.796875 17.40625 
Q 49.796875 10.09375 44.4375 4.546875 
Q 39.09375 -1 30 -1 
z
" id="DecimaMonoPro-83"/>
     <path d="M 49.59375 68 
L 49.59375 17.40625 
Q 49.59375 9.796875 44.1875 4.390625 
Q 38.796875 -1 30 -1 
Q 21.09375 -1 15.640625 4.390625 
Q 10.203125 9.796875 10.203125 17.5 
L 10.203125 68 
Q 10.203125 68.796875 10.796875 69.390625 
Q 11.40625 70 12.5 70 
L 16.296875 70 
Q 17.40625 70 18 69.390625 
Q 18.59375 68.796875 18.59375 68 
L 18.59375 17.40625 
Q 18.59375 13.203125 21.59375 10.046875 
Q 24.59375 6.90625 30 6.90625 
Q 35.203125 6.90625 38.203125 10.046875 
Q 41.203125 13.203125 41.203125 17.296875 
L 41.203125 68 
Q 41.203125 68.796875 41.796875 69.390625 
Q 42.40625 70 43.5 70 
L 47.296875 70 
Q 48.40625 70 49 69.390625 
Q 49.59375 68.796875 49.59375 68 
z
" id="DecimaMonoPro-85"/>
     <path d="M 19.59375 33.203125 
L 40.40625 33.203125 
Q 41.203125 33.203125 41.703125 32.703125 
Q 42.203125 32.203125 42.203125 31.40625 
L 42.203125 27.203125 
Q 42.203125 26.40625 41.703125 25.90625 
Q 41.203125 25.40625 40.40625 25.40625 
L 19.59375 25.40625 
Q 18.796875 25.40625 18.296875 25.90625 
Q 17.796875 26.40625 17.796875 27.203125 
L 17.796875 31.40625 
Q 17.796875 32.203125 18.296875 32.703125 
Q 18.796875 33.203125 19.59375 33.203125 
z
" id="DecimaMonoPro-45"/>
    </defs>
    <g style="fill:#ffffff;" transform="translate(9.36 784.8)scale(0.14 -0.14)">
     <use xlink:href="#DecimaMonoPro-169"/>
     <use x="59.999985" xlink:href="#DecimaMonoPro-79"/>
     <use x="119.999969" xlink:href="#DecimaMonoPro-83"/>
     <use x="179.999954" xlink:href="#DecimaMonoPro-85"/>
     <use x="239.999939" xlink:href="#DecimaMonoPro-45"/>
     <use x="299.999924" xlink:href="#DecimaMonoPro-83"/>
     <use x="359.999908" xlink:href="#DecimaMonoPro-108"/>
     <use x="419.999893" xlink:href="#DecimaMonoPro-97"/>
     <use x="479.999878" xlink:href="#DecimaMonoPro-84"/>
     <use x="539.999863" xlink:href="#DecimaMonoPro-101"/>
    </g>
   </g>
   <g id="legend_1">
    <g id="patch_8">
     <path d="M 65.96 594.92 
L 258.228125 594.92 
Q 261.028125 594.92 261.028125 592.12 
L 261.028125 493.389375 
Q 261.028125 490.589375 258.228125 490.589375 
L 65.96 490.589375 
Q 63.16 490.589375 63.16 493.389375 
L 63.16 592.12 
Q 63.16 594.92 65.96 594.92 
z
" style="fill:#f0f0f0;opacity:0.8;stroke:#cccccc;stroke-linejoin:miter;stroke-width:0.5;"/>
    </g>
    <g id="line2d_41">
     <path d="M 68.76 501.200938 
L 96.76 501.200938 
" style="fill:none;stroke:#000004;"/>
    </g>
    <g id="line2d_42">
     <g>
      <use style="fill:#000004;stroke:#000004;" x="82.76" xlink:href="#m0508c8dfc6" y="501.200938"/>
     </g>
    </g>
    <g id="text_20">
     <!-- Relation Extraction (F1) -->
     <defs>
      <path d="M 49.5 0 
L 29 33 
L 18.5 33 
L 18.5 0 
L 9.703125 0 
L 9.703125 70 
L 33 70 
Q 42.40625 70 48 65.09375 
Q 53.59375 60.203125 53.59375 51.5 
Q 53.59375 44.296875 49.75 39.640625 
Q 45.90625 35 39 33.59375 
L 59.90625 0 
z
M 33.203125 61.59375 
L 18.5 61.59375 
L 18.5 41.40625 
L 33.203125 41.40625 
Q 44.5 41.40625 44.5 51.5 
Q 44.5 61.59375 33.203125 61.59375 
z
" id="Apercu-82"/>
      <path d="M 2.5 42.796875 
L 2.5 50.40625 
L 11.203125 50.40625 
L 11.203125 65.5 
L 19.59375 70.796875 
L 19.59375 50.40625 
L 32.796875 50.40625 
L 32.796875 42.796875 
L 19.59375 42.796875 
L 19.59375 15.09375 
Q 19.59375 11.09375 21.34375 8.9375 
Q 23.09375 6.796875 26.296875 6.796875 
Q 29.59375 6.796875 32 8.40625 
L 34 1.09375 
Q 30.703125 -0.796875 25.796875 -0.796875 
Q 19.09375 -0.796875 15.140625 3.390625 
Q 11.203125 7.59375 11.203125 15.796875 
L 11.203125 42.796875 
z
" id="Apercu-116"/>
      <path d="M 49.09375 35.5 
L 49.09375 0 
L 40.703125 0 
L 40.703125 33.296875 
Q 40.703125 43.59375 32 43.59375 
Q 26.09375 43.59375 21.84375 37.390625 
Q 17.59375 31.203125 17.59375 21.09375 
L 17.59375 0 
L 9.203125 0 
L 9.203125 50.40625 
L 17.59375 50.40625 
L 17.59375 41.09375 
Q 23.296875 51.203125 34.296875 51.203125 
Q 41.203125 51.203125 45.140625 47.09375 
Q 49.09375 43 49.09375 35.5 
z
" id="Apercu-110"/>
      <path d="M 9.703125 70 
L 49.90625 70 
L 49.90625 61.59375 
L 18.5 61.59375 
L 18.5 41.5 
L 43.90625 41.5 
L 43.90625 33.09375 
L 18.5 33.09375 
L 18.5 8.40625 
L 50.90625 8.40625 
L 50.90625 0 
L 9.703125 0 
z
" id="Apercu-69"/>
      <path d="M 3.59375 50.40625 
L 13.09375 50.40625 
L 22.90625 34.40625 
L 32.703125 50.40625 
L 42.203125 50.40625 
L 27.59375 26.59375 
L 44 0 
L 34.5 0 
L 22.90625 18.90625 
L 11.296875 0 
L 1.796875 0 
L 18.203125 26.59375 
z
" id="Apercu-120"/>
      <path d="M 17.796875 75 
L 26.203125 75 
Q 15.703125 58.296875 15.703125 35 
Q 15.703125 11.703125 26.203125 -5 
L 17.796875 -5 
Q 7.09375 11.796875 7.09375 35 
Q 7.09375 58.203125 17.796875 75 
z
" id="Apercu-40"/>
      <path d="M 9.703125 70 
L 50.40625 70 
L 50.40625 61.59375 
L 18.5 61.59375 
L 18.5 40.703125 
L 44.40625 40.703125 
L 44.40625 32.296875 
L 18.5 32.296875 
L 18.5 0 
L 9.703125 0 
z
" id="Apercu-70"/>
      <path d="M 25.40625 70 
L 28.5 70 
L 28.5 0 
L 20.296875 0 
L 20.296875 57.40625 
L 7.40625 49.90625 
L 7.40625 59.09375 
z
" id="Apercu-49"/>
      <path d="M 3 75 
L 11.40625 75 
Q 22.09375 58.203125 22.09375 35 
Q 22.09375 11.796875 11.40625 -5 
L 3 -5 
Q 13.5 11.703125 13.5 35 
Q 13.5 58.296875 3 75 
z
" id="Apercu-41"/>
     </defs>
     <g style="opacity:0.75;" transform="translate(107.96 506.100937)scale(0.14 -0.14)">
      <use xlink:href="#Apercu-82"/>
      <use x="64.099991" xlink:href="#Apercu-101"/>
      <use x="120.099976" xlink:href="#Apercu-108"/>
      <use x="145.899963" xlink:href="#Apercu-97"/>
      <use x="197.699951" xlink:href="#Apercu-116"/>
      <use x="235.499939" xlink:href="#Apercu-105"/>
      <use x="262.499924" xlink:href="#Apercu-111"/>
      <use x="321.699921" xlink:href="#Apercu-110"/>
      <use x="379.399918" xlink:href="#Apercu-32"/>
      <use x="406.199905" xlink:href="#Apercu-69"/>
      <use x="462.799896" xlink:href="#Apercu-120"/>
      <use x="508.615509" xlink:href="#Apercu-116"/>
      <use x="546.415497" xlink:href="#Apercu-114"/>
      <use x="587.69986" xlink:href="#Apercu-97"/>
      <use x="639.499847" xlink:href="#Apercu-99"/>
      <use x="693.31546" xlink:href="#Apercu-116"/>
      <use x="731.115448" xlink:href="#Apercu-105"/>
      <use x="758.115433" xlink:href="#Apercu-111"/>
      <use x="817.31543" xlink:href="#Apercu-110"/>
      <use x="875.015427" xlink:href="#Apercu-32"/>
      <use x="901.815414" xlink:href="#Apercu-40"/>
      <use x="931.015411" xlink:href="#Apercu-70"/>
      <use x="984.815399" xlink:href="#Apercu-49"/>
      <use x="1022.41539" xlink:href="#Apercu-41"/>
     </g>
    </g>
    <g id="line2d_43">
     <path d="M 68.76 521.557813 
L 96.76 521.557813 
" style="fill:none;stroke:#3b0f70;"/>
    </g>
    <g id="line2d_44">
     <g>
      <use style="fill:#3b0f70;" x="82.76" xlink:href="#meb3a9076a3" y="521.557813"/>
     </g>
    </g>
    <g id="text_21">
     <!-- Sentence Polarity (Acc) -->
     <defs>
      <path d="M 34.09375 30 
L 18.5 30 
L 18.5 0 
L 9.703125 0 
L 9.703125 70 
L 34.09375 70 
Q 43.90625 70 49.40625 64.59375 
Q 54.90625 59.203125 54.90625 50 
Q 54.90625 40.796875 49.40625 35.390625 
Q 43.90625 30 34.09375 30 
z
M 34.59375 38.40625 
Q 40 38.40625 42.890625 41.40625 
Q 45.796875 44.40625 45.796875 50 
Q 45.796875 55.59375 42.890625 58.59375 
Q 40 61.59375 34.59375 61.59375 
L 18.5 61.59375 
L 18.5 38.40625 
z
" id="Apercu-80"/>
      <path d="M 36 50.40625 
L 44.796875 50.40625 
L 19.796875 -20.40625 
L 11.203125 -20.40625 
L 19.203125 2.09375 
L 1.5 50.40625 
L 10.703125 50.40625 
L 23.5 14 
z
" id="Apercu-121"/>
      <path d="M 25.40625 70 
L 33.796875 70 
L 58 0 
L 49.203125 0 
L 43 18.703125 
L 16.203125 18.703125 
L 10 0 
L 1.203125 0 
z
M 29.59375 58.59375 
L 19 27.09375 
L 40.203125 27.09375 
z
" id="Apercu-65"/>
     </defs>
     <g style="opacity:0.75;" transform="translate(107.96 526.457813)scale(0.14 -0.14)">
      <use xlink:href="#Apercu-83"/>
      <use x="52.299988" xlink:href="#Apercu-101"/>
      <use x="108.299973" xlink:href="#Apercu-110"/>
      <use x="165.999969" xlink:href="#Apercu-116"/>
      <use x="203.799957" xlink:href="#Apercu-101"/>
      <use x="259.799942" xlink:href="#Apercu-110"/>
      <use x="317.484314" xlink:href="#Apercu-99"/>
      <use x="371.284302" xlink:href="#Apercu-101"/>
      <use x="427.284286" xlink:href="#Apercu-32"/>
      <use x="454.084274" xlink:href="#Apercu-80"/>
      <use x="512.468643" xlink:href="#Apercu-111"/>
      <use x="571.66864" xlink:href="#Apercu-108"/>
      <use x="597.468628" xlink:href="#Apercu-97"/>
      <use x="649.252991" xlink:href="#Apercu-114"/>
      <use x="690.537354" xlink:href="#Apercu-105"/>
      <use x="717.537338" xlink:href="#Apercu-116"/>
      <use x="755.352951" xlink:href="#Apercu-121"/>
      <use x="801.352936" xlink:href="#Apercu-32"/>
      <use x="828.152924" xlink:href="#Apercu-40"/>
      <use x="857.352921" xlink:href="#Apercu-65"/>
      <use x="916.552917" xlink:href="#Apercu-99"/>
      <use x="970.352905" xlink:href="#Apercu-99"/>
      <use x="1024.152893" xlink:href="#Apercu-41"/>
     </g>
    </g>
    <g id="line2d_45">
     <path d="M 68.76 541.32625 
L 96.76 541.32625 
" style="fill:none;stroke:#8c2981;"/>
    </g>
    <g id="line2d_46">
     <g>
      <use style="fill:#8c2981;stroke:#8c2981;" x="82.76" xlink:href="#m0d0d7d0a97" y="541.32625"/>
     </g>
    </g>
    <g id="text_22">
     <!-- Sentiment (Acc) -->
     <g style="opacity:0.75;" transform="translate(107.96 546.22625)scale(0.14 -0.14)">
      <use xlink:href="#Apercu-83"/>
      <use x="52.299988" xlink:href="#Apercu-101"/>
      <use x="108.299973" xlink:href="#Apercu-110"/>
      <use x="165.999969" xlink:href="#Apercu-116"/>
      <use x="203.799957" xlink:href="#Apercu-105"/>
      <use x="230.784317" xlink:href="#Apercu-109"/>
      <use x="316.968674" xlink:href="#Apercu-101"/>
      <use x="372.968658" xlink:href="#Apercu-110"/>
      <use x="430.668655" xlink:href="#Apercu-116"/>
      <use x="468.468643" xlink:href="#Apercu-32"/>
      <use x="495.268631" xlink:href="#Apercu-40"/>
      <use x="524.468628" xlink:href="#Apercu-65"/>
      <use x="583.668625" xlink:href="#Apercu-99"/>
      <use x="637.468613" xlink:href="#Apercu-99"/>
      <use x="691.2686" xlink:href="#Apercu-41"/>
     </g>
    </g>
    <g id="line2d_47">
     <path d="M 68.76 561.683125 
L 96.76 561.683125 
" style="fill:none;stroke:#de4968;"/>
    </g>
    <g id="line2d_48">
     <g>
      <use style="fill:#de4968;stroke:#de4968;stroke-linejoin:miter;" x="82.76" xlink:href="#m8dc1b1eec6" y="561.683125"/>
     </g>
    </g>
    <g id="text_23">
     <!-- Subjectivity (Acc) -->
     <defs>
      <path d="M 8.59375 14.90625 
L 8.59375 50.40625 
L 17 50.40625 
L 17 17.09375 
Q 17 6.796875 25.703125 6.796875 
Q 31.59375 6.796875 35.84375 13 
Q 40.09375 19.203125 40.09375 29.296875 
L 40.09375 50.40625 
L 48.5 50.40625 
L 48.5 0 
L 40.09375 0 
L 40.09375 9.296875 
Q 34.40625 -0.796875 23.40625 -0.796875 
Q 16.5 -0.796875 12.546875 3.296875 
Q 8.59375 7.40625 8.59375 14.90625 
z
" id="Apercu-117"/>
      <path d="M 32.296875 -0.796875 
Q 27.796875 -0.796875 23.640625 1.25 
Q 19.5 3.296875 17.59375 6.203125 
L 17.59375 0 
L 9.203125 0 
L 9.203125 70.796875 
L 17.59375 70.796875 
L 17.59375 44.40625 
Q 19 46.796875 23.390625 49 
Q 27.796875 51.203125 32.296875 51.203125 
Q 43.09375 51.203125 48.890625 44.046875 
Q 54.703125 36.90625 54.703125 25.203125 
Q 54.703125 13.5 48.890625 6.34375 
Q 43.09375 -0.796875 32.296875 -0.796875 
z
M 31.5 43.59375 
Q 24.703125 43.59375 20.796875 38.5 
Q 16.90625 33.40625 16.90625 25.203125 
Q 16.90625 17 20.796875 11.890625 
Q 24.703125 6.796875 31.5 6.796875 
Q 38.09375 6.796875 42.09375 11.890625 
Q 46.09375 17 46.09375 25.203125 
Q 46.09375 33.40625 42.09375 38.5 
Q 38.09375 43.59375 31.5 43.59375 
z
" id="Apercu-98"/>
      <path d="M 2.5 -21.203125 
L 0.296875 -13.203125 
Q 5.09375 -11.90625 7.296875 -9.5 
Q 9.5 -7.09375 9.5 -1.796875 
L 9.5 50.40625 
L 17.90625 50.40625 
L 17.90625 -2.59375 
Q 17.90625 -10.296875 13.90625 -15.046875 
Q 9.90625 -19.796875 2.5 -21.203125 
z
M 7.203125 64.40625 
Q 7.203125 67.09375 9 68.9375 
Q 10.796875 70.796875 13.5 70.796875 
Q 16.203125 70.796875 18 68.9375 
Q 19.796875 67.09375 19.796875 64.40625 
Q 19.796875 61.796875 18 60 
Q 16.203125 58.203125 13.5 58.203125 
Q 10.796875 58.203125 9 60 
Q 7.203125 61.796875 7.203125 64.40625 
z
" id="Apercu-106"/>
      <path d="M 35.09375 50.40625 
L 43.703125 50.40625 
L 27.09375 0 
L 18.5 0 
L 1.90625 50.40625 
L 10.5 50.40625 
L 22.796875 10.703125 
z
" id="Apercu-118"/>
     </defs>
     <g style="opacity:0.75;" transform="translate(107.96 566.583125)scale(0.14 -0.14)">
      <use xlink:href="#Apercu-83"/>
      <use x="52.299988" xlink:href="#Apercu-117"/>
      <use x="109.98436" xlink:href="#Apercu-98"/>
      <use x="170.084351" xlink:href="#Apercu-106"/>
      <use x="197.084335" xlink:href="#Apercu-101"/>
      <use x="253.099945" xlink:href="#Apercu-99"/>
      <use x="306.915558" xlink:href="#Apercu-116"/>
      <use x="344.715546" xlink:href="#Apercu-105"/>
      <use x="371.731155" xlink:href="#Apercu-118"/>
      <use x="417.331146" xlink:href="#Apercu-105"/>
      <use x="444.331131" xlink:href="#Apercu-116"/>
      <use x="482.146744" xlink:href="#Apercu-121"/>
      <use x="528.146729" xlink:href="#Apercu-32"/>
      <use x="554.946716" xlink:href="#Apercu-40"/>
      <use x="584.146713" xlink:href="#Apercu-65"/>
      <use x="643.34671" xlink:href="#Apercu-99"/>
      <use x="697.146698" xlink:href="#Apercu-99"/>
      <use x="750.946686" xlink:href="#Apercu-41"/>
     </g>
    </g>
    <g id="line2d_49">
     <path d="M 68.76 581.563125 
L 96.76 581.563125 
" style="fill:none;stroke:#fe9f6d;"/>
    </g>
    <g id="line2d_50">
     <g>
      <use style="fill:#fe9f6d;stroke:#fe9f6d;stroke-linejoin:miter;" x="82.76" xlink:href="#m4896a62f5a" y="581.563125"/>
     </g>
    </g>
    <g id="text_24">
     <!-- SNLI (Acc) -->
     <defs>
      <path d="M 9.703125 70 
L 18.5 70 
L 18.5 8.40625 
L 50.296875 8.40625 
L 50.296875 0 
L 9.703125 0 
z
" id="Apercu-76"/>
      <path d="M 9.703125 70 
L 18.5 70 
L 18.5 0 
L 9.703125 0 
z
" id="Apercu-73"/>
     </defs>
     <g style="opacity:0.75;" transform="translate(107.96 586.463125)scale(0.14 -0.14)">
      <use xlink:href="#Apercu-83"/>
      <use x="52.299988" xlink:href="#Apercu-78"/>
      <use x="122.399979" xlink:href="#Apercu-76"/>
      <use x="174.499969" xlink:href="#Apercu-73"/>
      <use x="202.699966" xlink:href="#Apercu-32"/>
      <use x="229.499954" xlink:href="#Apercu-40"/>
      <use x="258.699951" xlink:href="#Apercu-65"/>
      <use x="317.899948" xlink:href="#Apercu-99"/>
      <use x="371.699936" xlink:href="#Apercu-99"/>
      <use x="425.499924" xlink:href="#Apercu-41"/>
     </g>
    </g>
   </g>
  </g>
 </g>
 <defs>
  <clipPath id="pe3b25edd8f">
   <rect height="443.52" width="388.44" x="56.16" y="158.4"/>
  </clipPath>
 </defs>
</svg>
