<?xml version="1.0" encoding="utf-8" standalone="no"?>
<!DOCTYPE svg PUBLIC "-//W3C//DTD SVG 1.1//EN"
  "http://www.w3.org/Graphics/SVG/1.1/DTD/svg11.dtd">
<!-- Created with matplotlib (https://matplotlib.org/) -->
<svg height="792pt" version="1.1" viewBox="0 0 468 792" width="468pt" xmlns="http://www.w3.org/2000/svg" xmlns:xlink="http://www.w3.org/1999/xlink">
 <defs>
  <style type="text/css">
*{stroke-linecap:butt;stroke-linejoin:round;}
  </style>
 </defs>
 <g id="figure_1">
  <g id="patch_1">
   <path d="M 0 792 
L 468 792 
L 468 0 
L 0 0 
z
" style="fill:#f0f0f0;"/>
  </g>
  <g id="axes_1">
   <g id="patch_2">
    <path d="M 56.16 601.92 
L 444.6 601.92 
L 444.6 158.4 
L 56.16 158.4 
z
" style="fill:#f0f0f0;"/>
   </g>
   <g id="matplotlib.axis_1">
    <g id="xtick_1">
     <g id="line2d_1">
      <path clip-path="url(#p0e0f25416b)" d="M 58.572671 601.92 
L 58.572671 158.4 
" style="fill:none;stroke:#cbcbcb;"/>
     </g>
     <g id="line2d_2"/>
     <g id="text_1">
      <!-- original -->
      <defs>
       <path d="M 49.796875 32.59375 
L 49.796875 17.40625 
Q 49.796875 9.703125 44.25 4.34375 
Q 38.703125 -1 30 -1 
Q 21.09375 -1 15.59375 4.34375 
Q 10.09375 9.703125 10.09375 17.5 
L 10.09375 32.59375 
Q 10.09375 40.296875 15.640625 45.640625 
Q 21.203125 51 30 51 
Q 38.703125 51 44.25 45.59375 
Q 49.796875 40.203125 49.796875 32.59375 
z
M 41.59375 16.90625 
L 41.59375 33.09375 
Q 41.59375 37.59375 38.4375 40.75 
Q 35.296875 43.90625 30 43.90625 
Q 24.703125 43.90625 21.453125 40.75 
Q 18.203125 37.59375 18.203125 33.09375 
L 18.203125 17 
Q 18.203125 12.5 21.453125 9.296875 
Q 24.703125 6.09375 30 6.09375 
Q 35.296875 6.09375 38.4375 9.25 
Q 41.59375 12.40625 41.59375 16.90625 
z
" id="DecimaMonoPro-111"/>
       <path d="M 37.203125 51 
Q 44.09375 51 48.140625 46.453125 
Q 52.203125 41.90625 52.203125 37.5 
Q 52.203125 35.703125 50.5 35.703125 
L 45.90625 35.703125 
Q 44.296875 35.703125 44.09375 37.40625 
Q 43.796875 39.796875 41.75 41.796875 
Q 39.703125 43.796875 36.59375 43.796875 
Q 32.40625 43.796875 29.203125 40.796875 
Q 26 37.796875 26 34 
L 26 7.203125 
L 45.09375 7.203125 
Q 45.796875 7.203125 46.34375 6.703125 
Q 46.90625 6.203125 46.90625 5.40625 
L 46.90625 1.796875 
Q 46.90625 1 46.34375 0.5 
Q 45.796875 0 45.09375 0 
L 9.296875 0 
Q 8.59375 0 8.046875 0.5 
Q 7.5 1 7.5 1.796875 
L 7.5 5.40625 
Q 7.5 6.203125 8.046875 6.703125 
Q 8.59375 7.203125 9.296875 7.203125 
L 18 7.203125 
L 18 48.203125 
Q 18 50 20.296875 50 
L 23.5 50 
Q 25.796875 50 25.796875 48.203125 
L 25.796875 45.703125 
Q 29.796875 51 37.203125 51 
z
" id="DecimaMonoPro-114"/>
       <path d="M 13 50 
L 34.40625 50 
Q 35.203125 50 35.703125 49.5 
Q 36.203125 49 36.203125 48.203125 
L 36.203125 7.203125 
L 49.703125 7.203125 
Q 50.40625 7.203125 50.953125 6.703125 
Q 51.5 6.203125 51.5 5.40625 
L 51.5 1.796875 
Q 51.5 1 50.953125 0.5 
Q 50.40625 0 49.703125 0 
L 12.5 0 
Q 11.796875 0 11.25 0.5 
Q 10.703125 1 10.703125 1.796875 
L 10.703125 5.40625 
Q 10.703125 6.203125 11.25 6.703125 
Q 11.796875 7.203125 12.5 7.203125 
L 28.203125 7.203125 
L 28.203125 42.796875 
L 13 42.796875 
Q 12.203125 42.796875 11.703125 43.296875 
Q 11.203125 43.796875 11.203125 44.59375 
L 11.203125 48.203125 
Q 11.203125 49 11.703125 49.5 
Q 12.203125 50 13 50 
z
M 36.40625 66.296875 
L 36.40625 62 
Q 36.40625 61 35.75 60.34375 
Q 35.09375 59.703125 34.09375 59.703125 
L 29.5 59.703125 
Q 28.5 59.703125 27.84375 60.34375 
Q 27.203125 61 27.203125 62 
L 27.203125 66.296875 
Q 27.203125 67.296875 27.84375 67.9375 
Q 28.5 68.59375 29.5 68.59375 
L 34.09375 68.59375 
Q 35.09375 68.59375 35.75 67.9375 
Q 36.40625 67.296875 36.40625 66.296875 
z
" id="DecimaMonoPro-105"/>
       <path d="M 39.90625 -0.5 
L 19.203125 -0.5 
Q 16.703125 -0.5 14.953125 -2.140625 
Q 13.203125 -3.796875 13.203125 -6.09375 
Q 13.203125 -8.40625 14.953125 -10 
Q 16.703125 -11.59375 19.203125 -11.59375 
L 39.796875 -11.59375 
Q 42.296875 -11.59375 44.046875 -9.9375 
Q 45.796875 -8.296875 45.796875 -6 
Q 45.796875 -3.703125 44.09375 -2.09375 
Q 42.40625 -0.5 39.90625 -0.5 
z
M 36.796875 29.203125 
L 36.796875 35.90625 
Q 36.796875 39.40625 34.296875 41.703125 
Q 31.796875 44 28.296875 44 
Q 24.59375 44 22.046875 41.703125 
Q 19.5 39.40625 19.5 35.90625 
L 19.5 29.203125 
Q 19.5 25.796875 22.046875 23.4375 
Q 24.59375 21.09375 28.296875 21.09375 
Q 31.703125 21.09375 34.25 23.4375 
Q 36.796875 25.796875 36.796875 29.203125 
z
M 47.5 48.59375 
Q 44.40625 48.59375 43.5 47.296875 
L 41.40625 44.40625 
Q 44.5 41 44.5 35.90625 
L 44.5 29.296875 
Q 44.5 23.296875 39.546875 18.640625 
Q 34.59375 14 28.296875 14 
L 28.296875 6 
L 41 6 
Q 46.09375 6 49.640625 2.546875 
Q 53.203125 -0.90625 53.203125 -6.09375 
Q 53.203125 -11.296875 49.640625 -14.640625 
Q 46.09375 -18 40.90625 -18 
L 18 -18 
Q 12.796875 -18 9.296875 -14.640625 
Q 5.796875 -11.296875 5.796875 -6.09375 
Q 5.796875 -0.796875 9.296875 2.59375 
Q 12.796875 6 18 6 
L 20.59375 6 
L 20.59375 16 
Q 17.703125 17.09375 14.796875 20.546875 
Q 11.90625 24 11.90625 29.296875 
L 11.90625 35.90625 
Q 11.90625 42.09375 16.75 46.546875 
Q 21.59375 51 28.296875 51 
Q 32.703125 51 36.09375 49 
L 38.796875 52.40625 
Q 40.40625 54.40625 42.09375 55.09375 
Q 43.796875 55.796875 47.5 55.796875 
Q 48.203125 55.796875 48.75 55.296875 
Q 49.296875 54.796875 49.296875 54 
L 49.296875 50.40625 
Q 49.296875 49.59375 48.75 49.09375 
Q 48.203125 48.59375 47.5 48.59375 
z
" id="DecimaMonoPro-103"/>
       <path d="M 50 32.40625 
L 50 1.796875 
Q 50 0 47.703125 0 
L 44.296875 0 
Q 42 0 42 1.796875 
L 42 32.703125 
Q 42 37.5 39.09375 40.640625 
Q 36.203125 43.796875 30.90625 43.796875 
Q 26.09375 43.796875 22.34375 40.546875 
Q 18.59375 37.296875 18.59375 33.5 
L 18.59375 1.796875 
Q 18.59375 0 16.296875 0 
L 12.90625 0 
Q 10.59375 0 10.59375 1.796875 
L 10.59375 48.203125 
Q 10.59375 50 12.90625 50 
L 16.09375 50 
Q 18.40625 50 18.40625 48.203125 
L 18.40625 45.5 
Q 24.09375 51 31.796875 51 
Q 40.296875 51 45.140625 45.75 
Q 50 40.5 50 32.40625 
z
" id="DecimaMonoPro-110"/>
       <path d="M 40.5 24.40625 
L 27.40625 23.5 
Q 23.5 23.203125 20.890625 20.75 
Q 18.296875 18.296875 18.296875 14.703125 
Q 18.296875 11.203125 21.140625 8.703125 
Q 24 6.203125 28.09375 6.203125 
Q 33.40625 6.203125 36.953125 9.25 
Q 40.5 12.296875 40.5 15.703125 
z
M 48.59375 34.796875 
L 48.59375 1.796875 
Q 48.59375 0 46.296875 0 
L 43.09375 0 
Q 40.796875 0 40.796875 1.796875 
L 40.796875 4.40625 
Q 40.296875 3.796875 39.34375 2.890625 
Q 38.40625 2 35.046875 0.5 
Q 31.703125 -1 27.703125 -1 
Q 20.5 -1 15.390625 3.453125 
Q 10.296875 7.90625 10.296875 14.59375 
Q 10.296875 21.09375 15.09375 25.640625 
Q 19.90625 30.203125 26.796875 30.703125 
L 40.5 31.59375 
L 40.5 34.203125 
Q 40.5 38.09375 37.796875 40.890625 
Q 35.09375 43.703125 30.703125 43.703125 
Q 26.90625 43.703125 24.40625 42.09375 
Q 21.90625 40.5 21 38.09375 
Q 20.203125 36.40625 19.203125 36.40625 
L 15 36.40625 
Q 14.203125 36.40625 13.703125 36.90625 
Q 13.203125 37.40625 13.203125 38.203125 
Q 13.203125 42.09375 18.203125 46.546875 
Q 23.203125 51 30.703125 51 
Q 39.296875 51 43.9375 46.390625 
Q 48.59375 41.796875 48.59375 34.796875 
z
" id="DecimaMonoPro-97"/>
       <path d="M 15.90625 70.09375 
L 32.90625 70.09375 
Q 33.59375 70.09375 34.140625 69.546875 
Q 34.703125 69 34.703125 68.296875 
L 34.703125 7.203125 
L 48.90625 7.203125 
Q 49.59375 7.203125 50.140625 6.703125 
Q 50.703125 6.203125 50.703125 5.40625 
L 50.703125 1.796875 
Q 50.703125 1 50.140625 0.5 
Q 49.59375 0 48.90625 0 
L 13.09375 0 
Q 12.40625 0 11.84375 0.5 
Q 11.296875 1 11.296875 1.796875 
L 11.296875 5.40625 
Q 11.296875 6.203125 11.84375 6.703125 
Q 12.40625 7.203125 13.09375 7.203125 
L 26.703125 7.203125 
L 26.703125 62.90625 
L 15.90625 62.90625 
Q 15.203125 62.90625 14.640625 63.453125 
Q 14.09375 64 14.09375 64.703125 
L 14.09375 68.296875 
Q 14.09375 69 14.640625 69.546875 
Q 15.203125 70.09375 15.90625 70.09375 
z
" id="DecimaMonoPro-108"/>
      </defs>
      <g style="fill:#303030;" transform="translate(44.930687 668.52347)rotate(-60)scale(0.14 -0.14)">
       <use xlink:href="#DecimaMonoPro-111"/>
       <use x="59.999985" xlink:href="#DecimaMonoPro-114"/>
       <use x="119.999969" xlink:href="#DecimaMonoPro-105"/>
       <use x="179.999954" xlink:href="#DecimaMonoPro-103"/>
       <use x="239.999939" xlink:href="#DecimaMonoPro-105"/>
       <use x="299.999924" xlink:href="#DecimaMonoPro-110"/>
       <use x="359.999908" xlink:href="#DecimaMonoPro-97"/>
       <use x="419.999893" xlink:href="#DecimaMonoPro-108"/>
      </g>
     </g>
    </g>
    <g id="xtick_2">
     <g id="line2d_3">
      <path clip-path="url(#p0e0f25416b)" d="M 82.699379 601.92 
L 82.699379 158.4 
" style="fill:none;stroke:#cbcbcb;"/>
     </g>
     <g id="line2d_4"/>
     <g id="text_2">
      <!-- affine0 -->
      <defs>
       <path d="M 22.703125 50 
L 22.703125 54.09375 
Q 22.703125 61.296875 27.59375 66.140625 
Q 32.5 71 40.296875 71 
Q 43.703125 71 46.453125 70.390625 
Q 49.203125 69.796875 50.296875 69.203125 
L 51.40625 68.59375 
Q 52.09375 68.203125 52.09375 67.203125 
Q 52.09375 66.59375 51.796875 66.09375 
L 49.5 63 
Q 49 62.203125 48.203125 62.203125 
Q 48 62.203125 46.5 62.703125 
Q 44.40625 63.703125 40.40625 63.703125 
Q 36.09375 63.703125 33.5 61.046875 
Q 30.90625 58.40625 30.90625 54.40625 
L 30.90625 50 
L 47.796875 50 
Q 48.59375 50 49.09375 49.5 
Q 49.59375 49 49.59375 48.203125 
L 49.59375 44.59375 
Q 49.59375 43.796875 49.09375 43.296875 
Q 48.59375 42.796875 47.796875 42.796875 
L 30.90625 42.796875 
L 30.90625 1.796875 
Q 30.90625 0 28.59375 0 
L 25 0 
Q 22.703125 0 22.703125 1.796875 
L 22.703125 42.796875 
L 12.40625 42.796875 
Q 11.59375 42.796875 11.09375 43.296875 
Q 10.59375 43.796875 10.59375 44.59375 
L 10.59375 48.203125 
Q 10.59375 49 11.09375 49.5 
Q 11.59375 50 12.40625 50 
z
" id="DecimaMonoPro-102"/>
       <path d="M 48.796875 13.5 
Q 48.796875 9.09375 43.75 4.046875 
Q 38.703125 -1 30.203125 -1 
Q 21.203125 -1 15.75 4.453125 
Q 10.296875 9.90625 10.296875 17.5 
L 10.296875 32.703125 
Q 10.296875 40.203125 15.75 45.59375 
Q 21.203125 51 30.203125 51 
Q 39.203125 51 44.453125 45.59375 
Q 49.703125 40.203125 49.703125 32.703125 
L 49.703125 24.796875 
Q 49.703125 23.796875 49.046875 23.140625 
Q 48.40625 22.5 47.40625 22.5 
L 18.40625 22.5 
L 18.40625 17 
Q 18.40625 12.5 21.65625 9.296875 
Q 24.90625 6.09375 30.203125 6.09375 
Q 38.5 6.09375 40.59375 13.59375 
Q 41.09375 15.296875 42.40625 15.296875 
L 47 15.296875 
Q 47.796875 15.296875 48.296875 14.75 
Q 48.796875 14.203125 48.796875 13.5 
z
M 18.40625 33 
L 18.40625 29.703125 
L 41.796875 29.703125 
L 41.796875 33 
Q 41.796875 37.5 38.640625 40.640625 
Q 35.5 43.796875 30.203125 43.796875 
Q 24.90625 43.796875 21.65625 40.640625 
Q 18.40625 37.5 18.40625 33 
z
" id="DecimaMonoPro-101"/>
       <path d="M 48.203125 52.59375 
L 48.203125 17.40625 
Q 48.203125 9.703125 42.953125 4.34375 
Q 37.703125 -1 29.890625 -1 
Q 22.09375 -1 16.9375 4.390625 
Q 11.796875 9.796875 11.796875 17.5 
L 11.796875 52.59375 
Q 11.796875 60.296875 16.9375 65.640625 
Q 22.09375 71 29.890625 71 
Q 37.703125 71 42.953125 65.640625 
Q 48.203125 60.296875 48.203125 52.59375 
z
M 39.90625 17.296875 
L 39.90625 52.5 
Q 39.90625 56.90625 37 60 
Q 34.09375 63.09375 29.90625 63.09375 
Q 25.796875 63.09375 22.890625 60 
Q 20 56.90625 20 52.5 
L 20 17.40625 
Q 20 13 22.890625 9.953125 
Q 25.796875 6.90625 30 6.90625 
Q 34.09375 6.90625 37 9.90625 
Q 39.90625 12.90625 39.90625 17.296875 
z
" id="DecimaMonoPro-48"/>
      </defs>
      <g style="fill:#303030;" transform="translate(71.157395 661.248856)rotate(-60)scale(0.14 -0.14)">
       <use xlink:href="#DecimaMonoPro-97"/>
       <use x="59.999985" xlink:href="#DecimaMonoPro-102"/>
       <use x="119.999969" xlink:href="#DecimaMonoPro-102"/>
       <use x="179.999954" xlink:href="#DecimaMonoPro-105"/>
       <use x="239.999939" xlink:href="#DecimaMonoPro-110"/>
       <use x="299.999924" xlink:href="#DecimaMonoPro-101"/>
       <use x="359.999908" xlink:href="#DecimaMonoPro-48"/>
      </g>
     </g>
    </g>
    <g id="xtick_3">
     <g id="line2d_5">
      <path clip-path="url(#p0e0f25416b)" d="M 106.826087 601.92 
L 106.826087 158.4 
" style="fill:none;stroke:#cbcbcb;"/>
     </g>
     <g id="line2d_6"/>
     <g id="text_3">
      <!-- affine1 -->
      <defs>
       <path d="M 13.90625 68.203125 
L 25.203125 70 
L 32.296875 70 
Q 33 70 33.546875 69.5 
Q 34.09375 69 34.09375 68.203125 
L 34.09375 7.703125 
L 47.296875 7.703125 
Q 48 7.703125 48.546875 7.140625 
Q 49.09375 6.59375 49.09375 5.90625 
L 49.09375 1.796875 
Q 49.09375 1 48.546875 0.5 
Q 48 0 47.296875 0 
L 12.59375 0 
Q 11.796875 0 11.296875 0.5 
Q 10.796875 1 10.796875 1.796875 
L 10.796875 5.90625 
Q 10.796875 6.59375 11.296875 7.140625 
Q 11.796875 7.703125 12.59375 7.703125 
L 25.703125 7.703125 
L 25.703125 62.09375 
L 14.703125 60.40625 
L 14.40625 60.40625 
Q 14 60.296875 13.5 60.296875 
Q 12.09375 60.296875 12.09375 62.09375 
L 12.09375 66.296875 
Q 12.09375 67.796875 13.90625 68.203125 
z
" id="DecimaMonoPro-49"/>
      </defs>
      <g style="fill:#303030;" transform="translate(95.284103 661.248856)rotate(-60)scale(0.14 -0.14)">
       <use xlink:href="#DecimaMonoPro-97"/>
       <use x="59.999985" xlink:href="#DecimaMonoPro-102"/>
       <use x="119.999969" xlink:href="#DecimaMonoPro-102"/>
       <use x="179.999954" xlink:href="#DecimaMonoPro-105"/>
       <use x="239.999939" xlink:href="#DecimaMonoPro-110"/>
       <use x="299.999924" xlink:href="#DecimaMonoPro-101"/>
       <use x="359.999908" xlink:href="#DecimaMonoPro-49"/>
      </g>
     </g>
    </g>
    <g id="xtick_4">
     <g id="line2d_7">
      <path clip-path="url(#p0e0f25416b)" d="M 130.952795 601.92 
L 130.952795 158.4 
" style="fill:none;stroke:#cbcbcb;"/>
     </g>
     <g id="line2d_8"/>
     <g id="text_4">
      <!-- affine2 -->
      <defs>
       <path d="M 11.703125 53 
Q 11.703125 59.703125 17.203125 65.34375 
Q 22.703125 71 30.59375 71 
Q 38.40625 71 43.796875 65.75 
Q 49.203125 60.5 49.203125 52.703125 
Q 49.203125 46.90625 46.09375 41.75 
Q 43 36.59375 38.59375 32.84375 
Q 34.203125 29.09375 29.796875 25.4375 
Q 25.40625 21.796875 22.296875 17.296875 
Q 19.203125 12.796875 19.203125 7.796875 
L 47.40625 7.796875 
Q 48.203125 7.796875 48.703125 7.296875 
Q 49.203125 6.796875 49.203125 6 
L 49.203125 1.796875 
Q 49.203125 1 48.703125 0.5 
Q 48.203125 0 47.40625 0 
L 12.59375 0 
Q 11.796875 0 11.296875 0.5 
Q 10.796875 1 10.796875 1.796875 
L 10.796875 7.296875 
Q 10.796875 13.90625 13.890625 19.453125 
Q 17 25 21.390625 28.890625 
Q 25.796875 32.796875 30.1875 36.390625 
Q 34.59375 40 37.6875 44.296875 
Q 40.796875 48.59375 40.796875 53.296875 
Q 40.796875 57.40625 37.75 60.25 
Q 34.703125 63.09375 30.5 63.09375 
Q 26.09375 63.09375 23.1875 59.6875 
Q 20.296875 56.296875 20.09375 53 
Q 19.90625 51 17.796875 51 
L 14 51 
Q 12.90625 51 12.296875 51.59375 
Q 11.703125 52.203125 11.703125 53 
z
" id="DecimaMonoPro-50"/>
      </defs>
      <g style="fill:#303030;" transform="translate(119.410811 661.248856)rotate(-60)scale(0.14 -0.14)">
       <use xlink:href="#DecimaMonoPro-97"/>
       <use x="59.999985" xlink:href="#DecimaMonoPro-102"/>
       <use x="119.999969" xlink:href="#DecimaMonoPro-102"/>
       <use x="179.999954" xlink:href="#DecimaMonoPro-105"/>
       <use x="239.999939" xlink:href="#DecimaMonoPro-110"/>
       <use x="299.999924" xlink:href="#DecimaMonoPro-101"/>
       <use x="359.999908" xlink:href="#DecimaMonoPro-50"/>
      </g>
     </g>
    </g>
    <g id="xtick_5">
     <g id="line2d_9">
      <path clip-path="url(#p0e0f25416b)" d="M 155.079503 601.92 
L 155.079503 158.4 
" style="fill:none;stroke:#cbcbcb;"/>
     </g>
     <g id="line2d_10"/>
     <g id="text_5">
      <!-- affine3 -->
      <defs>
       <path d="M 46.203125 61.09375 
L 35.40625 47.09375 
Q 40.796875 46.40625 44.890625 41.953125 
Q 49 37.5 49 31.5 
L 49 17.5 
Q 49 9.796875 43.5 4.390625 
Q 38 -1 30 -1 
Q 21.796875 -1 16.34375 4.34375 
Q 10.90625 9.703125 10.90625 17.40625 
Q 10.90625 18.203125 11.5 18.796875 
Q 12.09375 19.40625 13.203125 19.40625 
L 17 19.40625 
Q 19.09375 19.40625 19.296875 17.40625 
Q 19.296875 13 22.390625 9.953125 
Q 25.5 6.90625 30 6.90625 
Q 34.40625 6.90625 37.5 9.953125 
Q 40.59375 13 40.59375 17.40625 
L 40.59375 31.40625 
Q 40.59375 34.59375 38.296875 36.9375 
Q 36 39.296875 32.703125 39.296875 
L 27.40625 39.296875 
Q 25.203125 39.296875 25.203125 41.59375 
L 25.203125 45 
Q 25.203125 46.703125 26.296875 48.203125 
L 36.59375 62.09375 
L 16.90625 62.09375 
Q 14.703125 62.09375 14.703125 64.40625 
L 14.703125 67.703125 
Q 14.703125 70 16.90625 70 
L 45.09375 70 
Q 47.296875 70 47.296875 67.703125 
L 47.296875 64.296875 
Q 47.296875 62.59375 46.203125 61.09375 
z
" id="DecimaMonoPro-51"/>
      </defs>
      <g style="fill:#303030;" transform="translate(143.537519 661.248856)rotate(-60)scale(0.14 -0.14)">
       <use xlink:href="#DecimaMonoPro-97"/>
       <use x="59.999985" xlink:href="#DecimaMonoPro-102"/>
       <use x="119.999969" xlink:href="#DecimaMonoPro-102"/>
       <use x="179.999954" xlink:href="#DecimaMonoPro-105"/>
       <use x="239.999939" xlink:href="#DecimaMonoPro-110"/>
       <use x="299.999924" xlink:href="#DecimaMonoPro-101"/>
       <use x="359.999908" xlink:href="#DecimaMonoPro-51"/>
      </g>
     </g>
    </g>
    <g id="xtick_6">
     <g id="line2d_11">
      <path clip-path="url(#p0e0f25416b)" d="M 179.206211 601.92 
L 179.206211 158.4 
" style="fill:none;stroke:#cbcbcb;"/>
     </g>
     <g id="line2d_12"/>
     <g id="text_6">
      <!-- affine4 -->
      <defs>
       <path d="M 40.09375 67.5 
L 19.5 22.90625 
L 35.796875 22.90625 
L 35.796875 38.90625 
Q 35.796875 39.703125 36.390625 40.296875 
Q 37 40.90625 38.09375 40.90625 
L 42.203125 40.90625 
Q 43 40.90625 43.59375 40.25 
Q 44.203125 39.59375 44.203125 38.90625 
L 44.203125 22.90625 
L 48 22.90625 
Q 48.796875 22.90625 49.390625 22.296875 
Q 50 21.703125 50 20.59375 
L 50 17.40625 
Q 50 16.296875 49.390625 15.6875 
Q 48.796875 15.09375 48 15.09375 
L 44.203125 15.09375 
L 44.203125 2 
Q 44.203125 1.203125 43.59375 0.59375 
Q 43 0 42.203125 0 
L 38.09375 0 
Q 37 0 36.390625 0.59375 
Q 35.796875 1.203125 35.796875 2 
L 35.796875 15.09375 
L 12.09375 15.09375 
Q 9.90625 15.09375 9.90625 17.40625 
L 9.90625 21.296875 
Q 9.90625 22.5 11 24.703125 
L 31.296875 68 
Q 32.296875 70 34 70 
L 38.796875 70 
Q 40.5 70 40.5 68.796875 
Q 40.5 68.5 40.09375 67.5 
z
" id="DecimaMonoPro-52"/>
      </defs>
      <g style="fill:#303030;" transform="translate(167.664227 661.248856)rotate(-60)scale(0.14 -0.14)">
       <use xlink:href="#DecimaMonoPro-97"/>
       <use x="59.999985" xlink:href="#DecimaMonoPro-102"/>
       <use x="119.999969" xlink:href="#DecimaMonoPro-102"/>
       <use x="179.999954" xlink:href="#DecimaMonoPro-105"/>
       <use x="239.999939" xlink:href="#DecimaMonoPro-110"/>
       <use x="299.999924" xlink:href="#DecimaMonoPro-101"/>
       <use x="359.999908" xlink:href="#DecimaMonoPro-52"/>
      </g>
     </g>
    </g>
    <g id="xtick_7">
     <g id="line2d_13">
      <path clip-path="url(#p0e0f25416b)" d="M 203.332919 601.92 
L 203.332919 158.4 
" style="fill:none;stroke:#cbcbcb;"/>
     </g>
     <g id="line2d_14"/>
     <g id="text_7">
      <!-- affine5 -->
      <defs>
       <path d="M 21.90625 35.59375 
Q 21.09375 34.40625 19.796875 34.40625 
Q 19.40625 34.40625 18.203125 34.796875 
L 14.796875 35.796875 
Q 13.203125 36.296875 13.40625 38.5 
L 15.90625 67.703125 
Q 16.09375 70 18.09375 70 
L 44.40625 70 
Q 46.59375 70 46.59375 67.703125 
L 46.59375 64.40625 
Q 46.59375 62.09375 44.40625 62.09375 
L 24.09375 62.09375 
L 22.40625 44.796875 
Q 25.203125 47.203125 30.703125 47.203125 
Q 38.40625 47.203125 43.703125 42 
Q 49 36.796875 49 28.90625 
L 49 17.5 
Q 49 9.796875 43.5 4.390625 
Q 38 -1 30.09375 -1 
Q 21.90625 -1 16.453125 4.34375 
Q 11 9.703125 11 17.40625 
Q 11 18.203125 11.59375 18.796875 
Q 12.203125 19.40625 13.296875 19.40625 
L 17.09375 19.40625 
Q 18.203125 19.40625 18.796875 18.796875 
Q 19.40625 18.203125 19.40625 17.40625 
Q 19.40625 13 22.5 9.953125 
Q 25.59375 6.90625 30.09375 6.90625 
Q 34.5 6.90625 37.546875 9.953125 
Q 40.59375 13 40.59375 17.40625 
L 40.59375 28.796875 
Q 40.59375 33.203125 37.5 36.25 
Q 34.40625 39.296875 29.796875 39.296875 
Q 27.703125 39.296875 25.796875 38.4375 
Q 23.90625 37.59375 23.09375 36.890625 
Q 22.296875 36.203125 21.90625 35.59375 
z
" id="DecimaMonoPro-53"/>
      </defs>
      <g style="fill:#303030;" transform="translate(191.790935 661.248856)rotate(-60)scale(0.14 -0.14)">
       <use xlink:href="#DecimaMonoPro-97"/>
       <use x="59.999985" xlink:href="#DecimaMonoPro-102"/>
       <use x="119.999969" xlink:href="#DecimaMonoPro-102"/>
       <use x="179.999954" xlink:href="#DecimaMonoPro-105"/>
       <use x="239.999939" xlink:href="#DecimaMonoPro-110"/>
       <use x="299.999924" xlink:href="#DecimaMonoPro-101"/>
       <use x="359.999908" xlink:href="#DecimaMonoPro-53"/>
      </g>
     </g>
    </g>
    <g id="xtick_8">
     <g id="line2d_15">
      <path clip-path="url(#p0e0f25416b)" d="M 227.459627 601.92 
L 227.459627 158.4 
" style="fill:none;stroke:#cbcbcb;"/>
     </g>
     <g id="line2d_16"/>
     <g id="text_8">
      <!-- affine6 -->
      <defs>
       <path d="M 11 60.203125 
Q 21.59375 71 29.5 71 
Q 37.40625 71 42.65625 65.953125 
Q 47.90625 60.90625 47.90625 54.40625 
Q 47.90625 53.59375 47.296875 53 
Q 46.703125 52.40625 45.59375 52.40625 
L 41.796875 52.40625 
Q 39.703125 52.40625 39.5 54.40625 
Q 39.296875 57.59375 36.640625 60.296875 
Q 34 63 29.5 63 
Q 25.203125 63 22.25 59.890625 
Q 19.296875 56.796875 19.296875 52.40625 
L 19.296875 42.796875 
Q 19.703125 43.296875 20.59375 44.046875 
Q 21.5 44.796875 24.546875 46 
Q 27.59375 47.203125 31 47.203125 
Q 38.40625 47.203125 43.703125 42 
Q 49 36.796875 49 28.90625 
L 49 17.5 
Q 49 9.796875 43.546875 4.390625 
Q 38.09375 -1 30 -1 
Q 21.90625 -1 16.453125 4.34375 
Q 11 9.703125 11 17.40625 
L 11 52.5 
Q 11 60.203125 21.59375 71 
z
M 30 39.296875 
Q 25.40625 39.296875 22.34375 36.390625 
Q 19.296875 33.5 19.296875 28.796875 
L 19.296875 17.296875 
Q 19.296875 12.90625 22.390625 9.90625 
Q 25.5 6.90625 30 6.90625 
Q 34.40625 6.90625 37.5 9.953125 
Q 40.59375 13 40.59375 17.40625 
L 40.59375 28.796875 
Q 40.59375 33.40625 37.546875 36.34375 
Q 34.5 39.296875 30 39.296875 
z
" id="DecimaMonoPro-54"/>
      </defs>
      <g style="fill:#303030;" transform="translate(215.917643 661.248856)rotate(-60)scale(0.14 -0.14)">
       <use xlink:href="#DecimaMonoPro-97"/>
       <use x="59.999985" xlink:href="#DecimaMonoPro-102"/>
       <use x="119.999969" xlink:href="#DecimaMonoPro-102"/>
       <use x="179.999954" xlink:href="#DecimaMonoPro-105"/>
       <use x="239.999939" xlink:href="#DecimaMonoPro-110"/>
       <use x="299.999924" xlink:href="#DecimaMonoPro-101"/>
       <use x="359.999908" xlink:href="#DecimaMonoPro-54"/>
      </g>
     </g>
    </g>
    <g id="xtick_9">
     <g id="line2d_17">
      <path clip-path="url(#p0e0f25416b)" d="M 251.586335 601.92 
L 251.586335 158.4 
" style="fill:none;stroke:#cbcbcb;"/>
     </g>
     <g id="line2d_18"/>
     <g id="text_9">
      <!-- affine7 -->
      <defs>
       <path d="M 34.28125 27.484375 
Q 23.390625 27.484375 19.1875 25 
Q 14.984375 22.515625 14.984375 16.5 
Q 14.984375 11.71875 18.140625 8.90625 
Q 21.296875 6.109375 26.703125 6.109375 
Q 34.1875 6.109375 38.703125 11.40625 
Q 43.21875 16.703125 43.21875 25.484375 
L 43.21875 27.484375 
z
M 52.203125 31.203125 
L 52.203125 0 
L 43.21875 0 
L 43.21875 8.296875 
Q 40.140625 3.328125 35.546875 0.953125 
Q 30.953125 -1.421875 24.3125 -1.421875 
Q 15.921875 -1.421875 10.953125 3.296875 
Q 6 8.015625 6 15.921875 
Q 6 25.140625 12.171875 29.828125 
Q 18.359375 34.515625 30.609375 34.515625 
L 43.21875 34.515625 
L 43.21875 35.40625 
Q 43.21875 41.609375 39.140625 45 
Q 35.0625 48.390625 27.6875 48.390625 
Q 23 48.390625 18.546875 47.265625 
Q 14.109375 46.140625 10.015625 43.890625 
L 10.015625 52.203125 
Q 14.9375 54.109375 19.578125 55.046875 
Q 24.21875 56 28.609375 56 
Q 40.484375 56 46.34375 49.84375 
Q 52.203125 43.703125 52.203125 31.203125 
z
" id="DejaVuSans-97"/>
       <path d="M 37.109375 75.984375 
L 37.109375 68.5 
L 28.515625 68.5 
Q 23.6875 68.5 21.796875 66.546875 
Q 19.921875 64.59375 19.921875 59.515625 
L 19.921875 54.6875 
L 34.71875 54.6875 
L 34.71875 47.703125 
L 19.921875 47.703125 
L 19.921875 0 
L 10.890625 0 
L 10.890625 47.703125 
L 2.296875 47.703125 
L 2.296875 54.6875 
L 10.890625 54.6875 
L 10.890625 58.5 
Q 10.890625 67.625 15.140625 71.796875 
Q 19.390625 75.984375 28.609375 75.984375 
z
" id="DejaVuSans-102"/>
       <path d="M 9.421875 54.6875 
L 18.40625 54.6875 
L 18.40625 0 
L 9.421875 0 
z
M 9.421875 75.984375 
L 18.40625 75.984375 
L 18.40625 64.59375 
L 9.421875 64.59375 
z
" id="DejaVuSans-105"/>
       <path d="M 54.890625 33.015625 
L 54.890625 0 
L 45.90625 0 
L 45.90625 32.71875 
Q 45.90625 40.484375 42.875 44.328125 
Q 39.84375 48.1875 33.796875 48.1875 
Q 26.515625 48.1875 22.3125 43.546875 
Q 18.109375 38.921875 18.109375 30.90625 
L 18.109375 0 
L 9.078125 0 
L 9.078125 54.6875 
L 18.109375 54.6875 
L 18.109375 46.1875 
Q 21.34375 51.125 25.703125 53.5625 
Q 30.078125 56 35.796875 56 
Q 45.21875 56 50.046875 50.171875 
Q 54.890625 44.34375 54.890625 33.015625 
z
" id="DejaVuSans-110"/>
       <path d="M 56.203125 29.59375 
L 56.203125 25.203125 
L 14.890625 25.203125 
Q 15.484375 15.921875 20.484375 11.0625 
Q 25.484375 6.203125 34.421875 6.203125 
Q 39.59375 6.203125 44.453125 7.46875 
Q 49.3125 8.734375 54.109375 11.28125 
L 54.109375 2.78125 
Q 49.265625 0.734375 44.1875 -0.34375 
Q 39.109375 -1.421875 33.890625 -1.421875 
Q 20.796875 -1.421875 13.15625 6.1875 
Q 5.515625 13.8125 5.515625 26.8125 
Q 5.515625 40.234375 12.765625 48.109375 
Q 20.015625 56 32.328125 56 
Q 43.359375 56 49.78125 48.890625 
Q 56.203125 41.796875 56.203125 29.59375 
z
M 47.21875 32.234375 
Q 47.125 39.59375 43.09375 43.984375 
Q 39.0625 48.390625 32.421875 48.390625 
Q 24.90625 48.390625 20.390625 44.140625 
Q 15.875 39.890625 15.1875 32.171875 
z
" id="DejaVuSans-101"/>
       <path d="M 8.203125 72.90625 
L 55.078125 72.90625 
L 55.078125 68.703125 
L 28.609375 0 
L 18.3125 0 
L 43.21875 64.59375 
L 8.203125 64.59375 
z
" id="DejaVuSans-55"/>
      </defs>
      <g style="fill:#303030;" transform="translate(242.7519 652.931664)rotate(-60)scale(0.14 -0.14)">
       <use xlink:href="#DejaVuSans-97"/>
       <use x="61.279297" xlink:href="#DejaVuSans-102"/>
       <use x="96.484375" xlink:href="#DejaVuSans-102"/>
       <use x="131.689453" xlink:href="#DejaVuSans-105"/>
       <use x="159.472656" xlink:href="#DejaVuSans-110"/>
       <use x="222.851562" xlink:href="#DejaVuSans-101"/>
       <use x="284.375" xlink:href="#DejaVuSans-55"/>
      </g>
     </g>
    </g>
    <g id="xtick_10">
     <g id="line2d_19">
      <path clip-path="url(#p0e0f25416b)" d="M 275.713043 601.92 
L 275.713043 158.4 
" style="fill:none;stroke:#cbcbcb;"/>
     </g>
     <g id="line2d_20"/>
     <g id="text_10">
      <!-- distAE -->
      <defs>
       <path d="M 17.90625 32.90625 
L 17.90625 16.90625 
Q 17.90625 12.296875 21.15625 9.1875 
Q 24.40625 6.09375 29.5 6.09375 
Q 34.59375 6.09375 37.9375 9.25 
Q 41.296875 12.40625 41.296875 17 
L 41.296875 32.90625 
Q 41.296875 37.5 37.9375 40.59375 
Q 34.59375 43.703125 29.5 43.703125 
Q 24.40625 43.703125 21.15625 40.59375 
Q 17.90625 37.5 17.90625 32.90625 
z
M 41.296875 46.296875 
L 41.203125 68.203125 
Q 41.203125 70 43.5 70 
L 47 70 
Q 49.296875 70 49.296875 68.203125 
L 49.296875 1.796875 
Q 49.296875 0 47 0 
L 44.09375 0 
Q 41.796875 0 41.796875 1.796875 
L 41.796875 4.09375 
Q 41.40625 3.5 40.5 2.640625 
Q 39.59375 1.796875 36.25 0.390625 
Q 32.90625 -1 28.703125 -1 
Q 20.703125 -1 15.203125 4.34375 
Q 9.703125 9.703125 9.703125 17.40625 
L 9.703125 32.59375 
Q 9.703125 40.203125 15.25 45.59375 
Q 20.796875 51 28.703125 51 
Q 32.59375 51 35.75 49.796875 
Q 38.90625 48.59375 40.09375 47.40625 
z
" id="DecimaMonoPro-100"/>
       <path d="M 30.09375 -1 
Q 25.296875 -1 21.546875 0.59375 
Q 17.796875 2.203125 15.84375 4.59375 
Q 13.90625 7 12.953125 9.390625 
Q 12 11.796875 12 14 
Q 12 14.796875 12.5 15.296875 
Q 13 15.796875 13.796875 15.796875 
L 18.296875 15.796875 
Q 19.90625 15.796875 20.09375 14.09375 
Q 20.40625 11.203125 22.796875 8.703125 
Q 25.203125 6.203125 30.09375 6.203125 
Q 34.296875 6.203125 36.890625 8.296875 
Q 39.5 10.40625 39.5 13.59375 
Q 39.5 16.5 36.84375 18.5 
Q 34.203125 20.5 30.390625 21.84375 
Q 26.59375 23.203125 22.84375 24.796875 
Q 19.09375 26.40625 16.4375 29.5 
Q 13.796875 32.59375 13.796875 37.09375 
Q 13.796875 43.296875 18.4375 47.140625 
Q 23.09375 51 30.703125 51 
Q 38.90625 51 43.25 46.5 
Q 47.59375 42 47.59375 37.5 
Q 47.59375 36.796875 47.09375 36.25 
Q 46.59375 35.703125 45.796875 35.703125 
L 41.203125 35.703125 
Q 39.703125 35.703125 39.40625 37.40625 
Q 38.90625 40 36.75 41.890625 
Q 34.59375 43.796875 30.703125 43.796875 
Q 26.90625 43.796875 24.546875 42.09375 
Q 22.203125 40.40625 22.203125 37.703125 
Q 22.203125 35 24.84375 33.09375 
Q 27.5 31.203125 31.25 29.890625 
Q 35 28.59375 38.703125 26.9375 
Q 42.40625 25.296875 45.046875 21.84375 
Q 47.703125 18.40625 47.703125 13.40625 
Q 47.703125 7.40625 42.59375 3.203125 
Q 37.5 -1 30.09375 -1 
z
" id="DecimaMonoPro-115"/>
       <path d="M 24.796875 61.296875 
L 24.796875 50 
L 48.40625 50 
Q 49.203125 50 49.703125 49.5 
Q 50.203125 49 50.203125 48.203125 
L 50.203125 44.59375 
Q 50.203125 43.796875 49.703125 43.296875 
Q 49.203125 42.796875 48.40625 42.796875 
L 24.796875 42.796875 
L 24.796875 15.90625 
Q 24.796875 11.796875 27.390625 9 
Q 30 6.203125 34.796875 6.203125 
Q 39 6.203125 41.390625 8.640625 
Q 43.796875 11.09375 44.203125 14 
Q 44.40625 15.703125 45.90625 15.703125 
L 50.40625 15.703125 
Q 51.203125 15.703125 51.703125 15.140625 
Q 52.203125 14.59375 52.203125 13.90625 
Q 52.203125 11.59375 51.296875 9.25 
Q 50.40625 6.90625 48.546875 4.5 
Q 46.703125 2.09375 43.046875 0.546875 
Q 39.40625 -1 34.59375 -1 
Q 25.703125 -1 21.203125 3.59375 
Q 16.703125 8.203125 16.703125 15.09375 
L 16.703125 42.796875 
L 9.296875 42.796875 
Q 8.59375 42.796875 8.046875 43.296875 
Q 7.5 43.796875 7.5 44.59375 
L 7.5 48.203125 
Q 7.5 49 8.046875 49.5 
Q 8.59375 50 9.296875 50 
L 16.703125 50 
L 16.703125 61.296875 
Q 16.703125 63.09375 19 63.09375 
L 22.59375 63.09375 
Q 24.796875 63.09375 24.796875 61.296875 
z
" id="DecimaMonoPro-116"/>
       <path d="M 40.5 30.09375 
L 30.90625 62.09375 
L 29 62.09375 
L 19.5 30.09375 
z
M 37.703125 68 
L 48.59375 31.796875 
Q 49.203125 30 49.203125 28.203125 
L 49.203125 2 
Q 49.203125 1.203125 48.59375 0.59375 
Q 48 0 46.90625 0 
L 43.09375 0 
Q 42 0 41.390625 0.59375 
Q 40.796875 1.203125 40.796875 2 
L 40.796875 22.296875 
L 19.09375 22.296875 
L 19.09375 2 
Q 19.09375 1.203125 18.5 0.59375 
Q 17.90625 0 16.796875 0 
L 13 0 
Q 11.90625 0 11.296875 0.59375 
Q 10.703125 1.203125 10.703125 2 
L 10.703125 28.203125 
Q 10.703125 30 11.296875 31.90625 
L 22.203125 68 
Q 22.796875 70 24.59375 70 
L 35.296875 70 
Q 37.09375 70 37.703125 68 
z
" id="DecimaMonoPro-65"/>
       <path d="M 45.5 0 
L 14.796875 0 
Q 13.703125 0 13.09375 0.59375 
Q 12.5 1.203125 12.5 2 
L 12.5 68 
Q 12.5 68.796875 13.09375 69.390625 
Q 13.703125 70 14.796875 70 
L 44.703125 70 
Q 45.5 70 46.09375 69.390625 
Q 46.703125 68.796875 46.703125 67.703125 
L 46.703125 64.40625 
Q 46.703125 63.296875 46.09375 62.6875 
Q 45.5 62.09375 44.703125 62.09375 
L 20.90625 62.09375 
L 20.90625 40.796875 
L 42.296875 40.796875 
Q 43.09375 40.796875 43.6875 40.1875 
Q 44.296875 39.59375 44.296875 38.5 
L 44.296875 35.296875 
Q 44.296875 34.203125 43.6875 33.59375 
Q 43.09375 33 42.296875 33 
L 20.90625 33 
L 20.90625 7.90625 
L 45.5 7.90625 
Q 46.296875 7.90625 46.890625 7.296875 
Q 47.5 6.703125 47.5 5.59375 
L 47.5 2.296875 
Q 47.5 1.203125 46.890625 0.59375 
Q 46.296875 0 45.5 0 
z
" id="DecimaMonoPro-69"/>
      </defs>
      <g style="fill:#303030;" transform="translate(266.271059 653.974243)rotate(-60)scale(0.14 -0.14)">
       <use xlink:href="#DecimaMonoPro-100"/>
       <use x="59.999985" xlink:href="#DecimaMonoPro-105"/>
       <use x="119.999969" xlink:href="#DecimaMonoPro-115"/>
       <use x="179.999954" xlink:href="#DecimaMonoPro-116"/>
       <use x="239.999939" xlink:href="#DecimaMonoPro-65"/>
       <use x="299.999924" xlink:href="#DecimaMonoPro-69"/>
      </g>
     </g>
    </g>
    <g id="xtick_11">
     <g id="line2d_21">
      <path clip-path="url(#p0e0f25416b)" d="M 299.839752 601.92 
L 299.839752 158.4 
" style="fill:none;stroke:#cbcbcb;"/>
     </g>
     <g id="line2d_22"/>
     <g id="text_11">
      <!-- 5nn weighted -->
      <defs>
       <path id="DecimaMonoPro-32"/>
       <path d="M 51.40625 30.59375 
L 47.203125 1.796875 
Q 47 0 44.90625 0 
L 36.09375 0 
Q 34.203125 0 33.796875 1.796875 
L 30.203125 24.703125 
L 29.703125 24.703125 
L 26.203125 1.796875 
Q 25.796875 0 23.90625 0 
L 15.09375 0 
Q 13 0 12.796875 1.796875 
L 8.59375 30.59375 
L 8.59375 48.203125 
Q 8.59375 50 10.90625 50 
L 14.09375 50 
Q 16.40625 50 16.40625 48.203125 
L 16.40625 31.40625 
L 19 7.296875 
L 20.5 7.296875 
L 24.59375 30.296875 
Q 25 32.09375 26.90625 32.09375 
L 32.90625 32.09375 
Q 34.796875 32.09375 35.203125 30.296875 
L 39.5 7.296875 
L 41 7.296875 
L 43.59375 31.40625 
L 43.59375 48.203125 
Q 43.59375 50 45.90625 50 
L 49.09375 50 
Q 51.40625 50 51.40625 48.203125 
z
" id="DecimaMonoPro-119"/>
       <path d="M 50.09375 32.703125 
L 50.09375 1.796875 
Q 50.09375 0 47.796875 0 
L 44.40625 0 
Q 42.09375 0 42.09375 1.796875 
L 42.09375 33 
Q 42.09375 37.59375 39.046875 40.6875 
Q 36 43.796875 31 43.796875 
Q 26.203125 43.796875 22.453125 40.546875 
Q 18.703125 37.296875 18.703125 33.5 
L 18.703125 1.796875 
Q 18.703125 0 16.40625 0 
L 13 0 
Q 10.703125 0 10.703125 1.796875 
L 10.703125 68.203125 
Q 10.703125 70 13 70 
L 16.5 70 
Q 18.703125 70 18.703125 68.203125 
L 18.703125 45.59375 
Q 19.203125 46.203125 20.25 47.09375 
Q 21.296875 48 24.6875 49.5 
Q 28.09375 51 31.90625 51 
Q 40.09375 51 45.09375 45.75 
Q 50.09375 40.5 50.09375 32.703125 
z
" id="DecimaMonoPro-104"/>
      </defs>
      <g style="fill:#303030;" transform="translate(277.797767 697.621923)rotate(-60)scale(0.14 -0.14)">
       <use xlink:href="#DecimaMonoPro-53"/>
       <use x="59.999985" xlink:href="#DecimaMonoPro-110"/>
       <use x="119.999969" xlink:href="#DecimaMonoPro-110"/>
       <use x="179.999954" xlink:href="#DecimaMonoPro-32"/>
       <use x="239.999939" xlink:href="#DecimaMonoPro-119"/>
       <use x="299.999924" xlink:href="#DecimaMonoPro-101"/>
       <use x="359.999908" xlink:href="#DecimaMonoPro-105"/>
       <use x="419.999893" xlink:href="#DecimaMonoPro-103"/>
       <use x="479.999878" xlink:href="#DecimaMonoPro-104"/>
       <use x="539.999863" xlink:href="#DecimaMonoPro-116"/>
       <use x="599.999847" xlink:href="#DecimaMonoPro-101"/>
       <use x="659.999832" xlink:href="#DecimaMonoPro-100"/>
      </g>
     </g>
    </g>
    <g id="xtick_12">
     <g id="line2d_23">
      <path clip-path="url(#p0e0f25416b)" d="M 323.96646 601.92 
L 323.96646 158.4 
" style="fill:none;stroke:#cbcbcb;"/>
     </g>
     <g id="line2d_24"/>
     <g id="text_12">
      <!-- 10nn weighted -->
      <g style="fill:#303030;" transform="translate(299.879414 704.959974)rotate(-60)scale(0.14 -0.14)">
       <use xlink:href="#DecimaMonoPro-49"/>
       <use x="59.999985" xlink:href="#DecimaMonoPro-48"/>
       <use x="119.999969" xlink:href="#DecimaMonoPro-110"/>
       <use x="179.999954" xlink:href="#DecimaMonoPro-110"/>
       <use x="239.999939" xlink:href="#DecimaMonoPro-32"/>
       <use x="299.999924" xlink:href="#DecimaMonoPro-119"/>
       <use x="359.999908" xlink:href="#DecimaMonoPro-101"/>
       <use x="419.999893" xlink:href="#DecimaMonoPro-105"/>
       <use x="479.999878" xlink:href="#DecimaMonoPro-103"/>
       <use x="539.999863" xlink:href="#DecimaMonoPro-104"/>
       <use x="599.999847" xlink:href="#DecimaMonoPro-116"/>
       <use x="659.999832" xlink:href="#DecimaMonoPro-101"/>
       <use x="719.999817" xlink:href="#DecimaMonoPro-100"/>
      </g>
     </g>
    </g>
    <g id="xtick_13">
     <g id="line2d_25">
      <path clip-path="url(#p0e0f25416b)" d="M 348.093168 601.92 
L 348.093168 158.4 
" style="fill:none;stroke:#cbcbcb;"/>
     </g>
     <g id="line2d_26"/>
     <g id="text_13">
      <!-- 15nn weighted -->
      <g style="fill:#303030;" transform="translate(323.951183 704.896537)rotate(-60)scale(0.14 -0.14)">
       <use xlink:href="#DecimaMonoPro-49"/>
       <use x="59.999985" xlink:href="#DecimaMonoPro-53"/>
       <use x="119.999969" xlink:href="#DecimaMonoPro-110"/>
       <use x="179.999954" xlink:href="#DecimaMonoPro-110"/>
       <use x="239.999939" xlink:href="#DecimaMonoPro-32"/>
       <use x="299.999924" xlink:href="#DecimaMonoPro-119"/>
       <use x="359.999908" xlink:href="#DecimaMonoPro-101"/>
       <use x="419.999893" xlink:href="#DecimaMonoPro-105"/>
       <use x="479.999878" xlink:href="#DecimaMonoPro-103"/>
       <use x="539.999863" xlink:href="#DecimaMonoPro-104"/>
       <use x="599.999847" xlink:href="#DecimaMonoPro-116"/>
       <use x="659.999832" xlink:href="#DecimaMonoPro-101"/>
       <use x="719.999817" xlink:href="#DecimaMonoPro-100"/>
      </g>
     </g>
    </g>
    <g id="xtick_14">
     <g id="line2d_27">
      <path clip-path="url(#p0e0f25416b)" d="M 372.219876 601.92 
L 372.219876 158.4 
" style="fill:none;stroke:#cbcbcb;"/>
     </g>
     <g id="line2d_28"/>
     <g id="text_14">
      <!-- 5nn -->
      <g style="fill:#303030;" transform="translate(369.077892 632.150403)rotate(-60)scale(0.14 -0.14)">
       <use xlink:href="#DecimaMonoPro-53"/>
       <use x="59.999985" xlink:href="#DecimaMonoPro-110"/>
       <use x="119.999969" xlink:href="#DecimaMonoPro-110"/>
      </g>
     </g>
    </g>
    <g id="xtick_15">
     <g id="line2d_29">
      <path clip-path="url(#p0e0f25416b)" d="M 396.346584 601.92 
L 396.346584 158.4 
" style="fill:none;stroke:#cbcbcb;"/>
     </g>
     <g id="line2d_30"/>
     <g id="text_15">
      <!-- 10nn -->
      <g style="fill:#303030;" transform="translate(391.1046 639.425016)rotate(-60)scale(0.14 -0.14)">
       <use xlink:href="#DecimaMonoPro-49"/>
       <use x="59.999985" xlink:href="#DecimaMonoPro-48"/>
       <use x="119.999969" xlink:href="#DecimaMonoPro-110"/>
       <use x="179.999954" xlink:href="#DecimaMonoPro-110"/>
      </g>
     </g>
    </g>
    <g id="xtick_16">
     <g id="line2d_31">
      <path clip-path="url(#p0e0f25416b)" d="M 420.473292 601.92 
L 420.473292 158.4 
" style="fill:none;stroke:#cbcbcb;"/>
     </g>
     <g id="line2d_32"/>
     <g id="text_16">
      <!-- 15nn -->
      <g style="fill:#303030;" transform="translate(415.231308 639.425016)rotate(-60)scale(0.14 -0.14)">
       <use xlink:href="#DecimaMonoPro-49"/>
       <use x="59.999985" xlink:href="#DecimaMonoPro-53"/>
       <use x="119.999969" xlink:href="#DecimaMonoPro-110"/>
       <use x="179.999954" xlink:href="#DecimaMonoPro-110"/>
      </g>
     </g>
    </g>
    <g id="xtick_17">
     <g id="line2d_33">
      <path clip-path="url(#p0e0f25416b)" d="M 444.6 601.92 
L 444.6 158.4 
" style="fill:none;stroke:#cbcbcb;"/>
     </g>
     <g id="line2d_34"/>
     <g id="text_17">
      <!-- rand -->
      <g style="fill:#303030;" transform="translate(439.358016 639.425016)rotate(-60)scale(0.14 -0.14)">
       <use xlink:href="#DecimaMonoPro-114"/>
       <use x="59.999985" xlink:href="#DecimaMonoPro-97"/>
       <use x="119.999969" xlink:href="#DecimaMonoPro-110"/>
       <use x="179.999954" xlink:href="#DecimaMonoPro-100"/>
      </g>
     </g>
    </g>
   </g>
   <g id="matplotlib.axis_2">
    <g id="ytick_1">
     <g id="line2d_35">
      <path clip-path="url(#p0e0f25416b)" d="M 56.16 581.76 
L 444.6 581.76 
" style="fill:none;stroke:#cbcbcb;"/>
     </g>
     <g id="line2d_36"/>
     <g id="text_18">
      <!-- 0.0 -->
      <defs>
       <path d="M 35.09375 7.5 
L 35.09375 2.59375 
Q 35.09375 0 32.5 0 
L 27.5 0 
Q 24.90625 0 24.90625 2.59375 
L 24.90625 7.5 
Q 24.90625 10.09375 27.5 10.09375 
L 32.5 10.09375 
Q 35.09375 10.09375 35.09375 7.5 
z
" id="DecimaMonoPro-46"/>
      </defs>
      <g style="fill:#303030;" transform="translate(27.46 586.666563)scale(0.14 -0.14)">
       <use xlink:href="#DecimaMonoPro-48"/>
       <use x="59.999985" xlink:href="#DecimaMonoPro-46"/>
       <use x="119.999969" xlink:href="#DecimaMonoPro-48"/>
      </g>
     </g>
    </g>
    <g id="ytick_2">
     <g id="line2d_37">
      <path clip-path="url(#p0e0f25416b)" d="M 56.16 501.12 
L 444.6 501.12 
" style="fill:none;stroke:#cbcbcb;"/>
     </g>
     <g id="line2d_38"/>
     <g id="text_19">
      <!-- 0.2 -->
      <g style="fill:#303030;" transform="translate(27.46 506.026563)scale(0.14 -0.14)">
       <use xlink:href="#DecimaMonoPro-48"/>
       <use x="59.999985" xlink:href="#DecimaMonoPro-46"/>
       <use x="119.999969" xlink:href="#DecimaMonoPro-50"/>
      </g>
     </g>
    </g>
    <g id="ytick_3">
     <g id="line2d_39">
      <path clip-path="url(#p0e0f25416b)" d="M 56.16 420.48 
L 444.6 420.48 
" style="fill:none;stroke:#cbcbcb;"/>
     </g>
     <g id="line2d_40"/>
     <g id="text_20">
      <!-- 0.4 -->
      <g style="fill:#303030;" transform="translate(27.46 425.386562)scale(0.14 -0.14)">
       <use xlink:href="#DecimaMonoPro-48"/>
       <use x="59.999985" xlink:href="#DecimaMonoPro-46"/>
       <use x="119.999969" xlink:href="#DecimaMonoPro-52"/>
      </g>
     </g>
    </g>
    <g id="ytick_4">
     <g id="line2d_41">
      <path clip-path="url(#p0e0f25416b)" d="M 56.16 339.84 
L 444.6 339.84 
" style="fill:none;stroke:#cbcbcb;"/>
     </g>
     <g id="line2d_42"/>
     <g id="text_21">
      <!-- 0.6 -->
      <g style="fill:#303030;" transform="translate(27.46 344.746562)scale(0.14 -0.14)">
       <use xlink:href="#DecimaMonoPro-48"/>
       <use x="59.999985" xlink:href="#DecimaMonoPro-46"/>
       <use x="119.999969" xlink:href="#DecimaMonoPro-54"/>
      </g>
     </g>
    </g>
    <g id="ytick_5">
     <g id="line2d_43">
      <path clip-path="url(#p0e0f25416b)" d="M 56.16 259.2 
L 444.6 259.2 
" style="fill:none;stroke:#cbcbcb;"/>
     </g>
     <g id="line2d_44"/>
     <g id="text_22">
      <!-- 0.8 -->
      <defs>
       <path d="M 48.09375 53.5 
L 48.09375 49.796875 
Q 48.09375 41.5 41.796875 36.40625 
Q 49 30.796875 49 21.703125 
L 49 17.40625 
Q 49 9.703125 43.640625 4.34375 
Q 38.296875 -1 30.5 -1 
L 29.59375 -1 
Q 21.796875 -1 16.390625 4.390625 
Q 11 9.796875 11 17.5 
L 11 21.703125 
Q 11 30.703125 18.296875 36.40625 
Q 11.796875 41.296875 11.796875 49.90625 
L 11.796875 53.5 
Q 11.796875 60.796875 16.9375 65.890625 
Q 22.09375 71 29.5 71 
L 30.40625 71 
Q 37.796875 71 42.9375 65.890625 
Q 48.09375 60.796875 48.09375 53.5 
z
M 40.59375 17.296875 
L 40.59375 21.59375 
Q 40.59375 26 37.5 29.09375 
Q 34.40625 32.203125 30 32.203125 
Q 25.59375 32.203125 22.5 29.09375 
Q 19.40625 26 19.40625 21.59375 
L 19.40625 17.40625 
Q 19.40625 13 22.546875 9.953125 
Q 25.703125 6.90625 30.203125 6.90625 
Q 34.5 6.90625 37.546875 9.90625 
Q 40.59375 12.90625 40.59375 17.296875 
z
M 39.703125 49.703125 
L 39.703125 53.09375 
Q 39.703125 57.296875 36.84375 60.1875 
Q 34 63.09375 29.796875 63.09375 
Q 25.796875 63.09375 23 60.1875 
Q 20.203125 57.296875 20.203125 53.09375 
L 20.203125 49.796875 
Q 20.203125 45.90625 22.84375 43 
Q 25.5 40.09375 29.59375 40.09375 
L 30.5 40.09375 
Q 34.296875 40.09375 37 42.84375 
Q 39.703125 45.59375 39.703125 49.703125 
z
" id="DecimaMonoPro-56"/>
      </defs>
      <g style="fill:#303030;" transform="translate(27.46 264.106562)scale(0.14 -0.14)">
       <use xlink:href="#DecimaMonoPro-48"/>
       <use x="59.999985" xlink:href="#DecimaMonoPro-46"/>
       <use x="119.999969" xlink:href="#DecimaMonoPro-56"/>
      </g>
     </g>
    </g>
    <g id="ytick_6">
     <g id="line2d_45">
      <path clip-path="url(#p0e0f25416b)" d="M 56.16 178.56 
L 444.6 178.56 
" style="fill:none;stroke:#cbcbcb;"/>
     </g>
     <g id="line2d_46"/>
     <g id="text_23">
      <!-- 1.0 -->
      <g style="fill:#303030;" transform="translate(27.46 183.466562)scale(0.14 -0.14)">
       <use xlink:href="#DecimaMonoPro-49"/>
       <use x="59.999985" xlink:href="#DecimaMonoPro-46"/>
       <use x="119.999969" xlink:href="#DecimaMonoPro-48"/>
      </g>
     </g>
    </g>
    <g id="text_24">
     <!-- Normalized Task Score -->
     <defs>
      <path d="M 51.59375 70 
L 60.40625 70 
L 60.40625 0 
L 50.09375 0 
L 18.5 54.5 
L 18.5 0 
L 9.703125 0 
L 9.703125 70 
L 20 70 
L 51.59375 15.296875 
z
" id="Apercu-78"/>
      <path d="M 12 6.796875 
Q 5.40625 14.5 5.40625 25.203125 
Q 5.40625 35.90625 12.046875 43.546875 
Q 18.703125 51.203125 29.59375 51.203125 
Q 40.5 51.203125 47.140625 43.546875 
Q 53.796875 35.90625 53.796875 25.203125 
Q 53.796875 14.5 47.140625 6.84375 
Q 40.5 -0.796875 29.59375 -0.796875 
Q 18.703125 -0.796875 12 6.796875 
z
M 18.09375 38.09375 
Q 14 32.703125 14 25.203125 
Q 14 17.703125 18.140625 12.25 
Q 22.296875 6.796875 29.59375 6.796875 
Q 36.90625 6.796875 41.046875 12.25 
Q 45.203125 17.703125 45.203125 25.203125 
Q 45.203125 32.703125 41.046875 38.140625 
Q 36.90625 43.59375 29.59375 43.59375 
Q 22.296875 43.59375 18.09375 38.09375 
z
" id="Apercu-111"/>
      <path d="M 39.296875 49.703125 
L 37.59375 42.203125 
Q 34.796875 43.59375 31.703125 43.59375 
Q 26 43.59375 21.796875 37.140625 
Q 17.59375 30.703125 17.59375 19.09375 
L 17.59375 0 
L 9.203125 0 
L 9.203125 50.40625 
L 17.59375 50.40625 
L 17.59375 41.796875 
Q 19.796875 46 24 48.59375 
Q 28.203125 51.203125 32.40625 51.203125 
Q 36.5 51.203125 39.296875 49.703125 
z
" id="Apercu-114"/>
      <path d="M 77.40625 35.5 
L 77.40625 0 
L 69 0 
L 69 33.703125 
Q 69 43.59375 60.90625 43.59375 
Q 55.203125 43.59375 51.34375 37.4375 
Q 47.5 31.296875 47.5 20.703125 
L 47.5 0 
L 39.09375 0 
L 39.09375 33.703125 
Q 39.09375 43.59375 31 43.59375 
Q 25.296875 43.59375 21.4375 37.4375 
Q 17.59375 31.296875 17.59375 20.703125 
L 17.59375 0 
L 9.203125 0 
L 9.203125 50.40625 
L 17.59375 50.40625 
L 17.59375 41.09375 
Q 22.703125 51.203125 33.296875 51.203125 
Q 38.5 51.203125 42.046875 48.453125 
Q 45.59375 45.703125 46.796875 40.703125 
Q 52.40625 51.203125 63.203125 51.203125 
Q 70 51.203125 73.703125 47.046875 
Q 77.40625 42.90625 77.40625 35.5 
z
" id="Apercu-109"/>
      <path d="M 14.203125 14.5 
Q 14.203125 10.90625 16.34375 8.84375 
Q 18.5 6.796875 22.5 6.796875 
Q 28.203125 6.796875 32.390625 10.546875 
Q 36.59375 14.296875 36.59375 22.203125 
L 36.59375 23.40625 
L 27.59375 23.40625 
Q 21.203125 23.40625 17.703125 21.09375 
Q 14.203125 18.796875 14.203125 14.5 
z
M 45 32.203125 
L 45 0 
L 38.40625 0 
L 37 7.09375 
Q 31.5 -0.796875 21.203125 -0.796875 
Q 14.40625 -0.796875 10 3 
Q 5.59375 6.796875 5.59375 14.5 
Q 5.59375 22.5 11.6875 26.75 
Q 17.796875 31 28.40625 31 
L 36.59375 31 
L 36.59375 33.203125 
Q 36.59375 43.59375 25.59375 43.59375 
Q 21.59375 43.59375 18.75 41.5 
Q 15.90625 39.40625 15.09375 35.703125 
L 7.703125 37.40625 
Q 8.703125 43.796875 13.59375 47.5 
Q 18.5 51.203125 25.59375 51.203125 
Q 34.40625 51.203125 39.703125 46.5 
Q 45 41.796875 45 32.203125 
z
" id="Apercu-97"/>
      <path d="M 9 70.796875 
L 17.40625 70.796875 
L 17.40625 0 
L 9 0 
z
" id="Apercu-108"/>
      <path d="M 9.296875 50.40625 
L 17.703125 50.40625 
L 17.703125 0 
L 9.296875 0 
z
M 7.203125 64.40625 
Q 7.203125 67.09375 9 68.9375 
Q 10.796875 70.796875 13.5 70.796875 
Q 16.203125 70.796875 18 68.9375 
Q 19.796875 67.09375 19.796875 64.40625 
Q 19.796875 61.796875 18 60 
Q 16.203125 58.203125 13.5 58.203125 
Q 10.796875 58.203125 9 60 
Q 7.203125 61.796875 7.203125 64.40625 
z
" id="Apercu-105"/>
      <path d="M 6.296875 42.796875 
L 6.296875 50.40625 
L 40.09375 50.40625 
L 40.09375 46.796875 
L 16.203125 7.59375 
L 41 7.59375 
L 41 0 
L 5 0 
L 5 3.59375 
L 28.796875 42.796875 
z
" id="Apercu-122"/>
      <path d="M 51 27.296875 
L 51 23.40625 
L 14 23.40625 
Q 14.40625 16 18.046875 11.390625 
Q 21.703125 6.796875 28.203125 6.796875 
Q 33.5 6.796875 36.75 9.140625 
Q 40 11.5 42.203125 16.40625 
L 49.59375 13.203125 
Q 46.09375 5.796875 41.046875 2.5 
Q 36 -0.796875 28.203125 -0.796875 
Q 17.296875 -0.796875 11.34375 6.75 
Q 5.40625 14.296875 5.40625 25.1875 
Q 5.40625 36.09375 11.34375 43.640625 
Q 17.296875 51.203125 28.203125 51.203125 
Q 38.90625 51.203125 44.953125 44.25 
Q 51 37.296875 51 27.296875 
z
M 28.203125 43.59375 
Q 22.59375 43.59375 19.140625 40.1875 
Q 15.703125 36.796875 14.5 31 
L 42.203125 31 
Q 41 36.703125 37.5 40.140625 
Q 34 43.59375 28.203125 43.59375 
z
" id="Apercu-101"/>
      <path d="M 27.796875 51.203125 
Q 32.296875 51.203125 36.6875 49 
Q 41.09375 46.796875 42.5 44.40625 
L 42.5 70.796875 
L 50.90625 70.796875 
L 50.90625 0 
L 42.5 0 
L 42.5 6.203125 
Q 40.59375 3.296875 36.4375 1.25 
Q 32.296875 -0.796875 27.796875 -0.796875 
Q 17 -0.796875 11.203125 6.34375 
Q 5.40625 13.5 5.40625 25.203125 
Q 5.40625 36.90625 11.203125 44.046875 
Q 17 51.203125 27.796875 51.203125 
z
M 28.59375 6.796875 
Q 35.40625 6.796875 39.296875 11.890625 
Q 43.203125 17 43.203125 25.203125 
Q 43.203125 33.40625 39.296875 38.5 
Q 35.40625 43.59375 28.59375 43.59375 
Q 22 43.59375 18 38.5 
Q 14 33.40625 14 25.203125 
Q 14 17 18 11.890625 
Q 22 6.796875 28.59375 6.796875 
z
" id="Apercu-100"/>
      <path id="Apercu-32"/>
      <path d="M 1.5 61.59375 
L 1.5 70 
L 50.703125 70 
L 50.703125 61.59375 
L 30.5 61.59375 
L 30.5 0 
L 21.703125 0 
L 21.703125 61.59375 
z
" id="Apercu-84"/>
      <path d="M 23.59375 51.203125 
Q 32.796875 51.203125 38.203125 43.5 
L 32.5 38.59375 
Q 27.90625 43.59375 23.296875 43.59375 
Q 20.703125 43.59375 18.953125 41.890625 
Q 17.203125 40.203125 17.203125 37.203125 
Q 17.203125 34.703125 19.59375 32.890625 
Q 22 31.09375 25.453125 29.75 
Q 28.90625 28.40625 32.34375 26.796875 
Q 35.796875 25.203125 38.1875 22.25 
Q 40.59375 19.296875 40.59375 15.203125 
Q 40.59375 7.703125 36.09375 3.453125 
Q 31.59375 -0.796875 23.90625 -0.796875 
Q 16.796875 -0.796875 12.046875 3.09375 
Q 7.296875 7 5.09375 12.796875 
L 12.203125 16.703125 
Q 16.203125 6.796875 23.90625 6.796875 
Q 32 6.796875 32 14.703125 
Q 32 17.203125 29.59375 19 
Q 27.203125 20.796875 23.796875 22.046875 
Q 20.40625 23.296875 17 24.890625 
Q 13.59375 26.5 11.1875 29.640625 
Q 8.796875 32.796875 8.796875 37.296875 
Q 8.796875 43.296875 12.84375 47.25 
Q 16.90625 51.203125 23.59375 51.203125 
z
" id="Apercu-115"/>
      <path d="M 9.203125 70.796875 
L 17.59375 70.796875 
L 17.59375 29.296875 
L 37.203125 50.40625 
L 48 50.40625 
L 26.59375 27.296875 
L 49.59375 0 
L 38.90625 0 
L 17.59375 25.296875 
L 17.59375 0 
L 9.203125 0 
z
" id="Apercu-107"/>
      <path d="M 44 59.59375 
L 36.90625 55 
Q 34.5 59.296875 31.890625 60.84375 
Q 29.296875 62.40625 25.796875 62.40625 
Q 22.203125 62.40625 19.796875 59.796875 
Q 17.40625 57.203125 17.40625 53.703125 
Q 17.40625 51.203125 18.296875 49.296875 
Q 19.203125 47.40625 21.546875 45.65625 
Q 23.90625 43.90625 25.5 43 
Q 27.09375 42.09375 30.90625 40.203125 
Q 33.90625 38.703125 35.75 37.640625 
Q 37.59375 36.59375 40.09375 34.6875 
Q 42.59375 32.796875 44.046875 30.890625 
Q 45.5 29 46.546875 26.203125 
Q 47.59375 23.40625 47.59375 20.09375 
Q 47.59375 11.703125 42.203125 5.796875 
Q 36.203125 -0.796875 26.59375 -0.796875 
Q 18.09375 -0.796875 11.9375 4.5 
Q 5.796875 9.796875 4 18.09375 
L 11.59375 22.703125 
Q 13.59375 15.59375 17 11.59375 
Q 20.40625 7.59375 26.59375 7.59375 
Q 32.703125 7.59375 36.09375 11.59375 
Q 38.796875 14.90625 38.796875 19.90625 
Q 38.796875 24.5 35.34375 27.5 
Q 31.90625 30.5 25.59375 33.5 
Q 21.5 35.40625 19 36.90625 
Q 16.5 38.40625 13.796875 40.75 
Q 11.09375 43.09375 9.84375 46.09375 
Q 8.59375 49.09375 8.59375 53 
Q 8.59375 60.59375 13.6875 65.6875 
Q 18.796875 70.796875 25.796875 70.796875 
Q 32.796875 70.796875 37 67.890625 
Q 41.203125 65 44 59.59375 
z
" id="Apercu-83"/>
      <path d="M 42.09375 16.09375 
L 49.40625 13.09375 
Q 43.296875 -0.796875 28.296875 -0.796875 
Q 17.296875 -0.796875 11.34375 6.75 
Q 5.40625 14.296875 5.40625 25.1875 
Q 5.40625 36.09375 11.34375 43.640625 
Q 17.296875 51.203125 28.296875 51.203125 
Q 43.296875 51.203125 49.40625 37.296875 
L 42.09375 34.296875 
Q 38.09375 43.59375 28.296875 43.59375 
Q 21.296875 43.59375 17.640625 38.4375 
Q 14 33.296875 14 25.1875 
Q 14 17.09375 17.640625 11.9375 
Q 21.296875 6.796875 28.296875 6.796875 
Q 38.09375 6.796875 42.09375 16.09375 
z
" id="Apercu-99"/>
     </defs>
     <g style="opacity:0.75;" transform="translate(20.603125 452.987344)rotate(-90)scale(0.14 -0.14)">
      <use xlink:href="#Apercu-78"/>
      <use x="70.099991" xlink:href="#Apercu-111"/>
      <use x="129.299988" xlink:href="#Apercu-114"/>
      <use x="170.599976" xlink:href="#Apercu-109"/>
      <use x="256.799957" xlink:href="#Apercu-97"/>
      <use x="308.599945" xlink:href="#Apercu-108"/>
      <use x="334.368683" xlink:href="#Apercu-105"/>
      <use x="361.353043" xlink:href="#Apercu-122"/>
      <use x="406.953033" xlink:href="#Apercu-101"/>
      <use x="462.953018" xlink:href="#Apercu-100"/>
      <use x="523.053009" xlink:href="#Apercu-32"/>
      <use x="549.852997" xlink:href="#Apercu-84"/>
      <use x="602.052994" xlink:href="#Apercu-97"/>
      <use x="653.852982" xlink:href="#Apercu-115"/>
      <use x="699.937347" xlink:href="#Apercu-107"/>
      <use x="751.037338" xlink:href="#Apercu-32"/>
      <use x="777.837326" xlink:href="#Apercu-83"/>
      <use x="830.137314" xlink:href="#Apercu-99"/>
      <use x="883.937302" xlink:href="#Apercu-111"/>
      <use x="943.137299" xlink:href="#Apercu-114"/>
      <use x="984.437286" xlink:href="#Apercu-101"/>
     </g>
    </g>
   </g>
   <g id="line2d_47">
    <path clip-path="url(#p0e0f25416b)" d="M 58.572671 221.21856 
L 82.699379 221.0976 
L 106.826087 221.17824 
L 130.952795 221.01696 
L 155.079503 222.912 
L 179.206211 221.21856 
L 203.332919 221.21856 
L 227.459627 221.21856 
L 251.586335 221.21856 
L 275.713043 221.94432 
L 299.839752 230.41152 
L 323.96646 229.28256 
L 348.093168 229.7664 
L 372.219876 229.80672 
L 396.346584 228.31488 
L 420.473292 229.28256 
L 444.6 263.6352 
" style="fill:none;stroke:#000004;"/>
    <defs>
     <path d="M 0 1.75 
C 0.464105 1.75 0.909265 1.565609 1.237437 1.237437 
C 1.565609 0.909265 1.75 0.464105 1.75 0 
C 1.75 -0.464105 1.565609 -0.909265 1.237437 -1.237437 
C 0.909265 -1.565609 0.464105 -1.75 0 -1.75 
C -0.464105 -1.75 -0.909265 -1.565609 -1.237437 -1.237437 
C -1.565609 -0.909265 -1.75 -0.464105 -1.75 0 
C -1.75 0.464105 -1.565609 0.909265 -1.237437 1.237437 
C -0.909265 1.565609 -0.464105 1.75 0 1.75 
z
" id="mc8d890daa8" style="stroke:#000004;"/>
    </defs>
    <g clip-path="url(#p0e0f25416b)">
     <use style="fill:#000004;stroke:#000004;" x="58.572671" xlink:href="#mc8d890daa8" y="221.21856"/>
     <use style="fill:#000004;stroke:#000004;" x="82.699379" xlink:href="#mc8d890daa8" y="221.0976"/>
     <use style="fill:#000004;stroke:#000004;" x="106.826087" xlink:href="#mc8d890daa8" y="221.17824"/>
     <use style="fill:#000004;stroke:#000004;" x="130.952795" xlink:href="#mc8d890daa8" y="221.01696"/>
     <use style="fill:#000004;stroke:#000004;" x="155.079503" xlink:href="#mc8d890daa8" y="222.912"/>
     <use style="fill:#000004;stroke:#000004;" x="179.206211" xlink:href="#mc8d890daa8" y="221.21856"/>
     <use style="fill:#000004;stroke:#000004;" x="203.332919" xlink:href="#mc8d890daa8" y="221.21856"/>
     <use style="fill:#000004;stroke:#000004;" x="227.459627" xlink:href="#mc8d890daa8" y="221.21856"/>
     <use style="fill:#000004;stroke:#000004;" x="251.586335" xlink:href="#mc8d890daa8" y="221.21856"/>
     <use style="fill:#000004;stroke:#000004;" x="275.713043" xlink:href="#mc8d890daa8" y="221.94432"/>
     <use style="fill:#000004;stroke:#000004;" x="299.839752" xlink:href="#mc8d890daa8" y="230.41152"/>
     <use style="fill:#000004;stroke:#000004;" x="323.96646" xlink:href="#mc8d890daa8" y="229.28256"/>
     <use style="fill:#000004;stroke:#000004;" x="348.093168" xlink:href="#mc8d890daa8" y="229.7664"/>
     <use style="fill:#000004;stroke:#000004;" x="372.219876" xlink:href="#mc8d890daa8" y="229.80672"/>
     <use style="fill:#000004;stroke:#000004;" x="396.346584" xlink:href="#mc8d890daa8" y="228.31488"/>
     <use style="fill:#000004;stroke:#000004;" x="420.473292" xlink:href="#mc8d890daa8" y="229.28256"/>
     <use style="fill:#000004;stroke:#000004;" x="444.6" xlink:href="#mc8d890daa8" y="263.6352"/>
    </g>
   </g>
   <g id="line2d_48">
    <path clip-path="url(#p0e0f25416b)" d="M 58.572671 273.9168 
L 82.699379 273.95712 
L 106.826087 274.07808 
L 130.952795 274.44096 
L 155.079503 275.36832 
L 179.206211 273.95712 
L 203.332919 273.9168 
L 227.459627 273.9168 
L 251.586335 273.95712 
L 275.713043 274.36032 
L 299.839752 308.1888 
L 323.96646 305.44704 
L 348.093168 306.61632 
L 372.219876 307.86624 
L 396.346584 305.60832 
L 420.473292 305.48736 
L 444.6 364.99968 
" style="fill:none;stroke:#2c115f;"/>
    <defs>
     <path d="M -0.49999 0.49999 
L 0.50001 0.49999 
L 0.50001 -0.50001 
L -0.49999 -0.50001 
z
" id="mfe2c1cc3f2"/>
    </defs>
    <g clip-path="url(#p0e0f25416b)">
     <use style="fill:#2c115f;" x="58.572671" xlink:href="#mfe2c1cc3f2" y="273.9168"/>
     <use style="fill:#2c115f;" x="82.699379" xlink:href="#mfe2c1cc3f2" y="273.95712"/>
     <use style="fill:#2c115f;" x="106.826087" xlink:href="#mfe2c1cc3f2" y="274.07808"/>
     <use style="fill:#2c115f;" x="130.952795" xlink:href="#mfe2c1cc3f2" y="274.44096"/>
     <use style="fill:#2c115f;" x="155.079503" xlink:href="#mfe2c1cc3f2" y="275.36832"/>
     <use style="fill:#2c115f;" x="179.206211" xlink:href="#mfe2c1cc3f2" y="273.95712"/>
     <use style="fill:#2c115f;" x="203.332919" xlink:href="#mfe2c1cc3f2" y="273.9168"/>
     <use style="fill:#2c115f;" x="227.459627" xlink:href="#mfe2c1cc3f2" y="273.9168"/>
     <use style="fill:#2c115f;" x="251.586335" xlink:href="#mfe2c1cc3f2" y="273.95712"/>
     <use style="fill:#2c115f;" x="275.713043" xlink:href="#mfe2c1cc3f2" y="274.36032"/>
     <use style="fill:#2c115f;" x="299.839752" xlink:href="#mfe2c1cc3f2" y="308.1888"/>
     <use style="fill:#2c115f;" x="323.96646" xlink:href="#mfe2c1cc3f2" y="305.44704"/>
     <use style="fill:#2c115f;" x="348.093168" xlink:href="#mfe2c1cc3f2" y="306.61632"/>
     <use style="fill:#2c115f;" x="372.219876" xlink:href="#mfe2c1cc3f2" y="307.86624"/>
     <use style="fill:#2c115f;" x="396.346584" xlink:href="#mfe2c1cc3f2" y="305.60832"/>
     <use style="fill:#2c115f;" x="420.473292" xlink:href="#mfe2c1cc3f2" y="305.48736"/>
     <use style="fill:#2c115f;" x="444.6" xlink:href="#mfe2c1cc3f2" y="364.99968"/>
    </g>
   </g>
   <g id="line2d_49">
    <path clip-path="url(#p0e0f25416b)" d="M 58.572671 286.2144 
L 82.699379 297.02016 
L 106.826087 292.0608 
L 130.952795 292.10112 
L 155.079503 303.552 
L 179.206211 286.09344 
L 203.332919 287.6256 
L 227.459627 293.02848 
L 251.586335 294.23808 
L 275.713043 312.2208 
L 299.839752 324.59904 
L 323.96646 333.55008 
L 348.093168 329.9616 
L 372.219876 326.05056 
L 396.346584 330.04224 
L 420.473292 329.5584 
L 444.6 357.70176 
" style="fill:none;stroke:#721f81;"/>
    <defs>
     <path d="M 0 3.5 
C 0.928211 3.5 1.81853 3.131218 2.474874 2.474874 
C 3.131218 1.81853 3.5 0.928211 3.5 0 
C 3.5 -0.928211 3.131218 -1.81853 2.474874 -2.474874 
C 1.81853 -3.131218 0.928211 -3.5 0 -3.5 
C -0.928211 -3.5 -1.81853 -3.131218 -2.474874 -2.474874 
C -3.131218 -1.81853 -3.5 -0.928211 -3.5 0 
C -3.5 0.928211 -3.131218 1.81853 -2.474874 2.474874 
C -1.81853 3.131218 -0.928211 3.5 0 3.5 
z
" id="m3359cc0a9f" style="stroke:#721f81;"/>
    </defs>
    <g clip-path="url(#p0e0f25416b)">
     <use style="fill:#721f81;stroke:#721f81;" x="58.572671" xlink:href="#m3359cc0a9f" y="286.2144"/>
     <use style="fill:#721f81;stroke:#721f81;" x="82.699379" xlink:href="#m3359cc0a9f" y="297.02016"/>
     <use style="fill:#721f81;stroke:#721f81;" x="106.826087" xlink:href="#m3359cc0a9f" y="292.0608"/>
     <use style="fill:#721f81;stroke:#721f81;" x="130.952795" xlink:href="#m3359cc0a9f" y="292.10112"/>
     <use style="fill:#721f81;stroke:#721f81;" x="155.079503" xlink:href="#m3359cc0a9f" y="303.552"/>
     <use style="fill:#721f81;stroke:#721f81;" x="179.206211" xlink:href="#m3359cc0a9f" y="286.09344"/>
     <use style="fill:#721f81;stroke:#721f81;" x="203.332919" xlink:href="#m3359cc0a9f" y="287.6256"/>
     <use style="fill:#721f81;stroke:#721f81;" x="227.459627" xlink:href="#m3359cc0a9f" y="293.02848"/>
     <use style="fill:#721f81;stroke:#721f81;" x="251.586335" xlink:href="#m3359cc0a9f" y="294.23808"/>
     <use style="fill:#721f81;stroke:#721f81;" x="275.713043" xlink:href="#m3359cc0a9f" y="312.2208"/>
     <use style="fill:#721f81;stroke:#721f81;" x="299.839752" xlink:href="#m3359cc0a9f" y="324.59904"/>
     <use style="fill:#721f81;stroke:#721f81;" x="323.96646" xlink:href="#m3359cc0a9f" y="333.55008"/>
     <use style="fill:#721f81;stroke:#721f81;" x="348.093168" xlink:href="#m3359cc0a9f" y="329.9616"/>
     <use style="fill:#721f81;stroke:#721f81;" x="372.219876" xlink:href="#m3359cc0a9f" y="326.05056"/>
     <use style="fill:#721f81;stroke:#721f81;" x="396.346584" xlink:href="#m3359cc0a9f" y="330.04224"/>
     <use style="fill:#721f81;stroke:#721f81;" x="420.473292" xlink:href="#m3359cc0a9f" y="329.5584"/>
     <use style="fill:#721f81;stroke:#721f81;" x="444.6" xlink:href="#m3359cc0a9f" y="357.70176"/>
    </g>
   </g>
   <g id="line2d_50">
    <path clip-path="url(#p0e0f25416b)" d="M 58.572671 217.10592 
L 82.699379 215.17056 
L 106.826087 216.62208 
L 130.952795 216.29952 
L 155.079503 222.58944 
L 179.206211 216.29952 
L 203.332919 215.6544 
L 227.459627 215.33184 
L 251.586335 215.49312 
L 275.713043 233.87904 
L 299.839752 240.81408 
L 323.96646 240.49152 
L 348.093168 242.42688 
L 372.219876 244.52352 
L 396.346584 242.2656 
L 420.473292 245.16864 
L 444.6 290.48832 
" style="fill:none;stroke:#b73779;"/>
    <defs>
     <path d="M -0 3.5 
L 3.5 -3.5 
L -3.5 -3.5 
z
" id="m899ea55506" style="stroke:#b73779;stroke-linejoin:miter;"/>
    </defs>
    <g clip-path="url(#p0e0f25416b)">
     <use style="fill:#b73779;stroke:#b73779;stroke-linejoin:miter;" x="58.572671" xlink:href="#m899ea55506" y="217.10592"/>
     <use style="fill:#b73779;stroke:#b73779;stroke-linejoin:miter;" x="82.699379" xlink:href="#m899ea55506" y="215.17056"/>
     <use style="fill:#b73779;stroke:#b73779;stroke-linejoin:miter;" x="106.826087" xlink:href="#m899ea55506" y="216.62208"/>
     <use style="fill:#b73779;stroke:#b73779;stroke-linejoin:miter;" x="130.952795" xlink:href="#m899ea55506" y="216.29952"/>
     <use style="fill:#b73779;stroke:#b73779;stroke-linejoin:miter;" x="155.079503" xlink:href="#m899ea55506" y="222.58944"/>
     <use style="fill:#b73779;stroke:#b73779;stroke-linejoin:miter;" x="179.206211" xlink:href="#m899ea55506" y="216.29952"/>
     <use style="fill:#b73779;stroke:#b73779;stroke-linejoin:miter;" x="203.332919" xlink:href="#m899ea55506" y="215.6544"/>
     <use style="fill:#b73779;stroke:#b73779;stroke-linejoin:miter;" x="227.459627" xlink:href="#m899ea55506" y="215.33184"/>
     <use style="fill:#b73779;stroke:#b73779;stroke-linejoin:miter;" x="251.586335" xlink:href="#m899ea55506" y="215.49312"/>
     <use style="fill:#b73779;stroke:#b73779;stroke-linejoin:miter;" x="275.713043" xlink:href="#m899ea55506" y="233.87904"/>
     <use style="fill:#b73779;stroke:#b73779;stroke-linejoin:miter;" x="299.839752" xlink:href="#m899ea55506" y="240.81408"/>
     <use style="fill:#b73779;stroke:#b73779;stroke-linejoin:miter;" x="323.96646" xlink:href="#m899ea55506" y="240.49152"/>
     <use style="fill:#b73779;stroke:#b73779;stroke-linejoin:miter;" x="348.093168" xlink:href="#m899ea55506" y="242.42688"/>
     <use style="fill:#b73779;stroke:#b73779;stroke-linejoin:miter;" x="372.219876" xlink:href="#m899ea55506" y="244.52352"/>
     <use style="fill:#b73779;stroke:#b73779;stroke-linejoin:miter;" x="396.346584" xlink:href="#m899ea55506" y="242.2656"/>
     <use style="fill:#b73779;stroke:#b73779;stroke-linejoin:miter;" x="420.473292" xlink:href="#m899ea55506" y="245.16864"/>
     <use style="fill:#b73779;stroke:#b73779;stroke-linejoin:miter;" x="444.6" xlink:href="#m899ea55506" y="290.48832"/>
    </g>
   </g>
   <g id="line2d_51">
    <path clip-path="url(#p0e0f25416b)" d="M 58.572671 265.16736 
L 82.699379 267.42528 
L 106.826087 265.16736 
L 130.952795 267.10272 
L 155.079503 267.42528 
L 179.206211 266.21568 
L 203.332919 264.40128 
L 227.459627 265.4496 
L 251.586335 263.79648 
L 275.713043 276.05376 
L 299.839752 293.55264 
L 323.96646 294.64128 
L 348.093168 293.2704 
L 372.219876 295.0848 
L 396.346584 299.3184 
L 420.473292 292.0608 
L 444.6 317.30112 
" style="fill:none;stroke:#f1605d;"/>
    <defs>
     <path d="M -3.5 3.5 
L 3.5 3.5 
L 3.5 -3.5 
L -3.5 -3.5 
z
" id="med950a1fbf" style="stroke:#f1605d;stroke-linejoin:miter;"/>
    </defs>
    <g clip-path="url(#p0e0f25416b)">
     <use style="fill:#f1605d;stroke:#f1605d;stroke-linejoin:miter;" x="58.572671" xlink:href="#med950a1fbf" y="265.16736"/>
     <use style="fill:#f1605d;stroke:#f1605d;stroke-linejoin:miter;" x="82.699379" xlink:href="#med950a1fbf" y="267.42528"/>
     <use style="fill:#f1605d;stroke:#f1605d;stroke-linejoin:miter;" x="106.826087" xlink:href="#med950a1fbf" y="265.16736"/>
     <use style="fill:#f1605d;stroke:#f1605d;stroke-linejoin:miter;" x="130.952795" xlink:href="#med950a1fbf" y="267.10272"/>
     <use style="fill:#f1605d;stroke:#f1605d;stroke-linejoin:miter;" x="155.079503" xlink:href="#med950a1fbf" y="267.42528"/>
     <use style="fill:#f1605d;stroke:#f1605d;stroke-linejoin:miter;" x="179.206211" xlink:href="#med950a1fbf" y="266.21568"/>
     <use style="fill:#f1605d;stroke:#f1605d;stroke-linejoin:miter;" x="203.332919" xlink:href="#med950a1fbf" y="264.40128"/>
     <use style="fill:#f1605d;stroke:#f1605d;stroke-linejoin:miter;" x="227.459627" xlink:href="#med950a1fbf" y="265.4496"/>
     <use style="fill:#f1605d;stroke:#f1605d;stroke-linejoin:miter;" x="251.586335" xlink:href="#med950a1fbf" y="263.79648"/>
     <use style="fill:#f1605d;stroke:#f1605d;stroke-linejoin:miter;" x="275.713043" xlink:href="#med950a1fbf" y="276.05376"/>
     <use style="fill:#f1605d;stroke:#f1605d;stroke-linejoin:miter;" x="299.839752" xlink:href="#med950a1fbf" y="293.55264"/>
     <use style="fill:#f1605d;stroke:#f1605d;stroke-linejoin:miter;" x="323.96646" xlink:href="#med950a1fbf" y="294.64128"/>
     <use style="fill:#f1605d;stroke:#f1605d;stroke-linejoin:miter;" x="348.093168" xlink:href="#med950a1fbf" y="293.2704"/>
     <use style="fill:#f1605d;stroke:#f1605d;stroke-linejoin:miter;" x="372.219876" xlink:href="#med950a1fbf" y="295.0848"/>
     <use style="fill:#f1605d;stroke:#f1605d;stroke-linejoin:miter;" x="396.346584" xlink:href="#med950a1fbf" y="299.3184"/>
     <use style="fill:#f1605d;stroke:#f1605d;stroke-linejoin:miter;" x="420.473292" xlink:href="#med950a1fbf" y="292.0608"/>
     <use style="fill:#f1605d;stroke:#f1605d;stroke-linejoin:miter;" x="444.6" xlink:href="#med950a1fbf" y="317.30112"/>
    </g>
   </g>
   <g id="line2d_52">
    <path clip-path="url(#p0e0f25416b)" d="M 58.572671 307.14048 
L 82.699379 308.87424 
L 106.826087 178.56 
L 130.952795 303.18912 
L 155.079503 323.75232 
L 179.206211 308.47104 
L 203.332919 306.53568 
L 227.459627 307.26144 
L 251.586335 178.56 
L 275.713043 178.56 
L 299.839752 178.56 
L 323.96646 321.4944 
L 348.093168 178.56 
L 372.219876 320.80896 
L 396.346584 322.5024 
L 420.473292 325.40544 
L 444.6 178.56 
" style="fill:none;stroke:#feb078;"/>
    <defs>
     <path d="M 0 -3.5 
L -3.328698 -1.081559 
L -2.057248 2.831559 
L 2.057248 2.831559 
L 3.328698 -1.081559 
z
" id="mcbf7b40912" style="stroke:#feb078;stroke-linejoin:miter;"/>
    </defs>
    <g clip-path="url(#p0e0f25416b)">
     <use style="fill:#feb078;stroke:#feb078;stroke-linejoin:miter;" x="58.572671" xlink:href="#mcbf7b40912" y="307.14048"/>
     <use style="fill:#feb078;stroke:#feb078;stroke-linejoin:miter;" x="82.699379" xlink:href="#mcbf7b40912" y="308.87424"/>
     <use style="fill:#feb078;stroke:#feb078;stroke-linejoin:miter;" x="106.826087" xlink:href="#mcbf7b40912" y="178.56"/>
     <use style="fill:#feb078;stroke:#feb078;stroke-linejoin:miter;" x="130.952795" xlink:href="#mcbf7b40912" y="303.18912"/>
     <use style="fill:#feb078;stroke:#feb078;stroke-linejoin:miter;" x="155.079503" xlink:href="#mcbf7b40912" y="323.75232"/>
     <use style="fill:#feb078;stroke:#feb078;stroke-linejoin:miter;" x="179.206211" xlink:href="#mcbf7b40912" y="308.47104"/>
     <use style="fill:#feb078;stroke:#feb078;stroke-linejoin:miter;" x="203.332919" xlink:href="#mcbf7b40912" y="306.53568"/>
     <use style="fill:#feb078;stroke:#feb078;stroke-linejoin:miter;" x="227.459627" xlink:href="#mcbf7b40912" y="307.26144"/>
     <use style="fill:#feb078;stroke:#feb078;stroke-linejoin:miter;" x="251.586335" xlink:href="#mcbf7b40912" y="178.56"/>
     <use style="fill:#feb078;stroke:#feb078;stroke-linejoin:miter;" x="275.713043" xlink:href="#mcbf7b40912" y="178.56"/>
     <use style="fill:#feb078;stroke:#feb078;stroke-linejoin:miter;" x="299.839752" xlink:href="#mcbf7b40912" y="178.56"/>
     <use style="fill:#feb078;stroke:#feb078;stroke-linejoin:miter;" x="323.96646" xlink:href="#mcbf7b40912" y="321.4944"/>
     <use style="fill:#feb078;stroke:#feb078;stroke-linejoin:miter;" x="348.093168" xlink:href="#mcbf7b40912" y="178.56"/>
     <use style="fill:#feb078;stroke:#feb078;stroke-linejoin:miter;" x="372.219876" xlink:href="#mcbf7b40912" y="320.80896"/>
     <use style="fill:#feb078;stroke:#feb078;stroke-linejoin:miter;" x="396.346584" xlink:href="#mcbf7b40912" y="322.5024"/>
     <use style="fill:#feb078;stroke:#feb078;stroke-linejoin:miter;" x="420.473292" xlink:href="#mcbf7b40912" y="325.40544"/>
     <use style="fill:#feb078;stroke:#feb078;stroke-linejoin:miter;" x="444.6" xlink:href="#mcbf7b40912" y="178.56"/>
    </g>
   </g>
   <g id="line2d_53">
    <path clip-path="url(#p0e0f25416b)" d="M 56.16 581.76 
L 444.6 581.76 
" style="fill:none;stroke:#000000;stroke-opacity:0.7;stroke-width:1.3;"/>
   </g>
   <g id="patch_3">
    <path d="M 56.16 601.92 
L 56.16 158.4 
" style="fill:none;stroke:#f0f0f0;stroke-linecap:square;stroke-linejoin:miter;stroke-width:3;"/>
   </g>
   <g id="patch_4">
    <path d="M 444.6 601.92 
L 444.6 158.4 
" style="fill:none;stroke:#f0f0f0;stroke-linecap:square;stroke-linejoin:miter;stroke-width:3;"/>
   </g>
   <g id="patch_5">
    <path d="M 56.16 601.92 
L 444.6 601.92 
" style="fill:none;stroke:#f0f0f0;stroke-linecap:square;stroke-linejoin:miter;stroke-width:3;"/>
   </g>
   <g id="patch_6">
    <path d="M 56.16 158.4 
L 444.6 158.4 
" style="fill:none;stroke:#f0f0f0;stroke-linecap:square;stroke-linejoin:miter;stroke-width:3;"/>
   </g>
   <g id="patch_7">
    <path d="M 0 792 
L 468 792 
L 468 769.777778 
L 0 769.777778 
z
" style="fill:#808080;"/>
   </g>
   <g id="text_25">
    <!-- OSU-SlaTe -->
    <defs>
     <path d="M 50.90625 25.90625 
L 50.90625 44 
Q 50.90625 52.40625 44.75 58.40625 
Q 38.59375 64.40625 30 64.40625 
Q 21.296875 64.40625 15.09375 58.40625 
Q 8.90625 52.40625 8.90625 44 
L 8.90625 25.90625 
Q 8.90625 17.5 15.09375 11.453125 
Q 21.296875 5.40625 30 5.40625 
Q 38.59375 5.40625 44.75 11.453125 
Q 50.90625 17.5 50.90625 25.90625 
z
M 57.703125 43.203125 
L 57.703125 26.59375 
Q 57.703125 15.203125 49.59375 7.09375 
Q 41.5 -1 30 -1 
Q 18.40625 -1 10.296875 7.09375 
Q 2.203125 15.203125 2.203125 26.59375 
L 2.203125 43.203125 
Q 2.203125 54.59375 10.296875 62.6875 
Q 18.40625 70.796875 30 70.796875 
Q 41.5 70.796875 49.59375 62.6875 
Q 57.703125 54.59375 57.703125 43.203125 
z
M 38.59375 29.40625 
L 41.40625 29.40625 
Q 42.40625 29.40625 42.90625 28.84375 
Q 43.40625 28.296875 43.40625 27.59375 
Q 43.40625 21.59375 39.796875 17.9375 
Q 36.203125 14.296875 30.40625 14.296875 
Q 24.40625 14.296875 20.75 17.9375 
Q 17.09375 21.59375 17.09375 27.09375 
L 17.09375 43.40625 
Q 17.09375 48.703125 20.75 52.390625 
Q 24.40625 56.09375 30.40625 56.09375 
Q 35.90625 56.09375 39.40625 52.25 
Q 42.90625 48.40625 42.90625 42.296875 
Q 42.90625 41.59375 42.40625 41.046875 
Q 41.90625 40.5 40.90625 40.5 
L 38.09375 40.5 
Q 37.09375 40.5 36.546875 41.046875 
Q 36 41.59375 36 42.296875 
Q 36 45.203125 34.390625 47.046875 
Q 32.796875 48.90625 30.40625 48.90625 
Q 27.703125 48.90625 25.796875 46.90625 
Q 23.90625 44.90625 23.90625 42.203125 
L 23.90625 28.203125 
Q 23.90625 25.59375 25.796875 23.59375 
Q 27.703125 21.59375 30.40625 21.59375 
Q 32.90625 21.59375 34.703125 23.1875 
Q 36.5 24.796875 36.5 27.59375 
Q 36.5 28.296875 37.046875 28.84375 
Q 37.59375 29.40625 38.59375 29.40625 
z
" id="DecimaMonoPro-169"/>
     <path d="M 49.90625 52.59375 
L 49.90625 17.40625 
Q 49.90625 10.09375 44.453125 4.546875 
Q 39 -1 30.09375 -1 
Q 21 -1 15.59375 4.546875 
Q 10.203125 10.09375 10.203125 17.5 
L 10.203125 52.59375 
Q 10.203125 60 15.59375 65.5 
Q 21 71 30.09375 71 
Q 39 71 44.453125 65.453125 
Q 49.90625 59.90625 49.90625 52.59375 
z
M 41.40625 17.296875 
L 41.40625 52.703125 
Q 41.40625 56.90625 38.34375 60 
Q 35.296875 63.09375 30.09375 63.09375 
Q 24.796875 63.09375 21.75 60 
Q 18.703125 56.90625 18.703125 52.703125 
L 18.703125 17.40625 
Q 18.703125 13.09375 21.75 10 
Q 24.796875 6.90625 30.09375 6.90625 
Q 35.296875 6.90625 38.34375 10 
Q 41.40625 13.09375 41.40625 17.296875 
z
" id="DecimaMonoPro-79"/>
     <path d="M 30 -1 
Q 20.703125 -1 15.390625 4.5 
Q 10.09375 10 10.09375 18.09375 
Q 10.09375 18.90625 10.6875 19.5 
Q 11.296875 20.09375 12.40625 20.09375 
L 16.203125 20.09375 
Q 17.296875 20.09375 17.890625 19.5 
Q 18.5 18.90625 18.5 18.09375 
Q 18.5 13.296875 21.546875 10.09375 
Q 24.59375 6.90625 30 6.90625 
Q 35 6.90625 38.09375 9.75 
Q 41.203125 12.59375 41.203125 16.59375 
Q 41.203125 21.703125 38.09375 25.25 
Q 35 28.796875 30.59375 31.046875 
Q 26.203125 33.296875 21.75 35.75 
Q 17.296875 38.203125 14.1875 42.453125 
Q 11.09375 46.703125 11.09375 52.703125 
Q 11.09375 60.5 16.640625 65.75 
Q 22.203125 71 30.09375 71 
Q 38.5 71 43.703125 65.5 
Q 48.90625 60 48.90625 54.40625 
Q 48.90625 53.59375 48.296875 53 
Q 47.703125 52.40625 46.59375 52.40625 
L 42.796875 52.40625 
Q 40.703125 52.40625 40.5 54.40625 
Q 40.203125 57.40625 37.25 60.15625 
Q 34.296875 62.90625 30.09375 62.90625 
Q 25.703125 62.90625 22.640625 60.09375 
Q 19.59375 57.296875 19.59375 53.203125 
Q 19.59375 49.203125 22.6875 46.25 
Q 25.796875 43.296875 30.25 41.046875 
Q 34.703125 38.796875 39.140625 36.140625 
Q 43.59375 33.5 46.6875 28.75 
Q 49.796875 24 49.796875 17.40625 
Q 49.796875 10.09375 44.4375 4.546875 
Q 39.09375 -1 30 -1 
z
" id="DecimaMonoPro-83"/>
     <path d="M 49.59375 68 
L 49.59375 17.40625 
Q 49.59375 9.796875 44.1875 4.390625 
Q 38.796875 -1 30 -1 
Q 21.09375 -1 15.640625 4.390625 
Q 10.203125 9.796875 10.203125 17.5 
L 10.203125 68 
Q 10.203125 68.796875 10.796875 69.390625 
Q 11.40625 70 12.5 70 
L 16.296875 70 
Q 17.40625 70 18 69.390625 
Q 18.59375 68.796875 18.59375 68 
L 18.59375 17.40625 
Q 18.59375 13.203125 21.59375 10.046875 
Q 24.59375 6.90625 30 6.90625 
Q 35.203125 6.90625 38.203125 10.046875 
Q 41.203125 13.203125 41.203125 17.296875 
L 41.203125 68 
Q 41.203125 68.796875 41.796875 69.390625 
Q 42.40625 70 43.5 70 
L 47.296875 70 
Q 48.40625 70 49 69.390625 
Q 49.59375 68.796875 49.59375 68 
z
" id="DecimaMonoPro-85"/>
     <path d="M 19.59375 33.203125 
L 40.40625 33.203125 
Q 41.203125 33.203125 41.703125 32.703125 
Q 42.203125 32.203125 42.203125 31.40625 
L 42.203125 27.203125 
Q 42.203125 26.40625 41.703125 25.90625 
Q 41.203125 25.40625 40.40625 25.40625 
L 19.59375 25.40625 
Q 18.796875 25.40625 18.296875 25.90625 
Q 17.796875 26.40625 17.796875 27.203125 
L 17.796875 31.40625 
Q 17.796875 32.203125 18.296875 32.703125 
Q 18.796875 33.203125 19.59375 33.203125 
z
" id="DecimaMonoPro-45"/>
     <path d="M 34.203125 62.09375 
L 34.203125 2 
Q 34.203125 1.203125 33.59375 0.59375 
Q 33 0 31.90625 0 
L 28.09375 0 
Q 27 0 26.390625 0.59375 
Q 25.796875 1.203125 25.796875 2 
L 25.796875 62.09375 
L 12.703125 62.09375 
Q 11.90625 62.09375 11.296875 62.6875 
Q 10.703125 63.296875 10.703125 64.40625 
L 10.703125 67.703125 
Q 10.703125 68.796875 11.296875 69.390625 
Q 11.90625 70 12.703125 70 
L 47.296875 70 
Q 48.09375 70 48.6875 69.390625 
Q 49.296875 68.796875 49.296875 67.703125 
L 49.296875 64.40625 
Q 49.296875 63.296875 48.6875 62.6875 
Q 48.09375 62.09375 47.296875 62.09375 
z
" id="DecimaMonoPro-84"/>
    </defs>
    <g style="fill:#ffffff;" transform="translate(9.36 784.8)scale(0.14 -0.14)">
     <use xlink:href="#DecimaMonoPro-169"/>
     <use x="59.999985" xlink:href="#DecimaMonoPro-79"/>
     <use x="119.999969" xlink:href="#DecimaMonoPro-83"/>
     <use x="179.999954" xlink:href="#DecimaMonoPro-85"/>
     <use x="239.999939" xlink:href="#DecimaMonoPro-45"/>
     <use x="299.999924" xlink:href="#DecimaMonoPro-83"/>
     <use x="359.999908" xlink:href="#DecimaMonoPro-108"/>
     <use x="419.999893" xlink:href="#DecimaMonoPro-97"/>
     <use x="479.999878" xlink:href="#DecimaMonoPro-84"/>
     <use x="539.999863" xlink:href="#DecimaMonoPro-101"/>
    </g>
   </g>
   <g id="legend_1">
    <g id="patch_8">
     <path d="M 65.96 594.92 
L 198.929375 594.92 
Q 201.729375 594.92 201.729375 592.12 
L 201.729375 474.209375 
Q 201.729375 471.409375 198.929375 471.409375 
L 65.96 471.409375 
Q 63.16 471.409375 63.16 474.209375 
L 63.16 592.12 
Q 63.16 594.92 65.96 594.92 
z
" style="fill:#f0f0f0;opacity:0.8;stroke:#cccccc;stroke-linejoin:miter;stroke-width:0.5;"/>
    </g>
    <g id="line2d_54">
     <path d="M 68.76 482.020938 
L 96.76 482.020938 
" style="fill:none;stroke:#000004;"/>
    </g>
    <g id="line2d_55">
     <g>
      <use style="fill:#000004;stroke:#000004;" x="82.76" xlink:href="#mc8d890daa8" y="482.020938"/>
     </g>
    </g>
    <g id="text_26">
     <!-- NER -->
     <defs>
      <path d="M 9.703125 70 
L 49.90625 70 
L 49.90625 61.59375 
L 18.5 61.59375 
L 18.5 41.5 
L 43.90625 41.5 
L 43.90625 33.09375 
L 18.5 33.09375 
L 18.5 8.40625 
L 50.90625 8.40625 
L 50.90625 0 
L 9.703125 0 
z
" id="Apercu-69"/>
      <path d="M 49.5 0 
L 29 33 
L 18.5 33 
L 18.5 0 
L 9.703125 0 
L 9.703125 70 
L 33 70 
Q 42.40625 70 48 65.09375 
Q 53.59375 60.203125 53.59375 51.5 
Q 53.59375 44.296875 49.75 39.640625 
Q 45.90625 35 39 33.59375 
L 59.90625 0 
z
M 33.203125 61.59375 
L 18.5 61.59375 
L 18.5 41.40625 
L 33.203125 41.40625 
Q 44.5 41.40625 44.5 51.5 
Q 44.5 61.59375 33.203125 61.59375 
z
" id="Apercu-82"/>
     </defs>
     <g style="opacity:0.75;" transform="translate(107.96 486.920938)scale(0.14 -0.14)">
      <use xlink:href="#Apercu-78"/>
      <use x="70.099991" xlink:href="#Apercu-69"/>
      <use x="126.699982" xlink:href="#Apercu-82"/>
     </g>
    </g>
    <g id="line2d_56">
     <path d="M 68.76 501.789375 
L 96.76 501.789375 
" style="fill:none;stroke:#2c115f;"/>
    </g>
    <g id="line2d_57">
     <g>
      <use style="fill:#2c115f;" x="82.76" xlink:href="#mfe2c1cc3f2" y="501.789375"/>
     </g>
    </g>
    <g id="text_27">
     <!-- POS -->
     <defs>
      <path d="M 34.09375 30 
L 18.5 30 
L 18.5 0 
L 9.703125 0 
L 9.703125 70 
L 34.09375 70 
Q 43.90625 70 49.40625 64.59375 
Q 54.90625 59.203125 54.90625 50 
Q 54.90625 40.796875 49.40625 35.390625 
Q 43.90625 30 34.09375 30 
z
M 34.59375 38.40625 
Q 40 38.40625 42.890625 41.40625 
Q 45.796875 44.40625 45.796875 50 
Q 45.796875 55.59375 42.890625 58.59375 
Q 40 61.59375 34.59375 61.59375 
L 18.5 61.59375 
L 18.5 38.40625 
z
" id="Apercu-80"/>
      <path d="M 14.59375 61.203125 
Q 23.703125 70.796875 36.890625 70.796875 
Q 50.09375 70.796875 59.1875 61.25 
Q 68.296875 51.703125 68.296875 35 
Q 68.296875 18.296875 59.1875 8.75 
Q 50.09375 -0.796875 36.890625 -0.796875 
Q 23.703125 -0.796875 14.59375 8.75 
Q 5.5 18.296875 5.5 35 
Q 5.5 51.703125 14.59375 61.203125 
z
M 52.90625 55.296875 
Q 46.703125 62.40625 36.890625 62.40625 
Q 27.09375 62.40625 20.84375 55.296875 
Q 14.59375 48.203125 14.59375 35 
Q 14.59375 21.796875 20.84375 14.6875 
Q 27.09375 7.59375 36.890625 7.59375 
Q 46.703125 7.59375 52.953125 14.6875 
Q 59.203125 21.796875 59.203125 35 
Q 59.203125 48.203125 52.90625 55.296875 
z
" id="Apercu-79"/>
     </defs>
     <g style="opacity:0.75;" transform="translate(107.96 506.689375)scale(0.14 -0.14)">
      <use xlink:href="#Apercu-80"/>
      <use x="58.415619" xlink:href="#Apercu-79"/>
      <use x="132.215607" xlink:href="#Apercu-83"/>
     </g>
    </g>
    <g id="line2d_58">
     <path d="M 68.76 521.557813 
L 96.76 521.557813 
" style="fill:none;stroke:#721f81;"/>
    </g>
    <g id="line2d_59">
     <g>
      <use style="fill:#721f81;stroke:#721f81;" x="82.76" xlink:href="#m3359cc0a9f" y="521.557813"/>
     </g>
    </g>
    <g id="text_28">
     <!-- RelExtr. (F1) -->
     <defs>
      <path d="M 3.59375 50.40625 
L 13.09375 50.40625 
L 22.90625 34.40625 
L 32.703125 50.40625 
L 42.203125 50.40625 
L 27.59375 26.59375 
L 44 0 
L 34.5 0 
L 22.90625 18.90625 
L 11.296875 0 
L 1.796875 0 
L 18.203125 26.59375 
z
" id="Apercu-120"/>
      <path d="M 2.5 42.796875 
L 2.5 50.40625 
L 11.203125 50.40625 
L 11.203125 65.5 
L 19.59375 70.796875 
L 19.59375 50.40625 
L 32.796875 50.40625 
L 32.796875 42.796875 
L 19.59375 42.796875 
L 19.59375 15.09375 
Q 19.59375 11.09375 21.34375 8.9375 
Q 23.09375 6.796875 26.296875 6.796875 
Q 29.59375 6.796875 32 8.40625 
L 34 1.09375 
Q 30.703125 -0.796875 25.796875 -0.796875 
Q 19.09375 -0.796875 15.140625 3.390625 
Q 11.203125 7.59375 11.203125 15.796875 
L 11.203125 42.796875 
z
" id="Apercu-116"/>
      <path d="M 9 5.90625 
Q 9 8.5 10.796875 10.34375 
Q 12.59375 12.203125 15.296875 12.203125 
Q 17.90625 12.203125 19.75 10.34375 
Q 21.59375 8.5 21.59375 5.90625 
Q 21.59375 3.203125 19.75 1.390625 
Q 17.90625 -0.40625 15.296875 -0.40625 
Q 12.59375 -0.40625 10.796875 1.390625 
Q 9 3.203125 9 5.90625 
z
" id="Apercu-46"/>
      <path d="M 17.796875 75 
L 26.203125 75 
Q 15.703125 58.296875 15.703125 35 
Q 15.703125 11.703125 26.203125 -5 
L 17.796875 -5 
Q 7.09375 11.796875 7.09375 35 
Q 7.09375 58.203125 17.796875 75 
z
" id="Apercu-40"/>
      <path d="M 9.703125 70 
L 50.40625 70 
L 50.40625 61.59375 
L 18.5 61.59375 
L 18.5 40.703125 
L 44.40625 40.703125 
L 44.40625 32.296875 
L 18.5 32.296875 
L 18.5 0 
L 9.703125 0 
z
" id="Apercu-70"/>
      <path d="M 25.40625 70 
L 28.5 70 
L 28.5 0 
L 20.296875 0 
L 20.296875 57.40625 
L 7.40625 49.90625 
L 7.40625 59.09375 
z
" id="Apercu-49"/>
      <path d="M 3 75 
L 11.40625 75 
Q 22.09375 58.203125 22.09375 35 
Q 22.09375 11.796875 11.40625 -5 
L 3 -5 
Q 13.5 11.703125 13.5 35 
Q 13.5 58.296875 3 75 
z
" id="Apercu-41"/>
     </defs>
     <g style="opacity:0.75;" transform="translate(107.96 526.457813)scale(0.14 -0.14)">
      <use xlink:href="#Apercu-82"/>
      <use x="64.099991" xlink:href="#Apercu-101"/>
      <use x="120.099976" xlink:href="#Apercu-108"/>
      <use x="145.899963" xlink:href="#Apercu-69"/>
      <use x="202.499954" xlink:href="#Apercu-120"/>
      <use x="248.315567" xlink:href="#Apercu-116"/>
      <use x="286.115555" xlink:href="#Apercu-114"/>
      <use x="327.415543" xlink:href="#Apercu-46"/>
      <use x="358.015533" xlink:href="#Apercu-32"/>
      <use x="384.815521" xlink:href="#Apercu-40"/>
      <use x="414.015518" xlink:href="#Apercu-70"/>
      <use x="467.815506" xlink:href="#Apercu-49"/>
      <use x="505.415497" xlink:href="#Apercu-41"/>
     </g>
    </g>
    <g id="line2d_60">
     <path d="M 68.76 541.32625 
L 96.76 541.32625 
" style="fill:none;stroke:#b73779;"/>
    </g>
    <g id="line2d_61">
     <g>
      <use style="fill:#b73779;stroke:#b73779;stroke-linejoin:miter;" x="82.76" xlink:href="#m899ea55506" y="541.32625"/>
     </g>
    </g>
    <g id="text_29">
     <!-- SentPol. (Acc) -->
     <defs>
      <path d="M 49.09375 35.5 
L 49.09375 0 
L 40.703125 0 
L 40.703125 33.296875 
Q 40.703125 43.59375 32 43.59375 
Q 26.09375 43.59375 21.84375 37.390625 
Q 17.59375 31.203125 17.59375 21.09375 
L 17.59375 0 
L 9.203125 0 
L 9.203125 50.40625 
L 17.59375 50.40625 
L 17.59375 41.09375 
Q 23.296875 51.203125 34.296875 51.203125 
Q 41.203125 51.203125 45.140625 47.09375 
Q 49.09375 43 49.09375 35.5 
z
" id="Apercu-110"/>
      <path d="M 25.40625 70 
L 33.796875 70 
L 58 0 
L 49.203125 0 
L 43 18.703125 
L 16.203125 18.703125 
L 10 0 
L 1.203125 0 
z
M 29.59375 58.59375 
L 19 27.09375 
L 40.203125 27.09375 
z
" id="Apercu-65"/>
     </defs>
     <g style="opacity:0.75;" transform="translate(107.96 546.22625)scale(0.14 -0.14)">
      <use xlink:href="#Apercu-83"/>
      <use x="52.299988" xlink:href="#Apercu-101"/>
      <use x="108.299973" xlink:href="#Apercu-110"/>
      <use x="165.999969" xlink:href="#Apercu-116"/>
      <use x="203.799957" xlink:href="#Apercu-80"/>
      <use x="262.184326" xlink:href="#Apercu-111"/>
      <use x="321.384323" xlink:href="#Apercu-108"/>
      <use x="347.184311" xlink:href="#Apercu-46"/>
      <use x="377.784302" xlink:href="#Apercu-32"/>
      <use x="404.58429" xlink:href="#Apercu-40"/>
      <use x="433.784286" xlink:href="#Apercu-65"/>
      <use x="492.984283" xlink:href="#Apercu-99"/>
      <use x="546.784271" xlink:href="#Apercu-99"/>
      <use x="600.584259" xlink:href="#Apercu-41"/>
     </g>
    </g>
    <g id="line2d_62">
     <path d="M 68.76 561.683125 
L 96.76 561.683125 
" style="fill:none;stroke:#f1605d;"/>
    </g>
    <g id="line2d_63">
     <g>
      <use style="fill:#f1605d;stroke:#f1605d;stroke-linejoin:miter;" x="82.76" xlink:href="#med950a1fbf" y="561.683125"/>
     </g>
    </g>
    <g id="text_30">
     <!-- Subj. (Acc) -->
     <defs>
      <path d="M 8.59375 14.90625 
L 8.59375 50.40625 
L 17 50.40625 
L 17 17.09375 
Q 17 6.796875 25.703125 6.796875 
Q 31.59375 6.796875 35.84375 13 
Q 40.09375 19.203125 40.09375 29.296875 
L 40.09375 50.40625 
L 48.5 50.40625 
L 48.5 0 
L 40.09375 0 
L 40.09375 9.296875 
Q 34.40625 -0.796875 23.40625 -0.796875 
Q 16.5 -0.796875 12.546875 3.296875 
Q 8.59375 7.40625 8.59375 14.90625 
z
" id="Apercu-117"/>
      <path d="M 32.296875 -0.796875 
Q 27.796875 -0.796875 23.640625 1.25 
Q 19.5 3.296875 17.59375 6.203125 
L 17.59375 0 
L 9.203125 0 
L 9.203125 70.796875 
L 17.59375 70.796875 
L 17.59375 44.40625 
Q 19 46.796875 23.390625 49 
Q 27.796875 51.203125 32.296875 51.203125 
Q 43.09375 51.203125 48.890625 44.046875 
Q 54.703125 36.90625 54.703125 25.203125 
Q 54.703125 13.5 48.890625 6.34375 
Q 43.09375 -0.796875 32.296875 -0.796875 
z
M 31.5 43.59375 
Q 24.703125 43.59375 20.796875 38.5 
Q 16.90625 33.40625 16.90625 25.203125 
Q 16.90625 17 20.796875 11.890625 
Q 24.703125 6.796875 31.5 6.796875 
Q 38.09375 6.796875 42.09375 11.890625 
Q 46.09375 17 46.09375 25.203125 
Q 46.09375 33.40625 42.09375 38.5 
Q 38.09375 43.59375 31.5 43.59375 
z
" id="Apercu-98"/>
      <path d="M 2.5 -21.203125 
L 0.296875 -13.203125 
Q 5.09375 -11.90625 7.296875 -9.5 
Q 9.5 -7.09375 9.5 -1.796875 
L 9.5 50.40625 
L 17.90625 50.40625 
L 17.90625 -2.59375 
Q 17.90625 -10.296875 13.90625 -15.046875 
Q 9.90625 -19.796875 2.5 -21.203125 
z
M 7.203125 64.40625 
Q 7.203125 67.09375 9 68.9375 
Q 10.796875 70.796875 13.5 70.796875 
Q 16.203125 70.796875 18 68.9375 
Q 19.796875 67.09375 19.796875 64.40625 
Q 19.796875 61.796875 18 60 
Q 16.203125 58.203125 13.5 58.203125 
Q 10.796875 58.203125 9 60 
Q 7.203125 61.796875 7.203125 64.40625 
z
" id="Apercu-106"/>
     </defs>
     <g style="opacity:0.75;" transform="translate(107.96 566.583125)scale(0.14 -0.14)">
      <use xlink:href="#Apercu-83"/>
      <use x="52.299988" xlink:href="#Apercu-117"/>
      <use x="109.98436" xlink:href="#Apercu-98"/>
      <use x="170.084351" xlink:href="#Apercu-106"/>
      <use x="197.084335" xlink:href="#Apercu-46"/>
      <use x="227.684326" xlink:href="#Apercu-32"/>
      <use x="254.484314" xlink:href="#Apercu-40"/>
      <use x="283.684311" xlink:href="#Apercu-65"/>
      <use x="342.884308" xlink:href="#Apercu-99"/>
      <use x="396.684296" xlink:href="#Apercu-99"/>
      <use x="450.484283" xlink:href="#Apercu-41"/>
     </g>
    </g>
    <g id="line2d_64">
     <path d="M 68.76 581.563125 
L 96.76 581.563125 
" style="fill:none;stroke:#feb078;"/>
    </g>
    <g id="line2d_65">
     <g>
      <use style="fill:#feb078;stroke:#feb078;stroke-linejoin:miter;" x="82.76" xlink:href="#mcbf7b40912" y="581.563125"/>
     </g>
    </g>
    <g id="text_31">
     <!-- SNLI (Acc) -->
     <defs>
      <path d="M 9.703125 70 
L 18.5 70 
L 18.5 8.40625 
L 50.296875 8.40625 
L 50.296875 0 
L 9.703125 0 
z
" id="Apercu-76"/>
      <path d="M 9.703125 70 
L 18.5 70 
L 18.5 0 
L 9.703125 0 
z
" id="Apercu-73"/>
     </defs>
     <g style="opacity:0.75;" transform="translate(107.96 586.463125)scale(0.14 -0.14)">
      <use xlink:href="#Apercu-83"/>
      <use x="52.299988" xlink:href="#Apercu-78"/>
      <use x="122.399979" xlink:href="#Apercu-76"/>
      <use x="174.499969" xlink:href="#Apercu-73"/>
      <use x="202.699966" xlink:href="#Apercu-32"/>
      <use x="229.499954" xlink:href="#Apercu-40"/>
      <use x="258.699951" xlink:href="#Apercu-65"/>
      <use x="317.899948" xlink:href="#Apercu-99"/>
      <use x="371.699936" xlink:href="#Apercu-99"/>
      <use x="425.499924" xlink:href="#Apercu-41"/>
     </g>
    </g>
   </g>
  </g>
 </g>
 <defs>
  <clipPath id="p0e0f25416b">
   <rect height="443.52" width="388.44" x="56.16" y="158.4"/>
  </clipPath>
 </defs>
</svg>
