<?xml version="1.0" encoding="utf-8"?>
<!-- Generator: Adobe Illustrator 22.0.0, SVG Export Plug-In . SVG Version: 6.00 Build 0)  -->
<svg version="1.1" id="Layer_1" xmlns="http://www.w3.org/2000/svg" xmlns:xlink="http://www.w3.org/1999/xlink" x="0px" y="0px"
	 viewBox="0 0 1258.5 970.5" style="enable-background:new 0 0 1258.5 970.5;" xml:space="preserve">
<style type="text/css">
	.st0{fill:#F0F0F0;}
	.st1{clip-path:url(#SVGID_2_);fill:none;stroke:#CBCBCB;stroke-linejoin:round;}
	.st2{clip-path:url(#SVGID_4_);fill:none;stroke:#CBCBCB;stroke-linejoin:round;}
	.st3{clip-path:url(#SVGID_6_);fill:none;stroke:#CBCBCB;stroke-linejoin:round;}
	.st4{clip-path:url(#SVGID_8_);fill:none;stroke:#CBCBCB;stroke-linejoin:round;}
	.st5{clip-path:url(#SVGID_10_);fill:none;stroke:#CBCBCB;stroke-linejoin:round;}
	.st6{clip-path:url(#SVGID_12_);fill:none;stroke:#CBCBCB;stroke-linejoin:round;}
	.st7{clip-path:url(#SVGID_14_);fill:none;stroke:#CBCBCB;stroke-linejoin:round;}
	.st8{clip-path:url(#SVGID_16_);fill:none;stroke:#CBCBCB;stroke-linejoin:round;}
	.st9{clip-path:url(#SVGID_18_);fill:none;stroke:#CBCBCB;stroke-linejoin:round;}
	.st10{clip-path:url(#SVGID_20_);fill:none;stroke:#CBCBCB;stroke-linejoin:round;}
	.st11{clip-path:url(#SVGID_22_);fill:none;stroke:#CBCBCB;stroke-linejoin:round;}
	.st12{clip-path:url(#SVGID_24_);fill:none;stroke:#CBCBCB;stroke-linejoin:round;}
	.st13{clip-path:url(#SVGID_26_);fill:none;stroke:#CBCBCB;stroke-linejoin:round;}
	.st14{clip-path:url(#SVGID_28_);fill:none;stroke:#CBCBCB;stroke-linejoin:round;}
	.st15{clip-path:url(#SVGID_30_);fill:none;stroke:#CBCBCB;stroke-linejoin:round;}
	.st16{clip-path:url(#SVGID_32_);fill:none;stroke:#CBCBCB;stroke-linejoin:round;}
	.st17{clip-path:url(#SVGID_34_);fill:none;stroke:#CBCBCB;stroke-linejoin:round;}
	.st18{clip-path:url(#SVGID_36_);fill:none;stroke:#008FD5;stroke-width:4;stroke-linejoin:round;}
	.st19{fill:none;}
	.st20{fill:none;stroke:#FC4F30;stroke-width:4;stroke-linejoin:round;}
	.st21{clip-path:url(#SVGID_38_);fill:none;stroke:#E5AE38;stroke-width:4;stroke-linejoin:round;}
	
		.st22{opacity:0.7;clip-path:url(#SVGID_40_);fill:none;stroke:#000000;stroke-width:1.3;stroke-linejoin:round;enable-background:new    ;}
	.st23{fill:none;stroke:#F0F0F0;stroke-width:3;stroke-linecap:square;}
	.st24{fill:#808080;stroke:#808080;stroke-width:0.4988;}
	.st25{stroke:#808080;stroke-width:0.4988;}
	.st26{opacity:0.75;}
	.st27{opacity:0.85;}
</style>
<g id="patch_1">
	<path class="st0" d="M358.4,638.7h432v-360h-432V638.7z"/>
</g>
<g id="patch_2">
	<path class="st0" d="M393,591.9h375.8V350.7H393V591.9z"/>
</g>
<g id="matplotlib.axis_1">
	<g id="xtick_1">
		<g id="line2d_1">
			<g>
				<defs>
					<rect id="SVGID_1_" x="393" y="350.7" width="375.8" height="241.2"/>
				</defs>
				<clipPath id="SVGID_2_">
					<use xlink:href="#SVGID_1_"  style="overflow:visible;"/>
				</clipPath>
				<path class="st1" d="M396.5,591.9V350.7"/>
			</g>
		</g>
		<g id="line2d_2">
		</g>
		<g id="text_1">
			<g transform="translate(34.50566 325.11125)scale(0.12 -0.12)">
				<g>
					<path id="DecimaMonoPro-30" d="M3034.9-2270.3v-35.2c0-5.1-1.8-9.5-5.3-13.1c-3.5-3.6-7.9-5.3-13.1-5.3c-5.2,0-9.5,1.8-13,5.4
						c-3.4,3.6-5.1,8-5.1,13.1v35.1c0,5.1,1.7,9.5,5.1,13c3.4,3.6,7.8,5.4,13,5.4c5.2,0,9.6-1.8,13.1-5.4
						C3033.2-2260.8,3034.9-2265.1,3034.9-2270.3z M3026.6-2305.6v35.2c0,2.9-1,5.4-2.9,7.5s-4.3,3.1-7.1,3.1c-2.7,0-5.1-1-7-3.1
						c-1.9-2.1-2.9-4.6-2.9-7.5v-35.1c0-2.9,1-5.4,2.9-7.5c1.9-2,4.3-3,7.1-3c2.7,0,5.1,1,7,3S3026.6-2308.5,3026.6-2305.6z"/>
				</g>
			</g>
		</g>
	</g>
	<g id="xtick_2">
		<g id="line2d_3">
			<g>
				<defs>
					<rect id="SVGID_3_" x="393" y="350.7" width="375.8" height="241.2"/>
				</defs>
				<clipPath id="SVGID_4_">
					<use xlink:href="#SVGID_3_"  style="overflow:visible;"/>
				</clipPath>
				<path class="st2" d="M432,591.9V350.7"/>
			</g>
		</g>
		<g id="line2d_4">
		</g>
		<g id="text_2">
			<g transform="translate(62.762264 325.11125)scale(0.12 -0.12)">
				<g>
					<path id="DecimaMonoPro-30_1_" d="M3034.9-2270.3v-35.2c0-5.1-1.8-9.5-5.3-13.1c-3.5-3.6-7.9-5.3-13.1-5.3
						c-5.2,0-9.5,1.8-13,5.4c-3.4,3.6-5.1,8-5.1,13.1v35.1c0,5.1,1.7,9.5,5.1,13c3.4,3.6,7.8,5.4,13,5.4c5.2,0,9.6-1.8,13.1-5.4
						C3033.2-2260.8,3034.9-2265.1,3034.9-2270.3z M3026.6-2305.6v35.2c0,2.9-1,5.4-2.9,7.5s-4.3,3.1-7.1,3.1c-2.7,0-5.1-1-7-3.1
						c-1.9-2.1-2.9-4.6-2.9-7.5v-35.1c0-2.9,1-5.4,2.9-7.5c1.9-2,4.3-3,7.1-3c2.7,0,5.1,1,7,3S3026.6-2308.5,3026.6-2305.6z"/>
				</g>
				<g>
					<path id="DecimaMonoPro-2e" d="M3081.8-2315.4v-4.9c0-1.7-0.9-2.6-2.6-2.6h-5c-1.7,0-2.6,0.9-2.6,2.6v4.9
						c0,1.7,0.9,2.6,2.6,2.6h5C3081-2312.8,3081.8-2313.6,3081.8-2315.4z"/>
				</g>
				<g>
					<path id="DecimaMonoPro-31" d="M3120.6-2254.6l11.3,1.8h7.1c0.5,0,0.9-0.2,1.3-0.5c0.4-0.3,0.5-0.8,0.5-1.3v-60.5h13.2
						c0.5,0,0.9-0.2,1.3-0.6c0.4-0.4,0.5-0.8,0.5-1.2v-4.1c0-0.5-0.2-1-0.5-1.3c-0.4-0.3-0.8-0.5-1.3-0.5h-34.7
						c-0.5,0-1,0.2-1.3,0.5c-0.3,0.3-0.5,0.8-0.5,1.3v4.1c0,0.5,0.2,0.9,0.5,1.2c0.3,0.4,0.8,0.6,1.3,0.6h13.1v54.4l-11-1.7h-0.3
						c-0.3-0.1-0.6-0.1-0.9-0.1c-0.9,0-1.4,0.6-1.4,1.8v4.2C3118.8-2255.6,3119.4-2254.9,3120.6-2254.6z"/>
				</g>
			</g>
		</g>
	</g>
	<g id="xtick_3">
		<g id="line2d_5">
			<g>
				<defs>
					<rect id="SVGID_5_" x="393" y="350.7" width="375.8" height="241.2"/>
				</defs>
				<clipPath id="SVGID_6_">
					<use xlink:href="#SVGID_5_"  style="overflow:visible;"/>
				</clipPath>
				<path class="st3" d="M467.4,591.9V350.7"/>
			</g>
		</g>
		<g id="line2d_6">
		</g>
		<g id="text_3">
			<g transform="translate(98.218868 325.11125)scale(0.12 -0.12)">
				<g>
					<path id="DecimaMonoPro-30_2_" d="M3034.9-2270.3v-35.2c0-5.1-1.8-9.5-5.3-13.1c-3.5-3.6-7.9-5.3-13.1-5.3
						c-5.2,0-9.5,1.8-13,5.4c-3.4,3.6-5.1,8-5.1,13.1v35.1c0,5.1,1.7,9.5,5.1,13c3.4,3.6,7.8,5.4,13,5.4c5.2,0,9.6-1.8,13.1-5.4
						C3033.2-2260.8,3034.9-2265.1,3034.9-2270.3z M3026.6-2305.6v35.2c0,2.9-1,5.4-2.9,7.5s-4.3,3.1-7.1,3.1c-2.7,0-5.1-1-7-3.1
						c-1.9-2.1-2.9-4.6-2.9-7.5v-35.1c0-2.9,1-5.4,2.9-7.5c1.9-2,4.3-3,7.1-3c2.7,0,5.1,1,7,3S3026.6-2308.5,3026.6-2305.6z"/>
				</g>
				<g>
					<path id="DecimaMonoPro-2e_1_" d="M3081.8-2315.4v-4.9c0-1.7-0.9-2.6-2.6-2.6h-5c-1.7,0-2.6,0.9-2.6,2.6v4.9
						c0,1.7,0.9,2.6,2.6,2.6h5C3081-2312.8,3081.8-2313.6,3081.8-2315.4z"/>
				</g>
				<g>
					<path id="DecimaMonoPro-32" d="M3118.4-2269.9c0,4.5,1.8,8.6,5.5,12.3c3.7,3.8,8.1,5.7,13.4,5.7c5.2,0,9.6-1.8,13.2-5.3
						c3.6-3.5,5.4-7.8,5.4-13c0-3.9-1-7.5-3.1-11c-2.1-3.4-4.6-6.4-7.5-8.9c-2.9-2.5-5.9-5-8.8-7.4c-2.9-2.4-5.4-5.1-7.5-8.1
						c-2.1-3-3.1-6.2-3.1-9.5h28.2c0.5,0,1-0.2,1.3-0.5c0.3-0.3,0.5-0.8,0.5-1.3v-4.2c0-0.5-0.2-1-0.5-1.3c-0.3-0.3-0.8-0.5-1.3-0.5
						h-34.8c-0.5,0-1,0.2-1.3,0.5c-0.3,0.3-0.5,0.8-0.5,1.3v5.5c0,4.4,1,8.5,3.1,12.2c2.1,3.7,4.6,6.8,7.5,9.4
						c2.9,2.6,5.9,5.1,8.8,7.5c2.9,2.4,5.4,5,7.5,7.9c2.1,2.9,3.1,5.9,3.1,9c0,2.7-1,5.1-3,7c-2,1.9-4.4,2.8-7.3,2.8
						c-2.9,0-5.4-1.1-7.3-3.4c-1.9-2.3-3-4.5-3.1-6.7c-0.1-1.3-0.9-2-2.3-2h-3.8c-0.7,0-1.3,0.2-1.7,0.6
						C3118.6-2270.9,3118.4-2270.4,3118.4-2269.9z"/>
				</g>
			</g>
		</g>
	</g>
	<g id="xtick_4">
		<g id="line2d_7">
			<g>
				<defs>
					<rect id="SVGID_7_" x="393" y="350.7" width="375.8" height="241.2"/>
				</defs>
				<clipPath id="SVGID_8_">
					<use xlink:href="#SVGID_7_"  style="overflow:visible;"/>
				</clipPath>
				<path class="st4" d="M502.9,591.9V350.7"/>
			</g>
		</g>
		<g id="line2d_8">
		</g>
		<g id="text_4">
			<g transform="translate(133.675472 325.11125)scale(0.12 -0.12)">
				<g>
					<path id="DecimaMonoPro-30_3_" d="M3034.9-2270.3v-35.2c0-5.1-1.8-9.5-5.3-13.1c-3.5-3.6-7.9-5.3-13.1-5.3
						c-5.2,0-9.5,1.8-13,5.4c-3.4,3.6-5.1,8-5.1,13.1v35.1c0,5.1,1.7,9.5,5.1,13c3.4,3.6,7.8,5.4,13,5.4c5.2,0,9.6-1.8,13.1-5.4
						C3033.2-2260.8,3034.9-2265.1,3034.9-2270.3z M3026.6-2305.6v35.2c0,2.9-1,5.4-2.9,7.5s-4.3,3.1-7.1,3.1c-2.7,0-5.1-1-7-3.1
						c-1.9-2.1-2.9-4.6-2.9-7.5v-35.1c0-2.9,1-5.4,2.9-7.5c1.9-2,4.3-3,7.1-3c2.7,0,5.1,1,7,3S3026.6-2308.5,3026.6-2305.6z"/>
				</g>
				<g>
					<path id="DecimaMonoPro-2e_2_" d="M3081.8-2315.4v-4.9c0-1.7-0.9-2.6-2.6-2.6h-5c-1.7,0-2.6,0.9-2.6,2.6v4.9
						c0,1.7,0.9,2.6,2.6,2.6h5C3081-2312.8,3081.8-2313.6,3081.8-2315.4z"/>
				</g>
				<g>
					<path id="DecimaMonoPro-33" d="M3152.9-2261.8l-10.8-14c3.6-0.5,6.8-2.2,9.5-5.1c2.7-3,4.1-6.5,4.1-10.5v-14
						c0-5.1-1.8-9.5-5.5-13.1c-3.7-3.6-8.2-5.4-13.5-5.4c-5.5,0-10,1.8-13.7,5.3c-3.6,3.6-5.4,7.9-5.4,13.1c0,0.5,0.2,1,0.6,1.4
						c0.4,0.4,1,0.6,1.7,0.6h3.8c1.4,0,2.2-0.7,2.3-2c0-2.9,1-5.4,3.1-7.5c2.1-2,4.6-3,7.6-3c2.9,0,5.4,1,7.5,3s3.1,4.5,3.1,7.5v14
						c0,2.1-0.8,4-2.3,5.5c-1.5,1.6-3.4,2.4-5.6,2.4h-5.3c-1.5,0-2.2,0.8-2.2,2.3v3.4c0,1.1,0.4,2.2,1.1,3.2l10.3,13.9h-19.7
						c-1.5,0-2.2,0.8-2.2,2.3v3.3c0,1.5,0.7,2.3,2.2,2.3h28.2c1.5,0,2.2-0.8,2.2-2.3v-3.4C3154-2259.7,3153.7-2260.8,3152.9-2261.8z
						"/>
				</g>
			</g>
		</g>
	</g>
	<g id="xtick_5">
		<g id="line2d_9">
			<g>
				<defs>
					<rect id="SVGID_9_" x="393" y="350.7" width="375.8" height="241.2"/>
				</defs>
				<clipPath id="SVGID_10_">
					<use xlink:href="#SVGID_9_"  style="overflow:visible;"/>
				</clipPath>
				<path class="st5" d="M538.3,591.9V350.7"/>
			</g>
		</g>
		<g id="line2d_10">
		</g>
		<g id="text_5">
			<g transform="translate(169.132075 325.11125)scale(0.12 -0.12)">
				<g>
					<path id="DecimaMonoPro-30_4_" d="M3034.9-2270.3v-35.2c0-5.1-1.8-9.5-5.3-13.1c-3.5-3.6-7.9-5.3-13.1-5.3
						c-5.2,0-9.5,1.8-13,5.4c-3.4,3.6-5.1,8-5.1,13.1v35.1c0,5.1,1.7,9.5,5.1,13c3.4,3.6,7.8,5.4,13,5.4c5.2,0,9.6-1.8,13.1-5.4
						C3033.2-2260.8,3034.9-2265.1,3034.9-2270.3z M3026.6-2305.6v35.2c0,2.9-1,5.4-2.9,7.5s-4.3,3.1-7.1,3.1c-2.7,0-5.1-1-7-3.1
						c-1.9-2.1-2.9-4.6-2.9-7.5v-35.1c0-2.9,1-5.4,2.9-7.5c1.9-2,4.3-3,7.1-3c2.7,0,5.1,1,7,3S3026.6-2308.5,3026.6-2305.6z"/>
				</g>
				<g>
					<path id="DecimaMonoPro-2e_3_" d="M3081.8-2315.4v-4.9c0-1.7-0.9-2.6-2.6-2.6h-5c-1.7,0-2.6,0.9-2.6,2.6v4.9
						c0,1.7,0.9,2.6,2.6,2.6h5C3081-2312.8,3081.8-2313.6,3081.8-2315.4z"/>
				</g>
				<g>
					<path id="DecimaMonoPro-34" d="M3146.8-2255.4l-20.6-44.6h16.3v16c0,0.5,0.2,1,0.6,1.4c0.4,0.4,1,0.6,1.7,0.6h4.1
						c0.5,0,1-0.2,1.4-0.7c0.4-0.4,0.6-0.9,0.6-1.3v-16h3.8c0.5,0,1-0.2,1.4-0.6c0.4-0.4,0.6-1,0.6-1.7v-3.2c0-0.7-0.2-1.3-0.6-1.7
						c-0.4-0.4-0.9-0.6-1.4-0.6h-3.8v-13.1c0-0.5-0.2-1-0.6-1.4c-0.4-0.4-0.9-0.6-1.4-0.6h-4.1c-0.7,0-1.3,0.2-1.7,0.6
						c-0.4,0.4-0.6,0.9-0.6,1.4v13.1h-23.7c-1.5,0-2.2,0.8-2.2,2.3v3.9c0,0.8,0.4,1.9,1.1,3.4l20.3,43.3c0.7,1.3,1.6,2,2.7,2h4.8
						c1.1,0,1.7-0.4,1.7-1.2C3147.2-2254.3,3147.1-2254.7,3146.8-2255.4z"/>
				</g>
			</g>
		</g>
	</g>
	<g id="xtick_6">
		<g id="line2d_11">
			<g>
				<defs>
					<rect id="SVGID_11_" x="393" y="350.7" width="375.8" height="241.2"/>
				</defs>
				<clipPath id="SVGID_12_">
					<use xlink:href="#SVGID_11_"  style="overflow:visible;"/>
				</clipPath>
				<path class="st6" d="M573.8,591.9V350.7"/>
			</g>
		</g>
		<g id="line2d_12">
		</g>
		<g id="text_6">
			<g transform="translate(204.588679 325.11125)scale(0.12 -0.12)">
				<g>
					<path id="DecimaMonoPro-30_5_" d="M3034.9-2270.3v-35.2c0-5.1-1.8-9.5-5.3-13.1c-3.5-3.6-7.9-5.3-13.1-5.3
						c-5.2,0-9.5,1.8-13,5.4c-3.4,3.6-5.1,8-5.1,13.1v35.1c0,5.1,1.7,9.5,5.1,13c3.4,3.6,7.8,5.4,13,5.4c5.2,0,9.6-1.8,13.1-5.4
						C3033.2-2260.8,3034.9-2265.1,3034.9-2270.3z M3026.6-2305.6v35.2c0,2.9-1,5.4-2.9,7.5s-4.3,3.1-7.1,3.1c-2.7,0-5.1-1-7-3.1
						c-1.9-2.1-2.9-4.6-2.9-7.5v-35.1c0-2.9,1-5.4,2.9-7.5c1.9-2,4.3-3,7.1-3c2.7,0,5.1,1,7,3S3026.6-2308.5,3026.6-2305.6z"/>
				</g>
				<g>
					<path id="DecimaMonoPro-2e_4_" d="M3081.8-2315.4v-4.9c0-1.7-0.9-2.6-2.6-2.6h-5c-1.7,0-2.6,0.9-2.6,2.6v4.9
						c0,1.7,0.9,2.6,2.6,2.6h5C3081-2312.8,3081.8-2313.6,3081.8-2315.4z"/>
				</g>
				<g>
					<path id="DecimaMonoPro-35" d="M3128.6-2287.3c-0.5-0.8-1.2-1.2-2.1-1.2c-0.3,0-0.8,0.1-1.6,0.4l-3.4,1
						c-1.1,0.3-1.5,1.2-1.4,2.7l2.5,29.2c0.1,1.5,0.9,2.3,2.2,2.3h26.3c1.5,0,2.2-0.8,2.2-2.3v-3.3c0-1.5-0.7-2.3-2.2-2.3h-20.3
						l-1.7-17.3c1.9,1.6,4.6,2.4,8.3,2.4c5.1,0,9.5-1.7,13-5.2s5.3-7.8,5.3-13.1v-11.4c0-5.1-1.8-9.5-5.5-13.1
						c-3.7-3.6-8.1-5.4-13.4-5.4c-5.5,0-10,1.8-13.6,5.3c-3.6,3.6-5.5,7.9-5.5,13.1c0,0.5,0.2,1,0.6,1.4c0.4,0.4,1,0.6,1.7,0.6h3.8
						c0.7,0,1.3-0.2,1.7-0.6c0.4-0.4,0.6-0.9,0.6-1.4c0-2.9,1-5.4,3.1-7.5s4.6-3,7.6-3c2.9,0,5.4,1,7.5,3s3,4.5,3,7.5v11.4
						c0,2.9-1,5.4-3.1,7.5s-4.6,3-7.7,3c-1.4,0-2.7-0.3-4-0.9c-1.3-0.6-2.2-1.1-2.7-1.5C3129.3-2286.4,3128.9-2286.9,3128.6-2287.3z
						"/>
				</g>
			</g>
		</g>
	</g>
	<g id="xtick_7">
		<g id="line2d_13">
			<g>
				<defs>
					<rect id="SVGID_13_" x="393" y="350.7" width="375.8" height="241.2"/>
				</defs>
				<clipPath id="SVGID_14_">
					<use xlink:href="#SVGID_13_"  style="overflow:visible;"/>
				</clipPath>
				<path class="st7" d="M609.3,591.9V350.7"/>
			</g>
		</g>
		<g id="line2d_14">
		</g>
		<g id="text_7">
			<g transform="translate(240.045283 325.11125)scale(0.12 -0.12)">
				<g>
					<path id="DecimaMonoPro-30_6_" d="M3034.9-2270.3v-35.2c0-5.1-1.8-9.5-5.3-13.1c-3.5-3.6-7.9-5.3-13.1-5.3
						c-5.2,0-9.5,1.8-13,5.4c-3.4,3.6-5.1,8-5.1,13.1v35.1c0,5.1,1.7,9.5,5.1,13c3.4,3.6,7.8,5.4,13,5.4c5.2,0,9.6-1.8,13.1-5.4
						C3033.2-2260.8,3034.9-2265.1,3034.9-2270.3z M3026.6-2305.6v35.2c0,2.9-1,5.4-2.9,7.5s-4.3,3.1-7.1,3.1c-2.7,0-5.1-1-7-3.1
						c-1.9-2.1-2.9-4.6-2.9-7.5v-35.1c0-2.9,1-5.4,2.9-7.5c1.9-2,4.3-3,7.1-3c2.7,0,5.1,1,7,3S3026.6-2308.5,3026.6-2305.6z"/>
				</g>
				<g>
					<path id="DecimaMonoPro-2e_5_" d="M3081.8-2315.4v-4.9c0-1.7-0.9-2.6-2.6-2.6h-5c-1.7,0-2.6,0.9-2.6,2.6v4.9
						c0,1.7,0.9,2.6,2.6,2.6h5C3081-2312.8,3081.8-2313.6,3081.8-2315.4z"/>
				</g>
				<g>
					<path id="DecimaMonoPro-36" d="M3117.7-2262.6c7.1,7.2,13.2,10.8,18.5,10.8s9.7-1.7,13.2-5c3.5-3.4,5.3-7.2,5.3-11.5
						c0-0.5-0.2-1-0.6-1.4c-0.4-0.4-1-0.6-1.7-0.6h-3.8c-1.4,0-2.2,0.7-2.3,2c-0.1,2.1-1.1,4.1-2.9,5.9c-1.8,1.8-4.1,2.7-7.1,2.7
						c-2.9,0-5.3-1-7.3-3.1c-2-2.1-3-4.6-3-7.5v-9.6c0.3,0.3,0.7,0.8,1.3,1.3c0.6,0.5,1.9,1.2,4,2c2,0.8,4.2,1.2,6.5,1.2
						c4.9,0,9.2-1.7,12.7-5.2s5.3-7.8,5.3-13.1v-11.4c0-5.1-1.8-9.5-5.5-13.1c-3.6-3.6-8.2-5.4-13.5-5.4s-9.9,1.8-13.5,5.3
						c-3.6,3.6-5.5,7.9-5.5,13.1v35.1c0,5.1,3.5,11.3,10.6,18.5L3117.7-2262.6z M3136.7-2283.6c-3.1,0-5.6-1-7.7-2.9
						c-2-1.9-3-4.5-3-7.6v-11.5c0-2.9,1-5.4,3.1-7.4c2.1-2,4.6-3,7.6-3c2.9,0,5.4,1,7.5,3s3.1,4.5,3.1,7.5v11.4c0,3.1-1,5.6-3,7.5
						C3142.3-2284.5,3139.7-2283.6,3136.7-2283.6z"/>
				</g>
			</g>
		</g>
	</g>
	<g id="xtick_8">
		<g id="line2d_15">
			<g>
				<defs>
					<rect id="SVGID_15_" x="393" y="350.7" width="375.8" height="241.2"/>
				</defs>
				<clipPath id="SVGID_16_">
					<use xlink:href="#SVGID_15_"  style="overflow:visible;"/>
				</clipPath>
				<path class="st8" d="M644.7,591.9V350.7"/>
			</g>
		</g>
		<g id="line2d_16">
		</g>
		<g id="text_8">
			<g transform="translate(275.501887 325.11125)scale(0.12 -0.12)">
				<g>
					<path id="DecimaMonoPro-30_7_" d="M3034.9-2270.3v-35.2c0-5.1-1.8-9.5-5.3-13.1c-3.5-3.6-7.9-5.3-13.1-5.3
						c-5.2,0-9.5,1.8-13,5.4c-3.4,3.6-5.1,8-5.1,13.1v35.1c0,5.1,1.7,9.5,5.1,13c3.4,3.6,7.8,5.4,13,5.4c5.2,0,9.6-1.8,13.1-5.4
						C3033.2-2260.8,3034.9-2265.1,3034.9-2270.3z M3026.6-2305.6v35.2c0,2.9-1,5.4-2.9,7.5s-4.3,3.1-7.1,3.1c-2.7,0-5.1-1-7-3.1
						c-1.9-2.1-2.9-4.6-2.9-7.5v-35.1c0-2.9,1-5.4,2.9-7.5c1.9-2,4.3-3,7.1-3c2.7,0,5.1,1,7,3S3026.6-2308.5,3026.6-2305.6z"/>
				</g>
				<g>
					<path id="DecimaMonoPro-2e_6_" d="M3081.8-2315.4v-4.9c0-1.7-0.9-2.6-2.6-2.6h-5c-1.7,0-2.6,0.9-2.6,2.6v4.9
						c0,1.7,0.9,2.6,2.6,2.6h5C3081-2312.8,3081.8-2313.6,3081.8-2315.4z"/>
				</g>
				<g>
					<path id="DecimaMonoPro-37" d="M3145.8-2260.8h-24.4c-1.5,0-2.2,0.8-2.2,2.3v3.3c0,1.5,0.7,2.3,2.2,2.3h30.1
						c1.8,0,2.7-0.8,2.7-2.4v-4.9c0-3-1.3-8.3-3.9-15.8c-2.6-7.5-5.2-15.5-7.8-24c-2.6-8.5-3.9-15.5-3.9-21c0-0.5-0.2-1-0.7-1.4
						c-0.4-0.4-0.9-0.6-1.3-0.6h-4.2c-0.7,0-1.3,0.2-1.7,0.6c-0.4,0.4-0.6,0.9-0.6,1.4c0,4.9,0.8,10.7,2.4,17.2
						c1.6,6.5,3.4,12.3,5.3,17.3c1.9,5.1,3.7,10.1,5.4,15S3145.7-2262.8,3145.8-2260.8z"/>
				</g>
			</g>
		</g>
	</g>
	<g id="xtick_9">
		<g id="line2d_17">
			<g>
				<defs>
					<rect id="SVGID_17_" x="393" y="350.7" width="375.8" height="241.2"/>
				</defs>
				<clipPath id="SVGID_18_">
					<use xlink:href="#SVGID_17_"  style="overflow:visible;"/>
				</clipPath>
				<path class="st9" d="M680.2,591.9V350.7"/>
			</g>
		</g>
		<g id="line2d_18">
		</g>
		<g id="text_9">
			<g transform="translate(310.958491 325.11125)scale(0.12 -0.12)">
				<g>
					<path id="DecimaMonoPro-30_8_" d="M3034.9-2270.3v-35.2c0-5.1-1.8-9.5-5.3-13.1c-3.5-3.6-7.9-5.3-13.1-5.3
						c-5.2,0-9.5,1.8-13,5.4c-3.4,3.6-5.1,8-5.1,13.1v35.1c0,5.1,1.7,9.5,5.1,13c3.4,3.6,7.8,5.4,13,5.4c5.2,0,9.6-1.8,13.1-5.4
						C3033.2-2260.8,3034.9-2265.1,3034.9-2270.3z M3026.6-2305.6v35.2c0,2.9-1,5.4-2.9,7.5s-4.3,3.1-7.1,3.1c-2.7,0-5.1-1-7-3.1
						c-1.9-2.1-2.9-4.6-2.9-7.5v-35.1c0-2.9,1-5.4,2.9-7.5c1.9-2,4.3-3,7.1-3c2.7,0,5.1,1,7,3S3026.6-2308.5,3026.6-2305.6z"/>
				</g>
				<g>
					<path id="DecimaMonoPro-2e_7_" d="M3081.8-2315.4v-4.9c0-1.7-0.9-2.6-2.6-2.6h-5c-1.7,0-2.6,0.9-2.6,2.6v4.9
						c0,1.7,0.9,2.6,2.6,2.6h5C3081-2312.8,3081.8-2313.6,3081.8-2315.4z"/>
				</g>
				<g>
					<path id="DecimaMonoPro-38" d="M3154.8-2269.4v-3.7c0-5.5-2.1-10-6.3-13.4c4.8-3.7,7.2-8.6,7.2-14.7v-4.3
						c0-5.1-1.8-9.5-5.4-13.1c-3.6-3.6-7.9-5.3-13.1-5.3h-0.9c-5.2,0-9.6,1.8-13.2,5.4c-3.6,3.6-5.4,8-5.4,13.1v4.2
						c0,6,2.4,10.9,7.3,14.7c-4.3,3.3-6.5,7.8-6.5,13.5v3.6c0,4.9,1.7,9,5.1,12.4c3.4,3.4,7.6,5.1,12.6,5.1h0.9
						c4.9,0,9.1-1.7,12.5-5.1C3153.1-2260.4,3154.8-2264.5,3154.8-2269.4z M3147.3-2305.6v4.3c0,2.9-1,5.4-3.1,7.5
						c-2.1,2.1-4.6,3.1-7.5,3.1s-5.4-1-7.5-3.1c-2.1-2.1-3.1-4.6-3.1-7.5v-4.2c0-2.9,1-5.4,3.1-7.5c2.1-2,4.7-3,7.7-3
						c2.9,0,5.3,1,7.3,3S3147.3-2308.5,3147.3-2305.6z M3146.4-2273.1v3.4c0,2.8-1,5.2-2.9,7.1c-1.9,1.9-4.2,2.9-7,2.9
						c-2.7,0-4.9-1-6.8-2.9c-1.9-1.9-2.8-4.3-2.8-7.1v-3.3c0-2.6,0.9-4.9,2.6-6.8c1.8-1.9,4-2.9,6.8-2.9h0.9c2.5,0,4.7,0.9,6.5,2.8
						C3145.5-2278.2,3146.4-2275.9,3146.4-2273.1z"/>
				</g>
			</g>
		</g>
	</g>
	<g id="xtick_10">
		<g id="line2d_19">
			<g>
				<defs>
					<rect id="SVGID_19_" x="393" y="350.7" width="375.8" height="241.2"/>
				</defs>
				<clipPath id="SVGID_20_">
					<use xlink:href="#SVGID_19_"  style="overflow:visible;"/>
				</clipPath>
				<path class="st10" d="M715.6,591.9V350.7"/>
			</g>
		</g>
		<g id="line2d_20">
		</g>
		<g id="text_10">
			<g transform="translate(346.415094 325.11125)scale(0.12 -0.12)">
				<g>
					<path id="DecimaMonoPro-30_9_" d="M3034.9-2270.3v-35.2c0-5.1-1.8-9.5-5.3-13.1c-3.5-3.6-7.9-5.3-13.1-5.3
						c-5.2,0-9.5,1.8-13,5.4c-3.4,3.6-5.1,8-5.1,13.1v35.1c0,5.1,1.7,9.5,5.1,13c3.4,3.6,7.8,5.4,13,5.4c5.2,0,9.6-1.8,13.1-5.4
						C3033.2-2260.8,3034.9-2265.1,3034.9-2270.3z M3026.6-2305.6v35.2c0,2.9-1,5.4-2.9,7.5s-4.3,3.1-7.1,3.1c-2.7,0-5.1-1-7-3.1
						c-1.9-2.1-2.9-4.6-2.9-7.5v-35.1c0-2.9,1-5.4,2.9-7.5c1.9-2,4.3-3,7.1-3c2.7,0,5.1,1,7,3S3026.6-2308.5,3026.6-2305.6z"/>
				</g>
				<g>
					<path id="DecimaMonoPro-2e_8_" d="M3081.8-2315.4v-4.9c0-1.7-0.9-2.6-2.6-2.6h-5c-1.7,0-2.6,0.9-2.6,2.6v4.9
						c0,1.7,0.9,2.6,2.6,2.6h5C3081-2312.8,3081.8-2313.6,3081.8-2315.4z"/>
				</g>
				<g>
					<path id="DecimaMonoPro-39" d="M3155.7-2313.1c-7.1-7.2-13.2-10.8-18.5-10.8s-9.7,1.7-13.2,5c-3.5,3.4-5.3,7.2-5.3,11.5
						c0,0.5,0.2,1,0.6,1.4c0.4,0.4,1,0.6,1.7,0.6h3.8c1.4,0,2.2-0.7,2.3-2c0.1-2.1,1.1-4.1,2.8-5.9c1.8-1.8,4.2-2.7,7.2-2.7
						c2.9,0,5.3,1,7.3,3.1c2,2.1,3,4.6,3,7.5v9.6c-0.3-0.3-0.7-0.8-1.3-1.3c-0.6-0.5-1.9-1.2-3.9-2c-2-0.8-4.2-1.2-6.5-1.2
						c-4.9,0-9.2,1.7-12.7,5.2s-5.3,7.8-5.3,13.1v11.4c0,5.1,1.8,9.5,5.5,13.1c3.6,3.6,8.2,5.4,13.5,5.4s9.9-1.8,13.5-5.4
						c3.6-3.6,5.5-7.9,5.5-13v-35.1c0-5.1-3.5-11.3-10.6-18.5L3155.7-2313.1z M3136.7-2292.1c3.1,0,5.6,1,7.6,2.9
						c2,1.9,3.1,4.5,3.1,7.6v11.5c0,2.9-1,5.4-3.1,7.4c-2.1,2-4.6,3-7.6,3c-2.9,0-5.4-1-7.5-3s-3.1-4.5-3.1-7.5v-11.4
						c0-3.1,1-5.6,3-7.6C3131.2-2291.2,3133.7-2292.1,3136.7-2292.1z"/>
				</g>
			</g>
		</g>
	</g>
	<g id="xtick_11">
		<g id="line2d_21">
			<g>
				<defs>
					<rect id="SVGID_21_" x="393" y="350.7" width="375.8" height="241.2"/>
				</defs>
				<clipPath id="SVGID_22_">
					<use xlink:href="#SVGID_21_"  style="overflow:visible;"/>
				</clipPath>
				<path class="st11" d="M751.1,591.9V350.7"/>
			</g>
		</g>
		<g id="line2d_22">
		</g>
		<g id="text_11">
			<g transform="translate(389.071698 325.11125)scale(0.12 -0.12)">
				<g>
					<path id="DecimaMonoPro-31_1_" d="M3000.6-2254.6l11.3,1.8h7.1c0.5,0,0.9-0.2,1.3-0.5c0.4-0.3,0.5-0.8,0.5-1.3v-60.5h13.2
						c0.5,0,0.9-0.2,1.3-0.6c0.4-0.4,0.5-0.8,0.5-1.2v-4.1c0-0.5-0.2-1-0.5-1.3c-0.4-0.3-0.8-0.5-1.3-0.5h-34.7
						c-0.5,0-1,0.2-1.3,0.5c-0.3,0.3-0.5,0.8-0.5,1.3v4.1c0,0.5,0.2,0.9,0.5,1.2c0.3,0.4,0.8,0.6,1.3,0.6h13.1v54.4l-11-1.7h-0.3
						c-0.3-0.1-0.6-0.1-0.9-0.1c-0.9,0-1.4,0.6-1.4,1.8v4.2C2998.8-2255.6,2999.4-2254.9,3000.6-2254.6z"/>
				</g>
			</g>
		</g>
	</g>
</g>
<g id="matplotlib.axis_2">
	<g id="ytick_1">
		<g id="line2d_23">
			<g>
				<defs>
					<rect id="SVGID_23_" x="393" y="350.7" width="375.8" height="241.2"/>
				</defs>
				<clipPath id="SVGID_24_">
					<use xlink:href="#SVGID_23_"  style="overflow:visible;"/>
				</clipPath>
				<path class="st12" d="M393,581h375.8"/>
			</g>
		</g>
		<g id="line2d_24">
		</g>
		<g id="text_12">
			<g transform="translate(9.46 306.441989)scale(0.12 -0.12)">
				<g>
					<path id="DecimaMonoPro-30_10_" d="M3034.9-2270.3v-35.2c0-5.1-1.8-9.5-5.3-13.1c-3.5-3.6-7.9-5.3-13.1-5.3
						c-5.2,0-9.5,1.8-13,5.4c-3.4,3.6-5.1,8-5.1,13.1v35.1c0,5.1,1.7,9.5,5.1,13c3.4,3.6,7.8,5.4,13,5.4c5.2,0,9.6-1.8,13.1-5.4
						C3033.2-2260.8,3034.9-2265.1,3034.9-2270.3z M3026.6-2305.6v35.2c0,2.9-1,5.4-2.9,7.5s-4.3,3.1-7.1,3.1c-2.7,0-5.1-1-7-3.1
						c-1.9-2.1-2.9-4.6-2.9-7.5v-35.1c0-2.9,1-5.4,2.9-7.5c1.9-2,4.3-3,7.1-3c2.7,0,5.1,1,7,3S3026.6-2308.5,3026.6-2305.6z"/>
				</g>
				<g>
					<path id="DecimaMonoPro-2e_9_" d="M3081.8-2315.4v-4.9c0-1.7-0.9-2.6-2.6-2.6h-5c-1.7,0-2.6,0.9-2.6,2.6v4.9
						c0,1.7,0.9,2.6,2.6,2.6h5C3081-2312.8,3081.8-2313.6,3081.8-2315.4z"/>
				</g>
				<g>
					<path id="DecimaMonoPro-30_11_" d="M3154.9-2270.3v-35.2c0-5.1-1.8-9.5-5.3-13.1c-3.5-3.6-7.9-5.3-13.1-5.3
						c-5.2,0-9.5,1.8-13,5.4c-3.4,3.6-5.1,8-5.1,13.1v35.1c0,5.1,1.7,9.5,5.1,13c3.4,3.6,7.8,5.4,13,5.4c5.2,0,9.6-1.8,13.1-5.4
						C3153.2-2260.8,3154.9-2265.1,3154.9-2270.3z M3146.6-2305.6v35.2c0,2.9-1,5.4-2.9,7.5s-4.3,3.1-7.1,3.1c-2.7,0-5.1-1-7-3.1
						c-1.9-2.1-2.9-4.6-2.9-7.5v-35.1c0-2.9,1-5.4,2.9-7.5c1.9-2,4.3-3,7.1-3c2.7,0,5.1,1,7,3S3146.6-2308.5,3146.6-2305.6z"/>
				</g>
			</g>
		</g>
	</g>
	<g id="ytick_2">
		<g id="line2d_25">
			<g>
				<defs>
					<rect id="SVGID_25_" x="393" y="350.7" width="375.8" height="241.2"/>
				</defs>
				<clipPath id="SVGID_26_">
					<use xlink:href="#SVGID_25_"  style="overflow:visible;"/>
				</clipPath>
				<path class="st13" d="M393,535.4h375.8"/>
			</g>
		</g>
		<g id="line2d_26">
		</g>
		<g id="text_13">
			<g transform="translate(9.46 260.902481)scale(0.12 -0.12)">
				<g>
					<path id="DecimaMonoPro-30_12_" d="M3034.9-2270.3v-35.2c0-5.1-1.8-9.5-5.3-13.1c-3.5-3.6-7.9-5.3-13.1-5.3
						c-5.2,0-9.5,1.8-13,5.4c-3.4,3.6-5.1,8-5.1,13.1v35.1c0,5.1,1.7,9.5,5.1,13c3.4,3.6,7.8,5.4,13,5.4c5.2,0,9.6-1.8,13.1-5.4
						C3033.2-2260.8,3034.9-2265.1,3034.9-2270.3z M3026.6-2305.6v35.2c0,2.9-1,5.4-2.9,7.5s-4.3,3.1-7.1,3.1c-2.7,0-5.1-1-7-3.1
						c-1.9-2.1-2.9-4.6-2.9-7.5v-35.1c0-2.9,1-5.4,2.9-7.5c1.9-2,4.3-3,7.1-3c2.7,0,5.1,1,7,3S3026.6-2308.5,3026.6-2305.6z"/>
				</g>
				<g>
					<path id="DecimaMonoPro-2e_10_" d="M3081.8-2315.4v-4.9c0-1.7-0.9-2.6-2.6-2.6h-5c-1.7,0-2.6,0.9-2.6,2.6v4.9
						c0,1.7,0.9,2.6,2.6,2.6h5C3081-2312.8,3081.8-2313.6,3081.8-2315.4z"/>
				</g>
				<g>
					<path id="DecimaMonoPro-32_1_" d="M3118.4-2269.9c0,4.5,1.8,8.6,5.5,12.3c3.7,3.8,8.1,5.7,13.4,5.7c5.2,0,9.6-1.8,13.2-5.3
						c3.6-3.5,5.4-7.8,5.4-13c0-3.9-1-7.5-3.1-11c-2.1-3.4-4.6-6.4-7.5-8.9c-2.9-2.5-5.9-5-8.8-7.4c-2.9-2.4-5.4-5.1-7.5-8.1
						c-2.1-3-3.1-6.2-3.1-9.5h28.2c0.5,0,1-0.2,1.3-0.5c0.3-0.3,0.5-0.8,0.5-1.3v-4.2c0-0.5-0.2-1-0.5-1.3c-0.3-0.3-0.8-0.5-1.3-0.5
						h-34.8c-0.5,0-1,0.2-1.3,0.5c-0.3,0.3-0.5,0.8-0.5,1.3v5.5c0,4.4,1,8.5,3.1,12.2c2.1,3.7,4.6,6.8,7.5,9.4
						c2.9,2.6,5.9,5.1,8.8,7.5c2.9,2.4,5.4,5,7.5,7.9c2.1,2.9,3.1,5.9,3.1,9c0,2.7-1,5.1-3,7c-2,1.9-4.4,2.8-7.3,2.8
						c-2.9,0-5.4-1.1-7.3-3.4c-1.9-2.3-3-4.5-3.1-6.7c-0.1-1.3-0.9-2-2.3-2h-3.8c-0.7,0-1.3,0.2-1.7,0.6
						C3118.6-2270.9,3118.4-2270.4,3118.4-2269.9z"/>
				</g>
			</g>
		</g>
	</g>
	<g id="ytick_3">
		<g id="line2d_27">
			<g>
				<defs>
					<rect id="SVGID_27_" x="393" y="350.7" width="375.8" height="241.2"/>
				</defs>
				<clipPath id="SVGID_28_">
					<use xlink:href="#SVGID_27_"  style="overflow:visible;"/>
				</clipPath>
				<path class="st14" d="M393,489.9h375.8"/>
			</g>
		</g>
		<g id="line2d_28">
		</g>
		<g id="text_14">
			<g transform="translate(9.46 215.362974)scale(0.12 -0.12)">
				<g>
					<path id="DecimaMonoPro-30_13_" d="M3034.9-2270.3v-35.2c0-5.1-1.8-9.5-5.3-13.1c-3.5-3.6-7.9-5.3-13.1-5.3
						c-5.2,0-9.5,1.8-13,5.4c-3.4,3.6-5.1,8-5.1,13.1v35.1c0,5.1,1.7,9.5,5.1,13c3.4,3.6,7.8,5.4,13,5.4c5.2,0,9.6-1.8,13.1-5.4
						C3033.2-2260.8,3034.9-2265.1,3034.9-2270.3z M3026.6-2305.6v35.2c0,2.9-1,5.4-2.9,7.5s-4.3,3.1-7.1,3.1c-2.7,0-5.1-1-7-3.1
						c-1.9-2.1-2.9-4.6-2.9-7.5v-35.1c0-2.9,1-5.4,2.9-7.5c1.9-2,4.3-3,7.1-3c2.7,0,5.1,1,7,3S3026.6-2308.5,3026.6-2305.6z"/>
				</g>
				<g>
					<path id="DecimaMonoPro-2e_11_" d="M3081.8-2315.4v-4.9c0-1.7-0.9-2.6-2.6-2.6h-5c-1.7,0-2.6,0.9-2.6,2.6v4.9
						c0,1.7,0.9,2.6,2.6,2.6h5C3081-2312.8,3081.8-2313.6,3081.8-2315.4z"/>
				</g>
				<g>
					<path id="DecimaMonoPro-34_1_" d="M3146.8-2255.4l-20.6-44.6h16.3v16c0,0.5,0.2,1,0.6,1.4c0.4,0.4,1,0.6,1.7,0.6h4.1
						c0.5,0,1-0.2,1.4-0.7c0.4-0.4,0.6-0.9,0.6-1.3v-16h3.8c0.5,0,1-0.2,1.4-0.6c0.4-0.4,0.6-1,0.6-1.7v-3.2c0-0.7-0.2-1.3-0.6-1.7
						c-0.4-0.4-0.9-0.6-1.4-0.6h-3.8v-13.1c0-0.5-0.2-1-0.6-1.4c-0.4-0.4-0.9-0.6-1.4-0.6h-4.1c-0.7,0-1.3,0.2-1.7,0.6
						c-0.4,0.4-0.6,0.9-0.6,1.4v13.1h-23.7c-1.5,0-2.2,0.8-2.2,2.3v3.9c0,0.8,0.4,1.9,1.1,3.4l20.3,43.3c0.7,1.3,1.6,2,2.7,2h4.8
						c1.1,0,1.7-0.4,1.7-1.2C3147.2-2254.3,3147.1-2254.7,3146.8-2255.4z"/>
				</g>
			</g>
		</g>
	</g>
	<g id="ytick_4">
		<g id="line2d_29">
			<g>
				<defs>
					<rect id="SVGID_29_" x="393" y="350.7" width="375.8" height="241.2"/>
				</defs>
				<clipPath id="SVGID_30_">
					<use xlink:href="#SVGID_29_"  style="overflow:visible;"/>
				</clipPath>
				<path class="st15" d="M393,444.4h375.8"/>
			</g>
		</g>
		<g id="line2d_30">
		</g>
		<g id="text_15">
			<g transform="translate(9.46 169.823467)scale(0.12 -0.12)">
				<g>
					<path id="DecimaMonoPro-30_14_" d="M3034.9-2270.3v-35.2c0-5.1-1.8-9.5-5.3-13.1c-3.5-3.6-7.9-5.3-13.1-5.3
						c-5.2,0-9.5,1.8-13,5.4c-3.4,3.6-5.1,8-5.1,13.1v35.1c0,5.1,1.7,9.5,5.1,13c3.4,3.6,7.8,5.4,13,5.4c5.2,0,9.6-1.8,13.1-5.4
						C3033.2-2260.8,3034.9-2265.1,3034.9-2270.3z M3026.6-2305.6v35.2c0,2.9-1,5.4-2.9,7.5s-4.3,3.1-7.1,3.1c-2.7,0-5.1-1-7-3.1
						c-1.9-2.1-2.9-4.6-2.9-7.5v-35.1c0-2.9,1-5.4,2.9-7.5c1.9-2,4.3-3,7.1-3c2.7,0,5.1,1,7,3S3026.6-2308.5,3026.6-2305.6z"/>
				</g>
				<g>
					<path id="DecimaMonoPro-2e_12_" d="M3081.8-2315.4v-4.9c0-1.7-0.9-2.6-2.6-2.6h-5c-1.7,0-2.6,0.9-2.6,2.6v4.9
						c0,1.7,0.9,2.6,2.6,2.6h5C3081-2312.8,3081.8-2313.6,3081.8-2315.4z"/>
				</g>
				<g>
					<path id="DecimaMonoPro-36_1_" d="M3117.7-2262.6c7.1,7.2,13.2,10.8,18.5,10.8s9.7-1.7,13.2-5c3.5-3.4,5.3-7.2,5.3-11.5
						c0-0.5-0.2-1-0.6-1.4c-0.4-0.4-1-0.6-1.7-0.6h-3.8c-1.4,0-2.2,0.7-2.3,2c-0.1,2.1-1.1,4.1-2.9,5.9c-1.8,1.8-4.1,2.7-7.1,2.7
						c-2.9,0-5.3-1-7.3-3.1c-2-2.1-3-4.6-3-7.5v-9.6c0.3,0.3,0.7,0.8,1.3,1.3c0.6,0.5,1.9,1.2,4,2c2,0.8,4.2,1.2,6.5,1.2
						c4.9,0,9.2-1.7,12.7-5.2s5.3-7.8,5.3-13.1v-11.4c0-5.1-1.8-9.5-5.5-13.1c-3.6-3.6-8.2-5.4-13.5-5.4s-9.9,1.8-13.5,5.3
						c-3.6,3.6-5.5,7.9-5.5,13.1v35.1c0,5.1,3.5,11.3,10.6,18.5L3117.7-2262.6z M3136.7-2283.6c-3.1,0-5.6-1-7.7-2.9
						c-2-1.9-3-4.5-3-7.6v-11.5c0-2.9,1-5.4,3.1-7.4c2.1-2,4.6-3,7.6-3c2.9,0,5.4,1,7.5,3s3.1,4.5,3.1,7.5v11.4c0,3.1-1,5.6-3,7.5
						C3142.3-2284.5,3139.7-2283.6,3136.7-2283.6z"/>
				</g>
			</g>
		</g>
	</g>
	<g id="ytick_5">
		<g id="line2d_31">
			<g>
				<defs>
					<rect id="SVGID_31_" x="393" y="350.7" width="375.8" height="241.2"/>
				</defs>
				<clipPath id="SVGID_32_">
					<use xlink:href="#SVGID_31_"  style="overflow:visible;"/>
				</clipPath>
				<path class="st16" d="M393,398.8h375.8"/>
			</g>
		</g>
		<g id="line2d_32">
		</g>
		<g id="text_16">
			<g transform="translate(9.46 124.28396)scale(0.12 -0.12)">
				<g>
					<path id="DecimaMonoPro-30_15_" d="M3034.9-2270.3v-35.2c0-5.1-1.8-9.5-5.3-13.1c-3.5-3.6-7.9-5.3-13.1-5.3
						c-5.2,0-9.5,1.8-13,5.4c-3.4,3.6-5.1,8-5.1,13.1v35.1c0,5.1,1.7,9.5,5.1,13c3.4,3.6,7.8,5.4,13,5.4c5.2,0,9.6-1.8,13.1-5.4
						C3033.2-2260.8,3034.9-2265.1,3034.9-2270.3z M3026.6-2305.6v35.2c0,2.9-1,5.4-2.9,7.5s-4.3,3.1-7.1,3.1c-2.7,0-5.1-1-7-3.1
						c-1.9-2.1-2.9-4.6-2.9-7.5v-35.1c0-2.9,1-5.4,2.9-7.5c1.9-2,4.3-3,7.1-3c2.7,0,5.1,1,7,3S3026.6-2308.5,3026.6-2305.6z"/>
				</g>
				<g>
					<path id="DecimaMonoPro-2e_13_" d="M3081.8-2315.4v-4.9c0-1.7-0.9-2.6-2.6-2.6h-5c-1.7,0-2.6,0.9-2.6,2.6v4.9
						c0,1.7,0.9,2.6,2.6,2.6h5C3081-2312.8,3081.8-2313.6,3081.8-2315.4z"/>
				</g>
				<g>
					<path id="DecimaMonoPro-38_1_" d="M3154.8-2269.4v-3.7c0-5.5-2.1-10-6.3-13.4c4.8-3.7,7.2-8.6,7.2-14.7v-4.3
						c0-5.1-1.8-9.5-5.4-13.1c-3.6-3.6-7.9-5.3-13.1-5.3h-0.9c-5.2,0-9.6,1.8-13.2,5.4c-3.6,3.6-5.4,8-5.4,13.1v4.2
						c0,6,2.4,10.9,7.3,14.7c-4.3,3.3-6.5,7.8-6.5,13.5v3.6c0,4.9,1.7,9,5.1,12.4c3.4,3.4,7.6,5.1,12.6,5.1h0.9
						c4.9,0,9.1-1.7,12.5-5.1C3153.1-2260.4,3154.8-2264.5,3154.8-2269.4z M3147.3-2305.6v4.3c0,2.9-1,5.4-3.1,7.5
						c-2.1,2.1-4.6,3.1-7.5,3.1s-5.4-1-7.5-3.1c-2.1-2.1-3.1-4.6-3.1-7.5v-4.2c0-2.9,1-5.4,3.1-7.5c2.1-2,4.7-3,7.7-3
						c2.9,0,5.3,1,7.3,3S3147.3-2308.5,3147.3-2305.6z M3146.4-2273.1v3.4c0,2.8-1,5.2-2.9,7.1c-1.9,1.9-4.2,2.9-7,2.9
						c-2.7,0-4.9-1-6.8-2.9c-1.9-1.9-2.8-4.3-2.8-7.1v-3.3c0-2.6,0.9-4.9,2.6-6.8c1.8-1.9,4-2.9,6.8-2.9h0.9c2.5,0,4.7,0.9,6.5,2.8
						C3145.5-2278.2,3146.4-2275.9,3146.4-2273.1z"/>
				</g>
			</g>
		</g>
	</g>
	<g id="ytick_6">
		<g id="line2d_33">
			<g>
				<defs>
					<rect id="SVGID_33_" x="393" y="350.7" width="375.8" height="241.2"/>
				</defs>
				<clipPath id="SVGID_34_">
					<use xlink:href="#SVGID_33_"  style="overflow:visible;"/>
				</clipPath>
				<path class="st17" d="M393,353.3h375.8"/>
			</g>
		</g>
		<g id="line2d_34">
		</g>
		<g id="text_17">
			<g transform="translate(9.46 78.744453)scale(0.12 -0.12)">
				<g>
					<path id="DecimaMonoPro-31_2_" d="M3000.6-2254.6l11.3,1.8h7.1c0.5,0,0.9-0.2,1.3-0.5c0.4-0.3,0.5-0.8,0.5-1.3v-60.5h13.2
						c0.5,0,0.9-0.2,1.3-0.6c0.4-0.4,0.5-0.8,0.5-1.2v-4.1c0-0.5-0.2-1-0.5-1.3c-0.4-0.3-0.8-0.5-1.3-0.5h-34.7
						c-0.5,0-1,0.2-1.3,0.5c-0.3,0.3-0.5,0.8-0.5,1.3v4.1c0,0.5,0.2,0.9,0.5,1.2c0.3,0.4,0.8,0.6,1.3,0.6h13.1v54.4l-11-1.7h-0.3
						c-0.3-0.1-0.6-0.1-0.9-0.1c-0.9,0-1.4,0.6-1.4,1.8v4.2C2998.8-2255.6,2999.4-2254.9,3000.6-2254.6z"/>
				</g>
				<g>
					<path id="DecimaMonoPro-2e_14_" d="M3081.8-2315.4v-4.9c0-1.7-0.9-2.6-2.6-2.6h-5c-1.7,0-2.6,0.9-2.6,2.6v4.9
						c0,1.7,0.9,2.6,2.6,2.6h5C3081-2312.8,3081.8-2313.6,3081.8-2315.4z"/>
				</g>
				<g>
					<path id="DecimaMonoPro-30_16_" d="M3154.9-2270.3v-35.2c0-5.1-1.8-9.5-5.3-13.1c-3.5-3.6-7.9-5.3-13.1-5.3
						c-5.2,0-9.5,1.8-13,5.4c-3.4,3.6-5.1,8-5.1,13.1v35.1c0,5.1,1.7,9.5,5.1,13c3.4,3.6,7.8,5.4,13,5.4c5.2,0,9.6-1.8,13.1-5.4
						C3153.2-2260.8,3154.9-2265.1,3154.9-2270.3z M3146.6-2305.6v35.2c0,2.9-1,5.4-2.9,7.5s-4.3,3.1-7.1,3.1c-2.7,0-5.1-1-7-3.1
						c-1.9-2.1-2.9-4.6-2.9-7.5v-35.1c0-2.9,1-5.4,2.9-7.5c1.9-2,4.3-3,7.1-3c2.7,0,5.1,1,7,3S3146.6-2308.5,3146.6-2305.6z"/>
				</g>
			</g>
		</g>
	</g>
</g>
<g id="line2d_35">
	<g>
		<defs>
			<rect id="SVGID_35_" x="393" y="350.7" width="375.8" height="241.2"/>
		</defs>
		<clipPath id="SVGID_36_">
			<use xlink:href="#SVGID_35_"  style="overflow:visible;"/>
		</clipPath>
		<path class="st18" d="M396.5,361.7l35.5,26.6l35.5,18.4l35.5,18.2l35.5,20.5l35.5,24.6l35.5,13.2l35.5,37.6l35.5,17.3l35.5,14.8
			l35.5,10"/>
	</g>
</g>
<rect x="393" y="350.7" class="st19" width="375.8" height="241.2"/>
<path class="st20" d="M396.5,371.5L432,504.9l35.5,30.7l35.5-5.7l35.5-5.2l35.5-6.4l35.5-2.3l35.5-11.4l35.5-3.4l35.5-3.4l35.5-1.4"
	/>
<g>
	<defs>
		<rect id="SVGID_37_" x="393" y="350.7" width="375.8" height="241.2"/>
	</defs>
	<clipPath id="SVGID_38_">
		<use xlink:href="#SVGID_37_"  style="overflow:visible;"/>
	</clipPath>
	<path class="st21" d="M396.5,361.7l35.5,30.7l35.5,32.1l35.5,27.6l35.5,17.5l35.5,25.7l35.5,9.8l35.5,19.6l35.5,1.8l35.5,6.1
		l35.5,2.5"/>
</g>
<g id="line2d_38">
	<g>
		<defs>
			<rect id="SVGID_39_" x="393" y="350.7" width="375.8" height="241.2"/>
		</defs>
		<clipPath id="SVGID_40_">
			<use xlink:href="#SVGID_39_"  style="overflow:visible;"/>
		</clipPath>
		<path class="st22" d="M393,581h375.8"/>
	</g>
</g>
<g id="patch_3">
	<path class="st23" d="M393,591.9V350.7"/>
</g>
<g id="patch_4">
	<path class="st23" d="M768.8,591.9V350.7"/>
</g>
<g id="patch_5">
	<path class="st23" d="M393,591.9h375.8"/>
</g>
<g id="patch_6">
	<path class="st23" d="M393,350.7h375.8"/>
</g>
<g id="text_18">
	<g id="patch_7">
		<path class="st24" d="M358.4,638.7h432v-16.9h-432V638.7z"/>
	</g>
	<g transform="translate(4.421887 352.329822)scale(0.1 -0.1)">
		<g>
			<path id="DecimaMonoPro-20" class="st25" d="M3579.7-2806.1"/>
		</g>
		<g>
			<path id="DecimaMonoPro-a9" class="st0" d="M3690.1-2780.2v18.1c0,5.6-2,10.4-6.1,14.4s-9,6-14.7,6c-5.8,0-10.7-2-14.8-6
				c-4.1-4-6.2-8.8-6.2-14.4v-18.1c0-5.6,2.1-10.4,6.2-14.5c4.1-4,9.1-6,14.8-6c5.7,0,10.6,2,14.7,6S3690.1-2785.8,3690.1-2780.2z
				 M3696.8-2762.9v-16.6c0-7.6-2.7-14.1-8.1-19.5c-5.4-5.4-11.9-8.1-19.5-8.1c-7.7,0-14.2,2.7-19.6,8.1c-5.4,5.4-8.1,11.9-8.1,19.5
				v16.6c0,7.6,2.7,14.1,8.1,19.5c5.4,5.4,11.9,8.1,19.6,8.1c7.6,0,14.1-2.7,19.5-8.1C3694.2-2748.8,3696.8-2755.3,3696.8-2762.9z
				 M3677.8-2776.7h2.8c0.7,0,1.2-0.2,1.5-0.6c0.3-0.4,0.5-0.8,0.5-1.3c0-4-1.2-7.2-3.6-9.7c-2.4-2.4-5.5-3.6-9.3-3.6
				c-4,0-7.2,1.2-9.6,3.6c-2.4,2.4-3.6,5.5-3.6,9.2v16.3c0,3.5,1.2,6.5,3.6,9c2.4,2.5,5.6,3.7,9.6,3.7c3.6,0,6.6-1.3,9-3.8
				c2.3-2.6,3.5-5.9,3.5-10c0-0.5-0.2-0.9-0.5-1.3s-0.8-0.5-1.5-0.5h-2.8c-0.7,0-1.2,0.2-1.5,0.5c-0.4,0.4-0.5,0.8-0.5,1.3
				c0,1.9-0.5,3.5-1.6,4.8c-1.1,1.2-2.4,1.9-4,1.9c-1.8,0-3.3-0.7-4.6-2c-1.3-1.3-1.9-2.9-1.9-4.7v-14c0-1.7,0.6-3.3,1.9-4.6
				c1.3-1.3,2.8-2,4.6-2c1.7,0,3.1,0.5,4.3,1.6c1.2,1.1,1.8,2.5,1.8,4.4c0,0.5,0.2,0.9,0.5,1.3
				C3676.6-2776.9,3677.2-2776.7,3677.8-2776.7z"/>
		</g>
		<g>
			<path id="DecimaMonoPro-43" class="st0" d="M3749-2788.7c0-5.1-1.8-9.5-5.5-13.1c-3.6-3.6-8.2-5.3-13.5-5.3
				c-5.4,0-10,1.8-13.7,5.4c-3.7,3.6-5.5,8-5.5,13.1v35.1c0,5.1,1.8,9.5,5.5,13c3.7,3.6,8.2,5.4,13.7,5.4c5.6,0,10.2-1.8,13.6-5.5
				s5.2-7.3,5.2-11c0-0.5-0.2-1-0.6-1.4c-0.4-0.4-1-0.6-1.7-0.6h-3.8c-1.4,0-2.2,0.7-2.3,2c-0.2,2-1.3,3.9-3.3,5.8
				c-2,1.9-4.4,2.8-7.2,2.8c-3,0-5.6-1-7.7-3c-2.1-2-3.1-4.5-3.1-7.4v-35.3c0-2.9,1-5.4,3.1-7.5c2.1-2,4.6-3,7.7-3
				c2.9,0,5.4,1,7.5,3c2.1,2,3.1,4.5,3.1,7.5c0,0.5,0.2,1,0.6,1.4c0.4,0.4,1,0.6,1.7,0.6h3.8c0.7,0,1.3-0.2,1.7-0.6
				C3748.8-2787.7,3749-2788.2,3749-2788.7z"/>
		</g>
		<g>
			<path id="DecimaMonoPro-6f" class="st0" d="M3808.4-2773.5v-15.2c0-5.1-1.8-9.5-5.5-13.1c-3.7-3.6-8.4-5.3-14.2-5.3
				c-5.9,0-10.7,1.8-14.3,5.3c-3.6,3.6-5.5,8-5.5,13.2v15.1c0,5.1,1.8,9.5,5.5,13c3.7,3.6,8.5,5.4,14.3,5.4c5.8,0,10.5-1.8,14.2-5.4
				C3806.6-2764.1,3808.4-2768.5,3808.4-2773.5z M3800.3-2789.2v16.2c0,3-1,5.6-3.1,7.7c-2.1,2.1-4.9,3.2-8.4,3.2s-6.4-1.1-8.5-3.2
				c-2.2-2.1-3.2-4.7-3.2-7.7v-16.1c0-3,1.1-5.6,3.2-7.7c2.2-2.1,5-3.2,8.5-3.2s6.3,1.1,8.4,3.2
				C3799.2-2794.8,3800.3-2792.2,3800.3-2789.2z"/>
		</g>
		<g>
			<path id="DecimaMonoPro-6d" class="st0" d="M3863.8-2804.3v36.6c0,1.4-0.5,2.6-1.6,3.7c-1,1.1-2.1,1.7-3.3,1.7
				c-2.1,0-3.6-0.8-4.7-2.4c-1.1-1.6-1.6-3.5-1.6-5.9v-33.7c0-1.2-0.8-1.8-2.3-1.8h-3.2c-1.5,0-2.3,0.6-2.3,1.8v36.6
				c0,1.5-0.5,2.7-1.4,3.8c-1,1.1-2.2,1.6-3.7,1.6c-2,0-3.6-0.8-4.7-2.4c-1.2-1.6-1.7-3.6-1.7-5.9v-33.7c0-1.2-0.8-1.8-2.3-1.8h-3.4
				c-1.5,0-2.3,0.6-2.3,1.8v46.4c0,1.2,0.8,1.8,2.3,1.8h3.3c1.5,0,2.2-0.6,2.2-1.8v-1.9c2.1,3,4.8,4.5,8.4,4.5c1.7,0,3.2-0.3,4.4-1
				c1.2-0.6,2.1-1.3,2.5-1.9s1-1.6,1.6-2.8c2.7,3.7,6,5.6,10.1,5.6c3.7,0,6.6-1.3,8.7-3.8c2.1-2.5,3.1-5.7,3.1-9.5v-35.7
				c0-1.2-0.8-1.8-2.3-1.8h-3.4C3864.5-2806.1,3863.8-2805.5,3863.8-2804.3z"/>
		</g>
		<g>
			<path id="DecimaMonoPro-70" class="st0" d="M3920.2-2789v16c0,3.1-1.1,5.6-3.2,7.7c-2.2,2.1-4.9,3.1-8.3,3.1
				c-3.4,0-6.2-1.1-8.4-3.2c-2.2-2.1-3.3-4.7-3.3-7.8v-15.9c0-3.1,1.1-5.6,3.3-7.7c2.2-2.1,5-3.1,8.4-3.1c3.4,0,6.1,1,8.3,3.1
				C3919.1-2794.7,3920.2-2792.1,3920.2-2789z M3896.9-2802.4l0.1-19.9c0-1.2-0.8-1.8-2.3-1.8h-3.5c-1.5,0-2.3,0.6-2.3,1.8v64.4
				c0,1.2,0.8,1.8,2.3,1.8h2.9c1.5,0,2.3-0.6,2.3-1.8v-2.3c0.3,0.4,0.7,0.9,1.3,1.4c0.6,0.6,2,1.3,4.2,2.3c2.2,0.9,4.7,1.4,7.5,1.4
				c5.3,0,9.8-1.8,13.4-5.4c3.6-3.6,5.5-7.9,5.5-13v-15.2c0-5.1-1.8-9.4-5.5-13c-3.7-3.6-8.1-5.4-13.4-5.4c-2.6,0-4.9,0.4-7,1.2
				s-3.5,1.6-4.3,2.4L3896.9-2802.4z"/>
		</g>
		<g>
			<path id="DecimaMonoPro-75" class="st0" d="M3948.2-2789.8v31.9c0,1.2,0.8,1.8,2.3,1.8h3.4c1.5,0,2.3-0.6,2.3-1.8v-31.7
				c0-6.9,3.5-10.3,10.5-10.3c3.2,0,6.1,1.1,8.8,3.3s4,4.5,4,7v31.7c0,1.2,0.8,1.8,2.3,1.8h3.4c1.5,0,2.3-0.6,2.3-1.8v-46.4
				c0-1.2-0.8-1.8-2.3-1.8h-3.2c-1.5,0-2.3,0.6-2.3,1.8v3.1c-0.5-0.5-1.1-1-1.9-1.7c-0.8-0.6-2.4-1.5-4.8-2.6
				c-2.4-1.1-4.9-1.6-7.4-1.6c-5.1,0-9.3,1.5-12.6,4.6C3949.8-2799.4,3948.2-2795.2,3948.2-2789.8z"/>
		</g>
		<g>
			<path id="DecimaMonoPro-74" class="st0" d="M4022.4-2744.8v-11.3h23.5c0.5,0,1-0.2,1.3-0.5s0.5-0.8,0.5-1.3v-3.6
				c0-0.5-0.2-1-0.5-1.3s-0.8-0.5-1.3-0.5h-23.5v-26.9c0-2.7,0.9-5,2.6-6.9c1.7-1.9,4.2-2.8,7.4-2.8c2.8,0,5,0.8,6.6,2.4
				c1.6,1.6,2.5,3.4,2.8,5.4c0.1,1.1,0.7,1.7,1.7,1.7h4.5c0.5,0,1-0.2,1.3-0.6c0.3-0.4,0.5-0.8,0.5-1.2c0-1.5-0.3-3.1-0.9-4.7
				c-0.6-1.6-1.5-3.1-2.7-4.8c-1.2-1.6-3-2.9-5.5-4c-2.4-1-5.2-1.5-8.4-1.5c-5.9,0-10.3,1.5-13.3,4.6c-3,3.1-4.5,6.9-4.5,11.5v27.7
				h-7.4c-0.5,0-0.9,0.2-1.2,0.5c-0.4,0.3-0.5,0.8-0.5,1.3v3.6c0,0.5,0.2,1,0.5,1.3c0.4,0.3,0.8,0.5,1.2,0.5h7.4v11.3
				c0,1.2,0.8,1.8,2.3,1.8h3.6C4021.7-2743,4022.4-2743.6,4022.4-2744.8z"/>
		</g>
		<g>
			<path id="DecimaMonoPro-61" class="st0" d="M4097.8-2781.7l-13-0.9c-2.6-0.2-4.8-1.1-6.5-2.8c-1.7-1.6-2.6-3.7-2.6-6
				c0-2.3,0.9-4.3,2.8-6c1.9-1.7,4.2-2.5,6.9-2.5c3.5,0,6.5,1,8.8,3c2.4,2,3.5,4.2,3.5,6.5V-2781.7z M4105.8-2771.3v-33
				c0-1.2-0.8-1.8-2.3-1.8h-3.2c-1.5,0-2.3,0.6-2.3,1.8v2.6c-0.3-0.4-0.8-0.9-1.4-1.5c-0.6-0.6-2-1.4-4.3-2.4
				c-2.2-1-4.7-1.5-7.3-1.5c-4.8,0-8.9,1.5-12.3,4.5c-3.4,3-5.1,6.7-5.1,11.1c0,4.3,1.6,8,4.8,11c3.2,3,7.1,4.7,11.6,5.1l13.6,0.9
				v2.6c0,2.6-0.9,4.8-2.7,6.7c-1.8,1.9-4.1,2.8-7.1,2.8c-2.5,0-4.6-0.5-6.3-1.6c-1.7-1.1-2.8-2.4-3.4-4c-0.5-1.1-1.1-1.7-1.8-1.7
				h-4.2c-0.5,0-1,0.2-1.3,0.5s-0.5,0.8-0.5,1.3c0,2.6,1.7,5.4,5,8.3c3.3,3,7.5,4.5,12.4,4.5c5.7,0,10.1-1.5,13.2-4.6
				C4104.3-2762.8,4105.8-2766.7,4105.8-2771.3z"/>
		</g>
		<g>
			<path id="DecimaMonoPro-74_1_" class="st0" d="M4141.9-2744.8v-11.3h23.5c0.5,0,1-0.2,1.3-0.5c0.3-0.3,0.5-0.8,0.5-1.3v-3.6
				c0-0.5-0.2-1-0.5-1.3c-0.3-0.3-0.8-0.5-1.3-0.5h-23.5v-26.9c0-2.7,0.9-5,2.6-6.9c1.7-1.9,4.2-2.8,7.4-2.8c2.8,0,5,0.8,6.6,2.4
				c1.6,1.6,2.5,3.4,2.8,5.4c0.1,1.1,0.7,1.7,1.7,1.7h4.5c0.5,0,1-0.2,1.3-0.6c0.3-0.4,0.5-0.8,0.5-1.2c0-1.5-0.3-3.1-0.9-4.7
				c-0.6-1.6-1.5-3.1-2.7-4.8c-1.2-1.6-3-2.9-5.5-4c-2.4-1-5.2-1.5-8.4-1.5c-5.9,0-10.3,1.5-13.3,4.6c-3,3.1-4.5,6.9-4.5,11.5v27.7
				h-7.4c-0.5,0-0.9,0.2-1.2,0.5c-0.4,0.3-0.5,0.8-0.5,1.3v3.6c0,0.5,0.2,1,0.5,1.3c0.4,0.3,0.8,0.5,1.2,0.5h7.4v11.3
				c0,1.2,0.8,1.8,2.3,1.8h3.6C4141.1-2743,4141.9-2743.6,4141.9-2744.8z"/>
		</g>
		<g>
			<path id="DecimaMonoPro-69" class="st0" d="M4189.9-2756.1h21.3c0.5,0,1-0.2,1.3-0.5c0.3-0.3,0.5-0.8,0.5-1.3v-41h13.4
				c0.5,0,0.9-0.2,1.2-0.5s0.5-0.8,0.5-1.3v-3.6c0-0.5-0.2-1-0.5-1.3s-0.8-0.5-1.2-0.5h-37c-0.5,0-0.9,0.2-1.2,0.5s-0.5,0.8-0.5,1.3
				v3.6c0,0.5,0.2,1,0.5,1.3s0.8,0.5,1.2,0.5h15.6v35.6h-15.1c-0.5,0-1,0.2-1.3,0.5c-0.3,0.3-0.5,0.8-0.5,1.3v3.6
				c0,0.5,0.2,1,0.5,1.3C4188.9-2756.3,4189.3-2756.1,4189.9-2756.1z M4213.2-2739.8v-4.3c0-0.7-0.2-1.2-0.7-1.7
				c-0.4-0.4-1-0.6-1.6-0.6h-4.6c-0.7,0-1.2,0.2-1.6,0.6c-0.4,0.4-0.6,1-0.6,1.7v4.3c0,0.7,0.2,1.2,0.6,1.6c0.4,0.4,1,0.7,1.6,0.7
				h4.6c0.7,0,1.2-0.2,1.6-0.7C4212.9-2738.6,4213.2-2739.2,4213.2-2739.8z"/>
		</g>
		<g>
			<path id="DecimaMonoPro-6f_1_" class="st0" d="M4286.2-2773.5v-15.2c0-5.1-1.8-9.5-5.5-13.1c-3.7-3.6-8.4-5.3-14.2-5.3
				c-5.9,0-10.7,1.8-14.3,5.3c-3.6,3.6-5.5,8-5.5,13.2v15.1c0,5.1,1.8,9.5,5.5,13c3.7,3.6,8.5,5.4,14.3,5.4c5.8,0,10.5-1.8,14.2-5.4
				C4284.4-2764.1,4286.2-2768.5,4286.2-2773.5z M4278-2789.2v16.2c0,3-1,5.6-3.1,7.7c-2.1,2.1-4.9,3.2-8.4,3.2
				c-3.5,0-6.4-1.1-8.5-3.2s-3.2-4.7-3.2-7.7v-16.1c0-3,1.1-5.6,3.2-7.7s5-3.2,8.5-3.2c3.5,0,6.3,1.1,8.4,3.2
				C4277-2794.8,4278-2792.2,4278-2789.2z"/>
		</g>
		<g>
			<path id="DecimaMonoPro-6e" class="st0" d="M4346.1-2773.7v-30.6c0-1.2-0.8-1.8-2.3-1.8h-3.4c-1.5,0-2.3,0.6-2.3,1.8v30.9
				c0,3.2-1,5.8-2.9,7.9c-1.9,2.1-4.6,3.2-8.1,3.2c-3.2,0-6-1.1-8.5-3.3c-2.5-2.2-3.7-4.5-3.7-7v-31.7c0-1.2-0.8-1.8-2.3-1.8h-3.4
				c-1.5,0-2.3,0.6-2.3,1.8v46.4c0,1.2,0.8,1.8,2.3,1.8h3.2c1.5,0,2.3-0.6,2.3-1.8v-2.7c3.8,3.7,8.2,5.5,13.3,5.5
				c5.6,0,10.1-1.8,13.3-5.3C4344.5-2763.9,4346.1-2768.3,4346.1-2773.7z"/>
		</g>
		<g>
			<path id="DecimaMonoPro-20_1_" class="st0" d="M4356.1-2806.1"/>
		</g>
		<g>
			<path id="DecimaMonoPro-49" class="st0" d="M4462.9-2806.1h-34.4c-0.5,0-1,0.2-1.4,0.6c-0.4,0.4-0.6,1-0.6,1.7v3.3
				c0,0.7,0.2,1.3,0.6,1.7c0.4,0.4,0.9,0.6,1.4,0.6h13v54.2h-13c-0.5,0-1,0.2-1.4,0.6c-0.4,0.4-0.6,1-0.6,1.7v3.3
				c0,0.7,0.2,1.3,0.6,1.7c0.4,0.4,0.9,0.6,1.4,0.6h34.4c0.5,0,1-0.2,1.4-0.6c0.4-0.4,0.6-1,0.6-1.7v-3.3c0-0.7-0.2-1.3-0.6-1.7
				c-0.4-0.4-0.9-0.6-1.4-0.6h-13v-54.2h13c0.5,0,1-0.2,1.4-0.6c0.4-0.4,0.6-1,0.6-1.7v-3.3c0-0.7-0.2-1.3-0.6-1.7
				C4463.9-2805.9,4463.4-2806.1,4462.9-2806.1z"/>
		</g>
		<g>
			<path id="DecimaMonoPro-6e_1_" class="st0" d="M4525.3-2773.7v-30.6c0-1.2-0.8-1.8-2.3-1.8h-3.4c-1.5,0-2.3,0.6-2.3,1.8v30.9
				c0,3.2-1,5.8-2.9,7.9c-1.9,2.1-4.6,3.2-8.1,3.2c-3.2,0-6-1.1-8.5-3.3c-2.5-2.2-3.7-4.5-3.7-7v-31.7c0-1.2-0.8-1.8-2.3-1.8h-3.4
				c-1.5,0-2.3,0.6-2.3,1.8v46.4c0,1.2,0.8,1.8,2.3,1.8h3.2c1.5,0,2.3-0.6,2.3-1.8v-2.7c3.8,3.7,8.2,5.5,13.3,5.5
				c5.6,0,10.1-1.8,13.3-5.3C4523.7-2763.9,4525.3-2768.3,4525.3-2773.7z"/>
		</g>
		<g>
			<path id="DecimaMonoPro-73" class="st0" d="M4565.2-2807.1c-3.2,0-6,0.5-8.5,1.6c-2.5,1.1-4.4,2.4-5.7,4
				c-1.3,1.6-2.2,3.2-2.9,4.8c-0.6,1.6-0.9,3.1-0.9,4.6c0,0.5,0.2,1,0.5,1.3c0.3,0.3,0.8,0.5,1.3,0.5h4.5c1.1,0,1.7-0.6,1.8-1.7
				c0.2-1.9,1.1-3.7,2.7-5.4c1.6-1.7,4-2.5,7.3-2.5c2.8,0,5,0.7,6.8,2.1c1.7,1.4,2.6,3.2,2.6,5.3c0,1.9-0.9,3.6-2.6,4.9
				c-1.8,1.3-3.9,2.4-6.4,3.3c-2.5,0.9-5,1.9-7.5,3c-2.5,1.1-4.6,2.6-6.4,4.7c-1.8,2.1-2.6,4.6-2.6,7.6c0,4.1,1.5,7.5,4.6,10
				c3.1,2.6,7.2,3.9,12.2,3.9c5.4,0,9.6-1.5,12.5-4.5s4.3-6,4.3-9c0-0.5-0.2-0.9-0.5-1.3c-0.3-0.4-0.8-0.5-1.3-0.5h-4.6
				c-1,0-1.6,0.6-1.8,1.7c-0.3,1.7-1.2,3.2-2.6,4.5c-1.4,1.3-3.4,1.9-6,1.9c-2.5,0-4.6-0.6-6.1-1.7c-1.6-1.1-2.3-2.6-2.3-4.4
				s0.9-3.3,2.6-4.6c1.8-1.3,3.9-2.3,6.4-3.2c2.5-0.9,5-1.8,7.4-3c2.5-1.1,4.6-2.8,6.3-5.1c1.8-2.3,2.6-5.1,2.6-8.4
				c0-4-1.7-7.4-5.1-10.2C4574.3-2805.7,4570.1-2807.1,4565.2-2807.1z"/>
		</g>
		<g>
			<path id="DecimaMonoPro-74_2_" class="st0" d="M4619.7-2744.8v-11.3h23.5c0.5,0,1-0.2,1.3-0.5c0.3-0.3,0.5-0.8,0.5-1.3v-3.6
				c0-0.5-0.2-1-0.5-1.3c-0.3-0.3-0.8-0.5-1.3-0.5h-23.5v-26.9c0-2.7,0.9-5,2.6-6.9c1.7-1.9,4.2-2.8,7.4-2.8c2.8,0,5,0.8,6.6,2.4
				c1.6,1.6,2.5,3.4,2.8,5.4c0.1,1.1,0.7,1.7,1.7,1.7h4.5c0.5,0,1-0.2,1.3-0.6c0.3-0.4,0.5-0.8,0.5-1.2c0-1.5-0.3-3.1-0.9-4.7
				c-0.6-1.6-1.5-3.1-2.7-4.8c-1.2-1.6-3-2.9-5.5-4c-2.4-1-5.2-1.5-8.4-1.5c-5.9,0-10.3,1.5-13.3,4.6c-3,3.1-4.5,6.9-4.5,11.5v27.7
				h-7.4c-0.5,0-0.9,0.2-1.2,0.5s-0.5,0.8-0.5,1.3v3.6c0,0.5,0.2,1,0.5,1.3s0.8,0.5,1.2,0.5h7.4v11.3c0,1.2,0.8,1.8,2.3,1.8h3.6
				C4618.9-2743,4619.7-2743.6,4619.7-2744.8z"/>
		</g>
		<g>
			<path id="DecimaMonoPro-69_1_" class="st0" d="M4667.6-2756.1h21.3c0.5,0,1-0.2,1.3-0.5c0.3-0.3,0.5-0.8,0.5-1.3v-41h13.4
				c0.5,0,0.9-0.2,1.2-0.5s0.5-0.8,0.5-1.3v-3.6c0-0.5-0.2-1-0.5-1.3s-0.8-0.5-1.2-0.5h-37c-0.5,0-0.9,0.2-1.2,0.5
				c-0.4,0.3-0.5,0.8-0.5,1.3v3.6c0,0.5,0.2,1,0.5,1.3c0.4,0.3,0.8,0.5,1.2,0.5h15.6v35.6h-15.1c-0.5,0-1,0.2-1.3,0.5
				c-0.3,0.3-0.5,0.8-0.5,1.3v3.6c0,0.5,0.2,1,0.5,1.3C4666.7-2756.3,4667.1-2756.1,4667.6-2756.1z M4690.9-2739.8v-4.3
				c0-0.7-0.2-1.2-0.7-1.7c-0.4-0.4-1-0.6-1.6-0.6h-4.6c-0.7,0-1.2,0.2-1.6,0.6c-0.4,0.4-0.6,1-0.6,1.7v4.3c0,0.7,0.2,1.2,0.6,1.6
				c0.4,0.4,1,0.7,1.6,0.7h4.6c0.7,0,1.2-0.2,1.6-0.7C4690.7-2738.6,4690.9-2739.2,4690.9-2739.8z"/>
		</g>
		<g>
			<path id="DecimaMonoPro-74_3_" class="st0" d="M4739.1-2744.8v-11.3h23.5c0.5,0,1-0.2,1.3-0.5c0.3-0.3,0.5-0.8,0.5-1.3v-3.6
				c0-0.5-0.2-1-0.5-1.3c-0.3-0.3-0.8-0.5-1.3-0.5h-23.5v-26.9c0-2.7,0.9-5,2.6-6.9c1.7-1.9,4.2-2.8,7.4-2.8c2.8,0,5,0.8,6.6,2.4
				c1.6,1.6,2.5,3.4,2.8,5.4c0.1,1.1,0.7,1.7,1.7,1.7h4.5c0.5,0,1-0.2,1.3-0.6c0.3-0.4,0.5-0.8,0.5-1.2c0-1.5-0.3-3.1-0.9-4.7
				c-0.6-1.6-1.5-3.1-2.7-4.8c-1.2-1.6-3-2.9-5.5-4c-2.4-1-5.2-1.5-8.4-1.5c-5.9,0-10.3,1.5-13.3,4.6c-3,3.1-4.5,6.9-4.5,11.5v27.7
				h-7.4c-0.5,0-0.9,0.2-1.2,0.5c-0.4,0.3-0.5,0.8-0.5,1.3v3.6c0,0.5,0.2,1,0.5,1.3c0.4,0.3,0.8,0.5,1.2,0.5h7.4v11.3
				c0,1.2,0.8,1.8,2.3,1.8h3.6C4738.4-2743,4739.1-2743.6,4739.1-2744.8z"/>
		</g>
		<g>
			<path id="DecimaMonoPro-75_1_" class="st0" d="M4784.3-2789.8v31.9c0,1.2,0.8,1.8,2.3,1.8h3.4c1.5,0,2.3-0.6,2.3-1.8v-31.7
				c0-6.9,3.5-10.3,10.5-10.3c3.2,0,6.1,1.1,8.8,3.3c2.7,2.2,4,4.5,4,7v31.7c0,1.2,0.8,1.8,2.3,1.8h3.4c1.5,0,2.3-0.6,2.3-1.8v-46.4
				c0-1.2-0.8-1.8-2.3-1.8h-3.2c-1.5,0-2.3,0.6-2.3,1.8v3.1c-0.5-0.5-1.1-1-1.9-1.7c-0.8-0.6-2.4-1.5-4.8-2.6
				c-2.4-1.1-4.9-1.6-7.4-1.6c-5.1,0-9.3,1.5-12.6,4.6C4785.9-2799.4,4784.3-2795.2,4784.3-2789.8z"/>
		</g>
		<g>
			<path id="DecimaMonoPro-74_4_" class="st0" d="M4858.6-2744.8v-11.3h23.5c0.5,0,1-0.2,1.3-0.5c0.3-0.3,0.5-0.8,0.5-1.3v-3.6
				c0-0.5-0.2-1-0.5-1.3c-0.3-0.3-0.8-0.5-1.3-0.5h-23.5v-26.9c0-2.7,0.9-5,2.6-6.9c1.7-1.9,4.2-2.8,7.4-2.8c2.8,0,5,0.8,6.6,2.4
				c1.6,1.6,2.5,3.4,2.8,5.4c0.1,1.1,0.7,1.7,1.7,1.7h4.5c0.5,0,1-0.2,1.3-0.6c0.3-0.4,0.5-0.8,0.5-1.2c0-1.5-0.3-3.1-0.9-4.7
				c-0.6-1.6-1.5-3.1-2.7-4.8c-1.2-1.6-3-2.9-5.5-4c-2.4-1-5.2-1.5-8.4-1.5c-5.9,0-10.3,1.5-13.3,4.6c-3,3.1-4.5,6.9-4.5,11.5v27.7
				h-7.4c-0.5,0-0.9,0.2-1.2,0.5s-0.5,0.8-0.5,1.3v3.6c0,0.5,0.2,1,0.5,1.3s0.8,0.5,1.2,0.5h7.4v11.3c0,1.2,0.8,1.8,2.3,1.8h3.6
				C4857.8-2743,4858.6-2743.6,4858.6-2744.8z"/>
		</g>
		<g>
			<path id="DecimaMonoPro-65" class="st0" d="M4942.2-2792.6c0-2.9-1.7-6.1-5-9.5c-3.3-3.4-7.8-5-13.5-5c-6,0-10.8,1.8-14.4,5.5
				s-5.4,8-5.4,13v15.2c0,5,1.8,9.3,5.4,12.9c3.6,3.6,8.4,5.4,14.4,5.4c6,0,10.7-1.8,14.2-5.4c3.5-3.6,5.2-7.9,5.2-12.9v-7.9
				c0-0.7-0.2-1.2-0.7-1.7c-0.4-0.4-1-0.6-1.6-0.6h-28.9v-5.5c0-3,1.1-5.6,3.2-7.7s5-3.2,8.5-3.2c5.5,0,9,2.5,10.3,7.5
				c0.3,1.1,0.9,1.7,1.8,1.7h4.6c0.5,0,1-0.2,1.3-0.5C4942-2791.7,4942.2-2792.2,4942.2-2792.6z M4911.9-2773.1v-3.3h23.3v3.3
				c0,3-1,5.5-3.1,7.6c-2.1,2.1-4.9,3.2-8.4,3.2c-3.5,0-6.4-1.1-8.5-3.2C4913-2767.6,4911.9-2770.1,4911.9-2773.1z"/>
		</g>
		<g>
			<path id="DecimaMonoPro-20_2_" class="st0" d="M4953.3-2806.1"/>
		</g>
		<g>
			<path id="DecimaMonoPro-20_3_" class="st0" d="M5013-2806.1"/>
		</g>
		<g>
			<path id="DecimaMonoPro-20_4_" class="st0" d="M5072.8-2806.1"/>
		</g>
		<g>
			<path id="DecimaMonoPro-20_5_" class="st0" d="M5132.5-2806.1"/>
		</g>
		<g>
			<path id="DecimaMonoPro-20_6_" class="st0" d="M5192.2-2806.1"/>
		</g>
		<g>
			<path id="DecimaMonoPro-20_7_" class="st0" d="M5251.9-2806.1"/>
		</g>
		<g>
			<path id="DecimaMonoPro-20_8_" class="st0" d="M5311.7-2806.1"/>
		</g>
		<g>
			<path id="DecimaMonoPro-20_9_" class="st0" d="M5371.4-2806.1"/>
		</g>
		<g>
			<path id="DecimaMonoPro-20_10_" class="st0" d="M5431.1-2806.1"/>
		</g>
		<g>
			<path id="DecimaMonoPro-20_11_" class="st0" d="M5490.8-2806.1"/>
		</g>
		<g>
			<path id="DecimaMonoPro-20_12_" class="st0" d="M5550.6-2806.1"/>
		</g>
		<g>
			<path id="DecimaMonoPro-20_13_" class="st0" d="M5610.3-2806.1"/>
		</g>
		<g>
			<path id="DecimaMonoPro-20_14_" class="st0" d="M5670-2806.1"/>
		</g>
		<g>
			<path id="DecimaMonoPro-20_15_" class="st0" d="M5729.7-2806.1"/>
		</g>
		<g>
			<path id="DecimaMonoPro-20_16_" class="st0" d="M5789.5-2806.1"/>
		</g>
		<g>
			<path id="DecimaMonoPro-20_17_" class="st0" d="M5849.2-2806.1"/>
		</g>
		<g>
			<path id="DecimaMonoPro-20_18_" class="st0" d="M5908.9-2806.1"/>
		</g>
		<g>
			<path id="DecimaMonoPro-20_19_" class="st0" d="M5968.6-2806.1"/>
		</g>
		<g>
			<path id="DecimaMonoPro-20_20_" class="st0" d="M6028.3-2806.1"/>
		</g>
		<g>
			<path id="DecimaMonoPro-20_21_" class="st0" d="M6088.1-2806.1"/>
		</g>
		<g>
			<path id="DecimaMonoPro-20_22_" class="st0" d="M6147.8-2806.1"/>
		</g>
		<g>
			<path id="DecimaMonoPro-20_23_" class="st0" d="M6207.5-2806.1"/>
		</g>
		<g>
			<path id="DecimaMonoPro-20_24_" class="st0" d="M6267.2-2806.1"/>
		</g>
		<g>
			<path id="DecimaMonoPro-20_25_" class="st0" d="M6327-2806.1"/>
		</g>
		<g>
			<path id="DecimaMonoPro-20_26_" class="st0" d="M6386.7-2806.1"/>
		</g>
		<g>
			<path id="DecimaMonoPro-20_27_" class="st0" d="M6446.4-2806.1"/>
		</g>
		<g>
			<path id="DecimaMonoPro-20_28_" class="st0" d="M6506.1-2806.1"/>
		</g>
		<g>
			<path id="DecimaMonoPro-20_29_" class="st0" d="M6565.9-2806.1"/>
		</g>
		<g>
			<path id="DecimaMonoPro-20_30_" class="st0" d="M6625.6-2806.1"/>
		</g>
		<g>
			<path id="DecimaMonoPro-20_31_" class="st0" d="M6685.3-2806.1"/>
		</g>
		<g>
			<path id="DecimaMonoPro-20_32_" class="st0" d="M6745-2806.1"/>
		</g>
		<g>
			<path id="DecimaMonoPro-20_33_" class="st0" d="M6804.8-2806.1"/>
		</g>
		<g>
			<path id="DecimaMonoPro-20_34_" class="st0" d="M6864.5-2806.1"/>
		</g>
		<g>
			<path id="DecimaMonoPro-20_35_" class="st0" d="M6924.2-2806.1"/>
		</g>
		<g>
			<path id="DecimaMonoPro-20_36_" class="st0" d="M6983.9-2806.1"/>
		</g>
		<g>
			<path id="DecimaMonoPro-20_37_" class="st0" d="M7043.6-2806.1"/>
		</g>
		<g>
			<path id="DecimaMonoPro-20_38_" class="st0" d="M7103.4-2806.1"/>
		</g>
		<g>
			<path id="DecimaMonoPro-20_39_" class="st0" d="M7163.1-2806.1"/>
		</g>
		<g>
			<path id="DecimaMonoPro-20_40_" class="st0" d="M7222.8-2806.1"/>
		</g>
		<g>
			<path id="DecimaMonoPro-20_41_" class="st0" d="M7282.5-2806.1"/>
		</g>
		<g>
			<path id="DecimaMonoPro-20_42_" class="st0" d="M7342.3-2806.1"/>
		</g>
		<g>
			<path id="DecimaMonoPro-20_43_" class="st0" d="M7402-2806.1"/>
		</g>
		<g>
			<path id="DecimaMonoPro-20_44_" class="st0" d="M7461.7-2806.1"/>
		</g>
		<g>
			<path id="DecimaMonoPro-20_45_" class="st0" d="M7521.4-2806.1"/>
		</g>
		<g>
			<path id="DecimaMonoPro-20_46_" class="st0" d="M7581.2-2806.1"/>
		</g>
		<g>
			<path id="DecimaMonoPro-20_47_" class="st0" d="M7640.9-2806.1"/>
		</g>
		<g>
			<path id="DecimaMonoPro-20_48_" class="st0" d="M7700.6-2806.1"/>
		</g>
		<g>
			<path id="DecimaMonoPro-20_49_" class="st0" d="M7760.3-2806.1"/>
		</g>
	</g>
</g>
<g id="text_19">
	<g transform="translate(9.740377 28.99932)scale(0.25 -0.25)" class="st26">
		<g>
			<path id="DecimaMonoPro-Bold-43" d="M1484.8-1096.2c0-5.5-2-10.1-6-14c-4-3.9-8.8-5.8-14.5-5.8s-10.5,1.9-14.5,5.8
				c-4,3.9-6,8.5-6,13.9v32.7c0,5.3,2,9.9,6,13.8c4,3.9,8.8,5.8,14.3,5.8c4.1,0,7.8-1.1,11-3.2c3.2-2.1,5.6-4.5,7.1-7.1
				c1.5-2.6,2.2-5.1,2.2-7.5c0-0.9-0.3-1.6-0.8-2.2c-0.5-0.6-1.2-0.8-2.1-0.8h-6c-1.8,0-2.9,1-3.2,3c-0.3,1.4-1.1,2.8-2.5,4.2
				c-1.4,1.4-3.3,2.1-5.5,2.1c-2.2,0-4.1-0.8-5.8-2.3s-2.5-3.3-2.5-5.3v-33.9c0-2.1,0.8-3.9,2.5-5.4s3.6-2.3,5.8-2.3
				c2.3,0,4.3,0.7,6,2.2c1.8,1.5,2.7,3.5,2.7,6.2c0,0.9,0.3,1.6,0.8,2.1c0.6,0.6,1.3,0.9,2.2,0.9h5.8c0.9,0,1.6-0.3,2.1-0.9
				C1484.6-1094.6,1484.8-1095.3,1484.8-1096.2z"/>
		</g>
		<g>
			<path id="DecimaMonoPro-Bold-6c" d="M1519.6-1055.4h-12.4c-0.7,0-1.3,0.2-1.8,0.7s-0.8,1-0.8,1.7v5.6c0,0.7,0.3,1.2,0.8,1.7
				s1.1,0.7,1.8,0.7h21.8c0.7,0,1.4-0.2,2-0.7c0.6-0.5,0.9-1,0.9-1.7v-57.2h12.2c0.7,0,1.3-0.2,1.8-0.7s0.8-1,0.8-1.7v-5.6
				c0-0.7-0.3-1.2-0.8-1.7s-1.1-0.7-1.8-0.7H1505c-0.7,0-1.3,0.2-1.8,0.7s-0.8,1-0.8,1.7v5.6c0,0.7,0.3,1.2,0.8,1.7s1.1,0.7,1.8,0.7
				h14.6V-1055.4z"/>
		</g>
		<g>
			<path id="DecimaMonoPro-Bold-65" d="M1576-1081.2v-2.9h15.5v2.9c0,1.8-0.8,3.4-2.3,4.8c-1.5,1.4-3.4,2.2-5.6,2.2
				c-2.1,0-3.9-0.7-5.4-2.2C1576.8-1077.8,1576-1079.4,1576-1081.2z M1603-1107c-7.1-5.9-13.5-8.9-19.4-8.9
				c-5.9,0-10.7,1.7-14.5,5.1c-3.8,3.4-5.7,7.5-5.7,12.4v16.8c0,4.9,1.9,9,5.8,12.4c3.8,3.4,8.7,5.2,14.5,5.2c5.9,0,10.7-1.7,14.5-5
				c3.8-3.3,5.7-7.4,5.7-12.2v-9.1c0-0.9-0.3-1.7-1-2.4c-0.7-0.6-1.5-0.9-2.5-0.9H1576v-5c0-1.8,0.7-3.4,2.2-4.9
				c1.5-1.4,3.3-2.1,5.4-2.1c2.2,0,3.9,0.4,5,1.1c1.2,0.8,1.8,1.5,2,2.3c0.4,1.5,1.5,2.2,3.3,2.2h6.3c1.8,0,2.7-0.9,2.7-2.7
				c0-2.9-3.5-7.3-10.6-13.2L1603-1107z"/>
		</g>
		<g>
			<path id="DecimaMonoPro-Bold-61" d="M1641.7-1106.2c2.4,0,4.6,0.7,6.5,2.1c1.9,1.4,2.9,3,2.9,4.6v6.3l-9.6-0.8
				c-1.9-0.1-3.4-0.8-4.6-1.9c-1.2-1.1-1.8-2.5-1.8-4.1c0-1.7,0.6-3.2,1.8-4.4C1638.1-1105.6,1639.7-1106.2,1641.7-1106.2z
				 M1626.2-1077.2c0,2.9,1.6,5.8,4.9,8.8c3.3,3,7.6,4.5,12.9,4.5c5.9,0,10.6-1.6,13.9-4.9c3.4-3.2,5.1-7.3,5.1-12.2v-31.2
				c0-0.7-0.3-1.4-0.8-1.9c-0.5-0.5-1.2-0.8-1.9-0.8h-5.5c-0.7,0-1.4,0.3-1.9,0.8s-0.8,1.2-0.8,1.9v1.5c-0.3-0.4-0.8-0.9-1.4-1.5
				c-0.6-0.6-2-1.3-4.1-2.3c-2.2-0.9-4.5-1.4-7-1.4c-4.7,0-8.6,1.5-11.8,4.5c-3.2,3-4.8,6.7-4.8,11.3s1.8,8.1,5.3,10.8
				c3.5,2.7,7.9,4.3,13.3,4.7l9.6,0.8v2.1c0,2.5-0.7,4.4-2.1,5.6c-1.4,1.2-3.1,1.9-5,1.9c-2.7,0-4.5-1-5.5-3c-0.9-1.7-2-2.6-3.5-2.6
				h-6.1c-0.7,0-1.4,0.3-1.9,0.8C1626.5-1078.5,1626.2-1077.9,1626.2-1077.2z"/>
		</g>
		<g>
			<path id="DecimaMonoPro-Bold-6e" d="M1695.3-1067.7v-1.5c0.3,0.4,0.8,0.9,1.4,1.5c0.6,0.6,2,1.3,4.1,2.3c2.1,1,4.2,1.5,6.3,1.5
				c4.9,0,9.1-1.7,12.5-5.2c3.4-3.5,5-7.9,5-13.4v-29.7c0-0.7-0.3-1.4-0.8-1.9s-1.2-0.8-1.9-0.8h-6.9c-0.7,0-1.4,0.3-1.9,0.8
				c-0.5,0.5-0.8,1.2-0.8,1.9v29.5c0,2.5-0.8,4.5-2.3,6s-3.4,2.3-5.8,2.3c-2.4,0-4.4-0.8-6.1-2.4c-1.7-1.6-2.5-3.4-2.5-5.4v-30
				c0-0.7-0.3-1.4-0.8-1.9c-0.5-0.5-1.2-0.8-1.9-0.8h-6.8c-0.7,0-1.4,0.3-1.9,0.8s-0.8,1.2-0.8,1.9v44.6c0,0.7,0.3,1.4,0.8,1.9
				s1.2,0.8,1.9,0.8h6.3c0.7,0,1.4-0.3,1.9-0.8C1695.1-1066.3,1695.3-1066.9,1695.3-1067.7z"/>
		</g>
		<g>
			<path id="DecimaMonoPro-Bold-6c_1_" d="M1759.6-1055.4h-12.4c-0.7,0-1.3,0.2-1.8,0.7s-0.8,1-0.8,1.7v5.6c0,0.7,0.3,1.2,0.8,1.7
				s1.1,0.7,1.8,0.7h21.8c0.7,0,1.4-0.2,2-0.7c0.6-0.5,0.9-1,0.9-1.7v-57.2h12.2c0.7,0,1.3-0.2,1.8-0.7s0.8-1,0.8-1.7v-5.6
				c0-0.7-0.3-1.2-0.8-1.7s-1.1-0.7-1.8-0.7H1745c-0.7,0-1.3,0.2-1.8,0.7s-0.8,1-0.8,1.7v5.6c0,0.7,0.3,1.2,0.8,1.7s1.1,0.7,1.8,0.7
				h14.6V-1055.4z"/>
		</g>
		<g>
			<path id="DecimaMonoPro-Bold-69" d="M1819.6-1075.4h-14c-0.7,0-1.3,0.2-1.8,0.7s-0.8,1-0.8,1.7v5.6c0,0.7,0.3,1.2,0.8,1.7
				s1.1,0.7,1.8,0.7h23.4c0.7,0,1.4-0.2,2-0.7c0.6-0.5,0.9-1,0.9-1.7v-37.2h12.2c0.7,0,1.3-0.2,1.8-0.7s0.8-1,0.8-1.7v-5.6
				c0-0.7-0.3-1.2-0.8-1.7s-1.1-0.7-1.8-0.7H1805c-0.7,0-1.3,0.2-1.8,0.7s-0.8,1-0.8,1.7v5.6c0,0.7,0.3,1.2,0.8,1.7s1.1,0.7,1.8,0.7
				h14.6V-1075.4z M1832.3-1047.4v-8c0-1.6-0.9-2.4-2.6-2.4h-8c-0.7,0-1.3,0.2-1.8,0.7c-0.4,0.5-0.6,1-0.6,1.7v8
				c0,0.7,0.2,1.2,0.6,1.7c0.4,0.5,1,0.7,1.8,0.7h8C1831.5-1045,1832.3-1045.8,1832.3-1047.4z"/>
		</g>
		<g>
			<path id="DecimaMonoPro-Bold-6e_1_" d="M1875.3-1067.7v-1.5c0.3,0.4,0.8,0.9,1.4,1.5c0.6,0.6,2,1.3,4.1,2.3s4.2,1.5,6.3,1.5
				c4.9,0,9.1-1.7,12.5-5.2s5-7.9,5-13.4v-29.7c0-0.7-0.3-1.4-0.8-1.9s-1.2-0.8-1.9-0.8h-6.9c-0.7,0-1.4,0.3-1.9,0.8
				c-0.5,0.5-0.8,1.2-0.8,1.9v29.5c0,2.5-0.8,4.5-2.3,6s-3.4,2.3-5.8,2.3c-2.4,0-4.4-0.8-6.1-2.4c-1.7-1.6-2.5-3.4-2.5-5.4v-30
				c0-0.7-0.3-1.4-0.8-1.9c-0.5-0.5-1.2-0.8-1.9-0.8h-6.8c-0.7,0-1.4,0.3-1.9,0.8s-0.8,1.2-0.8,1.9v44.6c0,0.7,0.3,1.4,0.8,1.9
				s1.2,0.8,1.9,0.8h6.3c0.7,0,1.4-0.3,1.9-0.8C1875.1-1066.3,1875.3-1066.9,1875.3-1067.7z"/>
		</g>
		<g>
			<path id="DecimaMonoPro-Bold-65_1_" d="M1936-1081.2v-2.9h15.5v2.9c0,1.8-0.8,3.4-2.3,4.8c-1.5,1.4-3.4,2.2-5.6,2.2
				c-2.1,0-3.9-0.7-5.4-2.2C1936.8-1077.8,1936-1079.4,1936-1081.2z M1963-1107c-7.1-5.9-13.5-8.9-19.4-8.9s-10.7,1.7-14.5,5.1
				c-3.8,3.4-5.7,7.5-5.7,12.4v16.8c0,4.9,1.9,9,5.8,12.4c3.8,3.4,8.7,5.2,14.5,5.2c5.9,0,10.7-1.7,14.5-5c3.8-3.3,5.7-7.4,5.7-12.2
				v-9.1c0-0.9-0.3-1.7-1-2.4c-0.7-0.6-1.5-0.9-2.5-0.9H1936v-5c0-1.8,0.7-3.4,2.2-4.9c1.5-1.4,3.3-2.1,5.4-2.1c2.2,0,3.9,0.4,5,1.1
				c1.2,0.8,1.8,1.5,2,2.3c0.4,1.5,1.5,2.2,3.3,2.2h6.3c1.8,0,2.7-0.9,2.7-2.7c0-2.9-3.5-7.3-10.6-13.2L1963-1107z"/>
		</g>
		<g>
			<path id="DecimaMonoPro-Bold-73" d="M2003.6-1116c-6.1,0-10.7,1.6-14,4.7c-3.3,3.1-5,6.2-5,9.2c0,0.7,0.3,1.4,0.8,1.9
				s1.2,0.8,1.9,0.8h6.1c1.9,0,3.1-0.9,3.8-2.6c1-2.5,3.2-3.7,6.6-3.7c2.1,0,3.6,0.5,4.5,1.5s1.5,2.1,1.5,3.3c0,1.5-0.8,2.7-2.5,3.8
				c-1.7,1.1-3.7,2-6,2.9c-2.3,0.9-4.7,1.8-7.1,2.9c-2.4,1.1-4.4,2.7-6,4.8c-1.7,2.1-2.5,4.6-2.5,7.6c0,4.4,1.8,8,5.3,10.8
				c3.6,2.8,7.8,4.2,12.8,4.2c5.7,0,10.2-1.5,13.4-4.6c3.2-3.1,4.8-6.1,4.8-9.2c0-0.7-0.3-1.4-0.8-1.9c-0.5-0.5-1.2-0.8-1.9-0.8
				h-6.4c-1.9,0-3.1,0.9-3.6,2.6c-0.3,0.8-0.9,1.6-1.8,2.5c-0.9,0.8-2.2,1.3-3.9,1.3c-1.6,0-3-0.5-4.1-1.5c-1.1-1-1.6-2-1.6-3.3
				c0-1.2,0.8-2.3,2.5-3.2c1.7-0.9,3.8-1.7,6.2-2.5c2.4-0.8,4.8-1.7,7.3-2.8c2.4-1.1,4.5-2.8,6.2-5c1.7-2.2,2.5-4.9,2.5-8.1
				c0-4.2-1.9-7.8-5.7-10.9C2013.2-1114.4,2008.8-1116,2003.6-1116z"/>
		</g>
		<g>
			<path id="DecimaMonoPro-Bold-73_1_" d="M2063.6-1116c-6.1,0-10.7,1.6-14,4.7c-3.3,3.1-5,6.2-5,9.2c0,0.7,0.3,1.4,0.8,1.9
				s1.2,0.8,1.9,0.8h6.1c1.9,0,3.1-0.9,3.8-2.6c1-2.5,3.2-3.7,6.6-3.7c2.1,0,3.6,0.5,4.5,1.5s1.5,2.1,1.5,3.3c0,1.5-0.8,2.7-2.5,3.8
				c-1.7,1.1-3.7,2-6,2.9c-2.3,0.9-4.7,1.8-7.1,2.9c-2.4,1.1-4.4,2.7-6,4.8c-1.7,2.1-2.5,4.6-2.5,7.6c0,4.4,1.8,8,5.3,10.8
				c3.6,2.8,7.8,4.2,12.8,4.2c5.7,0,10.2-1.5,13.4-4.6c3.2-3.1,4.8-6.1,4.8-9.2c0-0.7-0.3-1.4-0.8-1.9c-0.5-0.5-1.2-0.8-1.9-0.8
				h-6.4c-1.9,0-3.1,0.9-3.6,2.6c-0.3,0.8-0.9,1.6-1.8,2.5c-0.9,0.8-2.2,1.3-3.9,1.3c-1.6,0-3-0.5-4.1-1.5c-1.1-1-1.6-2-1.6-3.3
				c0-1.2,0.8-2.3,2.5-3.2c1.7-0.9,3.8-1.7,6.2-2.5c2.4-0.8,4.8-1.7,7.3-2.8c2.4-1.1,4.5-2.8,6.2-5c1.7-2.2,2.5-4.9,2.5-8.1
				c0-4.2-1.9-7.8-5.7-10.9C2073.2-1114.4,2068.8-1116,2063.6-1116z"/>
		</g>
		<g>
			<path id="DecimaMonoPro-Bold-20" d="M2093.6-1115"/>
		</g>
		<g>
			<path id="DecimaMonoPro-Bold-73_2_" d="M2183.6-1116c-6.1,0-10.7,1.6-14,4.7c-3.3,3.1-5,6.2-5,9.2c0,0.7,0.3,1.4,0.8,1.9
				s1.2,0.8,1.9,0.8h6.1c1.9,0,3.1-0.9,3.8-2.6c1-2.5,3.2-3.7,6.6-3.7c2.1,0,3.6,0.5,4.5,1.5s1.5,2.1,1.5,3.3c0,1.5-0.8,2.7-2.5,3.8
				c-1.7,1.1-3.7,2-6,2.9c-2.3,0.9-4.7,1.8-7.1,2.9c-2.4,1.1-4.4,2.7-6,4.8c-1.7,2.1-2.5,4.6-2.5,7.6c0,4.4,1.8,8,5.3,10.8
				c3.6,2.8,7.8,4.2,12.8,4.2c5.7,0,10.2-1.5,13.4-4.6c3.2-3.1,4.8-6.1,4.8-9.2c0-0.7-0.3-1.4-0.8-1.9c-0.5-0.5-1.2-0.8-1.9-0.8
				h-6.4c-1.9,0-3.1,0.9-3.6,2.6c-0.3,0.8-0.9,1.6-1.8,2.5c-0.9,0.8-2.2,1.3-3.9,1.3c-1.6,0-3-0.5-4.1-1.5c-1.1-1-1.6-2-1.6-3.3
				c0-1.2,0.8-2.3,2.5-3.2c1.7-0.9,3.8-1.7,6.2-2.5c2.4-0.8,4.8-1.7,7.3-2.8c2.4-1.1,4.5-2.8,6.2-5c1.7-2.2,2.5-4.9,2.5-8.1
				c0-4.2-1.9-7.8-5.7-10.9C2193.2-1114.4,2188.8-1116,2183.6-1116z"/>
		</g>
		<g>
			<path id="DecimaMonoPro-Bold-63" d="M2244.2-1116c-5.9,0-10.8,1.7-14.5,5c-3.8,3.3-5.6,7.5-5.6,12.6v16.5c0,5.2,1.9,9.5,5.6,12.9
				c3.7,3.4,8.6,5,14.5,5c3.5,0,6.6-0.6,9.3-1.8c2.7-1.2,4.8-2.7,6.3-4.4c1.5-1.7,2.6-3.5,3.3-5.2c0.7-1.7,1.1-3.3,1.1-4.6
				c0-0.7-0.3-1.4-0.8-1.9c-0.5-0.5-1.2-0.8-1.9-0.8h-6.4c-1.9,0-3,0.9-3.5,2.6c-0.2,0.6-0.5,1.2-0.9,1.9c-0.4,0.7-1.1,1.5-2.3,2.4
				c-1.2,0.9-2.6,1.3-4.2,1.3c-2.1,0-3.9-0.7-5.4-2.1c-1.4-1.4-2.1-3.2-2.1-5.3v-16.5c0-2.1,0.7-3.9,2.1-5.3c1.4-1.4,3.3-2,5.5-2
				c1.8,0,3.3,0.5,4.5,1.4c1.2,1,2,1.8,2.3,2.5c0.3,0.7,0.5,1.4,0.6,2.1c0.3,1.7,1.5,2.6,3.6,2.6h6.4c0.7,0,1.4-0.3,1.9-0.8
				s0.8-1.2,0.8-1.9c0-1.3-0.3-2.9-1-4.6c-0.7-1.7-1.7-3.5-3.2-5.3c-1.4-1.9-3.5-3.4-6.3-4.7C2251.1-1115.4,2247.9-1116,2244.2-1116
				z"/>
		</g>
		<g>
			<path id="DecimaMonoPro-Bold-6f" d="M2323.9-1081.1v-17.8c0-4.9-1.9-8.9-5.7-12.2c-3.8-3.3-8.6-4.9-14.5-4.9
				c-6,0-10.9,1.6-14.7,4.9c-3.8,3.3-5.7,7.3-5.7,12.2v17.8c0,4.9,1.9,8.9,5.7,12.2c3.8,3.3,8.7,4.9,14.7,4.9
				c5.9,0,10.8-1.6,14.5-4.9C2322-1072.1,2323.9-1076.2,2323.9-1081.1z M2311.3-1099.1v18.1c0,1.8-0.7,3.3-2.1,4.6
				c-1.4,1.3-3.3,2-5.6,2c-2.2,0-4-0.7-5.5-2c-1.5-1.3-2.3-2.9-2.3-4.6v-18.1c0-1.7,0.8-3.3,2.3-4.6c1.5-1.3,3.4-1.9,5.6-1.9
				c2.3,0,4.1,0.6,5.5,1.9C2310.6-1102.4,2311.3-1100.9,2311.3-1099.1z"/>
		</g>
		<g>
			<path id="DecimaMonoPro-Bold-72" d="M2387.6-1079.2c0-0.7-0.3-1.4-0.8-1.9c-0.5-0.5-1.2-0.8-1.9-0.8h-6.6c-1.4,0-2.3,0.9-2.8,2.7
				c-0.2,1.1-0.8,2.1-1.8,3.2c-1,1-2.2,1.5-3.8,1.5c-2.3,0-4.2-0.8-5.7-2.4c-1.5-1.6-2.3-3.6-2.3-5.9v-21.8h17.7
				c0.7,0,1.3-0.2,1.8-0.7s0.8-1,0.8-1.7v-5.6c0-0.7-0.3-1.2-0.8-1.7s-1.1-0.7-1.8-0.7h-37.5c-0.7,0-1.3,0.2-1.8,0.7s-0.8,1-0.8,1.7
				v5.6c0,0.7,0.3,1.2,0.8,1.7s1.1,0.7,1.8,0.7h7.6v36.9c0,0.7,0.3,1.4,0.8,1.9c0.5,0.5,1.2,0.8,1.9,0.8h6.3c0.7,0,1.4-0.3,1.9-0.8
				s0.8-1.2,0.8-1.9v-1.3c0.3,0.3,0.7,0.8,1.2,1.3c0.5,0.6,1.7,1.3,3.6,2.2c1.9,0.9,3.9,1.4,6,1.4c4.8,0,8.6-1.7,11.3-5.1
				C2386.3-1072.5,2387.6-1075.8,2387.6-1079.2z"/>
		</g>
		<g>
			<path id="DecimaMonoPro-Bold-65_2_" d="M2416-1081.2v-2.9h15.5v2.9c0,1.8-0.8,3.4-2.3,4.8c-1.5,1.4-3.4,2.2-5.6,2.2
				c-2.1,0-3.9-0.7-5.4-2.2C2416.8-1077.8,2416-1079.4,2416-1081.2z M2443-1107c-7.1-5.9-13.5-8.9-19.4-8.9s-10.7,1.7-14.5,5.1
				c-3.8,3.4-5.7,7.5-5.7,12.4v16.8c0,4.9,1.9,9,5.8,12.4c3.8,3.4,8.7,5.2,14.5,5.2c5.9,0,10.7-1.7,14.5-5c3.8-3.3,5.7-7.4,5.7-12.2
				v-9.1c0-0.9-0.3-1.7-1-2.4c-0.7-0.6-1.5-0.9-2.5-0.9H2416v-5c0-1.8,0.7-3.4,2.2-4.9c1.5-1.4,3.3-2.1,5.4-2.1c2.2,0,3.9,0.4,5,1.1
				c1.2,0.8,1.8,1.5,2,2.3c0.4,1.5,1.5,2.2,3.3,2.2h6.3c1.8,0,2.7-0.9,2.7-2.7c0-2.9-3.5-7.3-10.6-13.2L2443-1107z"/>
		</g>
		<g>
			<path id="DecimaMonoPro-Bold-73_3_" d="M2483.6-1116c-6.1,0-10.7,1.6-14,4.7c-3.3,3.1-5,6.2-5,9.2c0,0.7,0.3,1.4,0.8,1.9
				s1.2,0.8,1.9,0.8h6.1c1.9,0,3.1-0.9,3.8-2.6c1-2.5,3.2-3.7,6.6-3.7c2.1,0,3.6,0.5,4.5,1.5s1.5,2.1,1.5,3.3c0,1.5-0.8,2.7-2.5,3.8
				c-1.7,1.1-3.7,2-6,2.9c-2.3,0.9-4.7,1.8-7.1,2.9c-2.4,1.1-4.4,2.7-6,4.8c-1.7,2.1-2.5,4.6-2.5,7.6c0,4.4,1.8,8,5.3,10.8
				c3.6,2.8,7.8,4.2,12.8,4.2c5.7,0,10.2-1.5,13.4-4.6c3.2-3.1,4.8-6.1,4.8-9.2c0-0.7-0.3-1.4-0.8-1.9c-0.5-0.5-1.2-0.8-1.9-0.8
				h-6.4c-1.9,0-3.1,0.9-3.6,2.6c-0.3,0.8-0.9,1.6-1.8,2.5c-0.9,0.8-2.2,1.3-3.9,1.3c-1.6,0-3-0.5-4.1-1.5c-1.1-1-1.6-2-1.6-3.3
				c0-1.2,0.8-2.3,2.5-3.2c1.7-0.9,3.8-1.7,6.2-2.5c2.4-0.8,4.8-1.7,7.3-2.8c2.4-1.1,4.5-2.8,6.2-5c1.7-2.2,2.5-4.9,2.5-8.1
				c0-4.2-1.9-7.8-5.7-10.9C2493.2-1114.4,2488.8-1116,2483.6-1116z"/>
		</g>
	</g>
</g>
<g id="text_20">
	<g transform="translate(9.740377 51.769074)scale(0.15 -0.15)" class="st27">
		<g>
			<path id="DecimaMonoPro-33_1_" d="M2435.6-1797.2l-10.8-14c3.6-0.5,6.8-2.2,9.5-5.1c2.7-3,4.1-6.5,4.1-10.5v-14
				c0-5.1-1.8-9.5-5.5-13.1c-3.7-3.6-8.2-5.4-13.5-5.4c-5.5,0-10,1.8-13.7,5.3c-3.6,3.6-5.4,7.9-5.4,13.1c0,0.5,0.2,1,0.6,1.4
				c0.4,0.4,1,0.6,1.7,0.6h3.8c1.4,0,2.2-0.7,2.3-2c0-2.9,1-5.4,3.1-7.5c2.1-2,4.6-3,7.6-3c2.9,0,5.4,1,7.5,3s3.1,4.5,3.1,7.5v14
				c0,2.1-0.8,4-2.3,5.5c-1.5,1.6-3.4,2.4-5.6,2.4h-5.3c-1.5,0-2.2,0.8-2.2,2.3v3.4c0,1.1,0.4,2.2,1.1,3.2l10.3,13.9h-19.7
				c-1.5,0-2.2,0.8-2.2,2.3v3.3c0,1.5,0.7,2.3,2.2,2.3h28.2c1.5,0,2.2-0.8,2.2-2.3v-3.4C2436.7-1795.1,2436.3-1796.2,2435.6-1797.2z
				"/>
		</g>
		<g>
			<path id="DecimaMonoPro-2d" d="M2469-1825.1h20.8c0.5,0,1-0.2,1.3-0.5s0.5-0.8,0.5-1.3v-4.2c0-0.5-0.2-1-0.5-1.3
				s-0.8-0.5-1.3-0.5H2469c-0.5,0-1,0.2-1.3,0.5s-0.5,0.8-0.5,1.3v4.2c0,0.5,0.2,1,0.5,1.3S2468.5-1825.1,2469-1825.1z"/>
		</g>
		<g>
			<path id="DecimaMonoPro-61_1_" d="M2549.9-1833.9l-13.1-0.9c-2.6-0.2-4.8-1.1-6.5-2.8c-1.7-1.6-2.6-3.7-2.6-6
				c0-2.3,0.9-4.3,2.8-6c1.9-1.7,4.2-2.5,7-2.5c3.5,0,6.5,1,8.9,3s3.5,4.2,3.5,6.5V-1833.9z M2558-1823.5v-33c0-1.2-0.8-1.8-2.3-1.8
				h-3.2c-1.5,0-2.3,0.6-2.3,1.8v2.6c-0.3-0.4-0.8-0.9-1.5-1.5c-0.6-0.6-2.1-1.4-4.3-2.4c-2.2-1-4.7-1.5-7.3-1.5
				c-4.8,0-8.9,1.5-12.3,4.5c-3.4,3-5.1,6.7-5.1,11.1c0,4.3,1.6,8,4.8,11c3.2,3,7.1,4.7,11.7,5.1l13.7,0.9v2.6
				c0,2.6-0.9,4.8-2.7,6.7c-1.8,1.9-4.2,2.8-7.1,2.8c-2.5,0-4.6-0.5-6.3-1.6c-1.7-1.1-2.8-2.4-3.4-4c-0.5-1.1-1.1-1.7-1.8-1.7h-4.2
				c-0.5,0-1,0.2-1.3,0.5s-0.5,0.8-0.5,1.3c0,2.6,1.7,5.4,5,8.3s7.5,4.5,12.5,4.5c5.7,0,10.1-1.5,13.2-4.6
				C2556.4-1815,2558-1818.8,2558-1823.5z"/>
		</g>
		<g>
			<path id="DecimaMonoPro-72" d="M2606.6-1807.3c4.6,0,8.2-1.5,10.9-4.5c2.7-3,4.1-6,4.1-9c0-1.2-0.6-1.8-1.7-1.8h-4.6
				c-1.1,0-1.7,0.6-1.8,1.7c-0.2,1.6-1,3.1-2.3,4.4s-3.1,2-5.2,2c-2.8,0-5.3-1-7.4-3s-3.2-4.3-3.2-6.8v-26.8h19.1
				c0.5,0,0.9-0.2,1.3-0.5c0.4-0.3,0.6-0.8,0.6-1.3v-3.6c0-0.5-0.2-1-0.6-1.3c-0.4-0.3-0.8-0.5-1.3-0.5h-35.8
				c-0.5,0-0.9,0.2-1.3,0.5s-0.5,0.8-0.5,1.3v3.6c0,0.5,0.2,1,0.5,1.3s0.8,0.5,1.3,0.5h8.7v41c0,1.2,0.8,1.8,2.3,1.8h3.2
				c1.5,0,2.3-0.6,2.3-1.8v-2.5C2597.9-1809,2601.7-1807.3,2606.6-1807.3z"/>
		</g>
		<g>
			<path id="DecimaMonoPro-79" d="M2680.4-1811.6l-23.7-62.9c-0.4-1.2-1.2-1.8-2.4-1.8h-4c-1.1,0-1.7,0.4-1.7,1.2
				c0,0.4,0.2,1.1,0.5,2.1l5.9,16.3l-16.8,45.1c-0.3,1-0.5,1.7-0.5,2.1c0,0.8,0.6,1.2,1.7,1.2h4.6c1.2,0,2-0.6,2.4-1.8l13.1-36.4
				l13,36.4c0.4,1.2,1.2,1.8,2.4,1.8h4.3c1.1,0,1.7-0.4,1.7-1.2C2680.9-1809.9,2680.7-1810.6,2680.4-1811.6z"/>
		</g>
		<g>
			<path id="DecimaMonoPro-20_50_" d="M2689.4-1858.3"/>
		</g>
		<g>
			<path id="DecimaMonoPro-64" d="M2767.3-1825.4v-16c0-3.1,1.1-5.6,3.3-7.7c2.2-2.1,4.9-3.1,8.3-3.1c3.4,0,6.2,1.1,8.4,3.2
				c2.2,2.1,3.4,4.7,3.4,7.8v15.9c0,3.1-1.1,5.6-3.4,7.7c-2.2,2.1-5,3.1-8.4,3.1c-3.4,0-6.2-1-8.3-3.1
				C2768.4-1819.7,2767.3-1822.3,2767.3-1825.4z M2790.7-1812l-0.1,21.9c0,1.2,0.8,1.8,2.3,1.8h3.5c1.5,0,2.3-0.6,2.3-1.8v-66.4
				c0-1.2-0.8-1.8-2.3-1.8h-2.9c-1.5,0-2.3,0.6-2.3,1.8v2.3c-0.3-0.4-0.7-0.9-1.3-1.5c-0.6-0.6-2-1.3-4.3-2.3
				c-2.2-0.9-4.7-1.4-7.5-1.4c-5.3,0-9.8,1.8-13.5,5.3c-3.7,3.6-5.5,7.9-5.5,13.1v15.2c0,5.1,1.8,9.4,5.5,13
				c3.7,3.6,8.2,5.4,13.5,5.4c2.6,0,4.9-0.4,7-1.2c2.1-0.8,3.6-1.6,4.3-2.4L2790.7-1812z"/>
		</g>
		<g>
			<path id="DecimaMonoPro-61_2_" d="M2849.9-1833.9l-13.1-0.9c-2.6-0.2-4.8-1.1-6.5-2.8c-1.7-1.6-2.6-3.7-2.6-6
				c0-2.3,0.9-4.3,2.8-6c1.9-1.7,4.2-2.5,7-2.5c3.5,0,6.5,1,8.9,3c2.4,2,3.5,4.2,3.5,6.5V-1833.9z M2858-1823.5v-33
				c0-1.2-0.8-1.8-2.3-1.8h-3.2c-1.5,0-2.3,0.6-2.3,1.8v2.6c-0.3-0.4-0.8-0.9-1.5-1.5c-0.6-0.6-2.1-1.4-4.3-2.4
				c-2.2-1-4.7-1.5-7.3-1.5c-4.8,0-8.9,1.5-12.3,4.5c-3.4,3-5.1,6.7-5.1,11.1c0,4.3,1.6,8,4.8,11c3.2,3,7.1,4.7,11.7,5.1l13.7,0.9
				v2.6c0,2.6-0.9,4.8-2.7,6.7c-1.8,1.9-4.2,2.8-7.1,2.8c-2.5,0-4.6-0.5-6.3-1.6c-1.7-1.1-2.8-2.4-3.4-4c-0.5-1.1-1.1-1.7-1.8-1.7
				h-4.2c-0.5,0-1,0.2-1.3,0.5c-0.3,0.3-0.5,0.8-0.5,1.3c0,2.6,1.7,5.4,5,8.3c3.3,3,7.5,4.5,12.5,4.5c5.7,0,10.1-1.5,13.2-4.6
				C2856.4-1815,2858-1818.8,2858-1823.5z"/>
		</g>
		<g>
			<path id="DecimaMonoPro-74_5_" d="M2894.2-1797v-11.3h23.6c0.5,0,1-0.2,1.3-0.5c0.3-0.3,0.5-0.8,0.5-1.3v-3.6
				c0-0.5-0.2-1-0.5-1.3c-0.3-0.3-0.8-0.5-1.3-0.5h-23.6v-26.9c0-2.7,0.9-5,2.6-6.9c1.7-1.9,4.2-2.8,7.4-2.8c2.8,0,5,0.8,6.6,2.4
				c1.6,1.6,2.5,3.4,2.8,5.4c0.1,1.1,0.7,1.7,1.7,1.7h4.5c0.5,0,1-0.2,1.3-0.6c0.3-0.4,0.5-0.8,0.5-1.2c0-1.5-0.3-3.1-0.9-4.7
				c-0.6-1.6-1.5-3.1-2.8-4.8c-1.2-1.6-3.1-2.9-5.5-4c-2.4-1-5.2-1.5-8.5-1.5c-5.9,0-10.4,1.5-13.4,4.6c-3,3.1-4.5,6.9-4.5,11.5
				v27.7h-7.4c-0.5,0-0.9,0.2-1.3,0.5c-0.4,0.3-0.5,0.8-0.5,1.3v3.6c0,0.5,0.2,1,0.5,1.3c0.4,0.3,0.8,0.5,1.3,0.5h7.4v11.3
				c0,1.2,0.8,1.8,2.3,1.8h3.6C2893.5-1795.2,2894.2-1795.8,2894.2-1797z"/>
		</g>
		<g>
			<path id="DecimaMonoPro-61_3_" d="M2969.9-1833.9l-13.1-0.9c-2.6-0.2-4.8-1.1-6.5-2.8c-1.7-1.6-2.6-3.7-2.6-6
				c0-2.3,0.9-4.3,2.8-6c1.9-1.7,4.2-2.5,7-2.5c3.5,0,6.5,1,8.9,3c2.4,2,3.5,4.2,3.5,6.5V-1833.9z M2978-1823.5v-33
				c0-1.2-0.8-1.8-2.3-1.8h-3.2c-1.5,0-2.3,0.6-2.3,1.8v2.6c-0.3-0.4-0.8-0.9-1.5-1.5c-0.6-0.6-2.1-1.4-4.3-2.4
				c-2.2-1-4.7-1.5-7.3-1.5c-4.8,0-8.9,1.5-12.3,4.5c-3.4,3-5.1,6.7-5.1,11.1c0,4.3,1.6,8,4.8,11c3.2,3,7.1,4.7,11.7,5.1l13.7,0.9
				v2.6c0,2.6-0.9,4.8-2.7,6.7c-1.8,1.9-4.2,2.8-7.1,2.8c-2.5,0-4.6-0.5-6.3-1.6c-1.7-1.1-2.8-2.4-3.4-4c-0.5-1.1-1.1-1.7-1.8-1.7
				h-4.2c-0.5,0-1,0.2-1.3,0.5c-0.3,0.3-0.5,0.8-0.5,1.3c0,2.6,1.7,5.4,5,8.3c3.3,3,7.5,4.5,12.5,4.5c5.7,0,10.1-1.5,13.2-4.6
				C2976.4-1815,2978-1818.8,2978-1823.5z"/>
		</g>
		<g>
			<path id="DecimaMonoPro-73_1_" d="M3019.5-1859.3c-3.2,0-6,0.5-8.5,1.6c-2.5,1.1-4.4,2.4-5.7,4c-1.3,1.6-2.3,3.2-2.9,4.8
				c-0.6,1.6-1,3.1-1,4.6c0,0.5,0.2,1,0.5,1.3c0.3,0.3,0.8,0.5,1.3,0.5h4.5c1.1,0,1.7-0.6,1.8-1.7c0.2-1.9,1.1-3.7,2.7-5.4
				c1.6-1.7,4-2.5,7.3-2.5c2.8,0,5.1,0.7,6.8,2.1c1.7,1.4,2.6,3.2,2.6,5.3c0,1.9-0.9,3.6-2.7,4.9c-1.8,1.3-3.9,2.4-6.5,3.3
				c-2.5,0.9-5,1.9-7.5,3c-2.5,1.1-4.6,2.6-6.4,4.7c-1.8,2.1-2.6,4.6-2.6,7.6c0,4.1,1.5,7.5,4.6,10c3.1,2.6,7.2,3.9,12.3,3.9
				c5.5,0,9.7-1.5,12.5-4.5c2.9-3,4.3-6,4.3-9c0-0.5-0.2-0.9-0.5-1.3c-0.3-0.4-0.8-0.5-1.3-0.5h-4.6c-1,0-1.6,0.6-1.8,1.7
				c-0.3,1.7-1.2,3.2-2.7,4.5c-1.4,1.3-3.5,1.9-6,1.9c-2.5,0-4.6-0.6-6.2-1.7c-1.6-1.1-2.3-2.6-2.3-4.4s0.9-3.3,2.6-4.6
				c1.8-1.3,3.9-2.3,6.4-3.2c2.5-0.9,5-1.8,7.5-3c2.5-1.1,4.6-2.8,6.3-5.1c1.8-2.3,2.7-5.1,2.7-8.4c0-4-1.7-7.4-5.1-10.2
				C3028.6-1857.9,3024.4-1859.3,3019.5-1859.3z"/>
		</g>
		<g>
			<path id="DecimaMonoPro-65_1_" d="M3098.2-1844.8c0-2.9-1.7-6.1-5-9.5c-3.4-3.4-7.9-5-13.5-5c-6,0-10.8,1.8-14.5,5.5
				c-3.6,3.6-5.5,8-5.5,13v15.2c0,5,1.8,9.3,5.5,12.9c3.6,3.6,8.5,5.4,14.5,5.4s10.8-1.8,14.3-5.4c3.5-3.6,5.3-7.9,5.3-12.9v-7.9
				c0-0.7-0.2-1.2-0.7-1.7c-0.4-0.4-1-0.6-1.6-0.6h-29v-5.5c0-3,1.1-5.6,3.3-7.7c2.2-2.1,5-3.2,8.5-3.2c5.5,0,9,2.5,10.4,7.5
				c0.3,1.1,0.9,1.7,1.8,1.7h4.6c0.5,0,1-0.2,1.3-0.5C3098-1843.9,3098.2-1844.3,3098.2-1844.8z M3067.8-1825.3v-3.3h23.4v3.3
				c0,3-1.1,5.5-3.2,7.6c-2.1,2.1-4.9,3.2-8.4,3.2s-6.4-1.1-8.5-3.2C3068.9-1819.7,3067.8-1822.3,3067.8-1825.3z"/>
		</g>
		<g>
			<path id="DecimaMonoPro-74_6_" d="M3134.2-1797v-11.3h23.6c0.5,0,1-0.2,1.3-0.5c0.3-0.3,0.5-0.8,0.5-1.3v-3.6
				c0-0.5-0.2-1-0.5-1.3c-0.3-0.3-0.8-0.5-1.3-0.5h-23.6v-26.9c0-2.7,0.9-5,2.6-6.9c1.7-1.9,4.2-2.8,7.4-2.8c2.8,0,5,0.8,6.6,2.4
				c1.6,1.6,2.5,3.4,2.8,5.4c0.1,1.1,0.7,1.7,1.7,1.7h4.5c0.5,0,1-0.2,1.3-0.6c0.3-0.4,0.5-0.8,0.5-1.2c0-1.5-0.3-3.1-0.9-4.7
				c-0.6-1.6-1.5-3.1-2.8-4.8c-1.2-1.6-3.1-2.9-5.5-4c-2.4-1-5.2-1.5-8.5-1.5c-5.9,0-10.4,1.5-13.4,4.6c-3,3.1-4.5,6.9-4.5,11.5
				v27.7h-7.4c-0.5,0-0.9,0.2-1.3,0.5c-0.4,0.3-0.5,0.8-0.5,1.3v3.6c0,0.5,0.2,1,0.5,1.3c0.4,0.3,0.8,0.5,1.3,0.5h7.4v11.3
				c0,1.2,0.8,1.8,2.3,1.8h3.6C3133.5-1795.2,3134.2-1795.8,3134.2-1797z"/>
		</g>
		<g>
			<path id="DecimaMonoPro-20_51_" d="M3169.4-1858.3"/>
		</g>
		<g>
			<path id="DecimaMonoPro-6f_2_" d="M3279.2-1825.7v-15.2c0-5.1-1.8-9.5-5.5-13.1c-3.7-3.6-8.4-5.3-14.3-5.3
				c-5.9,0-10.7,1.8-14.4,5.3c-3.7,3.6-5.5,8-5.5,13.2v15.1c0,5.1,1.8,9.5,5.5,13c3.7,3.6,8.5,5.4,14.4,5.4c5.8,0,10.6-1.8,14.3-5.4
				C3277.3-1816.3,3279.2-1820.6,3279.2-1825.7z M3271-1841.4v16.2c0,3-1.1,5.6-3.2,7.7c-2.1,2.1-4.9,3.2-8.4,3.2s-6.4-1.1-8.5-3.2
				s-3.3-4.7-3.3-7.7v-16.1c0-3,1.1-5.6,3.3-7.7s5-3.2,8.5-3.2s6.3,1.1,8.4,3.2C3269.9-1846.9,3271-1844.4,3271-1841.4z"/>
		</g>
		<g>
			<path id="DecimaMonoPro-66" d="M3312.1-1808.3v4.1c0,4.8,1.6,8.8,4.9,12c3.3,3.2,7.5,4.9,12.7,4.9c2.3,0,4.3-0.2,6.2-0.6
				c1.8-0.4,3.1-0.8,3.8-1.2l1.1-0.6c0.5-0.3,0.7-0.7,0.7-1.4c0-0.4-0.1-0.8-0.3-1.1l-2.3-3.1c-0.3-0.5-0.8-0.8-1.3-0.8
				c-0.1,0-0.7,0.2-1.7,0.5c-1.4,0.7-3.4,1-6.1,1c-2.9,0-5.2-0.9-6.9-2.7c-1.7-1.8-2.6-4-2.6-6.6v-4.4h16.9c0.5,0,1-0.2,1.3-0.5
				s0.5-0.8,0.5-1.3v-3.6c0-0.5-0.2-1-0.5-1.3s-0.8-0.5-1.3-0.5h-16.9v-41c0-1.2-0.8-1.8-2.3-1.8h-3.6c-1.5,0-2.3,0.6-2.3,1.8v41
				h-10.3c-0.5,0-1,0.2-1.3,0.5s-0.5,0.8-0.5,1.3v3.6c0,0.5,0.2,1,0.5,1.3s0.8,0.5,1.3,0.5H3312.1z"/>
		</g>
		<g>
			<path id="DecimaMonoPro-20_52_" d="M3349.4-1858.3"/>
		</g>
		<g>
			<path id="DecimaMonoPro-74_7_" d="M3434.2-1797v-11.3h23.6c0.5,0,1-0.2,1.3-0.5c0.3-0.3,0.5-0.8,0.5-1.3v-3.6
				c0-0.5-0.2-1-0.5-1.3c-0.3-0.3-0.8-0.5-1.3-0.5h-23.6v-26.9c0-2.7,0.9-5,2.6-6.9c1.7-1.9,4.2-2.8,7.4-2.8c2.8,0,5,0.8,6.6,2.4
				c1.6,1.6,2.5,3.4,2.8,5.4c0.1,1.1,0.7,1.7,1.7,1.7h4.5c0.5,0,1-0.2,1.3-0.6c0.3-0.4,0.5-0.8,0.5-1.2c0-1.5-0.3-3.1-0.9-4.7
				c-0.6-1.6-1.5-3.1-2.8-4.8c-1.2-1.6-3.1-2.9-5.5-4c-2.4-1-5.2-1.5-8.5-1.5c-5.9,0-10.4,1.5-13.4,4.6c-3,3.1-4.5,6.9-4.5,11.5
				v27.7h-7.4c-0.5,0-0.9,0.2-1.3,0.5c-0.4,0.3-0.5,0.8-0.5,1.3v3.6c0,0.5,0.2,1,0.5,1.3c0.4,0.3,0.8,0.5,1.3,0.5h7.4v11.3
				c0,1.2,0.8,1.8,2.3,1.8h3.6C3433.5-1795.2,3434.2-1795.8,3434.2-1797z"/>
		</g>
		<g>
			<path id="DecimaMonoPro-61_4_" d="M3509.9-1833.9l-13.1-0.9c-2.6-0.2-4.8-1.1-6.5-2.8c-1.7-1.6-2.6-3.7-2.6-6
				c0-2.3,0.9-4.3,2.8-6c1.9-1.7,4.2-2.5,7-2.5c3.5,0,6.5,1,8.9,3c2.4,2,3.5,4.2,3.5,6.5V-1833.9z M3518-1823.5v-33
				c0-1.2-0.8-1.8-2.3-1.8h-3.2c-1.5,0-2.3,0.6-2.3,1.8v2.6c-0.3-0.4-0.8-0.9-1.5-1.5c-0.6-0.6-2.1-1.4-4.3-2.4
				c-2.2-1-4.7-1.5-7.3-1.5c-4.8,0-8.9,1.5-12.3,4.5c-3.4,3-5.1,6.7-5.1,11.1c0,4.3,1.6,8,4.8,11c3.2,3,7.1,4.7,11.7,5.1l13.7,0.9
				v2.6c0,2.6-0.9,4.8-2.7,6.7c-1.8,1.9-4.2,2.8-7.1,2.8c-2.5,0-4.6-0.5-6.3-1.6c-1.7-1.1-2.8-2.4-3.4-4c-0.5-1.1-1.1-1.7-1.8-1.7
				h-4.2c-0.5,0-1,0.2-1.3,0.5c-0.3,0.3-0.5,0.8-0.5,1.3c0,2.6,1.7,5.4,5,8.3c3.3,3,7.5,4.5,12.5,4.5c5.7,0,10.1-1.5,13.2-4.6
				C3516.4-1815,3518-1818.8,3518-1823.5z"/>
		</g>
		<g>
			<path id="DecimaMonoPro-62" d="M3571.5-1841.4v16c0,3.1-1.1,5.6-3.3,7.7c-2.2,2.1-4.9,3.1-8.3,3.1c-3.4,0-6.2-1-8.5-3.1
				c-2.2-2.1-3.3-4.6-3.3-7.7v-15.9c0-3.1,1.1-5.6,3.3-7.8c2.2-2.1,5.1-3.2,8.5-3.2c3.4,0,6.2,1,8.3,3.1
				C3570.4-1847,3571.5-1844.4,3571.5-1841.4z M3548.2-1790.1l-0.1-21.9c0.3,0.3,0.7,0.8,1.3,1.3c0.6,0.5,2,1.2,4.2,2.1
				c2.2,0.9,4.5,1.3,7.1,1.3c5.3,0,9.8-1.8,13.5-5.4c3.7-3.6,5.5-7.9,5.5-13v-15.2c0-5.1-1.8-9.5-5.5-13.1
				c-3.7-3.6-8.2-5.3-13.5-5.3c-2.8,0-5.3,0.4-7.5,1.3c-2.2,0.8-3.6,1.7-4.4,2.5l-1.2,1.3v-2.3c0-1.2-0.8-1.8-2.3-1.8h-2.9
				c-1.5,0-2.3,0.6-2.3,1.8v66.4c0,1.2,0.8,1.8,2.3,1.8h3.5C3547.4-1788.3,3548.2-1788.9,3548.2-1790.1z"/>
		</g>
		<g>
			<path id="DecimaMonoPro-75_2_" d="M3599.6-1842v31.9c0,1.2,0.8,1.8,2.3,1.8h3.4c1.5,0,2.3-0.6,2.3-1.8v-31.7
				c0-6.9,3.5-10.3,10.6-10.3c3.2,0,6.1,1.1,8.8,3.3c2.7,2.2,4,4.5,4,7v31.7c0,1.2,0.8,1.8,2.3,1.8h3.4c1.5,0,2.3-0.6,2.3-1.8v-46.4
				c0-1.2-0.8-1.8-2.3-1.8h-3.2c-1.5,0-2.3,0.6-2.3,1.8v3.1c-0.5-0.5-1.1-1-1.9-1.7c-0.8-0.6-2.4-1.5-4.8-2.6
				c-2.5-1.1-4.9-1.6-7.4-1.6c-5.1,0-9.3,1.5-12.6,4.6C3601.2-1851.5,3599.6-1847.3,3599.6-1842z"/>
		</g>
		<g>
			<path id="DecimaMonoPro-6c" d="M3665.3-1788.2h17c0.5,0,0.9-0.2,1.2-0.5c0.4-0.4,0.6-0.8,0.6-1.3v-61.1h14.2
				c0.5,0,0.9-0.2,1.2-0.5c0.4-0.3,0.6-0.8,0.6-1.3v-3.6c0-0.5-0.2-1-0.6-1.3c-0.4-0.3-0.8-0.5-1.2-0.5h-35.8
				c-0.5,0-0.9,0.2-1.3,0.5c-0.4,0.3-0.5,0.8-0.5,1.3v3.6c0,0.5,0.2,1,0.5,1.3c0.4,0.3,0.8,0.5,1.3,0.5h13.6v55.7h-10.8
				c-0.5,0-0.9,0.2-1.3,0.5c-0.4,0.4-0.5,0.8-0.5,1.3v3.6c0,0.5,0.2,0.9,0.5,1.3C3664.4-1788.4,3664.8-1788.2,3665.3-1788.2z"/>
		</g>
		<g>
			<path id="DecimaMonoPro-61_5_" d="M3749.9-1833.9l-13.1-0.9c-2.6-0.2-4.8-1.1-6.5-2.8c-1.7-1.6-2.6-3.7-2.6-6
				c0-2.3,0.9-4.3,2.8-6c1.9-1.7,4.2-2.5,7-2.5c3.5,0,6.5,1,8.9,3c2.4,2,3.5,4.2,3.5,6.5V-1833.9z M3758-1823.5v-33
				c0-1.2-0.8-1.8-2.3-1.8h-3.2c-1.5,0-2.3,0.6-2.3,1.8v2.6c-0.3-0.4-0.8-0.9-1.5-1.5c-0.6-0.6-2.1-1.4-4.3-2.4
				c-2.2-1-4.7-1.5-7.3-1.5c-4.8,0-8.9,1.5-12.3,4.5c-3.4,3-5.1,6.7-5.1,11.1c0,4.3,1.6,8,4.8,11c3.2,3,7.1,4.7,11.7,5.1l13.7,0.9
				v2.6c0,2.6-0.9,4.8-2.7,6.7c-1.8,1.9-4.2,2.8-7.1,2.8c-2.5,0-4.6-0.5-6.3-1.6c-1.7-1.1-2.8-2.4-3.4-4c-0.5-1.1-1.1-1.7-1.8-1.7
				h-4.2c-0.5,0-1,0.2-1.3,0.5c-0.3,0.3-0.5,0.8-0.5,1.3c0,2.6,1.7,5.4,5,8.3c3.3,3,7.5,4.5,12.5,4.5c5.7,0,10.1-1.5,13.2-4.6
				C3756.4-1815,3758-1818.8,3758-1823.5z"/>
		</g>
		<g>
			<path id="DecimaMonoPro-72_1_" d="M3806.6-1807.3c4.6,0,8.2-1.5,10.9-4.5c2.7-3,4.1-6,4.1-9c0-1.2-0.6-1.8-1.7-1.8h-4.6
				c-1.1,0-1.7,0.6-1.8,1.7c-0.2,1.6-1,3.1-2.3,4.4c-1.4,1.3-3.1,2-5.2,2c-2.8,0-5.3-1-7.4-3c-2.1-2-3.2-4.3-3.2-6.8v-26.8h19.1
				c0.5,0,0.9-0.2,1.3-0.5c0.4-0.3,0.6-0.8,0.6-1.3v-3.6c0-0.5-0.2-1-0.6-1.3c-0.4-0.3-0.8-0.5-1.3-0.5h-35.8
				c-0.5,0-0.9,0.2-1.3,0.5c-0.4,0.3-0.5,0.8-0.5,1.3v3.6c0,0.5,0.2,1,0.5,1.3c0.4,0.3,0.8,0.5,1.3,0.5h8.7v41
				c0,1.2,0.8,1.8,2.3,1.8h3.2c1.5,0,2.3-0.6,2.3-1.8v-2.5C3797.9-1809,3801.7-1807.3,3806.6-1807.3z"/>
		</g>
		<g>
			<path id="DecimaMonoPro-20_53_" d="M3829.4-1858.3"/>
		</g>
		<g>
			<path id="DecimaMonoPro-66_1_" d="M3912.1-1808.3v4.1c0,4.8,1.6,8.8,4.9,12c3.3,3.2,7.5,4.9,12.7,4.9c2.3,0,4.3-0.2,6.2-0.6
				c1.8-0.4,3.1-0.8,3.8-1.2l1.1-0.6c0.5-0.3,0.7-0.7,0.7-1.4c0-0.4-0.1-0.8-0.3-1.1l-2.3-3.1c-0.3-0.5-0.8-0.8-1.3-0.8
				c-0.1,0-0.7,0.2-1.7,0.5c-1.4,0.7-3.4,1-6.1,1c-2.9,0-5.2-0.9-6.9-2.7c-1.7-1.8-2.6-4-2.6-6.6v-4.4h16.9c0.5,0,1-0.2,1.3-0.5
				c0.3-0.3,0.5-0.8,0.5-1.3v-3.6c0-0.5-0.2-1-0.5-1.3c-0.3-0.3-0.8-0.5-1.3-0.5h-16.9v-41c0-1.2-0.8-1.8-2.3-1.8h-3.6
				c-1.5,0-2.3,0.6-2.3,1.8v41h-10.3c-0.5,0-1,0.2-1.3,0.5c-0.3,0.3-0.5,0.8-0.5,1.3v3.6c0,0.5,0.2,1,0.5,1.3
				c0.3,0.3,0.8,0.5,1.3,0.5H3912.1z"/>
		</g>
		<g>
			<path id="DecimaMonoPro-69_2_" d="M3962.4-1808.3h21.4c0.5,0,1-0.2,1.3-0.5c0.3-0.3,0.5-0.8,0.5-1.3v-41h13.5
				c0.5,0,0.9-0.2,1.3-0.5c0.4-0.3,0.5-0.8,0.5-1.3v-3.6c0-0.5-0.2-1-0.5-1.3c-0.4-0.3-0.8-0.5-1.3-0.5h-37.2
				c-0.5,0-0.9,0.2-1.3,0.5c-0.4,0.3-0.5,0.8-0.5,1.3v3.6c0,0.5,0.2,1,0.5,1.3c0.4,0.3,0.8,0.5,1.3,0.5h15.7v35.6h-15.2
				c-0.5,0-1,0.2-1.3,0.5c-0.3,0.3-0.5,0.8-0.5,1.3v3.6c0,0.5,0.2,1,0.5,1.3C3961.4-1808.4,3961.9-1808.3,3962.4-1808.3z
				 M3985.8-1792v-4.3c0-0.7-0.2-1.2-0.7-1.7c-0.4-0.4-1-0.6-1.7-0.6h-4.6c-0.7,0-1.2,0.2-1.7,0.6c-0.4,0.4-0.6,1-0.6,1.7v4.3
				c0,0.7,0.2,1.2,0.6,1.6c0.4,0.4,1,0.7,1.7,0.7h4.6c0.7,0,1.2-0.2,1.7-0.7C3985.6-1790.8,3985.8-1791.3,3985.8-1792z"/>
		</g>
		<g>
			<path id="DecimaMonoPro-6c_1_" d="M4025.3-1788.2h17c0.5,0,0.9-0.2,1.2-0.5c0.4-0.4,0.6-0.8,0.6-1.3v-61.1h14.2
				c0.5,0,0.9-0.2,1.2-0.5c0.4-0.3,0.6-0.8,0.6-1.3v-3.6c0-0.5-0.2-1-0.6-1.3c-0.4-0.3-0.8-0.5-1.2-0.5h-35.8
				c-0.5,0-0.9,0.2-1.3,0.5c-0.4,0.3-0.5,0.8-0.5,1.3v3.6c0,0.5,0.2,1,0.5,1.3c0.4,0.3,0.8,0.5,1.3,0.5h13.6v55.7h-10.8
				c-0.5,0-0.9,0.2-1.3,0.5c-0.4,0.4-0.5,0.8-0.5,1.3v3.6c0,0.5,0.2,0.9,0.5,1.3C4024.4-1788.4,4024.8-1788.2,4025.3-1788.2z"/>
		</g>
		<g>
			<path id="DecimaMonoPro-65_2_" d="M4118.2-1844.8c0-2.9-1.7-6.1-5-9.5s-7.9-5-13.5-5c-6,0-10.8,1.8-14.5,5.5
				c-3.6,3.6-5.5,8-5.5,13v15.2c0,5,1.8,9.3,5.5,12.9c3.6,3.6,8.5,5.4,14.5,5.4s10.8-1.8,14.3-5.4c3.5-3.6,5.3-7.9,5.3-12.9v-7.9
				c0-0.7-0.2-1.2-0.7-1.7c-0.4-0.4-1-0.6-1.6-0.6h-29v-5.5c0-3,1.1-5.6,3.3-7.7c2.2-2.1,5-3.2,8.5-3.2c5.5,0,9,2.5,10.4,7.5
				c0.3,1.1,0.9,1.7,1.8,1.7h4.6c0.5,0,1-0.2,1.3-0.5S4118.2-1844.3,4118.2-1844.8z M4087.8-1825.3v-3.3h23.4v3.3
				c0,3-1.1,5.5-3.2,7.6c-2.1,2.1-4.9,3.2-8.4,3.2s-6.4-1.1-8.5-3.2C4088.9-1819.7,4087.8-1822.3,4087.8-1825.3z"/>
		</g>
		<g>
			<path id="DecimaMonoPro-73_2_" d="M4159.5-1859.3c-3.2,0-6,0.5-8.5,1.6c-2.5,1.1-4.4,2.4-5.7,4c-1.3,1.6-2.3,3.2-2.9,4.8
				c-0.6,1.6-1,3.1-1,4.6c0,0.5,0.2,1,0.5,1.3c0.3,0.3,0.8,0.5,1.3,0.5h4.5c1.1,0,1.7-0.6,1.8-1.7c0.2-1.9,1.1-3.7,2.7-5.4
				c1.6-1.7,4-2.5,7.3-2.5c2.8,0,5.1,0.7,6.8,2.1c1.7,1.4,2.6,3.2,2.6,5.3c0,1.9-0.9,3.6-2.7,4.9c-1.8,1.3-3.9,2.4-6.5,3.3
				c-2.5,0.9-5,1.9-7.5,3c-2.5,1.1-4.6,2.6-6.4,4.7c-1.8,2.1-2.6,4.6-2.6,7.6c0,4.1,1.5,7.5,4.6,10c3.1,2.6,7.2,3.9,12.3,3.9
				c5.5,0,9.7-1.5,12.5-4.5c2.9-3,4.3-6,4.3-9c0-0.5-0.2-0.9-0.5-1.3c-0.3-0.4-0.8-0.5-1.3-0.5h-4.6c-1,0-1.6,0.6-1.8,1.7
				c-0.3,1.7-1.2,3.2-2.7,4.5c-1.4,1.3-3.5,1.9-6,1.9c-2.5,0-4.6-0.6-6.2-1.7c-1.6-1.1-2.3-2.6-2.3-4.4s0.9-3.3,2.6-4.6
				c1.8-1.3,3.9-2.3,6.4-3.2c2.5-0.9,5-1.8,7.5-3c2.5-1.1,4.6-2.8,6.3-5.1c1.8-2.3,2.7-5.1,2.7-8.4c0-4-1.7-7.4-5.1-10.2
				C4168.6-1857.9,4164.4-1859.3,4159.5-1859.3z"/>
		</g>
		<g>
			<path id="DecimaMonoPro-20_54_" d="M4189.4-1858.3"/>
		</g>
		<g>
			<path id="DecimaMonoPro-77" d="M4300.8-1827.7l-4.2-28.8c-0.1-1.2-0.9-1.8-2.3-1.8h-8.8c-1.3,0-2,0.6-2.3,1.8l-3.6,22.9h-0.5
				l-3.5-22.9c-0.3-1.2-1-1.8-2.3-1.8h-8.8c-1.4,0-2.2,0.6-2.3,1.8l-4.2,28.8v17.6c0,1.2,0.8,1.8,2.3,1.8h3.2c1.5,0,2.3-0.6,2.3-1.8
				v-16.8l2.6-24.1h1.5l4.1,23c0.3,1.2,1,1.8,2.3,1.8h6c1.3,0,2-0.6,2.3-1.8l4.3-23h1.5l2.6,24.1v16.8c0,1.2,0.8,1.8,2.3,1.8h3.2
				c1.5,0,2.3-0.6,2.3-1.8V-1827.7z"/>
		</g>
		<g>
			<path id="DecimaMonoPro-69_3_" d="M4322.4-1808.3h21.4c0.5,0,1-0.2,1.3-0.5c0.3-0.3,0.5-0.8,0.5-1.3v-41h13.5
				c0.5,0,0.9-0.2,1.3-0.5c0.4-0.3,0.5-0.8,0.5-1.3v-3.6c0-0.5-0.2-1-0.5-1.3c-0.4-0.3-0.8-0.5-1.3-0.5h-37.2
				c-0.5,0-0.9,0.2-1.3,0.5c-0.4,0.3-0.5,0.8-0.5,1.3v3.6c0,0.5,0.2,1,0.5,1.3c0.4,0.3,0.8,0.5,1.3,0.5h15.7v35.6h-15.2
				c-0.5,0-1,0.2-1.3,0.5c-0.3,0.3-0.5,0.8-0.5,1.3v3.6c0,0.5,0.2,1,0.5,1.3C4321.4-1808.4,4321.9-1808.3,4322.4-1808.3z
				 M4345.8-1792v-4.3c0-0.7-0.2-1.2-0.7-1.7c-0.4-0.4-1-0.6-1.7-0.6h-4.6c-0.7,0-1.2,0.2-1.7,0.6c-0.4,0.4-0.6,1-0.6,1.7v4.3
				c0,0.7,0.2,1.2,0.6,1.6c0.4,0.4,1,0.7,1.7,0.7h4.6c0.7,0,1.2-0.2,1.7-0.7C4345.6-1790.8,4345.8-1791.3,4345.8-1792z"/>
		</g>
		<g>
			<path id="DecimaMonoPro-74_8_" d="M4394.2-1797v-11.3h23.6c0.5,0,1-0.2,1.3-0.5c0.3-0.3,0.5-0.8,0.5-1.3v-3.6
				c0-0.5-0.2-1-0.5-1.3c-0.3-0.3-0.8-0.5-1.3-0.5h-23.6v-26.9c0-2.7,0.9-5,2.6-6.9c1.7-1.9,4.2-2.8,7.4-2.8c2.8,0,5,0.8,6.6,2.4
				c1.6,1.6,2.5,3.4,2.8,5.4c0.1,1.1,0.7,1.7,1.7,1.7h4.5c0.5,0,1-0.2,1.3-0.6c0.3-0.4,0.5-0.8,0.5-1.2c0-1.5-0.3-3.1-0.9-4.7
				c-0.6-1.6-1.5-3.1-2.8-4.8c-1.2-1.6-3.1-2.9-5.5-4c-2.4-1-5.2-1.5-8.5-1.5c-5.9,0-10.4,1.5-13.4,4.6c-3,3.1-4.5,6.9-4.5,11.5
				v27.7h-7.4c-0.5,0-0.9,0.2-1.3,0.5c-0.4,0.3-0.5,0.8-0.5,1.3v3.6c0,0.5,0.2,1,0.5,1.3c0.4,0.3,0.8,0.5,1.3,0.5h7.4v11.3
				c0,1.2,0.8,1.8,2.3,1.8h3.6C4393.5-1795.2,4394.2-1795.8,4394.2-1797z"/>
		</g>
		<g>
			<path id="DecimaMonoPro-68" d="M4479.5-1825.6v-30.9c0-1.2-0.8-1.8-2.3-1.8h-3.4c-1.5,0-2.3,0.6-2.3,1.8v31.2c0,3.1-1,5.6-3,7.7
				c-2,2.1-4.7,3.1-8,3.1c-3.2,0-6-1.1-8.5-3.3s-3.8-4.5-3.8-7v-31.7c0-1.2-0.8-1.8-2.3-1.8h-3.4c-1.5,0-2.3,0.6-2.3,1.8v66.4
				c0,1.2,0.8,1.8,2.3,1.8h3.5c1.5,0,2.2-0.6,2.2-1.8v-22.6c0.3,0.4,0.8,0.9,1.5,1.5c0.7,0.6,2.2,1.4,4.4,2.4c2.3,1,4.7,1.5,7.2,1.5
				c5.5,0,9.9-1.8,13.2-5.3C4477.8-1816,4479.5-1820.4,4479.5-1825.6z"/>
		</g>
		<g>
			<path id="DecimaMonoPro-20_55_" d="M4489.4-1858.3"/>
		</g>
		<g>
			<path id="DecimaMonoPro-68_1_" d="M4599.5-1825.6v-30.9c0-1.2-0.8-1.8-2.3-1.8h-3.4c-1.5,0-2.3,0.6-2.3,1.8v31.2
				c0,3.1-1,5.6-3,7.7c-2,2.1-4.7,3.1-8,3.1c-3.2,0-6-1.1-8.5-3.3s-3.8-4.5-3.8-7v-31.7c0-1.2-0.8-1.8-2.3-1.8h-3.4
				c-1.5,0-2.3,0.6-2.3,1.8v66.4c0,1.2,0.8,1.8,2.3,1.8h3.5c1.5,0,2.2-0.6,2.2-1.8v-22.6c0.3,0.4,0.8,0.9,1.5,1.5
				c0.7,0.6,2.2,1.4,4.4,2.4c2.3,1,4.7,1.5,7.2,1.5c5.5,0,9.9-1.8,13.2-5.3C4597.8-1816,4599.5-1820.4,4599.5-1825.6z"/>
		</g>
		<g>
			<path id="DecimaMonoPro-65_3_" d="M4658.2-1844.8c0-2.9-1.7-6.1-5-9.5c-3.4-3.4-7.9-5-13.5-5c-6,0-10.8,1.8-14.5,5.5
				c-3.6,3.6-5.5,8-5.5,13v15.2c0,5,1.8,9.3,5.5,12.9c3.6,3.6,8.5,5.4,14.5,5.4s10.8-1.8,14.3-5.4c3.5-3.6,5.3-7.9,5.3-12.9v-7.9
				c0-0.7-0.2-1.2-0.7-1.7c-0.4-0.4-1-0.6-1.6-0.6h-29v-5.5c0-3,1.1-5.6,3.3-7.7c2.2-2.1,5-3.2,8.5-3.2c5.5,0,9,2.5,10.4,7.5
				c0.3,1.1,0.9,1.7,1.8,1.7h4.6c0.5,0,1-0.2,1.3-0.5C4658-1843.9,4658.2-1844.3,4658.2-1844.8z M4627.8-1825.3v-3.3h23.4v3.3
				c0,3-1.1,5.5-3.2,7.6c-2.1,2.1-4.9,3.2-8.4,3.2s-6.4-1.1-8.5-3.2C4628.9-1819.7,4627.8-1822.3,4627.8-1825.3z"/>
		</g>
		<g>
			<path id="DecimaMonoPro-69_4_" d="M4682.4-1808.3h21.4c0.5,0,1-0.2,1.3-0.5c0.3-0.3,0.5-0.8,0.5-1.3v-41h13.5
				c0.5,0,0.9-0.2,1.3-0.5c0.4-0.3,0.5-0.8,0.5-1.3v-3.6c0-0.5-0.2-1-0.5-1.3c-0.4-0.3-0.8-0.5-1.3-0.5h-37.2
				c-0.5,0-0.9,0.2-1.3,0.5c-0.4,0.3-0.5,0.8-0.5,1.3v3.6c0,0.5,0.2,1,0.5,1.3c0.4,0.3,0.8,0.5,1.3,0.5h15.7v35.6h-15.2
				c-0.5,0-1,0.2-1.3,0.5c-0.3,0.3-0.5,0.8-0.5,1.3v3.6c0,0.5,0.2,1,0.5,1.3C4681.4-1808.4,4681.9-1808.3,4682.4-1808.3z
				 M4705.8-1792v-4.3c0-0.7-0.2-1.2-0.7-1.7c-0.4-0.4-1-0.6-1.7-0.6h-4.6c-0.7,0-1.2,0.2-1.7,0.6c-0.4,0.4-0.6,1-0.6,1.7v4.3
				c0,0.7,0.2,1.2,0.6,1.6c0.4,0.4,1,0.7,1.7,0.7h4.6c0.7,0,1.2-0.2,1.7-0.7C4705.6-1790.8,4705.8-1791.3,4705.8-1792z"/>
		</g>
		<g>
			<path id="DecimaMonoPro-67" d="M4769.3-1858.8h-20.7c-1.7,0-3.1-0.5-4.3-1.6c-1.2-1.1-1.8-2.4-1.8-4c0-1.5,0.6-2.8,1.8-3.9
				c1.2-1.1,2.6-1.6,4.3-1.6h20.6c1.7,0,3.1,0.6,4.3,1.7c1.2,1.1,1.8,2.4,1.8,3.9s-0.6,2.8-1.7,3.9
				C4772.4-1859.3,4771-1858.8,4769.3-1858.8z M4766.2-1829.1v6.7c0,2.3-0.8,4.3-2.5,5.8c-1.7,1.5-3.7,2.3-6,2.3
				c-2.5,0-4.6-0.8-6.3-2.3c-1.7-1.5-2.5-3.5-2.5-5.8v-6.7c0-2.3,0.8-4.2,2.5-5.8c1.7-1.6,3.8-2.3,6.3-2.3c2.3,0,4.3,0.8,6,2.3
				C4765.3-1833.3,4766.2-1831.3,4766.2-1829.1z M4776.9-1809.7c-2.1,0-3.4-0.4-4-1.3l-2.1-2.9c2.1-2.3,3.1-5.1,3.1-8.5v-6.6
				c0-4-1.7-7.6-5-10.7c-3.3-3.1-7.1-4.6-11.3-4.6v-8h12.7c3.4,0,6.3-1.2,8.6-3.5c2.4-2.3,3.6-5.2,3.6-8.6c0-3.5-1.2-6.3-3.6-8.5
				c-2.4-2.2-5.3-3.4-8.7-3.4h-22.9c-3.5,0-6.4,1.1-8.7,3.4c-2.3,2.2-3.5,5.1-3.5,8.5c0,3.5,1.2,6.4,3.5,8.7
				c2.3,2.3,5.2,3.4,8.7,3.4h2.6v10c-1.9,0.7-3.9,2.2-5.8,4.5c-1.9,2.3-2.9,5.2-2.9,8.8v6.6c0,4.1,1.6,7.7,4.8,10.6
				c3.2,3,7.1,4.5,11.5,4.5c2.9,0,5.5-0.7,7.8-2l2.7,3.4c1.1,1.3,2.2,2.2,3.3,2.7c1.1,0.5,2.9,0.7,5.4,0.7c0.5,0,0.9-0.2,1.3-0.5
				c0.4-0.3,0.5-0.8,0.5-1.3v-3.6c0-0.5-0.2-1-0.5-1.3C4777.8-1809.5,4777.4-1809.7,4776.9-1809.7z"/>
		</g>
		<g>
			<path id="DecimaMonoPro-68_2_" d="M4839.5-1825.6v-30.9c0-1.2-0.8-1.8-2.3-1.8h-3.4c-1.5,0-2.3,0.6-2.3,1.8v31.2
				c0,3.1-1,5.6-3,7.7c-2,2.1-4.7,3.1-8,3.1c-3.2,0-6-1.1-8.5-3.3s-3.8-4.5-3.8-7v-31.7c0-1.2-0.8-1.8-2.3-1.8h-3.4
				c-1.5,0-2.3,0.6-2.3,1.8v66.4c0,1.2,0.8,1.8,2.3,1.8h3.5c1.5,0,2.2-0.6,2.2-1.8v-22.6c0.3,0.4,0.8,0.9,1.5,1.5
				c0.7,0.6,2.2,1.4,4.4,2.4c2.3,1,4.7,1.5,7.2,1.5c5.5,0,9.9-1.8,13.2-5.3C4837.8-1816,4839.5-1820.4,4839.5-1825.6z"/>
		</g>
		<g>
			<path id="DecimaMonoPro-74_9_" d="M4874.2-1797v-11.3h23.6c0.5,0,1-0.2,1.3-0.5c0.3-0.3,0.5-0.8,0.5-1.3v-3.6
				c0-0.5-0.2-1-0.5-1.3c-0.3-0.3-0.8-0.5-1.3-0.5h-23.6v-26.9c0-2.7,0.9-5,2.6-6.9c1.7-1.9,4.2-2.8,7.4-2.8c2.8,0,5,0.8,6.6,2.4
				c1.6,1.6,2.5,3.4,2.8,5.4c0.1,1.1,0.7,1.7,1.7,1.7h4.5c0.5,0,1-0.2,1.3-0.6c0.3-0.4,0.5-0.8,0.5-1.2c0-1.5-0.3-3.1-0.9-4.7
				c-0.6-1.6-1.5-3.1-2.8-4.8c-1.2-1.6-3.1-2.9-5.5-4c-2.4-1-5.2-1.5-8.5-1.5c-5.9,0-10.4,1.5-13.4,4.6c-3,3.1-4.5,6.9-4.5,11.5
				v27.7h-7.4c-0.5,0-0.9,0.2-1.3,0.5c-0.4,0.3-0.5,0.8-0.5,1.3v3.6c0,0.5,0.2,1,0.5,1.3c0.4,0.3,0.8,0.5,1.3,0.5h7.4v11.3
				c0,1.2,0.8,1.8,2.3,1.8h3.6C4873.5-1795.2,4874.2-1795.8,4874.2-1797z"/>
		</g>
		<g>
			<path id="DecimaMonoPro-20_56_" d="M4909.4-1858.3"/>
		</g>
		<g>
			<path id="DecimaMonoPro-33_2_" d="M5015.6-1797.2l-10.8-14c3.6-0.5,6.8-2.2,9.5-5.1c2.7-3,4.1-6.5,4.1-10.5v-14
				c0-5.1-1.8-9.5-5.5-13.1c-3.7-3.6-8.2-5.4-13.5-5.4c-5.5,0-10,1.8-13.7,5.3c-3.6,3.6-5.4,7.9-5.4,13.1c0,0.5,0.2,1,0.6,1.4
				c0.4,0.4,1,0.6,1.7,0.6h3.8c1.4,0,2.2-0.7,2.3-2c0-2.9,1-5.4,3.1-7.5c2.1-2,4.6-3,7.6-3c2.9,0,5.4,1,7.5,3s3.1,4.5,3.1,7.5v14
				c0,2.1-0.8,4-2.3,5.5c-1.5,1.6-3.4,2.4-5.6,2.4h-5.3c-1.5,0-2.2,0.8-2.2,2.3v3.4c0,1.1,0.4,2.2,1.1,3.2l10.3,13.9h-19.7
				c-1.5,0-2.2,0.8-2.2,2.3v3.3c0,1.5,0.7,2.3,2.2,2.3h28.2c1.5,0,2.2-0.8,2.2-2.3v-3.4C5016.7-1795.1,5016.3-1796.2,5015.6-1797.2z
				"/>
		</g>
		<g>
			<path id="DecimaMonoPro-2e_15_" d="M5064.5-1850.8v-4.9c0-1.7-0.9-2.6-2.6-2.6h-5c-1.7,0-2.6,0.9-2.6,2.6v4.9
				c0,1.7,0.9,2.6,2.6,2.6h5C5063.6-1848.2,5064.5-1849.1,5064.5-1850.8z"/>
		</g>
		<g>
			<path id="DecimaMonoPro-20_57_" d="M5089.4-1858.3"/>
		</g>
	</g>
</g>
</svg>
