<?xml version="1.0" encoding="utf-8"?>
<!-- Generator: Adobe Illustrator 22.0.0, SVG Export Plug-In . SVG Version: 6.00 Build 0)  -->
<svg version="1.1" id="Layer_1" xmlns="http://www.w3.org/2000/svg" xmlns:xlink="http://www.w3.org/1999/xlink" x="0px" y="0px"
	 viewBox="0 0 360 576" style="enable-background:new 0 0 360 576;" xml:space="preserve">
<style type="text/css">
	.st0{fill:#FFFFFF;}
	.st1{fill:#303030;}
	.st2{opacity:0.75;}
	.st3{clip-path:url(#SVGID_2_);fill:none;stroke:#008FD5;stroke-width:4;stroke-linejoin:round;}
	.st4{clip-path:url(#SVGID_4_);fill:none;stroke:#FC4F30;stroke-width:4;stroke-linejoin:round;}
	.st5{clip-path:url(#SVGID_6_);fill:none;stroke:#E5AE38;stroke-width:4;stroke-linejoin:round;}
	
		.st6{opacity:0.7;clip-path:url(#SVGID_8_);fill:none;stroke:#000000;stroke-width:1.3;stroke-linejoin:round;enable-background:new    ;}
	.st7{fill:none;stroke:#F0F0F0;stroke-width:3;stroke-linecap:square;}
	.st8{opacity:0.8;fill:#F0F0F0;stroke:#CCCCCC;stroke-width:0.5;enable-background:new    ;}
	.st9{fill:none;stroke:#008FD5;stroke-width:4;stroke-linejoin:round;}
	.st10{fill:none;stroke:#FC4F30;stroke-width:4;stroke-linejoin:round;}
	.st11{fill:none;stroke:#E5AE38;stroke-width:4;stroke-linejoin:round;}
</style>
<g id="patch_2">
	<path class="st0" d="M36,501.1h306V115.2H36V501.1z"/>
</g>
<g id="matplotlib.axis_1">
	<g id="xtick_1">
		<g id="line2d_1">
		</g>
		<g id="text_1">
			<g transform="translate(39.109091 513.03125)scale(0.12 -0.12)">
				<g>
					<path id="DecimaMonoPro-30" class="st1" d="M48.2,52.6V17.4c0-5.1-1.8-9.5-5.3-13.1C39.5,0.8,35.1-1,29.9-1
						c-5.2,0-9.5,1.8-13,5.4c-3.4,3.6-5.1,8-5.1,13.1v35.1c0,5.1,1.7,9.5,5.1,13c3.4,3.6,7.8,5.4,13,5.4c5.2,0,9.6-1.8,13.1-5.4
						C46.5,62.1,48.2,57.7,48.2,52.6z M39.9,17.3v35.2c0,2.9-1,5.4-2.9,7.5s-4.3,3.1-7.1,3.1c-2.7,0-5.1-1-7-3.1
						C21,57.9,20,55.4,20,52.5V17.4c0-2.9,1-5.4,2.9-7.5c1.9-2,4.3-3,7.1-3c2.7,0,5.1,1,7,3S39.9,14.4,39.9,17.3z"/>
				</g>
				<g>
					<path id="DecimaMonoPro-2e" class="st1" d="M95.1,7.5V2.6c0-1.7-0.9-2.6-2.6-2.6h-5c-1.7,0-2.6,0.9-2.6,2.6v4.9
						c0,1.7,0.9,2.6,2.6,2.6h5C94.2,10.1,95.1,9.2,95.1,7.5z"/>
				</g>
				<g>
					<path id="DecimaMonoPro-30_1_" class="st1" d="M168.2,52.6V17.4c0-5.1-1.8-9.5-5.3-13.1c-3.5-3.6-7.9-5.3-13.1-5.3
						c-5.2,0-9.5,1.8-13,5.4c-3.4,3.6-5.1,8-5.1,13.1v35.1c0,5.1,1.7,9.5,5.1,13c3.4,3.6,7.8,5.4,13,5.4c5.2,0,9.6-1.8,13.1-5.4
						C166.5,62.1,168.2,57.7,168.2,52.6z M159.9,17.3v35.2c0,2.9-1,5.4-2.9,7.5s-4.3,3.1-7.1,3.1c-2.7,0-5.1-1-7-3.1
						c-1.9-2.1-2.9-4.6-2.9-7.5V17.4c0-2.9,1-5.4,2.9-7.5c1.9-2,4.3-3,7.1-3c2.7,0,5.1,1,7,3S159.9,14.4,159.9,17.3z"/>
				</g>
			</g>
		</g>
	</g>
	<g id="xtick_2">
		<g id="line2d_2">
		</g>
		<g id="text_2">
			<g transform="translate(94.745455 513.03125)scale(0.12 -0.12)">
				<g>
					<path id="DecimaMonoPro-30_2_" class="st1" d="M48.2,52.6V17.4c0-5.1-1.8-9.5-5.3-13.1C39.5,0.8,35.1-1,29.9-1
						c-5.2,0-9.5,1.8-13,5.4c-3.4,3.6-5.1,8-5.1,13.1v35.1c0,5.1,1.7,9.5,5.1,13c3.4,3.6,7.8,5.4,13,5.4c5.2,0,9.6-1.8,13.1-5.4
						C46.5,62.1,48.2,57.7,48.2,52.6z M39.9,17.3v35.2c0,2.9-1,5.4-2.9,7.5s-4.3,3.1-7.1,3.1c-2.7,0-5.1-1-7-3.1
						C21,57.9,20,55.4,20,52.5V17.4c0-2.9,1-5.4,2.9-7.5c1.9-2,4.3-3,7.1-3c2.7,0,5.1,1,7,3S39.9,14.4,39.9,17.3z"/>
				</g>
				<g>
					<path id="DecimaMonoPro-2e_1_" class="st1" d="M95.1,7.5V2.6c0-1.7-0.9-2.6-2.6-2.6h-5c-1.7,0-2.6,0.9-2.6,2.6v4.9
						c0,1.7,0.9,2.6,2.6,2.6h5C94.2,10.1,95.1,9.2,95.1,7.5z"/>
				</g>
				<g>
					<path id="DecimaMonoPro-32" class="st1" d="M131.7,53c0,4.5,1.8,8.6,5.5,12.3c3.7,3.8,8.1,5.7,13.4,5.7c5.2,0,9.6-1.8,13.2-5.3
						c3.6-3.5,5.4-7.8,5.4-13c0-3.9-1-7.5-3.1-11c-2.1-3.4-4.6-6.4-7.5-8.9c-2.9-2.5-5.9-5-8.8-7.4c-2.9-2.4-5.4-5.1-7.5-8.1
						c-2.1-3-3.1-6.2-3.1-9.5h28.2c0.5,0,1-0.2,1.3-0.5c0.3-0.3,0.5-0.8,0.5-1.3V1.8c0-0.5-0.2-1-0.5-1.3c-0.3-0.3-0.8-0.5-1.3-0.5
						h-34.8c-0.5,0-1,0.2-1.3,0.5c-0.3,0.3-0.5,0.8-0.5,1.3v5.5c0,4.4,1,8.5,3.1,12.2c2.1,3.7,4.6,6.8,7.5,9.4
						c2.9,2.6,5.9,5.1,8.8,7.5c2.9,2.4,5.4,5,7.5,7.9c2.1,2.9,3.1,5.9,3.1,9c0,2.7-1,5.1-3,7s-4.4,2.8-7.3,2.8
						c-2.9,0-5.4-1.1-7.3-3.4c-1.9-2.3-3-4.5-3.1-6.7c-0.1-1.3-0.9-2-2.3-2H134c-0.7,0-1.3,0.2-1.7,0.6
						C131.9,52,131.7,52.5,131.7,53z"/>
				</g>
			</g>
		</g>
	</g>
	<g id="xtick_3">
		<g id="line2d_3">
		</g>
		<g id="text_3">
			<g transform="translate(150.381818 513.03125)scale(0.12 -0.12)">
				<g>
					<path id="DecimaMonoPro-30_3_" class="st1" d="M48.2,52.6V17.4c0-5.1-1.8-9.5-5.3-13.1C39.5,0.8,35.1-1,29.9-1
						c-5.2,0-9.5,1.8-13,5.4c-3.4,3.6-5.1,8-5.1,13.1v35.1c0,5.1,1.7,9.5,5.1,13c3.4,3.6,7.8,5.4,13,5.4c5.2,0,9.6-1.8,13.1-5.4
						C46.5,62.1,48.2,57.7,48.2,52.6z M39.9,17.3v35.2c0,2.9-1,5.4-2.9,7.5s-4.3,3.1-7.1,3.1c-2.7,0-5.1-1-7-3.1
						C21,57.9,20,55.4,20,52.5V17.4c0-2.9,1-5.4,2.9-7.5c1.9-2,4.3-3,7.1-3c2.7,0,5.1,1,7,3S39.9,14.4,39.9,17.3z"/>
				</g>
				<g>
					<path id="DecimaMonoPro-2e_2_" class="st1" d="M95.1,7.5V2.6c0-1.7-0.9-2.6-2.6-2.6h-5c-1.7,0-2.6,0.9-2.6,2.6v4.9
						c0,1.7,0.9,2.6,2.6,2.6h5C94.2,10.1,95.1,9.2,95.1,7.5z"/>
				</g>
				<g>
					<path id="DecimaMonoPro-34" class="st1" d="M160.1,67.5l-20.6-44.6h16.3v16c0,0.5,0.2,1,0.6,1.4c0.4,0.4,1,0.6,1.7,0.6h4.1
						c0.5,0,1-0.2,1.4-0.7c0.4-0.4,0.6-0.9,0.6-1.3v-16h3.8c0.5,0,1-0.2,1.4-0.6c0.4-0.4,0.6-1,0.6-1.7v-3.2c0-0.7-0.2-1.3-0.6-1.7
						c-0.4-0.4-0.9-0.6-1.4-0.6h-3.8V2c0-0.5-0.2-1-0.6-1.4c-0.4-0.4-0.9-0.6-1.4-0.6h-4.1c-0.7,0-1.3,0.2-1.7,0.6
						C156,1,155.8,1.5,155.8,2v13.1h-23.7c-1.5,0-2.2,0.8-2.2,2.3v3.9c0,0.8,0.4,1.9,1.1,3.4L151.3,68c0.7,1.3,1.6,2,2.7,2h4.8
						c1.1,0,1.7-0.4,1.7-1.2C160.5,68.6,160.4,68.2,160.1,67.5z"/>
				</g>
			</g>
		</g>
	</g>
	<g id="xtick_4">
		<g id="line2d_4">
		</g>
		<g id="text_4">
			<g transform="translate(206.018182 513.03125)scale(0.12 -0.12)">
				<g>
					<path id="DecimaMonoPro-30_4_" class="st1" d="M48.2,52.6V17.4c0-5.1-1.8-9.5-5.3-13.1C39.5,0.8,35.1-1,29.9-1
						c-5.2,0-9.5,1.8-13,5.4c-3.4,3.6-5.1,8-5.1,13.1v35.1c0,5.1,1.7,9.5,5.1,13c3.4,3.6,7.8,5.4,13,5.4c5.2,0,9.6-1.8,13.1-5.4
						C46.5,62.1,48.2,57.7,48.2,52.6z M39.9,17.3v35.2c0,2.9-1,5.4-2.9,7.5s-4.3,3.1-7.1,3.1c-2.7,0-5.1-1-7-3.1
						C21,57.9,20,55.4,20,52.5V17.4c0-2.9,1-5.4,2.9-7.5c1.9-2,4.3-3,7.1-3c2.7,0,5.1,1,7,3S39.9,14.4,39.9,17.3z"/>
				</g>
				<g>
					<path id="DecimaMonoPro-2e_3_" class="st1" d="M95.1,7.5V2.6c0-1.7-0.9-2.6-2.6-2.6h-5c-1.7,0-2.6,0.9-2.6,2.6v4.9
						c0,1.7,0.9,2.6,2.6,2.6h5C94.2,10.1,95.1,9.2,95.1,7.5z"/>
				</g>
				<g>
					<path id="DecimaMonoPro-36" class="st1" d="M131,60.2c7.1,7.2,13.2,10.8,18.5,10.8s9.7-1.7,13.2-5c3.5-3.4,5.3-7.2,5.3-11.5
						c0-0.5-0.2-1-0.6-1.4c-0.4-0.4-1-0.6-1.7-0.6h-3.8c-1.4,0-2.2,0.7-2.3,2c-0.1,2.1-1.1,4.1-2.9,5.9c-1.8,1.8-4.1,2.7-7.1,2.7
						c-2.9,0-5.3-1-7.3-3.1c-2-2.1-3-4.6-3-7.5v-9.6c0.3,0.3,0.7,0.8,1.3,1.3c0.6,0.5,1.9,1.2,4,2s4.2,1.2,6.5,1.2
						c4.9,0,9.2-1.7,12.7-5.2s5.3-7.8,5.3-13.1V17.5c0-5.1-1.8-9.5-5.5-13.1C159.9,0.8,155.4-1,150-1s-9.9,1.8-13.5,5.3
						c-3.6,3.6-5.5,7.9-5.5,13.1v35.1c0,5.1,3.5,11.3,10.6,18.5L131,60.2z M150,39.3c-3.1,0-5.6-1-7.7-2.9c-2-1.9-3-4.5-3-7.6V17.3
						c0-2.9,1-5.4,3.1-7.4c2.1-2,4.6-3,7.6-3c2.9,0,5.4,1,7.5,3s3.1,4.5,3.1,7.5v11.4c0,3.1-1,5.6-3,7.5
						C155.5,38.3,153,39.3,150,39.3z"/>
				</g>
			</g>
		</g>
	</g>
	<g id="xtick_5">
		<g id="line2d_5">
		</g>
		<g id="text_5">
			<g transform="translate(261.654545 513.03125)scale(0.12 -0.12)">
				<g>
					<path id="DecimaMonoPro-30_5_" class="st1" d="M48.2,52.6V17.4c0-5.1-1.8-9.5-5.3-13.1C39.5,0.8,35.1-1,29.9-1
						c-5.2,0-9.5,1.8-13,5.4c-3.4,3.6-5.1,8-5.1,13.1v35.1c0,5.1,1.7,9.5,5.1,13c3.4,3.6,7.8,5.4,13,5.4c5.2,0,9.6-1.8,13.1-5.4
						C46.5,62.1,48.2,57.7,48.2,52.6z M39.9,17.3v35.2c0,2.9-1,5.4-2.9,7.5s-4.3,3.1-7.1,3.1c-2.7,0-5.1-1-7-3.1
						C21,57.9,20,55.4,20,52.5V17.4c0-2.9,1-5.4,2.9-7.5c1.9-2,4.3-3,7.1-3c2.7,0,5.1,1,7,3S39.9,14.4,39.9,17.3z"/>
				</g>
				<g>
					<path id="DecimaMonoPro-2e_4_" class="st1" d="M95.1,7.5V2.6c0-1.7-0.9-2.6-2.6-2.6h-5c-1.7,0-2.6,0.9-2.6,2.6v4.9
						c0,1.7,0.9,2.6,2.6,2.6h5C94.2,10.1,95.1,9.2,95.1,7.5z"/>
				</g>
				<g>
					<path id="DecimaMonoPro-38" class="st1" d="M168.1,53.5v-3.7c0-5.5-2.1-10-6.3-13.4c4.8-3.7,7.2-8.6,7.2-14.7v-4.3
						c0-5.1-1.8-9.5-5.4-13.1c-3.6-3.6-7.9-5.3-13.1-5.3h-0.9c-5.2,0-9.6,1.8-13.2,5.4c-3.6,3.6-5.4,8-5.4,13.1v4.2
						c0,6,2.4,10.9,7.3,14.7c-4.3,3.3-6.5,7.8-6.5,13.5v3.6c0,4.9,1.7,9,5.1,12.4c3.4,3.4,7.6,5.1,12.6,5.1h0.9
						c4.9,0,9.1-1.7,12.5-5.1C166.4,62.5,168.1,58.4,168.1,53.5z M160.6,17.3v4.3c0,2.9-1,5.4-3.1,7.5c-2.1,2.1-4.6,3.1-7.5,3.1
						s-5.4-1-7.5-3.1c-2.1-2.1-3.1-4.6-3.1-7.5v-4.2c0-2.9,1-5.4,3.1-7.5c2.1-2,4.7-3,7.7-3c2.9,0,5.3,1,7.3,3
						S160.6,14.4,160.6,17.3z M159.7,49.7v3.4c0,2.8-1,5.2-2.9,7.1c-1.9,1.9-4.2,2.9-7,2.9c-2.7,0-4.9-1-6.8-2.9
						c-1.9-1.9-2.8-4.3-2.8-7.1v-3.3c0-2.6,0.9-4.9,2.6-6.8c1.8-1.9,4-2.9,6.8-2.9h0.9c2.5,0,4.7,0.9,6.5,2.8S159.7,47,159.7,49.7z"
						/>
				</g>
			</g>
		</g>
	</g>
	<g id="xtick_6">
		<g id="line2d_6">
		</g>
		<g id="text_6">
			<g transform="translate(317.290909 513.03125)scale(0.12 -0.12)">
				<g>
					<path id="DecimaMonoPro-31" class="st1" d="M13.9,68.2L25.2,70h7.1c0.5,0,0.9-0.2,1.3-0.5s0.5-0.8,0.5-1.3V7.7h13.2
						c0.5,0,0.9-0.2,1.3-0.6c0.4-0.4,0.5-0.8,0.5-1.2V1.8c0-0.5-0.2-1-0.5-1.3S47.8,0,47.3,0H12.6c-0.5,0-1,0.2-1.3,0.5
						s-0.5,0.8-0.5,1.3v4.1c0,0.5,0.2,0.9,0.5,1.2c0.3,0.4,0.8,0.6,1.3,0.6h13.1v54.4l-11-1.7h-0.3c-0.3-0.1-0.6-0.1-0.9-0.1
						c-0.9,0-1.4,0.6-1.4,1.8v4.2C12.1,67.3,12.7,67.9,13.9,68.2z"/>
				</g>
				<g>
					<path id="DecimaMonoPro-2e_5_" class="st1" d="M95.1,7.5V2.6c0-1.7-0.9-2.6-2.6-2.6h-5c-1.7,0-2.6,0.9-2.6,2.6v4.9
						c0,1.7,0.9,2.6,2.6,2.6h5C94.2,10.1,95.1,9.2,95.1,7.5z"/>
				</g>
				<g>
					<path id="DecimaMonoPro-30_6_" class="st1" d="M168.2,52.6V17.4c0-5.1-1.8-9.5-5.3-13.1c-3.5-3.6-7.9-5.3-13.1-5.3
						c-5.2,0-9.5,1.8-13,5.4c-3.4,3.6-5.1,8-5.1,13.1v35.1c0,5.1,1.7,9.5,5.1,13c3.4,3.6,7.8,5.4,13,5.4c5.2,0,9.6-1.8,13.1-5.4
						C166.5,62.1,168.2,57.7,168.2,52.6z M159.9,17.3v35.2c0,2.9-1,5.4-2.9,7.5s-4.3,3.1-7.1,3.1c-2.7,0-5.1-1-7-3.1
						c-1.9-2.1-2.9-4.6-2.9-7.5V17.4c0-2.9,1-5.4,2.9-7.5c1.9-2,4.3-3,7.1-3c2.7,0,5.1,1,7,3S159.9,14.4,159.9,17.3z"/>
				</g>
			</g>
		</g>
	</g>
	<g id="text_7">
		<g transform="translate(149.313281 529.102813)scale(0.14 -0.14)" class="st2">
			<g>
				<path id="Apercu-53" d="M44,59.6L36.9,55c-1.6,2.9-3.3,4.8-5,5.8c-1.7,1-3.8,1.6-6.1,1.6c-2.4,0-4.4-0.9-6-2.6
					c-1.6-1.7-2.4-3.8-2.4-6.1c0-1.7,0.3-3.1,0.9-4.4c0.6-1.3,1.7-2.5,3.3-3.6c1.6-1.2,2.9-2.1,4-2.7s2.9-1.5,5.4-2.8
					c2-1,3.6-1.9,4.8-2.6c1.2-0.7,2.7-1.7,4.3-3c1.7-1.3,3-2.5,4-3.8c1-1.3,1.8-2.8,2.5-4.7s1-3.9,1-6.1c0-5.6-1.8-10.4-5.4-14.3
					c-4-4.4-9.2-6.6-15.6-6.6C20.9-0.8,16,1,11.9,4.5C7.8,8,5.2,12.6,4,18.1l7.6,4.6c1.3-4.7,3.1-8.4,5.4-11.1s5.5-4,9.6-4
					c4.1,0,7.2,1.3,9.5,4c1.8,2.2,2.7,5,2.7,8.3c0,3.1-1.2,5.6-3.5,7.6c-2.3,2-5.5,4-9.7,6c-2.7,1.3-4.9,2.4-6.6,3.4
					s-3.4,2.3-5.2,3.8s-3.1,3.3-4,5.3S8.6,50.4,8.6,53c0,5.1,1.7,9.3,5.1,12.7c3.4,3.4,7.4,5.1,12.1,5.1s8.4-1,11.2-2.9
					C39.8,66,42.1,63.2,44,59.6z"/>
			</g>
			<g>
				<path id="Apercu-68" d="M102.2,35V0h-8.4v33.3c0,6.9-2.9,10.3-8.7,10.3c-3.9,0-7.4-2.1-10.5-6.2c-3.1-4.1-4.7-9.4-4.7-16V0h-8.4
					v70.8h8.4V41c1.6,3.1,4,5.6,7,7.5c3.1,1.8,6.6,2.8,10.5,2.8c4.7,0,8.3-1.4,10.9-4.2C100.9,44.3,102.2,40.3,102.2,35z"/>
			</g>
			<g>
				<path id="Apercu-75" d="M119.4,14.9v35.5h8.4V17.1c0-6.9,2.9-10.3,8.7-10.3c3.9,0,7.3,2.1,10.1,6.2s4.3,9.6,4.3,16.3v21.1h8.4V0
					h-8.4v9.3c-3.8-6.7-9.4-10.1-16.7-10.1c-4.6,0-8.2,1.4-10.9,4.1C120.7,6,119.4,9.9,119.4,14.9z"/>
			</g>
			<g>
				<path id="Apercu-66" d="M173.2,42.8v7.6h7.2v3.3c0,5.7,1.4,9.9,4.3,12.8c2.8,2.9,6.8,4.3,12,4.3c2.9,0,5.3-0.5,7.2-1.6l-1.7-7.4
					c-1.9,0.9-3.7,1.4-5.6,1.4c-2.7,0-4.7-0.8-6-2.3c-1.2-1.5-1.8-3.9-1.8-7.2v-3.3h11.6v-7.6h-11.6V0h-8.4v42.8H173.2z"/>
			</g>
			<g>
				<path id="Apercu-66_1_" d="M209.6,42.8v7.6h7.2v3.3c0,5.7,1.4,9.9,4.3,12.8c2.8,2.9,6.8,4.3,12,4.3c2.9,0,5.3-0.5,7.2-1.6
					l-1.7-7.4c-1.9,0.9-3.7,1.4-5.6,1.4c-2.7,0-4.7-0.8-6-2.3c-1.2-1.5-1.8-3.9-1.8-7.2v-3.3h11.6v-7.6h-11.6V0h-8.4v42.8H209.6z"/>
			</g>
			<g>
				<path id="Apercu-6c" d="M250.3,70.8h8.4V0h-8.4V70.8z"/>
			</g>
			<g>
				<path id="Apercu-65" d="M318.1,27.3v-3.9h-37c0.3-4.9,1.6-8.9,4-12c2.4-3.1,5.8-4.6,10.2-4.6c3.5,0,6.4,0.8,8.5,2.3
					c2.2,1.6,4,4,5.5,7.3l7.4-3.2c-2.3-4.9-5.2-8.5-8.5-10.7s-7.6-3.3-12.8-3.3c-7.3,0-12.9,2.5-16.9,7.5c-4,5-5.9,11.2-5.9,18.4
					c0,7.3,2,13.4,5.9,18.5c4,5,9.6,7.6,16.9,7.6c7.1,0,12.7-2.3,16.8-7S318.1,34,318.1,27.3z M295.3,43.6c-3.7,0-6.8-1.1-9.1-3.4
					c-2.3-2.3-3.8-5.3-4.6-9.2h27.7c-0.8,3.8-2.4,6.8-4.7,9.1C302.2,42.4,299.1,43.6,295.3,43.6z"/>
			</g>
			<g>
				<path id="Apercu-20" d="M323.1,0"/>
			</g>
			<g>
				<path id="Apercu-72" d="M389.2,49.7l-1.7-7.5c-1.9,0.9-3.8,1.4-5.9,1.4c-3.8,0-7.1-2.2-9.9-6.5c-2.8-4.3-4.2-10.3-4.2-18V0h-8.4
					v50.4h8.4v-8.6c1.5,2.8,3.6,5.1,6.4,6.8c2.8,1.7,5.6,2.6,8.4,2.6C385,51.2,387.3,50.7,389.2,49.7z"/>
			</g>
			<g>
				<path id="Apercu-61" d="M405.4,14.5c0-2.4,0.7-4.3,2.1-5.7c1.4-1.4,3.5-2,6.2-2c3.8,0,7.1,1.3,9.9,3.8c2.8,2.5,4.2,6.4,4.2,11.7
					v1.2h-9c-4.3,0-7.6-0.8-9.9-2.3C406.5,19.6,405.4,17.4,405.4,14.5z M436.2,32.2V0h-6.6l-1.4,7.1c-3.7-5.3-8.9-7.9-15.8-7.9
					c-4.5,0-8.3,1.3-11.2,3.8s-4.4,6.4-4.4,11.5c0,5.3,2,9.4,6.1,12.2c4.1,2.8,9.6,4.3,16.7,4.3h8.2v2.2c0,6.9-3.7,10.4-11,10.4
					c-2.7,0-4.9-0.7-6.8-2.1s-3.1-3.3-3.7-5.8l-7.4,1.7c0.7,4.3,2.6,7.6,5.9,10.1c3.3,2.5,7.3,3.7,12,3.7c5.9,0,10.6-1.6,14.1-4.7
					S436.2,38.6,436.2,32.2z"/>
			</g>
			<g>
				<path id="Apercu-74" d="M445.5,42.8v7.6h8.7v15.1l8.4,5.3V50.4h13.2v-7.6h-13.2V15.1c0-2.7,0.6-4.7,1.8-6.2
					c1.2-1.4,2.8-2.1,5-2.1c2.2,0,4.1,0.5,5.7,1.6l2-7.3c-2.2-1.3-4.9-1.9-8.2-1.9c-4.5,0-8,1.4-10.7,4.2c-2.6,2.8-3.9,6.9-3.9,12.4
					v27H445.5z"/>
			</g>
			<g>
				<path id="Apercu-69" d="M490,50.4h8.4V0H490V50.4z M488,64.4c0,1.8,0.6,3.3,1.8,4.5c1.2,1.2,2.7,1.9,4.5,1.9s3.3-0.6,4.5-1.9
					c1.2-1.2,1.8-2.7,1.8-4.5c0-1.7-0.6-3.2-1.8-4.4s-2.7-1.8-4.5-1.8s-3.3,0.6-4.5,1.8S488,62.7,488,64.4z"/>
			</g>
			<g>
				<path id="Apercu-6f" d="M519.8,6.8c-4.4,5.1-6.6,11.3-6.6,18.4s2.2,13.3,6.6,18.3c4.4,5.1,10.3,7.7,17.5,7.7
					c7.3,0,13.1-2.6,17.5-7.7c4.4-5.1,6.7-11.2,6.7-18.3s-2.2-13.3-6.7-18.4c-4.4-5.1-10.3-7.6-17.5-7.6
					C530.1-0.8,524.2,1.7,519.8,6.8z M525.8,38.1c-2.7-3.6-4.1-7.9-4.1-12.9s1.4-9.3,4.1-13c2.8-3.6,6.6-5.5,11.5-5.5
					c4.9,0,8.7,1.8,11.5,5.5c2.8,3.6,4.2,8,4.2,13s-1.4,9.3-4.2,12.9c-2.8,3.6-6.6,5.5-11.5,5.5C532.5,43.6,528.6,41.8,525.8,38.1z"
					/>
			</g>
		</g>
	</g>
</g>
<g id="matplotlib.axis_2">
	<g id="ytick_1">
		<g id="line2d_7">
		</g>
		<g id="text_8">
			<g transform="translate(10.9 487.783807)scale(0.12 -0.12)">
				<g>
					<path id="DecimaMonoPro-30_7_" class="st1" d="M48.2,52.6V17.4c0-5.1-1.8-9.5-5.3-13.1C39.5,0.8,35.1-1,29.9-1
						c-5.2,0-9.5,1.8-13,5.4c-3.4,3.6-5.1,8-5.1,13.1v35.1c0,5.1,1.7,9.5,5.1,13c3.4,3.6,7.8,5.4,13,5.4c5.2,0,9.6-1.8,13.1-5.4
						C46.5,62.1,48.2,57.7,48.2,52.6z M39.9,17.3v35.2c0,2.9-1,5.4-2.9,7.5s-4.3,3.1-7.1,3.1c-2.7,0-5.1-1-7-3.1
						C21,57.9,20,55.4,20,52.5V17.4c0-2.9,1-5.4,2.9-7.5c1.9-2,4.3-3,7.1-3c2.7,0,5.1,1,7,3S39.9,14.4,39.9,17.3z"/>
				</g>
				<g>
					<path id="DecimaMonoPro-2e_6_" class="st1" d="M95.1,7.5V2.6c0-1.7-0.9-2.6-2.6-2.6h-5c-1.7,0-2.6,0.9-2.6,2.6v4.9
						c0,1.7,0.9,2.6,2.6,2.6h5C94.2,10.1,95.1,9.2,95.1,7.5z"/>
				</g>
				<g>
					<path id="DecimaMonoPro-30_8_" class="st1" d="M168.2,52.6V17.4c0-5.1-1.8-9.5-5.3-13.1c-3.5-3.6-7.9-5.3-13.1-5.3
						c-5.2,0-9.5,1.8-13,5.4c-3.4,3.6-5.1,8-5.1,13.1v35.1c0,5.1,1.7,9.5,5.1,13c3.4,3.6,7.8,5.4,13,5.4c5.2,0,9.6-1.8,13.1-5.4
						C166.5,62.1,168.2,57.7,168.2,52.6z M159.9,17.3v35.2c0,2.9-1,5.4-2.9,7.5s-4.3,3.1-7.1,3.1c-2.7,0-5.1-1-7-3.1
						c-1.9-2.1-2.9-4.6-2.9-7.5V17.4c0-2.9,1-5.4,2.9-7.5c1.9-2,4.3-3,7.1-3c2.7,0,5.1,1,7,3S159.9,14.4,159.9,17.3z"/>
				</g>
			</g>
		</g>
	</g>
	<g id="ytick_2">
		<g id="line2d_8">
		</g>
		<g id="text_9">
			<g transform="translate(10.9 414.920595)scale(0.12 -0.12)">
				<g>
					<path id="DecimaMonoPro-30_9_" class="st1" d="M48.2,52.6V17.4c0-5.1-1.8-9.5-5.3-13.1C39.5,0.8,35.1-1,29.9-1
						c-5.2,0-9.5,1.8-13,5.4c-3.4,3.6-5.1,8-5.1,13.1v35.1c0,5.1,1.7,9.5,5.1,13c3.4,3.6,7.8,5.4,13,5.4c5.2,0,9.6-1.8,13.1-5.4
						C46.5,62.1,48.2,57.7,48.2,52.6z M39.9,17.3v35.2c0,2.9-1,5.4-2.9,7.5s-4.3,3.1-7.1,3.1c-2.7,0-5.1-1-7-3.1
						C21,57.9,20,55.4,20,52.5V17.4c0-2.9,1-5.4,2.9-7.5c1.9-2,4.3-3,7.1-3c2.7,0,5.1,1,7,3S39.9,14.4,39.9,17.3z"/>
				</g>
				<g>
					<path id="DecimaMonoPro-2e_7_" class="st1" d="M95.1,7.5V2.6c0-1.7-0.9-2.6-2.6-2.6h-5c-1.7,0-2.6,0.9-2.6,2.6v4.9
						c0,1.7,0.9,2.6,2.6,2.6h5C94.2,10.1,95.1,9.2,95.1,7.5z"/>
				</g>
				<g>
					<path id="DecimaMonoPro-32_1_" class="st1" d="M131.7,53c0,4.5,1.8,8.6,5.5,12.3c3.7,3.8,8.1,5.7,13.4,5.7
						c5.2,0,9.6-1.8,13.2-5.3c3.6-3.5,5.4-7.8,5.4-13c0-3.9-1-7.5-3.1-11c-2.1-3.4-4.6-6.4-7.5-8.9c-2.9-2.5-5.9-5-8.8-7.4
						c-2.9-2.4-5.4-5.1-7.5-8.1c-2.1-3-3.1-6.2-3.1-9.5h28.2c0.5,0,1-0.2,1.3-0.5c0.3-0.3,0.5-0.8,0.5-1.3V1.8c0-0.5-0.2-1-0.5-1.3
						c-0.3-0.3-0.8-0.5-1.3-0.5h-34.8c-0.5,0-1,0.2-1.3,0.5c-0.3,0.3-0.5,0.8-0.5,1.3v5.5c0,4.4,1,8.5,3.1,12.2
						c2.1,3.7,4.6,6.8,7.5,9.4c2.9,2.6,5.9,5.1,8.8,7.5c2.9,2.4,5.4,5,7.5,7.9c2.1,2.9,3.1,5.9,3.1,9c0,2.7-1,5.1-3,7
						s-4.4,2.8-7.3,2.8c-2.9,0-5.4-1.1-7.3-3.4c-1.9-2.3-3-4.5-3.1-6.7c-0.1-1.3-0.9-2-2.3-2H134c-0.7,0-1.3,0.2-1.7,0.6
						C131.9,52,131.7,52.5,131.7,53z"/>
				</g>
			</g>
		</g>
	</g>
	<g id="ytick_3">
		<g id="line2d_9">
		</g>
		<g id="text_10">
			<g transform="translate(10.9 342.057384)scale(0.12 -0.12)">
				<g>
					<path id="DecimaMonoPro-30_10_" class="st1" d="M48.2,52.6V17.4c0-5.1-1.8-9.5-5.3-13.1C39.5,0.8,35.1-1,29.9-1
						c-5.2,0-9.5,1.8-13,5.4c-3.4,3.6-5.1,8-5.1,13.1v35.1c0,5.1,1.7,9.5,5.1,13c3.4,3.6,7.8,5.4,13,5.4c5.2,0,9.6-1.8,13.1-5.4
						C46.5,62.1,48.2,57.7,48.2,52.6z M39.9,17.3v35.2c0,2.9-1,5.4-2.9,7.5s-4.3,3.1-7.1,3.1c-2.7,0-5.1-1-7-3.1
						C21,57.9,20,55.4,20,52.5V17.4c0-2.9,1-5.4,2.9-7.5c1.9-2,4.3-3,7.1-3c2.7,0,5.1,1,7,3S39.9,14.4,39.9,17.3z"/>
				</g>
				<g>
					<path id="DecimaMonoPro-2e_8_" class="st1" d="M95.1,7.5V2.6c0-1.7-0.9-2.6-2.6-2.6h-5c-1.7,0-2.6,0.9-2.6,2.6v4.9
						c0,1.7,0.9,2.6,2.6,2.6h5C94.2,10.1,95.1,9.2,95.1,7.5z"/>
				</g>
				<g>
					<path id="DecimaMonoPro-34_1_" class="st1" d="M160.1,67.5l-20.6-44.6h16.3v16c0,0.5,0.2,1,0.6,1.4c0.4,0.4,1,0.6,1.7,0.6h4.1
						c0.5,0,1-0.2,1.4-0.7c0.4-0.4,0.6-0.9,0.6-1.3v-16h3.8c0.5,0,1-0.2,1.4-0.6c0.4-0.4,0.6-1,0.6-1.7v-3.2c0-0.7-0.2-1.3-0.6-1.7
						c-0.4-0.4-0.9-0.6-1.4-0.6h-3.8V2c0-0.5-0.2-1-0.6-1.4c-0.4-0.4-0.9-0.6-1.4-0.6h-4.1c-0.7,0-1.3,0.2-1.7,0.6
						C156,1,155.8,1.5,155.8,2v13.1h-23.7c-1.5,0-2.2,0.8-2.2,2.3v3.9c0,0.8,0.4,1.9,1.1,3.4L151.3,68c0.7,1.3,1.6,2,2.7,2h4.8
						c1.1,0,1.7-0.4,1.7-1.2C160.5,68.6,160.4,68.2,160.1,67.5z"/>
				</g>
			</g>
		</g>
	</g>
	<g id="ytick_4">
		<g id="line2d_10">
		</g>
		<g id="text_11">
			<g transform="translate(10.9 269.194172)scale(0.12 -0.12)">
				<g>
					<path id="DecimaMonoPro-30_11_" class="st1" d="M48.2,52.6V17.4c0-5.1-1.8-9.5-5.3-13.1C39.5,0.8,35.1-1,29.9-1
						c-5.2,0-9.5,1.8-13,5.4c-3.4,3.6-5.1,8-5.1,13.1v35.1c0,5.1,1.7,9.5,5.1,13c3.4,3.6,7.8,5.4,13,5.4c5.2,0,9.6-1.8,13.1-5.4
						C46.5,62.1,48.2,57.7,48.2,52.6z M39.9,17.3v35.2c0,2.9-1,5.4-2.9,7.5s-4.3,3.1-7.1,3.1c-2.7,0-5.1-1-7-3.1
						C21,57.9,20,55.4,20,52.5V17.4c0-2.9,1-5.4,2.9-7.5c1.9-2,4.3-3,7.1-3c2.7,0,5.1,1,7,3S39.9,14.4,39.9,17.3z"/>
				</g>
				<g>
					<path id="DecimaMonoPro-2e_9_" class="st1" d="M95.1,7.5V2.6c0-1.7-0.9-2.6-2.6-2.6h-5c-1.7,0-2.6,0.9-2.6,2.6v4.9
						c0,1.7,0.9,2.6,2.6,2.6h5C94.2,10.1,95.1,9.2,95.1,7.5z"/>
				</g>
				<g>
					<path id="DecimaMonoPro-36_1_" class="st1" d="M131,60.2c7.1,7.2,13.2,10.8,18.5,10.8c5.3,0,9.7-1.7,13.2-5
						c3.5-3.4,5.3-7.2,5.3-11.5c0-0.5-0.2-1-0.6-1.4c-0.4-0.4-1-0.6-1.7-0.6h-3.8c-1.4,0-2.2,0.7-2.3,2c-0.1,2.1-1.1,4.1-2.9,5.9
						c-1.8,1.8-4.1,2.7-7.1,2.7c-2.9,0-5.3-1-7.3-3.1c-2-2.1-3-4.6-3-7.5v-9.6c0.3,0.3,0.7,0.8,1.3,1.3c0.6,0.5,1.9,1.2,4,2
						s4.2,1.2,6.5,1.2c4.9,0,9.2-1.7,12.7-5.2s5.3-7.8,5.3-13.1V17.5c0-5.1-1.8-9.5-5.5-13.1C159.9,0.8,155.4-1,150-1
						c-5.4,0-9.9,1.8-13.5,5.3c-3.6,3.6-5.5,7.9-5.5,13.1v35.1c0,5.1,3.5,11.3,10.6,18.5L131,60.2z M150,39.3c-3.1,0-5.6-1-7.7-2.9
						c-2-1.9-3-4.5-3-7.6V17.3c0-2.9,1-5.4,3.1-7.4c2.1-2,4.6-3,7.6-3c2.9,0,5.4,1,7.5,3s3.1,4.5,3.1,7.5v11.4c0,3.1-1,5.6-3,7.5
						C155.5,38.3,153,39.3,150,39.3z"/>
				</g>
			</g>
		</g>
	</g>
	<g id="ytick_5">
		<g id="line2d_11">
		</g>
		<g id="text_12">
			<g transform="translate(10.9 196.330961)scale(0.12 -0.12)">
				<g>
					<path id="DecimaMonoPro-30_12_" class="st1" d="M48.2,52.6V17.4c0-5.1-1.8-9.5-5.3-13.1C39.5,0.8,35.1-1,29.9-1
						c-5.2,0-9.5,1.8-13,5.4c-3.4,3.6-5.1,8-5.1,13.1v35.1c0,5.1,1.7,9.5,5.1,13c3.4,3.6,7.8,5.4,13,5.4c5.2,0,9.6-1.8,13.1-5.4
						C46.5,62.1,48.2,57.7,48.2,52.6z M39.9,17.3v35.2c0,2.9-1,5.4-2.9,7.5s-4.3,3.1-7.1,3.1c-2.7,0-5.1-1-7-3.1
						C21,57.9,20,55.4,20,52.5V17.4c0-2.9,1-5.4,2.9-7.5c1.9-2,4.3-3,7.1-3c2.7,0,5.1,1,7,3S39.9,14.4,39.9,17.3z"/>
				</g>
				<g>
					<path id="DecimaMonoPro-2e_10_" class="st1" d="M95.1,7.5V2.6c0-1.7-0.9-2.6-2.6-2.6h-5c-1.7,0-2.6,0.9-2.6,2.6v4.9
						c0,1.7,0.9,2.6,2.6,2.6h5C94.2,10.1,95.1,9.2,95.1,7.5z"/>
				</g>
				<g>
					<path id="DecimaMonoPro-38_1_" class="st1" d="M168.1,53.5v-3.7c0-5.5-2.1-10-6.3-13.4c4.8-3.7,7.2-8.6,7.2-14.7v-4.3
						c0-5.1-1.8-9.5-5.4-13.1c-3.6-3.6-7.9-5.3-13.1-5.3h-0.9c-5.2,0-9.6,1.8-13.2,5.4c-3.6,3.6-5.4,8-5.4,13.1v4.2
						c0,6,2.4,10.9,7.3,14.7c-4.3,3.3-6.5,7.8-6.5,13.5v3.6c0,4.9,1.7,9,5.1,12.4c3.4,3.4,7.6,5.1,12.6,5.1h0.9
						c4.9,0,9.1-1.7,12.5-5.1C166.4,62.5,168.1,58.4,168.1,53.5z M160.6,17.3v4.3c0,2.9-1,5.4-3.1,7.5c-2.1,2.1-4.6,3.1-7.5,3.1
						s-5.4-1-7.5-3.1c-2.1-2.1-3.1-4.6-3.1-7.5v-4.2c0-2.9,1-5.4,3.1-7.5c2.1-2,4.7-3,7.7-3c2.9,0,5.3,1,7.3,3
						S160.6,14.4,160.6,17.3z M159.7,49.7v3.4c0,2.8-1,5.2-2.9,7.1c-1.9,1.9-4.2,2.9-7,2.9c-2.7,0-4.9-1-6.8-2.9
						c-1.9-1.9-2.8-4.3-2.8-7.1v-3.3c0-2.6,0.9-4.9,2.6-6.8c1.8-1.9,4-2.9,6.8-2.9h0.9c2.5,0,4.7,0.9,6.5,2.8
						C158.8,44.7,159.7,47,159.7,49.7z"/>
				</g>
			</g>
		</g>
	</g>
	<g id="ytick_6">
		<g id="line2d_12">
		</g>
		<g id="text_13">
			<g transform="translate(10.9 123.467749)scale(0.12 -0.12)">
				<g>
					<path id="DecimaMonoPro-31_1_" class="st1" d="M13.9,68.2L25.2,70h7.1c0.5,0,0.9-0.2,1.3-0.5s0.5-0.8,0.5-1.3V7.7h13.2
						c0.5,0,0.9-0.2,1.3-0.6c0.4-0.4,0.5-0.8,0.5-1.2V1.8c0-0.5-0.2-1-0.5-1.3S47.8,0,47.3,0H12.6c-0.5,0-1,0.2-1.3,0.5
						s-0.5,0.8-0.5,1.3v4.1c0,0.5,0.2,0.9,0.5,1.2c0.3,0.4,0.8,0.6,1.3,0.6h13.1v54.4l-11-1.7h-0.3c-0.3-0.1-0.6-0.1-0.9-0.1
						c-0.9,0-1.4,0.6-1.4,1.8v4.2C12.1,67.3,12.7,67.9,13.9,68.2z"/>
				</g>
				<g>
					<path id="DecimaMonoPro-2e_11_" class="st1" d="M95.1,7.5V2.6c0-1.7-0.9-2.6-2.6-2.6h-5c-1.7,0-2.6,0.9-2.6,2.6v4.9
						c0,1.7,0.9,2.6,2.6,2.6h5C94.2,10.1,95.1,9.2,95.1,7.5z"/>
				</g>
				<g>
					<path id="DecimaMonoPro-30_13_" class="st1" d="M168.2,52.6V17.4c0-5.1-1.8-9.5-5.3-13.1c-3.5-3.6-7.9-5.3-13.1-5.3
						c-5.2,0-9.5,1.8-13,5.4c-3.4,3.6-5.1,8-5.1,13.1v35.1c0,5.1,1.7,9.5,5.1,13c3.4,3.6,7.8,5.4,13,5.4c5.2,0,9.6-1.8,13.1-5.4
						C166.5,62.1,168.2,57.7,168.2,52.6z M159.9,17.3v35.2c0,2.9-1,5.4-2.9,7.5s-4.3,3.1-7.1,3.1c-2.7,0-5.1-1-7-3.1
						c-1.9-2.1-2.9-4.6-2.9-7.5V17.4c0-2.9,1-5.4,2.9-7.5c1.9-2,4.3-3,7.1-3c2.7,0,5.1,1,7,3S159.9,14.4,159.9,17.3z"/>
				</g>
			</g>
		</g>
	</g>
	<g id="text_14">
		<g transform="translate(4.043125 326.541562)rotate(-90)scale(0.14 -0.14)" class="st2">
			<g>
				<path id="Apercu-53_1_" d="M44,59.6L36.9,55c-1.6,2.9-3.3,4.8-5,5.8c-1.7,1-3.8,1.6-6.1,1.6c-2.4,0-4.4-0.9-6-2.6
					c-1.6-1.7-2.4-3.8-2.4-6.1c0-1.7,0.3-3.1,0.9-4.4c0.6-1.3,1.7-2.5,3.3-3.6c1.6-1.2,2.9-2.1,4-2.7s2.9-1.5,5.4-2.8
					c2-1,3.6-1.9,4.8-2.6c1.2-0.7,2.7-1.7,4.3-3c1.7-1.3,3-2.5,4-3.8c1-1.3,1.8-2.8,2.5-4.7s1-3.9,1-6.1c0-5.6-1.8-10.4-5.4-14.3
					c-4-4.4-9.2-6.6-15.6-6.6C20.9-0.8,16,1,11.9,4.5C7.8,8,5.2,12.6,4,18.1l7.6,4.6c1.3-4.7,3.1-8.4,5.4-11.1s5.5-4,9.6-4
					c4.1,0,7.2,1.3,9.5,4c1.8,2.2,2.7,5,2.7,8.3c0,3.1-1.2,5.6-3.5,7.6c-2.3,2-5.5,4-9.8,6c-2.7,1.3-4.9,2.4-6.6,3.4
					s-3.4,2.3-5.2,3.8s-3.1,3.3-4,5.3S8.6,50.4,8.6,53c0,5.1,1.7,9.3,5.1,12.7c3.4,3.4,7.4,5.1,12.1,5.1s8.4-1,11.2-2.9
					C39.8,66,42.1,63.2,44,59.6z"/>
			</g>
			<g>
				<path id="Apercu-63" d="M94.4,16.1l7.3-3C97.6,3.8,90.6-0.8,80.6-0.8c-7.3,0-13,2.5-17,7.5c-4,5-5.9,11.2-5.9,18.4
					c0,7.3,2,13.4,5.9,18.5c4,5,9.6,7.6,17,7.6c10,0,17-4.6,21.1-13.9l-7.3-3c-2.7,6.2-7.3,9.3-13.8,9.3c-4.7,0-8.2-1.7-10.7-5.2
					c-2.4-3.4-3.6-7.8-3.6-13.3c0-5.4,1.2-9.8,3.6-13.2c2.4-3.4,6-5.1,10.7-5.1C87.1,6.8,91.7,9.9,94.4,16.1z"/>
			</g>
			<g>
				<path id="Apercu-6f_1_" d="M118.1,6.8c-4.4,5.1-6.6,11.3-6.6,18.4s2.2,13.3,6.6,18.3c4.4,5.1,10.3,7.7,17.5,7.7
					c7.3,0,13.1-2.6,17.5-7.7c4.4-5.1,6.7-11.2,6.7-18.3s-2.2-13.3-6.7-18.4c-4.4-5.1-10.3-7.6-17.5-7.6
					C128.4-0.8,122.6,1.7,118.1,6.8z M124.2,38.1c-2.7-3.6-4.1-7.9-4.1-12.9s1.4-9.3,4.1-13c2.8-3.6,6.6-5.5,11.5-5.5
					c4.9,0,8.7,1.8,11.5,5.5c2.8,3.6,4.2,8,4.2,13s-1.4,9.3-4.2,12.9c-2.8,3.6-6.6,5.5-11.5,5.5C130.8,43.6,127,41.8,124.2,38.1z"/>
			</g>
			<g>
				<path id="Apercu-72_1_" d="M204.6,49.7l-1.7-7.5c-1.9,0.9-3.8,1.4-5.9,1.4c-3.8,0-7.1-2.2-9.9-6.5c-2.8-4.3-4.2-10.3-4.2-18V0
					h-8.4v50.4h8.4v-8.6c1.5,2.8,3.6,5.1,6.4,6.8c2.8,1.7,5.6,2.6,8.4,2.6C200.4,51.2,202.7,50.7,204.6,49.7z"/>
			</g>
			<g>
				<path id="Apercu-65_1_" d="M257.6,27.3v-3.9h-37c0.3-4.9,1.6-8.9,4-12c2.4-3.1,5.8-4.6,10.2-4.6c3.5,0,6.4,0.8,8.5,2.3
					c2.2,1.6,4,4,5.5,7.3l7.4-3.2c-2.3-4.9-5.2-8.5-8.5-10.7s-7.6-3.3-12.8-3.3c-7.3,0-12.9,2.5-16.9,7.5c-4,5-5.9,11.2-5.9,18.4
					c0,7.3,2,13.4,5.9,18.5c4,5,9.6,7.6,16.9,7.6c7.1,0,12.7-2.3,16.8-7S257.6,34,257.6,27.3z M234.8,43.6c-3.7,0-6.8-1.1-9.1-3.4
					c-2.3-2.3-3.8-5.3-4.6-9.2h27.7c-0.8,3.8-2.4,6.8-4.7,9.1C241.8,42.4,238.7,43.6,234.8,43.6z"/>
			</g>
		</g>
	</g>
</g>
<g id="line2d_13">
	<g>
		<defs>
			<rect id="SVGID_1_" x="36" y="115.2" width="306" height="385.9"/>
		</defs>
		<clipPath id="SVGID_2_">
			<use xlink:href="#SVGID_1_"  style="overflow:visible;"/>
		</clipPath>
		<path class="st3" d="M49.9,132.7l27.8,42.6l27.8,29.5l27.8,29.1l27.8,32.8l27.8,39.3l27.8,21.1l27.8,60.1l27.8,27.7l27.8,23.7
			l27.8,16"/>
	</g>
</g>
<g id="line2d_14">
	<g>
		<defs>
			<rect id="SVGID_3_" x="36" y="115.2" width="306" height="385.9"/>
		</defs>
		<clipPath id="SVGID_4_">
			<use xlink:href="#SVGID_3_"  style="overflow:visible;"/>
		</clipPath>
		<path class="st4" d="M49.9,148.4l27.8,213.5l27.8,49.2l27.8-9.1l27.8-8.4l27.8-10.2l27.8-3.6l27.8-18.2l27.8-5.5l27.8-5.5
			l27.8-2.2"/>
	</g>
</g>
<g id="line2d_15">
	<g>
		<defs>
			<rect id="SVGID_5_" x="36" y="115.2" width="306" height="385.9"/>
		</defs>
		<clipPath id="SVGID_6_">
			<use xlink:href="#SVGID_5_"  style="overflow:visible;"/>
		</clipPath>
		<path class="st5" d="M49.9,132.7l27.8,49.2l27.8,51.4l27.8,44.1l27.8,28.1l27.8,41.2l27.8,15.7l27.8,31.3l27.8,2.9l27.8,9.8
			l27.8,4"/>
	</g>
</g>
<g id="line2d_16">
	<g>
		<defs>
			<rect id="SVGID_7_" x="36" y="115.2" width="306" height="385.9"/>
		</defs>
		<clipPath id="SVGID_8_">
			<use xlink:href="#SVGID_7_"  style="overflow:visible;"/>
		</clipPath>
		<path class="st6" d="M36,483.6h306"/>
	</g>
</g>
<g id="patch_3">
	<path class="st7" d="M36,501.1V115.2"/>
</g>
<g id="patch_4">
	<path class="st7" d="M342,501.1V115.2"/>
</g>
<g id="patch_5">
	<path class="st7" d="M36,501.1h306"/>
</g>
<g id="patch_6">
	<path class="st7" d="M36,115.2h306"/>
</g>
<g id="legend_1">
	<g id="patch_8">
		<path class="st8" d="M186.1,165.6H335c1.3,0,2-0.7,2-2v-41.4c0-1.3-0.7-2-2-2H186.1c-1.3,0-2,0.7-2,2v41.4
			C184.1,164.9,184.8,165.6,186.1,165.6z"/>
	</g>
	<g id="line2d_17">
		<path class="st9" d="M188.1,127.8h20"/>
	</g>
	<g id="line2d_18">
	</g>
	<g id="text_16">
		<g transform="translate(216.146875 131.279688)scale(0.1 -0.1)" class="st2">
			<g>
				<path id="Apercu-46" d="M9.7,70h40.7v-8.4H18.5V40.7h25.9v-8.4H18.5V0H9.7V70z"/>
			</g>
			<g>
				<path id="Apercu-72_2_" d="M93,49.7l-1.7-7.5c-1.9,0.9-3.8,1.4-5.9,1.4c-3.8,0-7.1-2.2-9.9-6.5c-2.8-4.3-4.2-10.3-4.2-18V0H63
					v50.4h8.4v-8.6c1.5,2.8,3.6,5.1,6.4,6.8c2.8,1.7,5.6,2.6,8.4,2.6C88.9,51.2,91.2,50.7,93,49.7z"/>
			</g>
			<g>
				<path id="Apercu-65_2_" d="M146.1,27.3v-3.9h-37c0.3-4.9,1.6-8.9,4-12c2.4-3.1,5.8-4.6,10.2-4.6c3.5,0,6.4,0.8,8.5,2.3
					c2.2,1.6,4,4,5.5,7.3l7.4-3.2c-2.3-4.9-5.2-8.5-8.5-10.7s-7.6-3.3-12.8-3.3c-7.3,0-12.9,2.5-16.9,7.5c-4,5-5.9,11.2-5.9,18.4
					c0,7.3,2,13.4,5.9,18.5c4,5,9.6,7.6,16.9,7.6c7.1,0,12.7-2.3,16.8-7S146.1,34,146.1,27.3z M123.3,43.6c-3.7,0-6.8-1.1-9.1-3.4
					c-2.3-2.3-3.8-5.3-4.6-9.2h27.7c-0.8,3.8-2.4,6.8-4.7,9.1C130.2,42.4,127.1,43.6,123.3,43.6z"/>
			</g>
			<g>
				<path id="Apercu-71" d="M178.8,51.2c3,0,5.9-0.7,8.6-2.1c2.8-1.4,4.8-3,6.1-4.9v6.2h8.4v-70.8h-8.4V6c-0.9-1.6-2.9-3.1-5.8-4.6
					c-2.9-1.5-5.9-2.2-8.9-2.2c-7.2,0-12.7,2.4-16.6,7.1c-3.9,4.8-5.8,11.1-5.8,18.9s1.9,14.1,5.8,18.8
					C166.1,48.8,171.7,51.2,178.8,51.2z M179.6,6.8c4.5,0,8.1,1.7,10.7,5.1c2.6,3.4,3.9,7.8,3.9,13.3s-1.3,9.9-3.9,13.3
					c-2.6,3.4-6.2,5.1-10.7,5.1c-4.4,0-7.9-1.7-10.6-5.1c-2.7-3.4-4-7.8-4-13.3s1.3-9.9,4-13.3C171.7,8.5,175.3,6.8,179.6,6.8z"/>
			</g>
			<g>
				<path id="Apercu-75_1_" d="M219.7,14.9v35.5h8.4V17.1c0-6.9,2.9-10.3,8.7-10.3c3.9,0,7.3,2.1,10.1,6.2c2.8,4.1,4.3,9.6,4.3,16.3
					v21.1h8.4V0h-8.4v9.3c-3.8-6.7-9.4-10.1-16.7-10.1c-4.6,0-8.2,1.4-10.9,4.1C221,6,219.7,9.9,219.7,14.9z"/>
			</g>
			<g>
				<path id="Apercu-65_3_" d="M319.8,27.3v-3.9h-37c0.3-4.9,1.6-8.9,4-12c2.4-3.1,5.8-4.6,10.2-4.6c3.5,0,6.4,0.8,8.5,2.3
					c2.2,1.6,4,4,5.5,7.3l7.4-3.2c-2.3-4.9-5.2-8.5-8.5-10.7c-3.4-2.2-7.6-3.3-12.8-3.3c-7.3,0-12.9,2.5-16.9,7.5
					c-4,5-5.9,11.2-5.9,18.4c0,7.3,2,13.4,5.9,18.5c4,5,9.6,7.6,16.9,7.6c7.1,0,12.7-2.3,16.8-7S319.8,34,319.8,27.3z M297,43.6
					c-3.7,0-6.8-1.1-9.1-3.4c-2.3-2.3-3.8-5.3-4.6-9.2H311c-0.8,3.8-2.4,6.8-4.7,9.1C304,42.4,300.9,43.6,297,43.6z"/>
			</g>
			<g>
				<path id="Apercu-6e" d="M373.9,35.5V0h-8.4v33.3c0,6.9-2.9,10.3-8.7,10.3c-3.9,0-7.3-2.1-10.2-6.2c-2.8-4.1-4.3-9.6-4.3-16.3V0
					H334v50.4h8.4v-9.3c3.8,6.7,9.4,10.1,16.7,10.1c4.6,0,8.2-1.4,10.8-4.1C372.6,44.4,373.9,40.5,373.9,35.5z"/>
			</g>
			<g>
				<path id="Apercu-63_1_" d="M424.6,16.1l7.3-3c-4.1-9.3-11.1-13.9-21.1-13.9c-7.3,0-13,2.5-17,7.5c-4,5-5.9,11.2-5.9,18.4
					c0,7.3,2,13.4,5.9,18.5c4,5,9.6,7.6,17,7.6c10,0,17-4.6,21.1-13.9l-7.3-3c-2.7,6.2-7.3,9.3-13.8,9.3c-4.7,0-8.2-1.7-10.7-5.2
					c-2.4-3.4-3.6-7.8-3.6-13.3c0-5.4,1.2-9.8,3.6-13.3c2.4-3.4,6-5.1,10.7-5.1C417.3,6.8,421.9,9.9,424.6,16.1z"/>
			</g>
			<g>
				<path id="Apercu-79" d="M472.3,50.4h8.8l-25-70.8h-8.6l8,22.5l-17.7,48.3h9.2L459.8,14L472.3,50.4z"/>
			</g>
			<g>
				<path id="Apercu-20_1_" d="M482.3,0"/>
			</g>
			<g>
				<path id="Apercu-64" d="M536.9,51.2c3,0,6-0.7,8.9-2.2c2.9-1.5,4.9-3,5.8-4.6v26.4h8.4V0h-8.4v6.2c-1.3-1.9-3.3-3.6-6.1-5
					c-2.8-1.4-5.6-2-8.6-2c-7.2,0-12.7,2.4-16.6,7.1c-3.9,4.8-5.8,11.1-5.8,18.9s1.9,14.1,5.8,18.8
					C524.2,48.8,529.7,51.2,536.9,51.2z M537.7,6.8c4.5,0,8.1,1.7,10.7,5.1c2.6,3.4,3.9,7.8,3.9,13.3s-1.3,9.9-3.9,13.3
					c-2.6,3.4-6.2,5.1-10.7,5.1c-4.4,0-7.9-1.7-10.6-5.1s-4-7.8-4-13.3s1.3-9.9,4-13.3C529.8,8.5,533.3,6.8,537.7,6.8z"/>
			</g>
			<g>
				<path id="Apercu-72_3_" d="M608.5,49.7l-1.7-7.5c-1.9,0.9-3.8,1.4-5.9,1.4c-3.8,0-7.1-2.2-9.9-6.5c-2.8-4.3-4.2-10.3-4.2-18V0
					h-8.4v50.4h8.4v-8.6c1.5,2.8,3.6,5.1,6.4,6.8c2.8,1.7,5.6,2.6,8.4,2.6C604.3,51.2,606.6,50.7,608.5,49.7z"/>
			</g>
			<g>
				<path id="Apercu-6f_2_" d="M622.5,6.8c-4.4,5.1-6.6,11.3-6.6,18.4s2.2,13.3,6.6,18.3c4.4,5.1,10.3,7.7,17.5,7.7
					c7.3,0,13.1-2.6,17.5-7.7c4.4-5.1,6.7-11.2,6.7-18.3s-2.2-13.3-6.7-18.4c-4.4-5.1-10.3-7.6-17.5-7.6
					C632.8-0.8,626.9,1.7,622.5,6.8z M628.6,38.1c-2.7-3.6-4.1-7.9-4.1-12.9s1.4-9.3,4.1-13c2.8-3.6,6.6-5.5,11.5-5.5
					c4.9,0,8.7,1.8,11.5,5.5c2.8,3.6,4.2,8,4.2,13s-1.4,9.3-4.2,12.9c-2.8,3.6-6.6,5.5-11.5,5.5C635.2,43.6,631.4,41.8,628.6,38.1z"
					/>
			</g>
			<g>
				<path id="Apercu-70" d="M702-0.8c-3,0-6,0.7-8.9,2.2c-2.9,1.5-4.9,3-5.8,4.6v-26.4h-8.4v70.8h8.4v-6.2c1.3,1.9,3.3,3.6,6,4.9
					c2.8,1.4,5.7,2.1,8.7,2.1c7.2,0,12.7-2.4,16.6-7.2c3.9-4.8,5.8-11,5.8-18.8s-1.9-14.1-5.8-18.9C714.7,1.6,709.2-0.8,702-0.8z
					 M701.2,43.6c-4.5,0-8.1-1.7-10.7-5.1c-2.6-3.4-3.9-7.8-3.9-13.3s1.3-9.9,3.9-13.3c2.6-3.4,6.2-5.1,10.7-5.1
					c4.4,0,7.9,1.7,10.6,5.1c2.7,3.4,4,7.8,4,13.3s-1.3,9.9-4,13.3C709.1,41.9,705.6,43.6,701.2,43.6z"/>
			</g>
			<g>
				<path id="Apercu-20_2_" d="M729.8,0"/>
			</g>
			<g>
				<path id="Apercu-73" d="M780.2,51.2c6.1,0,11-2.6,14.6-7.7l-5.7-4.9c-3.1,3.3-6.1,5-9.2,5c-1.7,0-3.2-0.6-4.3-1.7
					c-1.2-1.1-1.8-2.7-1.8-4.7c0-1.7,0.8-3.1,2.4-4.3c1.6-1.2,3.6-2.2,5.9-3.1c2.3-0.9,4.6-1.9,6.9-3c2.3-1.1,4.3-2.6,5.8-4.5
					c1.6-2,2.4-4.3,2.4-7c0-5-1.5-8.9-4.5-11.8s-7.1-4.3-12.2-4.3c-4.7,0-8.7,1.3-11.9,3.9c-3.2,2.6-5.5,5.8-7,9.7l7.1,3.9
					c2.7-6.6,6.6-9.9,11.7-9.9c5.4,0,8.1,2.6,8.1,7.9c0,1.7-0.8,3.1-2.4,4.3c-1.6,1.2-3.5,2.2-5.8,3c-2.3,0.8-4.5,1.8-6.8,2.8
					c-2.3,1.1-4.2,2.7-5.8,4.8c-1.6,2.1-2.4,4.7-2.4,7.7c0,4,1.3,7.3,4,10C772.1,49.9,775.7,51.2,780.2,51.2z"/>
			</g>
			<g>
				<path id="Apercu-63_2_" d="M844.8,16.1l7.3-3C848,3.8,841-0.8,831-0.8c-7.3,0-13,2.5-17,7.5c-4,5-5.9,11.2-5.9,18.4
					c0,7.3,2,13.4,5.9,18.5c4,5,9.6,7.6,17,7.6c10,0,17-4.6,21.1-13.9l-7.3-3c-2.7,6.2-7.3,9.3-13.8,9.3c-4.7,0-8.2-1.7-10.7-5.2
					c-2.4-3.4-3.6-7.8-3.6-13.3c0-5.4,1.2-9.8,3.6-13.3c2.4-3.4,6-5.1,10.7-5.1C837.5,6.8,842.1,9.9,844.8,16.1z"/>
			</g>
			<g>
				<path id="Apercu-6f_3_" d="M868.5,6.8c-4.4,5.1-6.6,11.3-6.6,18.4s2.2,13.3,6.6,18.3c4.4,5.1,10.3,7.7,17.5,7.7
					c7.3,0,13.1-2.6,17.5-7.7c4.4-5.1,6.7-11.2,6.7-18.3s-2.2-13.3-6.7-18.4c-4.4-5.1-10.3-7.6-17.5-7.6
					C878.8-0.8,872.9,1.7,868.5,6.8z M874.6,38.1c-2.7-3.6-4.1-7.9-4.1-12.9s1.4-9.3,4.1-13c2.8-3.6,6.6-5.5,11.5-5.5
					c4.9,0,8.7,1.8,11.5,5.5c2.8,3.6,4.2,8,4.2,13s-1.4,9.3-4.2,12.9c-2.8,3.6-6.6,5.5-11.5,5.5C881.2,43.6,877.4,41.8,874.6,38.1z"
					/>
			</g>
			<g>
				<path id="Apercu-72_4_" d="M955,49.7l-1.7-7.5c-1.9,0.9-3.8,1.4-5.9,1.4c-3.8,0-7.1-2.2-9.9-6.5c-2.8-4.3-4.2-10.3-4.2-18V0
					h-8.4v50.4h8.4v-8.6c1.5,2.8,3.6,5.1,6.4,6.8c2.8,1.7,5.6,2.6,8.4,2.6C950.8,51.2,953.1,50.7,955,49.7z"/>
			</g>
			<g>
				<path id="Apercu-65_4_" d="M1008,27.3v-3.9h-37c0.3-4.9,1.6-8.9,4-12c2.4-3.1,5.8-4.6,10.2-4.6c3.5,0,6.4,0.8,8.5,2.3
					c2.2,1.6,4,4,5.5,7.3l7.4-3.2c-2.3-4.9-5.2-8.5-8.5-10.7c-3.4-2.2-7.6-3.3-12.8-3.3c-7.3,0-12.9,2.5-16.9,7.5
					c-4,5-5.9,11.2-5.9,18.4c0,7.3,2,13.4,5.9,18.5c4,5,9.6,7.6,16.9,7.6c7.1,0,12.7-2.3,16.8-7S1008,34,1008,27.3z M985.2,43.6
					c-3.7,0-6.8-1.1-9.1-3.4c-2.3-2.3-3.8-5.3-4.6-9.2h27.7c-0.8,3.8-2.4,6.8-4.7,9.1C992.1,42.4,989,43.6,985.2,43.6z"/>
			</g>
		</g>
	</g>
	<g id="line2d_19">
		<path class="st10" d="M188.1,141.9h20"/>
	</g>
	<g id="line2d_20">
	</g>
	<g id="text_17">
		<g transform="translate(216.146875 145.4)scale(0.1 -0.1)" class="st2">
			<g>
				<path id="Apercu-53_2_" d="M44,59.6L36.9,55c-1.6,2.9-3.3,4.8-5,5.8c-1.7,1-3.8,1.6-6.1,1.6c-2.4,0-4.4-0.9-6-2.6
					c-1.6-1.7-2.4-3.8-2.4-6.1c0-1.7,0.3-3.1,0.9-4.4c0.6-1.3,1.7-2.5,3.3-3.6c1.6-1.2,2.9-2.1,4-2.7s2.9-1.5,5.4-2.8
					c2-1,3.6-1.9,4.8-2.6c1.2-0.7,2.7-1.7,4.3-3c1.7-1.3,3-2.5,4-3.8c1-1.3,1.8-2.8,2.5-4.7s1-3.9,1-6.1c0-5.6-1.8-10.4-5.4-14.3
					c-4-4.4-9.2-6.6-15.6-6.6C20.9-0.8,16,1,11.9,4.5C7.8,8,5.2,12.6,4,18.1l7.6,4.6c1.3-4.7,3.1-8.4,5.4-11.1s5.5-4,9.6-4
					c4.1,0,7.2,1.3,9.5,4c1.8,2.2,2.7,5,2.7,8.3c0,3.1-1.2,5.6-3.5,7.6c-2.3,2-5.5,4-9.7,6c-2.7,1.3-4.9,2.4-6.6,3.4
					s-3.4,2.3-5.2,3.8s-3.1,3.3-4,5.3S8.6,50.4,8.6,53c0,5.1,1.7,9.3,5.1,12.7c3.4,3.4,7.4,5.1,12.1,5.1s8.4-1,11.2-2.9
					C39.8,66,42.1,63.2,44,59.6z"/>
			</g>
			<g>
				<path id="Apercu-69_1_" d="M61.6,50.4H70V0h-8.4V50.4z M59.5,64.4c0,1.8,0.6,3.3,1.8,4.5c1.2,1.2,2.7,1.9,4.5,1.9
					c1.8,0,3.3-0.6,4.5-1.9c1.2-1.2,1.8-2.7,1.8-4.5c0-1.7-0.6-3.2-1.8-4.4c-1.2-1.2-2.7-1.8-4.5-1.8c-1.8,0-3.3,0.6-4.5,1.8
					C60.1,61.2,59.5,62.7,59.5,64.4z"/>
			</g>
			<g>
				<path id="Apercu-6c_1_" d="M88.3,70.8h8.4V0h-8.4V70.8z"/>
			</g>
			<g>
				<path id="Apercu-68_1_" d="M155,35V0h-8.4v33.3c0,6.9-2.9,10.3-8.7,10.3c-3.9,0-7.4-2.1-10.5-6.2c-3.1-4.1-4.7-9.4-4.7-16V0
					h-8.4v70.8h8.4V41c1.6,3.1,4,5.6,7,7.5c3.1,1.8,6.6,2.8,10.5,2.8c4.7,0,8.3-1.4,10.9-4.2C153.7,44.3,155,40.3,155,35z"/>
			</g>
			<g>
				<path id="Apercu-6f_4_" d="M175.5,6.8c-4.4,5.1-6.6,11.3-6.6,18.4s2.2,13.2,6.6,18.3c4.4,5.1,10.3,7.7,17.5,7.7
					c7.3,0,13.1-2.6,17.5-7.7c4.4-5.1,6.7-11.2,6.7-18.3s-2.2-13.3-6.7-18.4c-4.4-5.1-10.3-7.6-17.5-7.6
					C185.9-0.8,180,1.7,175.5,6.8z M181.6,38.1c-2.7-3.6-4.1-7.9-4.1-12.9s1.4-9.3,4.1-13c2.8-3.6,6.6-5.5,11.5-5.5
					c4.9,0,8.7,1.8,11.5,5.5c2.8,3.6,4.2,8,4.2,13s-1.4,9.3-4.2,12.9c-2.8,3.6-6.6,5.5-11.5,5.5C188.3,43.6,184.4,41.8,181.6,38.1z"
					/>
			</g>
			<g>
				<path id="Apercu-75_2_" d="M231.3,14.9v35.5h8.4V17.1c0-6.9,2.9-10.3,8.7-10.3c3.9,0,7.3,2.1,10.1,6.2c2.8,4.1,4.3,9.6,4.3,16.3
					v21.1h8.4V0h-8.4v9.3c-3.8-6.7-9.4-10.1-16.7-10.1c-4.6,0-8.2,1.4-10.9,4.1C232.6,6,231.3,9.9,231.3,14.9z"/>
			</g>
			<g>
				<path id="Apercu-65_5_" d="M331.4,27.3v-3.9h-37c0.3-4.9,1.6-8.9,4-12c2.4-3.1,5.8-4.6,10.2-4.6c3.5,0,6.4,0.8,8.5,2.3
					c2.2,1.6,4,4,5.5,7.3l7.4-3.2c-2.3-4.9-5.2-8.5-8.5-10.7c-3.4-2.2-7.6-3.3-12.8-3.3c-7.3,0-12.9,2.5-16.9,7.5
					c-4,5-5.9,11.2-5.9,18.4c0,7.3,2,13.4,5.9,18.5c4,5,9.6,7.6,16.9,7.6c7.1,0,12.7-2.3,16.8-7S331.4,34,331.4,27.3z M308.6,43.6
					c-3.7,0-6.8-1.1-9.1-3.4c-2.3-2.3-3.8-5.3-4.6-9.2h27.7c-0.8,3.8-2.4,6.8-4.7,9.1C315.6,42.4,312.5,43.6,308.6,43.6z"/>
			</g>
			<g>
				<path id="Apercu-74_1_" d="M338.9,42.8v7.6h8.7v15.1l8.4,5.3V50.4h13.2v-7.6H356V15.1c0-2.7,0.6-4.7,1.8-6.2
					c1.2-1.4,2.8-2.1,5-2.1c2.2,0,4.1,0.5,5.7,1.6l2-7.3c-2.2-1.3-4.9-1.9-8.2-1.9c-4.5,0-8,1.4-10.7,4.2c-2.6,2.8-3.9,6.9-3.9,12.4
					v27H338.9z"/>
			</g>
			<g>
				<path id="Apercu-74_2_" d="M376.7,42.8v7.6h8.7v15.1l8.4,5.3V50.4H407v-7.6h-13.2V15.1c0-2.7,0.6-4.7,1.8-6.2
					c1.2-1.4,2.8-2.1,5-2.1c2.2,0,4.1,0.5,5.7,1.6l2-7.3c-2.2-1.3-4.9-1.9-8.2-1.9c-4.5,0-8,1.4-10.7,4.2c-2.6,2.8-3.9,6.9-3.9,12.4
					v27H376.7z"/>
			</g>
			<g>
				<path id="Apercu-65_6_" d="M463,27.3v-3.9h-37c0.3-4.9,1.6-8.9,4-12c2.4-3.1,5.8-4.6,10.2-4.6c3.5,0,6.4,0.8,8.5,2.3
					c2.2,1.6,4,4,5.5,7.3l7.4-3.2c-2.3-4.9-5.2-8.5-8.5-10.7c-3.4-2.2-7.6-3.3-12.8-3.3c-7.3,0-12.9,2.5-16.9,7.5
					c-4,5-5.9,11.2-5.9,18.4c0,7.3,2,13.4,5.9,18.5c4,5,9.6,7.6,16.9,7.6c7.1,0,12.7-2.3,16.8-7S463,34,463,27.3z M440.2,43.6
					c-3.7,0-6.8-1.1-9.1-3.4c-2.3-2.3-3.8-5.3-4.6-9.2h27.7c-0.8,3.8-2.4,6.8-4.7,9.1C447.2,42.4,444.1,43.6,440.2,43.6z"/>
			</g>
			<g>
				<path id="Apercu-20_3_" d="M468,0"/>
			</g>
			<g>
				<path id="Apercu-73_1_" d="M518.4,51.2c6.1,0,11-2.6,14.6-7.7l-5.7-4.9c-3.1,3.3-6.1,5-9.2,5c-1.7,0-3.2-0.6-4.3-1.7
					c-1.2-1.1-1.8-2.7-1.8-4.7c0-1.7,0.8-3.1,2.4-4.3c1.6-1.2,3.6-2.2,5.9-3.1c2.3-0.9,4.6-1.9,6.9-3c2.3-1.1,4.3-2.6,5.8-4.5
					c1.6-2,2.4-4.3,2.4-7c0-5-1.5-8.9-4.5-11.8s-7.1-4.3-12.2-4.3c-4.7,0-8.7,1.3-11.9,3.9c-3.2,2.6-5.5,5.8-7,9.7l7.1,3.9
					c2.7-6.6,6.6-9.9,11.7-9.9c5.4,0,8.1,2.6,8.1,7.9c0,1.7-0.8,3.1-2.4,4.3c-1.6,1.2-3.5,2.2-5.8,3c-2.3,0.8-4.5,1.8-6.8,2.8
					c-2.3,1.1-4.2,2.7-5.8,4.8c-1.6,2.1-2.4,4.7-2.4,7.7c0,4,1.3,7.3,4,10C510.4,49.9,514,51.2,518.4,51.2z"/>
			</g>
			<g>
				<path id="Apercu-63_3_" d="M583,16.1l7.3-3c-4.1-9.3-11.1-13.9-21.1-13.9c-7.3,0-13,2.5-17,7.5c-4,5-5.9,11.2-5.9,18.4
					c0,7.3,2,13.4,5.9,18.5c4,5,9.6,7.6,17,7.6c10,0,17-4.6,21.1-13.9l-7.3-3c-2.7,6.2-7.3,9.3-13.8,9.3c-4.7,0-8.2-1.7-10.7-5.2
					c-2.4-3.4-3.6-7.8-3.6-13.2c0-5.4,1.2-9.8,3.6-13.3c2.4-3.4,6-5.1,10.7-5.1C575.8,6.8,580.4,9.9,583,16.1z"/>
			</g>
			<g>
				<path id="Apercu-6f_5_" d="M606.7,6.8c-4.4,5.1-6.6,11.3-6.6,18.4s2.2,13.2,6.6,18.3c4.4,5.1,10.3,7.7,17.5,7.7
					c7.3,0,13.1-2.6,17.5-7.7c4.4-5.1,6.7-11.2,6.7-18.3s-2.2-13.3-6.7-18.4c-4.4-5.1-10.3-7.6-17.5-7.6
					C617.1-0.8,611.2,1.7,606.7,6.8z M612.8,38.1c-2.7-3.6-4.1-7.9-4.1-12.9s1.4-9.3,4.1-13c2.8-3.6,6.6-5.5,11.5-5.5
					c4.9,0,8.7,1.8,11.5,5.5c2.8,3.6,4.2,8,4.2,13s-1.4,9.3-4.2,12.9c-2.8,3.6-6.6,5.5-11.5,5.5C619.5,43.6,615.6,41.8,612.8,38.1z"
					/>
			</g>
			<g>
				<path id="Apercu-72_5_" d="M693.2,49.7l-1.7-7.5c-1.9,0.9-3.8,1.4-5.9,1.4c-3.8,0-7.1-2.2-9.9-6.5c-2.8-4.3-4.2-10.3-4.2-18V0
					h-8.4v50.4h8.4v-8.6c1.5,2.8,3.6,5.1,6.4,6.8c2.8,1.7,5.6,2.6,8.4,2.6C689.1,51.2,691.4,50.7,693.2,49.7z"/>
			</g>
			<g>
				<path id="Apercu-65_7_" d="M746.2,27.3v-3.9h-37c0.3-4.9,1.6-8.9,4-12c2.4-3.1,5.8-4.6,10.2-4.6c3.5,0,6.4,0.8,8.5,2.3
					c2.2,1.6,4,4,5.5,7.3l7.4-3.2c-2.3-4.9-5.2-8.5-8.5-10.7c-3.4-2.2-7.6-3.3-12.8-3.3c-7.3,0-12.9,2.5-16.9,7.5
					c-4,5-5.9,11.2-5.9,18.4c0,7.3,2,13.4,5.9,18.5c4,5,9.6,7.6,16.9,7.6c7.1,0,12.7-2.3,16.8-7S746.2,34,746.2,27.3z M723.4,43.6
					c-3.7,0-6.8-1.1-9.1-3.4c-2.3-2.3-3.8-5.3-4.6-9.2h27.7c-0.8,3.8-2.4,6.8-4.7,9.1C730.4,42.4,727.3,43.6,723.4,43.6z"/>
			</g>
		</g>
	</g>
	<g id="line2d_21">
		<path class="st11" d="M188.1,156h20"/>
	</g>
	<g id="line2d_22">
	</g>
	<g id="text_18">
		<g transform="translate(216.146875 159.520313)scale(0.1 -0.1)" class="st2">
			<g>
				<path id="Apercu-4e" d="M51.6,70h8.8V0H50.1L18.5,54.5V0H9.7v70H20l31.6-54.7V70z"/>
			</g>
			<g>
				<path id="Apercu-61_1_" d="M84.3,14.5c0-2.4,0.7-4.3,2.1-5.7c1.4-1.4,3.5-2,6.2-2c3.8,0,7.1,1.2,9.9,3.7
					c2.8,2.5,4.2,6.4,4.2,11.7v1.2h-9c-4.3,0-7.6-0.8-9.9-2.3C85.5,19.6,84.3,17.4,84.3,14.5z M115.1,32.2V0h-6.6l-1.4,7.1
					c-3.7-5.3-8.9-7.9-15.8-7.9C86.8-0.8,83,0.5,80.1,3s-4.4,6.4-4.4,11.5c0,5.3,2,9.4,6.1,12.3c4.1,2.8,9.6,4.3,16.7,4.3h8.2v2.2
					c0,6.9-3.7,10.4-11,10.4c-2.7,0-4.9-0.7-6.8-2.1c-1.9-1.4-3.1-3.3-3.7-5.8l-7.4,1.7c0.7,4.3,2.6,7.6,5.9,10.1
					c3.3,2.5,7.3,3.7,12,3.7c5.9,0,10.6-1.6,14.1-4.7S115.1,38.6,115.1,32.2z"/>
			</g>
			<g>
				<path id="Apercu-69_2_" d="M131.2,50.4h8.4V0h-8.4V50.4z M129.1,64.4c0,1.8,0.6,3.3,1.8,4.5c1.2,1.2,2.7,1.9,4.5,1.9
					c1.8,0,3.3-0.6,4.5-1.9c1.2-1.2,1.8-2.7,1.8-4.5c0-1.7-0.6-3.2-1.8-4.4c-1.2-1.2-2.7-1.8-4.5-1.8c-1.8,0-3.3,0.6-4.5,1.8
					C129.7,61.2,129.1,62.7,129.1,64.4z"/>
			</g>
			<g>
				<path id="Apercu-76" d="M184,50.4h8.6L176,0h-8.6l-16.6,50.4h8.6l12.3-39.7L184,50.4z"/>
			</g>
			<g>
				<path id="Apercu-65_8_" d="M245.5,27.3v-3.9h-37c0.3-4.9,1.6-8.9,4-12c2.4-3.1,5.8-4.6,10.2-4.6c3.5,0,6.4,0.8,8.5,2.3
					c2.2,1.6,4,4,5.5,7.3l7.4-3.2c-2.3-4.9-5.2-8.5-8.5-10.7c-3.4-2.2-7.6-3.3-12.8-3.3c-7.3,0-12.9,2.5-16.9,7.5
					c-4,5-5.9,11.2-5.9,18.4c0,7.3,2,13.4,5.9,18.5c4,5,9.6,7.6,16.9,7.6c7.1,0,12.7-2.3,16.8-7S245.5,34,245.5,27.3z M222.7,43.6
					c-3.7,0-6.8-1.1-9.1-3.4c-2.3-2.3-3.8-5.3-4.6-9.2h27.7c-0.8,3.8-2.4,6.8-4.7,9.1C229.7,42.4,226.6,43.6,222.7,43.6z"/>
			</g>
			<g>
				<path id="Apercu-20_4_" d="M250.5,0"/>
			</g>
			<g>
				<path id="Apercu-74_3_" d="M279.8,42.8v7.6h8.7v15.1l8.4,5.3V50.4h13.2v-7.6h-13.2V15.1c0-2.7,0.6-4.7,1.8-6.2
					c1.2-1.4,2.8-2.1,5-2.1c2.2,0,4.1,0.5,5.7,1.6l2-7.3c-2.2-1.3-4.9-1.9-8.2-1.9c-4.5,0-8,1.4-10.7,4.2c-2.6,2.8-3.9,6.9-3.9,12.4
					v27H279.8z"/>
			</g>
			<g>
				<path id="Apercu-72_6_" d="M354.4,49.7l-1.7-7.5c-1.9,0.9-3.8,1.4-5.9,1.4c-3.8,0-7.1-2.2-9.9-6.5c-2.8-4.3-4.2-10.3-4.2-18V0
					h-8.4v50.4h8.4v-8.6c1.5,2.8,3.6,5.1,6.4,6.8c2.8,1.7,5.6,2.6,8.4,2.6C350.2,51.2,352.5,50.7,354.4,49.7z"/>
			</g>
			<g>
				<path id="Apercu-65_9_" d="M407.4,27.3v-3.9h-37c0.3-4.9,1.6-8.9,4-12c2.4-3.1,5.8-4.6,10.2-4.6c3.5,0,6.4,0.8,8.5,2.3
					c2.2,1.6,4,4,5.5,7.3l7.4-3.2c-2.3-4.9-5.2-8.5-8.5-10.7c-3.4-2.2-7.6-3.3-12.8-3.3c-7.3,0-12.9,2.5-16.9,7.5
					c-4,5-5.9,11.2-5.9,18.4c0,7.3,2,13.4,5.9,18.5c4,5,9.6,7.6,16.9,7.6c7.1,0,12.7-2.3,16.8-7S407.4,34,407.4,27.3z M384.6,43.6
					c-3.7,0-6.8-1.1-9.1-3.4c-2.3-2.3-3.8-5.3-4.6-9.2h27.7c-0.8,3.8-2.4,6.8-4.7,9.1C391.6,42.4,388.5,43.6,384.6,43.6z"/>
			</g>
			<g>
				<path id="Apercu-65_10_" d="M463.4,27.3v-3.9h-37c0.3-4.9,1.6-8.9,4-12c2.4-3.1,5.8-4.6,10.2-4.6c3.5,0,6.4,0.8,8.5,2.3
					c2.2,1.6,4,4,5.5,7.3l7.4-3.2c-2.3-4.9-5.2-8.5-8.5-10.7c-3.4-2.2-7.6-3.3-12.8-3.3c-7.3,0-12.9,2.5-16.9,7.5
					c-4,5-5.9,11.2-5.9,18.4c0,7.3,2,13.4,5.9,18.5c4,5,9.6,7.6,16.9,7.6c7.1,0,12.7-2.3,16.8-7S463.4,34,463.4,27.3z M440.6,43.6
					c-3.7,0-6.8-1.1-9.1-3.4c-2.3-2.3-3.8-5.3-4.6-9.2h27.7c-0.8,3.8-2.4,6.8-4.7,9.1C447.6,42.4,444.5,43.6,440.6,43.6z"/>
			</g>
			<g>
				<path id="Apercu-20_5_" d="M468.4,0"/>
			</g>
			<g>
				<path id="Apercu-64_1_" d="M523,51.2c3,0,6-0.7,8.9-2.2c2.9-1.5,4.9-3,5.8-4.6v26.4h8.4V0h-8.4v6.2c-1.3-1.9-3.3-3.6-6.1-5
					c-2.8-1.4-5.6-2-8.6-2c-7.2,0-12.7,2.4-16.6,7.1c-3.9,4.8-5.8,11.1-5.8,18.9s1.9,14.1,5.8,18.8C510.3,48.8,515.8,51.2,523,51.2z
					 M523.8,6.8c4.5,0,8.1,1.7,10.7,5.1c2.6,3.4,3.9,7.8,3.9,13.3s-1.3,9.9-3.9,13.3c-2.6,3.4-6.2,5.1-10.7,5.1
					c-4.4,0-7.9-1.7-10.6-5.1c-2.7-3.4-4-7.8-4-13.3s1.3-9.9,4-13.3C515.9,8.5,519.4,6.8,523.8,6.8z"/>
			</g>
			<g>
				<path id="Apercu-69_3_" d="M564.5,50.4h8.4V0h-8.4V50.4z M562.5,64.4c0,1.8,0.6,3.3,1.8,4.5c1.2,1.2,2.7,1.9,4.5,1.9
					s3.3-0.6,4.5-1.9c1.2-1.2,1.8-2.7,1.8-4.5c0-1.7-0.6-3.2-1.8-4.4c-1.2-1.2-2.7-1.8-4.5-1.8s-3.3,0.6-4.5,1.8
					S562.5,62.7,562.5,64.4z"/>
			</g>
			<g>
				<path id="Apercu-73_2_" d="M605.8,51.2c6.1,0,11-2.6,14.6-7.7l-5.7-4.9c-3.1,3.3-6.1,5-9.2,5c-1.7,0-3.2-0.6-4.3-1.7
					c-1.2-1.1-1.8-2.7-1.8-4.7c0-1.7,0.8-3.1,2.4-4.3c1.6-1.2,3.6-2.2,5.9-3.1c2.3-0.9,4.6-1.9,6.9-3c2.3-1.1,4.3-2.6,5.8-4.5
					c1.6-2,2.4-4.3,2.4-7c0-5-1.5-8.9-4.5-11.8s-7.1-4.3-12.2-4.3c-4.7,0-8.7,1.3-11.9,3.9c-3.2,2.6-5.5,5.8-7,9.7l7.1,3.9
					c2.7-6.6,6.6-9.9,11.7-9.9c5.4,0,8.1,2.6,8.1,7.9c0,1.7-0.8,3.1-2.4,4.3c-1.6,1.2-3.5,2.2-5.8,3c-2.3,0.8-4.5,1.8-6.8,2.8
					c-2.3,1.1-4.2,2.7-5.8,4.8c-1.6,2.1-2.4,4.7-2.4,7.7c0,4,1.3,7.3,4,10C597.8,49.9,601.4,51.2,605.8,51.2z"/>
			</g>
			<g>
				<path id="Apercu-74_4_" d="M630.8,42.8v7.6h8.7v15.1l8.4,5.3V50.4h13.2v-7.6h-13.2V15.1c0-2.7,0.6-4.7,1.8-6.2
					c1.2-1.4,2.8-2.1,5-2.1c2.2,0,4.1,0.5,5.7,1.6l2-7.3c-2.2-1.3-4.9-1.9-8.2-1.9c-4.5,0-8,1.4-10.7,4.2c-2.6,2.8-3.9,6.9-3.9,12.4
					v27H630.8z"/>
			</g>
			<g>
				<path id="Apercu-61_2_" d="M680.3,14.5c0-2.4,0.7-4.3,2.1-5.7c1.4-1.4,3.5-2,6.2-2c3.8,0,7.1,1.2,9.9,3.7
					c2.8,2.5,4.2,6.4,4.2,11.7v1.2h-9c-4.3,0-7.6-0.8-9.9-2.3C681.5,19.6,680.3,17.4,680.3,14.5z M711.1,32.2V0h-6.6l-1.4,7.1
					c-3.7-5.3-8.9-7.9-15.8-7.9c-4.5,0-8.3,1.3-11.2,3.8s-4.4,6.4-4.4,11.5c0,5.3,2,9.4,6.1,12.3c4.1,2.8,9.6,4.3,16.7,4.3h8.2v2.2
					c0,6.9-3.7,10.4-11,10.4c-2.7,0-4.9-0.7-6.8-2.1c-1.9-1.4-3.1-3.3-3.7-5.8l-7.4,1.7c0.7,4.3,2.6,7.6,5.9,10.1
					c3.3,2.5,7.3,3.7,12,3.7c5.9,0,10.6-1.6,14.1-4.7S711.1,38.6,711.1,32.2z"/>
			</g>
			<g>
				<path id="Apercu-6e_1_" d="M767,35.5V0h-8.4v33.3c0,6.9-2.9,10.3-8.7,10.3c-3.9,0-7.3-2.1-10.2-6.2c-2.8-4.1-4.3-9.6-4.3-16.3V0
					h-8.4v50.4h8.4v-9.3c3.8,6.7,9.4,10.1,16.7,10.1c4.6,0,8.2-1.4,10.8-4.1C765.7,44.4,767,40.5,767,35.5z"/>
			</g>
			<g>
				<path id="Apercu-63_4_" d="M817.7,16.1l7.3-3c-4.1-9.3-11.1-13.9-21.1-13.9c-7.3,0-13,2.5-17,7.5c-4,5-5.9,11.2-5.9,18.4
					c0,7.3,2,13.4,5.9,18.5c4,5,9.6,7.6,17,7.6c10,0,17-4.6,21.1-13.9l-7.3-3c-2.7,6.2-7.3,9.3-13.8,9.3c-4.7,0-8.2-1.7-10.7-5.2
					c-2.4-3.4-3.6-7.8-3.6-13.3c0-5.4,1.2-9.8,3.6-13.3c2.4-3.4,6-5.1,10.7-5.1C810.4,6.8,815,9.9,817.7,16.1z"/>
			</g>
			<g>
				<path id="Apercu-65_11_" d="M880.4,27.3v-3.9h-37c0.3-4.9,1.6-8.9,4-12c2.4-3.1,5.8-4.6,10.2-4.6c3.5,0,6.4,0.8,8.5,2.3
					c2.2,1.6,4,4,5.5,7.3l7.4-3.2c-2.3-4.9-5.2-8.5-8.5-10.7c-3.4-2.2-7.6-3.3-12.8-3.3c-7.3,0-12.9,2.5-16.9,7.5
					c-4,5-5.9,11.2-5.9,18.4c0,7.3,2,13.4,5.9,18.5c4,5,9.6,7.6,16.9,7.6c7.1,0,12.7-2.3,16.8-7S880.4,34,880.4,27.3z M857.6,43.6
					c-3.7,0-6.8-1.1-9.1-3.4c-2.3-2.3-3.8-5.3-4.6-9.2h27.7c-0.8,3.8-2.4,6.8-4.7,9.1C864.6,42.4,861.5,43.6,857.6,43.6z"/>
			</g>
			<g>
				<path id="Apercu-20_6_" d="M885.4,0"/>
			</g>
			<g>
				<path id="Apercu-73_3_" d="M935.8,51.2c6.1,0,11-2.6,14.6-7.7l-5.7-4.9c-3.1,3.3-6.1,5-9.2,5c-1.7,0-3.2-0.6-4.3-1.7
					c-1.2-1.1-1.8-2.7-1.8-4.7c0-1.7,0.8-3.1,2.4-4.3c1.6-1.2,3.6-2.2,5.9-3.1c2.3-0.9,4.6-1.9,6.9-3c2.3-1.1,4.3-2.6,5.8-4.5
					c1.6-2,2.4-4.3,2.4-7c0-5-1.5-8.9-4.5-11.8s-7.1-4.3-12.2-4.3c-4.7,0-8.7,1.3-11.9,3.9c-3.2,2.6-5.5,5.8-7,9.7l7.1,3.9
					c2.7-6.6,6.6-9.9,11.7-9.9c5.4,0,8.1,2.6,8.1,7.9c0,1.7-0.8,3.1-2.4,4.3c-1.6,1.2-3.5,2.2-5.8,3c-2.3,0.8-4.5,1.8-6.8,2.8
					c-2.3,1.1-4.2,2.7-5.8,4.8c-1.6,2.1-2.4,4.7-2.4,7.7c0,4,1.3,7.3,4,10C927.7,49.9,931.3,51.2,935.8,51.2z"/>
			</g>
			<g>
				<path id="Apercu-63_5_" d="M1000.4,16.1l7.3-3c-4.1-9.3-11.1-13.9-21.1-13.9c-7.3,0-13,2.5-17,7.5c-4,5-5.9,11.2-5.9,18.4
					c0,7.3,2,13.4,5.9,18.5c4,5,9.6,7.6,17,7.6c10,0,17-4.6,21.1-13.9l-7.3-3c-2.7,6.2-7.3,9.3-13.8,9.3c-4.7,0-8.2-1.7-10.7-5.2
					c-2.4-3.4-3.6-7.8-3.6-13.3c0-5.4,1.2-9.8,3.6-13.3c2.4-3.4,6-5.1,10.7-5.1C993.1,6.8,997.7,9.9,1000.4,16.1z"/>
			</g>
			<g>
				<path id="Apercu-6f_6_" d="M1024.1,6.8c-4.4,5.1-6.6,11.3-6.6,18.4s2.2,13.3,6.6,18.3c4.4,5.1,10.3,7.7,17.5,7.7
					c7.3,0,13.1-2.6,17.5-7.7c4.4-5.1,6.7-11.2,6.7-18.3s-2.2-13.3-6.7-18.4c-4.4-5.1-10.3-7.6-17.5-7.6
					C1034.4-0.8,1028.6,1.7,1024.1,6.8z M1030.2,38.1c-2.7-3.6-4.1-7.9-4.1-12.9s1.4-9.3,4.1-13c2.8-3.6,6.6-5.5,11.5-5.5
					c4.9,0,8.7,1.8,11.5,5.5c2.8,3.6,4.2,8,4.2,13s-1.4,9.3-4.2,12.9c-2.8,3.6-6.6,5.5-11.5,5.5C1036.8,43.6,1033,41.8,1030.2,38.1z
					"/>
			</g>
			<g>
				<path id="Apercu-72_7_" d="M1110.6,49.7l-1.7-7.5c-1.9,0.9-3.8,1.4-5.9,1.4c-3.8,0-7.1-2.2-9.9-6.5c-2.8-4.3-4.2-10.3-4.2-18V0
					h-8.4v50.4h8.4v-8.6c1.5,2.8,3.6,5.1,6.4,6.8c2.8,1.7,5.6,2.6,8.4,2.6C1106.4,51.2,1108.7,50.7,1110.6,49.7z"/>
			</g>
			<g>
				<path id="Apercu-65_12_" d="M1163.6,27.3v-3.9h-37c0.3-4.9,1.6-8.9,4-12c2.4-3.1,5.8-4.6,10.2-4.6c3.5,0,6.4,0.8,8.5,2.3
					c2.2,1.6,4,4,5.5,7.3l7.4-3.2c-2.3-4.9-5.2-8.5-8.5-10.7s-7.6-3.3-12.8-3.3c-7.3,0-12.9,2.5-16.9,7.5c-4,5-5.9,11.2-5.9,18.4
					c0,7.3,2,13.4,5.9,18.5c4,5,9.6,7.6,16.9,7.6c7.1,0,12.7-2.3,16.8-7S1163.6,34,1163.6,27.3z M1140.8,43.6
					c-3.7,0-6.8-1.1-9.1-3.4c-2.3-2.3-3.8-5.3-4.6-9.2h27.7c-0.8,3.8-2.4,6.8-4.7,9.1C1147.8,42.4,1144.7,43.6,1140.8,43.6z"/>
			</g>
		</g>
	</g>
</g>
</svg>
