<?xml version="1.0" encoding="utf-8" standalone="no"?>
<!DOCTYPE svg PUBLIC "-//W3C//DTD SVG 1.1//EN"
  "http://www.w3.org/Graphics/SVG/1.1/DTD/svg11.dtd">
<!-- Created with matplotlib (https://matplotlib.org/) -->
<svg height="504pt" version="1.1" viewBox="0 0 648 504" width="648pt" xmlns="http://www.w3.org/2000/svg" xmlns:xlink="http://www.w3.org/1999/xlink">
 <defs>
  <style type="text/css">
*{stroke-linecap:butt;stroke-linejoin:round;}
  </style>
 </defs>
 <g id="figure_1">
  <g id="patch_1">
   <path d="M 0 504 
L 648 504 
L 648 0 
L 0 0 
z
" style="fill:#f0f0f0;"/>
  </g>
  <g id="axes_1">
   <g id="patch_2">
    <path d="M 51.84 453.6 
L 622.08 453.6 
L 622.08 50.4 
L 51.84 50.4 
z
" style="fill:#f0f0f0;"/>
   </g>
   <g id="matplotlib.axis_1">
    <g id="xtick_1">
     <g id="line2d_1">
      <path clip-path="url(#p0edd04d440)" d="M 51.84 453.6 
L 51.84 50.4 
" style="fill:none;stroke:#b0b0b0;stroke-linecap:square;stroke-width:0.8;"/>
     </g>
     <g id="line2d_2">
      <defs>
       <path d="M 0 0 
L 0 3.5 
" id="m5afc9389e2" style="stroke:#000000;stroke-width:0.8;"/>
      </defs>
      <g>
       <use style="stroke:#000000;stroke-width:0.8;" x="51.84" xlink:href="#m5afc9389e2" y="453.6"/>
      </g>
     </g>
     <g id="text_1">
      <!-- 0 -->
      <defs>
       <path d="M 48.203125 52.59375 
L 48.203125 17.40625 
Q 48.203125 9.703125 42.953125 4.34375 
Q 37.703125 -1 29.890625 -1 
Q 22.09375 -1 16.9375 4.390625 
Q 11.796875 9.796875 11.796875 17.5 
L 11.796875 52.59375 
Q 11.796875 60.296875 16.9375 65.640625 
Q 22.09375 71 29.890625 71 
Q 37.703125 71 42.953125 65.640625 
Q 48.203125 60.296875 48.203125 52.59375 
z
M 39.90625 17.296875 
L 39.90625 52.5 
Q 39.90625 56.90625 37 60 
Q 34.09375 63.09375 29.90625 63.09375 
Q 25.796875 63.09375 22.890625 60 
Q 20 56.90625 20 52.5 
L 20 17.40625 
Q 20 13 22.890625 9.953125 
Q 25.796875 6.90625 30 6.90625 
Q 34.09375 6.90625 37 9.90625 
Q 39.90625 12.90625 39.90625 17.296875 
z
" id="DecimaMonoPro-48"/>
      </defs>
      <g style="fill:#303030;" transform="translate(47.64 470.413125)scale(0.14 -0.14)">
       <use xlink:href="#DecimaMonoPro-48"/>
      </g>
     </g>
    </g>
    <g id="xtick_2">
     <g id="line2d_3">
      <path clip-path="url(#p0edd04d440)" d="M 166.002162 453.6 
L 166.002162 50.4 
" style="fill:none;stroke:#b0b0b0;stroke-linecap:square;stroke-width:0.8;"/>
     </g>
     <g id="line2d_4">
      <g>
       <use style="stroke:#000000;stroke-width:0.8;" x="166.002162" xlink:href="#m5afc9389e2" y="453.6"/>
      </g>
     </g>
     <g id="text_2">
      <!-- 200 -->
      <defs>
       <path d="M 11.703125 53 
Q 11.703125 59.703125 17.203125 65.34375 
Q 22.703125 71 30.59375 71 
Q 38.40625 71 43.796875 65.75 
Q 49.203125 60.5 49.203125 52.703125 
Q 49.203125 46.90625 46.09375 41.75 
Q 43 36.59375 38.59375 32.84375 
Q 34.203125 29.09375 29.796875 25.4375 
Q 25.40625 21.796875 22.296875 17.296875 
Q 19.203125 12.796875 19.203125 7.796875 
L 47.40625 7.796875 
Q 48.203125 7.796875 48.703125 7.296875 
Q 49.203125 6.796875 49.203125 6 
L 49.203125 1.796875 
Q 49.203125 1 48.703125 0.5 
Q 48.203125 0 47.40625 0 
L 12.59375 0 
Q 11.796875 0 11.296875 0.5 
Q 10.796875 1 10.796875 1.796875 
L 10.796875 7.296875 
Q 10.796875 13.90625 13.890625 19.453125 
Q 17 25 21.390625 28.890625 
Q 25.796875 32.796875 30.1875 36.390625 
Q 34.59375 40 37.6875 44.296875 
Q 40.796875 48.59375 40.796875 53.296875 
Q 40.796875 57.40625 37.75 60.25 
Q 34.703125 63.09375 30.5 63.09375 
Q 26.09375 63.09375 23.1875 59.6875 
Q 20.296875 56.296875 20.09375 53 
Q 19.90625 51 17.796875 51 
L 14 51 
Q 12.90625 51 12.296875 51.59375 
Q 11.703125 52.203125 11.703125 53 
z
" id="DecimaMonoPro-50"/>
      </defs>
      <g style="fill:#303030;" transform="translate(153.402162 470.413125)scale(0.14 -0.14)">
       <use xlink:href="#DecimaMonoPro-50"/>
       <use x="59.999985" xlink:href="#DecimaMonoPro-48"/>
       <use x="119.999969" xlink:href="#DecimaMonoPro-48"/>
      </g>
     </g>
    </g>
    <g id="xtick_3">
     <g id="line2d_5">
      <path clip-path="url(#p0edd04d440)" d="M 280.164324 453.6 
L 280.164324 50.4 
" style="fill:none;stroke:#b0b0b0;stroke-linecap:square;stroke-width:0.8;"/>
     </g>
     <g id="line2d_6">
      <g>
       <use style="stroke:#000000;stroke-width:0.8;" x="280.164324" xlink:href="#m5afc9389e2" y="453.6"/>
      </g>
     </g>
     <g id="text_3">
      <!-- 400 -->
      <defs>
       <path d="M 40.09375 67.5 
L 19.5 22.90625 
L 35.796875 22.90625 
L 35.796875 38.90625 
Q 35.796875 39.703125 36.390625 40.296875 
Q 37 40.90625 38.09375 40.90625 
L 42.203125 40.90625 
Q 43 40.90625 43.59375 40.25 
Q 44.203125 39.59375 44.203125 38.90625 
L 44.203125 22.90625 
L 48 22.90625 
Q 48.796875 22.90625 49.390625 22.296875 
Q 50 21.703125 50 20.59375 
L 50 17.40625 
Q 50 16.296875 49.390625 15.6875 
Q 48.796875 15.09375 48 15.09375 
L 44.203125 15.09375 
L 44.203125 2 
Q 44.203125 1.203125 43.59375 0.59375 
Q 43 0 42.203125 0 
L 38.09375 0 
Q 37 0 36.390625 0.59375 
Q 35.796875 1.203125 35.796875 2 
L 35.796875 15.09375 
L 12.09375 15.09375 
Q 9.90625 15.09375 9.90625 17.40625 
L 9.90625 21.296875 
Q 9.90625 22.5 11 24.703125 
L 31.296875 68 
Q 32.296875 70 34 70 
L 38.796875 70 
Q 40.5 70 40.5 68.796875 
Q 40.5 68.5 40.09375 67.5 
z
" id="DecimaMonoPro-52"/>
      </defs>
      <g style="fill:#303030;" transform="translate(267.564324 470.413125)scale(0.14 -0.14)">
       <use xlink:href="#DecimaMonoPro-52"/>
       <use x="59.999985" xlink:href="#DecimaMonoPro-48"/>
       <use x="119.999969" xlink:href="#DecimaMonoPro-48"/>
      </g>
     </g>
    </g>
    <g id="xtick_4">
     <g id="line2d_7">
      <path clip-path="url(#p0edd04d440)" d="M 394.326486 453.6 
L 394.326486 50.4 
" style="fill:none;stroke:#b0b0b0;stroke-linecap:square;stroke-width:0.8;"/>
     </g>
     <g id="line2d_8">
      <g>
       <use style="stroke:#000000;stroke-width:0.8;" x="394.326486" xlink:href="#m5afc9389e2" y="453.6"/>
      </g>
     </g>
     <g id="text_4">
      <!-- 600 -->
      <defs>
       <path d="M 11 60.203125 
Q 21.59375 71 29.5 71 
Q 37.40625 71 42.65625 65.953125 
Q 47.90625 60.90625 47.90625 54.40625 
Q 47.90625 53.59375 47.296875 53 
Q 46.703125 52.40625 45.59375 52.40625 
L 41.796875 52.40625 
Q 39.703125 52.40625 39.5 54.40625 
Q 39.296875 57.59375 36.640625 60.296875 
Q 34 63 29.5 63 
Q 25.203125 63 22.25 59.890625 
Q 19.296875 56.796875 19.296875 52.40625 
L 19.296875 42.796875 
Q 19.703125 43.296875 20.59375 44.046875 
Q 21.5 44.796875 24.546875 46 
Q 27.59375 47.203125 31 47.203125 
Q 38.40625 47.203125 43.703125 42 
Q 49 36.796875 49 28.90625 
L 49 17.5 
Q 49 9.796875 43.546875 4.390625 
Q 38.09375 -1 30 -1 
Q 21.90625 -1 16.453125 4.34375 
Q 11 9.703125 11 17.40625 
L 11 52.5 
Q 11 60.203125 21.59375 71 
z
M 30 39.296875 
Q 25.40625 39.296875 22.34375 36.390625 
Q 19.296875 33.5 19.296875 28.796875 
L 19.296875 17.296875 
Q 19.296875 12.90625 22.390625 9.90625 
Q 25.5 6.90625 30 6.90625 
Q 34.40625 6.90625 37.5 9.953125 
Q 40.59375 13 40.59375 17.40625 
L 40.59375 28.796875 
Q 40.59375 33.40625 37.546875 36.34375 
Q 34.5 39.296875 30 39.296875 
z
" id="DecimaMonoPro-54"/>
      </defs>
      <g style="fill:#303030;" transform="translate(381.726486 470.413125)scale(0.14 -0.14)">
       <use xlink:href="#DecimaMonoPro-54"/>
       <use x="59.999985" xlink:href="#DecimaMonoPro-48"/>
       <use x="119.999969" xlink:href="#DecimaMonoPro-48"/>
      </g>
     </g>
    </g>
    <g id="xtick_5">
     <g id="line2d_9">
      <path clip-path="url(#p0edd04d440)" d="M 508.488649 453.6 
L 508.488649 50.4 
" style="fill:none;stroke:#b0b0b0;stroke-linecap:square;stroke-width:0.8;"/>
     </g>
     <g id="line2d_10">
      <g>
       <use style="stroke:#000000;stroke-width:0.8;" x="508.488649" xlink:href="#m5afc9389e2" y="453.6"/>
      </g>
     </g>
     <g id="text_5">
      <!-- 800 -->
      <defs>
       <path d="M 48.09375 53.5 
L 48.09375 49.796875 
Q 48.09375 41.5 41.796875 36.40625 
Q 49 30.796875 49 21.703125 
L 49 17.40625 
Q 49 9.703125 43.640625 4.34375 
Q 38.296875 -1 30.5 -1 
L 29.59375 -1 
Q 21.796875 -1 16.390625 4.390625 
Q 11 9.796875 11 17.5 
L 11 21.703125 
Q 11 30.703125 18.296875 36.40625 
Q 11.796875 41.296875 11.796875 49.90625 
L 11.796875 53.5 
Q 11.796875 60.796875 16.9375 65.890625 
Q 22.09375 71 29.5 71 
L 30.40625 71 
Q 37.796875 71 42.9375 65.890625 
Q 48.09375 60.796875 48.09375 53.5 
z
M 40.59375 17.296875 
L 40.59375 21.59375 
Q 40.59375 26 37.5 29.09375 
Q 34.40625 32.203125 30 32.203125 
Q 25.59375 32.203125 22.5 29.09375 
Q 19.40625 26 19.40625 21.59375 
L 19.40625 17.40625 
Q 19.40625 13 22.546875 9.953125 
Q 25.703125 6.90625 30.203125 6.90625 
Q 34.5 6.90625 37.546875 9.90625 
Q 40.59375 12.90625 40.59375 17.296875 
z
M 39.703125 49.703125 
L 39.703125 53.09375 
Q 39.703125 57.296875 36.84375 60.1875 
Q 34 63.09375 29.796875 63.09375 
Q 25.796875 63.09375 23 60.1875 
Q 20.203125 57.296875 20.203125 53.09375 
L 20.203125 49.796875 
Q 20.203125 45.90625 22.84375 43 
Q 25.5 40.09375 29.59375 40.09375 
L 30.5 40.09375 
Q 34.296875 40.09375 37 42.84375 
Q 39.703125 45.59375 39.703125 49.703125 
z
" id="DecimaMonoPro-56"/>
      </defs>
      <g style="fill:#303030;" transform="translate(495.888649 470.413125)scale(0.14 -0.14)">
       <use xlink:href="#DecimaMonoPro-56"/>
       <use x="59.999985" xlink:href="#DecimaMonoPro-48"/>
       <use x="119.999969" xlink:href="#DecimaMonoPro-48"/>
      </g>
     </g>
    </g>
    <g id="text_6">
     <!-- Iterations -->
     <defs>
      <path d="M 9.703125 70 
L 18.5 70 
L 18.5 0 
L 9.703125 0 
z
" id="Apercu-73"/>
      <path d="M 2.5 42.796875 
L 2.5 50.40625 
L 11.203125 50.40625 
L 11.203125 65.5 
L 19.59375 70.796875 
L 19.59375 50.40625 
L 32.796875 50.40625 
L 32.796875 42.796875 
L 19.59375 42.796875 
L 19.59375 15.09375 
Q 19.59375 11.09375 21.34375 8.9375 
Q 23.09375 6.796875 26.296875 6.796875 
Q 29.59375 6.796875 32 8.40625 
L 34 1.09375 
Q 30.703125 -0.796875 25.796875 -0.796875 
Q 19.09375 -0.796875 15.140625 3.390625 
Q 11.203125 7.59375 11.203125 15.796875 
L 11.203125 42.796875 
z
" id="Apercu-116"/>
      <path d="M 51 27.296875 
L 51 23.40625 
L 14 23.40625 
Q 14.40625 16 18.046875 11.390625 
Q 21.703125 6.796875 28.203125 6.796875 
Q 33.5 6.796875 36.75 9.140625 
Q 40 11.5 42.203125 16.40625 
L 49.59375 13.203125 
Q 46.09375 5.796875 41.046875 2.5 
Q 36 -0.796875 28.203125 -0.796875 
Q 17.296875 -0.796875 11.34375 6.75 
Q 5.40625 14.296875 5.40625 25.1875 
Q 5.40625 36.09375 11.34375 43.640625 
Q 17.296875 51.203125 28.203125 51.203125 
Q 38.90625 51.203125 44.953125 44.25 
Q 51 37.296875 51 27.296875 
z
M 28.203125 43.59375 
Q 22.59375 43.59375 19.140625 40.1875 
Q 15.703125 36.796875 14.5 31 
L 42.203125 31 
Q 41 36.703125 37.5 40.140625 
Q 34 43.59375 28.203125 43.59375 
z
" id="Apercu-101"/>
      <path d="M 39.296875 49.703125 
L 37.59375 42.203125 
Q 34.796875 43.59375 31.703125 43.59375 
Q 26 43.59375 21.796875 37.140625 
Q 17.59375 30.703125 17.59375 19.09375 
L 17.59375 0 
L 9.203125 0 
L 9.203125 50.40625 
L 17.59375 50.40625 
L 17.59375 41.796875 
Q 19.796875 46 24 48.59375 
Q 28.203125 51.203125 32.40625 51.203125 
Q 36.5 51.203125 39.296875 49.703125 
z
" id="Apercu-114"/>
      <path d="M 14.203125 14.5 
Q 14.203125 10.90625 16.34375 8.84375 
Q 18.5 6.796875 22.5 6.796875 
Q 28.203125 6.796875 32.390625 10.546875 
Q 36.59375 14.296875 36.59375 22.203125 
L 36.59375 23.40625 
L 27.59375 23.40625 
Q 21.203125 23.40625 17.703125 21.09375 
Q 14.203125 18.796875 14.203125 14.5 
z
M 45 32.203125 
L 45 0 
L 38.40625 0 
L 37 7.09375 
Q 31.5 -0.796875 21.203125 -0.796875 
Q 14.40625 -0.796875 10 3 
Q 5.59375 6.796875 5.59375 14.5 
Q 5.59375 22.5 11.6875 26.75 
Q 17.796875 31 28.40625 31 
L 36.59375 31 
L 36.59375 33.203125 
Q 36.59375 43.59375 25.59375 43.59375 
Q 21.59375 43.59375 18.75 41.5 
Q 15.90625 39.40625 15.09375 35.703125 
L 7.703125 37.40625 
Q 8.703125 43.796875 13.59375 47.5 
Q 18.5 51.203125 25.59375 51.203125 
Q 34.40625 51.203125 39.703125 46.5 
Q 45 41.796875 45 32.203125 
z
" id="Apercu-97"/>
      <path d="M 9.296875 50.40625 
L 17.703125 50.40625 
L 17.703125 0 
L 9.296875 0 
z
M 7.203125 64.40625 
Q 7.203125 67.09375 9 68.9375 
Q 10.796875 70.796875 13.5 70.796875 
Q 16.203125 70.796875 18 68.9375 
Q 19.796875 67.09375 19.796875 64.40625 
Q 19.796875 61.796875 18 60 
Q 16.203125 58.203125 13.5 58.203125 
Q 10.796875 58.203125 9 60 
Q 7.203125 61.796875 7.203125 64.40625 
z
" id="Apercu-105"/>
      <path d="M 12 6.796875 
Q 5.40625 14.5 5.40625 25.203125 
Q 5.40625 35.90625 12.046875 43.546875 
Q 18.703125 51.203125 29.59375 51.203125 
Q 40.5 51.203125 47.140625 43.546875 
Q 53.796875 35.90625 53.796875 25.203125 
Q 53.796875 14.5 47.140625 6.84375 
Q 40.5 -0.796875 29.59375 -0.796875 
Q 18.703125 -0.796875 12 6.796875 
z
M 18.09375 38.09375 
Q 14 32.703125 14 25.203125 
Q 14 17.703125 18.140625 12.25 
Q 22.296875 6.796875 29.59375 6.796875 
Q 36.90625 6.796875 41.046875 12.25 
Q 45.203125 17.703125 45.203125 25.203125 
Q 45.203125 32.703125 41.046875 38.140625 
Q 36.90625 43.59375 29.59375 43.59375 
Q 22.296875 43.59375 18.09375 38.09375 
z
" id="Apercu-111"/>
      <path d="M 49.09375 35.5 
L 49.09375 0 
L 40.703125 0 
L 40.703125 33.296875 
Q 40.703125 43.59375 32 43.59375 
Q 26.09375 43.59375 21.84375 37.390625 
Q 17.59375 31.203125 17.59375 21.09375 
L 17.59375 0 
L 9.203125 0 
L 9.203125 50.40625 
L 17.59375 50.40625 
L 17.59375 41.09375 
Q 23.296875 51.203125 34.296875 51.203125 
Q 41.203125 51.203125 45.140625 47.09375 
Q 49.09375 43 49.09375 35.5 
z
" id="Apercu-110"/>
      <path d="M 23.59375 51.203125 
Q 32.796875 51.203125 38.203125 43.5 
L 32.5 38.59375 
Q 27.90625 43.59375 23.296875 43.59375 
Q 20.703125 43.59375 18.953125 41.890625 
Q 17.203125 40.203125 17.203125 37.203125 
Q 17.203125 34.703125 19.59375 32.890625 
Q 22 31.09375 25.453125 29.75 
Q 28.90625 28.40625 32.34375 26.796875 
Q 35.796875 25.203125 38.1875 22.25 
Q 40.59375 19.296875 40.59375 15.203125 
Q 40.59375 7.703125 36.09375 3.453125 
Q 31.59375 -0.796875 23.90625 -0.796875 
Q 16.796875 -0.796875 12.046875 3.09375 
Q 7.296875 7 5.09375 12.796875 
L 12.203125 16.703125 
Q 16.203125 6.796875 23.90625 6.796875 
Q 32 6.796875 32 14.703125 
Q 32 17.203125 29.59375 19 
Q 27.203125 20.796875 23.796875 22.046875 
Q 20.40625 23.296875 17 24.890625 
Q 13.59375 26.5 11.1875 29.640625 
Q 8.796875 32.796875 8.796875 37.296875 
Q 8.796875 43.296875 12.84375 47.25 
Q 16.90625 51.203125 23.59375 51.203125 
z
" id="Apercu-115"/>
     </defs>
     <g style="opacity:0.75;" transform="translate(283.81875 493.924375)scale(0.24 -0.24)">
      <use xlink:href="#Apercu-73"/>
      <use x="28.199997" xlink:href="#Apercu-116"/>
      <use x="65.999985" xlink:href="#Apercu-101"/>
      <use x="121.984344" xlink:href="#Apercu-114"/>
      <use x="163.268707" xlink:href="#Apercu-97"/>
      <use x="215.068695" xlink:href="#Apercu-116"/>
      <use x="252.868683" xlink:href="#Apercu-105"/>
      <use x="279.868668" xlink:href="#Apercu-111"/>
      <use x="339.068665" xlink:href="#Apercu-110"/>
      <use x="396.753036" xlink:href="#Apercu-115"/>
     </g>
    </g>
   </g>
   <g id="matplotlib.axis_2">
    <g id="ytick_1">
     <g id="line2d_11">
      <path clip-path="url(#p0edd04d440)" d="M 51.84 435.272727 
L 622.08 435.272727 
" style="fill:none;stroke:#b0b0b0;stroke-linecap:square;stroke-width:0.8;"/>
     </g>
     <g id="line2d_12">
      <defs>
       <path d="M 0 0 
L -3.5 0 
" id="md95bebcc14" style="stroke:#000000;stroke-width:0.8;"/>
      </defs>
      <g>
       <use style="stroke:#000000;stroke-width:0.8;" x="51.84" xlink:href="#md95bebcc14" y="435.272727"/>
      </g>
     </g>
     <g id="text_7">
      <!-- 0 -->
      <g style="fill:#303030;" transform="translate(36.44 440.17929)scale(0.14 -0.14)">
       <use xlink:href="#DecimaMonoPro-48"/>
      </g>
     </g>
    </g>
    <g id="ytick_2">
     <g id="line2d_13">
      <path clip-path="url(#p0edd04d440)" d="M 51.84 357.942463 
L 622.08 357.942463 
" style="fill:none;stroke:#b0b0b0;stroke-linecap:square;stroke-width:0.8;"/>
     </g>
     <g id="line2d_14">
      <g>
       <use style="stroke:#000000;stroke-width:0.8;" x="51.84" xlink:href="#md95bebcc14" y="357.942463"/>
      </g>
     </g>
     <g id="text_8">
      <!-- 200 -->
      <g style="fill:#303030;" transform="translate(19.64 362.849025)scale(0.14 -0.14)">
       <use xlink:href="#DecimaMonoPro-50"/>
       <use x="59.999985" xlink:href="#DecimaMonoPro-48"/>
       <use x="119.999969" xlink:href="#DecimaMonoPro-48"/>
      </g>
     </g>
    </g>
    <g id="ytick_3">
     <g id="line2d_15">
      <path clip-path="url(#p0edd04d440)" d="M 51.84 280.612198 
L 622.08 280.612198 
" style="fill:none;stroke:#b0b0b0;stroke-linecap:square;stroke-width:0.8;"/>
     </g>
     <g id="line2d_16">
      <g>
       <use style="stroke:#000000;stroke-width:0.8;" x="51.84" xlink:href="#md95bebcc14" y="280.612198"/>
      </g>
     </g>
     <g id="text_9">
      <!-- 400 -->
      <g style="fill:#303030;" transform="translate(19.64 285.51876)scale(0.14 -0.14)">
       <use xlink:href="#DecimaMonoPro-52"/>
       <use x="59.999985" xlink:href="#DecimaMonoPro-48"/>
       <use x="119.999969" xlink:href="#DecimaMonoPro-48"/>
      </g>
     </g>
    </g>
    <g id="ytick_4">
     <g id="line2d_17">
      <path clip-path="url(#p0edd04d440)" d="M 51.84 203.281933 
L 622.08 203.281933 
" style="fill:none;stroke:#b0b0b0;stroke-linecap:square;stroke-width:0.8;"/>
     </g>
     <g id="line2d_18">
      <g>
       <use style="stroke:#000000;stroke-width:0.8;" x="51.84" xlink:href="#md95bebcc14" y="203.281933"/>
      </g>
     </g>
     <g id="text_10">
      <!-- 600 -->
      <g style="fill:#303030;" transform="translate(19.64 208.188496)scale(0.14 -0.14)">
       <use xlink:href="#DecimaMonoPro-54"/>
       <use x="59.999985" xlink:href="#DecimaMonoPro-48"/>
       <use x="119.999969" xlink:href="#DecimaMonoPro-48"/>
      </g>
     </g>
    </g>
    <g id="ytick_5">
     <g id="line2d_19">
      <path clip-path="url(#p0edd04d440)" d="M 51.84 125.951669 
L 622.08 125.951669 
" style="fill:none;stroke:#b0b0b0;stroke-linecap:square;stroke-width:0.8;"/>
     </g>
     <g id="line2d_20">
      <g>
       <use style="stroke:#000000;stroke-width:0.8;" x="51.84" xlink:href="#md95bebcc14" y="125.951669"/>
      </g>
     </g>
     <g id="text_11">
      <!-- 800 -->
      <g style="fill:#303030;" transform="translate(19.64 130.858231)scale(0.14 -0.14)">
       <use xlink:href="#DecimaMonoPro-56"/>
       <use x="59.999985" xlink:href="#DecimaMonoPro-48"/>
       <use x="119.999969" xlink:href="#DecimaMonoPro-48"/>
      </g>
     </g>
    </g>
    <g id="text_12">
     <!-- y -->
     <defs>
      <path d="M 36 50.40625 
L 44.796875 50.40625 
L 19.796875 -20.40625 
L 11.203125 -20.40625 
L 19.203125 2.09375 
L 1.5 50.40625 
L 10.703125 50.40625 
L 23.5 14 
z
" id="Apercu-121"/>
     </defs>
     <g style="opacity:0.75;" transform="translate(12.783125 255.22)rotate(-90)scale(0.14 -0.14)">
      <use xlink:href="#Apercu-121"/>
     </g>
    </g>
   </g>
   <g id="line2d_21">
    <path clip-path="url(#p0edd04d440)" d="M 51.84 139.484465 
L 52.410811 137.93786 
L 53.552432 135.617952 
L 54.123243 135.617952 
L 54.694054 136.004603 
L 55.264865 136.777906 
L 55.835676 142.577675 
L 56.406486 163.070196 
L 56.977297 169.256617 
L 57.548108 197.095512 
L 58.118919 215.654776 
L 58.68973 248.133487 
L 60.402162 274.812428 
L 60.972973 280.612198 
L 62.114595 286.411968 
L 62.685405 287.18527 
L 63.256216 286.025316 
L 63.827027 282.932106 
L 64.397838 277.905639 
L 64.968649 271.719217 
L 65.539459 267.852704 
L 67.251892 258.186421 
L 67.822703 252.386651 
L 68.964324 243.10702 
L 70.105946 238.853855 
L 71.247568 235.760644 
L 71.818378 233.827388 
L 72.389189 233.054085 
L 72.96 231.50748 
L 74.101622 230.734177 
L 75.243243 230.734177 
L 75.814054 231.120829 
L 76.384865 231.894131 
L 77.526486 232.667434 
L 79.238919 232.667434 
L 80.380541 233.440736 
L 80.951351 234.987342 
L 81.522162 240.787112 
L 82.663784 257.026467 
L 83.234595 261.279632 
L 83.805405 264.372842 
L 84.947027 268.626007 
L 85.517838 268.626007 
L 86.088649 269.012658 
L 86.659459 269.012658 
L 87.23027 269.785961 
L 89.513514 269.785961 
L 90.084324 270.172612 
L 94.650811 270.172612 
L 95.221622 266.306099 
L 96.363243 254.706559 
L 96.934054 241.947066 
L 97.504865 224.161105 
L 98.075676 209.855006 
L 99.217297 168.096663 
L 99.788108 153.403913 
L 100.358919 129.818182 
L 101.500541 106.619102 
L 103.212973 83.420023 
L 104.354595 75.300345 
L 104.925405 72.980437 
L 105.496216 71.820483 
L 106.067027 71.047181 
L 107.208649 70.273878 
L 107.779459 69.500575 
L 108.921081 68.727273 
L 110.062703 68.727273 
L 110.633514 69.500575 
L 111.204324 69.887227 
L 111.775135 70.660529 
L 112.345946 72.593786 
L 112.916757 76.460299 
L 113.487568 78.780207 
L 116.912432 99.659379 
L 117.483243 102.365938 
L 118.054054 104.299194 
L 118.624865 107.392405 
L 121.478919 119.378596 
L 124.332973 139.871116 
L 124.903784 143.350978 
L 125.474595 148.377445 
L 126.045405 154.950518 
L 127.757838 166.936709 
L 128.899459 172.736479 
L 129.47027 176.216341 
L 131.753514 192.842348 
L 132.895135 197.095512 
L 133.465946 199.802071 
L 135.749189 213.334868 
L 136.32 216.041427 
L 137.461622 219.134638 
L 138.603243 221.454545 
L 139.744865 223.001151 
L 140.886486 225.321059 
L 141.457297 226.867664 
L 142.598919 230.734177 
L 144.311351 241.173763 
L 146.594595 248.520138 
L 147.165405 250.066743 
L 148.307027 252.386651 
L 148.877838 253.159954 
L 149.448649 254.706559 
L 150.019459 255.866513 
L 150.59027 256.639816 
L 151.161081 258.573072 
L 151.731892 259.346375 
L 152.302703 259.733026 
L 152.873514 261.279632 
L 153.444324 263.212888 
L 154.015135 263.986191 
L 154.585946 265.919448 
L 155.727568 268.239356 
L 156.298378 269.785961 
L 157.44 272.105869 
L 158.010811 273.652474 
L 159.152432 275.199079 
L 159.723243 277.132336 
L 160.294054 278.29229 
L 160.864865 279.065593 
L 161.435676 281.772152 
L 162.577297 284.865362 
L 163.148108 285.638665 
L 163.718919 287.958573 
L 164.28973 289.118527 
L 164.860541 289.89183 
L 165.431351 291.438435 
L 166.002162 292.211738 
L 166.572973 293.371692 
L 167.143784 294.144994 
L 167.714595 295.304948 
L 168.285405 296.078251 
L 168.856216 297.624856 
L 169.427027 298.011507 
L 169.997838 298.78481 
L 170.568649 299.171461 
L 171.139459 300.331415 
L 171.71027 300.718067 
L 172.851892 302.264672 
L 173.993514 303.037975 
L 174.564324 304.197929 
L 175.135135 304.58458 
L 175.705946 305.357883 
L 176.276757 305.744534 
L 176.847568 306.517837 
L 177.989189 307.291139 
L 178.56 308.064442 
L 179.701622 308.064442 
L 180.272432 139.484465 
L 180.843243 137.93786 
L 181.984865 135.617952 
L 182.555676 135.617952 
L 183.126486 136.004603 
L 183.697297 136.777906 
L 184.268108 142.577675 
L 184.838919 163.070196 
L 185.40973 169.256617 
L 185.980541 197.095512 
L 186.551351 215.654776 
L 187.122162 248.133487 
L 188.834595 274.812428 
L 189.405405 280.612198 
L 190.547027 286.411968 
L 191.117838 287.18527 
L 191.688649 286.025316 
L 192.259459 282.932106 
L 192.83027 277.905639 
L 193.401081 271.719217 
L 193.971892 267.852704 
L 195.684324 258.186421 
L 196.255135 252.386651 
L 197.396757 243.10702 
L 198.538378 238.853855 
L 199.68 235.760644 
L 200.250811 233.827388 
L 200.821622 233.054085 
L 201.392432 231.50748 
L 202.534054 230.734177 
L 203.675676 230.734177 
L 204.246486 231.120829 
L 204.817297 231.894131 
L 205.958919 232.667434 
L 207.671351 232.667434 
L 208.812973 233.440736 
L 209.383784 234.987342 
L 209.954595 240.787112 
L 211.096216 257.026467 
L 211.667027 261.279632 
L 212.237838 264.372842 
L 213.379459 268.626007 
L 213.95027 268.626007 
L 214.521081 269.012658 
L 215.091892 269.012658 
L 215.662703 269.785961 
L 217.945946 269.785961 
L 218.516757 270.172612 
L 223.083243 270.172612 
L 223.654054 266.306099 
L 224.795676 254.706559 
L 225.366486 241.947066 
L 225.937297 224.161105 
L 226.508108 209.855006 
L 227.64973 168.096663 
L 228.220541 153.403913 
L 228.791351 129.818182 
L 229.932973 106.619102 
L 231.645405 83.420023 
L 232.787027 75.300345 
L 233.357838 72.980437 
L 233.928649 71.820483 
L 234.499459 71.047181 
L 235.641081 70.273878 
L 236.211892 69.500575 
L 237.353514 68.727273 
L 238.495135 68.727273 
L 239.065946 69.500575 
L 239.636757 69.887227 
L 240.207568 70.660529 
L 240.778378 72.593786 
L 241.349189 76.460299 
L 241.92 78.780207 
L 245.344865 99.659379 
L 245.915676 102.365938 
L 246.486486 104.299194 
L 247.057297 107.392405 
L 249.911351 119.378596 
L 252.765405 139.871116 
L 253.336216 143.350978 
L 253.907027 148.377445 
L 254.477838 154.950518 
L 256.19027 166.936709 
L 257.331892 172.736479 
L 257.902703 176.216341 
L 260.185946 192.842348 
L 261.327568 197.095512 
L 261.898378 199.802071 
L 264.181622 213.334868 
L 264.752432 216.041427 
L 265.894054 219.134638 
L 267.035676 221.454545 
L 268.177297 223.001151 
L 269.318919 225.321059 
L 269.88973 226.867664 
L 271.031351 230.734177 
L 272.743784 241.173763 
L 275.027027 248.520138 
L 275.597838 250.066743 
L 276.739459 252.386651 
L 277.31027 253.159954 
L 277.881081 254.706559 
L 278.451892 255.866513 
L 279.022703 256.639816 
L 279.593514 258.573072 
L 280.164324 259.346375 
L 280.735135 259.733026 
L 281.305946 261.279632 
L 281.876757 263.212888 
L 282.447568 263.986191 
L 283.018378 265.919448 
L 284.16 268.239356 
L 284.730811 269.785961 
L 285.872432 272.105869 
L 286.443243 273.652474 
L 287.584865 275.199079 
L 288.155676 277.132336 
L 288.726486 278.29229 
L 289.297297 279.065593 
L 289.868108 281.772152 
L 291.00973 284.865362 
L 291.580541 285.638665 
L 292.151351 287.958573 
L 292.722162 289.118527 
L 293.292973 289.89183 
L 293.863784 291.438435 
L 294.434595 292.211738 
L 295.005405 293.371692 
L 295.576216 294.144994 
L 296.147027 295.304948 
L 296.717838 296.078251 
L 297.288649 297.624856 
L 297.859459 298.011507 
L 298.43027 298.78481 
L 299.001081 299.171461 
L 299.571892 300.331415 
L 300.142703 300.718067 
L 301.284324 302.264672 
L 302.425946 303.037975 
L 302.996757 304.197929 
L 303.567568 304.58458 
L 304.138378 305.357883 
L 304.709189 305.744534 
L 305.28 306.517837 
L 306.421622 307.291139 
L 306.992432 308.064442 
L 308.134054 308.064442 
L 308.704865 139.484465 
L 309.275676 137.93786 
L 310.417297 135.617952 
L 310.988108 135.617952 
L 311.558919 136.004603 
L 312.12973 136.777906 
L 312.700541 142.577675 
L 313.271351 163.070196 
L 313.842162 169.256617 
L 314.412973 197.095512 
L 314.983784 215.654776 
L 315.554595 248.133487 
L 317.267027 274.812428 
L 317.837838 280.612198 
L 318.979459 286.411968 
L 319.55027 287.18527 
L 320.121081 286.025316 
L 320.691892 282.932106 
L 321.262703 277.905639 
L 321.833514 271.719217 
L 322.404324 267.852704 
L 324.116757 258.186421 
L 324.687568 252.386651 
L 325.829189 243.10702 
L 326.970811 238.853855 
L 328.112432 235.760644 
L 328.683243 233.827388 
L 329.254054 233.054085 
L 329.824865 231.50748 
L 330.966486 230.734177 
L 332.108108 230.734177 
L 332.678919 231.120829 
L 333.24973 231.894131 
L 334.391351 232.667434 
L 336.103784 232.667434 
L 337.245405 233.440736 
L 337.816216 234.987342 
L 338.387027 240.787112 
L 339.528649 257.026467 
L 340.099459 261.279632 
L 340.67027 264.372842 
L 341.811892 268.626007 
L 342.382703 268.626007 
L 342.953514 269.012658 
L 343.524324 269.012658 
L 344.095135 269.785961 
L 346.378378 269.785961 
L 346.949189 270.172612 
L 351.515676 270.172612 
L 352.086486 266.306099 
L 353.228108 254.706559 
L 353.798919 241.947066 
L 354.36973 224.161105 
L 354.940541 209.855006 
L 356.082162 168.096663 
L 356.652973 153.403913 
L 357.223784 129.818182 
L 358.365405 106.619102 
L 360.077838 83.420023 
L 361.219459 75.300345 
L 361.79027 72.980437 
L 362.361081 71.820483 
L 362.931892 71.047181 
L 364.073514 70.273878 
L 364.644324 69.500575 
L 365.785946 68.727273 
L 366.927568 68.727273 
L 367.498378 69.500575 
L 368.069189 69.887227 
L 368.64 70.660529 
L 369.210811 72.593786 
L 369.781622 76.460299 
L 370.352432 78.780207 
L 373.777297 99.659379 
L 374.348108 102.365938 
L 374.918919 104.299194 
L 375.48973 107.392405 
L 378.343784 119.378596 
L 381.197838 139.871116 
L 381.768649 143.350978 
L 382.339459 148.377445 
L 382.91027 154.950518 
L 384.622703 166.936709 
L 385.764324 172.736479 
L 386.335135 176.216341 
L 388.618378 192.842348 
L 389.76 197.095512 
L 390.330811 199.802071 
L 392.614054 213.334868 
L 393.184865 216.041427 
L 394.326486 219.134638 
L 395.468108 221.454545 
L 396.60973 223.001151 
L 397.751351 225.321059 
L 398.322162 226.867664 
L 399.463784 230.734177 
L 401.176216 241.173763 
L 403.459459 248.520138 
L 404.03027 250.066743 
L 405.171892 252.386651 
L 405.742703 253.159954 
L 406.313514 254.706559 
L 406.884324 255.866513 
L 407.455135 256.639816 
L 408.025946 258.573072 
L 408.596757 259.346375 
L 409.167568 259.733026 
L 409.738378 261.279632 
L 410.309189 263.212888 
L 410.88 263.986191 
L 411.450811 265.919448 
L 412.592432 268.239356 
L 413.163243 269.785961 
L 414.304865 272.105869 
L 414.875676 273.652474 
L 416.017297 275.199079 
L 416.588108 277.132336 
L 417.158919 278.29229 
L 417.72973 279.065593 
L 418.300541 281.772152 
L 419.442162 284.865362 
L 420.012973 285.638665 
L 420.583784 287.958573 
L 421.154595 289.118527 
L 421.725405 289.89183 
L 422.296216 291.438435 
L 422.867027 292.211738 
L 423.437838 293.371692 
L 424.008649 294.144994 
L 424.579459 295.304948 
L 425.15027 296.078251 
L 425.721081 297.624856 
L 426.291892 298.011507 
L 426.862703 298.78481 
L 427.433514 299.171461 
L 428.004324 300.331415 
L 428.575135 300.718067 
L 429.716757 302.264672 
L 430.858378 303.037975 
L 431.429189 304.197929 
L 432 304.58458 
L 432.570811 305.357883 
L 433.141622 305.744534 
L 433.712432 306.517837 
L 434.854054 307.291139 
L 435.424865 308.064442 
L 436.566486 308.064442 
L 437.137297 139.484465 
L 437.708108 137.93786 
L 438.84973 135.617952 
L 439.420541 135.617952 
L 439.991351 136.004603 
L 440.562162 136.777906 
L 441.132973 142.577675 
L 441.703784 163.070196 
L 442.274595 169.256617 
L 442.845405 197.095512 
L 443.416216 215.654776 
L 443.987027 248.133487 
L 445.699459 274.812428 
L 446.27027 280.612198 
L 447.411892 286.411968 
L 447.982703 287.18527 
L 448.553514 286.025316 
L 449.124324 282.932106 
L 449.695135 277.905639 
L 450.265946 271.719217 
L 450.836757 267.852704 
L 452.549189 258.186421 
L 453.12 252.386651 
L 454.261622 243.10702 
L 455.403243 238.853855 
L 456.544865 235.760644 
L 457.115676 233.827388 
L 457.686486 233.054085 
L 458.257297 231.50748 
L 459.398919 230.734177 
L 460.540541 230.734177 
L 461.111351 231.120829 
L 461.682162 231.894131 
L 462.823784 232.667434 
L 464.536216 232.667434 
L 465.677838 233.440736 
L 466.248649 234.987342 
L 466.819459 240.787112 
L 467.961081 257.026467 
L 468.531892 261.279632 
L 469.102703 264.372842 
L 470.244324 268.626007 
L 470.815135 268.626007 
L 471.385946 269.012658 
L 471.956757 269.012658 
L 472.527568 269.785961 
L 474.810811 269.785961 
L 475.381622 270.172612 
L 479.948108 270.172612 
L 480.518919 266.306099 
L 481.660541 254.706559 
L 482.231351 241.947066 
L 482.802162 224.161105 
L 483.372973 209.855006 
L 484.514595 168.096663 
L 485.085405 153.403913 
L 485.656216 129.818182 
L 486.797838 106.619102 
L 488.51027 83.420023 
L 489.651892 75.300345 
L 490.222703 72.980437 
L 490.793514 71.820483 
L 491.364324 71.047181 
L 492.505946 70.273878 
L 493.076757 69.500575 
L 494.218378 68.727273 
L 495.36 68.727273 
L 495.930811 69.500575 
L 496.501622 69.887227 
L 497.072432 70.660529 
L 497.643243 72.593786 
L 498.214054 76.460299 
L 498.784865 78.780207 
L 502.20973 99.659379 
L 502.780541 102.365938 
L 503.351351 104.299194 
L 503.922162 107.392405 
L 506.776216 119.378596 
L 509.63027 139.871116 
L 510.201081 143.350978 
L 510.771892 148.377445 
L 511.342703 154.950518 
L 513.055135 166.936709 
L 514.196757 172.736479 
L 514.767568 176.216341 
L 517.050811 192.842348 
L 518.192432 197.095512 
L 518.763243 199.802071 
L 521.046486 213.334868 
L 521.617297 216.041427 
L 522.758919 219.134638 
L 523.900541 221.454545 
L 525.042162 223.001151 
L 526.183784 225.321059 
L 526.754595 226.867664 
L 527.896216 230.734177 
L 529.608649 241.173763 
L 531.891892 248.520138 
L 532.462703 250.066743 
L 533.604324 252.386651 
L 534.175135 253.159954 
L 534.745946 254.706559 
L 535.316757 255.866513 
L 535.887568 256.639816 
L 536.458378 258.573072 
L 537.029189 259.346375 
L 537.6 259.733026 
L 538.170811 261.279632 
L 538.741622 263.212888 
L 539.312432 263.986191 
L 539.883243 265.919448 
L 541.024865 268.239356 
L 541.595676 269.785961 
L 542.737297 272.105869 
L 543.308108 273.652474 
L 544.44973 275.199079 
L 545.020541 277.132336 
L 545.591351 278.29229 
L 546.162162 279.065593 
L 546.732973 281.772152 
L 547.874595 284.865362 
L 548.445405 285.638665 
L 549.016216 287.958573 
L 549.587027 289.118527 
L 550.157838 289.89183 
L 550.728649 291.438435 
L 551.299459 292.211738 
L 551.87027 293.371692 
L 552.441081 294.144994 
L 553.011892 295.304948 
L 553.582703 296.078251 
L 554.153514 297.624856 
L 554.724324 298.011507 
L 555.295135 298.78481 
L 555.865946 299.171461 
L 556.436757 300.331415 
L 557.007568 300.718067 
L 558.149189 302.264672 
L 559.290811 303.037975 
L 559.861622 304.197929 
L 560.432432 304.58458 
L 561.003243 305.357883 
L 561.574054 305.744534 
L 562.144865 306.517837 
L 563.286486 307.291139 
L 563.857297 308.064442 
L 564.998919 308.064442 
L 565.56973 139.484465 
L 566.140541 137.93786 
L 567.282162 135.617952 
L 567.852973 135.617952 
L 568.423784 136.004603 
L 568.994595 136.777906 
L 569.565405 142.577675 
L 570.136216 163.070196 
L 570.707027 169.256617 
L 571.277838 197.095512 
L 571.848649 215.654776 
L 572.419459 248.133487 
L 574.131892 274.812428 
L 574.702703 280.612198 
L 575.844324 286.411968 
L 576.415135 287.18527 
L 576.985946 286.025316 
L 577.556757 282.932106 
L 578.127568 277.905639 
L 578.698378 271.719217 
L 579.269189 267.852704 
L 580.981622 258.186421 
L 581.552432 252.386651 
L 582.694054 243.10702 
L 583.835676 238.853855 
L 584.977297 235.760644 
L 585.548108 233.827388 
L 586.118919 233.054085 
L 586.68973 231.50748 
L 587.831351 230.734177 
L 588.972973 230.734177 
L 589.543784 231.120829 
L 590.114595 231.894131 
L 591.256216 232.667434 
L 592.968649 232.667434 
L 594.11027 233.440736 
L 594.681081 234.987342 
L 595.251892 240.787112 
L 596.393514 257.026467 
L 596.964324 261.279632 
L 597.535135 264.372842 
L 598.676757 268.626007 
L 599.247568 268.626007 
L 599.818378 269.012658 
L 600.389189 269.012658 
L 600.96 269.785961 
L 603.243243 269.785961 
L 603.814054 270.172612 
L 608.380541 270.172612 
L 608.951351 266.306099 
L 610.092973 254.706559 
L 610.663784 241.947066 
L 611.234595 224.161105 
L 611.805405 209.855006 
L 612.947027 168.096663 
L 613.517838 153.403913 
L 614.088649 129.818182 
L 615.23027 106.619102 
L 616.942703 83.420023 
L 618.084324 75.300345 
L 618.655135 72.980437 
L 619.225946 71.820483 
L 619.796757 71.047181 
L 620.938378 70.273878 
L 621.509189 69.500575 
L 622.08 69.113924 
L 622.08 69.113924 
" style="fill:none;stroke:#000004;stroke-width:3;"/>
   </g>
   <g id="line2d_22">
    <path clip-path="url(#p0edd04d440)" d="M 51.84 435.272727 
L 622.08 435.272727 
" style="fill:none;stroke:#000000;stroke-opacity:0.7;stroke-width:1.3;"/>
   </g>
   <g id="patch_3">
    <path d="M 51.84 453.6 
L 51.84 50.4 
" style="fill:none;stroke:#000000;stroke-linecap:square;stroke-linejoin:miter;stroke-width:0.8;"/>
   </g>
   <g id="patch_4">
    <path d="M 622.08 453.6 
L 622.08 50.4 
" style="fill:none;stroke:#000000;stroke-linecap:square;stroke-linejoin:miter;stroke-width:0.8;"/>
   </g>
   <g id="patch_5">
    <path d="M 51.84 453.6 
L 622.08 453.6 
" style="fill:none;stroke:#000000;stroke-linecap:square;stroke-linejoin:miter;stroke-width:0.8;"/>
   </g>
   <g id="patch_6">
    <path d="M 51.84 50.4 
L 622.08 50.4 
" style="fill:none;stroke:#000000;stroke-linecap:square;stroke-linejoin:miter;stroke-width:0.8;"/>
   </g>
   <g id="patch_7">
    <path d="M 0 504 
L 648 504 
L 648 480.923077 
L 0 480.923077 
z
" style="fill:#808080;"/>
   </g>
   <g id="text_13">
    <!-- ©spred -->
    <defs>
     <path d="M 50.90625 25.90625 
L 50.90625 44 
Q 50.90625 52.40625 44.75 58.40625 
Q 38.59375 64.40625 30 64.40625 
Q 21.296875 64.40625 15.09375 58.40625 
Q 8.90625 52.40625 8.90625 44 
L 8.90625 25.90625 
Q 8.90625 17.5 15.09375 11.453125 
Q 21.296875 5.40625 30 5.40625 
Q 38.59375 5.40625 44.75 11.453125 
Q 50.90625 17.5 50.90625 25.90625 
z
M 57.703125 43.203125 
L 57.703125 26.59375 
Q 57.703125 15.203125 49.59375 7.09375 
Q 41.5 -1 30 -1 
Q 18.40625 -1 10.296875 7.09375 
Q 2.203125 15.203125 2.203125 26.59375 
L 2.203125 43.203125 
Q 2.203125 54.59375 10.296875 62.6875 
Q 18.40625 70.796875 30 70.796875 
Q 41.5 70.796875 49.59375 62.6875 
Q 57.703125 54.59375 57.703125 43.203125 
z
M 38.59375 29.40625 
L 41.40625 29.40625 
Q 42.40625 29.40625 42.90625 28.84375 
Q 43.40625 28.296875 43.40625 27.59375 
Q 43.40625 21.59375 39.796875 17.9375 
Q 36.203125 14.296875 30.40625 14.296875 
Q 24.40625 14.296875 20.75 17.9375 
Q 17.09375 21.59375 17.09375 27.09375 
L 17.09375 43.40625 
Q 17.09375 48.703125 20.75 52.390625 
Q 24.40625 56.09375 30.40625 56.09375 
Q 35.90625 56.09375 39.40625 52.25 
Q 42.90625 48.40625 42.90625 42.296875 
Q 42.90625 41.59375 42.40625 41.046875 
Q 41.90625 40.5 40.90625 40.5 
L 38.09375 40.5 
Q 37.09375 40.5 36.546875 41.046875 
Q 36 41.59375 36 42.296875 
Q 36 45.203125 34.390625 47.046875 
Q 32.796875 48.90625 30.40625 48.90625 
Q 27.703125 48.90625 25.796875 46.90625 
Q 23.90625 44.90625 23.90625 42.203125 
L 23.90625 28.203125 
Q 23.90625 25.59375 25.796875 23.59375 
Q 27.703125 21.59375 30.40625 21.59375 
Q 32.90625 21.59375 34.703125 23.1875 
Q 36.5 24.796875 36.5 27.59375 
Q 36.5 28.296875 37.046875 28.84375 
Q 37.59375 29.40625 38.59375 29.40625 
z
" id="DecimaMonoPro-169"/>
     <path d="M 30.09375 -1 
Q 25.296875 -1 21.546875 0.59375 
Q 17.796875 2.203125 15.84375 4.59375 
Q 13.90625 7 12.953125 9.390625 
Q 12 11.796875 12 14 
Q 12 14.796875 12.5 15.296875 
Q 13 15.796875 13.796875 15.796875 
L 18.296875 15.796875 
Q 19.90625 15.796875 20.09375 14.09375 
Q 20.40625 11.203125 22.796875 8.703125 
Q 25.203125 6.203125 30.09375 6.203125 
Q 34.296875 6.203125 36.890625 8.296875 
Q 39.5 10.40625 39.5 13.59375 
Q 39.5 16.5 36.84375 18.5 
Q 34.203125 20.5 30.390625 21.84375 
Q 26.59375 23.203125 22.84375 24.796875 
Q 19.09375 26.40625 16.4375 29.5 
Q 13.796875 32.59375 13.796875 37.09375 
Q 13.796875 43.296875 18.4375 47.140625 
Q 23.09375 51 30.703125 51 
Q 38.90625 51 43.25 46.5 
Q 47.59375 42 47.59375 37.5 
Q 47.59375 36.796875 47.09375 36.25 
Q 46.59375 35.703125 45.796875 35.703125 
L 41.203125 35.703125 
Q 39.703125 35.703125 39.40625 37.40625 
Q 38.90625 40 36.75 41.890625 
Q 34.59375 43.796875 30.703125 43.796875 
Q 26.90625 43.796875 24.546875 42.09375 
Q 22.203125 40.40625 22.203125 37.703125 
Q 22.203125 35 24.84375 33.09375 
Q 27.5 31.203125 31.25 29.890625 
Q 35 28.59375 38.703125 26.9375 
Q 42.40625 25.296875 45.046875 21.84375 
Q 47.703125 18.40625 47.703125 13.40625 
Q 47.703125 7.40625 42.59375 3.203125 
Q 37.5 -1 30.09375 -1 
z
" id="DecimaMonoPro-115"/>
     <path d="M 42.09375 17.09375 
L 42.09375 33.09375 
Q 42.09375 37.703125 38.84375 40.796875 
Q 35.59375 43.90625 30.5 43.90625 
Q 25.40625 43.90625 22.046875 40.75 
Q 18.703125 37.59375 18.703125 33 
L 18.703125 17.09375 
Q 18.703125 12.5 22.046875 9.390625 
Q 25.40625 6.296875 30.5 6.296875 
Q 35.59375 6.296875 38.84375 9.390625 
Q 42.09375 12.5 42.09375 17.09375 
z
M 18.703125 3.703125 
L 18.796875 -16.203125 
Q 18.796875 -18 16.5 -18 
L 13 -18 
Q 10.703125 -18 10.703125 -16.203125 
L 10.703125 48.203125 
Q 10.703125 50 13 50 
L 15.90625 50 
Q 18.203125 50 18.203125 48.203125 
L 18.203125 45.90625 
Q 18.59375 46.5 19.5 47.34375 
Q 20.40625 48.203125 23.75 49.59375 
Q 27.09375 51 31.296875 51 
Q 39.296875 51 44.796875 45.640625 
Q 50.296875 40.296875 50.296875 32.59375 
L 50.296875 17.40625 
Q 50.296875 9.796875 44.75 4.390625 
Q 39.203125 -1 31.296875 -1 
Q 27.40625 -1 24.25 0.203125 
Q 21.09375 1.40625 19.90625 2.59375 
z
" id="DecimaMonoPro-112"/>
     <path d="M 37.203125 51 
Q 44.09375 51 48.140625 46.453125 
Q 52.203125 41.90625 52.203125 37.5 
Q 52.203125 35.703125 50.5 35.703125 
L 45.90625 35.703125 
Q 44.296875 35.703125 44.09375 37.40625 
Q 43.796875 39.796875 41.75 41.796875 
Q 39.703125 43.796875 36.59375 43.796875 
Q 32.40625 43.796875 29.203125 40.796875 
Q 26 37.796875 26 34 
L 26 7.203125 
L 45.09375 7.203125 
Q 45.796875 7.203125 46.34375 6.703125 
Q 46.90625 6.203125 46.90625 5.40625 
L 46.90625 1.796875 
Q 46.90625 1 46.34375 0.5 
Q 45.796875 0 45.09375 0 
L 9.296875 0 
Q 8.59375 0 8.046875 0.5 
Q 7.5 1 7.5 1.796875 
L 7.5 5.40625 
Q 7.5 6.203125 8.046875 6.703125 
Q 8.59375 7.203125 9.296875 7.203125 
L 18 7.203125 
L 18 48.203125 
Q 18 50 20.296875 50 
L 23.5 50 
Q 25.796875 50 25.796875 48.203125 
L 25.796875 45.703125 
Q 29.796875 51 37.203125 51 
z
" id="DecimaMonoPro-114"/>
     <path d="M 48.796875 13.5 
Q 48.796875 9.09375 43.75 4.046875 
Q 38.703125 -1 30.203125 -1 
Q 21.203125 -1 15.75 4.453125 
Q 10.296875 9.90625 10.296875 17.5 
L 10.296875 32.703125 
Q 10.296875 40.203125 15.75 45.59375 
Q 21.203125 51 30.203125 51 
Q 39.203125 51 44.453125 45.59375 
Q 49.703125 40.203125 49.703125 32.703125 
L 49.703125 24.796875 
Q 49.703125 23.796875 49.046875 23.140625 
Q 48.40625 22.5 47.40625 22.5 
L 18.40625 22.5 
L 18.40625 17 
Q 18.40625 12.5 21.65625 9.296875 
Q 24.90625 6.09375 30.203125 6.09375 
Q 38.5 6.09375 40.59375 13.59375 
Q 41.09375 15.296875 42.40625 15.296875 
L 47 15.296875 
Q 47.796875 15.296875 48.296875 14.75 
Q 48.796875 14.203125 48.796875 13.5 
z
M 18.40625 33 
L 18.40625 29.703125 
L 41.796875 29.703125 
L 41.796875 33 
Q 41.796875 37.5 38.640625 40.640625 
Q 35.5 43.796875 30.203125 43.796875 
Q 24.90625 43.796875 21.65625 40.640625 
Q 18.40625 37.5 18.40625 33 
z
" id="DecimaMonoPro-101"/>
     <path d="M 17.90625 32.90625 
L 17.90625 16.90625 
Q 17.90625 12.296875 21.15625 9.1875 
Q 24.40625 6.09375 29.5 6.09375 
Q 34.59375 6.09375 37.9375 9.25 
Q 41.296875 12.40625 41.296875 17 
L 41.296875 32.90625 
Q 41.296875 37.5 37.9375 40.59375 
Q 34.59375 43.703125 29.5 43.703125 
Q 24.40625 43.703125 21.15625 40.59375 
Q 17.90625 37.5 17.90625 32.90625 
z
M 41.296875 46.296875 
L 41.203125 68.203125 
Q 41.203125 70 43.5 70 
L 47 70 
Q 49.296875 70 49.296875 68.203125 
L 49.296875 1.796875 
Q 49.296875 0 47 0 
L 44.09375 0 
Q 41.796875 0 41.796875 1.796875 
L 41.796875 4.09375 
Q 41.40625 3.5 40.5 2.640625 
Q 39.59375 1.796875 36.25 0.390625 
Q 32.90625 -1 28.703125 -1 
Q 20.703125 -1 15.203125 4.34375 
Q 9.703125 9.703125 9.703125 17.40625 
L 9.703125 32.59375 
Q 9.703125 40.203125 15.25 45.59375 
Q 20.796875 51 28.703125 51 
Q 32.59375 51 35.75 49.796875 
Q 38.90625 48.59375 40.09375 47.40625 
z
" id="DecimaMonoPro-100"/>
    </defs>
    <g style="fill:#ffffff;" transform="translate(6.48 496.8)scale(0.14 -0.14)">
     <use xlink:href="#DecimaMonoPro-169"/>
     <use x="59.999985" xlink:href="#DecimaMonoPro-115"/>
     <use x="119.999969" xlink:href="#DecimaMonoPro-112"/>
     <use x="179.999954" xlink:href="#DecimaMonoPro-114"/>
     <use x="239.999939" xlink:href="#DecimaMonoPro-101"/>
     <use x="299.999924" xlink:href="#DecimaMonoPro-100"/>
    </g>
   </g>
   <g id="text_14">
    <!-- 1 -->
    <defs>
     <path d="M 26.5 70 
L 7.09375 58.40625 
L 7.09375 47.203125 
L 20.203125 55 
L 20.203125 0 
L 30.796875 0 
L 30.796875 70 
z
" id="ApercuPro-Medium-49"/>
    </defs>
    <g style="opacity:0.75;" transform="translate(36 25.2)scale(0.5 -0.5)">
     <use xlink:href="#ApercuPro-Medium-49"/>
    </g>
   </g>
   <g id="legend_1">
    <g id="patch_8">
     <path d="M 561.04 81.368437 
L 612.28 81.368437 
Q 615.08 81.368437 615.08 78.568437 
L 615.08 60.2 
Q 615.08 57.4 612.28 57.4 
L 561.04 57.4 
Q 558.24 57.4 558.24 60.2 
L 558.24 78.568437 
Q 558.24 81.368437 561.04 81.368437 
z
" style="fill:#f0f0f0;opacity:0.8;stroke:#cccccc;stroke-linejoin:miter;stroke-width:0.5;"/>
    </g>
    <g id="line2d_23">
     <path d="M 563.84 68.011562 
L 591.84 68.011562 
" style="fill:none;stroke:#000004;stroke-width:3;"/>
    </g>
    <g id="line2d_24"/>
    <g id="text_15">
     <!-- y -->
     <g style="opacity:0.75;" transform="translate(603.04 72.911562)scale(0.14 -0.14)">
      <use xlink:href="#Apercu-121"/>
     </g>
    </g>
   </g>
  </g>
 </g>
 <defs>
  <clipPath id="p0edd04d440">
   <rect height="403.2" width="570.24" x="51.84" y="50.4"/>
  </clipPath>
 </defs>
</svg>
