<?xml version="1.0" encoding="utf-8" standalone="no"?>
<!DOCTYPE svg PUBLIC "-//W3C//DTD SVG 1.1//EN"
  "http://www.w3.org/Graphics/SVG/1.1/DTD/svg11.dtd">
<!-- Created with matplotlib (https://matplotlib.org/) -->
<svg height="1440pt" version="1.1" viewBox="0 0 1440 1440" width="1440pt" xmlns="http://www.w3.org/2000/svg" xmlns:xlink="http://www.w3.org/1999/xlink">
 <defs>
  <style type="text/css">
*{stroke-linecap:butt;stroke-linejoin:round;}
  </style>
 </defs>
 <g id="figure_1">
  <g id="patch_1">
   <path d="M 0 1440 
L 1440 1440 
L 1440 0 
L 0 0 
z
" style="fill:#f0f0f0;"/>
  </g>
  <g id="axes_1">
   <g id="patch_2">
    <path d="M 115.2 1296 
L 1382.4 1296 
L 1382.4 144 
L 115.2 144 
z
" style="fill:#f0f0f0;"/>
   </g>
   <g id="matplotlib.axis_1">
    <g id="xtick_1">
     <g id="line2d_1">
      <path clip-path="url(#p6383171dc7)" d="M 115.2 1296 
L 115.2 144 
" style="fill:none;stroke:#b0b0b0;stroke-linecap:square;stroke-width:0.8;"/>
     </g>
     <g id="line2d_2">
      <defs>
       <path d="M 0 0 
L 0 3.5 
" id="me4e0c7c5e2" style="stroke:#000000;stroke-width:0.8;"/>
      </defs>
      <g>
       <use style="stroke:#000000;stroke-width:0.8;" x="115.2" xlink:href="#me4e0c7c5e2" y="1296"/>
      </g>
     </g>
     <g id="text_1">
      <!-- 0 -->
      <defs>
       <path d="M 48.203125 52.59375 
L 48.203125 17.40625 
Q 48.203125 9.703125 42.953125 4.34375 
Q 37.703125 -1 29.890625 -1 
Q 22.09375 -1 16.9375 4.390625 
Q 11.796875 9.796875 11.796875 17.5 
L 11.796875 52.59375 
Q 11.796875 60.296875 16.9375 65.640625 
Q 22.09375 71 29.890625 71 
Q 37.703125 71 42.953125 65.640625 
Q 48.203125 60.296875 48.203125 52.59375 
z
M 39.90625 17.296875 
L 39.90625 52.5 
Q 39.90625 56.90625 37 60 
Q 34.09375 63.09375 29.90625 63.09375 
Q 25.796875 63.09375 22.890625 60 
Q 20 56.90625 20 52.5 
L 20 17.40625 
Q 20 13 22.890625 9.953125 
Q 25.796875 6.90625 30 6.90625 
Q 34.09375 6.90625 37 9.90625 
Q 39.90625 12.90625 39.90625 17.296875 
z
" id="DecimaMonoPro-48"/>
      </defs>
      <g style="fill:#303030;" transform="translate(111 1312.813125)scale(0.14 -0.14)">
       <use xlink:href="#DecimaMonoPro-48"/>
      </g>
     </g>
    </g>
    <g id="xtick_2">
     <g id="line2d_3">
      <path clip-path="url(#p6383171dc7)" d="M 368.893694 1296 
L 368.893694 144 
" style="fill:none;stroke:#b0b0b0;stroke-linecap:square;stroke-width:0.8;"/>
     </g>
     <g id="line2d_4">
      <g>
       <use style="stroke:#000000;stroke-width:0.8;" x="368.893694" xlink:href="#me4e0c7c5e2" y="1296"/>
      </g>
     </g>
     <g id="text_2">
      <!-- 200 -->
      <defs>
       <path d="M 11.703125 53 
Q 11.703125 59.703125 17.203125 65.34375 
Q 22.703125 71 30.59375 71 
Q 38.40625 71 43.796875 65.75 
Q 49.203125 60.5 49.203125 52.703125 
Q 49.203125 46.90625 46.09375 41.75 
Q 43 36.59375 38.59375 32.84375 
Q 34.203125 29.09375 29.796875 25.4375 
Q 25.40625 21.796875 22.296875 17.296875 
Q 19.203125 12.796875 19.203125 7.796875 
L 47.40625 7.796875 
Q 48.203125 7.796875 48.703125 7.296875 
Q 49.203125 6.796875 49.203125 6 
L 49.203125 1.796875 
Q 49.203125 1 48.703125 0.5 
Q 48.203125 0 47.40625 0 
L 12.59375 0 
Q 11.796875 0 11.296875 0.5 
Q 10.796875 1 10.796875 1.796875 
L 10.796875 7.296875 
Q 10.796875 13.90625 13.890625 19.453125 
Q 17 25 21.390625 28.890625 
Q 25.796875 32.796875 30.1875 36.390625 
Q 34.59375 40 37.6875 44.296875 
Q 40.796875 48.59375 40.796875 53.296875 
Q 40.796875 57.40625 37.75 60.25 
Q 34.703125 63.09375 30.5 63.09375 
Q 26.09375 63.09375 23.1875 59.6875 
Q 20.296875 56.296875 20.09375 53 
Q 19.90625 51 17.796875 51 
L 14 51 
Q 12.90625 51 12.296875 51.59375 
Q 11.703125 52.203125 11.703125 53 
z
" id="DecimaMonoPro-50"/>
      </defs>
      <g style="fill:#303030;" transform="translate(356.293694 1312.813125)scale(0.14 -0.14)">
       <use xlink:href="#DecimaMonoPro-50"/>
       <use x="59.999985" xlink:href="#DecimaMonoPro-48"/>
       <use x="119.999969" xlink:href="#DecimaMonoPro-48"/>
      </g>
     </g>
    </g>
    <g id="xtick_3">
     <g id="line2d_5">
      <path clip-path="url(#p6383171dc7)" d="M 622.587387 1296 
L 622.587387 144 
" style="fill:none;stroke:#b0b0b0;stroke-linecap:square;stroke-width:0.8;"/>
     </g>
     <g id="line2d_6">
      <g>
       <use style="stroke:#000000;stroke-width:0.8;" x="622.587387" xlink:href="#me4e0c7c5e2" y="1296"/>
      </g>
     </g>
     <g id="text_3">
      <!-- 400 -->
      <defs>
       <path d="M 40.09375 67.5 
L 19.5 22.90625 
L 35.796875 22.90625 
L 35.796875 38.90625 
Q 35.796875 39.703125 36.390625 40.296875 
Q 37 40.90625 38.09375 40.90625 
L 42.203125 40.90625 
Q 43 40.90625 43.59375 40.25 
Q 44.203125 39.59375 44.203125 38.90625 
L 44.203125 22.90625 
L 48 22.90625 
Q 48.796875 22.90625 49.390625 22.296875 
Q 50 21.703125 50 20.59375 
L 50 17.40625 
Q 50 16.296875 49.390625 15.6875 
Q 48.796875 15.09375 48 15.09375 
L 44.203125 15.09375 
L 44.203125 2 
Q 44.203125 1.203125 43.59375 0.59375 
Q 43 0 42.203125 0 
L 38.09375 0 
Q 37 0 36.390625 0.59375 
Q 35.796875 1.203125 35.796875 2 
L 35.796875 15.09375 
L 12.09375 15.09375 
Q 9.90625 15.09375 9.90625 17.40625 
L 9.90625 21.296875 
Q 9.90625 22.5 11 24.703125 
L 31.296875 68 
Q 32.296875 70 34 70 
L 38.796875 70 
Q 40.5 70 40.5 68.796875 
Q 40.5 68.5 40.09375 67.5 
z
" id="DecimaMonoPro-52"/>
      </defs>
      <g style="fill:#303030;" transform="translate(609.987387 1312.813125)scale(0.14 -0.14)">
       <use xlink:href="#DecimaMonoPro-52"/>
       <use x="59.999985" xlink:href="#DecimaMonoPro-48"/>
       <use x="119.999969" xlink:href="#DecimaMonoPro-48"/>
      </g>
     </g>
    </g>
    <g id="xtick_4">
     <g id="line2d_7">
      <path clip-path="url(#p6383171dc7)" d="M 876.281081 1296 
L 876.281081 144 
" style="fill:none;stroke:#b0b0b0;stroke-linecap:square;stroke-width:0.8;"/>
     </g>
     <g id="line2d_8">
      <g>
       <use style="stroke:#000000;stroke-width:0.8;" x="876.281081" xlink:href="#me4e0c7c5e2" y="1296"/>
      </g>
     </g>
     <g id="text_4">
      <!-- 600 -->
      <defs>
       <path d="M 11 60.203125 
Q 21.59375 71 29.5 71 
Q 37.40625 71 42.65625 65.953125 
Q 47.90625 60.90625 47.90625 54.40625 
Q 47.90625 53.59375 47.296875 53 
Q 46.703125 52.40625 45.59375 52.40625 
L 41.796875 52.40625 
Q 39.703125 52.40625 39.5 54.40625 
Q 39.296875 57.59375 36.640625 60.296875 
Q 34 63 29.5 63 
Q 25.203125 63 22.25 59.890625 
Q 19.296875 56.796875 19.296875 52.40625 
L 19.296875 42.796875 
Q 19.703125 43.296875 20.59375 44.046875 
Q 21.5 44.796875 24.546875 46 
Q 27.59375 47.203125 31 47.203125 
Q 38.40625 47.203125 43.703125 42 
Q 49 36.796875 49 28.90625 
L 49 17.5 
Q 49 9.796875 43.546875 4.390625 
Q 38.09375 -1 30 -1 
Q 21.90625 -1 16.453125 4.34375 
Q 11 9.703125 11 17.40625 
L 11 52.5 
Q 11 60.203125 21.59375 71 
z
M 30 39.296875 
Q 25.40625 39.296875 22.34375 36.390625 
Q 19.296875 33.5 19.296875 28.796875 
L 19.296875 17.296875 
Q 19.296875 12.90625 22.390625 9.90625 
Q 25.5 6.90625 30 6.90625 
Q 34.40625 6.90625 37.5 9.953125 
Q 40.59375 13 40.59375 17.40625 
L 40.59375 28.796875 
Q 40.59375 33.40625 37.546875 36.34375 
Q 34.5 39.296875 30 39.296875 
z
" id="DecimaMonoPro-54"/>
      </defs>
      <g style="fill:#303030;" transform="translate(863.681081 1312.813125)scale(0.14 -0.14)">
       <use xlink:href="#DecimaMonoPro-54"/>
       <use x="59.999985" xlink:href="#DecimaMonoPro-48"/>
       <use x="119.999969" xlink:href="#DecimaMonoPro-48"/>
      </g>
     </g>
    </g>
    <g id="xtick_5">
     <g id="line2d_9">
      <path clip-path="url(#p6383171dc7)" d="M 1129.974775 1296 
L 1129.974775 144 
" style="fill:none;stroke:#b0b0b0;stroke-linecap:square;stroke-width:0.8;"/>
     </g>
     <g id="line2d_10">
      <g>
       <use style="stroke:#000000;stroke-width:0.8;" x="1129.974775" xlink:href="#me4e0c7c5e2" y="1296"/>
      </g>
     </g>
     <g id="text_5">
      <!-- 800 -->
      <defs>
       <path d="M 48.09375 53.5 
L 48.09375 49.796875 
Q 48.09375 41.5 41.796875 36.40625 
Q 49 30.796875 49 21.703125 
L 49 17.40625 
Q 49 9.703125 43.640625 4.34375 
Q 38.296875 -1 30.5 -1 
L 29.59375 -1 
Q 21.796875 -1 16.390625 4.390625 
Q 11 9.796875 11 17.5 
L 11 21.703125 
Q 11 30.703125 18.296875 36.40625 
Q 11.796875 41.296875 11.796875 49.90625 
L 11.796875 53.5 
Q 11.796875 60.796875 16.9375 65.890625 
Q 22.09375 71 29.5 71 
L 30.40625 71 
Q 37.796875 71 42.9375 65.890625 
Q 48.09375 60.796875 48.09375 53.5 
z
M 40.59375 17.296875 
L 40.59375 21.59375 
Q 40.59375 26 37.5 29.09375 
Q 34.40625 32.203125 30 32.203125 
Q 25.59375 32.203125 22.5 29.09375 
Q 19.40625 26 19.40625 21.59375 
L 19.40625 17.40625 
Q 19.40625 13 22.546875 9.953125 
Q 25.703125 6.90625 30.203125 6.90625 
Q 34.5 6.90625 37.546875 9.90625 
Q 40.59375 12.90625 40.59375 17.296875 
z
M 39.703125 49.703125 
L 39.703125 53.09375 
Q 39.703125 57.296875 36.84375 60.1875 
Q 34 63.09375 29.796875 63.09375 
Q 25.796875 63.09375 23 60.1875 
Q 20.203125 57.296875 20.203125 53.09375 
L 20.203125 49.796875 
Q 20.203125 45.90625 22.84375 43 
Q 25.5 40.09375 29.59375 40.09375 
L 30.5 40.09375 
Q 34.296875 40.09375 37 42.84375 
Q 39.703125 45.59375 39.703125 49.703125 
z
" id="DecimaMonoPro-56"/>
      </defs>
      <g style="fill:#303030;" transform="translate(1117.374775 1312.813125)scale(0.14 -0.14)">
       <use xlink:href="#DecimaMonoPro-56"/>
       <use x="59.999985" xlink:href="#DecimaMonoPro-48"/>
       <use x="119.999969" xlink:href="#DecimaMonoPro-48"/>
      </g>
     </g>
    </g>
    <g id="text_6">
     <!-- Iterations -->
     <defs>
      <path d="M 9.703125 70 
L 18.5 70 
L 18.5 0 
L 9.703125 0 
z
" id="Apercu-73"/>
      <path d="M 2.5 42.796875 
L 2.5 50.40625 
L 11.203125 50.40625 
L 11.203125 65.5 
L 19.59375 70.796875 
L 19.59375 50.40625 
L 32.796875 50.40625 
L 32.796875 42.796875 
L 19.59375 42.796875 
L 19.59375 15.09375 
Q 19.59375 11.09375 21.34375 8.9375 
Q 23.09375 6.796875 26.296875 6.796875 
Q 29.59375 6.796875 32 8.40625 
L 34 1.09375 
Q 30.703125 -0.796875 25.796875 -0.796875 
Q 19.09375 -0.796875 15.140625 3.390625 
Q 11.203125 7.59375 11.203125 15.796875 
L 11.203125 42.796875 
z
" id="Apercu-116"/>
      <path d="M 51 27.296875 
L 51 23.40625 
L 14 23.40625 
Q 14.40625 16 18.046875 11.390625 
Q 21.703125 6.796875 28.203125 6.796875 
Q 33.5 6.796875 36.75 9.140625 
Q 40 11.5 42.203125 16.40625 
L 49.59375 13.203125 
Q 46.09375 5.796875 41.046875 2.5 
Q 36 -0.796875 28.203125 -0.796875 
Q 17.296875 -0.796875 11.34375 6.75 
Q 5.40625 14.296875 5.40625 25.1875 
Q 5.40625 36.09375 11.34375 43.640625 
Q 17.296875 51.203125 28.203125 51.203125 
Q 38.90625 51.203125 44.953125 44.25 
Q 51 37.296875 51 27.296875 
z
M 28.203125 43.59375 
Q 22.59375 43.59375 19.140625 40.1875 
Q 15.703125 36.796875 14.5 31 
L 42.203125 31 
Q 41 36.703125 37.5 40.140625 
Q 34 43.59375 28.203125 43.59375 
z
" id="Apercu-101"/>
      <path d="M 39.296875 49.703125 
L 37.59375 42.203125 
Q 34.796875 43.59375 31.703125 43.59375 
Q 26 43.59375 21.796875 37.140625 
Q 17.59375 30.703125 17.59375 19.09375 
L 17.59375 0 
L 9.203125 0 
L 9.203125 50.40625 
L 17.59375 50.40625 
L 17.59375 41.796875 
Q 19.796875 46 24 48.59375 
Q 28.203125 51.203125 32.40625 51.203125 
Q 36.5 51.203125 39.296875 49.703125 
z
" id="Apercu-114"/>
      <path d="M 14.203125 14.5 
Q 14.203125 10.90625 16.34375 8.84375 
Q 18.5 6.796875 22.5 6.796875 
Q 28.203125 6.796875 32.390625 10.546875 
Q 36.59375 14.296875 36.59375 22.203125 
L 36.59375 23.40625 
L 27.59375 23.40625 
Q 21.203125 23.40625 17.703125 21.09375 
Q 14.203125 18.796875 14.203125 14.5 
z
M 45 32.203125 
L 45 0 
L 38.40625 0 
L 37 7.09375 
Q 31.5 -0.796875 21.203125 -0.796875 
Q 14.40625 -0.796875 10 3 
Q 5.59375 6.796875 5.59375 14.5 
Q 5.59375 22.5 11.6875 26.75 
Q 17.796875 31 28.40625 31 
L 36.59375 31 
L 36.59375 33.203125 
Q 36.59375 43.59375 25.59375 43.59375 
Q 21.59375 43.59375 18.75 41.5 
Q 15.90625 39.40625 15.09375 35.703125 
L 7.703125 37.40625 
Q 8.703125 43.796875 13.59375 47.5 
Q 18.5 51.203125 25.59375 51.203125 
Q 34.40625 51.203125 39.703125 46.5 
Q 45 41.796875 45 32.203125 
z
" id="Apercu-97"/>
      <path d="M 9.296875 50.40625 
L 17.703125 50.40625 
L 17.703125 0 
L 9.296875 0 
z
M 7.203125 64.40625 
Q 7.203125 67.09375 9 68.9375 
Q 10.796875 70.796875 13.5 70.796875 
Q 16.203125 70.796875 18 68.9375 
Q 19.796875 67.09375 19.796875 64.40625 
Q 19.796875 61.796875 18 60 
Q 16.203125 58.203125 13.5 58.203125 
Q 10.796875 58.203125 9 60 
Q 7.203125 61.796875 7.203125 64.40625 
z
" id="Apercu-105"/>
      <path d="M 12 6.796875 
Q 5.40625 14.5 5.40625 25.203125 
Q 5.40625 35.90625 12.046875 43.546875 
Q 18.703125 51.203125 29.59375 51.203125 
Q 40.5 51.203125 47.140625 43.546875 
Q 53.796875 35.90625 53.796875 25.203125 
Q 53.796875 14.5 47.140625 6.84375 
Q 40.5 -0.796875 29.59375 -0.796875 
Q 18.703125 -0.796875 12 6.796875 
z
M 18.09375 38.09375 
Q 14 32.703125 14 25.203125 
Q 14 17.703125 18.140625 12.25 
Q 22.296875 6.796875 29.59375 6.796875 
Q 36.90625 6.796875 41.046875 12.25 
Q 45.203125 17.703125 45.203125 25.203125 
Q 45.203125 32.703125 41.046875 38.140625 
Q 36.90625 43.59375 29.59375 43.59375 
Q 22.296875 43.59375 18.09375 38.09375 
z
" id="Apercu-111"/>
      <path d="M 49.09375 35.5 
L 49.09375 0 
L 40.703125 0 
L 40.703125 33.296875 
Q 40.703125 43.59375 32 43.59375 
Q 26.09375 43.59375 21.84375 37.390625 
Q 17.59375 31.203125 17.59375 21.09375 
L 17.59375 0 
L 9.203125 0 
L 9.203125 50.40625 
L 17.59375 50.40625 
L 17.59375 41.09375 
Q 23.296875 51.203125 34.296875 51.203125 
Q 41.203125 51.203125 45.140625 47.09375 
Q 49.09375 43 49.09375 35.5 
z
" id="Apercu-110"/>
      <path d="M 23.59375 51.203125 
Q 32.796875 51.203125 38.203125 43.5 
L 32.5 38.59375 
Q 27.90625 43.59375 23.296875 43.59375 
Q 20.703125 43.59375 18.953125 41.890625 
Q 17.203125 40.203125 17.203125 37.203125 
Q 17.203125 34.703125 19.59375 32.890625 
Q 22 31.09375 25.453125 29.75 
Q 28.90625 28.40625 32.34375 26.796875 
Q 35.796875 25.203125 38.1875 22.25 
Q 40.59375 19.296875 40.59375 15.203125 
Q 40.59375 7.703125 36.09375 3.453125 
Q 31.59375 -0.796875 23.90625 -0.796875 
Q 16.796875 -0.796875 12.046875 3.09375 
Q 7.296875 7 5.09375 12.796875 
L 12.203125 16.703125 
Q 16.203125 6.796875 23.90625 6.796875 
Q 32 6.796875 32 14.703125 
Q 32 17.203125 29.59375 19 
Q 27.203125 20.796875 23.796875 22.046875 
Q 20.40625 23.296875 17 24.890625 
Q 13.59375 26.5 11.1875 29.640625 
Q 8.796875 32.796875 8.796875 37.296875 
Q 8.796875 43.296875 12.84375 47.25 
Q 16.90625 51.203125 23.59375 51.203125 
z
" id="Apercu-115"/>
     </defs>
     <g style="opacity:0.75;" transform="translate(695.65875 1336.324375)scale(0.24 -0.24)">
      <use xlink:href="#Apercu-73"/>
      <use x="28.199997" xlink:href="#Apercu-116"/>
      <use x="65.999985" xlink:href="#Apercu-101"/>
      <use x="121.984344" xlink:href="#Apercu-114"/>
      <use x="163.268707" xlink:href="#Apercu-97"/>
      <use x="215.068695" xlink:href="#Apercu-116"/>
      <use x="252.868683" xlink:href="#Apercu-105"/>
      <use x="279.868668" xlink:href="#Apercu-111"/>
      <use x="339.068665" xlink:href="#Apercu-110"/>
      <use x="396.753036" xlink:href="#Apercu-115"/>
     </g>
    </g>
   </g>
   <g id="matplotlib.axis_2">
    <g id="ytick_1">
     <g id="line2d_11">
      <path clip-path="url(#p6383171dc7)" d="M 115.2 1243.636364 
L 1382.4 1243.636364 
" style="fill:none;stroke:#b0b0b0;stroke-linecap:square;stroke-width:0.8;"/>
     </g>
     <g id="line2d_12">
      <defs>
       <path d="M 0 0 
L -3.5 0 
" id="m1fbfd20ea6" style="stroke:#000000;stroke-width:0.8;"/>
      </defs>
      <g>
       <use style="stroke:#000000;stroke-width:0.8;" x="115.2" xlink:href="#m1fbfd20ea6" y="1243.636364"/>
      </g>
     </g>
     <g id="text_7">
      <!-- 0 -->
      <g style="fill:#303030;" transform="translate(99.8 1248.542926)scale(0.14 -0.14)">
       <use xlink:href="#DecimaMonoPro-48"/>
      </g>
     </g>
    </g>
    <g id="ytick_2">
     <g id="line2d_13">
      <path clip-path="url(#p6383171dc7)" d="M 115.2 1022.69275 
L 1382.4 1022.69275 
" style="fill:none;stroke:#b0b0b0;stroke-linecap:square;stroke-width:0.8;"/>
     </g>
     <g id="line2d_14">
      <g>
       <use style="stroke:#000000;stroke-width:0.8;" x="115.2" xlink:href="#m1fbfd20ea6" y="1022.69275"/>
      </g>
     </g>
     <g id="text_8">
      <!-- 200 -->
      <g style="fill:#303030;" transform="translate(83 1027.599313)scale(0.14 -0.14)">
       <use xlink:href="#DecimaMonoPro-50"/>
       <use x="59.999985" xlink:href="#DecimaMonoPro-48"/>
       <use x="119.999969" xlink:href="#DecimaMonoPro-48"/>
      </g>
     </g>
    </g>
    <g id="ytick_3">
     <g id="line2d_15">
      <path clip-path="url(#p6383171dc7)" d="M 115.2 801.749137 
L 1382.4 801.749137 
" style="fill:none;stroke:#b0b0b0;stroke-linecap:square;stroke-width:0.8;"/>
     </g>
     <g id="line2d_16">
      <g>
       <use style="stroke:#000000;stroke-width:0.8;" x="115.2" xlink:href="#m1fbfd20ea6" y="801.749137"/>
      </g>
     </g>
     <g id="text_9">
      <!-- 400 -->
      <g style="fill:#303030;" transform="translate(83 806.655699)scale(0.14 -0.14)">
       <use xlink:href="#DecimaMonoPro-52"/>
       <use x="59.999985" xlink:href="#DecimaMonoPro-48"/>
       <use x="119.999969" xlink:href="#DecimaMonoPro-48"/>
      </g>
     </g>
    </g>
    <g id="ytick_4">
     <g id="line2d_17">
      <path clip-path="url(#p6383171dc7)" d="M 115.2 580.805524 
L 1382.4 580.805524 
" style="fill:none;stroke:#b0b0b0;stroke-linecap:square;stroke-width:0.8;"/>
     </g>
     <g id="line2d_18">
      <g>
       <use style="stroke:#000000;stroke-width:0.8;" x="115.2" xlink:href="#m1fbfd20ea6" y="580.805524"/>
      </g>
     </g>
     <g id="text_10">
      <!-- 600 -->
      <g style="fill:#303030;" transform="translate(83 585.712086)scale(0.14 -0.14)">
       <use xlink:href="#DecimaMonoPro-54"/>
       <use x="59.999985" xlink:href="#DecimaMonoPro-48"/>
       <use x="119.999969" xlink:href="#DecimaMonoPro-48"/>
      </g>
     </g>
    </g>
    <g id="ytick_5">
     <g id="line2d_19">
      <path clip-path="url(#p6383171dc7)" d="M 115.2 359.86191 
L 1382.4 359.86191 
" style="fill:none;stroke:#b0b0b0;stroke-linecap:square;stroke-width:0.8;"/>
     </g>
     <g id="line2d_20">
      <g>
       <use style="stroke:#000000;stroke-width:0.8;" x="115.2" xlink:href="#m1fbfd20ea6" y="359.86191"/>
      </g>
     </g>
     <g id="text_11">
      <!-- 800 -->
      <g style="fill:#303030;" transform="translate(83 364.768473)scale(0.14 -0.14)">
       <use xlink:href="#DecimaMonoPro-56"/>
       <use x="59.999985" xlink:href="#DecimaMonoPro-48"/>
       <use x="119.999969" xlink:href="#DecimaMonoPro-48"/>
      </g>
     </g>
    </g>
    <g id="text_12">
     <!-- y -->
     <defs>
      <path d="M 36 50.40625 
L 44.796875 50.40625 
L 19.796875 -20.40625 
L 11.203125 -20.40625 
L 19.203125 2.09375 
L 1.5 50.40625 
L 10.703125 50.40625 
L 23.5 14 
z
" id="Apercu-121"/>
     </defs>
     <g style="opacity:0.75;" transform="translate(76.143125 723.22)rotate(-90)scale(0.14 -0.14)">
      <use xlink:href="#Apercu-121"/>
     </g>
    </g>
   </g>
   <g id="line2d_21">
    <path clip-path="url(#p6383171dc7)" d="M 115.2 398.527043 
L 116.468468 394.10817 
L 119.005405 387.479862 
L 120.273874 387.479862 
L 121.542342 388.58458 
L 122.810811 390.794016 
L 124.079279 407.364787 
L 125.347748 465.914845 
L 126.616216 483.590334 
L 127.884685 563.130035 
L 129.153153 616.156502 
L 130.421622 708.952819 
L 134.227027 785.178366 
L 135.495495 801.749137 
L 136.763964 810.586881 
L 138.032432 818.319908 
L 139.300901 820.529344 
L 140.569369 817.21519 
L 141.837838 808.377445 
L 143.106306 794.01611 
L 144.374775 776.340621 
L 145.643243 765.293441 
L 148.18018 747.617952 
L 149.448649 737.675489 
L 150.717117 721.104718 
L 151.985586 708.952819 
L 153.254054 694.591484 
L 154.522523 687.963176 
L 155.790991 682.439586 
L 158.327928 673.601841 
L 159.596396 668.078251 
L 160.864865 665.868815 
L 162.133333 661.449942 
L 164.67027 659.240506 
L 167.207207 659.240506 
L 168.475676 660.345224 
L 169.744144 662.554661 
L 172.281081 664.764097 
L 176.086486 664.764097 
L 178.623423 666.973533 
L 179.891892 671.392405 
L 181.16036 687.963176 
L 182.428829 713.371692 
L 183.697297 734.361335 
L 184.965766 746.513234 
L 186.234234 755.350978 
L 187.502703 761.979287 
L 188.771171 767.502877 
L 190.03964 767.502877 
L 191.308108 768.607595 
L 192.576577 768.607595 
L 193.845045 770.817031 
L 198.918919 770.817031 
L 200.187387 771.921749 
L 210.335135 771.921749 
L 211.603604 760.874568 
L 214.140541 727.733026 
L 215.409009 691.27733 
L 216.677477 640.460299 
L 217.945946 599.585731 
L 219.214414 535.512083 
L 220.482883 480.27618 
L 221.751351 438.296893 
L 223.01982 370.909091 
L 225.556757 304.626007 
L 226.825225 281.426928 
L 228.093694 261.542002 
L 229.362162 238.342923 
L 230.630631 226.191024 
L 231.899099 215.143843 
L 233.167568 208.515535 
L 234.436036 205.201381 
L 235.704505 202.991945 
L 238.241441 200.782509 
L 239.50991 198.573072 
L 242.046847 196.363636 
L 244.583784 196.363636 
L 245.852252 198.573072 
L 247.120721 199.677791 
L 248.389189 201.887227 
L 249.657658 207.410817 
L 250.926126 218.457998 
L 252.194595 225.086306 
L 253.463063 235.028769 
L 254.731532 243.866513 
L 256 256.018412 
L 257.268468 265.960875 
L 258.536937 273.693901 
L 259.805405 284.741082 
L 261.073874 292.474108 
L 262.342342 297.997699 
L 263.610811 306.835443 
L 267.416216 326.720368 
L 268.684685 332.243959 
L 269.953153 341.081703 
L 271.221622 353.233602 
L 272.49009 367.594937 
L 273.758559 377.537399 
L 276.295495 399.631761 
L 277.563964 409.574223 
L 278.832432 423.935558 
L 280.100901 442.715765 
L 281.369369 454.867664 
L 283.906306 476.962025 
L 285.174775 484.695052 
L 286.443243 493.532796 
L 287.711712 503.475259 
L 290.248649 527.779056 
L 291.517117 541.035673 
L 292.785586 550.978136 
L 294.054054 556.501726 
L 295.322523 563.130035 
L 296.590991 570.863061 
L 297.859459 580.805524 
L 299.127928 591.852704 
L 300.396396 601.795167 
L 302.933333 617.26122 
L 305.47027 626.098964 
L 308.007207 632.727273 
L 310.544144 637.146145 
L 313.081081 643.774453 
L 314.34955 648.193326 
L 316.886486 659.240506 
L 320.691892 689.067894 
L 321.96036 694.591484 
L 323.228829 701.219793 
L 324.497297 706.743383 
L 325.765766 710.057537 
L 327.034234 714.47641 
L 329.571171 721.104718 
L 330.83964 723.314154 
L 332.108108 727.733026 
L 333.376577 731.047181 
L 334.645045 733.256617 
L 335.913514 738.780207 
L 337.181982 740.989643 
L 338.45045 742.094361 
L 339.718919 746.513234 
L 340.987387 752.036824 
L 342.255856 754.24626 
L 343.524324 759.76985 
L 346.061261 766.398159 
L 347.32973 770.817031 
L 349.866667 777.445339 
L 351.135135 781.864212 
L 353.672072 786.283084 
L 354.940541 791.806674 
L 356.209009 795.120829 
L 357.477477 797.330265 
L 358.745946 805.063291 
L 361.282883 813.901036 
L 362.551351 816.110472 
L 363.81982 822.73878 
L 365.088288 826.052934 
L 366.356757 828.262371 
L 367.625225 832.681243 
L 368.893694 834.890679 
L 370.162162 838.204833 
L 371.430631 840.414269 
L 372.699099 843.728423 
L 373.967568 845.93786 
L 375.236036 850.356732 
L 376.504505 851.46145 
L 377.772973 853.670886 
L 379.041441 854.775604 
L 380.30991 858.089758 
L 381.578378 859.194476 
L 384.115315 863.613349 
L 386.652252 865.822785 
L 387.920721 869.136939 
L 389.189189 870.241657 
L 390.457658 872.451093 
L 391.726126 873.555811 
L 392.994595 875.765247 
L 395.531532 877.974684 
L 396.8 880.18412 
L 399.336937 880.18412 
L 400.605405 398.527043 
L 401.873874 394.10817 
L 404.410811 387.479862 
L 405.679279 387.479862 
L 406.947748 388.58458 
L 408.216216 390.794016 
L 409.484685 407.364787 
L 410.753153 465.914845 
L 412.021622 483.590334 
L 413.29009 563.130035 
L 414.558559 616.156502 
L 415.827027 708.952819 
L 419.632432 785.178366 
L 420.900901 801.749137 
L 422.169369 810.586881 
L 423.437838 818.319908 
L 424.706306 820.529344 
L 425.974775 817.21519 
L 427.243243 808.377445 
L 428.511712 794.01611 
L 429.78018 776.340621 
L 431.048649 765.293441 
L 433.585586 747.617952 
L 434.854054 737.675489 
L 436.122523 721.104718 
L 437.390991 708.952819 
L 438.659459 694.591484 
L 439.927928 687.963176 
L 441.196396 682.439586 
L 443.733333 673.601841 
L 445.001802 668.078251 
L 446.27027 665.868815 
L 447.538739 661.449942 
L 450.075676 659.240506 
L 452.612613 659.240506 
L 453.881081 660.345224 
L 455.14955 662.554661 
L 457.686486 664.764097 
L 461.491892 664.764097 
L 464.028829 666.973533 
L 465.297297 671.392405 
L 466.565766 687.963176 
L 467.834234 713.371692 
L 469.102703 734.361335 
L 470.371171 746.513234 
L 471.63964 755.350978 
L 472.908108 761.979287 
L 474.176577 767.502877 
L 475.445045 767.502877 
L 476.713514 768.607595 
L 477.981982 768.607595 
L 479.25045 770.817031 
L 484.324324 770.817031 
L 485.592793 771.921749 
L 495.740541 771.921749 
L 497.009009 760.874568 
L 499.545946 727.733026 
L 500.814414 691.27733 
L 502.082883 640.460299 
L 503.351351 599.585731 
L 504.61982 535.512083 
L 505.888288 480.27618 
L 507.156757 438.296893 
L 508.425225 370.909091 
L 510.962162 304.626007 
L 512.230631 281.426928 
L 513.499099 261.542002 
L 514.767568 238.342923 
L 516.036036 226.191024 
L 517.304505 215.143843 
L 518.572973 208.515535 
L 519.841441 205.201381 
L 521.10991 202.991945 
L 523.646847 200.782509 
L 524.915315 198.573072 
L 527.452252 196.363636 
L 529.989189 196.363636 
L 531.257658 198.573072 
L 532.526126 199.677791 
L 533.794595 201.887227 
L 535.063063 207.410817 
L 536.331532 218.457998 
L 537.6 225.086306 
L 538.868468 235.028769 
L 540.136937 243.866513 
L 541.405405 256.018412 
L 542.673874 265.960875 
L 543.942342 273.693901 
L 545.210811 284.741082 
L 546.479279 292.474108 
L 547.747748 297.997699 
L 549.016216 306.835443 
L 552.821622 326.720368 
L 554.09009 332.243959 
L 555.358559 341.081703 
L 556.627027 353.233602 
L 557.895495 367.594937 
L 559.163964 377.537399 
L 561.700901 399.631761 
L 562.969369 409.574223 
L 564.237838 423.935558 
L 565.506306 442.715765 
L 566.774775 454.867664 
L 569.311712 476.962025 
L 570.58018 484.695052 
L 571.848649 493.532796 
L 573.117117 503.475259 
L 575.654054 527.779056 
L 576.922523 541.035673 
L 578.190991 550.978136 
L 579.459459 556.501726 
L 580.727928 563.130035 
L 581.996396 570.863061 
L 583.264865 580.805524 
L 584.533333 591.852704 
L 585.801802 601.795167 
L 588.338739 617.26122 
L 590.875676 626.098964 
L 593.412613 632.727273 
L 595.94955 637.146145 
L 598.486486 643.774453 
L 599.754955 648.193326 
L 602.291892 659.240506 
L 606.097297 689.067894 
L 607.365766 694.591484 
L 608.634234 701.219793 
L 609.902703 706.743383 
L 611.171171 710.057537 
L 612.43964 714.47641 
L 614.976577 721.104718 
L 616.245045 723.314154 
L 617.513514 727.733026 
L 618.781982 731.047181 
L 620.05045 733.256617 
L 621.318919 738.780207 
L 622.587387 740.989643 
L 623.855856 742.094361 
L 625.124324 746.513234 
L 626.392793 752.036824 
L 627.661261 754.24626 
L 628.92973 759.76985 
L 631.466667 766.398159 
L 632.735135 770.817031 
L 635.272072 777.445339 
L 636.540541 781.864212 
L 639.077477 786.283084 
L 640.345946 791.806674 
L 641.614414 795.120829 
L 642.882883 797.330265 
L 644.151351 805.063291 
L 646.688288 813.901036 
L 647.956757 816.110472 
L 649.225225 822.73878 
L 650.493694 826.052934 
L 651.762162 828.262371 
L 653.030631 832.681243 
L 654.299099 834.890679 
L 655.567568 838.204833 
L 656.836036 840.414269 
L 658.104505 843.728423 
L 659.372973 845.93786 
L 660.641441 850.356732 
L 661.90991 851.46145 
L 663.178378 853.670886 
L 664.446847 854.775604 
L 665.715315 858.089758 
L 666.983784 859.194476 
L 669.520721 863.613349 
L 672.057658 865.822785 
L 673.326126 869.136939 
L 674.594595 870.241657 
L 675.863063 872.451093 
L 677.131532 873.555811 
L 678.4 875.765247 
L 680.936937 877.974684 
L 682.205405 880.18412 
L 684.742342 880.18412 
L 686.010811 398.527043 
L 687.279279 394.10817 
L 689.816216 387.479862 
L 691.084685 387.479862 
L 692.353153 388.58458 
L 693.621622 390.794016 
L 694.89009 407.364787 
L 696.158559 465.914845 
L 697.427027 483.590334 
L 698.695495 563.130035 
L 699.963964 616.156502 
L 701.232432 708.952819 
L 705.037838 785.178366 
L 706.306306 801.749137 
L 707.574775 810.586881 
L 708.843243 818.319908 
L 710.111712 820.529344 
L 711.38018 817.21519 
L 712.648649 808.377445 
L 713.917117 794.01611 
L 715.185586 776.340621 
L 716.454054 765.293441 
L 718.990991 747.617952 
L 720.259459 737.675489 
L 721.527928 721.104718 
L 722.796396 708.952819 
L 724.064865 694.591484 
L 725.333333 687.963176 
L 726.601802 682.439586 
L 729.138739 673.601841 
L 730.407207 668.078251 
L 731.675676 665.868815 
L 732.944144 661.449942 
L 735.481081 659.240506 
L 738.018018 659.240506 
L 739.286486 660.345224 
L 740.554955 662.554661 
L 743.091892 664.764097 
L 746.897297 664.764097 
L 749.434234 666.973533 
L 750.702703 671.392405 
L 751.971171 687.963176 
L 753.23964 713.371692 
L 754.508108 734.361335 
L 755.776577 746.513234 
L 757.045045 755.350978 
L 758.313514 761.979287 
L 759.581982 767.502877 
L 760.85045 767.502877 
L 762.118919 768.607595 
L 763.387387 768.607595 
L 764.655856 770.817031 
L 769.72973 770.817031 
L 770.998198 771.921749 
L 781.145946 771.921749 
L 782.414414 760.874568 
L 784.951351 727.733026 
L 786.21982 691.27733 
L 787.488288 640.460299 
L 788.756757 599.585731 
L 790.025225 535.512083 
L 791.293694 480.27618 
L 792.562162 438.296893 
L 793.830631 370.909091 
L 796.367568 304.626007 
L 797.636036 281.426928 
L 798.904505 261.542002 
L 800.172973 238.342923 
L 801.441441 226.191024 
L 802.70991 215.143843 
L 803.978378 208.515535 
L 805.246847 205.201381 
L 806.515315 202.991945 
L 809.052252 200.782509 
L 810.320721 198.573072 
L 812.857658 196.363636 
L 815.394595 196.363636 
L 816.663063 198.573072 
L 817.931532 199.677791 
L 819.2 201.887227 
L 820.468468 207.410817 
L 821.736937 218.457998 
L 823.005405 225.086306 
L 824.273874 235.028769 
L 825.542342 243.866513 
L 826.810811 256.018412 
L 828.079279 265.960875 
L 829.347748 273.693901 
L 830.616216 284.741082 
L 831.884685 292.474108 
L 833.153153 297.997699 
L 834.421622 306.835443 
L 838.227027 326.720368 
L 839.495495 332.243959 
L 840.763964 341.081703 
L 842.032432 353.233602 
L 843.300901 367.594937 
L 844.569369 377.537399 
L 847.106306 399.631761 
L 848.374775 409.574223 
L 849.643243 423.935558 
L 850.911712 442.715765 
L 852.18018 454.867664 
L 854.717117 476.962025 
L 855.985586 484.695052 
L 857.254054 493.532796 
L 858.522523 503.475259 
L 861.059459 527.779056 
L 862.327928 541.035673 
L 863.596396 550.978136 
L 864.864865 556.501726 
L 866.133333 563.130035 
L 867.401802 570.863061 
L 868.67027 580.805524 
L 869.938739 591.852704 
L 871.207207 601.795167 
L 873.744144 617.26122 
L 876.281081 626.098964 
L 878.818018 632.727273 
L 881.354955 637.146145 
L 883.891892 643.774453 
L 885.16036 648.193326 
L 887.697297 659.240506 
L 891.502703 689.067894 
L 892.771171 694.591484 
L 894.03964 701.219793 
L 895.308108 706.743383 
L 896.576577 710.057537 
L 897.845045 714.47641 
L 900.381982 721.104718 
L 901.65045 723.314154 
L 902.918919 727.733026 
L 904.187387 731.047181 
L 905.455856 733.256617 
L 906.724324 738.780207 
L 907.992793 740.989643 
L 909.261261 742.094361 
L 910.52973 746.513234 
L 911.798198 752.036824 
L 913.066667 754.24626 
L 914.335135 759.76985 
L 916.872072 766.398159 
L 918.140541 770.817031 
L 920.677477 777.445339 
L 921.945946 781.864212 
L 924.482883 786.283084 
L 925.751351 791.806674 
L 927.01982 795.120829 
L 928.288288 797.330265 
L 929.556757 805.063291 
L 932.093694 813.901036 
L 933.362162 816.110472 
L 934.630631 822.73878 
L 935.899099 826.052934 
L 937.167568 828.262371 
L 938.436036 832.681243 
L 939.704505 834.890679 
L 940.972973 838.204833 
L 942.241441 840.414269 
L 943.50991 843.728423 
L 944.778378 845.93786 
L 946.046847 850.356732 
L 947.315315 851.46145 
L 948.583784 853.670886 
L 949.852252 854.775604 
L 951.120721 858.089758 
L 952.389189 859.194476 
L 954.926126 863.613349 
L 957.463063 865.822785 
L 958.731532 869.136939 
L 960 870.241657 
L 961.268468 872.451093 
L 962.536937 873.555811 
L 963.805405 875.765247 
L 966.342342 877.974684 
L 967.610811 880.18412 
L 970.147748 880.18412 
L 971.416216 398.527043 
L 972.684685 394.10817 
L 975.221622 387.479862 
L 976.49009 387.479862 
L 977.758559 388.58458 
L 979.027027 390.794016 
L 980.295495 407.364787 
L 981.563964 465.914845 
L 982.832432 483.590334 
L 984.100901 563.130035 
L 985.369369 616.156502 
L 986.637838 708.952819 
L 990.443243 785.178366 
L 991.711712 801.749137 
L 992.98018 810.586881 
L 994.248649 818.319908 
L 995.517117 820.529344 
L 996.785586 817.21519 
L 998.054054 808.377445 
L 999.322523 794.01611 
L 1000.590991 776.340621 
L 1001.859459 765.293441 
L 1004.396396 747.617952 
L 1005.664865 737.675489 
L 1006.933333 721.104718 
L 1008.201802 708.952819 
L 1009.47027 694.591484 
L 1010.738739 687.963176 
L 1012.007207 682.439586 
L 1014.544144 673.601841 
L 1015.812613 668.078251 
L 1017.081081 665.868815 
L 1018.34955 661.449942 
L 1020.886486 659.240506 
L 1023.423423 659.240506 
L 1024.691892 660.345224 
L 1025.96036 662.554661 
L 1028.497297 664.764097 
L 1032.302703 664.764097 
L 1034.83964 666.973533 
L 1036.108108 671.392405 
L 1037.376577 687.963176 
L 1038.645045 713.371692 
L 1039.913514 734.361335 
L 1041.181982 746.513234 
L 1042.45045 755.350978 
L 1043.718919 761.979287 
L 1044.987387 767.502877 
L 1046.255856 767.502877 
L 1047.524324 768.607595 
L 1048.792793 768.607595 
L 1050.061261 770.817031 
L 1055.135135 770.817031 
L 1056.403604 771.921749 
L 1066.551351 771.921749 
L 1067.81982 760.874568 
L 1070.356757 727.733026 
L 1071.625225 691.27733 
L 1072.893694 640.460299 
L 1074.162162 599.585731 
L 1075.430631 535.512083 
L 1076.699099 480.27618 
L 1077.967568 438.296893 
L 1079.236036 370.909091 
L 1081.772973 304.626007 
L 1083.041441 281.426928 
L 1084.30991 261.542002 
L 1085.578378 238.342923 
L 1086.846847 226.191024 
L 1088.115315 215.143843 
L 1089.383784 208.515535 
L 1090.652252 205.201381 
L 1091.920721 202.991945 
L 1094.457658 200.782509 
L 1095.726126 198.573072 
L 1098.263063 196.363636 
L 1100.8 196.363636 
L 1102.068468 198.573072 
L 1103.336937 199.677791 
L 1104.605405 201.887227 
L 1105.873874 207.410817 
L 1107.142342 218.457998 
L 1108.410811 225.086306 
L 1109.679279 235.028769 
L 1110.947748 243.866513 
L 1112.216216 256.018412 
L 1113.484685 265.960875 
L 1114.753153 273.693901 
L 1116.021622 284.741082 
L 1117.29009 292.474108 
L 1118.558559 297.997699 
L 1119.827027 306.835443 
L 1123.632432 326.720368 
L 1124.900901 332.243959 
L 1126.169369 341.081703 
L 1127.437838 353.233602 
L 1128.706306 367.594937 
L 1129.974775 377.537399 
L 1132.511712 399.631761 
L 1133.78018 409.574223 
L 1135.048649 423.935558 
L 1136.317117 442.715765 
L 1137.585586 454.867664 
L 1140.122523 476.962025 
L 1141.390991 484.695052 
L 1142.659459 493.532796 
L 1143.927928 503.475259 
L 1146.464865 527.779056 
L 1147.733333 541.035673 
L 1149.001802 550.978136 
L 1150.27027 556.501726 
L 1151.538739 563.130035 
L 1152.807207 570.863061 
L 1154.075676 580.805524 
L 1155.344144 591.852704 
L 1156.612613 601.795167 
L 1159.14955 617.26122 
L 1161.686486 626.098964 
L 1164.223423 632.727273 
L 1166.76036 637.146145 
L 1169.297297 643.774453 
L 1170.565766 648.193326 
L 1173.102703 659.240506 
L 1176.908108 689.067894 
L 1178.176577 694.591484 
L 1179.445045 701.219793 
L 1180.713514 706.743383 
L 1181.981982 710.057537 
L 1183.25045 714.47641 
L 1185.787387 721.104718 
L 1187.055856 723.314154 
L 1188.324324 727.733026 
L 1189.592793 731.047181 
L 1190.861261 733.256617 
L 1192.12973 738.780207 
L 1193.398198 740.989643 
L 1194.666667 742.094361 
L 1195.935135 746.513234 
L 1197.203604 752.036824 
L 1198.472072 754.24626 
L 1199.740541 759.76985 
L 1202.277477 766.398159 
L 1203.545946 770.817031 
L 1206.082883 777.445339 
L 1207.351351 781.864212 
L 1209.888288 786.283084 
L 1211.156757 791.806674 
L 1212.425225 795.120829 
L 1213.693694 797.330265 
L 1214.962162 805.063291 
L 1217.499099 813.901036 
L 1218.767568 816.110472 
L 1220.036036 822.73878 
L 1221.304505 826.052934 
L 1222.572973 828.262371 
L 1223.841441 832.681243 
L 1225.10991 834.890679 
L 1226.378378 838.204833 
L 1227.646847 840.414269 
L 1228.915315 843.728423 
L 1230.183784 845.93786 
L 1231.452252 850.356732 
L 1232.720721 851.46145 
L 1233.989189 853.670886 
L 1235.257658 854.775604 
L 1236.526126 858.089758 
L 1237.794595 859.194476 
L 1240.331532 863.613349 
L 1242.868468 865.822785 
L 1244.136937 869.136939 
L 1245.405405 870.241657 
L 1246.673874 872.451093 
L 1247.942342 873.555811 
L 1249.210811 875.765247 
L 1251.747748 877.974684 
L 1253.016216 880.18412 
L 1255.553153 880.18412 
L 1256.821622 398.527043 
L 1258.09009 394.10817 
L 1260.627027 387.479862 
L 1261.895495 387.479862 
L 1263.163964 388.58458 
L 1264.432432 390.794016 
L 1265.700901 407.364787 
L 1266.969369 465.914845 
L 1268.237838 483.590334 
L 1269.506306 563.130035 
L 1270.774775 616.156502 
L 1272.043243 708.952819 
L 1275.848649 785.178366 
L 1277.117117 801.749137 
L 1278.385586 810.586881 
L 1279.654054 818.319908 
L 1280.922523 820.529344 
L 1282.190991 817.21519 
L 1283.459459 808.377445 
L 1284.727928 794.01611 
L 1285.996396 776.340621 
L 1287.264865 765.293441 
L 1289.801802 747.617952 
L 1291.07027 737.675489 
L 1292.338739 721.104718 
L 1293.607207 708.952819 
L 1294.875676 694.591484 
L 1296.144144 687.963176 
L 1297.412613 682.439586 
L 1299.94955 673.601841 
L 1301.218018 668.078251 
L 1302.486486 665.868815 
L 1303.754955 661.449942 
L 1306.291892 659.240506 
L 1308.828829 659.240506 
L 1310.097297 660.345224 
L 1311.365766 662.554661 
L 1313.902703 664.764097 
L 1317.708108 664.764097 
L 1320.245045 666.973533 
L 1321.513514 671.392405 
L 1322.781982 687.963176 
L 1324.05045 713.371692 
L 1325.318919 734.361335 
L 1326.587387 746.513234 
L 1327.855856 755.350978 
L 1329.124324 761.979287 
L 1330.392793 767.502877 
L 1331.661261 767.502877 
L 1332.92973 768.607595 
L 1334.198198 768.607595 
L 1335.466667 770.817031 
L 1340.540541 770.817031 
L 1341.809009 771.921749 
L 1351.956757 771.921749 
L 1353.225225 760.874568 
L 1355.762162 727.733026 
L 1357.030631 691.27733 
L 1358.299099 640.460299 
L 1359.567568 599.585731 
L 1360.836036 535.512083 
L 1362.104505 480.27618 
L 1363.372973 438.296893 
L 1364.641441 370.909091 
L 1367.178378 304.626007 
L 1368.446847 281.426928 
L 1369.715315 261.542002 
L 1370.983784 238.342923 
L 1372.252252 226.191024 
L 1373.520721 215.143843 
L 1374.789189 208.515535 
L 1376.057658 205.201381 
L 1377.326126 202.991945 
L 1379.863063 200.782509 
L 1381.131532 198.573072 
L 1382.4 197.468354 
L 1382.4 197.468354 
" style="fill:none;stroke:#000004;stroke-width:3;"/>
   </g>
   <g id="line2d_22">
    <path clip-path="url(#p6383171dc7)" d="M 115.2 1243.636364 
L 1382.4 1243.636364 
" style="fill:none;stroke:#000000;stroke-opacity:0.7;stroke-width:1.3;"/>
   </g>
   <g id="patch_3">
    <path d="M 115.2 1296 
L 115.2 144 
" style="fill:none;stroke:#000000;stroke-linecap:square;stroke-linejoin:miter;stroke-width:0.8;"/>
   </g>
   <g id="patch_4">
    <path d="M 1382.4 1296 
L 1382.4 144 
" style="fill:none;stroke:#000000;stroke-linecap:square;stroke-linejoin:miter;stroke-width:0.8;"/>
   </g>
   <g id="patch_5">
    <path d="M 115.2 1296 
L 1382.4 1296 
" style="fill:none;stroke:#000000;stroke-linecap:square;stroke-linejoin:miter;stroke-width:0.8;"/>
   </g>
   <g id="patch_6">
    <path d="M 115.2 144 
L 1382.4 144 
" style="fill:none;stroke:#000000;stroke-linecap:square;stroke-linejoin:miter;stroke-width:0.8;"/>
   </g>
   <g id="patch_7">
    <path d="M 0 1440 
L 1440 1440 
L 1440 1416.729153 
L 0 1416.729153 
z
" style="fill:#808080;"/>
   </g>
   <g id="text_13">
    <!-- ©spred -->
    <defs>
     <path d="M 50.90625 25.90625 
L 50.90625 44 
Q 50.90625 52.40625 44.75 58.40625 
Q 38.59375 64.40625 30 64.40625 
Q 21.296875 64.40625 15.09375 58.40625 
Q 8.90625 52.40625 8.90625 44 
L 8.90625 25.90625 
Q 8.90625 17.5 15.09375 11.453125 
Q 21.296875 5.40625 30 5.40625 
Q 38.59375 5.40625 44.75 11.453125 
Q 50.90625 17.5 50.90625 25.90625 
z
M 57.703125 43.203125 
L 57.703125 26.59375 
Q 57.703125 15.203125 49.59375 7.09375 
Q 41.5 -1 30 -1 
Q 18.40625 -1 10.296875 7.09375 
Q 2.203125 15.203125 2.203125 26.59375 
L 2.203125 43.203125 
Q 2.203125 54.59375 10.296875 62.6875 
Q 18.40625 70.796875 30 70.796875 
Q 41.5 70.796875 49.59375 62.6875 
Q 57.703125 54.59375 57.703125 43.203125 
z
M 38.59375 29.40625 
L 41.40625 29.40625 
Q 42.40625 29.40625 42.90625 28.84375 
Q 43.40625 28.296875 43.40625 27.59375 
Q 43.40625 21.59375 39.796875 17.9375 
Q 36.203125 14.296875 30.40625 14.296875 
Q 24.40625 14.296875 20.75 17.9375 
Q 17.09375 21.59375 17.09375 27.09375 
L 17.09375 43.40625 
Q 17.09375 48.703125 20.75 52.390625 
Q 24.40625 56.09375 30.40625 56.09375 
Q 35.90625 56.09375 39.40625 52.25 
Q 42.90625 48.40625 42.90625 42.296875 
Q 42.90625 41.59375 42.40625 41.046875 
Q 41.90625 40.5 40.90625 40.5 
L 38.09375 40.5 
Q 37.09375 40.5 36.546875 41.046875 
Q 36 41.59375 36 42.296875 
Q 36 45.203125 34.390625 47.046875 
Q 32.796875 48.90625 30.40625 48.90625 
Q 27.703125 48.90625 25.796875 46.90625 
Q 23.90625 44.90625 23.90625 42.203125 
L 23.90625 28.203125 
Q 23.90625 25.59375 25.796875 23.59375 
Q 27.703125 21.59375 30.40625 21.59375 
Q 32.90625 21.59375 34.703125 23.1875 
Q 36.5 24.796875 36.5 27.59375 
Q 36.5 28.296875 37.046875 28.84375 
Q 37.59375 29.40625 38.59375 29.40625 
z
" id="DecimaMonoPro-169"/>
     <path d="M 30.09375 -1 
Q 25.296875 -1 21.546875 0.59375 
Q 17.796875 2.203125 15.84375 4.59375 
Q 13.90625 7 12.953125 9.390625 
Q 12 11.796875 12 14 
Q 12 14.796875 12.5 15.296875 
Q 13 15.796875 13.796875 15.796875 
L 18.296875 15.796875 
Q 19.90625 15.796875 20.09375 14.09375 
Q 20.40625 11.203125 22.796875 8.703125 
Q 25.203125 6.203125 30.09375 6.203125 
Q 34.296875 6.203125 36.890625 8.296875 
Q 39.5 10.40625 39.5 13.59375 
Q 39.5 16.5 36.84375 18.5 
Q 34.203125 20.5 30.390625 21.84375 
Q 26.59375 23.203125 22.84375 24.796875 
Q 19.09375 26.40625 16.4375 29.5 
Q 13.796875 32.59375 13.796875 37.09375 
Q 13.796875 43.296875 18.4375 47.140625 
Q 23.09375 51 30.703125 51 
Q 38.90625 51 43.25 46.5 
Q 47.59375 42 47.59375 37.5 
Q 47.59375 36.796875 47.09375 36.25 
Q 46.59375 35.703125 45.796875 35.703125 
L 41.203125 35.703125 
Q 39.703125 35.703125 39.40625 37.40625 
Q 38.90625 40 36.75 41.890625 
Q 34.59375 43.796875 30.703125 43.796875 
Q 26.90625 43.796875 24.546875 42.09375 
Q 22.203125 40.40625 22.203125 37.703125 
Q 22.203125 35 24.84375 33.09375 
Q 27.5 31.203125 31.25 29.890625 
Q 35 28.59375 38.703125 26.9375 
Q 42.40625 25.296875 45.046875 21.84375 
Q 47.703125 18.40625 47.703125 13.40625 
Q 47.703125 7.40625 42.59375 3.203125 
Q 37.5 -1 30.09375 -1 
z
" id="DecimaMonoPro-115"/>
     <path d="M 42.09375 17.09375 
L 42.09375 33.09375 
Q 42.09375 37.703125 38.84375 40.796875 
Q 35.59375 43.90625 30.5 43.90625 
Q 25.40625 43.90625 22.046875 40.75 
Q 18.703125 37.59375 18.703125 33 
L 18.703125 17.09375 
Q 18.703125 12.5 22.046875 9.390625 
Q 25.40625 6.296875 30.5 6.296875 
Q 35.59375 6.296875 38.84375 9.390625 
Q 42.09375 12.5 42.09375 17.09375 
z
M 18.703125 3.703125 
L 18.796875 -16.203125 
Q 18.796875 -18 16.5 -18 
L 13 -18 
Q 10.703125 -18 10.703125 -16.203125 
L 10.703125 48.203125 
Q 10.703125 50 13 50 
L 15.90625 50 
Q 18.203125 50 18.203125 48.203125 
L 18.203125 45.90625 
Q 18.59375 46.5 19.5 47.34375 
Q 20.40625 48.203125 23.75 49.59375 
Q 27.09375 51 31.296875 51 
Q 39.296875 51 44.796875 45.640625 
Q 50.296875 40.296875 50.296875 32.59375 
L 50.296875 17.40625 
Q 50.296875 9.796875 44.75 4.390625 
Q 39.203125 -1 31.296875 -1 
Q 27.40625 -1 24.25 0.203125 
Q 21.09375 1.40625 19.90625 2.59375 
z
" id="DecimaMonoPro-112"/>
     <path d="M 37.203125 51 
Q 44.09375 51 48.140625 46.453125 
Q 52.203125 41.90625 52.203125 37.5 
Q 52.203125 35.703125 50.5 35.703125 
L 45.90625 35.703125 
Q 44.296875 35.703125 44.09375 37.40625 
Q 43.796875 39.796875 41.75 41.796875 
Q 39.703125 43.796875 36.59375 43.796875 
Q 32.40625 43.796875 29.203125 40.796875 
Q 26 37.796875 26 34 
L 26 7.203125 
L 45.09375 7.203125 
Q 45.796875 7.203125 46.34375 6.703125 
Q 46.90625 6.203125 46.90625 5.40625 
L 46.90625 1.796875 
Q 46.90625 1 46.34375 0.5 
Q 45.796875 0 45.09375 0 
L 9.296875 0 
Q 8.59375 0 8.046875 0.5 
Q 7.5 1 7.5 1.796875 
L 7.5 5.40625 
Q 7.5 6.203125 8.046875 6.703125 
Q 8.59375 7.203125 9.296875 7.203125 
L 18 7.203125 
L 18 48.203125 
Q 18 50 20.296875 50 
L 23.5 50 
Q 25.796875 50 25.796875 48.203125 
L 25.796875 45.703125 
Q 29.796875 51 37.203125 51 
z
" id="DecimaMonoPro-114"/>
     <path d="M 48.796875 13.5 
Q 48.796875 9.09375 43.75 4.046875 
Q 38.703125 -1 30.203125 -1 
Q 21.203125 -1 15.75 4.453125 
Q 10.296875 9.90625 10.296875 17.5 
L 10.296875 32.703125 
Q 10.296875 40.203125 15.75 45.59375 
Q 21.203125 51 30.203125 51 
Q 39.203125 51 44.453125 45.59375 
Q 49.703125 40.203125 49.703125 32.703125 
L 49.703125 24.796875 
Q 49.703125 23.796875 49.046875 23.140625 
Q 48.40625 22.5 47.40625 22.5 
L 18.40625 22.5 
L 18.40625 17 
Q 18.40625 12.5 21.65625 9.296875 
Q 24.90625 6.09375 30.203125 6.09375 
Q 38.5 6.09375 40.59375 13.59375 
Q 41.09375 15.296875 42.40625 15.296875 
L 47 15.296875 
Q 47.796875 15.296875 48.296875 14.75 
Q 48.796875 14.203125 48.796875 13.5 
z
M 18.40625 33 
L 18.40625 29.703125 
L 41.796875 29.703125 
L 41.796875 33 
Q 41.796875 37.5 38.640625 40.640625 
Q 35.5 43.796875 30.203125 43.796875 
Q 24.90625 43.796875 21.65625 40.640625 
Q 18.40625 37.5 18.40625 33 
z
" id="DecimaMonoPro-101"/>
     <path d="M 17.90625 32.90625 
L 17.90625 16.90625 
Q 17.90625 12.296875 21.15625 9.1875 
Q 24.40625 6.09375 29.5 6.09375 
Q 34.59375 6.09375 37.9375 9.25 
Q 41.296875 12.40625 41.296875 17 
L 41.296875 32.90625 
Q 41.296875 37.5 37.9375 40.59375 
Q 34.59375 43.703125 29.5 43.703125 
Q 24.40625 43.703125 21.15625 40.59375 
Q 17.90625 37.5 17.90625 32.90625 
z
M 41.296875 46.296875 
L 41.203125 68.203125 
Q 41.203125 70 43.5 70 
L 47 70 
Q 49.296875 70 49.296875 68.203125 
L 49.296875 1.796875 
Q 49.296875 0 47 0 
L 44.09375 0 
Q 41.796875 0 41.796875 1.796875 
L 41.796875 4.09375 
Q 41.40625 3.5 40.5 2.640625 
Q 39.59375 1.796875 36.25 0.390625 
Q 32.90625 -1 28.703125 -1 
Q 20.703125 -1 15.203125 4.34375 
Q 9.703125 9.703125 9.703125 17.40625 
L 9.703125 32.59375 
Q 9.703125 40.203125 15.25 45.59375 
Q 20.796875 51 28.703125 51 
Q 32.59375 51 35.75 49.796875 
Q 38.90625 48.59375 40.09375 47.40625 
z
" id="DecimaMonoPro-100"/>
    </defs>
    <g style="fill:#ffffff;" transform="translate(28.8 1432.8)scale(0.14 -0.14)">
     <use xlink:href="#DecimaMonoPro-169"/>
     <use x="59.999985" xlink:href="#DecimaMonoPro-115"/>
     <use x="119.999969" xlink:href="#DecimaMonoPro-112"/>
     <use x="179.999954" xlink:href="#DecimaMonoPro-114"/>
     <use x="239.999939" xlink:href="#DecimaMonoPro-101"/>
     <use x="299.999924" xlink:href="#DecimaMonoPro-100"/>
    </g>
   </g>
   <g id="text_14">
    <!-- 1 -->
    <defs>
     <path d="M 26.5 70 
L 7.09375 58.40625 
L 7.09375 47.203125 
L 20.203125 55 
L 20.203125 0 
L 30.796875 0 
L 30.796875 70 
z
" id="ApercuPro-Medium-49"/>
    </defs>
    <g style="opacity:0.75;" transform="translate(124 72)scale(0.5 -0.5)">
     <use xlink:href="#ApercuPro-Medium-49"/>
    </g>
   </g>
   <g id="legend_1">
    <g id="patch_8">
     <path d="M 1321.36 174.968437 
L 1372.6 174.968437 
Q 1375.4 174.968437 1375.4 172.168437 
L 1375.4 153.8 
Q 1375.4 151 1372.6 151 
L 1321.36 151 
Q 1318.56 151 1318.56 153.8 
L 1318.56 172.168437 
Q 1318.56 174.968437 1321.36 174.968437 
z
" style="fill:#f0f0f0;opacity:0.8;stroke:#cccccc;stroke-linejoin:miter;stroke-width:0.5;"/>
    </g>
    <g id="line2d_23">
     <path d="M 1324.16 161.611562 
L 1352.16 161.611562 
" style="fill:none;stroke:#000004;stroke-width:3;"/>
    </g>
    <g id="line2d_24"/>
    <g id="text_15">
     <!-- y -->
     <g style="opacity:0.75;" transform="translate(1363.36 166.511562)scale(0.14 -0.14)">
      <use xlink:href="#Apercu-121"/>
     </g>
    </g>
   </g>
  </g>
 </g>
 <defs>
  <clipPath id="p6383171dc7">
   <rect height="1152" width="1267.2" x="115.2" y="144"/>
  </clipPath>
 </defs>
</svg>
