<?xml version="1.0" encoding="utf-8" standalone="no"?>
<!DOCTYPE svg PUBLIC "-//W3C//DTD SVG 1.1//EN"
  "http://www.w3.org/Graphics/SVG/1.1/DTD/svg11.dtd">
<!-- Created with matplotlib (https://matplotlib.org/) -->
<svg height="504pt" version="1.1" viewBox="0 0 648 504" width="648pt" xmlns="http://www.w3.org/2000/svg" xmlns:xlink="http://www.w3.org/1999/xlink">
 <defs>
  <style type="text/css">
*{stroke-linecap:butt;stroke-linejoin:round;}
  </style>
 </defs>
 <g id="figure_1">
  <g id="patch_1">
   <path d="M 0 504 
L 648 504 
L 648 0 
L 0 0 
z
" style="fill:#f0f0f0;"/>
  </g>
  <g id="axes_1">
   <g id="patch_2">
    <path d="M 51.84 413.28 
L 622.08 413.28 
L 622.08 75.6 
L 51.84 75.6 
z
" style="fill:#f0f0f0;"/>
   </g>
   <g id="matplotlib.axis_1">
    <g id="xtick_1">
     <g id="line2d_1">
      <path clip-path="url(#p434a3ab4b8)" d="M 51.84 413.28 
L 51.84 75.6 
" style="fill:none;stroke:#b0b0b0;stroke-linecap:square;stroke-width:0.8;"/>
     </g>
     <g id="line2d_2">
      <defs>
       <path d="M 0 0 
L 0 3.5 
" id="me34471a7b5" style="stroke:#000000;stroke-width:0.8;"/>
      </defs>
      <g>
       <use style="stroke:#000000;stroke-width:0.8;" x="51.84" xlink:href="#me34471a7b5" y="413.28"/>
      </g>
     </g>
     <g id="text_1">
      <!-- 0 -->
      <defs>
       <path d="M 48.203125 52.59375 
L 48.203125 17.40625 
Q 48.203125 9.703125 42.953125 4.34375 
Q 37.703125 -1 29.890625 -1 
Q 22.09375 -1 16.9375 4.390625 
Q 11.796875 9.796875 11.796875 17.5 
L 11.796875 52.59375 
Q 11.796875 60.296875 16.9375 65.640625 
Q 22.09375 71 29.890625 71 
Q 37.703125 71 42.953125 65.640625 
Q 48.203125 60.296875 48.203125 52.59375 
z
M 39.90625 17.296875 
L 39.90625 52.5 
Q 39.90625 56.90625 37 60 
Q 34.09375 63.09375 29.90625 63.09375 
Q 25.796875 63.09375 22.890625 60 
Q 20 56.90625 20 52.5 
L 20 17.40625 
Q 20 13 22.890625 9.953125 
Q 25.796875 6.90625 30 6.90625 
Q 34.09375 6.90625 37 9.90625 
Q 39.90625 12.90625 39.90625 17.296875 
z
" id="DecimaMonoPro-48"/>
      </defs>
      <g style="fill:#303030;" transform="translate(47.64 430.093125)scale(0.14 -0.14)">
       <use xlink:href="#DecimaMonoPro-48"/>
      </g>
     </g>
    </g>
    <g id="xtick_2">
     <g id="line2d_3">
      <path clip-path="url(#p434a3ab4b8)" d="M 166.002162 413.28 
L 166.002162 75.6 
" style="fill:none;stroke:#b0b0b0;stroke-linecap:square;stroke-width:0.8;"/>
     </g>
     <g id="line2d_4">
      <g>
       <use style="stroke:#000000;stroke-width:0.8;" x="166.002162" xlink:href="#me34471a7b5" y="413.28"/>
      </g>
     </g>
     <g id="text_2">
      <!-- 200 -->
      <defs>
       <path d="M 11.703125 53 
Q 11.703125 59.703125 17.203125 65.34375 
Q 22.703125 71 30.59375 71 
Q 38.40625 71 43.796875 65.75 
Q 49.203125 60.5 49.203125 52.703125 
Q 49.203125 46.90625 46.09375 41.75 
Q 43 36.59375 38.59375 32.84375 
Q 34.203125 29.09375 29.796875 25.4375 
Q 25.40625 21.796875 22.296875 17.296875 
Q 19.203125 12.796875 19.203125 7.796875 
L 47.40625 7.796875 
Q 48.203125 7.796875 48.703125 7.296875 
Q 49.203125 6.796875 49.203125 6 
L 49.203125 1.796875 
Q 49.203125 1 48.703125 0.5 
Q 48.203125 0 47.40625 0 
L 12.59375 0 
Q 11.796875 0 11.296875 0.5 
Q 10.796875 1 10.796875 1.796875 
L 10.796875 7.296875 
Q 10.796875 13.90625 13.890625 19.453125 
Q 17 25 21.390625 28.890625 
Q 25.796875 32.796875 30.1875 36.390625 
Q 34.59375 40 37.6875 44.296875 
Q 40.796875 48.59375 40.796875 53.296875 
Q 40.796875 57.40625 37.75 60.25 
Q 34.703125 63.09375 30.5 63.09375 
Q 26.09375 63.09375 23.1875 59.6875 
Q 20.296875 56.296875 20.09375 53 
Q 19.90625 51 17.796875 51 
L 14 51 
Q 12.90625 51 12.296875 51.59375 
Q 11.703125 52.203125 11.703125 53 
z
" id="DecimaMonoPro-50"/>
      </defs>
      <g style="fill:#303030;" transform="translate(153.402162 430.093125)scale(0.14 -0.14)">
       <use xlink:href="#DecimaMonoPro-50"/>
       <use x="59.999985" xlink:href="#DecimaMonoPro-48"/>
       <use x="119.999969" xlink:href="#DecimaMonoPro-48"/>
      </g>
     </g>
    </g>
    <g id="xtick_3">
     <g id="line2d_5">
      <path clip-path="url(#p434a3ab4b8)" d="M 280.164324 413.28 
L 280.164324 75.6 
" style="fill:none;stroke:#b0b0b0;stroke-linecap:square;stroke-width:0.8;"/>
     </g>
     <g id="line2d_6">
      <g>
       <use style="stroke:#000000;stroke-width:0.8;" x="280.164324" xlink:href="#me34471a7b5" y="413.28"/>
      </g>
     </g>
     <g id="text_3">
      <!-- 400 -->
      <defs>
       <path d="M 40.09375 67.5 
L 19.5 22.90625 
L 35.796875 22.90625 
L 35.796875 38.90625 
Q 35.796875 39.703125 36.390625 40.296875 
Q 37 40.90625 38.09375 40.90625 
L 42.203125 40.90625 
Q 43 40.90625 43.59375 40.25 
Q 44.203125 39.59375 44.203125 38.90625 
L 44.203125 22.90625 
L 48 22.90625 
Q 48.796875 22.90625 49.390625 22.296875 
Q 50 21.703125 50 20.59375 
L 50 17.40625 
Q 50 16.296875 49.390625 15.6875 
Q 48.796875 15.09375 48 15.09375 
L 44.203125 15.09375 
L 44.203125 2 
Q 44.203125 1.203125 43.59375 0.59375 
Q 43 0 42.203125 0 
L 38.09375 0 
Q 37 0 36.390625 0.59375 
Q 35.796875 1.203125 35.796875 2 
L 35.796875 15.09375 
L 12.09375 15.09375 
Q 9.90625 15.09375 9.90625 17.40625 
L 9.90625 21.296875 
Q 9.90625 22.5 11 24.703125 
L 31.296875 68 
Q 32.296875 70 34 70 
L 38.796875 70 
Q 40.5 70 40.5 68.796875 
Q 40.5 68.5 40.09375 67.5 
z
" id="DecimaMonoPro-52"/>
      </defs>
      <g style="fill:#303030;" transform="translate(267.564324 430.093125)scale(0.14 -0.14)">
       <use xlink:href="#DecimaMonoPro-52"/>
       <use x="59.999985" xlink:href="#DecimaMonoPro-48"/>
       <use x="119.999969" xlink:href="#DecimaMonoPro-48"/>
      </g>
     </g>
    </g>
    <g id="xtick_4">
     <g id="line2d_7">
      <path clip-path="url(#p434a3ab4b8)" d="M 394.326486 413.28 
L 394.326486 75.6 
" style="fill:none;stroke:#b0b0b0;stroke-linecap:square;stroke-width:0.8;"/>
     </g>
     <g id="line2d_8">
      <g>
       <use style="stroke:#000000;stroke-width:0.8;" x="394.326486" xlink:href="#me34471a7b5" y="413.28"/>
      </g>
     </g>
     <g id="text_4">
      <!-- 600 -->
      <defs>
       <path d="M 11 60.203125 
Q 21.59375 71 29.5 71 
Q 37.40625 71 42.65625 65.953125 
Q 47.90625 60.90625 47.90625 54.40625 
Q 47.90625 53.59375 47.296875 53 
Q 46.703125 52.40625 45.59375 52.40625 
L 41.796875 52.40625 
Q 39.703125 52.40625 39.5 54.40625 
Q 39.296875 57.59375 36.640625 60.296875 
Q 34 63 29.5 63 
Q 25.203125 63 22.25 59.890625 
Q 19.296875 56.796875 19.296875 52.40625 
L 19.296875 42.796875 
Q 19.703125 43.296875 20.59375 44.046875 
Q 21.5 44.796875 24.546875 46 
Q 27.59375 47.203125 31 47.203125 
Q 38.40625 47.203125 43.703125 42 
Q 49 36.796875 49 28.90625 
L 49 17.5 
Q 49 9.796875 43.546875 4.390625 
Q 38.09375 -1 30 -1 
Q 21.90625 -1 16.453125 4.34375 
Q 11 9.703125 11 17.40625 
L 11 52.5 
Q 11 60.203125 21.59375 71 
z
M 30 39.296875 
Q 25.40625 39.296875 22.34375 36.390625 
Q 19.296875 33.5 19.296875 28.796875 
L 19.296875 17.296875 
Q 19.296875 12.90625 22.390625 9.90625 
Q 25.5 6.90625 30 6.90625 
Q 34.40625 6.90625 37.5 9.953125 
Q 40.59375 13 40.59375 17.40625 
L 40.59375 28.796875 
Q 40.59375 33.40625 37.546875 36.34375 
Q 34.5 39.296875 30 39.296875 
z
" id="DecimaMonoPro-54"/>
      </defs>
      <g style="fill:#303030;" transform="translate(381.726486 430.093125)scale(0.14 -0.14)">
       <use xlink:href="#DecimaMonoPro-54"/>
       <use x="59.999985" xlink:href="#DecimaMonoPro-48"/>
       <use x="119.999969" xlink:href="#DecimaMonoPro-48"/>
      </g>
     </g>
    </g>
    <g id="xtick_5">
     <g id="line2d_9">
      <path clip-path="url(#p434a3ab4b8)" d="M 508.488649 413.28 
L 508.488649 75.6 
" style="fill:none;stroke:#b0b0b0;stroke-linecap:square;stroke-width:0.8;"/>
     </g>
     <g id="line2d_10">
      <g>
       <use style="stroke:#000000;stroke-width:0.8;" x="508.488649" xlink:href="#me34471a7b5" y="413.28"/>
      </g>
     </g>
     <g id="text_5">
      <!-- 800 -->
      <defs>
       <path d="M 48.09375 53.5 
L 48.09375 49.796875 
Q 48.09375 41.5 41.796875 36.40625 
Q 49 30.796875 49 21.703125 
L 49 17.40625 
Q 49 9.703125 43.640625 4.34375 
Q 38.296875 -1 30.5 -1 
L 29.59375 -1 
Q 21.796875 -1 16.390625 4.390625 
Q 11 9.796875 11 17.5 
L 11 21.703125 
Q 11 30.703125 18.296875 36.40625 
Q 11.796875 41.296875 11.796875 49.90625 
L 11.796875 53.5 
Q 11.796875 60.796875 16.9375 65.890625 
Q 22.09375 71 29.5 71 
L 30.40625 71 
Q 37.796875 71 42.9375 65.890625 
Q 48.09375 60.796875 48.09375 53.5 
z
M 40.59375 17.296875 
L 40.59375 21.59375 
Q 40.59375 26 37.5 29.09375 
Q 34.40625 32.203125 30 32.203125 
Q 25.59375 32.203125 22.5 29.09375 
Q 19.40625 26 19.40625 21.59375 
L 19.40625 17.40625 
Q 19.40625 13 22.546875 9.953125 
Q 25.703125 6.90625 30.203125 6.90625 
Q 34.5 6.90625 37.546875 9.90625 
Q 40.59375 12.90625 40.59375 17.296875 
z
M 39.703125 49.703125 
L 39.703125 53.09375 
Q 39.703125 57.296875 36.84375 60.1875 
Q 34 63.09375 29.796875 63.09375 
Q 25.796875 63.09375 23 60.1875 
Q 20.203125 57.296875 20.203125 53.09375 
L 20.203125 49.796875 
Q 20.203125 45.90625 22.84375 43 
Q 25.5 40.09375 29.59375 40.09375 
L 30.5 40.09375 
Q 34.296875 40.09375 37 42.84375 
Q 39.703125 45.59375 39.703125 49.703125 
z
" id="DecimaMonoPro-56"/>
      </defs>
      <g style="fill:#303030;" transform="translate(495.888649 430.093125)scale(0.14 -0.14)">
       <use xlink:href="#DecimaMonoPro-56"/>
       <use x="59.999985" xlink:href="#DecimaMonoPro-48"/>
       <use x="119.999969" xlink:href="#DecimaMonoPro-48"/>
      </g>
     </g>
    </g>
    <g id="text_6">
     <!-- x -->
     <defs>
      <path d="M 3.59375 50.40625 
L 13.09375 50.40625 
L 22.90625 34.40625 
L 32.703125 50.40625 
L 42.203125 50.40625 
L 27.59375 26.59375 
L 44 0 
L 34.5 0 
L 22.90625 18.90625 
L 11.296875 0 
L 1.796875 0 
L 18.203125 26.59375 
z
" id="Apercu-120"/>
     </defs>
     <g style="opacity:0.75;" transform="translate(333.754219 446.524687)scale(0.14 -0.14)">
      <use xlink:href="#Apercu-120"/>
     </g>
    </g>
   </g>
   <g id="matplotlib.axis_2">
    <g id="ytick_1">
     <g id="line2d_11">
      <path clip-path="url(#p434a3ab4b8)" d="M 51.84 397.930909 
L 622.08 397.930909 
" style="fill:none;stroke:#b0b0b0;stroke-linecap:square;stroke-width:0.8;"/>
     </g>
     <g id="line2d_12">
      <defs>
       <path d="M 0 0 
L -3.5 0 
" id="md0bdf7061c" style="stroke:#000000;stroke-width:0.8;"/>
      </defs>
      <g>
       <use style="stroke:#000000;stroke-width:0.8;" x="51.84" xlink:href="#md0bdf7061c" y="397.930909"/>
      </g>
     </g>
     <g id="text_7">
      <!-- 0 -->
      <g style="fill:#303030;" transform="translate(36.44 402.837472)scale(0.14 -0.14)">
       <use xlink:href="#DecimaMonoPro-48"/>
      </g>
     </g>
    </g>
    <g id="ytick_2">
     <g id="line2d_13">
      <path clip-path="url(#p434a3ab4b8)" d="M 51.84 333.166812 
L 622.08 333.166812 
" style="fill:none;stroke:#b0b0b0;stroke-linecap:square;stroke-width:0.8;"/>
     </g>
     <g id="line2d_14">
      <g>
       <use style="stroke:#000000;stroke-width:0.8;" x="51.84" xlink:href="#md0bdf7061c" y="333.166812"/>
      </g>
     </g>
     <g id="text_8">
      <!-- 200 -->
      <g style="fill:#303030;" transform="translate(19.64 338.073375)scale(0.14 -0.14)">
       <use xlink:href="#DecimaMonoPro-50"/>
       <use x="59.999985" xlink:href="#DecimaMonoPro-48"/>
       <use x="119.999969" xlink:href="#DecimaMonoPro-48"/>
      </g>
     </g>
    </g>
    <g id="ytick_3">
     <g id="line2d_15">
      <path clip-path="url(#p434a3ab4b8)" d="M 51.84 268.402716 
L 622.08 268.402716 
" style="fill:none;stroke:#b0b0b0;stroke-linecap:square;stroke-width:0.8;"/>
     </g>
     <g id="line2d_16">
      <g>
       <use style="stroke:#000000;stroke-width:0.8;" x="51.84" xlink:href="#md0bdf7061c" y="268.402716"/>
      </g>
     </g>
     <g id="text_9">
      <!-- 400 -->
      <g style="fill:#303030;" transform="translate(19.64 273.309278)scale(0.14 -0.14)">
       <use xlink:href="#DecimaMonoPro-52"/>
       <use x="59.999985" xlink:href="#DecimaMonoPro-48"/>
       <use x="119.999969" xlink:href="#DecimaMonoPro-48"/>
      </g>
     </g>
    </g>
    <g id="ytick_4">
     <g id="line2d_17">
      <path clip-path="url(#p434a3ab4b8)" d="M 51.84 203.638619 
L 622.08 203.638619 
" style="fill:none;stroke:#b0b0b0;stroke-linecap:square;stroke-width:0.8;"/>
     </g>
     <g id="line2d_18">
      <g>
       <use style="stroke:#000000;stroke-width:0.8;" x="51.84" xlink:href="#md0bdf7061c" y="203.638619"/>
      </g>
     </g>
     <g id="text_10">
      <!-- 600 -->
      <g style="fill:#303030;" transform="translate(19.64 208.545182)scale(0.14 -0.14)">
       <use xlink:href="#DecimaMonoPro-54"/>
       <use x="59.999985" xlink:href="#DecimaMonoPro-48"/>
       <use x="119.999969" xlink:href="#DecimaMonoPro-48"/>
      </g>
     </g>
    </g>
    <g id="ytick_5">
     <g id="line2d_19">
      <path clip-path="url(#p434a3ab4b8)" d="M 51.84 138.874522 
L 622.08 138.874522 
" style="fill:none;stroke:#b0b0b0;stroke-linecap:square;stroke-width:0.8;"/>
     </g>
     <g id="line2d_20">
      <g>
       <use style="stroke:#000000;stroke-width:0.8;" x="51.84" xlink:href="#md0bdf7061c" y="138.874522"/>
      </g>
     </g>
     <g id="text_11">
      <!-- 800 -->
      <g style="fill:#303030;" transform="translate(19.64 143.781085)scale(0.14 -0.14)">
       <use xlink:href="#DecimaMonoPro-56"/>
       <use x="59.999985" xlink:href="#DecimaMonoPro-48"/>
       <use x="119.999969" xlink:href="#DecimaMonoPro-48"/>
      </g>
     </g>
    </g>
    <g id="text_12">
     <!-- y -->
     <defs>
      <path d="M 36 50.40625 
L 44.796875 50.40625 
L 19.796875 -20.40625 
L 11.203125 -20.40625 
L 19.203125 2.09375 
L 1.5 50.40625 
L 10.703125 50.40625 
L 23.5 14 
z
" id="Apercu-121"/>
     </defs>
     <g style="opacity:0.75;" transform="translate(12.783125 247.66)rotate(-90)scale(0.14 -0.14)">
      <use xlink:href="#Apercu-121"/>
     </g>
    </g>
   </g>
   <g id="line2d_21">
    <path clip-path="url(#p434a3ab4b8)" d="M 51.84 150.208239 
L 52.410811 148.912957 
L 53.552432 146.970035 
L 54.123243 146.970035 
L 54.694054 147.293855 
L 55.264865 147.941496 
L 55.835676 152.798803 
L 56.406486 169.961289 
L 56.977297 175.142417 
L 57.548108 198.457491 
L 58.118919 214.000875 
L 58.68973 241.201795 
L 60.402162 263.545409 
L 60.972973 268.402716 
L 62.114595 273.260023 
L 62.685405 273.907664 
L 63.256216 272.936203 
L 63.827027 270.345639 
L 64.397838 266.135972 
L 64.968649 260.954845 
L 65.539459 257.71664 
L 67.251892 249.621128 
L 67.822703 244.76382 
L 68.964324 236.992129 
L 70.105946 233.430104 
L 71.247568 230.83954 
L 71.818378 229.220437 
L 72.389189 228.572796 
L 72.96 227.277514 
L 74.101622 226.629873 
L 75.243243 226.629873 
L 75.814054 226.953694 
L 76.384865 227.601335 
L 77.526486 228.248976 
L 79.238919 228.248976 
L 80.380541 228.896617 
L 80.951351 230.191899 
L 81.522162 235.049206 
L 82.663784 248.649666 
L 83.234595 252.211692 
L 83.805405 254.802255 
L 84.947027 258.364281 
L 85.517838 258.364281 
L 86.088649 258.688101 
L 86.659459 258.688101 
L 87.23027 259.335742 
L 89.513514 259.335742 
L 90.084324 259.659563 
L 94.650811 259.659563 
L 95.221622 256.421358 
L 96.363243 246.706743 
L 96.934054 236.020667 
L 97.504865 221.124925 
L 98.075676 209.143567 
L 99.217297 174.170955 
L 99.788108 161.865777 
L 100.358919 142.112727 
L 101.500541 122.683498 
L 103.212973 103.254269 
L 104.354595 96.454039 
L 104.925405 94.511116 
L 105.496216 93.539655 
L 106.067027 92.892014 
L 107.208649 92.244373 
L 107.779459 91.596732 
L 108.921081 90.949091 
L 110.062703 90.949091 
L 110.633514 91.596732 
L 111.204324 91.920552 
L 111.775135 92.568193 
L 112.345946 94.187296 
L 112.916757 97.425501 
L 113.487568 99.368423 
L 116.912432 116.85473 
L 117.483243 119.121473 
L 118.054054 120.740575 
L 118.624865 123.331139 
L 121.478919 133.369574 
L 124.332973 150.53206 
L 124.903784 153.446444 
L 125.474595 157.65611 
L 126.045405 163.161059 
L 127.757838 173.199494 
L 128.899459 178.056801 
L 129.47027 180.971185 
L 131.753514 194.895466 
L 132.895135 198.457491 
L 133.465946 200.724235 
L 135.749189 212.057952 
L 136.32 214.324695 
L 137.461622 216.915259 
L 138.603243 218.858182 
L 139.744865 220.153464 
L 140.886486 222.096387 
L 141.457297 223.391669 
L 142.598919 226.629873 
L 144.311351 235.373026 
L 146.594595 241.525616 
L 147.165405 242.820898 
L 148.307027 244.76382 
L 148.877838 245.411461 
L 149.448649 246.706743 
L 150.019459 247.678205 
L 150.59027 248.325846 
L 151.161081 249.944948 
L 151.731892 250.592589 
L 152.302703 250.91641 
L 152.873514 252.211692 
L 153.444324 253.830794 
L 154.015135 254.478435 
L 154.585946 256.097537 
L 155.727568 258.04046 
L 156.298378 259.335742 
L 157.44 261.278665 
L 158.010811 262.573947 
L 159.152432 263.869229 
L 159.723243 265.488331 
L 160.294054 266.459793 
L 160.864865 267.107434 
L 161.435676 269.374177 
L 162.577297 271.964741 
L 163.148108 272.612382 
L 163.718919 274.555305 
L 164.28973 275.526766 
L 164.860541 276.174407 
L 165.431351 277.469689 
L 166.002162 278.11733 
L 166.572973 279.088792 
L 167.143784 279.736433 
L 167.714595 280.707894 
L 168.285405 281.355535 
L 168.856216 282.650817 
L 169.427027 282.974638 
L 169.997838 283.622278 
L 170.568649 283.946099 
L 171.139459 284.91756 
L 171.71027 285.241381 
L 172.851892 286.536663 
L 173.993514 287.184304 
L 174.564324 288.155765 
L 175.135135 288.479586 
L 175.705946 289.127227 
L 176.276757 289.451047 
L 176.847568 290.098688 
L 177.989189 290.746329 
L 178.56 291.39397 
L 179.701622 291.39397 
L 180.272432 150.208239 
L 180.843243 148.912957 
L 181.984865 146.970035 
L 182.555676 146.970035 
L 183.126486 147.293855 
L 183.697297 147.941496 
L 184.268108 152.798803 
L 184.838919 169.961289 
L 185.40973 175.142417 
L 185.980541 198.457491 
L 186.551351 214.000875 
L 187.122162 241.201795 
L 188.834595 263.545409 
L 189.405405 268.402716 
L 190.547027 273.260023 
L 191.117838 273.907664 
L 191.688649 272.936203 
L 192.259459 270.345639 
L 192.83027 266.135972 
L 193.401081 260.954845 
L 193.971892 257.71664 
L 195.684324 249.621128 
L 196.255135 244.76382 
L 197.396757 236.992129 
L 198.538378 233.430104 
L 199.68 230.83954 
L 200.250811 229.220437 
L 200.821622 228.572796 
L 201.392432 227.277514 
L 202.534054 226.629873 
L 203.675676 226.629873 
L 204.246486 226.953694 
L 204.817297 227.601335 
L 205.958919 228.248976 
L 207.671351 228.248976 
L 208.812973 228.896617 
L 209.383784 230.191899 
L 209.954595 235.049206 
L 211.096216 248.649666 
L 211.667027 252.211692 
L 212.237838 254.802255 
L 213.379459 258.364281 
L 213.95027 258.364281 
L 214.521081 258.688101 
L 215.091892 258.688101 
L 215.662703 259.335742 
L 217.945946 259.335742 
L 218.516757 259.659563 
L 223.083243 259.659563 
L 223.654054 256.421358 
L 224.795676 246.706743 
L 225.366486 236.020667 
L 225.937297 221.124925 
L 226.508108 209.143567 
L 227.64973 174.170955 
L 228.220541 161.865777 
L 228.791351 142.112727 
L 229.932973 122.683498 
L 231.645405 103.254269 
L 232.787027 96.454039 
L 233.357838 94.511116 
L 233.928649 93.539655 
L 234.499459 92.892014 
L 235.641081 92.244373 
L 236.211892 91.596732 
L 237.353514 90.949091 
L 238.495135 90.949091 
L 239.065946 91.596732 
L 239.636757 91.920552 
L 240.207568 92.568193 
L 240.778378 94.187296 
L 241.349189 97.425501 
L 241.92 99.368423 
L 245.344865 116.85473 
L 245.915676 119.121473 
L 246.486486 120.740575 
L 247.057297 123.331139 
L 249.911351 133.369574 
L 252.765405 150.53206 
L 253.336216 153.446444 
L 253.907027 157.65611 
L 254.477838 163.161059 
L 256.19027 173.199494 
L 257.331892 178.056801 
L 257.902703 180.971185 
L 260.185946 194.895466 
L 261.327568 198.457491 
L 261.898378 200.724235 
L 264.181622 212.057952 
L 264.752432 214.324695 
L 265.894054 216.915259 
L 267.035676 218.858182 
L 268.177297 220.153464 
L 269.318919 222.096387 
L 269.88973 223.391669 
L 271.031351 226.629873 
L 272.743784 235.373026 
L 275.027027 241.525616 
L 275.597838 242.820898 
L 276.739459 244.76382 
L 277.31027 245.411461 
L 277.881081 246.706743 
L 278.451892 247.678205 
L 279.022703 248.325846 
L 279.593514 249.944948 
L 280.164324 250.592589 
L 280.735135 250.91641 
L 281.305946 252.211692 
L 281.876757 253.830794 
L 282.447568 254.478435 
L 283.018378 256.097537 
L 284.16 258.04046 
L 284.730811 259.335742 
L 285.872432 261.278665 
L 286.443243 262.573947 
L 287.584865 263.869229 
L 288.155676 265.488331 
L 288.726486 266.459793 
L 289.297297 267.107434 
L 289.868108 269.374177 
L 291.00973 271.964741 
L 291.580541 272.612382 
L 292.151351 274.555305 
L 292.722162 275.526766 
L 293.292973 276.174407 
L 293.863784 277.469689 
L 294.434595 278.11733 
L 295.005405 279.088792 
L 295.576216 279.736433 
L 296.147027 280.707894 
L 296.717838 281.355535 
L 297.288649 282.650817 
L 297.859459 282.974638 
L 298.43027 283.622278 
L 299.001081 283.946099 
L 299.571892 284.91756 
L 300.142703 285.241381 
L 301.284324 286.536663 
L 302.425946 287.184304 
L 302.996757 288.155765 
L 303.567568 288.479586 
L 304.138378 289.127227 
L 304.709189 289.451047 
L 305.28 290.098688 
L 306.421622 290.746329 
L 306.992432 291.39397 
L 308.134054 291.39397 
L 308.704865 150.208239 
L 309.275676 148.912957 
L 310.417297 146.970035 
L 310.988108 146.970035 
L 311.558919 147.293855 
L 312.12973 147.941496 
L 312.700541 152.798803 
L 313.271351 169.961289 
L 313.842162 175.142417 
L 314.412973 198.457491 
L 314.983784 214.000875 
L 315.554595 241.201795 
L 317.267027 263.545409 
L 317.837838 268.402716 
L 318.979459 273.260023 
L 319.55027 273.907664 
L 320.121081 272.936203 
L 320.691892 270.345639 
L 321.262703 266.135972 
L 321.833514 260.954845 
L 322.404324 257.71664 
L 324.116757 249.621128 
L 324.687568 244.76382 
L 325.829189 236.992129 
L 326.970811 233.430104 
L 328.112432 230.83954 
L 328.683243 229.220437 
L 329.254054 228.572796 
L 329.824865 227.277514 
L 330.966486 226.629873 
L 332.108108 226.629873 
L 332.678919 226.953694 
L 333.24973 227.601335 
L 334.391351 228.248976 
L 336.103784 228.248976 
L 337.245405 228.896617 
L 337.816216 230.191899 
L 338.387027 235.049206 
L 339.528649 248.649666 
L 340.099459 252.211692 
L 340.67027 254.802255 
L 341.811892 258.364281 
L 342.382703 258.364281 
L 342.953514 258.688101 
L 343.524324 258.688101 
L 344.095135 259.335742 
L 346.378378 259.335742 
L 346.949189 259.659563 
L 351.515676 259.659563 
L 352.086486 256.421358 
L 353.228108 246.706743 
L 353.798919 236.020667 
L 354.36973 221.124925 
L 354.940541 209.143567 
L 356.082162 174.170955 
L 356.652973 161.865777 
L 357.223784 142.112727 
L 358.365405 122.683498 
L 360.077838 103.254269 
L 361.219459 96.454039 
L 361.79027 94.511116 
L 362.361081 93.539655 
L 362.931892 92.892014 
L 364.073514 92.244373 
L 364.644324 91.596732 
L 365.785946 90.949091 
L 366.927568 90.949091 
L 367.498378 91.596732 
L 368.069189 91.920552 
L 368.64 92.568193 
L 369.210811 94.187296 
L 369.781622 97.425501 
L 370.352432 99.368423 
L 373.777297 116.85473 
L 374.348108 119.121473 
L 374.918919 120.740575 
L 375.48973 123.331139 
L 378.343784 133.369574 
L 381.197838 150.53206 
L 381.768649 153.446444 
L 382.339459 157.65611 
L 382.91027 163.161059 
L 384.622703 173.199494 
L 385.764324 178.056801 
L 386.335135 180.971185 
L 388.618378 194.895466 
L 389.76 198.457491 
L 390.330811 200.724235 
L 392.614054 212.057952 
L 393.184865 214.324695 
L 394.326486 216.915259 
L 395.468108 218.858182 
L 396.60973 220.153464 
L 397.751351 222.096387 
L 398.322162 223.391669 
L 399.463784 226.629873 
L 401.176216 235.373026 
L 403.459459 241.525616 
L 404.03027 242.820898 
L 405.171892 244.76382 
L 405.742703 245.411461 
L 406.313514 246.706743 
L 406.884324 247.678205 
L 407.455135 248.325846 
L 408.025946 249.944948 
L 408.596757 250.592589 
L 409.167568 250.91641 
L 409.738378 252.211692 
L 410.309189 253.830794 
L 410.88 254.478435 
L 411.450811 256.097537 
L 412.592432 258.04046 
L 413.163243 259.335742 
L 414.304865 261.278665 
L 414.875676 262.573947 
L 416.017297 263.869229 
L 416.588108 265.488331 
L 417.158919 266.459793 
L 417.72973 267.107434 
L 418.300541 269.374177 
L 419.442162 271.964741 
L 420.012973 272.612382 
L 420.583784 274.555305 
L 421.154595 275.526766 
L 421.725405 276.174407 
L 422.296216 277.469689 
L 422.867027 278.11733 
L 423.437838 279.088792 
L 424.008649 279.736433 
L 424.579459 280.707894 
L 425.15027 281.355535 
L 425.721081 282.650817 
L 426.291892 282.974638 
L 426.862703 283.622278 
L 427.433514 283.946099 
L 428.004324 284.91756 
L 428.575135 285.241381 
L 429.716757 286.536663 
L 430.858378 287.184304 
L 431.429189 288.155765 
L 432 288.479586 
L 432.570811 289.127227 
L 433.141622 289.451047 
L 433.712432 290.098688 
L 434.854054 290.746329 
L 435.424865 291.39397 
L 436.566486 291.39397 
L 437.137297 150.208239 
L 437.708108 148.912957 
L 438.84973 146.970035 
L 439.420541 146.970035 
L 439.991351 147.293855 
L 440.562162 147.941496 
L 441.132973 152.798803 
L 441.703784 169.961289 
L 442.274595 175.142417 
L 442.845405 198.457491 
L 443.416216 214.000875 
L 443.987027 241.201795 
L 445.699459 263.545409 
L 446.27027 268.402716 
L 447.411892 273.260023 
L 447.982703 273.907664 
L 448.553514 272.936203 
L 449.124324 270.345639 
L 449.695135 266.135972 
L 450.265946 260.954845 
L 450.836757 257.71664 
L 452.549189 249.621128 
L 453.12 244.76382 
L 454.261622 236.992129 
L 455.403243 233.430104 
L 456.544865 230.83954 
L 457.115676 229.220437 
L 457.686486 228.572796 
L 458.257297 227.277514 
L 459.398919 226.629873 
L 460.540541 226.629873 
L 461.111351 226.953694 
L 461.682162 227.601335 
L 462.823784 228.248976 
L 464.536216 228.248976 
L 465.677838 228.896617 
L 466.248649 230.191899 
L 466.819459 235.049206 
L 467.961081 248.649666 
L 468.531892 252.211692 
L 469.102703 254.802255 
L 470.244324 258.364281 
L 470.815135 258.364281 
L 471.385946 258.688101 
L 471.956757 258.688101 
L 472.527568 259.335742 
L 474.810811 259.335742 
L 475.381622 259.659563 
L 479.948108 259.659563 
L 480.518919 256.421358 
L 481.660541 246.706743 
L 482.231351 236.020667 
L 482.802162 221.124925 
L 483.372973 209.143567 
L 484.514595 174.170955 
L 485.085405 161.865777 
L 485.656216 142.112727 
L 486.797838 122.683498 
L 488.51027 103.254269 
L 489.651892 96.454039 
L 490.222703 94.511116 
L 490.793514 93.539655 
L 491.364324 92.892014 
L 492.505946 92.244373 
L 493.076757 91.596732 
L 494.218378 90.949091 
L 495.36 90.949091 
L 495.930811 91.596732 
L 496.501622 91.920552 
L 497.072432 92.568193 
L 497.643243 94.187296 
L 498.214054 97.425501 
L 498.784865 99.368423 
L 502.20973 116.85473 
L 502.780541 119.121473 
L 503.351351 120.740575 
L 503.922162 123.331139 
L 506.776216 133.369574 
L 509.63027 150.53206 
L 510.201081 153.446444 
L 510.771892 157.65611 
L 511.342703 163.161059 
L 513.055135 173.199494 
L 514.196757 178.056801 
L 514.767568 180.971185 
L 517.050811 194.895466 
L 518.192432 198.457491 
L 518.763243 200.724235 
L 521.046486 212.057952 
L 521.617297 214.324695 
L 522.758919 216.915259 
L 523.900541 218.858182 
L 525.042162 220.153464 
L 526.183784 222.096387 
L 526.754595 223.391669 
L 527.896216 226.629873 
L 529.608649 235.373026 
L 531.891892 241.525616 
L 532.462703 242.820898 
L 533.604324 244.76382 
L 534.175135 245.411461 
L 534.745946 246.706743 
L 535.316757 247.678205 
L 535.887568 248.325846 
L 536.458378 249.944948 
L 537.029189 250.592589 
L 537.6 250.91641 
L 538.170811 252.211692 
L 538.741622 253.830794 
L 539.312432 254.478435 
L 539.883243 256.097537 
L 541.024865 258.04046 
L 541.595676 259.335742 
L 542.737297 261.278665 
L 543.308108 262.573947 
L 544.44973 263.869229 
L 545.020541 265.488331 
L 545.591351 266.459793 
L 546.162162 267.107434 
L 546.732973 269.374177 
L 547.874595 271.964741 
L 548.445405 272.612382 
L 549.016216 274.555305 
L 549.587027 275.526766 
L 550.157838 276.174407 
L 550.728649 277.469689 
L 551.299459 278.11733 
L 551.87027 279.088792 
L 552.441081 279.736433 
L 553.011892 280.707894 
L 553.582703 281.355535 
L 554.153514 282.650817 
L 554.724324 282.974638 
L 555.295135 283.622278 
L 555.865946 283.946099 
L 556.436757 284.91756 
L 557.007568 285.241381 
L 558.149189 286.536663 
L 559.290811 287.184304 
L 559.861622 288.155765 
L 560.432432 288.479586 
L 561.003243 289.127227 
L 561.574054 289.451047 
L 562.144865 290.098688 
L 563.286486 290.746329 
L 563.857297 291.39397 
L 564.998919 291.39397 
L 565.56973 150.208239 
L 566.140541 148.912957 
L 567.282162 146.970035 
L 567.852973 146.970035 
L 568.423784 147.293855 
L 568.994595 147.941496 
L 569.565405 152.798803 
L 570.136216 169.961289 
L 570.707027 175.142417 
L 571.277838 198.457491 
L 571.848649 214.000875 
L 572.419459 241.201795 
L 574.131892 263.545409 
L 574.702703 268.402716 
L 575.844324 273.260023 
L 576.415135 273.907664 
L 576.985946 272.936203 
L 577.556757 270.345639 
L 578.127568 266.135972 
L 578.698378 260.954845 
L 579.269189 257.71664 
L 580.981622 249.621128 
L 581.552432 244.76382 
L 582.694054 236.992129 
L 583.835676 233.430104 
L 584.977297 230.83954 
L 585.548108 229.220437 
L 586.118919 228.572796 
L 586.68973 227.277514 
L 587.831351 226.629873 
L 588.972973 226.629873 
L 589.543784 226.953694 
L 590.114595 227.601335 
L 591.256216 228.248976 
L 592.968649 228.248976 
L 594.11027 228.896617 
L 594.681081 230.191899 
L 595.251892 235.049206 
L 596.393514 248.649666 
L 596.964324 252.211692 
L 597.535135 254.802255 
L 598.676757 258.364281 
L 599.247568 258.364281 
L 599.818378 258.688101 
L 600.389189 258.688101 
L 600.96 259.335742 
L 603.243243 259.335742 
L 603.814054 259.659563 
L 608.380541 259.659563 
L 608.951351 256.421358 
L 610.092973 246.706743 
L 610.663784 236.020667 
L 611.234595 221.124925 
L 611.805405 209.143567 
L 612.947027 174.170955 
L 613.517838 161.865777 
L 614.088649 142.112727 
L 615.23027 122.683498 
L 616.942703 103.254269 
L 618.084324 96.454039 
L 618.655135 94.511116 
L 619.225946 93.539655 
L 619.796757 92.892014 
L 620.938378 92.244373 
L 621.509189 91.596732 
L 622.08 91.272911 
L 622.08 91.272911 
" style="fill:none;stroke:#000004;stroke-width:3;"/>
   </g>
   <g id="line2d_22">
    <path clip-path="url(#p434a3ab4b8)" d="M 51.84 397.930909 
L 622.08 397.930909 
" style="fill:none;stroke:#000000;stroke-opacity:0.7;stroke-width:1.3;"/>
   </g>
   <g id="patch_3">
    <path d="M 51.84 413.28 
L 51.84 75.6 
" style="fill:none;stroke:#000000;stroke-linecap:square;stroke-linejoin:miter;stroke-width:0.8;"/>
   </g>
   <g id="patch_4">
    <path d="M 622.08 413.28 
L 622.08 75.6 
" style="fill:none;stroke:#000000;stroke-linecap:square;stroke-linejoin:miter;stroke-width:0.8;"/>
   </g>
   <g id="patch_5">
    <path d="M 51.84 413.28 
L 622.08 413.28 
" style="fill:none;stroke:#000000;stroke-linecap:square;stroke-linejoin:miter;stroke-width:0.8;"/>
   </g>
   <g id="patch_6">
    <path d="M 51.84 75.6 
L 622.08 75.6 
" style="fill:none;stroke:#000000;stroke-linecap:square;stroke-linejoin:miter;stroke-width:0.8;"/>
   </g>
   <g id="patch_7">
    <path d="M 0 504 
L 648 504 
L 648 480.923077 
L 0 480.923077 
z
" style="fill:#808080;"/>
   </g>
   <g id="text_13">
    <!-- ©spred -->
    <defs>
     <path d="M 50.90625 25.90625 
L 50.90625 44 
Q 50.90625 52.40625 44.75 58.40625 
Q 38.59375 64.40625 30 64.40625 
Q 21.296875 64.40625 15.09375 58.40625 
Q 8.90625 52.40625 8.90625 44 
L 8.90625 25.90625 
Q 8.90625 17.5 15.09375 11.453125 
Q 21.296875 5.40625 30 5.40625 
Q 38.59375 5.40625 44.75 11.453125 
Q 50.90625 17.5 50.90625 25.90625 
z
M 57.703125 43.203125 
L 57.703125 26.59375 
Q 57.703125 15.203125 49.59375 7.09375 
Q 41.5 -1 30 -1 
Q 18.40625 -1 10.296875 7.09375 
Q 2.203125 15.203125 2.203125 26.59375 
L 2.203125 43.203125 
Q 2.203125 54.59375 10.296875 62.6875 
Q 18.40625 70.796875 30 70.796875 
Q 41.5 70.796875 49.59375 62.6875 
Q 57.703125 54.59375 57.703125 43.203125 
z
M 38.59375 29.40625 
L 41.40625 29.40625 
Q 42.40625 29.40625 42.90625 28.84375 
Q 43.40625 28.296875 43.40625 27.59375 
Q 43.40625 21.59375 39.796875 17.9375 
Q 36.203125 14.296875 30.40625 14.296875 
Q 24.40625 14.296875 20.75 17.9375 
Q 17.09375 21.59375 17.09375 27.09375 
L 17.09375 43.40625 
Q 17.09375 48.703125 20.75 52.390625 
Q 24.40625 56.09375 30.40625 56.09375 
Q 35.90625 56.09375 39.40625 52.25 
Q 42.90625 48.40625 42.90625 42.296875 
Q 42.90625 41.59375 42.40625 41.046875 
Q 41.90625 40.5 40.90625 40.5 
L 38.09375 40.5 
Q 37.09375 40.5 36.546875 41.046875 
Q 36 41.59375 36 42.296875 
Q 36 45.203125 34.390625 47.046875 
Q 32.796875 48.90625 30.40625 48.90625 
Q 27.703125 48.90625 25.796875 46.90625 
Q 23.90625 44.90625 23.90625 42.203125 
L 23.90625 28.203125 
Q 23.90625 25.59375 25.796875 23.59375 
Q 27.703125 21.59375 30.40625 21.59375 
Q 32.90625 21.59375 34.703125 23.1875 
Q 36.5 24.796875 36.5 27.59375 
Q 36.5 28.296875 37.046875 28.84375 
Q 37.59375 29.40625 38.59375 29.40625 
z
" id="DecimaMonoPro-169"/>
     <path d="M 30.09375 -1 
Q 25.296875 -1 21.546875 0.59375 
Q 17.796875 2.203125 15.84375 4.59375 
Q 13.90625 7 12.953125 9.390625 
Q 12 11.796875 12 14 
Q 12 14.796875 12.5 15.296875 
Q 13 15.796875 13.796875 15.796875 
L 18.296875 15.796875 
Q 19.90625 15.796875 20.09375 14.09375 
Q 20.40625 11.203125 22.796875 8.703125 
Q 25.203125 6.203125 30.09375 6.203125 
Q 34.296875 6.203125 36.890625 8.296875 
Q 39.5 10.40625 39.5 13.59375 
Q 39.5 16.5 36.84375 18.5 
Q 34.203125 20.5 30.390625 21.84375 
Q 26.59375 23.203125 22.84375 24.796875 
Q 19.09375 26.40625 16.4375 29.5 
Q 13.796875 32.59375 13.796875 37.09375 
Q 13.796875 43.296875 18.4375 47.140625 
Q 23.09375 51 30.703125 51 
Q 38.90625 51 43.25 46.5 
Q 47.59375 42 47.59375 37.5 
Q 47.59375 36.796875 47.09375 36.25 
Q 46.59375 35.703125 45.796875 35.703125 
L 41.203125 35.703125 
Q 39.703125 35.703125 39.40625 37.40625 
Q 38.90625 40 36.75 41.890625 
Q 34.59375 43.796875 30.703125 43.796875 
Q 26.90625 43.796875 24.546875 42.09375 
Q 22.203125 40.40625 22.203125 37.703125 
Q 22.203125 35 24.84375 33.09375 
Q 27.5 31.203125 31.25 29.890625 
Q 35 28.59375 38.703125 26.9375 
Q 42.40625 25.296875 45.046875 21.84375 
Q 47.703125 18.40625 47.703125 13.40625 
Q 47.703125 7.40625 42.59375 3.203125 
Q 37.5 -1 30.09375 -1 
z
" id="DecimaMonoPro-115"/>
     <path d="M 42.09375 17.09375 
L 42.09375 33.09375 
Q 42.09375 37.703125 38.84375 40.796875 
Q 35.59375 43.90625 30.5 43.90625 
Q 25.40625 43.90625 22.046875 40.75 
Q 18.703125 37.59375 18.703125 33 
L 18.703125 17.09375 
Q 18.703125 12.5 22.046875 9.390625 
Q 25.40625 6.296875 30.5 6.296875 
Q 35.59375 6.296875 38.84375 9.390625 
Q 42.09375 12.5 42.09375 17.09375 
z
M 18.703125 3.703125 
L 18.796875 -16.203125 
Q 18.796875 -18 16.5 -18 
L 13 -18 
Q 10.703125 -18 10.703125 -16.203125 
L 10.703125 48.203125 
Q 10.703125 50 13 50 
L 15.90625 50 
Q 18.203125 50 18.203125 48.203125 
L 18.203125 45.90625 
Q 18.59375 46.5 19.5 47.34375 
Q 20.40625 48.203125 23.75 49.59375 
Q 27.09375 51 31.296875 51 
Q 39.296875 51 44.796875 45.640625 
Q 50.296875 40.296875 50.296875 32.59375 
L 50.296875 17.40625 
Q 50.296875 9.796875 44.75 4.390625 
Q 39.203125 -1 31.296875 -1 
Q 27.40625 -1 24.25 0.203125 
Q 21.09375 1.40625 19.90625 2.59375 
z
" id="DecimaMonoPro-112"/>
     <path d="M 37.203125 51 
Q 44.09375 51 48.140625 46.453125 
Q 52.203125 41.90625 52.203125 37.5 
Q 52.203125 35.703125 50.5 35.703125 
L 45.90625 35.703125 
Q 44.296875 35.703125 44.09375 37.40625 
Q 43.796875 39.796875 41.75 41.796875 
Q 39.703125 43.796875 36.59375 43.796875 
Q 32.40625 43.796875 29.203125 40.796875 
Q 26 37.796875 26 34 
L 26 7.203125 
L 45.09375 7.203125 
Q 45.796875 7.203125 46.34375 6.703125 
Q 46.90625 6.203125 46.90625 5.40625 
L 46.90625 1.796875 
Q 46.90625 1 46.34375 0.5 
Q 45.796875 0 45.09375 0 
L 9.296875 0 
Q 8.59375 0 8.046875 0.5 
Q 7.5 1 7.5 1.796875 
L 7.5 5.40625 
Q 7.5 6.203125 8.046875 6.703125 
Q 8.59375 7.203125 9.296875 7.203125 
L 18 7.203125 
L 18 48.203125 
Q 18 50 20.296875 50 
L 23.5 50 
Q 25.796875 50 25.796875 48.203125 
L 25.796875 45.703125 
Q 29.796875 51 37.203125 51 
z
" id="DecimaMonoPro-114"/>
     <path d="M 48.796875 13.5 
Q 48.796875 9.09375 43.75 4.046875 
Q 38.703125 -1 30.203125 -1 
Q 21.203125 -1 15.75 4.453125 
Q 10.296875 9.90625 10.296875 17.5 
L 10.296875 32.703125 
Q 10.296875 40.203125 15.75 45.59375 
Q 21.203125 51 30.203125 51 
Q 39.203125 51 44.453125 45.59375 
Q 49.703125 40.203125 49.703125 32.703125 
L 49.703125 24.796875 
Q 49.703125 23.796875 49.046875 23.140625 
Q 48.40625 22.5 47.40625 22.5 
L 18.40625 22.5 
L 18.40625 17 
Q 18.40625 12.5 21.65625 9.296875 
Q 24.90625 6.09375 30.203125 6.09375 
Q 38.5 6.09375 40.59375 13.59375 
Q 41.09375 15.296875 42.40625 15.296875 
L 47 15.296875 
Q 47.796875 15.296875 48.296875 14.75 
Q 48.796875 14.203125 48.796875 13.5 
z
M 18.40625 33 
L 18.40625 29.703125 
L 41.796875 29.703125 
L 41.796875 33 
Q 41.796875 37.5 38.640625 40.640625 
Q 35.5 43.796875 30.203125 43.796875 
Q 24.90625 43.796875 21.65625 40.640625 
Q 18.40625 37.5 18.40625 33 
z
" id="DecimaMonoPro-101"/>
     <path d="M 17.90625 32.90625 
L 17.90625 16.90625 
Q 17.90625 12.296875 21.15625 9.1875 
Q 24.40625 6.09375 29.5 6.09375 
Q 34.59375 6.09375 37.9375 9.25 
Q 41.296875 12.40625 41.296875 17 
L 41.296875 32.90625 
Q 41.296875 37.5 37.9375 40.59375 
Q 34.59375 43.703125 29.5 43.703125 
Q 24.40625 43.703125 21.15625 40.59375 
Q 17.90625 37.5 17.90625 32.90625 
z
M 41.296875 46.296875 
L 41.203125 68.203125 
Q 41.203125 70 43.5 70 
L 47 70 
Q 49.296875 70 49.296875 68.203125 
L 49.296875 1.796875 
Q 49.296875 0 47 0 
L 44.09375 0 
Q 41.796875 0 41.796875 1.796875 
L 41.796875 4.09375 
Q 41.40625 3.5 40.5 2.640625 
Q 39.59375 1.796875 36.25 0.390625 
Q 32.90625 -1 28.703125 -1 
Q 20.703125 -1 15.203125 4.34375 
Q 9.703125 9.703125 9.703125 17.40625 
L 9.703125 32.59375 
Q 9.703125 40.203125 15.25 45.59375 
Q 20.796875 51 28.703125 51 
Q 32.59375 51 35.75 49.796875 
Q 38.90625 48.59375 40.09375 47.40625 
z
" id="DecimaMonoPro-100"/>
    </defs>
    <g style="fill:#ffffff;" transform="translate(6.48 496.8)scale(0.14 -0.14)">
     <use xlink:href="#DecimaMonoPro-169"/>
     <use x="59.999985" xlink:href="#DecimaMonoPro-115"/>
     <use x="119.999969" xlink:href="#DecimaMonoPro-112"/>
     <use x="179.999954" xlink:href="#DecimaMonoPro-114"/>
     <use x="239.999939" xlink:href="#DecimaMonoPro-101"/>
     <use x="299.999924" xlink:href="#DecimaMonoPro-100"/>
    </g>
   </g>
   <g id="text_14">
    <!-- 1 -->
    <defs>
     <path d="M 26.5 70 
L 7.09375 58.40625 
L 7.09375 47.203125 
L 20.203125 55 
L 20.203125 0 
L 30.796875 0 
L 30.796875 70 
z
" id="ApercuPro-Medium-49"/>
    </defs>
    <g style="opacity:0.75;" transform="translate(36 25.2)scale(0.3 -0.3)">
     <use xlink:href="#ApercuPro-Medium-49"/>
    </g>
   </g>
   <g id="legend_1">
    <g id="patch_8">
     <path d="M 561.04 106.568438 
L 612.28 106.568438 
Q 615.08 106.568438 615.08 103.768438 
L 615.08 85.4 
Q 615.08 82.6 612.28 82.6 
L 561.04 82.6 
Q 558.24 82.6 558.24 85.4 
L 558.24 103.768438 
Q 558.24 106.568438 561.04 106.568438 
z
" style="fill:#f0f0f0;opacity:0.8;stroke:#cccccc;stroke-linejoin:miter;stroke-width:0.5;"/>
    </g>
    <g id="line2d_23">
     <path d="M 563.84 93.211562 
L 591.84 93.211562 
" style="fill:none;stroke:#000004;stroke-width:3;"/>
    </g>
    <g id="line2d_24"/>
    <g id="text_15">
     <!-- y -->
     <g style="opacity:0.75;" transform="translate(603.04 98.111562)scale(0.14 -0.14)">
      <use xlink:href="#Apercu-121"/>
     </g>
    </g>
   </g>
  </g>
 </g>
 <defs>
  <clipPath id="p434a3ab4b8">
   <rect height="337.68" width="570.24" x="51.84" y="75.6"/>
  </clipPath>
 </defs>
</svg>
