<?xml version="1.0" encoding="utf-8" standalone="no"?>
<!DOCTYPE svg PUBLIC "-//W3C//DTD SVG 1.1//EN"
  "http://www.w3.org/Graphics/SVG/1.1/DTD/svg11.dtd">
<!-- Created with matplotlib (https://matplotlib.org/) -->
<svg height="504pt" version="1.1" viewBox="0 0 648 504" width="648pt" xmlns="http://www.w3.org/2000/svg" xmlns:xlink="http://www.w3.org/1999/xlink">
 <defs>
  <style type="text/css">
*{stroke-linecap:butt;stroke-linejoin:round;}
  </style>
 </defs>
 <g id="figure_1">
  <g id="patch_1">
   <path d="M 0 504 
L 648 504 
L 648 0 
L 0 0 
z
" style="fill:#f0f0f0;"/>
  </g>
  <g id="axes_1">
   <g id="patch_2">
    <path d="M 77.76 413.28 
L 609.12 413.28 
L 609.12 75.6 
L 77.76 75.6 
z
" style="fill:#f0f0f0;"/>
   </g>
   <g id="matplotlib.axis_1">
    <g id="xtick_1">
     <g id="line2d_1">
      <path clip-path="url(#p768e42834f)" d="M 77.76 413.28 
L 77.76 75.6 
" style="fill:none;stroke:#b0b0b0;stroke-linecap:square;stroke-width:0.8;"/>
     </g>
     <g id="line2d_2">
      <defs>
       <path d="M 0 0 
L 0 3.5 
" id="m84fabdbf3f" style="stroke:#000000;stroke-width:0.8;"/>
      </defs>
      <g>
       <use style="stroke:#000000;stroke-width:0.8;" x="77.76" xlink:href="#m84fabdbf3f" y="413.28"/>
      </g>
     </g>
     <g id="text_1">
      <!-- 0 -->
      <defs>
       <path d="M 48.203125 52.59375 
L 48.203125 17.40625 
Q 48.203125 9.703125 42.953125 4.34375 
Q 37.703125 -1 29.890625 -1 
Q 22.09375 -1 16.9375 4.390625 
Q 11.796875 9.796875 11.796875 17.5 
L 11.796875 52.59375 
Q 11.796875 60.296875 16.9375 65.640625 
Q 22.09375 71 29.890625 71 
Q 37.703125 71 42.953125 65.640625 
Q 48.203125 60.296875 48.203125 52.59375 
z
M 39.90625 17.296875 
L 39.90625 52.5 
Q 39.90625 56.90625 37 60 
Q 34.09375 63.09375 29.90625 63.09375 
Q 25.796875 63.09375 22.890625 60 
Q 20 56.90625 20 52.5 
L 20 17.40625 
Q 20 13 22.890625 9.953125 
Q 25.796875 6.90625 30 6.90625 
Q 34.09375 6.90625 37 9.90625 
Q 39.90625 12.90625 39.90625 17.296875 
z
" id="DecimaMonoPro-48"/>
      </defs>
      <g style="fill:#303030;" transform="translate(73.56 430.093125)scale(0.14 -0.14)">
       <use xlink:href="#DecimaMonoPro-48"/>
      </g>
     </g>
    </g>
    <g id="xtick_2">
     <g id="line2d_3">
      <path clip-path="url(#p768e42834f)" d="M 184.138378 413.28 
L 184.138378 75.6 
" style="fill:none;stroke:#b0b0b0;stroke-linecap:square;stroke-width:0.8;"/>
     </g>
     <g id="line2d_4">
      <g>
       <use style="stroke:#000000;stroke-width:0.8;" x="184.138378" xlink:href="#m84fabdbf3f" y="413.28"/>
      </g>
     </g>
     <g id="text_2">
      <!-- 200 -->
      <defs>
       <path d="M 11.703125 53 
Q 11.703125 59.703125 17.203125 65.34375 
Q 22.703125 71 30.59375 71 
Q 38.40625 71 43.796875 65.75 
Q 49.203125 60.5 49.203125 52.703125 
Q 49.203125 46.90625 46.09375 41.75 
Q 43 36.59375 38.59375 32.84375 
Q 34.203125 29.09375 29.796875 25.4375 
Q 25.40625 21.796875 22.296875 17.296875 
Q 19.203125 12.796875 19.203125 7.796875 
L 47.40625 7.796875 
Q 48.203125 7.796875 48.703125 7.296875 
Q 49.203125 6.796875 49.203125 6 
L 49.203125 1.796875 
Q 49.203125 1 48.703125 0.5 
Q 48.203125 0 47.40625 0 
L 12.59375 0 
Q 11.796875 0 11.296875 0.5 
Q 10.796875 1 10.796875 1.796875 
L 10.796875 7.296875 
Q 10.796875 13.90625 13.890625 19.453125 
Q 17 25 21.390625 28.890625 
Q 25.796875 32.796875 30.1875 36.390625 
Q 34.59375 40 37.6875 44.296875 
Q 40.796875 48.59375 40.796875 53.296875 
Q 40.796875 57.40625 37.75 60.25 
Q 34.703125 63.09375 30.5 63.09375 
Q 26.09375 63.09375 23.1875 59.6875 
Q 20.296875 56.296875 20.09375 53 
Q 19.90625 51 17.796875 51 
L 14 51 
Q 12.90625 51 12.296875 51.59375 
Q 11.703125 52.203125 11.703125 53 
z
" id="DecimaMonoPro-50"/>
      </defs>
      <g style="fill:#303030;" transform="translate(171.538378 430.093125)scale(0.14 -0.14)">
       <use xlink:href="#DecimaMonoPro-50"/>
       <use x="59.999985" xlink:href="#DecimaMonoPro-48"/>
       <use x="119.999969" xlink:href="#DecimaMonoPro-48"/>
      </g>
     </g>
    </g>
    <g id="xtick_3">
     <g id="line2d_5">
      <path clip-path="url(#p768e42834f)" d="M 290.516757 413.28 
L 290.516757 75.6 
" style="fill:none;stroke:#b0b0b0;stroke-linecap:square;stroke-width:0.8;"/>
     </g>
     <g id="line2d_6">
      <g>
       <use style="stroke:#000000;stroke-width:0.8;" x="290.516757" xlink:href="#m84fabdbf3f" y="413.28"/>
      </g>
     </g>
     <g id="text_3">
      <!-- 400 -->
      <defs>
       <path d="M 40.09375 67.5 
L 19.5 22.90625 
L 35.796875 22.90625 
L 35.796875 38.90625 
Q 35.796875 39.703125 36.390625 40.296875 
Q 37 40.90625 38.09375 40.90625 
L 42.203125 40.90625 
Q 43 40.90625 43.59375 40.25 
Q 44.203125 39.59375 44.203125 38.90625 
L 44.203125 22.90625 
L 48 22.90625 
Q 48.796875 22.90625 49.390625 22.296875 
Q 50 21.703125 50 20.59375 
L 50 17.40625 
Q 50 16.296875 49.390625 15.6875 
Q 48.796875 15.09375 48 15.09375 
L 44.203125 15.09375 
L 44.203125 2 
Q 44.203125 1.203125 43.59375 0.59375 
Q 43 0 42.203125 0 
L 38.09375 0 
Q 37 0 36.390625 0.59375 
Q 35.796875 1.203125 35.796875 2 
L 35.796875 15.09375 
L 12.09375 15.09375 
Q 9.90625 15.09375 9.90625 17.40625 
L 9.90625 21.296875 
Q 9.90625 22.5 11 24.703125 
L 31.296875 68 
Q 32.296875 70 34 70 
L 38.796875 70 
Q 40.5 70 40.5 68.796875 
Q 40.5 68.5 40.09375 67.5 
z
" id="DecimaMonoPro-52"/>
      </defs>
      <g style="fill:#303030;" transform="translate(277.916757 430.093125)scale(0.14 -0.14)">
       <use xlink:href="#DecimaMonoPro-52"/>
       <use x="59.999985" xlink:href="#DecimaMonoPro-48"/>
       <use x="119.999969" xlink:href="#DecimaMonoPro-48"/>
      </g>
     </g>
    </g>
    <g id="xtick_4">
     <g id="line2d_7">
      <path clip-path="url(#p768e42834f)" d="M 396.895135 413.28 
L 396.895135 75.6 
" style="fill:none;stroke:#b0b0b0;stroke-linecap:square;stroke-width:0.8;"/>
     </g>
     <g id="line2d_8">
      <g>
       <use style="stroke:#000000;stroke-width:0.8;" x="396.895135" xlink:href="#m84fabdbf3f" y="413.28"/>
      </g>
     </g>
     <g id="text_4">
      <!-- 600 -->
      <defs>
       <path d="M 11 60.203125 
Q 21.59375 71 29.5 71 
Q 37.40625 71 42.65625 65.953125 
Q 47.90625 60.90625 47.90625 54.40625 
Q 47.90625 53.59375 47.296875 53 
Q 46.703125 52.40625 45.59375 52.40625 
L 41.796875 52.40625 
Q 39.703125 52.40625 39.5 54.40625 
Q 39.296875 57.59375 36.640625 60.296875 
Q 34 63 29.5 63 
Q 25.203125 63 22.25 59.890625 
Q 19.296875 56.796875 19.296875 52.40625 
L 19.296875 42.796875 
Q 19.703125 43.296875 20.59375 44.046875 
Q 21.5 44.796875 24.546875 46 
Q 27.59375 47.203125 31 47.203125 
Q 38.40625 47.203125 43.703125 42 
Q 49 36.796875 49 28.90625 
L 49 17.5 
Q 49 9.796875 43.546875 4.390625 
Q 38.09375 -1 30 -1 
Q 21.90625 -1 16.453125 4.34375 
Q 11 9.703125 11 17.40625 
L 11 52.5 
Q 11 60.203125 21.59375 71 
z
M 30 39.296875 
Q 25.40625 39.296875 22.34375 36.390625 
Q 19.296875 33.5 19.296875 28.796875 
L 19.296875 17.296875 
Q 19.296875 12.90625 22.390625 9.90625 
Q 25.5 6.90625 30 6.90625 
Q 34.40625 6.90625 37.5 9.953125 
Q 40.59375 13 40.59375 17.40625 
L 40.59375 28.796875 
Q 40.59375 33.40625 37.546875 36.34375 
Q 34.5 39.296875 30 39.296875 
z
" id="DecimaMonoPro-54"/>
      </defs>
      <g style="fill:#303030;" transform="translate(384.295135 430.093125)scale(0.14 -0.14)">
       <use xlink:href="#DecimaMonoPro-54"/>
       <use x="59.999985" xlink:href="#DecimaMonoPro-48"/>
       <use x="119.999969" xlink:href="#DecimaMonoPro-48"/>
      </g>
     </g>
    </g>
    <g id="xtick_5">
     <g id="line2d_9">
      <path clip-path="url(#p768e42834f)" d="M 503.273514 413.28 
L 503.273514 75.6 
" style="fill:none;stroke:#b0b0b0;stroke-linecap:square;stroke-width:0.8;"/>
     </g>
     <g id="line2d_10">
      <g>
       <use style="stroke:#000000;stroke-width:0.8;" x="503.273514" xlink:href="#m84fabdbf3f" y="413.28"/>
      </g>
     </g>
     <g id="text_5">
      <!-- 800 -->
      <defs>
       <path d="M 48.09375 53.5 
L 48.09375 49.796875 
Q 48.09375 41.5 41.796875 36.40625 
Q 49 30.796875 49 21.703125 
L 49 17.40625 
Q 49 9.703125 43.640625 4.34375 
Q 38.296875 -1 30.5 -1 
L 29.59375 -1 
Q 21.796875 -1 16.390625 4.390625 
Q 11 9.796875 11 17.5 
L 11 21.703125 
Q 11 30.703125 18.296875 36.40625 
Q 11.796875 41.296875 11.796875 49.90625 
L 11.796875 53.5 
Q 11.796875 60.796875 16.9375 65.890625 
Q 22.09375 71 29.5 71 
L 30.40625 71 
Q 37.796875 71 42.9375 65.890625 
Q 48.09375 60.796875 48.09375 53.5 
z
M 40.59375 17.296875 
L 40.59375 21.59375 
Q 40.59375 26 37.5 29.09375 
Q 34.40625 32.203125 30 32.203125 
Q 25.59375 32.203125 22.5 29.09375 
Q 19.40625 26 19.40625 21.59375 
L 19.40625 17.40625 
Q 19.40625 13 22.546875 9.953125 
Q 25.703125 6.90625 30.203125 6.90625 
Q 34.5 6.90625 37.546875 9.90625 
Q 40.59375 12.90625 40.59375 17.296875 
z
M 39.703125 49.703125 
L 39.703125 53.09375 
Q 39.703125 57.296875 36.84375 60.1875 
Q 34 63.09375 29.796875 63.09375 
Q 25.796875 63.09375 23 60.1875 
Q 20.203125 57.296875 20.203125 53.09375 
L 20.203125 49.796875 
Q 20.203125 45.90625 22.84375 43 
Q 25.5 40.09375 29.59375 40.09375 
L 30.5 40.09375 
Q 34.296875 40.09375 37 42.84375 
Q 39.703125 45.59375 39.703125 49.703125 
z
" id="DecimaMonoPro-56"/>
      </defs>
      <g style="fill:#303030;" transform="translate(490.673514 430.093125)scale(0.14 -0.14)">
       <use xlink:href="#DecimaMonoPro-56"/>
       <use x="59.999985" xlink:href="#DecimaMonoPro-48"/>
       <use x="119.999969" xlink:href="#DecimaMonoPro-48"/>
      </g>
     </g>
    </g>
    <g id="text_6">
     <!-- x -->
     <defs>
      <path d="M 3.59375 50.40625 
L 13.09375 50.40625 
L 22.90625 34.40625 
L 32.703125 50.40625 
L 42.203125 50.40625 
L 27.59375 26.59375 
L 44 0 
L 34.5 0 
L 22.90625 18.90625 
L 11.296875 0 
L 1.796875 0 
L 18.203125 26.59375 
z
" id="Apercu-120"/>
     </defs>
     <g style="opacity:0.75;" transform="translate(340.234219 446.524687)scale(0.14 -0.14)">
      <use xlink:href="#Apercu-120"/>
     </g>
    </g>
   </g>
   <g id="matplotlib.axis_2">
    <g id="ytick_1">
     <g id="line2d_11">
      <path clip-path="url(#p768e42834f)" d="M 77.76 397.930909 
L 609.12 397.930909 
" style="fill:none;stroke:#b0b0b0;stroke-linecap:square;stroke-width:0.8;"/>
     </g>
     <g id="line2d_12">
      <defs>
       <path d="M 0 0 
L -3.5 0 
" id="md22fe45e88" style="stroke:#000000;stroke-width:0.8;"/>
      </defs>
      <g>
       <use style="stroke:#000000;stroke-width:0.8;" x="77.76" xlink:href="#md22fe45e88" y="397.930909"/>
      </g>
     </g>
     <g id="text_7">
      <!-- 0 -->
      <g style="fill:#303030;" transform="translate(62.36 402.837472)scale(0.14 -0.14)">
       <use xlink:href="#DecimaMonoPro-48"/>
      </g>
     </g>
    </g>
    <g id="ytick_2">
     <g id="line2d_13">
      <path clip-path="url(#p768e42834f)" d="M 77.76 333.166812 
L 609.12 333.166812 
" style="fill:none;stroke:#b0b0b0;stroke-linecap:square;stroke-width:0.8;"/>
     </g>
     <g id="line2d_14">
      <g>
       <use style="stroke:#000000;stroke-width:0.8;" x="77.76" xlink:href="#md22fe45e88" y="333.166812"/>
      </g>
     </g>
     <g id="text_8">
      <!-- 200 -->
      <g style="fill:#303030;" transform="translate(45.56 338.073375)scale(0.14 -0.14)">
       <use xlink:href="#DecimaMonoPro-50"/>
       <use x="59.999985" xlink:href="#DecimaMonoPro-48"/>
       <use x="119.999969" xlink:href="#DecimaMonoPro-48"/>
      </g>
     </g>
    </g>
    <g id="ytick_3">
     <g id="line2d_15">
      <path clip-path="url(#p768e42834f)" d="M 77.76 268.402716 
L 609.12 268.402716 
" style="fill:none;stroke:#b0b0b0;stroke-linecap:square;stroke-width:0.8;"/>
     </g>
     <g id="line2d_16">
      <g>
       <use style="stroke:#000000;stroke-width:0.8;" x="77.76" xlink:href="#md22fe45e88" y="268.402716"/>
      </g>
     </g>
     <g id="text_9">
      <!-- 400 -->
      <g style="fill:#303030;" transform="translate(45.56 273.309278)scale(0.14 -0.14)">
       <use xlink:href="#DecimaMonoPro-52"/>
       <use x="59.999985" xlink:href="#DecimaMonoPro-48"/>
       <use x="119.999969" xlink:href="#DecimaMonoPro-48"/>
      </g>
     </g>
    </g>
    <g id="ytick_4">
     <g id="line2d_17">
      <path clip-path="url(#p768e42834f)" d="M 77.76 203.638619 
L 609.12 203.638619 
" style="fill:none;stroke:#b0b0b0;stroke-linecap:square;stroke-width:0.8;"/>
     </g>
     <g id="line2d_18">
      <g>
       <use style="stroke:#000000;stroke-width:0.8;" x="77.76" xlink:href="#md22fe45e88" y="203.638619"/>
      </g>
     </g>
     <g id="text_10">
      <!-- 600 -->
      <g style="fill:#303030;" transform="translate(45.56 208.545182)scale(0.14 -0.14)">
       <use xlink:href="#DecimaMonoPro-54"/>
       <use x="59.999985" xlink:href="#DecimaMonoPro-48"/>
       <use x="119.999969" xlink:href="#DecimaMonoPro-48"/>
      </g>
     </g>
    </g>
    <g id="ytick_5">
     <g id="line2d_19">
      <path clip-path="url(#p768e42834f)" d="M 77.76 138.874522 
L 609.12 138.874522 
" style="fill:none;stroke:#b0b0b0;stroke-linecap:square;stroke-width:0.8;"/>
     </g>
     <g id="line2d_20">
      <g>
       <use style="stroke:#000000;stroke-width:0.8;" x="77.76" xlink:href="#md22fe45e88" y="138.874522"/>
      </g>
     </g>
     <g id="text_11">
      <!-- 800 -->
      <g style="fill:#303030;" transform="translate(45.56 143.781085)scale(0.14 -0.14)">
       <use xlink:href="#DecimaMonoPro-56"/>
       <use x="59.999985" xlink:href="#DecimaMonoPro-48"/>
       <use x="119.999969" xlink:href="#DecimaMonoPro-48"/>
      </g>
     </g>
    </g>
    <g id="text_12">
     <!-- y -->
     <defs>
      <path d="M 36 50.40625 
L 44.796875 50.40625 
L 19.796875 -20.40625 
L 11.203125 -20.40625 
L 19.203125 2.09375 
L 1.5 50.40625 
L 10.703125 50.40625 
L 23.5 14 
z
" id="Apercu-121"/>
     </defs>
     <g style="opacity:0.75;" transform="translate(38.703125 247.66)rotate(-90)scale(0.14 -0.14)">
      <use xlink:href="#Apercu-121"/>
     </g>
    </g>
   </g>
   <g id="line2d_21">
    <path clip-path="url(#p768e42834f)" d="M 77.76 150.208239 
L 78.291892 148.912957 
L 79.355676 146.970035 
L 79.887568 146.970035 
L 80.419459 147.293855 
L 80.951351 147.941496 
L 81.483243 152.798803 
L 82.015135 169.961289 
L 82.547027 175.142417 
L 83.078919 198.457491 
L 83.610811 214.000875 
L 84.142703 241.201795 
L 85.738378 263.545409 
L 86.27027 268.402716 
L 87.334054 273.260023 
L 87.865946 273.907664 
L 88.397838 272.936203 
L 88.92973 270.345639 
L 89.461622 266.135972 
L 89.993514 260.954845 
L 91.057297 255.126076 
L 92.121081 249.621128 
L 92.652973 244.76382 
L 93.716757 236.992129 
L 94.780541 233.430104 
L 95.844324 230.83954 
L 96.376216 229.220437 
L 96.908108 228.572796 
L 97.44 227.277514 
L 98.503784 226.629873 
L 99.567568 226.629873 
L 100.099459 226.953694 
L 100.631351 227.601335 
L 101.695135 228.248976 
L 103.290811 228.248976 
L 104.354595 228.896617 
L 104.886486 230.191899 
L 105.418378 235.049206 
L 106.482162 248.649666 
L 107.014054 252.211692 
L 107.545946 254.802255 
L 108.60973 258.364281 
L 109.141622 258.364281 
L 109.673514 258.688101 
L 110.205405 258.688101 
L 110.737297 259.335742 
L 112.864865 259.335742 
L 113.396757 259.659563 
L 117.651892 259.659563 
L 118.183784 256.421358 
L 119.247568 246.706743 
L 119.779459 236.020667 
L 122.438919 161.865777 
L 122.970811 142.112727 
L 124.034595 122.683498 
L 125.63027 103.254269 
L 126.694054 96.454039 
L 127.225946 94.511116 
L 127.757838 93.539655 
L 128.28973 92.892014 
L 129.353514 92.244373 
L 129.885405 91.596732 
L 130.949189 90.949091 
L 132.012973 90.949091 
L 132.544865 91.596732 
L 133.076757 91.920552 
L 133.608649 92.568193 
L 134.140541 94.187296 
L 134.672432 97.425501 
L 135.204324 99.368423 
L 138.395676 116.85473 
L 138.927568 119.121473 
L 139.459459 120.740575 
L 139.991351 123.331139 
L 142.650811 133.369574 
L 145.31027 150.53206 
L 145.842162 153.446444 
L 146.374054 157.65611 
L 146.905946 163.161059 
L 148.501622 173.199494 
L 149.565405 178.056801 
L 150.097297 180.971185 
L 152.224865 194.895466 
L 153.288649 198.457491 
L 153.820541 200.724235 
L 155.948108 212.057952 
L 156.48 214.324695 
L 157.543784 216.915259 
L 158.607568 218.858182 
L 159.671351 220.153464 
L 160.735135 222.096387 
L 161.267027 223.391669 
L 162.330811 226.629873 
L 163.926486 235.373026 
L 166.054054 241.525616 
L 166.585946 242.820898 
L 167.64973 244.76382 
L 168.181622 245.411461 
L 168.713514 246.706743 
L 169.245405 247.678205 
L 169.777297 248.325846 
L 170.309189 249.944948 
L 170.841081 250.592589 
L 171.372973 250.91641 
L 171.904865 252.211692 
L 172.436757 253.830794 
L 172.968649 254.478435 
L 173.500541 256.097537 
L 174.564324 258.04046 
L 175.096216 259.335742 
L 176.16 261.278665 
L 176.691892 262.573947 
L 177.755676 263.869229 
L 178.287568 265.488331 
L 178.819459 266.459793 
L 179.351351 267.107434 
L 179.883243 269.374177 
L 180.947027 271.964741 
L 181.478919 272.612382 
L 182.010811 274.555305 
L 182.542703 275.526766 
L 183.074595 276.174407 
L 183.606486 277.469689 
L 184.138378 278.11733 
L 184.67027 279.088792 
L 185.202162 279.736433 
L 185.734054 280.707894 
L 186.265946 281.355535 
L 186.797838 282.650817 
L 187.32973 282.974638 
L 187.861622 283.622278 
L 188.393514 283.946099 
L 188.925405 284.91756 
L 189.457297 285.241381 
L 190.521081 286.536663 
L 191.584865 287.184304 
L 192.116757 288.155765 
L 192.648649 288.479586 
L 193.180541 289.127227 
L 193.712432 289.451047 
L 194.244324 290.098688 
L 195.308108 290.746329 
L 195.84 291.39397 
L 196.903784 291.39397 
L 197.435676 150.208239 
L 197.967568 148.912957 
L 199.031351 146.970035 
L 199.563243 146.970035 
L 200.095135 147.293855 
L 200.627027 147.941496 
L 201.158919 152.798803 
L 201.690811 169.961289 
L 202.222703 175.142417 
L 202.754595 198.457491 
L 203.286486 214.000875 
L 203.818378 241.201795 
L 205.414054 263.545409 
L 205.945946 268.402716 
L 207.00973 273.260023 
L 207.541622 273.907664 
L 208.073514 272.936203 
L 208.605405 270.345639 
L 209.137297 266.135972 
L 209.669189 260.954845 
L 210.732973 255.126076 
L 211.796757 249.621128 
L 212.328649 244.76382 
L 213.392432 236.992129 
L 214.456216 233.430104 
L 215.52 230.83954 
L 216.051892 229.220437 
L 216.583784 228.572796 
L 217.115676 227.277514 
L 218.179459 226.629873 
L 219.243243 226.629873 
L 219.775135 226.953694 
L 220.307027 227.601335 
L 221.370811 228.248976 
L 222.966486 228.248976 
L 224.03027 228.896617 
L 224.562162 230.191899 
L 225.094054 235.049206 
L 226.157838 248.649666 
L 226.68973 252.211692 
L 227.221622 254.802255 
L 228.285405 258.364281 
L 228.817297 258.364281 
L 229.349189 258.688101 
L 229.881081 258.688101 
L 230.412973 259.335742 
L 232.540541 259.335742 
L 233.072432 259.659563 
L 237.327568 259.659563 
L 237.859459 256.421358 
L 238.923243 246.706743 
L 239.455135 236.020667 
L 242.114595 161.865777 
L 242.646486 142.112727 
L 243.71027 122.683498 
L 245.305946 103.254269 
L 246.36973 96.454039 
L 246.901622 94.511116 
L 247.433514 93.539655 
L 247.965405 92.892014 
L 249.029189 92.244373 
L 249.561081 91.596732 
L 250.624865 90.949091 
L 251.688649 90.949091 
L 252.220541 91.596732 
L 252.752432 91.920552 
L 253.284324 92.568193 
L 253.816216 94.187296 
L 254.348108 97.425501 
L 254.88 99.368423 
L 258.071351 116.85473 
L 258.603243 119.121473 
L 259.135135 120.740575 
L 259.667027 123.331139 
L 262.326486 133.369574 
L 264.985946 150.53206 
L 265.517838 153.446444 
L 266.04973 157.65611 
L 266.581622 163.161059 
L 268.177297 173.199494 
L 269.241081 178.056801 
L 269.772973 180.971185 
L 271.900541 194.895466 
L 272.964324 198.457491 
L 273.496216 200.724235 
L 275.623784 212.057952 
L 276.155676 214.324695 
L 277.219459 216.915259 
L 278.283243 218.858182 
L 279.347027 220.153464 
L 280.410811 222.096387 
L 280.942703 223.391669 
L 282.006486 226.629873 
L 283.602162 235.373026 
L 285.72973 241.525616 
L 286.261622 242.820898 
L 287.325405 244.76382 
L 287.857297 245.411461 
L 288.389189 246.706743 
L 288.921081 247.678205 
L 289.452973 248.325846 
L 289.984865 249.944948 
L 290.516757 250.592589 
L 291.048649 250.91641 
L 291.580541 252.211692 
L 292.112432 253.830794 
L 292.644324 254.478435 
L 293.176216 256.097537 
L 294.24 258.04046 
L 294.771892 259.335742 
L 295.835676 261.278665 
L 296.367568 262.573947 
L 297.431351 263.869229 
L 297.963243 265.488331 
L 298.495135 266.459793 
L 299.027027 267.107434 
L 299.558919 269.374177 
L 300.622703 271.964741 
L 301.154595 272.612382 
L 301.686486 274.555305 
L 302.218378 275.526766 
L 302.75027 276.174407 
L 303.282162 277.469689 
L 303.814054 278.11733 
L 304.345946 279.088792 
L 304.877838 279.736433 
L 305.40973 280.707894 
L 305.941622 281.355535 
L 306.473514 282.650817 
L 307.005405 282.974638 
L 307.537297 283.622278 
L 308.069189 283.946099 
L 308.601081 284.91756 
L 309.132973 285.241381 
L 310.196757 286.536663 
L 311.260541 287.184304 
L 311.792432 288.155765 
L 312.324324 288.479586 
L 312.856216 289.127227 
L 313.388108 289.451047 
L 313.92 290.098688 
L 314.983784 290.746329 
L 315.515676 291.39397 
L 316.579459 291.39397 
L 317.111351 150.208239 
L 317.643243 148.912957 
L 318.707027 146.970035 
L 319.238919 146.970035 
L 319.770811 147.293855 
L 320.302703 147.941496 
L 320.834595 152.798803 
L 321.366486 169.961289 
L 321.898378 175.142417 
L 322.43027 198.457491 
L 322.962162 214.000875 
L 323.494054 241.201795 
L 325.08973 263.545409 
L 325.621622 268.402716 
L 326.685405 273.260023 
L 327.217297 273.907664 
L 327.749189 272.936203 
L 328.281081 270.345639 
L 328.812973 266.135972 
L 329.344865 260.954845 
L 330.408649 255.126076 
L 331.472432 249.621128 
L 332.004324 244.76382 
L 333.068108 236.992129 
L 334.131892 233.430104 
L 335.195676 230.83954 
L 335.727568 229.220437 
L 336.259459 228.572796 
L 336.791351 227.277514 
L 337.855135 226.629873 
L 338.918919 226.629873 
L 339.450811 226.953694 
L 339.982703 227.601335 
L 341.046486 228.248976 
L 342.642162 228.248976 
L 343.705946 228.896617 
L 344.237838 230.191899 
L 344.76973 235.049206 
L 345.833514 248.649666 
L 346.365405 252.211692 
L 346.897297 254.802255 
L 347.961081 258.364281 
L 348.492973 258.364281 
L 349.024865 258.688101 
L 349.556757 258.688101 
L 350.088649 259.335742 
L 352.216216 259.335742 
L 352.748108 259.659563 
L 357.003243 259.659563 
L 357.535135 256.421358 
L 358.598919 246.706743 
L 359.130811 236.020667 
L 361.79027 161.865777 
L 362.322162 142.112727 
L 363.385946 122.683498 
L 364.981622 103.254269 
L 366.045405 96.454039 
L 366.577297 94.511116 
L 367.109189 93.539655 
L 367.641081 92.892014 
L 368.704865 92.244373 
L 369.236757 91.596732 
L 370.300541 90.949091 
L 371.364324 90.949091 
L 371.896216 91.596732 
L 372.428108 91.920552 
L 372.96 92.568193 
L 373.491892 94.187296 
L 374.023784 97.425501 
L 374.555676 99.368423 
L 377.747027 116.85473 
L 378.278919 119.121473 
L 378.810811 120.740575 
L 379.342703 123.331139 
L 382.002162 133.369574 
L 384.661622 150.53206 
L 385.193514 153.446444 
L 385.725405 157.65611 
L 386.257297 163.161059 
L 387.852973 173.199494 
L 388.916757 178.056801 
L 389.448649 180.971185 
L 391.576216 194.895466 
L 392.64 198.457491 
L 393.171892 200.724235 
L 395.299459 212.057952 
L 395.831351 214.324695 
L 396.895135 216.915259 
L 397.958919 218.858182 
L 399.022703 220.153464 
L 400.086486 222.096387 
L 400.618378 223.391669 
L 401.682162 226.629873 
L 403.277838 235.373026 
L 405.405405 241.525616 
L 405.937297 242.820898 
L 407.001081 244.76382 
L 407.532973 245.411461 
L 408.064865 246.706743 
L 408.596757 247.678205 
L 409.128649 248.325846 
L 409.660541 249.944948 
L 410.192432 250.592589 
L 410.724324 250.91641 
L 411.256216 252.211692 
L 411.788108 253.830794 
L 412.32 254.478435 
L 412.851892 256.097537 
L 413.915676 258.04046 
L 414.447568 259.335742 
L 415.511351 261.278665 
L 416.043243 262.573947 
L 417.107027 263.869229 
L 417.638919 265.488331 
L 418.170811 266.459793 
L 418.702703 267.107434 
L 419.234595 269.374177 
L 420.298378 271.964741 
L 420.83027 272.612382 
L 421.362162 274.555305 
L 421.894054 275.526766 
L 422.425946 276.174407 
L 422.957838 277.469689 
L 423.48973 278.11733 
L 424.021622 279.088792 
L 424.553514 279.736433 
L 425.085405 280.707894 
L 425.617297 281.355535 
L 426.149189 282.650817 
L 426.681081 282.974638 
L 427.212973 283.622278 
L 427.744865 283.946099 
L 428.276757 284.91756 
L 428.808649 285.241381 
L 429.872432 286.536663 
L 430.936216 287.184304 
L 431.468108 288.155765 
L 432 288.479586 
L 432.531892 289.127227 
L 433.063784 289.451047 
L 433.595676 290.098688 
L 434.659459 290.746329 
L 435.191351 291.39397 
L 436.255135 291.39397 
L 436.787027 150.208239 
L 437.318919 148.912957 
L 438.382703 146.970035 
L 438.914595 146.970035 
L 439.446486 147.293855 
L 439.978378 147.941496 
L 440.51027 152.798803 
L 441.042162 169.961289 
L 441.574054 175.142417 
L 442.105946 198.457491 
L 442.637838 214.000875 
L 443.16973 241.201795 
L 444.765405 263.545409 
L 445.297297 268.402716 
L 446.361081 273.260023 
L 446.892973 273.907664 
L 447.424865 272.936203 
L 447.956757 270.345639 
L 448.488649 266.135972 
L 449.020541 260.954845 
L 450.084324 255.126076 
L 451.148108 249.621128 
L 451.68 244.76382 
L 452.743784 236.992129 
L 453.807568 233.430104 
L 454.871351 230.83954 
L 455.403243 229.220437 
L 455.935135 228.572796 
L 456.467027 227.277514 
L 457.530811 226.629873 
L 458.594595 226.629873 
L 459.126486 226.953694 
L 459.658378 227.601335 
L 460.722162 228.248976 
L 462.317838 228.248976 
L 463.381622 228.896617 
L 463.913514 230.191899 
L 464.445405 235.049206 
L 465.509189 248.649666 
L 466.041081 252.211692 
L 466.572973 254.802255 
L 467.636757 258.364281 
L 468.168649 258.364281 
L 468.700541 258.688101 
L 469.232432 258.688101 
L 469.764324 259.335742 
L 471.891892 259.335742 
L 472.423784 259.659563 
L 476.678919 259.659563 
L 477.210811 256.421358 
L 478.274595 246.706743 
L 478.806486 236.020667 
L 481.465946 161.865777 
L 481.997838 142.112727 
L 483.061622 122.683498 
L 484.657297 103.254269 
L 485.721081 96.454039 
L 486.252973 94.511116 
L 486.784865 93.539655 
L 487.316757 92.892014 
L 488.380541 92.244373 
L 488.912432 91.596732 
L 489.976216 90.949091 
L 491.04 90.949091 
L 491.571892 91.596732 
L 492.103784 91.920552 
L 492.635676 92.568193 
L 493.167568 94.187296 
L 493.699459 97.425501 
L 494.231351 99.368423 
L 497.422703 116.85473 
L 497.954595 119.121473 
L 498.486486 120.740575 
L 499.018378 123.331139 
L 501.677838 133.369574 
L 504.337297 150.53206 
L 504.869189 153.446444 
L 505.401081 157.65611 
L 505.932973 163.161059 
L 507.528649 173.199494 
L 508.592432 178.056801 
L 509.124324 180.971185 
L 511.251892 194.895466 
L 512.315676 198.457491 
L 512.847568 200.724235 
L 514.975135 212.057952 
L 515.507027 214.324695 
L 516.570811 216.915259 
L 517.634595 218.858182 
L 518.698378 220.153464 
L 519.762162 222.096387 
L 520.294054 223.391669 
L 521.357838 226.629873 
L 522.953514 235.373026 
L 525.081081 241.525616 
L 525.612973 242.820898 
L 526.676757 244.76382 
L 527.208649 245.411461 
L 527.740541 246.706743 
L 528.272432 247.678205 
L 528.804324 248.325846 
L 529.336216 249.944948 
L 529.868108 250.592589 
L 530.4 250.91641 
L 530.931892 252.211692 
L 531.463784 253.830794 
L 531.995676 254.478435 
L 532.527568 256.097537 
L 533.591351 258.04046 
L 534.123243 259.335742 
L 535.187027 261.278665 
L 535.718919 262.573947 
L 536.782703 263.869229 
L 537.314595 265.488331 
L 537.846486 266.459793 
L 538.378378 267.107434 
L 538.91027 269.374177 
L 539.974054 271.964741 
L 540.505946 272.612382 
L 541.037838 274.555305 
L 541.56973 275.526766 
L 542.101622 276.174407 
L 542.633514 277.469689 
L 543.165405 278.11733 
L 543.697297 279.088792 
L 544.229189 279.736433 
L 544.761081 280.707894 
L 545.292973 281.355535 
L 545.824865 282.650817 
L 546.356757 282.974638 
L 546.888649 283.622278 
L 547.420541 283.946099 
L 547.952432 284.91756 
L 548.484324 285.241381 
L 549.548108 286.536663 
L 550.611892 287.184304 
L 551.143784 288.155765 
L 551.675676 288.479586 
L 552.207568 289.127227 
L 552.739459 289.451047 
L 553.271351 290.098688 
L 554.335135 290.746329 
L 554.867027 291.39397 
L 555.930811 291.39397 
L 556.462703 150.208239 
L 556.994595 148.912957 
L 558.058378 146.970035 
L 558.59027 146.970035 
L 559.122162 147.293855 
L 559.654054 147.941496 
L 560.185946 152.798803 
L 560.717838 169.961289 
L 561.24973 175.142417 
L 561.781622 198.457491 
L 562.313514 214.000875 
L 562.845405 241.201795 
L 564.441081 263.545409 
L 564.972973 268.402716 
L 566.036757 273.260023 
L 566.568649 273.907664 
L 567.100541 272.936203 
L 567.632432 270.345639 
L 568.164324 266.135972 
L 568.696216 260.954845 
L 569.76 255.126076 
L 570.823784 249.621128 
L 571.355676 244.76382 
L 572.419459 236.992129 
L 573.483243 233.430104 
L 574.547027 230.83954 
L 575.078919 229.220437 
L 575.610811 228.572796 
L 576.142703 227.277514 
L 577.206486 226.629873 
L 578.27027 226.629873 
L 578.802162 226.953694 
L 579.334054 227.601335 
L 580.397838 228.248976 
L 581.993514 228.248976 
L 583.057297 228.896617 
L 583.589189 230.191899 
L 584.121081 235.049206 
L 585.184865 248.649666 
L 585.716757 252.211692 
L 586.248649 254.802255 
L 587.312432 258.364281 
L 587.844324 258.364281 
L 588.376216 258.688101 
L 588.908108 258.688101 
L 589.44 259.335742 
L 591.567568 259.335742 
L 592.099459 259.659563 
L 596.354595 259.659563 
L 596.886486 256.421358 
L 597.95027 246.706743 
L 598.482162 236.020667 
L 601.141622 161.865777 
L 601.673514 142.112727 
L 602.737297 122.683498 
L 604.332973 103.254269 
L 605.396757 96.454039 
L 605.928649 94.511116 
L 606.460541 93.539655 
L 606.992432 92.892014 
L 608.056216 92.244373 
L 608.588108 91.596732 
L 609.12 91.272911 
L 609.12 91.272911 
" style="fill:none;stroke:#000004;stroke-width:3;"/>
   </g>
   <g id="line2d_22">
    <path clip-path="url(#p768e42834f)" d="M 77.76 397.930909 
L 609.12 397.930909 
" style="fill:none;stroke:#000000;stroke-opacity:0.7;stroke-width:1.3;"/>
   </g>
   <g id="patch_3">
    <path d="M 77.76 413.28 
L 77.76 75.6 
" style="fill:none;stroke:#000000;stroke-linecap:square;stroke-linejoin:miter;stroke-width:0.8;"/>
   </g>
   <g id="patch_4">
    <path d="M 609.12 413.28 
L 609.12 75.6 
" style="fill:none;stroke:#000000;stroke-linecap:square;stroke-linejoin:miter;stroke-width:0.8;"/>
   </g>
   <g id="patch_5">
    <path d="M 77.76 413.28 
L 609.12 413.28 
" style="fill:none;stroke:#000000;stroke-linecap:square;stroke-linejoin:miter;stroke-width:0.8;"/>
   </g>
   <g id="patch_6">
    <path d="M 77.76 75.6 
L 609.12 75.6 
" style="fill:none;stroke:#000000;stroke-linecap:square;stroke-linejoin:miter;stroke-width:0.8;"/>
   </g>
   <g id="patch_7">
    <path d="M 0 504 
L 648 504 
L 648 480.923077 
L 0 480.923077 
z
" style="fill:#808080;"/>
   </g>
   <g id="text_13">
    <!-- ©spred -->
    <defs>
     <path d="M 50.90625 25.90625 
L 50.90625 44 
Q 50.90625 52.40625 44.75 58.40625 
Q 38.59375 64.40625 30 64.40625 
Q 21.296875 64.40625 15.09375 58.40625 
Q 8.90625 52.40625 8.90625 44 
L 8.90625 25.90625 
Q 8.90625 17.5 15.09375 11.453125 
Q 21.296875 5.40625 30 5.40625 
Q 38.59375 5.40625 44.75 11.453125 
Q 50.90625 17.5 50.90625 25.90625 
z
M 57.703125 43.203125 
L 57.703125 26.59375 
Q 57.703125 15.203125 49.59375 7.09375 
Q 41.5 -1 30 -1 
Q 18.40625 -1 10.296875 7.09375 
Q 2.203125 15.203125 2.203125 26.59375 
L 2.203125 43.203125 
Q 2.203125 54.59375 10.296875 62.6875 
Q 18.40625 70.796875 30 70.796875 
Q 41.5 70.796875 49.59375 62.6875 
Q 57.703125 54.59375 57.703125 43.203125 
z
M 38.59375 29.40625 
L 41.40625 29.40625 
Q 42.40625 29.40625 42.90625 28.84375 
Q 43.40625 28.296875 43.40625 27.59375 
Q 43.40625 21.59375 39.796875 17.9375 
Q 36.203125 14.296875 30.40625 14.296875 
Q 24.40625 14.296875 20.75 17.9375 
Q 17.09375 21.59375 17.09375 27.09375 
L 17.09375 43.40625 
Q 17.09375 48.703125 20.75 52.390625 
Q 24.40625 56.09375 30.40625 56.09375 
Q 35.90625 56.09375 39.40625 52.25 
Q 42.90625 48.40625 42.90625 42.296875 
Q 42.90625 41.59375 42.40625 41.046875 
Q 41.90625 40.5 40.90625 40.5 
L 38.09375 40.5 
Q 37.09375 40.5 36.546875 41.046875 
Q 36 41.59375 36 42.296875 
Q 36 45.203125 34.390625 47.046875 
Q 32.796875 48.90625 30.40625 48.90625 
Q 27.703125 48.90625 25.796875 46.90625 
Q 23.90625 44.90625 23.90625 42.203125 
L 23.90625 28.203125 
Q 23.90625 25.59375 25.796875 23.59375 
Q 27.703125 21.59375 30.40625 21.59375 
Q 32.90625 21.59375 34.703125 23.1875 
Q 36.5 24.796875 36.5 27.59375 
Q 36.5 28.296875 37.046875 28.84375 
Q 37.59375 29.40625 38.59375 29.40625 
z
" id="DecimaMonoPro-169"/>
     <path d="M 30.09375 -1 
Q 25.296875 -1 21.546875 0.59375 
Q 17.796875 2.203125 15.84375 4.59375 
Q 13.90625 7 12.953125 9.390625 
Q 12 11.796875 12 14 
Q 12 14.796875 12.5 15.296875 
Q 13 15.796875 13.796875 15.796875 
L 18.296875 15.796875 
Q 19.90625 15.796875 20.09375 14.09375 
Q 20.40625 11.203125 22.796875 8.703125 
Q 25.203125 6.203125 30.09375 6.203125 
Q 34.296875 6.203125 36.890625 8.296875 
Q 39.5 10.40625 39.5 13.59375 
Q 39.5 16.5 36.84375 18.5 
Q 34.203125 20.5 30.390625 21.84375 
Q 26.59375 23.203125 22.84375 24.796875 
Q 19.09375 26.40625 16.4375 29.5 
Q 13.796875 32.59375 13.796875 37.09375 
Q 13.796875 43.296875 18.4375 47.140625 
Q 23.09375 51 30.703125 51 
Q 38.90625 51 43.25 46.5 
Q 47.59375 42 47.59375 37.5 
Q 47.59375 36.796875 47.09375 36.25 
Q 46.59375 35.703125 45.796875 35.703125 
L 41.203125 35.703125 
Q 39.703125 35.703125 39.40625 37.40625 
Q 38.90625 40 36.75 41.890625 
Q 34.59375 43.796875 30.703125 43.796875 
Q 26.90625 43.796875 24.546875 42.09375 
Q 22.203125 40.40625 22.203125 37.703125 
Q 22.203125 35 24.84375 33.09375 
Q 27.5 31.203125 31.25 29.890625 
Q 35 28.59375 38.703125 26.9375 
Q 42.40625 25.296875 45.046875 21.84375 
Q 47.703125 18.40625 47.703125 13.40625 
Q 47.703125 7.40625 42.59375 3.203125 
Q 37.5 -1 30.09375 -1 
z
" id="DecimaMonoPro-115"/>
     <path d="M 42.09375 17.09375 
L 42.09375 33.09375 
Q 42.09375 37.703125 38.84375 40.796875 
Q 35.59375 43.90625 30.5 43.90625 
Q 25.40625 43.90625 22.046875 40.75 
Q 18.703125 37.59375 18.703125 33 
L 18.703125 17.09375 
Q 18.703125 12.5 22.046875 9.390625 
Q 25.40625 6.296875 30.5 6.296875 
Q 35.59375 6.296875 38.84375 9.390625 
Q 42.09375 12.5 42.09375 17.09375 
z
M 18.703125 3.703125 
L 18.796875 -16.203125 
Q 18.796875 -18 16.5 -18 
L 13 -18 
Q 10.703125 -18 10.703125 -16.203125 
L 10.703125 48.203125 
Q 10.703125 50 13 50 
L 15.90625 50 
Q 18.203125 50 18.203125 48.203125 
L 18.203125 45.90625 
Q 18.59375 46.5 19.5 47.34375 
Q 20.40625 48.203125 23.75 49.59375 
Q 27.09375 51 31.296875 51 
Q 39.296875 51 44.796875 45.640625 
Q 50.296875 40.296875 50.296875 32.59375 
L 50.296875 17.40625 
Q 50.296875 9.796875 44.75 4.390625 
Q 39.203125 -1 31.296875 -1 
Q 27.40625 -1 24.25 0.203125 
Q 21.09375 1.40625 19.90625 2.59375 
z
" id="DecimaMonoPro-112"/>
     <path d="M 37.203125 51 
Q 44.09375 51 48.140625 46.453125 
Q 52.203125 41.90625 52.203125 37.5 
Q 52.203125 35.703125 50.5 35.703125 
L 45.90625 35.703125 
Q 44.296875 35.703125 44.09375 37.40625 
Q 43.796875 39.796875 41.75 41.796875 
Q 39.703125 43.796875 36.59375 43.796875 
Q 32.40625 43.796875 29.203125 40.796875 
Q 26 37.796875 26 34 
L 26 7.203125 
L 45.09375 7.203125 
Q 45.796875 7.203125 46.34375 6.703125 
Q 46.90625 6.203125 46.90625 5.40625 
L 46.90625 1.796875 
Q 46.90625 1 46.34375 0.5 
Q 45.796875 0 45.09375 0 
L 9.296875 0 
Q 8.59375 0 8.046875 0.5 
Q 7.5 1 7.5 1.796875 
L 7.5 5.40625 
Q 7.5 6.203125 8.046875 6.703125 
Q 8.59375 7.203125 9.296875 7.203125 
L 18 7.203125 
L 18 48.203125 
Q 18 50 20.296875 50 
L 23.5 50 
Q 25.796875 50 25.796875 48.203125 
L 25.796875 45.703125 
Q 29.796875 51 37.203125 51 
z
" id="DecimaMonoPro-114"/>
     <path d="M 48.796875 13.5 
Q 48.796875 9.09375 43.75 4.046875 
Q 38.703125 -1 30.203125 -1 
Q 21.203125 -1 15.75 4.453125 
Q 10.296875 9.90625 10.296875 17.5 
L 10.296875 32.703125 
Q 10.296875 40.203125 15.75 45.59375 
Q 21.203125 51 30.203125 51 
Q 39.203125 51 44.453125 45.59375 
Q 49.703125 40.203125 49.703125 32.703125 
L 49.703125 24.796875 
Q 49.703125 23.796875 49.046875 23.140625 
Q 48.40625 22.5 47.40625 22.5 
L 18.40625 22.5 
L 18.40625 17 
Q 18.40625 12.5 21.65625 9.296875 
Q 24.90625 6.09375 30.203125 6.09375 
Q 38.5 6.09375 40.59375 13.59375 
Q 41.09375 15.296875 42.40625 15.296875 
L 47 15.296875 
Q 47.796875 15.296875 48.296875 14.75 
Q 48.796875 14.203125 48.796875 13.5 
z
M 18.40625 33 
L 18.40625 29.703125 
L 41.796875 29.703125 
L 41.796875 33 
Q 41.796875 37.5 38.640625 40.640625 
Q 35.5 43.796875 30.203125 43.796875 
Q 24.90625 43.796875 21.65625 40.640625 
Q 18.40625 37.5 18.40625 33 
z
" id="DecimaMonoPro-101"/>
     <path d="M 17.90625 32.90625 
L 17.90625 16.90625 
Q 17.90625 12.296875 21.15625 9.1875 
Q 24.40625 6.09375 29.5 6.09375 
Q 34.59375 6.09375 37.9375 9.25 
Q 41.296875 12.40625 41.296875 17 
L 41.296875 32.90625 
Q 41.296875 37.5 37.9375 40.59375 
Q 34.59375 43.703125 29.5 43.703125 
Q 24.40625 43.703125 21.15625 40.59375 
Q 17.90625 37.5 17.90625 32.90625 
z
M 41.296875 46.296875 
L 41.203125 68.203125 
Q 41.203125 70 43.5 70 
L 47 70 
Q 49.296875 70 49.296875 68.203125 
L 49.296875 1.796875 
Q 49.296875 0 47 0 
L 44.09375 0 
Q 41.796875 0 41.796875 1.796875 
L 41.796875 4.09375 
Q 41.40625 3.5 40.5 2.640625 
Q 39.59375 1.796875 36.25 0.390625 
Q 32.90625 -1 28.703125 -1 
Q 20.703125 -1 15.203125 4.34375 
Q 9.703125 9.703125 9.703125 17.40625 
L 9.703125 32.59375 
Q 9.703125 40.203125 15.25 45.59375 
Q 20.796875 51 28.703125 51 
Q 32.59375 51 35.75 49.796875 
Q 38.90625 48.59375 40.09375 47.40625 
z
" id="DecimaMonoPro-100"/>
    </defs>
    <g style="fill:#ffffff;" transform="translate(6.48 496.8)scale(0.14 -0.14)">
     <use xlink:href="#DecimaMonoPro-169"/>
     <use x="59.999985" xlink:href="#DecimaMonoPro-115"/>
     <use x="119.999969" xlink:href="#DecimaMonoPro-112"/>
     <use x="179.999954" xlink:href="#DecimaMonoPro-114"/>
     <use x="239.999939" xlink:href="#DecimaMonoPro-101"/>
     <use x="299.999924" xlink:href="#DecimaMonoPro-100"/>
    </g>
   </g>
   <g id="text_14">
    <!-- 1 -->
    <defs>
     <path d="M 26.5 70 
L 7.09375 58.40625 
L 7.09375 47.203125 
L 20.203125 55 
L 20.203125 0 
L 30.796875 0 
L 30.796875 70 
z
" id="ApercuPro-Medium-49"/>
    </defs>
    <g style="opacity:0.75;" transform="translate(72 50.4)scale(0.3 -0.3)">
     <use xlink:href="#ApercuPro-Medium-49"/>
    </g>
   </g>
   <g id="legend_1">
    <g id="patch_8">
     <path d="M 548.08 106.568438 
L 599.32 106.568438 
Q 602.12 106.568438 602.12 103.768438 
L 602.12 85.4 
Q 602.12 82.6 599.32 82.6 
L 548.08 82.6 
Q 545.28 82.6 545.28 85.4 
L 545.28 103.768438 
Q 545.28 106.568438 548.08 106.568438 
z
" style="fill:#f0f0f0;opacity:0.8;stroke:#cccccc;stroke-linejoin:miter;stroke-width:0.5;"/>
    </g>
    <g id="line2d_23">
     <path d="M 550.88 93.211562 
L 578.88 93.211562 
" style="fill:none;stroke:#000004;stroke-width:3;"/>
    </g>
    <g id="line2d_24"/>
    <g id="text_15">
     <!-- y -->
     <g style="opacity:0.75;" transform="translate(590.08 98.111562)scale(0.14 -0.14)">
      <use xlink:href="#Apercu-121"/>
     </g>
    </g>
   </g>
  </g>
 </g>
 <defs>
  <clipPath id="p768e42834f">
   <rect height="337.68" width="531.36" x="77.76" y="75.6"/>
  </clipPath>
 </defs>
</svg>
